<svg width="22" height="22" viewBox="0 0 22 22" fill="none" xmlns="http://www.w3.org/2000/svg">
<g id="chats_outline_28 2" clip-path="url(#clip0_7_1720)">
<g id="Icons-28/chats_outline_28">
<g id="chats_outline_28">
<path id="&#226;&#134;&#179;-Icon-Color" d="M18.6265 7.59143C19.7769 8.73273 20.4287 10.2125 20.4287 11.7857C20.4287 12.7832 20.1669 13.7467 19.6743 14.6132C19.7537 15.0873 19.9827 15.8069 20.3625 16.7475L20.5655 17.2376L20.6103 17.3696L20.63 17.4467C20.7328 17.956 20.4643 18.4719 19.981 18.6768C19.8272 18.742 19.6606 18.7713 19.4939 18.7626C17.9947 18.6838 16.7987 18.3182 15.9268 17.6441C15.1156 17.925 14.2475 18.0714 13.3573 18.0714C12.4502 18.0714 11.5654 17.9195 10.7393 17.627C10.3302 17.4822 10.1159 17.0332 10.2607 16.6242C10.4055 16.2151 10.8545 16.0009 11.2636 16.1457C11.9213 16.3785 12.6288 16.5 13.3573 16.5C14.2109 16.5 15.035 16.3331 15.7825 16.0171C16.0784 15.892 16.4206 15.9596 16.6467 16.1879C17.0786 16.6239 17.7244 16.9276 18.5966 17.0843L18.8194 17.1205C18.3686 15.9769 18.1213 15.1133 18.0785 14.4937C18.067 14.3268 18.109 14.1605 18.1986 14.0192C18.6297 13.3384 18.8573 12.5767 18.8573 11.7857C18.8573 10.6434 18.3804 9.56089 17.5197 8.70699C17.2117 8.40137 17.2097 7.90389 17.5153 7.59584C17.821 7.28778 18.3184 7.28581 18.6265 7.59143ZM8.64286 2.35712C12.5267 2.35712 15.7143 5.14626 15.7143 8.64283C15.7143 12.1394 12.5267 14.9285 8.64286 14.9285C7.75266 14.9285 6.88457 14.7822 6.07338 14.5012C5.20141 15.1754 4.00543 15.5409 2.50628 15.6197C2.3395 15.6285 2.1729 15.5992 2.01913 15.534C1.53579 15.329 1.26737 14.8131 1.37018 14.3039L1.38987 14.2267L1.4346 14.0947L1.53959 13.8443C1.94448 12.8672 2.19849 12.1088 2.30287 11.594L2.32585 11.4704L2.20752 11.2518C1.7914 10.443 1.57143 9.55719 1.57143 8.64283C1.57143 5.14626 4.75902 2.35712 8.64286 2.35712ZM8.64286 3.92855C5.58369 3.92855 3.14286 6.06427 3.14286 8.64283C3.14286 9.43381 3.37045 10.1955 3.80158 10.8763C3.89111 11.0177 3.93317 11.1839 3.92163 11.3509C3.88187 11.9262 3.66586 12.7119 3.27426 13.7368L3.18077 13.9776L3.40355 13.9415C4.27576 13.7847 4.92157 13.481 5.35342 13.045C5.57949 12.8167 5.92174 12.7491 6.21763 12.8742C6.96514 13.1902 7.78922 13.3571 8.64286 13.3571C11.702 13.3571 14.1429 11.2214 14.1429 8.64283C14.1429 6.06427 11.702 3.92855 8.64286 3.92855Z" fill="#286294"/>
</g>
</g>
</g>
<defs>
<clipPath id="clip0_7_1720">
<rect width="22" height="22" fill="white"/>
</clipPath>
</defs>
</svg>
