<svg width="18" height="18" viewBox="0 0 18 18" fill="none" xmlns="http://www.w3.org/2000/svg">
<g id="fullscreen_outline_28 2">
<path id="Vector" d="M2.89412 14.4489C2.89197 14.5346 2.90703 14.6198 2.93839 14.6995C2.96976 14.7793 3.0168 14.8519 3.07674 14.9132C3.13668 14.9745 3.20829 15.0231 3.28734 15.0562C3.36639 15.0893 3.45128 15.1062 3.53698 15.1059H6.74998C6.92048 15.1059 7.08399 15.0382 7.20455 14.9176C7.32511 14.797 7.39284 14.6335 7.39284 14.463C7.39284 14.2925 7.32511 14.129 7.20455 14.0085C7.08399 13.8879 6.92048 13.8202 6.74998 13.8202H5.08884L7.84798 11.061C7.96508 10.9398 8.02988 10.7774 8.02841 10.6088C8.02695 10.4403 7.95934 10.279 7.84015 10.1599C7.72096 10.0407 7.55972 9.97305 7.39117 9.97159C7.22261 9.97012 7.06022 10.0349 6.93898 10.152L4.17984 12.9112V11.2487C4.17984 11.0782 4.11211 10.9147 3.99155 10.7942C3.87099 10.6736 3.70748 10.6059 3.53698 10.6059C3.36648 10.6059 3.20297 10.6736 3.08241 10.7942C2.96185 10.9147 2.89412 11.0782 2.89412 11.2487V14.4489ZM14.4611 2.89417H11.2487C11.0782 2.89417 10.9147 2.9619 10.7941 3.08246C10.6736 3.20301 10.6058 3.36653 10.6058 3.53702C10.6058 3.70752 10.6736 3.87103 10.7941 3.99159C10.9147 4.11215 11.0782 4.17988 11.2487 4.17988H12.9092L10.1507 6.93774C10.0301 7.05828 9.96227 7.2218 9.96221 7.39233C9.96215 7.56286 10.0298 7.72643 10.1504 7.84706C10.2709 7.96768 10.4344 8.03549 10.605 8.03555C10.7755 8.03561 10.9391 7.96792 11.0597 7.84738L13.8182 5.08888V6.75131C13.8182 6.9218 13.8859 7.08532 14.0065 7.20588C14.127 7.32644 14.2906 7.39417 14.4611 7.39417C14.6315 7.39417 14.7951 7.32644 14.9156 7.20588C15.0362 7.08532 15.1039 6.9218 15.1039 6.75131V3.53702C15.1041 3.44335 15.0838 3.35078 15.0444 3.26581C15.0049 3.18085 14.9474 3.10555 14.8757 3.04524C14.7597 2.94739 14.6128 2.89385 14.4611 2.89417Z" fill="white"/>
</g>
</svg>
