<svg width="23" height="23" viewBox="0 0 23 23" fill="none" xmlns="http://www.w3.org/2000/svg">
<path fill-rule="evenodd" clip-rule="evenodd" d="M11.5 1.64283C10.2053 1.64137 8.92311 1.89568 7.72702 2.39118C6.53093 2.88667 5.44451 3.61358 4.53015 4.53015C3.61358 5.44451 2.88667 6.53093 2.39118 7.72702C1.89568 8.92311 1.64137 10.2053 1.64283 11.5C1.64283 14.2214 2.74683 16.6873 4.53015 18.4698C5.44451 19.3864 6.53093 20.1133 7.72702 20.6088C8.92311 21.1043 10.2053 21.3586 11.5 21.3571C14.2214 21.3571 16.6873 20.2531 18.4698 18.4698C19.3864 17.5554 20.1133 16.469 20.6088 15.2729C21.1043 14.0768 21.3586 12.7946 21.3571 11.5C21.3571 8.77858 20.2531 6.31265 18.4698 4.53015C17.5554 3.61358 16.469 2.88667 15.2729 2.39118C14.0768 1.89568 12.7946 1.64137 11.5 1.64283ZM5.69165 5.69165C6.45349 4.92764 7.35884 4.32177 8.35564 3.90886C9.35244 3.49596 10.421 3.28418 11.5 3.28569C12.5789 3.28418 13.6475 3.49596 14.6443 3.90886C15.6411 4.32177 16.5465 4.92764 17.3083 5.69165C18.0723 6.45349 18.6782 7.35884 19.0911 8.35564C19.504 9.35244 19.7158 10.421 19.7143 11.5C19.7158 12.5789 19.504 13.6475 19.0911 14.6443C18.6782 15.6411 18.0723 16.5465 17.3083 17.3083C16.5465 18.0723 15.6411 18.6782 14.6443 19.0911C13.6475 19.504 12.5789 19.7158 11.5 19.7143C10.421 19.7158 9.35244 19.504 8.35564 19.0911C7.35884 18.6782 6.45349 18.0723 5.69165 17.3083C4.92764 16.5465 4.32177 15.6411 3.90886 14.6443C3.49596 13.6475 3.28418 12.5789 3.28569 11.5C3.28418 10.421 3.49596 9.35244 3.90886 8.35564C4.32177 7.35884 4.92764 6.45349 5.69165 5.69165ZM9.38233 7.39283C7.61872 7.39283 6.16069 8.81636 6.16069 10.5964C6.16069 11.5222 6.41204 12.254 7.00758 12.9917C7.55383 13.6685 8.39908 14.3569 9.53347 15.2449L9.53676 15.2465L10.7106 16.1583C10.9364 16.3336 11.2141 16.4288 11.5 16.4288C11.7858 16.4288 12.0636 16.3336 12.2894 16.1583L13.464 15.2465L13.4665 15.2449C14.6 14.3569 15.4461 13.6677 15.9924 12.9917C16.5879 12.254 16.8393 11.5222 16.8393 10.5964C16.8393 8.81636 15.3812 7.39283 13.6176 7.39283C12.8126 7.39283 12.1021 7.66719 11.4959 8.16251C10.888 7.66965 10.1816 7.39283 9.38233 7.39283ZM7.80354 10.5964C7.80354 9.73965 8.50997 9.03569 9.38233 9.03569C9.89161 9.03569 10.3795 9.25501 10.8658 9.84644C10.9433 9.94051 11.0408 10.0161 11.1512 10.0679C11.2616 10.1196 11.3821 10.1461 11.504 10.1455C11.6259 10.1448 11.7461 10.1171 11.856 10.0642C11.9658 10.0114 12.0625 9.93473 12.139 9.83986C12.6089 9.25665 13.0935 9.03569 13.6176 9.03569C14.49 9.03569 15.1964 9.73965 15.1964 10.5964C15.1964 11.1509 15.0715 11.518 14.7142 11.96C14.3084 12.4627 13.6242 13.0344 12.4553 13.9503L12.4537 13.9511L11.5 14.6912L10.5471 13.9511L10.5455 13.9503C9.37576 13.0344 8.69233 12.4627 8.28572 11.96C7.92922 11.518 7.80354 11.1509 7.80354 10.5964Z" fill="#969AA3"/>
</svg>
