<svg width="19" height="19" viewBox="0 0 19 19" fill="none" xmlns="http://www.w3.org/2000/svg">
<g id="location_map_outline_28 4">
<path id="Vector" d="M9.5 7.46429C10.2495 7.46429 10.8571 6.85669 10.8571 6.10714C10.8571 5.35761 10.2495 4.75 9.5 4.75C8.75045 4.75 8.14285 5.35761 8.14285 6.10714C8.14285 6.85669 8.75045 7.46429 9.5 7.46429Z" fill="#EF4136"/>
<path id="Vector_2" fill-rule="evenodd" clip-rule="evenodd" d="M4.75 6.10715C4.75 3.4838 6.87664 1.35715 9.5 1.35715C12.1234 1.35715 14.25 3.4838 14.25 6.10715C14.25 9.16472 12.1884 11.6997 10.9624 12.9486C10.1491 13.777 8.85095 13.777 8.03761 12.9486C6.81164 11.6997 4.75 9.16472 4.75 6.10715ZM9.5 2.71429C7.62619 2.71429 6.10714 4.23333 6.10714 6.10715C6.10714 8.59554 7.82271 10.7924 9.00607 11.9978C9.28747 12.2845 9.71253 12.2845 9.99393 11.9978C11.1773 10.7924 12.8929 8.59554 12.8929 6.10715C12.8929 4.23333 11.3738 2.71429 9.5 2.71429Z" fill="#EF4136"/>
<path id="Vector_3" d="M4.9279 11.2456C5.1718 11.5301 5.13888 11.9585 4.85435 12.2024C4.32373 12.6573 4.07144 13.1593 4.07144 13.5714C4.07144 14.15 4.50157 14.8165 5.51115 15.3774C6.49774 15.9255 7.90665 16.2857 9.50001 16.2857C11.0934 16.2857 12.5023 15.9255 13.4889 15.3774C14.4984 14.8165 14.9286 14.15 14.9286 13.5714C14.9286 13.1479 14.6962 12.6794 14.1526 12.2226C13.8658 11.9814 13.8287 11.5534 14.0698 11.2665C14.311 10.9796 14.7391 10.9425 15.026 11.1837C15.7572 11.7984 16.2857 12.6142 16.2857 13.5714C16.2857 14.8667 15.3488 15.8966 14.148 16.5637C12.9242 17.2436 11.2796 17.6429 9.50001 17.6429C7.72045 17.6429 6.07582 17.2436 4.85207 16.5637C3.65129 15.8966 2.71429 14.8667 2.71429 13.5714C2.71429 12.6247 3.26375 11.7784 3.97107 11.1721C4.25559 10.9281 4.68398 10.961 4.9279 11.2456Z" fill="#393F42"/>
</g>
</svg>
