<svg width="9" height="9" viewBox="0 0 9 9" fill="none" xmlns="http://www.w3.org/2000/svg">
<g id="location_map_outline_28 1">
<path id="Vector" d="M4.5 3.53571C4.85505 3.53571 5.14286 3.24791 5.14286 2.89286C5.14286 2.53782 4.85505 2.25 4.5 2.25C4.14495 2.25 3.85715 2.53782 3.85715 2.89286C3.85715 3.24791 4.14495 3.53571 4.5 3.53571Z" fill="#286294"/>
<path id="Vector_2" fill-rule="evenodd" clip-rule="evenodd" d="M2.25 2.89285C2.25 1.65021 3.25736 0.642853 4.5 0.642853C5.74264 0.642853 6.75 1.65021 6.75 2.89285C6.75 4.34118 5.77344 5.54197 5.19271 6.13353C4.80745 6.52596 4.19255 6.52596 3.80729 6.13353C3.22656 5.54197 2.25 4.34118 2.25 2.89285ZM4.5 1.28571C3.61241 1.28571 2.89286 2.00525 2.89286 2.89285C2.89286 4.07156 3.70549 5.11219 4.26603 5.68317C4.39933 5.81895 4.60067 5.81895 4.73397 5.68317C5.29451 5.11219 6.10714 4.07156 6.10714 2.89285C6.10714 2.00525 5.38759 1.28571 4.5 1.28571Z" fill="#286294"/>
<path id="Vector_3" d="M2.33425 5.32683C2.44979 5.4616 2.43419 5.66452 2.29942 5.78007C2.04807 5.99553 1.92856 6.23335 1.92856 6.42856C1.92856 6.70261 2.13231 7.01831 2.61053 7.28401C3.07787 7.54362 3.74524 7.71427 4.49999 7.71427C5.25474 7.71427 5.92212 7.54362 6.38944 7.28401C6.86767 7.01831 7.07142 6.70261 7.07142 6.42856C7.07142 6.22795 6.96133 6.00601 6.70387 5.78962C6.568 5.67539 6.55042 5.47263 6.66465 5.33673C6.77889 5.20086 6.98164 5.18328 7.11754 5.29751C7.46395 5.5887 7.71428 5.97515 7.71428 6.42856C7.71428 7.0421 7.27045 7.52996 6.70165 7.84596C6.12198 8.168 5.34294 8.35713 4.49999 8.35713C3.65704 8.35713 2.87801 8.168 2.29833 7.84596C1.72955 7.52996 1.28571 7.0421 1.28571 6.42856C1.28571 5.9801 1.54598 5.57921 1.88102 5.29202C2.0158 5.17646 2.21872 5.19205 2.33425 5.32683Z" fill="#286294"/>
</g>
</svg>
