<svg width="44" height="44" viewBox="0 0 44 44" fill="none" xmlns="http://www.w3.org/2000/svg">
<g id="market_circle_fill_yellow_28 1" clip-path="url(#clip0_34_903)">
<path id="Vector" d="M44 22C44 9.84974 34.1503 0 22 0C9.84974 0 0 9.84974 0 22C0 34.1503 9.84974 44 22 44C34.1503 44 44 34.1503 44 22Z" fill="url(#paint0_linear_34_903)"/>
<path id="Vector_2" d="M22 9.42856C23.6671 9.42856 25.2659 10.0908 26.4447 11.2696C27.6235 12.4484 28.2857 14.0472 28.2857 15.7143H30.4826C31.3579 15.7143 31.6753 15.8054 31.9943 15.9767C32.3149 16.148 32.5663 16.3994 32.7376 16.72C32.9089 17.039 33 17.3564 33 18.2317V26.4534C33 28.7288 32.7643 29.5554 32.318 30.3867C31.8733 31.2196 31.2196 31.8733 30.3867 32.318C29.5539 32.7627 28.7289 33 26.4534 33H17.5466C15.2711 33 14.4446 32.7643 13.6133 32.318C12.7904 31.8825 12.1174 31.2096 11.682 30.3867C11.2373 29.5538 11 28.7288 11 26.4534V18.2317C11 17.3564 11.0911 17.039 11.2624 16.7184C11.4337 16.3994 11.6851 16.148 12.0041 15.9767C12.3247 15.8054 12.6421 15.7143 13.5174 15.7143H15.7143C15.7143 14.0472 16.3765 12.4484 17.5553 11.2696C18.7341 10.0908 20.3329 9.42856 22 9.42856ZM16.9259 18.0714H16.8583C16.6021 18.0714 16.4026 18.1186 16.236 18.2081C16.0721 18.2951 15.938 18.4292 15.851 18.5931C15.7539 18.7858 15.7068 18.9998 15.7143 19.2154V19.283C15.7143 19.5407 15.7614 19.7387 15.851 19.9053C15.939 20.0718 16.071 20.2038 16.236 20.2918C16.4286 20.389 16.6427 20.436 16.8583 20.4286H16.9259C17.1836 20.4286 17.3816 20.3814 17.5481 20.2918C17.7126 20.2051 17.8473 20.071 17.9347 19.9068C18.0318 19.7142 18.0789 19.5002 18.0714 19.2846V19.217C18.0714 18.9593 18.0243 18.7613 17.9347 18.5947C17.848 18.4302 17.7139 18.2955 17.5497 18.2081C17.3571 18.111 17.143 18.064 16.9274 18.0714H16.9259ZM27.1401 18.0714H27.0726C26.8149 18.0714 26.6169 18.1186 26.4503 18.2081C26.2864 18.2951 26.1523 18.4292 26.0653 18.5931C25.9682 18.7858 25.9211 18.9998 25.9286 19.2154V19.283C25.9286 19.5407 25.9757 19.7387 26.0653 19.9053C26.1533 20.0718 26.2853 20.2038 26.4503 20.2918C26.6429 20.389 26.857 20.436 27.0726 20.4286H27.1401C27.3558 20.4365 27.5699 20.3894 27.7624 20.2918C27.9269 20.2051 28.0616 20.071 28.149 19.9068C28.2461 19.7142 28.2932 19.5002 28.2857 19.2846V19.217C28.2857 18.9593 28.2386 18.7613 28.149 18.5947C28.0623 18.4302 27.9281 18.2955 27.764 18.2081C27.5714 18.111 27.3558 18.064 27.1401 18.0714ZM22 11.7857C20.9581 11.7857 19.9588 12.1996 19.2221 12.9364C18.4853 13.6731 18.0714 14.6724 18.0714 15.7143H25.9286C25.9286 14.6724 25.5147 13.6731 24.7779 12.9364C24.0412 12.1996 23.0419 11.7857 22 11.7857Z" fill="white"/>
</g>
<defs>
<linearGradient id="paint0_linear_34_903" x1="22" y1="0" x2="22" y2="44" gradientUnits="userSpaceOnUse">
<stop stop-color="#286294"/>
<stop offset="1" stop-color="#4480C2" stop-opacity="0.72"/>
</linearGradient>
<clipPath id="clip0_34_903">
<rect width="44" height="44" fill="white"/>
</clipPath>
</defs>
</svg>
