<svg width="32" height="32" viewBox="0 0 32 32" fill="none" xmlns="http://www.w3.org/2000/svg">
<g id="market_fill_blue_48 2" clip-path="url(#clip0_7_1725)">
<path id="Vector" d="M32 16C32 7.16344 24.8366 0 16 0C7.16344 0 0 7.16344 0 16C0 24.8366 7.16344 32 16 32C24.8366 32 32 24.8366 32 16Z" fill="url(#paint0_linear_7_1725)"/>
<path id="Vector_2" fill-rule="evenodd" clip-rule="evenodd" d="M11.3333 11.3334C11.3333 9.74802 11.9887 8.55669 12.9247 7.77669C13.838 7.01535 14.99 6.66669 16 6.66669C17.01 6.66669 18.162 7.01535 19.0753 7.77669C20.0113 8.55669 20.6667 9.74802 20.6667 11.3334H22.1687C22.8053 11.3334 23.0367 11.4 23.2687 11.524C23.502 11.6487 23.6847 11.8314 23.8087 12.064C23.934 12.2974 24 12.528 24 13.1647V19.238C24 20.894 23.8273 21.4947 23.504 22.1C23.1874 22.6982 22.6982 23.1874 22.1 23.504C21.4947 23.8274 20.894 24 19.2387 24H12.7613C11.106 24 10.5053 23.8274 9.9 23.504C9.3018 23.1874 8.81262 22.6982 8.496 22.1C8.17333 21.4947 8 20.8934 8 19.2387V13.1647C8 12.528 8.06667 12.2967 8.19067 12.0647C8.31221 11.8344 8.50042 11.6462 8.73067 11.5247C8.964 11.3994 9.19467 11.3334 9.83133 11.3334H11.3333ZM13 11.3334C13 10.252 13.428 9.52669 13.992 9.05669C14.5599 8.59478 15.268 8.33971 16 8.33335C16.732 8.33971 17.4401 8.59478 18.008 9.05669C18.572 9.52669 19 10.252 19 11.3334H13ZM12.2153 12.9527H12.166C11.9787 12.9527 11.8347 12.9867 11.7133 13.0514C11.5927 13.116 11.4973 13.2114 11.4327 13.3327C11.3621 13.4726 11.3279 13.6281 11.3333 13.7847V13.834C11.3333 14.0214 11.368 14.1654 11.4327 14.2867C11.4973 14.4074 11.5927 14.5027 11.7133 14.5674C11.8347 14.632 11.9787 14.6667 12.166 14.6667H12.2153C12.402 14.6667 12.5467 14.632 12.6673 14.5674C12.7887 14.5027 12.884 14.4074 12.9487 14.2867C13.0133 14.1654 13.0473 14.0214 13.0473 13.834V13.7847C13.0473 13.598 13.0133 13.4534 12.9487 13.3327C12.8853 13.2128 12.7873 13.1147 12.6673 13.0514C12.5274 12.981 12.3719 12.9471 12.2153 12.9527ZM20.6667 13.7847C20.6667 13.598 20.632 13.4534 20.5673 13.3327C20.5041 13.2129 20.4063 13.1149 20.2867 13.0514C20.1465 12.9809 19.9908 12.947 19.834 12.9527H19.7847C19.598 12.9527 19.4533 12.9867 19.3327 13.0514C19.2127 13.1147 19.1146 13.2127 19.0513 13.3327C18.981 13.4727 18.947 13.6281 18.9527 13.7847V13.834C18.9527 14.0214 18.9867 14.1654 19.0513 14.2867C19.116 14.4074 19.2113 14.5027 19.3327 14.5674C19.4533 14.632 19.5973 14.6667 19.7847 14.6667H19.834C20.0213 14.6667 20.1653 14.632 20.2867 14.5674C20.4073 14.5027 20.5027 14.4074 20.5673 14.2867C20.632 14.1654 20.6667 14.0214 20.6667 13.834V13.7847Z" fill="white"/>
</g>
<defs>
<linearGradient id="paint0_linear_7_1725" x1="0" y1="0" x2="32.8373" y2="0.884" gradientUnits="userSpaceOnUse">
<stop stop-color="#286294"/>
<stop offset="1" stop-color="#5C9CE6"/>
</linearGradient>
<clipPath id="clip0_7_1725">
<rect width="32" height="32" fill="white"/>
</clipPath>
</defs>
</svg>
