<svg width="16" height="16" viewBox="0 0 16 16" fill="none" xmlns="http://www.w3.org/2000/svg">
<g id="profile_28 1" clip-path="url(#clip0_1_565)">
<g id="Other">
<g id="Component:-ModalPage">
<g id="profile_28">
<path id="Vector" d="M8 1.14285C11.7871 1.14285 14.8571 4.2129 14.8571 8C14.8571 11.7871 11.7871 14.8571 8 14.8571C4.2129 14.8571 1.14285 11.7871 1.14285 8C1.14285 4.2129 4.2129 1.14285 8 1.14285ZM8 11.7143C6.80803 11.7143 5.66859 12.0468 4.68755 12.6566C5.62181 13.3226 6.76516 13.7143 8 13.7143C9.23458 13.7143 10.3777 13.3228 11.312 12.6571C10.3311 12.0468 9.19181 11.7143 8 11.7143ZM8 2.28571C4.84408 2.28571 2.28571 4.84408 2.28571 8C2.28571 9.49467 2.85957 10.8553 3.79898 11.8736C5.02035 11.0333 6.47484 10.5714 8 10.5714C9.52531 10.5714 10.98 11.0333 12.2015 11.8728C13.1406 10.8548 13.7143 9.49439 13.7143 8C13.7143 4.84408 11.1559 2.28571 8 2.28571ZM8 4.28571C9.49952 4.28571 10.7143 5.50048 10.7143 7C10.7143 8.49952 9.49952 9.71428 8 9.71428C6.50048 9.71428 5.28571 8.49952 5.28571 7C5.28571 5.50048 6.50048 4.28571 8 4.28571ZM8 5.42857C7.13166 5.42857 6.42857 6.13166 6.42857 7C6.42857 7.86833 7.13166 8.57142 8 8.57142C8.86833 8.57142 9.57142 7.86833 9.57142 7C9.57142 6.13166 8.86833 5.42857 8 5.42857Z" fill="#286294"/>
</g>
</g>
</g>
</g>
<defs>
<clipPath id="clip0_1_565">
<rect width="16" height="16" fill="white"/>
</clipPath>
</defs>
</svg>
