<svg width="21" height="21" viewBox="0 0 21 21" fill="none" xmlns="http://www.w3.org/2000/svg">
<g id="share_external_outline_28 3" clip-path="url(#clip0_8_1747)">
<g id="Page-1">
<g id="share_external_outline_28">
<path id="&#226;&#134;&#179;-Icon-Color-2" d="M15 2.5C16.6569 2.5 18 3.84315 18 5.5C18 7.15685 16.6569 8.5 15 8.5C14.1921 8.5 13.4588 8.18066 12.9194 7.66132L8.11792 10.6169C8.20378 10.8961 8.25 11.1927 8.25 11.5C8.25 11.8076 8.2037 12.1044 8.11768 12.3838L12.9187 15.3394C13.4581 14.8196 14.1917 14.5 15 14.5C16.6569 14.5 18 15.8431 18 17.5C18 19.1569 16.6569 20.5 15 20.5C13.3431 20.5 12 19.1569 12 17.5C12 17.1924 12.0463 16.8956 12.1323 16.6162L7.33056 13.6613C6.79119 14.1807 6.05789 14.5 5.25 14.5C3.59315 14.5 2.25 13.1569 2.25 11.5C2.25 9.84315 3.59315 8.5 5.25 8.5C6.05789 8.5 6.79119 8.81934 7.33056 9.33868L12.1323 6.38385C12.0463 6.10444 12 5.80763 12 5.5C12 3.84315 13.3431 2.5 15 2.5ZM15 16C14.1716 16 13.5 16.6716 13.5 17.5C13.5 18.3284 14.1716 19 15 19C15.8284 19 16.5 18.3284 16.5 17.5C16.5 16.6716 15.8284 16 15 16ZM5.25 10C4.42157 10 3.75 10.6716 3.75 11.5C3.75 12.3284 4.42157 13 5.25 13C6.07843 13 6.75 12.3284 6.75 11.5C6.75 10.6716 6.07843 10 5.25 10ZM15 4C14.1716 4 13.5 4.67157 13.5 5.5C13.5 6.32843 14.1716 7 15 7C15.8284 7 16.5 6.32843 16.5 5.5C16.5 4.67157 15.8284 4 15 4Z" fill="#969AA3"/>
</g>
</g>
</g>
<defs>
<clipPath id="clip0_8_1747">
<rect width="21" height="21" fill="white"/>
</clipPath>
</defs>
</svg>
