<svg width="16" height="16" viewBox="0 0 16 16" fill="none" xmlns="http://www.w3.org/2000/svg">
<g id="share_outline_28 1">
<path id="Vector" fill-rule="evenodd" clip-rule="evenodd" d="M7.70031 3.72151C7.70031 3.46913 7.97768 3.3497 8.1558 3.48954L13.6027 7.76593C13.7515 7.88273 13.7515 8.11308 13.6027 8.22988L8.1558 12.5063C7.97768 12.6461 7.70031 12.5267 7.70031 12.2743V9.71159C7.70031 9.3961 7.44448 9.14033 7.12888 9.14033C5.09182 9.14033 3.55678 9.96799 2.40967 11.007C2.61588 9.77176 3.06815 8.8317 3.68055 8.12365C4.53615 7.13439 5.75866 6.53519 7.23443 6.25805C7.5046 6.2073 7.70031 5.97142 7.70031 5.69662V3.72151ZM8.86168 2.59108C7.91666 1.84914 6.55746 2.53763 6.55746 3.72151V5.23412C5.09218 5.58235 3.78399 6.2573 2.81601 7.37645C1.74354 8.61645 1.14288 10.3391 1.14288 12.6005C1.14288 12.8443 1.29761 13.0611 1.52815 13.1406C1.75869 13.22 2.01423 13.1444 2.16444 12.9524C3.15944 11.6805 4.55017 10.4999 6.55746 10.3095V12.2743C6.55746 13.4582 7.91666 14.1467 8.86168 13.4047L14.3087 9.12833C15.04 8.55416 15.04 7.4417 14.3087 6.86748L8.86168 2.59108Z" fill="#286294"/>
</g>
</svg>
