<svg width="16" height="16" viewBox="0 0 16 16" fill="none" xmlns="http://www.w3.org/2000/svg">
<g id="storefront_outline_28 1">
<path id="Vector" fill-rule="evenodd" clip-rule="evenodd" d="M5.84113 2.28573H10.1588C10.4754 2.28573 10.7543 2.28516 11.0143 2.36916C11.2418 2.44266 11.4514 2.56295 11.6297 2.7223C11.8331 2.90459 11.9731 3.14516 12.1326 3.41944L13.4308 5.64459C13.4806 5.7303 13.5246 5.80573 13.5611 5.88687C13.6377 6.05544 13.6868 6.23544 13.7051 6.41944C13.7143 6.50801 13.7143 6.59487 13.7143 6.69373V6.7143C13.7143 7.07832 13.6073 7.43431 13.4066 7.73802C13.2059 8.04172 12.9204 8.27976 12.5855 8.42253C12.2507 8.5653 11.8812 8.60651 11.5231 8.54104C11.1651 8.47558 10.8341 8.30631 10.5714 8.0543C10.226 8.38668 9.76508 8.57207 9.28571 8.57144C8.80635 8.57201 8.34546 8.38662 7.99999 8.0543C7.65456 8.38668 7.19365 8.57207 6.71428 8.57144C6.23492 8.57201 5.77403 8.38662 5.42856 8.0543C5.16588 8.30631 4.83493 8.47558 4.47685 8.54104C4.11876 8.60651 3.74933 8.5653 3.41447 8.42253C3.07962 8.27976 2.7941 8.04172 2.59342 7.73802C2.39273 7.43431 2.28573 7.07832 2.28571 6.7143V6.6943C2.28571 6.59487 2.28571 6.50801 2.29485 6.42001C2.31372 6.23568 2.36235 6.05563 2.43885 5.88687C2.47808 5.80381 2.52176 5.72294 2.56971 5.64459L3.86742 3.41944C4.02742 3.14516 4.16685 2.90459 4.37028 2.7223C4.54871 2.56289 4.75855 2.44259 4.98628 2.36916C5.24571 2.28516 5.52456 2.28516 5.84113 2.28573ZM12.5686 6.53659C12.5721 6.59575 12.573 6.65505 12.5714 6.7143C12.5714 6.90374 12.4962 7.08542 12.3622 7.21938C12.2283 7.35333 12.0466 7.42859 11.8571 7.42859C11.6677 7.42859 11.486 7.35333 11.3521 7.21938C11.2181 7.08542 11.1428 6.90374 11.1428 6.7143C11.1428 6.56275 11.0826 6.4174 10.9755 6.31024C10.8683 6.20307 10.723 6.14287 10.5714 6.14287C10.4199 6.14287 10.2745 6.20307 10.1674 6.31024C10.0602 6.4174 9.99999 6.56275 9.99999 6.7143C9.99999 6.90374 9.92474 7.08542 9.79078 7.21938C9.65683 7.35333 9.47515 7.42859 9.28571 7.42859C9.09627 7.42859 8.91458 7.35333 8.78063 7.21938C8.64668 7.08542 8.57142 6.90374 8.57142 6.7143C8.57142 6.56275 8.51122 6.4174 8.40405 6.31024C8.29689 6.20307 8.15154 6.14287 7.99999 6.14287C7.84844 6.14287 7.70309 6.20307 7.59593 6.31024C7.48877 6.4174 7.42856 6.56275 7.42856 6.7143C7.42856 6.90374 7.35331 7.08542 7.21935 7.21938C7.0854 7.35333 6.90372 7.42859 6.71428 7.42859C6.52484 7.42859 6.34316 7.35333 6.2092 7.21938C6.07525 7.08542 5.99999 6.90374 5.99999 6.7143C5.99999 6.56275 5.93979 6.4174 5.83262 6.31024C5.72546 6.20307 5.58012 6.14287 5.42856 6.14287C5.27701 6.14287 5.13167 6.20307 5.0245 6.31024C4.91734 6.4174 4.85713 6.56275 4.85713 6.7143C4.85713 6.90374 4.78188 7.08542 4.64792 7.21938C4.51397 7.35333 4.33229 7.42859 4.14285 7.42859C3.95341 7.42859 3.77173 7.35333 3.63777 7.21938C3.50382 7.08542 3.42856 6.90374 3.42856 6.7143C3.42856 6.58459 3.42913 6.55887 3.43142 6.53659C3.43771 6.47514 3.45392 6.41513 3.47942 6.35887C3.48913 6.3383 3.50113 6.31544 3.56685 6.20344L4.82171 4.05144C5.03371 3.68801 5.08113 3.61944 5.13256 3.57373C5.19193 3.52041 5.26182 3.48011 5.33771 3.45544C5.40285 3.4343 5.48628 3.42801 5.90742 3.42801H10.0926C10.5137 3.42801 10.5971 3.4343 10.6623 3.45544C10.7384 3.48004 10.8085 3.52034 10.868 3.57373C10.9188 3.61944 10.9663 3.68801 11.1783 4.05144L12.4331 6.20287C12.4988 6.31487 12.5108 6.33773 12.5206 6.3583C12.546 6.41436 12.5622 6.47419 12.5686 6.53544V6.53659Z" fill="#286294"/>
<path id="Vector_2" d="M5.14285 10.2857C5.14285 10.1342 5.08264 9.98883 4.97548 9.88166C4.86832 9.7745 4.72297 9.71429 4.57142 9.71429C4.41987 9.71429 4.27452 9.7745 4.16736 9.88166C4.0602 9.98883 3.99999 10.1342 3.99999 10.2857V12.5714H2.85713C2.70558 12.5714 2.56024 12.6316 2.45307 12.7388C2.34591 12.846 2.28571 12.9913 2.28571 13.1429C2.28571 13.2944 2.34591 13.4398 2.45307 13.5469C2.56024 13.6541 2.70558 13.7143 2.85713 13.7143H13.1428C13.2944 13.7143 13.4397 13.6541 13.5469 13.5469C13.6541 13.4398 13.7143 13.2944 13.7143 13.1429C13.7143 12.9913 13.6541 12.846 13.5469 12.7388C13.4397 12.6316 13.2944 12.5714 13.1428 12.5714H12V10.2857C12 10.1342 11.9398 9.98883 11.8326 9.88166C11.7255 9.7745 11.5801 9.71429 11.4286 9.71429C11.277 9.71429 11.1317 9.7745 11.0245 9.88166C10.9173 9.98883 10.8571 10.1342 10.8571 10.2857V12.5714H5.14285V10.2857Z" fill="#286294"/>
</g>
</svg>
