<svg width="16" height="16" viewBox="0 0 16 16" fill="none" xmlns="http://www.w3.org/2000/svg">
<g id="users_3_outline_20 1">
<path id="Vector" fill-rule="evenodd" clip-rule="evenodd" d="M8.00001 6.2C7.44773 6.2 7.00001 5.75229 7.00001 5.2C7.00001 4.64771 7.44773 4.2 8.00001 4.2C8.55233 4.2 9.00001 4.64771 9.00001 5.2C9.00001 5.75229 8.55233 6.2 8.00001 6.2ZM5.80001 5.2C5.80001 3.98498 6.78499 3 8.00001 3C9.21505 3 10.2 3.98498 10.2 5.2C10.2 6.41502 9.21505 7.4 8.00001 7.4C6.78499 7.4 5.80001 6.41502 5.80001 5.2ZM5.40001 11C5.40001 10.6672 5.58518 10.3375 6.03699 10.0625C6.49522 9.7836 7.17996 9.6 8.00001 9.6C8.82009 9.6 9.50481 9.7836 9.96305 10.0625C10.4149 10.3375 10.6 10.6672 10.6 11C10.6 11.2342 10.5204 11.3553 10.4252 11.4314C10.3119 11.5221 10.1085 11.6 9.80001 11.6H6.20001C5.89153 11.6 5.68811 11.5221 5.57484 11.4314C5.47958 11.3553 5.40001 11.2342 5.40001 11ZM8.00001 8.4C7.02008 8.4 6.10481 8.6164 5.41304 9.03752C4.71485 9.46248 4.20001 10.1328 4.20001 11C4.20001 11.5658 4.42045 12.0447 4.8252 12.3686C5.21192 12.6779 5.7085 12.8 6.20001 12.8H9.80001C10.2915 12.8 10.7881 12.6779 11.1748 12.3686C11.5796 12.0447 11.8 11.5658 11.8 11C11.8 10.1328 11.2852 9.46248 10.587 9.03752C9.89521 8.6164 8.97993 8.4 8.00001 8.4ZM11.2047 3.92958C11.2514 3.60151 11.5551 3.37335 11.8832 3.41998C12.8539 3.55794 13.6 4.39133 13.6 5.40001C13.6 6.50458 12.7046 7.40001 11.6 7.40001C11.2687 7.40001 11 7.13138 11 6.80001C11 6.46864 11.2687 6.20001 11.6 6.20001C12.0419 6.20001 12.4 5.84184 12.4 5.40001C12.4 4.99726 12.1019 4.66311 11.7143 4.60804C11.3863 4.56142 11.1581 4.25766 11.2047 3.92958ZM12.5991 8C12.2677 8 11.9991 8.26864 11.9991 8.6C11.9991 8.93136 12.2677 9.2 12.5991 9.2C13.5259 9.2 13.9999 9.73808 13.9999 10.2C13.9999 10.3731 13.941 10.532 13.8515 10.6379C13.7715 10.7326 13.6571 10.8 13.48 10.8C13.1487 10.8 12.88 11.0686 12.88 11.4C12.88 11.7314 13.1487 12 13.48 12C14.6225 12 15.1999 11.0322 15.1999 10.2C15.1999 8.83072 13.9142 8 12.5991 8ZM4.00001 8.6C4.00001 8.26864 3.73139 8 3.40001 8C2.0849 8 0.799133 8.83072 0.799133 10.2C0.799133 11.0322 1.37652 12 2.51904 12C2.85041 12 3.11904 11.7314 3.11904 11.4C3.11904 11.0686 2.85041 10.8 2.51904 10.8C2.3419 10.8 2.22752 10.7326 2.14753 10.6379C2.05806 10.532 1.99913 10.3731 1.99913 10.2C1.99913 9.73808 2.47318 9.2 3.40001 9.2C3.73139 9.2 4.00001 8.93136 4.00001 8.6ZM4.11387 3.4204C4.44187 3.37329 4.74596 3.60098 4.79308 3.92899C4.8402 4.25699 4.6125 4.56109 4.2845 4.60821C3.8976 4.66379 3.60001 4.99766 3.60001 5.40001C3.60001 5.84184 3.95819 6.20001 4.40001 6.20001C4.73139 6.20001 5.00001 6.46864 5.00001 6.80001C5.00001 7.13138 4.73139 7.40001 4.40001 7.40001C3.29544 7.40001 2.40001 6.50458 2.40001 5.40001C2.40001 4.39234 3.14466 3.55963 4.11387 3.4204Z" fill="#286294"/>
</g>
</svg>
