<svg width="18" height="18" viewBox="0 0 18 18" fill="none" xmlns="http://www.w3.org/2000/svg">
<g id="volume_24 1" clip-path="url(#clip0_1_395)">
<g id="Page-2">
<g id="volume_24">
<path id="Mask" d="M16.2426 13.2426C15.979 13.5062 15.5517 13.5062 15.288 13.2426C15.0244 12.979 15.0244 12.5517 15.288 12.288C17.104 10.4721 17.104 7.52789 15.288 5.71195C15.0244 5.44835 15.0244 5.02096 15.288 4.75736C15.5517 4.49376 15.979 4.49376 16.2426 4.75736C18.5858 7.10051 18.5858 10.8995 16.2426 13.2426ZM14.3335 11.3335C14.0698 11.5971 13.6425 11.5971 13.3789 11.3335C13.1153 11.0698 13.1153 10.6425 13.3789 10.3789C14.1404 9.61733 14.1404 8.38266 13.3789 7.62114C13.1153 7.35754 13.1153 6.93015 13.3789 6.66655C13.6425 6.40294 14.0698 6.40294 14.3335 6.66655C15.6222 7.95528 15.6222 10.0447 14.3335 11.3335ZM3.75 11.25C2.92157 11.25 2.25 10.5784 2.25 9.75V8.25C2.25 7.42157 2.92157 6.75 3.75 6.75H5.82375L9.95958 2.77005C10.3063 2.43639 10.7688 2.25 11.25 2.25C11.6642 2.25 12 2.58579 12 3V15C12 15.4142 11.6642 15.75 11.25 15.75C10.7689 15.75 10.3066 15.5632 9.96063 15.2289L5.8426 11.25H3.75Z" fill="#F0F2F1"/>
</g>
</g>
</g>
<defs>
<clipPath id="clip0_1_395">
<rect width="18" height="18" fill="white"/>
</clipPath>
</defs>
</svg>
