<svg width="24" height="24" viewBox="0 0 24 24" fill="none" xmlns="http://www.w3.org/2000/svg">
<rect width="24" height="24" rx="12" fill="#F2F3F5"/>
<g clip-path="url(#clip0_2897_66743)">
<path d="M12.0001 3.42871C16.734 3.42871 20.5716 7.26627 20.5716 12.0001C20.5716 16.734 16.734 20.5716 12.0001 20.5716C7.26627 20.5716 3.42871 16.734 3.42871 12.0001C3.42871 7.26627 7.26627 3.42871 12.0001 3.42871ZM12.0001 4.50014C7.858 4.50014 4.50014 7.858 4.50014 12.0001C4.50014 16.1423 7.858 19.5001 12.0001 19.5001C16.1423 19.5001 19.5001 16.1423 19.5001 12.0001C19.5001 7.858 16.1423 4.50014 12.0001 4.50014ZM12.0001 14.143C12.3946 14.143 12.7144 14.4628 12.7144 14.8573C12.7144 15.2518 12.3946 15.5716 12.0001 15.5716C11.6056 15.5716 11.2859 15.2518 11.2859 14.8573C11.2859 14.4628 11.6056 14.143 12.0001 14.143ZM12.0001 7.893C12.296 7.893 12.5359 8.13284 12.5359 8.42871V12.3573L12.5334 12.4089C12.5074 12.6805 12.2786 12.893 12.0001 12.893C11.7043 12.893 11.4644 12.6531 11.4644 12.3573V8.42871L11.4669 8.37712C11.4928 8.10546 11.7217 7.893 12.0001 7.893Z" fill="#2688EB"/>
</g>
<defs>
<clipPath id="clip0_2897_66743">
<rect width="20" height="20" fill="white" transform="translate(2 2)"/>
</clipPath>
</defs>
</svg>
