<svg width="24" height="24" viewBox="0 0 24 24" fill="none" xmlns="http://www.w3.org/2000/svg">
<rect width="24" height="24" rx="12" fill="#F2F3F5"/>
<path fill-rule="evenodd" clip-rule="evenodd" d="M12.3333 10.8696C13.714 10.8696 14.8333 9.7746 14.8333 8.42391C14.8333 7.07323 13.714 5.97826 12.3333 5.97826C10.9526 5.97826 9.83333 7.07323 9.83333 8.42391C9.83333 9.7746 10.9526 10.8696 12.3333 10.8696ZM12.3333 11.8478C14.2663 11.8478 15.8333 10.3149 15.8333 8.42391C15.8333 6.53293 14.2663 5 12.3333 5C10.4003 5 8.83333 6.53293 8.83333 8.42391C8.83333 10.3149 10.4003 11.8478 12.3333 11.8478ZM13.2333 13.3217C13.2333 13.5919 13.0095 13.8109 12.7333 13.8109C12.7181 13.8109 12.7031 13.8102 12.6883 13.8089C12.57 13.8059 12.4517 13.8043 12.3333 13.8043C10.7314 13.8043 9.3285 14.0793 8.36523 14.5808C7.4367 15.0642 7 15.6971 7 16.5062C7 17.0652 7.11927 17.2388 7.1544 17.277C7.16803 17.2918 7.25933 17.3913 7.6815 17.3913H11.7C11.9761 17.3913 12.2 17.6103 12.2 17.8804C12.2 18.1506 11.9761 18.3696 11.7 18.3696H7.6815C6.5348 18.3696 6 17.8213 6 16.5062C6 13.9756 8.9434 12.8261 12.3333 12.8261C12.4731 12.8261 12.612 12.828 12.7501 12.832V12.8329C13.0185 12.8415 13.2333 13.0571 13.2333 13.3217ZM20 16.5761C20 18.4671 18.433 20 16.5 20C14.567 20 13 18.4671 13 16.5761C13 14.6851 14.567 13.1522 16.5 13.1522C18.433 13.1522 20 14.6851 20 16.5761ZM16 14.9457C16 14.6755 16.2239 14.4565 16.5 14.4565C16.7761 14.4565 17 14.6755 17 14.9457V16.087H18.1667C18.4428 16.087 18.6667 16.306 18.6667 16.5761C18.6667 16.8462 18.4428 17.0652 18.1667 17.0652H17V18.2065C17 18.4767 16.7761 18.6957 16.5 18.6957C16.2239 18.6957 16 18.4767 16 18.2065V17.0652H14.8333C14.5572 17.0652 14.3333 16.8462 14.3333 16.5761C14.3333 16.306 14.5572 16.087 14.8333 16.087H16V14.9457Z" fill="#2688EB"/>
</svg>
