<svg width="48" height="48" viewBox="0 0 48 48" fill="none" xmlns="http://www.w3.org/2000/svg">
    <defs>
        <linearGradient id="paint0_linear_2895_66810" x1="9.858" y1="9.858" x2="38.142" y2="38.142" gradientUnits="userSpaceOnUse">
            <stop stop-color="#33BEF0"/>
            <stop offset="1" stop-color="#0A85D9"/>
        </linearGradient>
    </defs><path d="M44 24C44 35.045 35.045 44 24 44C12.955 44 4 35.045 4 24C4 12.955 12.955 4 24 4C35.045 4 44 12.955 44 24Z" fill="url(#paint0_linear_2895_66810)"/>
<path d="M21.9943 28.605C21.8943 28.346 21.6803 27.573 21.6803 26.81C21.6803 22.465 26.1533 22.298 26.1533 19.075C26.1533 17.046 24.1483 16.921 23.7893 16.921C21.5123 16.921 19.7343 18.223 18.9863 18.881V14.378C19.7543 13.918 21.5123 13 24.3133 13C30.7993 13 30.8813 17.458 30.8813 18.416C30.8813 23.562 25.5703 23.944 25.5703 27.243C25.5703 27.931 25.8193 28.435 25.9293 28.604L21.9943 28.605ZM24.1763 35.679C22.9413 35.679 21.6363 34.909 21.6363 33.412C21.6363 31.916 22.9923 31.172 24.1763 31.172C25.3603 31.172 26.6753 31.836 26.6753 33.412C26.6753 34.988 25.4113 35.679 24.1763 35.679Z" fill="white"/>

</svg>
