<svg width="24" height="24" viewBox="0 0 24 24" fill="none" xmlns="http://www.w3.org/2000/svg">
<rect width="24" height="24" rx="12" fill="#F2F3F5"/>
<path d="M12 4C16.4183 4 20 7.58173 20 12C20 16.4183 16.4183 20 12 20C7.58173 20 4 16.4183 4 12C4 7.58173 7.58173 4 12 4ZM12 5C8.134 5 5 8.134 5 12C5 15.866 8.134 19 12 19C15.866 19 19 15.866 19 12C19 8.134 15.866 5 12 5ZM11.0767 7.91793C11.2888 7.408 11.8741 7.16657 12.384 7.37867C12.628 7.48013 12.8219 7.674 12.9233 7.91793L13.6473 9.65873C13.6593 9.68757 13.6865 9.7073 13.7176 9.7098L15.5969 9.86043C16.1475 9.90457 16.558 10.3866 16.5138 10.9372C16.4927 11.2005 16.3682 11.4448 16.1676 11.6167L14.7357 12.8432C14.712 12.8636 14.7017 12.8955 14.7089 12.9258L15.1464 14.7597C15.2745 15.2969 14.9429 15.8363 14.4057 15.9645C14.1487 16.0258 13.8779 15.9829 13.6524 15.8452L12.0434 14.8624C12.0168 14.8461 11.9832 14.8461 11.9566 14.8624L10.3476 15.8452C9.8763 16.133 9.26083 15.9843 8.97297 15.513C8.83523 15.2875 8.79233 15.0167 8.85363 14.7597L9.2911 12.9258C9.29833 12.8955 9.288 12.8636 9.26427 12.8432L7.83243 11.6167C7.41297 11.2574 7.36423 10.6261 7.7235 10.2067C7.8954 10.006 8.1397 9.88157 8.40307 9.86043L10.2824 9.7098C10.3135 9.7073 10.3407 9.68757 10.3527 9.65873L11.0767 7.91793ZM12 8.302L11.276 10.0428C11.12 10.4178 10.7672 10.6741 10.3623 10.7066L8.48297 10.8572L9.9148 12.0838C10.2233 12.348 10.3581 12.7627 10.2638 13.1579L9.82637 14.9918L11.4353 14.009C11.782 13.7973 12.218 13.7973 12.5647 14.009L14.1736 14.9918L13.7362 13.1579C13.6419 12.7627 13.7767 12.348 14.0852 12.0838L15.517 10.8572L13.6377 10.7066C13.2328 10.6741 12.88 10.4178 12.724 10.0428L12 8.302Z" fill="#2688EB"/>
</svg>
