<svg width="24" height="24" viewBox="0 0 24 24" fill="none" xmlns="http://www.w3.org/2000/svg">
<rect width="24" height="24" rx="12" fill="#2688EB"/>
<path fill-rule="evenodd" clip-rule="evenodd" d="M4 11.76C4 9.744 4 8.736 4.436 7.9656C4.81949 7.28825 5.43139 6.73754 6.184 6.3924C7.04 6 8.16 6 10.4 6H13.6C15.84 6 16.96 6 17.816 6.3924C18.5686 6.73754 19.1805 7.28825 19.564 7.9656C20 8.736 20 9.744 20 11.76V12.24C20 14.256 20 15.264 19.564 16.0344C19.1805 16.7118 18.5686 17.2625 17.816 17.6076C16.96 18 15.84 18 13.6 18H10.4C8.16 18 7.04 18 6.184 17.6076C5.43139 17.2625 4.81949 16.7118 4.436 16.0344C4 15.264 4 14.256 4 12.24V11.76ZM10.4 6.9H13.6C14.7367 6.9 15.529 6.9006 16.1457 6.9459C16.751 6.9906 17.0987 7.0734 17.362 7.1943C17.9265 7.45315 18.3854 7.86618 18.673 8.3742C18.8073 8.6112 18.8997 8.9241 18.949 9.4689C18.999 10.0239 19 10.737 19 11.76V12.24C19 13.263 18.9993 13.9761 18.9487 14.5311C18.8993 15.0759 18.8073 15.3888 18.673 15.6258C18.3854 16.1338 17.9265 16.5468 17.362 16.8057C17.0987 16.9266 16.751 17.0097 16.1457 17.0541C15.529 17.0991 14.7367 17.1 13.6 17.1H10.4C9.26333 17.1 8.471 17.0994 7.85433 17.0538C7.249 17.0094 6.90133 16.9266 6.638 16.8057C6.07354 16.5468 5.61462 16.1338 5.327 15.6258C5.19267 15.3888 5.10033 15.0759 5.05133 14.5311C5.00067 13.9761 5 13.263 5 12.24V11.76C5 10.737 5.00067 10.0239 5.05133 9.4689C5.10067 8.9241 5.19267 8.6112 5.327 8.3742C5.61462 7.86618 6.07354 7.45315 6.638 7.1943C6.90133 7.0734 7.249 6.9903 7.85433 6.9459C8.471 6.9009 9.26333 6.9 10.4 6.9Z" fill="white"/>
<path d="M6.46845 9.38526C6.36759 9.48418 6.31093 9.61835 6.31093 9.75824C6.31093 9.89814 6.36759 10.0323 6.46845 10.1312C6.56931 10.2301 6.7061 10.2857 6.84874 10.2857H9C9.14264 10.2857 9.27943 10.2301 9.38029 10.1312C9.48115 10.0323 9.53782 9.89814 9.53782 9.75824C9.53782 9.61835 9.48115 9.48418 9.38029 9.38526C9.27943 9.28634 9.14264 9.23077 9 9.23077H6.84874C6.7061 9.23077 6.56931 9.28634 6.46845 9.38526Z" fill="white"/>
<path fill-rule="evenodd" clip-rule="evenodd" d="M16 12C16.241 12 16.4611 12.1416 16.5678 12.3652L16.8428 12.9418L17.4579 13.0343C17.5748 13.0518 17.6845 13.1028 17.7749 13.1816C17.8652 13.2604 17.9324 13.3637 17.969 13.4801C18.0055 13.5963 18.0099 13.7209 17.9815 13.8395C17.9532 13.9582 17.8934 14.0663 17.8088 14.1516L17.3637 14.6004L17.4688 15.2342C17.4887 15.3547 17.4757 15.4786 17.4312 15.5919C17.3867 15.7051 17.3125 15.8031 17.2169 15.8749C17.1213 15.9467 17.0082 15.9895 16.8904 15.9983C16.7726 16.0071 16.6548 15.9816 16.5502 15.9248L16 15.6255L15.4499 15.9248C15.3453 15.9816 15.2274 16.0071 15.1096 15.9983C14.9918 15.9895 14.8787 15.9467 14.7831 15.8749C14.6876 15.8031 14.6133 15.7051 14.5688 15.5919C14.5243 15.4786 14.5112 15.3547 14.5312 15.2342L14.6363 14.6004L14.1912 14.1516C14.1066 14.0663 14.0468 13.9582 14.0185 13.8395C13.9901 13.7209 13.9945 13.5963 14.031 13.4801C14.0676 13.3637 14.1348 13.2604 14.2252 13.1816C14.3155 13.1028 14.4253 13.0518 14.5421 13.0343L15.1572 12.9418L15.4323 12.3652C15.4846 12.2555 15.5655 12.1632 15.6659 12.0987C15.7662 12.0341 15.8819 12 16 12ZM16 12.6551L16.4224 13.5405L17.3669 13.6825L16.6834 14.3717L16.8448 15.3449L16 14.8854L15.1552 15.3449L15.3166 14.3717L14.6332 13.6825L15.5776 13.5405L16 12.6551Z" fill="white"/>
</svg>
