<svg width="24" height="24" viewBox="0 0 24 24" fill="none" xmlns="http://www.w3.org/2000/svg">
<path d="M12.0006 1.71387C17.6812 1.71387 22.2863 6.31895 22.2863 11.9996C22.2863 17.6802 17.6812 22.2853 12.0006 22.2853C6.31993 22.2853 1.71484 17.6802 1.71484 11.9996C1.71484 6.31895 6.31993 1.71387 12.0006 1.71387ZM12.0006 2.99958C7.02999 2.99958 3.00056 7.02901 3.00056 11.9996C3.00056 16.9702 7.02999 20.9996 12.0006 20.9996C16.9711 20.9996 21.0006 16.9702 21.0006 11.9996C21.0006 7.02901 16.9711 2.99958 12.0006 2.99958ZM10.8134 6.75121C11.0861 6.09558 11.8387 5.78517 12.4943 6.05787C12.8079 6.18832 13.0572 6.43758 13.1877 6.75121L14.1186 8.98938C14.134 9.02645 14.1689 9.05182 14.2089 9.05504L16.6252 9.24871C17.333 9.30545 17.8608 9.92525 17.8041 10.6331C17.7769 10.9717 17.6169 11.2858 17.3589 11.5068L15.5179 13.0837C15.4874 13.1099 15.4741 13.1509 15.4834 13.1899L16.0459 15.5478C16.2106 16.2385 15.7842 16.932 15.0936 17.0968C14.7631 17.1756 14.415 17.1204 14.1251 16.9434L12.0564 15.6799C12.0221 15.6589 11.979 15.6589 11.9447 15.6799L9.87604 16.9434C9.27009 17.3135 8.47877 17.1223 8.10866 16.5163C7.93157 16.2264 7.87642 15.8782 7.95523 15.5478L8.51769 13.1899C8.52699 13.1509 8.5137 13.1099 8.48319 13.0837L6.64226 11.5068C6.10294 11.0448 6.04029 10.2332 6.5022 9.69391C6.72322 9.43591 7.03732 9.27588 7.37593 9.24871L9.79217 9.05504C9.83224 9.05182 9.86713 9.02645 9.88256 8.98938L10.8134 6.75121ZM12.0006 7.24501L11.0697 9.48314C10.8691 9.96537 10.4156 10.2949 9.8949 10.3366L7.47866 10.5303L9.31959 12.1073C9.71627 12.4471 9.8895 12.9802 9.7683 13.4883L9.20589 15.8461L11.2745 14.5826C11.7203 14.3104 12.2808 14.3104 12.7266 14.5826L14.7952 15.8461L14.2328 13.4883C14.1116 12.9802 14.2848 12.4471 14.6815 12.1073L16.5225 10.5303L14.1062 10.3366C13.5855 10.2949 13.132 9.96537 12.9315 9.48314L12.0006 7.24501Z" fill="#2688EB"/>
</svg>
