<svg width="48" height="48" viewBox="0 0 48 48" fill="none" xmlns="http://www.w3.org/2000/svg">
    <defs>
        <linearGradient id="paint0_linear_2783_66897" x1="24" y1="30.5708" x2="24" y2="43.9998" gradientUnits="userSpaceOnUse">
            <stop stop-color="#F44D58"/>
            <stop offset="1" stop-color="#E52030"/>
        </linearGradient>
    </defs><path d="M24 30.5708C15.163 30.5708 8 35.4918 8 40.8568V41.9998C8 43.1048 8.895 43.9998 10 43.9998H38C39.105 43.9998 40 43.1048 40 41.9998V40.8568C40 35.4918 32.837 30.5708 24 30.5708Z" fill="url(#paint0_linear_2783_66897)"/>
<path d="M29 30.9998C29 32.8968 27 34.9998 24 34.9998C21 34.9998 19 32.8968 19 30.9998C19 28.3628 19 23.9648 19 23.9648H29C29 23.9648 29 28.3628 29 30.9998Z" fill="white"/>
<path d="M32.9157 18H32.3887V22H33.0917C33.6067 22 34.0457 21.688 34.1327 21.26L34.4767 19.557C34.6417 18.743 33.8967 18 32.9157 18Z" fill="white"/>
<path d="M15.084 18H15.611V22H14.908C14.393 22 13.954 21.688 13.867 21.26L13.523 19.557C13.358 18.743 14.103 18 15.084 18Z" fill="white"/>
<path d="M24 6.3999C19.559 6.3999 15 7.0749 15 16.6749C15 17.4429 15 22.5519 15 23.3729C15 26.7999 20.4 30.9999 24 30.9999C27.6 30.9999 33 26.7999 33 23.3729C33 22.5519 33 17.4439 33 16.6749C33 7.0749 28.441 6.3999 24 6.3999Z" fill="white"/>
<path d="M24 5.54492C19.646 5.54492 19 7.18092 19 7.18092C17.23 7.44192 14 13.0349 14 15.9989C14 16.9989 14 18.9989 15 19.9989C15.545 13.4539 17.249 10.9989 19 10.9989C20.267 10.9989 21.273 11.9989 24 11.9989C26.303 11.9989 26.875 10.9989 29 10.9989C32 10.9989 33 18.9669 33 19.9989C34 18.9989 34 15.9989 34 15.9989C34 12.5699 30.209 5.54492 24 5.54492Z" fill="#36393C"/>
<path d="M40 9H39V21H40V9Z" fill="#0A85D9"/>
<path d="M39.5 24.2C39.5 24.2 41 22.328 41 21.5C41 20.672 40.328 20 39.5 20C38.672 20 38 20.672 38 21.5C38 22.328 39.5 24.2 39.5 24.2Z" fill="#0A85D9"/>
<path d="M22.8323 16.4392L7.46725 10.0372C6.84425 9.77823 6.84425 8.89523 7.46725 8.63623L22.8323 2.23423C23.5793 1.92323 24.4202 1.92323 25.1672 2.23423L40.5323 8.63623C41.1553 8.89523 41.1553 9.77823 40.5323 10.0372L25.1672 16.4392C24.4202 16.7502 23.5803 16.7502 22.8323 16.4392Z" fill="#E52030"/>
<path d="M24 9C18.477 9 14 9.959 14 11.143V16C19.714 16 24 18 24 18C24 18 28.286 16 34 16V11.143C34 9.959 29.523 9 24 9Z" fill="#F24854"/>

</svg>
