<svg width="24" height="24" viewBox="0 0 24 24" fill="none" xmlns="http://www.w3.org/2000/svg">
<rect width="24" height="24" rx="12" fill="#F2F3F5"/>
<g clip-path="url(#clip0_2897_66738)">
<path fill-rule="evenodd" clip-rule="evenodd" d="M11.7025 20C11.5583 20 11.4232 20 11.2791 19.9912C9.92771 19.9124 8.66645 19.3603 7.71149 18.4315C6.75654 17.5027 6.18897 16.2673 6.10789 14.9617C6.09888 14.7426 6.08987 14.5235 6.09888 14.2957V11.7634L3.66645 10.4666C3.25203 10.2475 3.00879 9.83571 3.00879 9.38007C3.00879 8.92442 3.25203 8.5126 3.66645 8.29354L11.3872 4.15772C11.5764 4.06134 11.7836 4 11.9998 4C12.216 4 12.4232 4.05257 12.6124 4.15772L20.3331 8.28478C20.5313 8.38992 20.7025 8.54765 20.8196 8.74042C20.9367 8.93319 20.9998 9.15225 20.9998 9.3713V15.0055C20.9998 15.1369 20.9457 15.2596 20.8556 15.3472C20.7565 15.4348 20.6304 15.4874 20.5043 15.4874C20.3782 15.4874 20.243 15.4348 20.1529 15.3472C20.0628 15.2596 20.0088 15.1281 20.0088 15.0055V10.6418L17.9277 11.7547V14.287C17.9277 14.6024 17.9277 14.7864 17.9187 14.9529C17.8376 16.2673 17.2701 17.494 16.3151 18.4228C15.3601 19.3516 14.0899 19.9036 12.7475 19.9825C12.6034 19.9912 12.4682 19.9912 12.3241 19.9912H11.7385L11.7025 20ZM7.08987 14.2519C7.08987 14.6199 7.08987 14.7689 7.08987 14.8916C7.15293 15.9606 7.6214 16.9682 8.40519 17.7306C9.18897 18.4929 10.225 18.9485 11.3241 19.0099C11.4502 19.0099 11.6034 19.0099 11.9818 19.0099C12.3601 19.0099 12.5133 19.0099 12.6394 19.0099C13.7385 18.9485 14.7746 18.4929 15.5583 17.7306C16.3421 16.9682 16.8106 15.9606 16.8737 14.8916C16.8737 14.7689 16.8737 14.6199 16.8737 14.2519V12.2892L12.5854 14.5849C12.3962 14.6813 12.189 14.7338 11.9728 14.7338C11.7565 14.7338 11.5493 14.6813 11.3601 14.5849L7.07185 12.2892V14.2519H7.08987ZM3.71149 9.3713L11.9998 13.805L20.2791 9.3713L11.9998 4.93757L3.71149 9.3713Z" fill="#2688EB"/>
</g>
<defs>
<clipPath id="clip0_2897_66738">
<rect width="18" height="16" fill="white" transform="translate(3 4)"/>
</clipPath>
</defs>
</svg>
