<svg width="24" height="24" viewBox="0 0 24 24" fill="none" xmlns="http://www.w3.org/2000/svg">
<g clip-path="url(#clip0_2898_66811)">
<rect width="24" height="24" rx="12" fill="#2688EB"/>
<path d="M7.72615 18.7634C6.21154 18.7634 4.95862 17.6076 4.87932 16.1259V15.963V14.4114L4.63349 14.2718C4.43525 14.1477 4.26872 13.9615 4.14977 13.7443C4.00703 13.4883 3.93566 13.24 3.92773 12.5962V10.7421C3.92773 9.82671 4.03082 9.46211 4.21321 9.12077C4.3956 8.77944 4.66521 8.51568 5.01413 8.33726C5.34718 8.16659 5.67231 8.06574 6.47323 8.05799H8.20987V7.54599C8.20987 6.56853 8.30503 6.21168 8.50327 5.86259C8.68566 5.52126 8.95528 5.2575 9.30419 5.07908C9.64518 4.90065 9.9703 4.80756 10.8267 4.7998H12.5396C13.5387 4.7998 13.9035 4.8929 14.2604 5.07908C14.6093 5.2575 14.8789 5.52126 15.0613 5.86259C15.2437 6.19617 15.3388 6.51423 15.3468 7.35205V8.05799H16.8852C17.8209 8.05799 18.1857 8.15883 18.5425 8.34502C18.8914 8.52344 19.161 8.7872 19.3434 9.12853C19.5337 9.46987 19.6368 9.83447 19.6368 10.7499V12.4255C19.6368 13.2711 19.5417 13.5193 19.4069 13.752C19.2641 14.008 19.0659 14.2097 18.8042 14.3494L18.6852 14.4192V15.9785C18.6852 17.4602 17.5037 18.6859 15.9891 18.7634H15.8226H7.73408H7.72615ZM5.82298 15.9707C5.82298 16.9327 6.59217 17.7472 7.56755 17.8248H7.71029H15.8067C16.79 17.8248 17.6226 17.0723 17.7019 16.1181V15.9785L17.7099 14.5744H5.82298V15.9707ZM6.20361 8.99665C5.84676 9.01217 5.65645 9.05871 5.4582 9.15956C5.27581 9.25265 5.14101 9.38453 5.04585 9.56296C4.91897 9.79568 4.87932 10.0362 4.87139 10.5792V12.7823C4.88725 12.9918 4.90311 13.1082 4.94276 13.209L4.98241 13.2944C5.04585 13.4107 5.11722 13.4805 5.2203 13.5348L5.2996 13.5736C5.46613 13.6357 5.65645 13.6512 6.12431 13.6512H17.4244C17.9002 13.6512 18.0826 13.6357 18.2332 13.5814L18.3205 13.5426C18.4315 13.4805 18.5108 13.4107 18.5663 13.3099L18.6059 13.2323C18.6694 13.0771 18.6852 12.8987 18.6852 12.4255V10.7499C18.6852 10.075 18.6456 9.82671 18.5108 9.57071C18.4156 9.39229 18.2808 9.26041 18.0984 9.16732C17.8605 9.0432 17.6147 9.00441 17.0596 8.99665H6.20361ZM10.5413 5.73847C10.2161 5.75399 10.0258 5.78502 9.85928 5.84708L9.74827 5.89362C9.55795 5.99447 9.42314 6.12635 9.32798 6.30477L9.2804 6.41338C9.19317 6.63059 9.16145 6.87108 9.15352 7.39083V8.05799H14.3872V7.39083L14.3793 7.08829C14.3635 6.77023 14.3317 6.58405 14.2683 6.42114L14.2207 6.31253C14.1176 6.12635 13.9828 5.99447 13.8004 5.90138L13.6894 5.85483C13.4674 5.7695 13.2216 5.73847 12.6902 5.73071H10.5413V5.73847Z" fill="white"/>
</g>
<defs>
<clipPath id="clip0_2898_66811">
<rect width="24" height="24" rx="12" fill="white"/>
</clipPath>
</defs>
</svg>
