<svg width="48" height="48" viewBox="0 0 48 48" fill="none" xmlns="http://www.w3.org/2000/svg">
    <defs>
        <linearGradient id="paint0_linear_2916_66839" x1="29.235" y1="13.504" x2="35.344" y2="39.829" gradientUnits="userSpaceOnUse">
            <stop stop-color="#0D61A9" />
            <stop offset="1" stop-color="#16528C" />
        </linearGradient>
        <linearGradient id="paint1_linear_2916_66839" x1="9.235" y1="13.504" x2="15.344" y2="39.829" gradientUnits="userSpaceOnUse">
            <stop stop-color="#0D61A9" />
            <stop offset="1" stop-color="#16528C" />
        </linearGradient>
        <linearGradient id="paint2_linear_2916_66839" x1="30.608" y1="7.608" x2="37.584" y2="14.584" gradientUnits="userSpaceOnUse">
            <stop stop-color="#0D61A9" />
            <stop offset="1" stop-color="#16528C" />
        </linearGradient>
        <linearGradient id="paint3_linear_2916_66839" x1="9.608" y1="7.608" x2="16.584" y2="14.584" gradientUnits="userSpaceOnUse">
            <stop stop-color="#0D61A9" />
            <stop offset="1" stop-color="#16528C" />
        </linearGradient>
        <radialGradient id="paint4_radial_2916_66839" cx="0" cy="0" r="1" gradientUnits="userSpaceOnUse" gradientTransform="translate(24.016 26.0112) scale(4.979)">
            <stop />
            <stop offset="1" stop-opacity="0" />
        </radialGradient>
        <linearGradient id="paint5_linear_2916_66839" x1="21.286" y1="23.286" x2="26.867" y2="28.867" gradientUnits="userSpaceOnUse">
            <stop stop-color="#32BDEF" />
            <stop offset="1" stop-color="#1EA2E4" />
        </linearGradient>
        <linearGradient id="paint6_linear_2916_66839" x1="21.14" y1="32.475" x2="25.209" y2="42.332" gradientUnits="userSpaceOnUse">
            <stop stop-color="#32BDEF" />
            <stop offset="1" stop-color="#1EA2E4" />
        </linearGradient>
        <linearGradient id="paint7_linear_2916_66839" x1="40.3891" y1="13.7691" x2="43.7601" y2="18.4371" gradientUnits="userSpaceOnUse">
            <stop stop-color="#0D61A9" />
            <stop offset="1" stop-color="#16528C" />
        </linearGradient>
    </defs>
    <path d="M34 19C28.477 19 24 23.477 24 29V40C24 41.105 24.895 42 26 42H42C43.105 42 44 41.105 44 40V29C44 23.477 39.523 19 34 19Z" fill="url(#paint0_linear_2916_66839)" />
    <path d="M14 19C8.477 19 4 23.477 4 29V40C4 41.105 4.895 42 6 42H22C23.105 42 24 41.105 24 40V29C24 23.477 19.523 19 14 19Z" fill="url(#paint1_linear_2916_66839)" />
    <path opacity="0.05" d="M24 31C19.582 31 16 34.582 16 39V41C16 41.552 16.448 42 17 42H31C31.552 42 32 41.552 32 41V39C32 34.582 28.418 31 24 31Z" fill="black" />
    <path opacity="0.07" d="M24 31.5C19.858 31.5 16.5 34.858 16.5 39V41C16.5 41.552 16.948 42 17.5 42H30.5C31.052 42 31.5 41.552 31.5 41V39C31.5 34.858 28.142 31.5 24 31.5Z" fill="black" />
    <path d="M34 16C36.7614 16 39 13.7614 39 11C39 8.23858 36.7614 6 34 6C31.2386 6 29 8.23858 29 11C29 13.7614 31.2386 16 34 16Z" fill="url(#paint2_linear_2916_66839)" />
    <path d="M13 16C15.7614 16 18 13.7614 18 11C18 8.23858 15.7614 6 13 6C10.2386 6 8 8.23858 8 11C8 13.7614 10.2386 16 13 16Z" fill="url(#paint3_linear_2916_66839)" />
    <path opacity="0.3"
        d="M29 26.0002C29 24.3282 28.171 22.8572 26.911 21.9492C25.112 23.7572 24 26.2482 24 29.0002C24 26.2482 22.888 23.7572 21.089 21.9492C19.829 22.8572 19 24.3282 19 26.0002C19 28.7612 21.239 31.0002 24 31.0002C26.761 31.0002 29 28.7612 29 26.0002Z"
        fill="url(#paint4_radial_2916_66839)" />
    <path d="M24 30C26.2091 30 28 28.2091 28 26C28 23.7909 26.2091 22 24 22C21.7909 22 20 23.7909 20 26C20 28.2091 21.7909 30 24 30Z" fill="url(#paint5_linear_2916_66839)" />
    <path d="M24 32C20.134 32 17 35.134 17 39V41C17 41.552 17.448 42 18 42H30C30.552 42 31 41.552 31 41V39C31 35.134 27.866 32 24 32Z" fill="url(#paint6_linear_2916_66839)" />
    <path
        d="M43.0001 15.0001C43.8421 15.8421 43.9811 17.1441 44.0001 17.7151C44.0051 17.8771 43.8771 18.0051 43.7151 18.0001C43.1441 17.9811 41.8421 17.8421 41.0001 17.0001C40.1581 16.1581 40.0191 14.8561 40.0001 14.2851C39.9951 14.1231 40.1231 13.9951 40.2851 14.0001C40.8561 14.0191 42.1581 14.1581 43.0001 15.0001Z"
        fill="url(#paint7_linear_2916_66839)" />

</svg>
