<svg width="24" height="24" viewBox="0 0 24 24" fill="none" xmlns="http://www.w3.org/2000/svg">
<rect width="24" height="24" rx="12" fill="#F2F3F5"/>
<g clip-path="url(#clip0_2895_67002)">
<path d="M10.7468 18.132C7.43645 17.7222 4.94581 14.9005 4.94581 11.5665C4.94581 7.91724 7.91724 4.94581 11.5665 4.94581C14.9005 4.94581 17.7301 7.43645 18.1399 10.7389C18.1714 10.9754 18.3685 11.1488 18.6601 11.1488H18.668C18.9202 11.1172 19.1094 10.8808 19.0778 10.6286C18.6049 6.84532 15.3813 4 11.5665 4C7.39704 4 4 7.38916 4 11.5665C4 15.3734 6.8532 18.6049 10.6286 19.07H10.6916C10.9281 19.07 11.1251 18.8966 11.1567 18.6601C11.1724 18.534 11.1409 18.4158 11.0621 18.3133C10.9833 18.2108 10.8729 18.1478 10.7468 18.132Z" fill="#2688EB"/>
<path d="M11.5661 8.09864C13.0558 8.09864 14.3799 9.04446 14.8528 10.4553C14.9159 10.6445 15.0972 10.7784 15.3021 10.7784C15.3573 10.7784 15.4046 10.7706 15.4519 10.7469C15.5701 10.7075 15.6725 10.6208 15.7277 10.5105C15.7829 10.4001 15.7908 10.274 15.7514 10.1479C15.1445 8.35874 13.4656 7.15283 11.5661 7.15283C9.13067 7.15283 7.15234 9.13116 7.15234 11.5666C7.15234 13.4661 8.36614 15.1528 10.1711 15.7518C10.2184 15.7676 10.2656 15.7755 10.3208 15.7755C10.5257 15.7755 10.6991 15.6494 10.7701 15.4523C10.8095 15.3341 10.8016 15.208 10.7386 15.0898C10.6834 14.9794 10.5888 14.8927 10.4706 14.8533C9.05185 14.3804 8.09816 13.0563 8.09816 11.5666C8.09816 9.65135 9.65875 8.09864 11.5661 8.09864Z" fill="#2688EB"/>
<path d="M16.2953 12.5913C14.2539 12.5913 12.5908 14.2544 12.5908 16.2957C12.5908 18.3371 14.2539 20.0002 16.2953 20.0002C18.3366 20.0002 19.9997 18.3371 19.9997 16.2957C19.9997 14.2544 18.3366 12.5913 16.2953 12.5913ZM18.3997 16.9499H16.9573V18.4711C16.91 18.8021 16.6342 19.0544 16.2953 19.0544C15.9327 19.0544 15.6411 18.7549 15.6411 18.3923V16.9499H14.1199C13.7889 16.9105 13.5366 16.6268 13.5366 16.2957C13.5366 15.9332 13.8361 15.6337 14.1987 15.6337H15.6411V14.1125C15.6805 13.7893 15.9642 13.5371 16.2953 13.5371C16.6578 13.5371 16.9573 13.8287 16.9573 14.1913V15.6337H18.4785C18.8017 15.681 19.0539 15.9568 19.0539 16.2957C19.0539 16.6583 18.7622 16.9499 18.3997 16.9499Z" fill="#2688EB"/>
<path d="M11.5665 10.2266C10.8335 10.2266 10.2266 10.8256 10.2266 11.5665C10.2266 12.3074 10.8335 12.9064 11.5665 12.9064C12.2995 12.9064 12.9064 12.2995 12.9064 11.5665C12.9064 10.8335 12.3074 10.2266 11.5665 10.2266Z" fill="#2688EB"/>
</g>
<defs>
<clipPath id="clip0_2895_67002">
<rect width="16" height="16" fill="white" transform="translate(4 4)"/>
</clipPath>
</defs>
</svg>
