<svg width="48" height="48" viewBox="0 0 48 48" fill="none" xmlns="http://www.w3.org/2000/svg">

    <defs>
        <linearGradient id="paint0_linear_2782_66786" x1="32.627" y1="18.627" x2="40.068" y2="26.067" gradientUnits="userSpaceOnUse">
            <stop stop-color="#ED8A02"/>
            <stop offset="1" stop-color="#E66902"/>
        </linearGradient>
        <linearGradient id="paint1_linear_2782_66786" x1="8.627" y1="18.627" x2="16.067" y2="26.067" gradientUnits="userSpaceOnUse">
            <stop stop-color="#11914E"/>
            <stop offset="1" stop-color="#169954"/>
        </linearGradient>
        <linearGradient id="paint2_linear_2782_66786" x1="7.706" y1="30.132" x2="14.459" y2="43.506" gradientUnits="userSpaceOnUse">
            <stop stop-color="#159853"/>
            <stop offset="1" stop-color="#10904D"/>
        </linearGradient>
        <linearGradient id="paint3_linear_2782_66786" x1="31.706" y1="30.132" x2="38.459" y2="43.506" gradientUnits="userSpaceOnUse">
            <stop stop-color="#EE8C02"/>
            <stop offset="1" stop-color="#E66A02"/>
        </linearGradient>
        <linearGradient id="paint4_linear_2782_66786" x1="20.608" y1="11.608" x2="27.584" y2="18.584" gradientUnits="userSpaceOnUse">
            <stop stop-color="#E5315E"/>
            <stop offset="1" stop-color="#D81A49"/>
        </linearGradient>
        <linearGradient id="paint5_linear_2782_66786" x1="32.608" y1="6.608" x2="39.584" y2="13.584" gradientUnits="userSpaceOnUse">
            <stop stop-color="#545DC8"/>
            <stop offset="1" stop-color="#545CC7"/>
        </linearGradient>
        <linearGradient id="paint6_linear_2782_66786" x1="8.608" y1="6.608" x2="15.584" y2="13.584" gradientUnits="userSpaceOnUse">
            <stop stop-color="#7319A4"/>
            <stop offset="1" stop-color="#65139B"/>
        </linearGradient>
    </defs>
    <path d="M36 27C38.7614 27 41 24.7614 41 22C41 19.2386 38.7614 17 36 17C33.2386 17 31 19.2386 31 22C31 24.7614 33.2386 27 36 27Z" fill="url(#paint0_linear_2782_66786)"/>
<path d="M12 27C14.7614 27 17 24.7614 17 22C17 19.2386 14.7614 17 12 17C9.23858 17 7 19.2386 7 22C7 24.7614 9.23858 27 12 27Z" fill="url(#paint1_linear_2782_66786)"/>
<path d="M12 29C7.582 29 4 32.582 4 37V41.923C4 42.518 4.482 43 5.077 43H18.923C19.518 43 20 42.518 20 41.923V37C20 32.582 16.418 29 12 29Z" fill="url(#paint2_linear_2782_66786)"/>
<path d="M36 29C31.582 29 28 32.582 28 37V41.923C28 42.518 28.482 43 29.077 43H42.923C43.518 43 44 42.518 44 41.923V37C44 32.582 40.418 29 36 29Z" fill="url(#paint3_linear_2782_66786)"/>
<path d="M24 20C26.7614 20 29 17.7614 29 15C29 12.2386 26.7614 10 24 10C21.2386 10 19 12.2386 19 15C19 17.7614 21.2386 20 24 20Z" fill="url(#paint4_linear_2782_66786)"/>
<path d="M36 15C38.7614 15 41 12.7614 41 10C41 7.23858 38.7614 5 36 5C33.2386 5 31 7.23858 31 10C31 12.7614 33.2386 15 36 15Z" fill="url(#paint5_linear_2782_66786)"/>
<path d="M12 15C14.7614 15 17 12.7614 17 10C17 7.23858 14.7614 5 12 5C9.23858 5 7 7.23858 7 10C7 12.7614 9.23858 15 12 15Z" fill="url(#paint6_linear_2782_66786)"/>

</svg>
