<svg width="48" height="48" viewBox="0 0 48 48" fill="none" xmlns="http://www.w3.org/2000/svg">
    <defs>
        <linearGradient id="paint0_linear_2895_66791" x1="20.02" y1="4.362" x2="22.063" y2="18.044" gradientUnits="userSpaceOnUse">
            <stop offset="0.042" stop-color="#076DB4"/>
            <stop offset="0.85" stop-color="#0461AF"/>
        </linearGradient>
        <linearGradient id="paint1_linear_2895_66791" x1="18.635" y1="6.417" x2="24.567" y2="58.193" gradientUnits="userSpaceOnUse">
            <stop stop-color="#33BEF0"/>
            <stop offset="1" stop-color="#0A85D9"/>
        </linearGradient>
    </defs><path d="M39 14H3V8C3 6.895 3.895 6 5 6H37C38.105 6 39 6.895 39 8V14Z" fill="url(#paint0_linear_2895_66791)"/>
<path d="M3 14V40C3 41.105 3.895 42 5 42H37C38.105 42 39 41.105 39 40V14H3Z" fill="url(#paint1_linear_2895_66791)"/>
<path d="M18 23H16C15.448 23 15 22.552 15 22V20C15 19.448 15.448 19 16 19H18C18.552 19 19 19.448 19 20V22C19 22.552 18.552 23 18 23Z" fill="white"/>
<path d="M26 23H24C23.448 23 23 22.552 23 22V20C23 19.448 23.448 19 24 19H26C26.552 19 27 19.448 27 20V22C27 22.552 26.552 23 26 23Z" fill="white"/>
<path d="M34 23H32C31.448 23 31 22.552 31 22V20C31 19.448 31.448 19 32 19H34C34.552 19 35 19.448 35 20V22C35 22.552 34.552 23 34 23Z" fill="white"/>
<path d="M18 30H16C15.448 30 15 29.552 15 29V27C15 26.448 15.448 26 16 26H18C18.552 26 19 26.448 19 27V29C19 29.552 18.552 30 18 30Z" fill="white"/>
<path d="M10 30H8C7.448 30 7 29.552 7 29V27C7 26.448 7.448 26 8 26H10C10.552 26 11 26.448 11 27V29C11 29.552 10.552 30 10 30Z" fill="white"/>
<path d="M26 30H24C23.448 30 23 29.552 23 29V27C23 26.448 23.448 26 24 26H26C26.552 26 27 26.448 27 27V29C27 29.552 26.552 30 26 30Z" fill="white"/>
<path d="M18 37H16C15.448 37 15 36.552 15 36V34C15 33.448 15.448 33 16 33H18C18.552 33 19 33.448 19 34V36C19 36.552 18.552 37 18 37Z" fill="white"/>
<path d="M10 37H8C7.448 37 7 36.552 7 36V34C7 33.448 7.448 33 8 33H10C10.552 33 11 33.448 11 34V36C11 36.552 10.552 37 10 37Z" fill="white"/>
<path d="M26 37H24C23.448 37 23 36.552 23 36V34C23 33.448 23.448 33 24 33H26C26.552 33 27 33.448 27 34V36C27 36.552 26.552 37 26 37Z" fill="white"/>
<path d="M34 30H32C31.448 30 31 29.552 31 29V27C31 26.448 31.448 26 32 26H34C34.552 26 35 26.448 35 27V29C35 29.552 34.552 30 34 30Z" fill="white"/>
<path opacity="0.05" d="M11 6V9.5C11 9.776 10.775 10 10.5 10C10.225 10 10 9.776 10 9.5V6H8V9.5C8 10.878 9.121 12 10.5 12C11.879 12 13 10.878 13 9.5V6H11Z" fill="black"/>
<path opacity="0.07" d="M11.5 6V9.5C11.5 10.051 11.052 10.5 10.5 10.5C9.948 10.5 9.5 10.051 9.5 9.5V6H8.5V9.5C8.5 10.603 9.397 11.5 10.5 11.5C11.603 11.5 12.5 10.603 12.5 9.5V6H11.5Z" fill="black"/>
<path opacity="0.05" d="M32 6V9.5C32 9.776 31.775 10 31.5 10C31.225 10 31 9.776 31 9.5V6H29V9.5C29 10.878 30.121 12 31.5 12C32.879 12 34 10.878 34 9.5V6H32Z" fill="black"/>
<path opacity="0.07" d="M32.5 6V9.5C32.5 10.051 32.052 10.5 31.5 10.5C30.948 10.5 30.5 10.051 30.5 9.5V6H29.5V9.5C29.5 10.603 30.397 11.5 31.5 11.5C32.603 11.5 33.5 10.603 33.5 9.5V6H32.5Z" fill="black"/>
<path d="M31.5 11C30.672 11 30 10.328 30 9.5V4.5C30 3.672 30.672 3 31.5 3C32.328 3 33 3.672 33 4.5V9.5C33 10.328 32.328 11 31.5 11Z" fill="#54DAFF"/>
<path d="M10.5 11C9.672 11 9 10.328 9 9.5V4.5C9 3.672 9.672 3 10.5 3C11.328 3 12 3.672 12 4.5V9.5C12 10.328 11.328 11 10.5 11Z" fill="#54DAFF"/>
<path d="M36.3811 43V43.5H36.8811H41.1189H41.6189V43V38.6189H46H46.5V38.1189V33.8811V33.3811H46H41.6189V29V28.5H41.1189H36.8811H36.3811V29V33.3811H32H31.5V33.8811V38.1189V38.6189H32H36.3811V43Z" fill="#2AB1EB" stroke="white"/>

</svg>
