<svg width="48" height="48" viewBox="0 0 48 48" fill="none" xmlns="http://www.w3.org/2000/svg">

    <defs>
        <linearGradient id="paint0_linear_2782_66756" x1="23.02" y1="4.362" x2="25.063" y2="18.044" gradientUnits="userSpaceOnUse">
            <stop offset="0.042" stop-color="#076DB4"/>
            <stop offset="0.85" stop-color="#0461AF"/>
        </linearGradient>
        <linearGradient id="paint1_linear_2782_66756" x1="21.635" y1="6.417" x2="27.567" y2="58.193" gradientUnits="userSpaceOnUse">
            <stop stop-color="#33BEF0"/>
            <stop offset="1" stop-color="#0A85D9"/>
        </linearGradient>
    </defs>

    <path d="M42 14H6V8C6 6.895 6.895 6 8 6H40C41.105 6 42 6.895 42 8V14Z" fill="url(#paint0_linear_2782_66756)"/>
<path d="M6 14V40C6 41.105 6.895 42 8 42H40C41.105 42 42 41.105 42 40V14H6Z" fill="url(#paint1_linear_2782_66756)"/>
<path d="M21 23H19C18.448 23 18 22.552 18 22V20C18 19.448 18.448 19 19 19H21C21.552 19 22 19.448 22 20V22C22 22.552 21.552 23 21 23Z" fill="white"/>
<path d="M29 23H27C26.448 23 26 22.552 26 22V20C26 19.448 26.448 19 27 19H29C29.552 19 30 19.448 30 20V22C30 22.552 29.552 23 29 23Z" fill="white"/>
<path d="M37 23H35C34.448 23 34 22.552 34 22V20C34 19.448 34.448 19 35 19H37C37.552 19 38 19.448 38 20V22C38 22.552 37.552 23 37 23Z" fill="white"/>
<path d="M21 30H19C18.448 30 18 29.552 18 29V27C18 26.448 18.448 26 19 26H21C21.552 26 22 26.448 22 27V29C22 29.552 21.552 30 21 30Z" fill="white"/>
<path d="M13 30H11C10.448 30 10 29.552 10 29V27C10 26.448 10.448 26 11 26H13C13.552 26 14 26.448 14 27V29C14 29.552 13.552 30 13 30Z" fill="white"/>
<path d="M29 30H27C26.448 30 26 29.552 26 29V27C26 26.448 26.448 26 27 26H29C29.552 26 30 26.448 30 27V29C30 29.552 29.552 30 29 30Z" fill="white"/>
<path d="M21 37H19C18.448 37 18 36.552 18 36V34C18 33.448 18.448 33 19 33H21C21.552 33 22 33.448 22 34V36C22 36.552 21.552 37 21 37Z" fill="white"/>
<path d="M13 37H11C10.448 37 10 36.552 10 36V34C10 33.448 10.448 33 11 33H13C13.552 33 14 33.448 14 34V36C14 36.552 13.552 37 13 37Z" fill="white"/>
<path d="M29 37H27C26.448 37 26 36.552 26 36V34C26 33.448 26.448 33 27 33H29C29.552 33 30 33.448 30 34V36C30 36.552 29.552 37 29 37Z" fill="white"/>
<path d="M37 30H35C34.448 30 34 29.552 34 29V27C34 26.448 34.448 26 35 26H37C37.552 26 38 26.448 38 27V29C38 29.552 37.552 30 37 30Z" fill="white"/>
<path opacity="0.05" d="M14 6V9.5C14 9.776 13.775 10 13.5 10C13.225 10 13 9.776 13 9.5V6H11V9.5C11 10.878 12.121 12 13.5 12C14.879 12 16 10.878 16 9.5V6H14Z" fill="black"/>
<path opacity="0.07" d="M14.5 6V9.5C14.5 10.051 14.052 10.5 13.5 10.5C12.948 10.5 12.5 10.051 12.5 9.5V6H11.5V9.5C11.5 10.603 12.397 11.5 13.5 11.5C14.603 11.5 15.5 10.603 15.5 9.5V6H14.5Z" fill="black"/>
<path opacity="0.05" d="M35 6V9.5C35 9.776 34.775 10 34.5 10C34.225 10 34 9.776 34 9.5V6H32V9.5C32 10.878 33.121 12 34.5 12C35.879 12 37 10.878 37 9.5V6H35Z" fill="black"/>
<path opacity="0.07" d="M35.5 6V9.5C35.5 10.051 35.052 10.5 34.5 10.5C33.948 10.5 33.5 10.051 33.5 9.5V6H32.5V9.5C32.5 10.603 33.397 11.5 34.5 11.5C35.603 11.5 36.5 10.603 36.5 9.5V6H35.5Z" fill="black"/>
<path d="M34.5 11C33.672 11 33 10.328 33 9.5V4.5C33 3.672 33.672 3 34.5 3C35.328 3 36 3.672 36 4.5V9.5C36 10.328 35.328 11 34.5 11Z" fill="#54DAFF"/>
<path d="M13.5 11C12.672 11 12 10.328 12 9.5V4.5C12 3.672 12.672 3 13.5 3C14.328 3 15 3.672 15 4.5V9.5C15 10.328 14.328 11 13.5 11Z" fill="#54DAFF"/>

</svg>
