<svg width="24" height="24" viewBox="0 0 24 24" fill="none" xmlns="http://www.w3.org/2000/svg">
<rect width="24" height="24" rx="12" fill="#2688EB"/>
<g clip-path="url(#clip0_2898_66808)">
<path fill-rule="evenodd" clip-rule="evenodd" d="M9.5 20C9.225 20 9 19.775 9 19.5V18.75C9 18.35 9.09167 18.0334 9.28333 17.75C9.375 17.6167 9.48333 17.5084 9.59167 17.3917L9.75833 17.2167C10.1667 16.7667 10.2333 16.1417 10.25 15.5417V15.3917L10.125 15.3167C9.23333 14.7917 8.48333 13.875 7.9 12.6L7.84167 12.475L7.7 12.4584C5.66667 12.2084 4 10.5 4 8.6667C4 7.70837 4.46667 6.95003 5.25 6.6417C5.48333 6.55003 5.725 6.50003 5.98333 6.50003C6.075 6.50003 6.175 6.50003 6.26667 6.5167L6.55833 6.55837V6.25837C6.54167 6.00003 6.55833 5.80837 6.60833 5.6167C6.78333 4.9417 7.34167 4.33337 8.00833 4.10837C8.35 3.9917 8.75 3.9917 9.21667 3.9917H14.7667C15.25 3.9917 15.65 3.9917 15.9917 4.10837C16.65 4.33337 17.2167 4.9417 17.3917 5.6167C17.4417 5.80003 17.4583 6.00003 17.45 6.25837V6.55837L17.7333 6.5167C17.825 6.50003 17.925 6.50003 18.0167 6.50003C18.2667 6.50003 18.5167 6.55003 18.75 6.6417C19.5333 6.95837 20 7.7167 20 8.6667C20 10.5 18.3333 12.2084 16.2917 12.4667L16.15 12.4834L16.0917 12.6084C15.5083 13.8834 14.7583 14.8 13.8667 15.325L13.7417 15.4V15.55C13.7667 16.15 13.8333 16.775 14.2417 17.225L14.4083 17.4C14.5167 17.5084 14.625 17.625 14.7167 17.75C14.9083 18.0334 15 18.35 15 18.75V19.5C15 19.775 14.775 20 14.5 20H9.5ZM11.2167 16.025C11.1417 16.8167 10.9083 17.4334 10.4917 17.8917C10.45 17.9334 10.4083 17.975 10.3667 18.025C10.275 18.1167 10.175 18.2167 10.1 18.325C10.0417 18.4 9.99167 18.5167 9.99167 18.7584V19.0084H13.9917V18.7584C13.9917 18.5167 13.9417 18.4084 13.8833 18.325C13.8083 18.2167 13.7167 18.125 13.625 18.0334C13.5833 17.9917 13.5417 17.95 13.5 17.9C13.0917 17.4417 12.85 16.8334 12.775 16.0334L12.75 15.775L12.4917 15.8084C12.3333 15.8334 12.1583 15.8417 11.9917 15.8417C11.825 15.8417 11.6583 15.8334 11.4917 15.8084L11.2333 15.775L11.2083 16.0334L11.2167 16.025ZM9.33333 5.00003C8.64167 5.00003 8.48333 5.00837 8.33333 5.0667C7.98333 5.18337 7.675 5.52503 7.58333 5.88337C7.54167 6.0417 7.54167 6.18337 7.59167 6.80003C7.78333 9.23337 8.29167 11.2667 9.05 12.675C9.825 14.1084 10.8167 14.8417 12 14.8417C13.1833 14.8417 14.175 14.1167 14.95 12.675C15.7083 11.2667 16.2167 9.23337 16.4083 6.80003C16.4583 6.18337 16.4583 6.0417 16.4167 5.88337C16.325 5.53337 16.0083 5.1917 15.6667 5.0667C15.5167 5.0167 15.35 5.00837 14.6667 5.00837H9.33333V5.00003ZM18.0083 7.50003C17.7083 7.50003 17.4583 7.6417 17.3417 7.88337C17.2917 7.98337 17.2833 8.05003 17.275 8.13337C17.1417 9.15837 16.95 10.1 16.7083 10.9417L16.5667 11.4417L17.05 11.2417C18.1833 10.775 19.0083 9.6917 19.0083 8.6667C19.0083 7.90003 18.575 7.6417 18.3833 7.5667C18.2667 7.52503 18.1417 7.50003 18.0167 7.50003H18.0083ZM5.98333 7.50003C5.85833 7.50003 5.73333 7.52503 5.61667 7.5667C5.43333 7.6417 4.99167 7.90003 4.99167 8.6667C4.99167 9.6917 5.81667 10.7834 6.95 11.2417L7.43333 11.4417L7.29167 10.9417C7.05 10.1 6.85833 9.15003 6.725 8.13337C6.71667 8.0417 6.7 7.97503 6.65833 7.87503C6.54167 7.63337 6.29167 7.4917 5.99167 7.4917L5.98333 7.50003Z" fill="white"/>
</g>
<defs>
<clipPath id="clip0_2898_66808">
<rect width="16" height="16" fill="white" transform="translate(4 4)"/>
</clipPath>
</defs>
</svg>
