<svg width="48" height="48" viewBox="0 0 48 48" fill="none" xmlns="http://www.w3.org/2000/svg">
    <defs>
        <linearGradient id="paint0_linear_2782_66807" x1="44.852" y1="26" x2="40.771" y2="26" gradientUnits="userSpaceOnUse">
            <stop stop-color="#D69400"/>
            <stop offset="0.057" stop-color="#D49200"/>
            <stop offset="0.554" stop-color="#C78600"/>
            <stop offset="1" stop-color="#C28200"/>
        </linearGradient>
        <linearGradient id="paint1_linear_2782_66807" x1="23" y1="7.174" x2="23" y2="41.832" gradientUnits="userSpaceOnUse">
            <stop stop-color="#FEC52B"/>
            <stop offset="0.728" stop-color="#FDC429"/>
            <stop offset="1" stop-color="#FAC023"/>
        </linearGradient>
    </defs><path d="M43 11H40V41H43C44.105 41 45 40.105 45 39V13C45 11.895 44.105 11 43 11Z" fill="url(#paint0_linear_2782_66807)"/>
<path d="M41 39V9C41 7.895 40.105 7 39 7H5C3.895 7 3 7.895 3 9V39C3 40.105 3.895 41 5 41H43C41.895 41 41 40.105 41 39Z" fill="url(#paint1_linear_2782_66807)"/>
<path d="M37 17H7C6.448 17 6 16.552 6 16V14C6 13.448 6.448 13 7 13H37C37.552 13 38 13.448 38 14V16C38 16.552 37.552 17 37 17Z" fill="white"/>
<path d="M19 35H7C6.448 35 6 34.552 6 34V22C6 21.448 6.448 21 7 21H19C19.552 21 20 21.448 20 22V34C20 34.552 19.552 35 19 35Z" fill="white"/>
<path d="M38 24H24V22C24 21.448 24.448 21 25 21H37C37.552 21 38 21.448 38 22V24Z" fill="white"/>
<path d="M38 24H24V27H38V24Z" fill="#FFF0C7"/>
<path d="M37 30H25C24.448 30 24 29.552 24 29V27H38V29C38 29.552 37.552 30 37 30Z" fill="#FFE396"/>

</svg>
