<svg width="48" height="48" viewBox="0 0 48 48" fill="none" xmlns="http://www.w3.org/2000/svg">

    <defs>
        <linearGradient id="paint0_linear_2782_66775" x1="6.91275" y1="6.5659" x2="39.4657" y2="43.4599" gradientUnits="userSpaceOnUse">
            <stop stop-color="#33C481"/>
            <stop offset="1" stop-color="#21A366"/>
        </linearGradient>
    </defs>
    <path d="M43.6667 22.7739L27.1567 6.2639C25.3797 4.4869 22.4718 4.4869 20.6938 6.2639L4.33275 22.6259C2.55575 24.4029 2.55575 27.3109 4.33275 29.0889L14.0138 38.7689C15.7908 40.5459 17.1157 41.9999 19.6287 41.9999H28.5198C31.0328 41.9999 32.3578 40.5459 34.1358 38.7679L43.6667 29.2369C45.4437 27.4599 45.4437 24.5519 43.6667 22.7739Z" fill="url(#paint0_linear_2782_66775)"/>
<path opacity="0.05" d="M23.5178 38.9941C22.9808 38.9941 22.3658 38.7391 21.9858 38.3591L20.3788 36.7521C19.8008 36.1741 19.8008 35.2331 20.3788 34.6551L22.8978 32.1362C23.1778 31.8562 23.5498 31.7021 23.9468 31.7021C24.3428 31.7021 24.7158 31.8562 24.9948 32.1362L27.4908 34.6321C27.7708 34.9121 27.9248 35.2841 27.9248 35.6801C27.9248 36.0761 27.7708 36.4491 27.4908 36.7291L25.8608 38.3591C25.4868 38.7331 24.8568 38.9941 24.3288 38.9941H23.5178Z" fill="black"/>
<path opacity="0.07" d="M23.5176 38.4942C23.1176 38.4942 22.6216 38.2882 22.3386 38.0052L20.7316 36.3982C20.3486 36.0152 20.3486 35.3912 20.7316 35.0082L23.2506 32.4892C23.4366 32.3032 23.6826 32.2012 23.9456 32.2012C24.2086 32.2012 24.4546 32.3032 24.6406 32.4892L27.1366 34.9852C27.3226 35.1712 27.4246 35.4172 27.4246 35.6802C27.4246 35.9432 27.3226 36.1902 27.1366 36.3752L25.5066 38.0052C25.2236 38.2882 24.7276 38.4942 24.3286 38.4942H23.5176Z" fill="black"/>
<path d="M22.6933 37.6522C22.8813 37.8402 23.2523 37.9941 23.5183 37.9941H24.3293C24.5953 37.9941 24.9663 37.8402 25.1543 37.6522L26.7843 36.0221C26.9723 35.8341 26.9723 35.5272 26.7843 35.3392L24.2883 32.8431C24.1003 32.6551 23.7933 32.6551 23.6053 32.8431L21.0863 35.3621C20.8983 35.5501 20.8983 35.8571 21.0863 36.0451L22.6933 37.6522Z" fill="white"/>
<path opacity="0.05" d="M13.7654 29.241C13.2284 29.241 12.6134 28.986 12.2334 28.606L10.6264 26.999C10.3464 26.719 10.1924 26.347 10.1924 25.951C10.1924 25.555 10.3464 25.182 10.6264 24.902L22.9274 12.602C23.2084 12.322 23.5804 12.168 23.9764 12.168C24.3724 12.168 24.7454 12.322 25.0244 12.602L27.5204 15.098C28.0974 15.675 28.0984 16.615 27.5214 17.193L16.1084 28.606C15.7344 28.98 15.1044 29.241 14.5764 29.241H13.7654Z" fill="black"/>
<path opacity="0.07" d="M13.7654 28.741C13.3654 28.741 12.8694 28.535 12.5864 28.252L10.9794 26.645C10.7934 26.459 10.6914 26.213 10.6914 25.95C10.6914 25.687 10.7934 25.44 10.9794 25.255L23.2804 12.955C23.4664 12.769 23.7134 12.667 23.9754 12.667C24.2374 12.667 24.4844 12.769 24.6704 12.955L27.1664 15.451C27.5484 15.833 27.5494 16.456 27.1674 16.84L15.7544 28.252C15.4714 28.535 14.9754 28.741 14.5764 28.741H13.7654Z" fill="black"/>
<path d="M26.8134 15.805L24.3174 13.309C24.1294 13.121 23.8224 13.121 23.6344 13.309L11.3334 25.609C11.1454 25.797 11.1454 26.104 11.3334 26.292L12.9404 27.899C13.1284 28.087 13.4994 28.241 13.7654 28.241H14.5764C14.8424 28.241 15.2134 28.087 15.4014 27.899L26.8134 16.488C27.0004 16.3 27.0004 15.992 26.8134 15.805Z" fill="white"/>
<path opacity="0.05" d="M18.6254 34.1009C18.0884 34.1009 17.4734 33.8459 17.0934 33.4659L15.4864 31.8589C14.9084 31.2809 14.9084 30.3409 15.4854 29.7629L22.8744 22.3739C23.1544 22.0939 23.5264 21.9399 23.9234 21.9399C24.3194 21.9399 24.6924 22.0939 24.9714 22.3739L27.4674 24.8699C27.7474 25.1489 27.9014 25.5209 27.9014 25.9179C27.9014 26.3149 27.7474 26.6879 27.4664 26.9669L20.9674 33.4659C20.5944 33.8399 19.9654 34.0999 19.4364 34.0999H18.6254V34.1009Z" fill="black"/>
<path opacity="0.07" d="M18.625 33.601C18.225 33.601 17.729 33.395 17.446 33.112L15.839 31.505C15.456 31.122 15.456 30.499 15.839 30.115L23.228 22.727C23.414 22.541 23.66 22.439 23.923 22.439C24.186 22.439 24.432 22.541 24.618 22.727L27.114 25.223C27.3 25.408 27.402 25.655 27.402 25.918C27.402 26.181 27.3 26.428 27.114 26.613L20.614 33.113C20.332 33.395 19.837 33.601 19.437 33.601H18.625Z" fill="black"/>
<path d="M26.7598 25.5769L24.2638 23.0809C24.0758 22.8929 23.7688 22.8929 23.5808 23.0809L16.1928 30.4689C16.0048 30.6569 16.0048 30.9639 16.1928 31.1519L17.7998 32.7589C17.9878 32.9469 18.3588 33.1009 18.6248 33.1009H19.4358C19.7018 33.1009 20.0728 32.9469 20.2598 32.7599L26.7598 26.2599C26.9478 26.0719 26.9478 25.7649 26.7598 25.5769Z" fill="white"/>

</svg>
