<svg width="48" height="48" viewBox="0 0 48 48" fill="none" xmlns="http://www.w3.org/2000/svg">
<path d="M43 6V10H5V6C5 4.9 5.9 4 7 4H41C42.1 4 43 4.9 43 6Z" fill="#C54320"/>
<path d="M36 8C36.5523 8 37 7.55228 37 7C37 6.44772 36.5523 6 36 6C35.4477 6 35 6.44772 35 7C35 7.55228 35.4477 8 36 8Z" fill="#EF562B"/>
<path d="M40 8C40.5523 8 41 7.55228 41 7C41 6.44772 40.5523 6 40 6C39.4477 6 39 6.44772 39 7C39 7.55228 39.4477 8 40 8Z" fill="#EF562B"/>
<path d="M5 17H43V37H5V17Z" fill="#26ADE9"/>
<path d="M5 37H43V38C43 39.105 42.105 40 41 40H7C5.895 40 5 39.105 5 38V37Z" fill="#1696DF"/>
<path opacity="0.05" d="M43 24H28C26.897 24 26 24.897 26 26V40H43V24Z" fill="black"/>
<path d="M42 16H6L3 19V20C3 21.105 3.895 22 5 22H43C44.105 22 45 21.105 45 20V19L42 16Z" fill="#D34822"/>
<path opacity="0.07" d="M43 40V24.5H28C27.173 24.5 26.5 25.173 26.5 26V40H43Z" fill="black"/>
<path d="M43 10H5L3 19H45L43 10Z" fill="#EF562B"/>
<path d="M47.382 48H27.618C27.277 48 27 47.723 27 47.382V45H48V47.382C48 47.723 47.723 48 47.382 48Z" fill="#E1892D"/>
<path d="M48 46H27V26C27 25.448 27.448 25 28 25H47C47.552 25 48 25.448 48 26V46Z" fill="#F3A53A"/>
<path d="M42 31C43.1046 31 44 30.1046 44 29C44 27.8954 43.1046 27 42 27C40.8954 27 40 27.8954 40 29C40 30.1046 40.8954 31 42 31Z" fill="#C48C00"/>
<path d="M33 31C34.1046 31 35 30.1046 35 29C35 27.8954 34.1046 27 33 27C31.8954 27 31 27.8954 31 29C31 30.1046 31.8954 31 33 31Z" fill="#C48C00"/>
<path d="M33 29V32.48C33 34.976 35.015 37 37.5 37C39.985 37 42 34.977 42 32.48V29" stroke="#BD370A" stroke-width="1.5" stroke-linecap="round" stroke-linejoin="round"/>
</svg>
