<svg width="48" height="48" viewBox="0 0 48 48" fill="none" xmlns="http://www.w3.org/2000/svg">
    <defs>
        <linearGradient id="paint0_linear_2783_66890" x1="24" y1="8.979" x2="24" y2="6.308" gradientUnits="userSpaceOnUse">
            <stop stop-color="#B33F20"/>
            <stop offset="0.129" stop-color="#C74724"/>
            <stop offset="0.295" stop-color="#D94F29"/>
            <stop offset="0.469" stop-color="#E4532B"/>
            <stop offset="0.659" stop-color="#E8552C"/>
        </linearGradient>
        <radialGradient id="paint1_radial_2783_66890" cx="0" cy="0" r="1" gradientUnits="userSpaceOnUse" gradientTransform="translate(23.832 5.99197) scale(45.74 36.7933)">
            <stop stop-color="#40150B"/>
            <stop offset="0.156" stop-color="#622110"/>
            <stop offset="0.417" stop-color="#953218"/>
            <stop offset="0.645" stop-color="#BA3F1E"/>
            <stop offset="0.828" stop-color="#D14722"/>
            <stop offset="0.944" stop-color="#D94A23"/>
        </radialGradient>
        <linearGradient id="paint2_linear_2783_66890" x1="24" y1="9.028" x2="24" y2="26.927" gradientUnits="userSpaceOnUse">
            <stop stop-color="#FC7D5B"/>
            <stop offset="0.06" stop-color="#F8734F"/>
            <stop offset="0.18" stop-color="#F3653D"/>
            <stop offset="0.326" stop-color="#F05B31"/>
            <stop offset="0.523" stop-color="#EE552A"/>
            <stop offset="1" stop-color="#ED5328"/>
        </linearGradient>
        <linearGradient id="paint3_linear_2783_66890" x1="31" y1="38" x2="45" y2="38" gradientUnits="userSpaceOnUse">
            <stop stop-color="#FEDE00"/>
            <stop offset="1" stop-color="#FFD000"/>
        </linearGradient>
    </defs><path d="M28.5 6H19.5C18.672 6 18 6.672 18 7.5V9H30V7.5C30 6.672 29.328 6 28.5 6Z" fill="url(#paint0_linear_2783_66890)"/>
<path d="M42 41H6C4.9 41 4 40.1 4 39V13C4 10.8 5.8 9 8 9H40C42.2 9 44 10.8 44 13V39C44 40.1 43.1 41 42 41Z" fill="url(#paint1_radial_2783_66890)"/>
<path d="M42.297 25.255L24 28L5.703 25.255C4.724 25.109 4 24.268 4 23.278V13C4 10.8 5.8 9 8 9H40C42.2 9 44 10.8 44 13V23.278C44 24.268 43.276 25.109 42.297 25.255Z" fill="url(#paint2_linear_2783_66890)"/>
<path d="M25.5 21H22.5C22.224 21 22 21.224 22 21.5V24.5C22 24.776 22.224 25 22.5 25H25.5C25.776 25 26 24.776 26 24.5V21.5C26 21.224 25.776 21 25.5 21Z" fill="#F6ECA5"/>
<path d="M38 28L40.329 29.307L43 29.34L44.364 31.636L46.66 33L46.693 35.671L48 38L46.693 40.329L46.66 43L44.364 44.364L43 46.66L40.329 46.693L38 48L35.671 46.693L33 46.66L31.636 44.364L29.34 43L29.307 40.329L28 38L29.307 35.671L29.34 33L31.636 31.636L33 29.34L35.671 29.307L38 28Z" fill="#FDB700"/>
<path d="M38 45C41.866 45 45 41.866 45 38C45 34.134 41.866 31 38 31C34.134 31 31 34.134 31 38C31 41.866 34.134 45 38 45Z" fill="url(#paint3_linear_2783_66890)"/>

</svg>
