<svg width="24" height="24" viewBox="0 0 24 24" fill="none" xmlns="http://www.w3.org/2000/svg">
<rect width="24" height="24" rx="12" fill="#F2F3F5"/>
<path d="M14 15C14 14.6894 14 14.5341 14.0507 14.4115C14.1184 14.2482 14.2482 14.1184 14.4115 14.0507C14.5341 14 14.6894 14 15 14C15.3106 14 15.4659 14 15.5885 14.0507C15.7518 14.1184 15.8816 14.2482 15.9493 14.4115C16 14.5341 16 14.6894 16 15C16 15.3106 16 15.4659 15.9493 15.5885C15.8816 15.7518 15.7518 15.8816 15.5885 15.9493C15.4659 16 15.3106 16 15 16C14.6894 16 14.5341 16 14.4115 15.9493C14.2482 15.8816 14.1184 15.7518 14.0507 15.5885C14 15.4659 14 15.3106 14 15Z" fill="#2688EB"/>
<path fill-rule="evenodd" clip-rule="evenodd" d="M5 11.25C5 9.14981 5 8.09972 5.41618 7.29753C5.78224 6.59193 6.36634 6.01826 7.08476 5.65872C7.47119 5.46534 7.9141 5.36347 8.5 5.30978V4.46875C8.5 4.20987 8.71369 4 8.97727 4C9.24085 4 9.45455 4.20987 9.45455 4.46875V5.26094C9.92488 5.25 10.4691 5.25 11.1091 5.25H12.8909C13.5309 5.25 14.0751 5.25 14.5455 5.26094V4.46875C14.5455 4.20987 14.7591 4 15.0227 4C15.2863 4 15.5 4.20987 15.5 4.46875V5.30978C16.0859 5.36347 16.5288 5.46534 16.9152 5.65872C17.6337 6.01825 18.2178 6.59193 18.5838 7.29753C19 8.09972 19 9.14981 19 11.25V13C19 15.1002 19 16.1503 18.5838 16.9525C18.2178 17.6581 17.6337 18.2317 16.9152 18.5913C16.0985 19 15.0293 19 12.8909 19H11.1091C8.97072 19 7.90153 19 7.08476 18.5913C6.36633 18.2317 5.78222 17.6581 5.41615 16.9525C5 16.1503 5 15.1002 5 13V11.25ZM12.8909 6.1875H11.1091C10.4476 6.1875 9.90824 6.18778 9.45455 6.19869V7.28125C9.45455 7.54013 9.24085 7.75 8.97727 7.75C8.71369 7.75 8.5 7.54013 8.5 7.28125V6.25194C8.03052 6.301 7.74231 6.38184 7.51812 6.49403C6.97928 6.76367 6.54119 7.19394 6.26665 7.72316C6.13858 7.97006 6.0506 8.296 6.00339 8.86334C5.98461 9.08903 5.97306 9.33978 5.96594 9.625H18.0341C18.0269 9.33978 18.0154 9.08903 17.9966 8.86334C17.9494 8.296 17.8614 7.97006 17.7333 7.72316C17.4588 7.19394 17.0207 6.76368 16.4819 6.49403C16.2577 6.38184 15.9695 6.301 15.5 6.25194V7.28125C15.5 7.54013 15.2863 7.75 15.0227 7.75C14.7591 7.75 14.5455 7.54013 14.5455 7.28125V6.19869C14.0918 6.18775 13.5524 6.1875 12.8909 6.1875ZM5.95455 11.25V13C5.95455 14.0656 5.95528 14.8084 6.00339 15.3867C6.0506 15.954 6.13858 16.2799 6.26665 16.5268C6.5412 17.0561 6.97929 17.4863 7.51812 17.756C7.76952 17.8818 8.10138 17.9682 8.67904 18.0145C9.26784 18.0618 10.0242 18.0625 11.1091 18.0625H12.8909C13.9758 18.0625 14.7322 18.0618 15.321 18.0145C15.8986 17.9682 16.2305 17.8818 16.4819 17.756C17.0207 17.4863 17.4588 17.0561 17.7333 16.5268C17.8614 16.2799 17.9494 15.954 17.9966 15.3867C18.0447 14.8084 18.0455 14.0656 18.0455 13V11.25C18.0455 11.0043 18.0454 10.7758 18.0448 10.5625H5.95525C5.95461 10.7758 5.95455 11.0043 5.95455 11.25Z" fill="#2688EB"/>
</svg>
