<svg width="24" height="24" viewBox="0 0 24 24" fill="none" xmlns="http://www.w3.org/2000/svg">
<rect width="24" height="24" rx="12" fill="#F2F3F5"/>
<path d="M9.85323 5.25028L14.2834 5.2507C14.3841 5.25134 14.4807 5.25272 14.5736 5.25489L14.5735 6.21915C14.4419 6.21604 14.3005 6.21456 14.1479 6.21456H9.85323L9.61609 6.21588C8.55304 6.22822 8.08593 6.32939 7.60443 6.5869C7.16464 6.8221 6.82238 7.16437 6.58718 7.60415C6.32047 8.10285 6.22147 8.58612 6.21516 9.73202V14.2685C6.22147 15.4144 6.32047 15.8977 6.58718 16.3964C6.82238 16.8362 7.16464 17.1785 7.60443 17.4137C8.08593 17.6712 8.55304 17.7723 9.61609 17.7847L9.85323 17.786H14.1479L14.385 17.7847C15.4481 17.7723 15.9152 17.6712 16.3967 17.4137C16.8365 17.1785 17.1787 16.8362 17.4139 16.3964C17.6806 15.8977 17.7796 15.4144 17.7859 14.2685V9.73202C17.7854 9.62514 17.784 9.52402 17.7817 9.42812L18.746 9.42841C18.7481 9.52098 18.7495 9.61722 18.7501 9.71745V14.2831C18.7419 15.5701 18.6131 16.199 18.2643 16.8512C17.9392 17.459 17.4593 17.9389 16.8514 18.264C16.2217 18.6007 15.6137 18.7325 14.4142 18.7486L14.1479 18.7503H9.85323L9.58691 18.7486C8.38738 18.7325 7.77938 18.6007 7.14967 18.264C6.54184 17.9389 6.06193 17.459 5.73686 16.8512C5.38806 16.199 5.25918 15.5701 5.25098 14.2831V9.71745C5.25918 8.43051 5.38806 7.8016 5.73686 7.1494C6.06193 6.54157 6.54184 6.06165 7.14967 5.73658C7.77938 5.39981 8.38738 5.26806 9.58691 5.25198L9.85323 5.25028ZM17.9008 6.10002C18.1205 6.31969 18.1205 6.67585 17.9008 6.89552L12.0653 12.731C11.9167 12.8797 11.7709 13.0124 11.6218 13.1338C11.4727 13.2552 11.3202 13.3653 11.158 13.4686C10.9958 13.5719 10.8239 13.6683 10.636 13.7626L10.5305 13.8155C10.4035 13.8792 10.249 13.8279 10.1853 13.7009C10.1489 13.6284 10.1489 13.5429 10.1853 13.4704L10.2383 13.3648C10.3325 13.1769 10.429 13.0051 10.5323 12.8428C10.6355 12.6806 10.7456 12.5281 10.867 12.379C10.9884 12.2299 11.1212 12.0842 11.2698 11.9355L17.1053 6.10002C17.325 5.88035 17.6811 5.88035 17.9008 6.10002ZM18.2684 8.78599C18.5347 8.78599 18.7506 9.00186 18.7506 9.26814V9.42885H17.7863V9.26814C17.7863 9.00186 18.0021 8.78599 18.2684 8.78599ZM14.7327 5.25028C14.999 5.25028 15.2148 5.46614 15.2148 5.73242C15.2148 5.9987 14.999 6.21456 14.7327 6.21456H14.572V5.25028H14.7327ZM18.7506 4.60742C19.1056 4.60742 19.3934 4.89524 19.3934 5.25028C19.3934 5.60532 19.1056 5.89314 18.7506 5.89314C18.3955 5.89314 18.1077 5.60532 18.1077 5.25028C18.1077 4.89524 18.3955 4.60742 18.7506 4.60742Z" fill="#2688EB"/>
</svg>
