<svg width="24" height="24" viewBox="0 0 24 24" fill="none" xmlns="http://www.w3.org/2000/svg">
<rect width="24" height="24" rx="12" fill="#2688EB"/>
<path d="M8.5799 5H13.4224C13.9498 5 14.3753 5 14.7197 5.02833C15.0742 5.05763 15.3859 5.11884 15.6739 5.266C16.1316 5.50012 16.5038 5.87373 16.737 6.33326C16.9575 6.76758 16.9906 7.27353 16.9997 7.92372V7.96149C17.0019 8.02654 16.9912 8.09138 16.9681 8.1522C16.9451 8.21303 16.9101 8.2686 16.8653 8.31567C16.8205 8.36274 16.7668 8.40034 16.7074 8.42628C16.6479 8.45221 16.5839 8.46595 16.519 8.46669C16.4542 8.46743 16.3899 8.45515 16.3298 8.43058C16.2698 8.406 16.2153 8.36963 16.1694 8.32359C16.1236 8.27756 16.0874 8.22279 16.0629 8.1625C16.0385 8.10222 16.0263 8.03764 16.0271 7.97256L16.0267 7.93674C16.0177 7.268 15.9748 6.98214 15.8701 6.77637C15.7301 6.50074 15.5068 6.27667 15.2321 6.13628C15.104 6.07051 14.9347 6.02558 14.6402 6.00149C14.3406 5.97674 13.9546 5.97674 13.4016 5.97674H8.60066C8.04768 5.97674 7.66206 5.97707 7.36174 6.00181C7.06725 6.02591 6.89795 6.07084 6.77017 6.1366C6.49553 6.277 6.27221 6.50107 6.13222 6.7767C6.06671 6.9053 6.02195 7.07526 5.99795 7.37056C5.97298 7.67205 5.97298 8.05884 5.97298 8.61395V15.386C5.97298 15.9412 5.9733 16.328 5.99795 16.6294C6.02195 16.9247 6.06671 17.0947 6.13222 17.2233C6.27216 17.4991 6.49548 17.7232 6.77017 17.8637C6.89828 17.9288 7.06725 17.9744 7.36206 17.9982C7.66206 18.0229 8.04768 18.0233 8.60066 18.0233H13.4016C13.9546 18.0233 14.3402 18.0229 14.6406 17.9982C14.9347 17.9741 15.1044 17.9292 15.2321 17.8637C15.5068 17.7232 15.7301 17.4991 15.8701 17.2233C15.9674 17.0312 16.0128 16.7652 16.0248 16.1707C16.0274 16.0412 16.0811 15.918 16.1742 15.8282C16.2672 15.7385 16.392 15.6895 16.521 15.6921C16.65 15.6947 16.7727 15.7486 16.8622 15.842C16.9516 15.9355 17.0003 16.0607 16.9978 16.1902C16.9858 16.7828 16.9459 17.2549 16.737 17.6667C16.5038 18.1263 16.1316 18.4999 15.6739 18.734C15.3859 18.8812 15.0742 18.9427 14.7197 18.9717C14.3753 19 13.9498 19 13.4224 19H8.5799C8.05255 19 7.62703 19 7.2826 18.9717C6.92811 18.9427 6.61644 18.8812 6.32844 18.734C5.87068 18.4999 5.49852 18.1263 5.2653 17.6667C5.11838 17.3776 5.05708 17.0647 5.02822 16.7089C5 16.3631 5 15.9363 5 15.4069V8.59312C5 8.06372 5 7.63688 5.02822 7.29112C5.05741 6.93526 5.11838 6.62237 5.26497 6.33326C5.49828 5.87368 5.87056 5.50007 6.32844 5.266C6.61644 5.11884 6.92811 5.0573 7.2826 5.02833C7.62703 5 8.05255 5 8.5799 5Z" fill="white"/>
<path fill-rule="evenodd" clip-rule="evenodd" d="M19.3066 9.3237C19.204 9.22107 19.0822 9.13967 18.9481 9.08413C18.814 9.02859 18.6703 9 18.5252 9C18.38 9 18.2363 9.02859 18.1023 9.08413C17.9682 9.13967 17.8464 9.22107 17.7438 9.3237L13.4161 13.651C13.2842 13.783 13.1795 13.9397 13.1081 14.1121C13.0367 14.2845 13 14.4693 13 14.656V15.5264C13 15.652 13.0499 15.7725 13.1387 15.8613C13.2275 15.9501 13.348 16 13.4736 16H14.344C14.5306 16 14.7154 15.9633 14.8877 15.8919C15.0601 15.8205 15.2167 15.7158 15.3487 15.5839L19.6763 11.2562C19.7789 11.1536 19.8603 11.0318 19.9159 10.8977C19.9714 10.7637 20 10.62 20 10.4748C20 10.3297 19.9714 10.186 19.9159 10.0519C19.8603 9.91785 19.7789 9.79602 19.6763 9.69341L19.3066 9.3237ZM18.4134 9.99303C18.4281 9.97833 18.4455 9.96667 18.4647 9.95871C18.4838 9.95075 18.5044 9.94665 18.5252 9.94665C18.5459 9.94665 18.5665 9.95075 18.5857 9.95871C18.6049 9.96667 18.6223 9.97833 18.6369 9.99303L19.0067 10.3631C19.0214 10.3777 19.033 10.3951 19.041 10.4143C19.0489 10.4335 19.053 10.4541 19.053 10.4748C19.053 10.4956 19.0489 10.5162 19.041 10.5353C19.033 10.5545 19.0214 10.5719 19.0067 10.5866L18.5252 11.0681L17.9319 10.4748L18.4134 9.99303ZM17.2623 11.1448L14.0861 14.321C13.9973 14.4097 13.9473 14.5301 13.9472 14.6556V15.0528H14.344C14.4063 15.0528 14.4679 15.0405 14.5254 15.0167C14.5828 14.9929 14.635 14.9579 14.679 14.9139L17.8552 11.7377L17.2623 11.1448Z" fill="white"/>
<path d="M8.5 9C8.36739 9 8.24021 9.05268 8.14645 9.14645C8.05268 9.24022 8 9.36739 8 9.5C8 9.63261 8.05268 9.75978 8.14645 9.85355C8.24021 9.94732 8.36739 10 8.5 10H14.5C14.6326 10 14.7598 9.94732 14.8536 9.85355C14.9473 9.75978 15 9.63261 15 9.5C15 9.36739 14.9473 9.24022 14.8536 9.14645C14.7598 9.05268 14.6326 9 14.5 9H8.5ZM8.5 12C8.36739 12 8.24021 12.0527 8.14645 12.1464C8.05268 12.2402 8 12.3674 8 12.5C8 12.6326 8.05268 12.7598 8.14645 12.8536C8.24021 12.9473 8.36739 13 8.5 13H11.8333C11.9659 13 12.0931 12.9473 12.1869 12.8536C12.2807 12.7598 12.3333 12.6326 12.3333 12.5C12.3333 12.3674 12.2807 12.2402 12.1869 12.1464C12.0931 12.0527 11.9659 12 11.8333 12H8.5ZM8 15.5C8 15.3674 8.05268 15.2402 8.14645 15.1464C8.24021 15.0527 8.36739 15 8.5 15H10.5C10.6326 15 10.7598 15.0527 10.8536 15.1464C10.9473 15.2402 11 15.3674 11 15.5C11 15.6326 10.9473 15.7598 10.8536 15.8536C10.7598 15.9473 10.6326 16 10.5 16H8.5C8.36739 16 8.24021 15.9473 8.14645 15.8536C8.05268 15.7598 8 15.6326 8 15.5Z" fill="white"/>
</svg>
