<svg width="48" height="48" viewBox="0 0 48 48" fill="none" xmlns="http://www.w3.org/2000/svg">
    <defs>
        <linearGradient id="paint0_linear_2895_66748" x1="23.995" y1="7" x2="23.995" y2="41" gradientUnits="userSpaceOnUse">
            <stop stop-color="#F8403F"/>
            <stop offset="1" stop-color="#B30E00"/>
        </linearGradient>
        <linearGradient id="paint1_linear_2895_66748" x1="23.9997" y1="18.0998" x2="23.9997" y2="29.0568" gradientUnits="userSpaceOnUse">
            <stop stop-color="white"/>
            <stop offset="0.325" stop-color="#FBFBFC"/>
            <stop offset="0.662" stop-color="#EEEEF4"/>
            <stop offset="1" stop-color="#DADAE6"/>
        </linearGradient>
    </defs>
    <path d="M38 7H10C8.34315 7 7 8.34315 7 10V38C7 39.6569 8.34315 41 10 41H38C39.6569 41 41 39.6569 41 38V10C41 8.34315 39.6569 7 38 7Z" fill="url(#paint0_linear_2895_66748)"/>
<path d="M15.8057 26.0768C15.8133 25.9091 15.781 25.742 15.7115 25.5892C15.6419 25.4364 15.5371 25.3022 15.4057 25.1978C14.9761 24.908 14.5037 24.6877 14.0057 24.5448C13.4477 24.3642 12.9025 24.1463 12.3737 23.8928C11.7899 23.685 11.2816 23.3074 10.9141 22.8084C10.5466 22.3095 10.3368 21.712 10.3117 21.0928C10.3028 20.5286 10.4838 19.9778 10.8257 19.5288C11.204 19.0505 11.7067 18.6855 12.2787 18.4738C12.9551 18.2141 13.6752 18.0871 14.3997 18.0998C15.1045 18.0883 15.8035 18.2281 16.4497 18.5098C17.0217 18.7562 17.5111 19.1616 17.8597 19.6778C18.1963 20.1923 18.3705 20.7961 18.3597 21.4108H15.8127C15.8237 21.2233 15.7937 21.0357 15.7246 20.861C15.6555 20.6864 15.549 20.529 15.4127 20.3998C15.1132 20.1481 14.7293 20.0197 14.3387 20.0408C13.9547 20.0185 13.5743 20.124 13.2567 20.3408C13.1316 20.4256 13.0299 20.5405 12.961 20.6749C12.892 20.8094 12.858 20.959 12.8621 21.11C12.8662 21.2611 12.9082 21.4086 12.9843 21.5391C13.0605 21.6697 13.1682 21.7789 13.2977 21.8568C13.7715 22.164 14.2899 22.3961 14.8347 22.5448C15.4617 22.7366 16.0669 22.9934 16.6407 23.3108C17.1559 23.5612 17.5903 23.9515 17.8943 24.4371C18.1982 24.9227 18.3595 25.4839 18.3597 26.0568C18.3774 26.4812 18.291 26.9036 18.1082 27.287C17.9254 27.6704 17.6516 28.0034 17.3107 28.2568C16.466 28.8331 15.4546 29.1144 14.4337 29.0568C13.6315 29.0684 12.8361 28.9099 12.0997 28.5918C11.4616 28.3304 10.9143 27.8874 10.5257 27.3178C10.1698 26.7622 9.9868 26.1135 9.99966 25.4538H12.5637C12.5442 25.6835 12.5734 25.9147 12.6494 26.1324C12.7254 26.35 12.8465 26.5491 13.0047 26.7168C13.415 27.0244 13.9249 27.1691 14.4357 27.1228C14.7898 27.142 15.1407 27.0458 15.4357 26.8488C15.556 26.7604 15.6527 26.6437 15.7172 26.5091C15.7818 26.3745 15.8121 26.226 15.8057 26.0768ZM28.6547 23.7998C28.6735 24.7518 28.4766 25.6957 28.0787 26.5608C27.7281 27.3253 27.1592 27.969 26.4437 28.4108C25.7152 28.8487 24.8785 29.0732 24.0287 29.0588C23.1865 29.0735 22.3564 28.857 21.6287 28.4328C20.9202 28.0065 20.3508 27.3836 19.9897 26.6398C19.5857 25.8066 19.3754 24.8928 19.3747 23.9668V23.3668C19.3552 22.414 19.5504 21.469 19.9457 20.6018C20.2978 19.8371 20.8685 19.1938 21.5857 18.7528C22.3183 18.3123 23.1599 18.0864 24.0147 18.1008C24.8592 18.0872 25.6907 18.3106 26.4147 18.7458C27.1282 19.1854 27.6989 19.8225 28.0577 20.5798C28.4617 21.4317 28.6649 22.365 28.6517 23.3078L28.6547 23.7998ZM26.0547 23.3538C26.1069 22.5157 25.9241 21.6796 25.5267 20.9398C25.3715 20.6799 25.1495 20.4663 24.8838 20.3213C24.618 20.1764 24.3182 20.1054 24.0157 20.1158C22.7337 20.1158 22.0563 21.0825 21.9837 23.0158L21.9757 23.7998C21.9273 24.6349 22.1063 25.4674 22.4937 26.2088C22.6538 26.4654 22.8764 26.6772 23.1405 26.8246C23.4046 26.972 23.7018 27.0501 24.0042 27.0517C24.3067 27.0533 24.6047 26.9783 24.8703 26.8338C25.136 26.6892 25.3608 26.4797 25.5237 26.2248C25.9156 25.4949 26.0993 24.6712 26.0547 23.8438V23.3538ZM35.4447 26.0788C35.4523 25.9111 35.42 25.744 35.3505 25.5912C35.2809 25.4384 35.1761 25.3042 35.0447 25.1998C34.6166 24.9107 34.1459 24.6904 33.6497 24.5468C33.0917 24.3662 32.5465 24.1483 32.0177 23.8948C31.4339 23.687 30.9255 23.3094 30.5581 22.8104C30.1906 22.3115 29.9808 21.714 29.9557 21.0948C29.9468 20.5306 30.1278 19.9798 30.4697 19.5308C30.848 19.0525 31.3507 18.6875 31.9227 18.4758C32.5961 18.2162 33.313 18.0882 34.0347 18.0988C34.7398 18.0872 35.4392 18.227 36.0857 18.5088C36.6577 18.7552 37.1471 19.1606 37.4957 19.6768C37.8323 20.1913 38.0065 20.7951 37.9957 21.4098H35.4507C35.4615 21.2224 35.4313 21.0348 35.3622 20.8602C35.2931 20.6856 35.1868 20.5281 35.0507 20.3988C34.7512 20.1471 34.3673 20.0187 33.9767 20.0398C33.5927 20.0173 33.2122 20.1229 32.8947 20.3398C32.7696 20.4246 32.6679 20.5395 32.599 20.6739C32.53 20.8084 32.496 20.958 32.5001 21.109C32.5042 21.2601 32.5462 21.4076 32.6223 21.5381C32.6985 21.6687 32.8062 21.7779 32.9357 21.8558C33.4094 22.1632 33.9279 22.3953 34.4727 22.5438C35.0997 22.7356 35.7049 22.9924 36.2787 23.3098C36.795 23.5603 37.2304 23.9513 37.5348 24.4378C37.8391 24.9244 38.0003 25.4869 37.9997 26.0608C38.0174 26.4852 37.931 26.9076 37.7482 27.291C37.5654 27.6744 37.2916 28.0074 36.9507 28.2608C36.106 28.8371 35.0946 29.1184 34.0737 29.0608C33.2715 29.0724 32.4761 28.9139 31.7397 28.5958C31.1016 28.3344 30.5543 27.8914 30.1657 27.3218C29.8091 26.7664 29.6254 26.1177 29.6377 25.4578H32.1997C32.1802 25.6875 32.2094 25.9187 32.2854 26.1364C32.3614 26.354 32.4825 26.5531 32.6407 26.7208C33.051 27.0284 33.5609 27.1731 34.0717 27.1268C34.4258 27.146 34.7767 27.0498 35.0717 26.8528C35.1928 26.7641 35.2902 26.6469 35.3551 26.5115C35.42 26.3761 35.4504 26.2268 35.4437 26.0768L35.4447 26.0788Z" fill="url(#paint1_linear_2895_66748)"/>

</svg>
