<svg width="24" height="24" viewBox="0 0 24 24" fill="none" xmlns="http://www.w3.org/2000/svg">
<g clip-path="url(#clip0_2912_66832)">
<path d="M12.0006 12.429C15.0325 12.429 17.572 13.652 17.572 16.2861C17.572 17.5995 16.7771 18.429 15.697 18.429H8.30415C7.18313 18.429 6.42915 17.8171 6.42915 16.5004C6.42915 13.7031 8.93549 12.429 12.0006 12.429ZM5.81071 12.4294C6.13797 12.4415 6.40852 12.7007 6.42803 13.0343C6.44877 13.3887 6.17825 13.6929 5.82381 13.7136C4.15982 13.8109 3.00056 14.5652 3.00056 15.8576C3.00056 16.179 3.14342 16.2861 3.42913 16.2861H4.50056L4.56247 16.2891C4.88846 16.3202 5.14341 16.5948 5.14341 16.929C5.14341 17.284 4.8556 17.5718 4.50056 17.5718H3.42913L3.34513 17.5702C2.45366 17.5356 1.71484 16.9485 1.71484 15.8576C1.71484 13.718 3.49139 12.5621 5.74873 12.4301L5.81071 12.4294ZM18.1904 12.4294L18.2524 12.4301C20.5097 12.5621 22.2863 13.718 22.2863 15.8576C22.2863 16.9485 21.5475 17.5356 20.656 17.5702L20.572 17.5718H19.5006C19.1455 17.5718 18.8577 17.284 18.8577 16.929C18.8577 16.5948 19.1127 16.3202 19.4387 16.2891L19.5006 16.2861H20.572C20.8577 16.2861 21.0006 16.179 21.0006 15.8576C21.0006 14.5652 19.8413 13.8109 18.1773 13.7136C17.8229 13.6929 17.5524 13.3887 17.5731 13.0343C17.5926 12.7007 17.8632 12.4415 18.1904 12.4294ZM12.0006 13.7147C9.55345 13.7147 7.71486 14.6494 7.71486 16.5004C7.71486 16.9939 7.82001 17.1222 8.19083 17.1407L8.30415 17.1433H15.697C16.0545 17.1433 16.2863 16.9014 16.2863 16.2861C16.2863 14.6181 14.4106 13.7147 12.0006 13.7147ZM6.85756 5.14328C6.94837 5.14328 7.03878 5.14733 7.12859 5.15539C7.48221 5.18715 7.74313 5.49955 7.71138 5.85317C7.67962 6.20679 7.36722 6.46771 7.0136 6.43596C6.96201 6.43132 6.90997 6.42899 6.85756 6.42899C5.91078 6.42899 5.14327 7.1965 5.14327 8.14328C5.14327 9.09005 5.91078 9.85756 6.85756 9.85756C6.96053 9.85756 7.06205 9.84855 7.16146 9.83082C7.21465 9.82133 7.26721 9.80934 7.319 9.79491L7.38694 9.77872C7.70907 9.71975 8.02926 9.91439 8.12043 10.2359C8.21729 10.5774 8.01892 10.9329 7.67734 11.0297L7.52655 11.0683L7.38731 11.0965C7.21344 11.1276 7.03634 11.1433 6.85756 11.1433C5.2007 11.1433 3.85756 9.80013 3.85756 8.14328C3.85756 6.48642 5.2007 5.14328 6.85756 5.14328ZM17.145 5.14328C18.8018 5.14328 20.145 6.48642 20.145 8.14328C20.145 9.80013 18.8018 11.1433 17.145 11.1433C16.9662 11.1433 16.7891 11.1276 16.6152 11.0965L16.476 11.0683L16.3252 11.0297C15.9836 10.9329 15.7852 10.5774 15.8821 10.2359C15.9733 9.91439 16.2935 9.71975 16.6156 9.77872L16.6835 9.79491C16.7353 9.80934 16.7879 9.82133 16.8411 9.83082C16.9405 9.84855 17.042 9.85756 17.145 9.85756C18.0918 9.85756 18.8593 9.09005 18.8593 8.14328C18.8593 7.1965 18.0918 6.42899 17.145 6.42899C17.0926 6.42899 17.0405 6.43132 16.9889 6.43596C16.6353 6.46771 16.3229 6.20679 16.2912 5.85317C16.2594 5.49955 16.5203 5.18715 16.8739 5.15539C16.9638 5.14733 17.0542 5.14328 17.145 5.14328ZM12.0006 4.28613C13.8941 4.28613 15.4291 5.82116 15.4291 7.7147C15.4291 9.60825 13.8941 11.1433 12.0006 11.1433C10.107 11.1433 8.57201 9.60825 8.57201 7.7147C8.57201 5.82116 10.107 4.28613 12.0006 4.28613ZM12.0006 5.57185C10.8171 5.57185 9.85772 6.53124 9.85772 7.7147C9.85772 8.89817 10.8171 9.85756 12.0006 9.85756C13.184 9.85756 14.1434 8.89817 14.1434 7.7147C14.1434 6.53124 13.184 5.57185 12.0006 5.57185Z" fill="#2688EB"/>
</g>
<defs>
<clipPath id="clip0_2912_66832">
<rect width="24" height="24" fill="white"/>
</clipPath>
</defs>
</svg>
