<svg width="48" height="48" viewBox="0 0 48 48" fill="none" xmlns="http://www.w3.org/2000/svg">
<path d="M42 7H6C4.895 7 4 7.895 4 9V39C4 40.105 4.895 41 6 41H42C43.105 41 44 40.105 44 39V9C44 7.895 43.105 7 42 7Z" fill="url(#paint0_radial_2782_66736)"/>
<path d="M20 18C20 15.791 21.791 14 24 14C26.209 14 28 15.791 28 18C28 20.209 26.209 22 24 22C21.791 22 20 20.209 20 18ZM24 25C20.134 25 17 28.134 17 32V37H31V32C31 28.134 27.866 25 24 25Z" fill="url(#paint1_linear_2782_66736)"/>
<path opacity="0.05" d="M29 33.5V36.5C29 37.328 29.672 38 30.5 38H35.5C36.328 38 37 37.328 37 36.5V33.5C37 32.672 36.328 32 35.5 32H30.5C29.672 32 29 32.672 29 33.5Z" fill="black"/>
<path opacity="0.07" d="M35.5 37.5H30.5C29.948 37.5 29.5 37.052 29.5 36.5V33.5C29.5 32.948 29.948 32.5 30.5 32.5H35.5C36.052 32.5 36.5 32.948 36.5 33.5V36.5C36.5 37.052 36.052 37.5 35.5 37.5Z" fill="black"/>
<path d="M35.5 37H30.5C30.224 37 30 36.776 30 36.5V33.5C30 33.224 30.224 33 30.5 33H35.5C35.776 33 36 33.224 36 33.5V36.5C36 36.776 35.776 37 35.5 37Z" fill="white"/>
<path opacity="0.05" d="M20 33.5V36.5C20 37.328 20.672 38 21.5 38H26.5C27.328 38 28 37.328 28 36.5V33.5C28 32.672 27.328 32 26.5 32H21.5C20.672 32 20 32.672 20 33.5Z" fill="black"/>
<path opacity="0.07" d="M26.5 37.5H21.5C20.948 37.5 20.5 37.052 20.5 36.5V33.5C20.5 32.948 20.948 32.5 21.5 32.5H26.5C27.052 32.5 27.5 32.948 27.5 33.5V36.5C27.5 37.052 27.052 37.5 26.5 37.5Z" fill="black"/>
<path d="M26.5 37H21.5C21.224 37 21 36.776 21 36.5V33.5C21 33.224 21.224 33 21.5 33H26.5C26.776 33 27 33.224 27 33.5V36.5C27 36.776 26.776 37 26.5 37Z" fill="white"/>
<path opacity="0.05" d="M11 33.5V36.5C11 37.328 11.672 38 12.5 38H17.5C18.328 38 19 37.328 19 36.5V33.5C19 32.672 18.328 32 17.5 32H12.5C11.672 32 11 32.672 11 33.5Z" fill="black"/>
<path opacity="0.07" d="M17.5 37.5H12.5C11.948 37.5 11.5 37.052 11.5 36.5V33.5C11.5 32.948 11.948 32.5 12.5 32.5H17.5C18.052 32.5 18.5 32.948 18.5 33.5V36.5C18.5 37.052 18.052 37.5 17.5 37.5Z" fill="black"/>
<path d="M17.5 37H12.5C12.224 37 12 36.776 12 36.5V33.5C12 33.224 12.224 33 12.5 33H17.5C17.776 33 18 33.224 18 33.5V36.5C18 36.776 17.776 37 17.5 37Z" fill="white"/>
<defs>
<radialGradient id="paint0_radial_2782_66736" cx="0" cy="0" r="1" gradientUnits="userSpaceOnUse" gradientTransform="translate(43.956 41.272) scale(48.447 48.447)">
<stop stop-color="#EAAD29"/>
<stop offset="1" stop-color="#F0B63E"/>
</radialGradient>
<linearGradient id="paint1_linear_2782_66736" x1="29" y1="42" x2="21.5" y2="13" gradientUnits="userSpaceOnUse">
<stop stop-color="#C06315"/>
<stop offset="1" stop-color="#B04416"/>
</linearGradient>
</defs>
</svg>
