<?xml version="1.0" encoding="utf-8"?>
<!-- Generator: Adobe Illustrator 26.5.0, SVG Export Plug-In . SVG Version: 6.00 Build 0)  -->
<svg version="1.1" id="Layer_1" xmlns="http://www.w3.org/2000/svg" xmlns:xlink="http://www.w3.org/1999/xlink" x="0px" y="0px"
	 viewBox="0 0 377.88 383.64" style="enable-background:new 0 0 377.88 383.64;" xml:space="preserve">
<style type="text/css">
	.st0{fill:#0077FF;}
</style>
<g>
	<g>
		<path class="st0" d="M191.944,196.235c-0.236,0-0.471-0.09-0.651-0.27c-0.36-0.36-0.36-0.942,0-1.302l6.988-6.988
			c0.36-0.36,0.942-0.36,1.302,0s0.36,0.942,0,1.302l-6.988,6.988C192.415,196.145,192.179,196.235,191.944,196.235z"/>
	</g>
	<g>
		<path class="st0" d="M198.932,196.235c-0.236,0-0.471-0.09-0.651-0.27l-6.988-6.988c-0.36-0.36-0.36-0.942,0-1.302
			s0.942-0.36,1.302,0l6.988,6.988c0.36,0.36,0.36,0.942,0,1.302C199.403,196.145,199.167,196.235,198.932,196.235z"/>
	</g>
</g>
<g>
	<path class="st0" d="M195.402,200.813c-2.647,0-5.278-0.695-6.804-2.077c-0.025-0.023-0.048-0.045-0.071-0.07
		c-2.782-3.072-2.782-10.621,0-13.69c3.141-2.854,10.69-2.853,13.76-0.069c2.852,3.141,2.853,10.689,0.071,13.759
		C200.778,200.101,198.082,200.813,195.402,200.813z M189.988,197.275c2.339,2.056,8.649,2.046,10.945-0.033
		c2.023-2.238,2.022-8.601-0.071-10.911c-2.238-2.026-8.602-2.026-10.911,0.07C187.939,188.627,187.928,194.935,189.988,197.275z"/>
</g>
<g>
</g>
<g>
</g>
<g>
</g>
<g>
</g>
<g>
</g>
<g>
</g>
</svg>
