<?xml version="1.0" encoding="utf-8"?>
<!-- Generator: Adobe Illustrator 26.5.0, SVG Export Plug-In . SVG Version: 6.00 Build 0)  -->
<svg xmlns:xlink="http://www.w3.org/1999/xlink" style="enable-background:new 0 0 377.88 383.64;" id="Layer_1"
	version="1.1"  viewBox="0 0 377.88 383.64" x="0px"
	xmlns="http://www.w3.org/2000/svg" y="0px"
	xml:space="preserve">
<style type="text/css">
	.st0{fill:#4273B8;}
</style>
<g>
	<g>
		<path class="st0" d="M196.693,188.429c0,0.447-0.365,0.812-0.812,0.812h-6.205l1.243,1.242c0.317,0.317,0.317,0.828,0,1.145
			c-0.162,0.154-0.374,0.236-0.577,0.236c-0.211,0-0.414-0.081-0.577-0.236l-2.047-2.055l-1.153-1.145l1.153-1.145l2.047-2.055
			c0.317-0.317,0.828-0.317,1.153,0c0.317,0.317,0.317,0.828,0,1.145l-1.243,1.243h6.205
			C196.328,187.617,196.693,187.983,196.693,188.429z"/>
	</g>
</g>
<g>
	<path class="st0" d="M191.597,197.429c-2.683,0-5.355-0.685-6.862-2.05l-0.057-0.056c-2.744-3.029-2.744-10.761,0-13.788
		c3.085-2.801,10.818-2.803,13.845-0.056c2.859,3.15,2.859,10.753,0.056,13.844C197.03,196.73,194.307,197.429,191.597,197.429z
		 M185.855,194.202c2.467,2.184,9.148,2.176,11.577-0.026c2.155-2.383,2.155-9.109-0.056-11.551
		c-2.385-2.157-9.109-2.157-11.55,0.057C183.679,185.056,183.67,191.736,185.855,194.202z"/>
</g>
<g>
</g>
<g>
</g>
<g>
</g>
<g>
</g>
<g>
</g>
<g>
</g>
</svg>
