<?xml version="1.0" encoding="utf-8"?><!-- Generator: Adobe Illustrator 27.3.1, SVG Export Plug-In . SVG Version: 6.00 Build 0)  -->
<svg version="1.1" id="Layer_1" xmlns="http://www.w3.org/2000/svg"
    xmlns:xlink="http://www.w3.org/1999/xlink" x="0px" y="0px" viewBox="0 0 656 158.4"
    style="enable-background:new 0 0 656 158.4;" xml:space="preserve">
<style type="text/css">
	.st0{fill:#00ADEE;}
	.st1{fill:#4272B7;}
	.st2{fill:url(#SVGID_1_);}
	.st3{opacity:0.33;fill:#404041;enable-background:new    ;}
	.st4{fill:url(#SVGID_00000036222399849836248880000018334983392341807531_);}
	.st5{fill:url(#SVGID_00000049903624500167585430000003780913325813038509_);}
	.st6{fill:url(#SVGID_00000181807777612174165430000016526728873152614280_);}
	.st7{fill:url(#SVGID_00000064325559455913067540000006197411347850673589_);}
	.st8{fill:#5B5C5E;stroke:#5B5C5E;stroke-width:0.5;stroke-miterlimit:10;}
</style>
    <g>
	<g>
		<path class="st0" d="M197,131.5" />
        <path class="st1" d="M254.6,91.5L254.6,91.5L254.6,91.5l-0.1-0.1l-3.2-4.7l0,0l0,0L223,45.1c-6-8.9-12.1-17.7-18.1-26.6
			C197.1,8.5,185.3,1.9,171.8,1c-1-0.1-2-0.1-3-0.1c-1.3,0-2.6,0.1-3.9,0.2c-3.9,0.3-7.7,1.1-11.3,2.4c-3.5,1.2-9.9,3.5-15.7,9.4
			c-3.2,3.3-5.2,6.6-6.3,9.1c-0.1-0.2-0.3-0.4-0.5-0.7c-4.1,6.8-8.8,13.3-13.9,19.4c0.3,0.5,0.6,1,0.8,1.4c-0.5,0.8-1.1,1.6-1.6,2.4
			c-6.6,9.9-12.9,19.1-18.6,27.6c-5.2,7.6-20.7,30.5-15.5,22.9c-2.5,3.7-4.8,7.1-7,10.2c-0.5,2.5-1,4.9-1.6,7.4
			c0.3,2.9,0.5,5.8,0.6,8.8c0.1,1.6,0.1,3.3,0.1,4.9c1.7,3.9,3.3,7.9,4.7,12c0.9-1.4,1.6-2.6,1.6-2.6c0.3-0.6,0.6-1.1,0.8-1.5
			c2,3.9,7,12.1,17.1,17.8c5.5,3.1,10.6,4.3,14.2,4.9h0c2.1,0.3,4.2,0.5,6.3,0.5c1.8,0,3.6-0.1,5.3-0.3c10.5-1.3,19.8-6.5,26.3-14.1
			c6-8.1,11.9-16.1,17.9-24.2l0.3-0.4c7,12.8,12.1,20.1,15.2,24.1c0.5,0.6,1,1.3,1.7,2.1c6.2,7,13.7,9.6,17.1,10.7
			c2.7,0.9,7.6,2.2,13.9,2.2c1.3,0,2.7-0.1,4-0.2c15-1.3,27.8-10.3,34.5-22.9c3.3-6.1,5.2-13.2,5.2-20.6
			C260.5,105.5,258.4,98,254.6,91.5z M137.3,123.5c-0.6,0.8-8.2,10.8-17.9,10.8c-3.3,0-6.4-1-6.4-1c-3-1-5.7-2.7-7.9-4.9l0,0
			l-0.1-0.1c-1.7-1.7-3.1-3.7-4-5.9l0,0c-0.3-0.7-0.6-1.4-0.8-2.1c0,0-0.9-2.9-0.9-6c0-3.3,1.3-8,4.6-12.7l8.8-13l10.3-15.2l4.6-6.7
			c1.2-1.7,2.3-3.4,3.5-5.2c1.2,1.9,2.5,3.7,3.7,5.6l9.5,14.4l0,0l4.2,6.4l7.2,10.9L137.3,123.5z M174.9,72.8l-0.3,0.4l-2.1,2.9
			l0,0.1l0,0c-0.9,1.3-1.7,2.6-2.4,4l-0.3-0.4v0l-9.4-14.3l-13.9-21l-2-3c0,0,0,0,0,0c1.5-2.2,3-4.4,4.4-6.6l0,0
			c0.7-1.1,5.5-8.6,13-10.9c3.2-1,6.5-1,6.5-1c0,0,3.1,0,6.1,0.9c7.4,2.1,12.3,9.2,13.1,10.4l7.6,11.1l8.1,11.9
			C191.8,58.7,181.8,64.4,174.9,72.8z M217.1,134.6c-7.7,0.1-14.9-4.5-18.9-11.8c-5.2-7.8-10.3-15.6-15.5-23.4l9.7-13
			c1-1.5,4-5.4,9.1-7.3c3.1-1.2,6-1.1,6.5-1.1c1.3,0,2.6,0.2,4,0.5c0,0,1.9,0.5,3.7,1.4c2.9,1.4,4.4,3.3,8,7.9
			c1.9,2.5,5.9,7.7,10.2,14.5c0.7,1.1,1.5,2.4,2.3,4.3c0,0,1.6,3.9,1.8,7.7C238.4,121.5,228.7,134.4,217.1,134.6z" />

        <linearGradient id="SVGID_1_" gradientUnits="userSpaceOnUse" x1="172.5608" y1="92.2338"
            x2="240.7561" y2="21.1038" gradientTransform="matrix(1 0 0 -1 0 158.3832)">
			<stop offset="0.4776" style="stop-color:#F7981D" />
            <stop offset="0.5518" style="stop-color:#D39B26" />
            <stop offset="0.7156" style="stop-color:#77A23D" />
            <stop offset="0.8404" style="stop-color:#2DA84F" />
		</linearGradient>
        <path class="st2" d="M254.6,91.5L254.6,91.5L254.6,91.5l-0.1-0.1l-3.2-4.7l0,0l0,0l-6.4-9.5c-6-0.3-12-1.5-18.1-1.5
			c-1.1,0-1.8-0.7-2-1.5c-2,0.4-3.9,0.7-5.9,0.7c-2.5,0.1-5.2-0.2-7.7,0.2c-0.7,0.1-1.8,0.4-2,0.8c-0.2,0.4,0,1.4,0.3,2.2
			c0.8,0.1,1.7,0.1,2.5,0.3c0,0,1.9,0.5,3.7,1.4c2.9,1.4,4.4,3.3,8,7.9c1.9,2.5,5.9,7.7,10.2,14.5c0.7,1.1,1.5,2.4,2.3,4.3
			c0,0,1.6,3.9,1.8,7.7c0.4,7.2-9.3,20.2-20.9,20.3c-7.7,0.1-14.9-4.5-18.9-11.8c-5.2-7.8-10.3-15.6-15.5-23.4l2.5-3.3
			c-2.7-7.5-8.7-12.9-13.2-19.3c-0.7,1.1-1.4,2.2-2,3.4l-0.3-0.4v0l-9.4-14.3l-13.9-21l-1.7-2.6c-1.4,0.7-2.8,1.2-4.2,1.6
			c-0.1,0.2-0.2,0.3-0.2,0.5c-0.5,1-1.1,2-1.7,2.9c-1.5,4.3-4.2,8-7.6,11.1c-0.2,1.7-0.4,3.3-0.9,4.8c0.3-0.4,0.5-0.8,0.8-1.2
			c1.2,1.9,2.5,3.7,3.7,5.6l9.5,14.4l0,0l4.2,6.4l7.2,10.9l-0.8,1.1c2.6,3.1,4.5,6.7,5.9,10.6c0.3,0.9,0.7,1.9,1,2.8
			c2.4,1.8,4.6,4,5.7,6.8c0.4-0.5,0.8-1.1,1.2-1.6l0.3-0.4c7,12.8,12.1,20.1,15.2,24.1c0.5,0.6,1,1.3,1.7,2.1
			c6.2,7,13.7,9.6,17.1,10.7c2.7,0.9,7.6,2.2,13.9,2.2c1.3,0,2.7-0.1,4-0.2c15-1.3,27.8-10.3,34.5-22.9c3.3-6.1,5.2-13.2,5.2-20.6
			C260.5,105.5,258.4,98,254.6,91.5z" />
        <path class="st3" d="M188.3,108c-1.9-2.8-3.7-5.6-5.6-8.4c-4.6,6.2-9.2,12.5-13.8,18.7c1.7,2.9,3.3,5.8,5,8.7
			C178.7,120.6,183.5,114.3,188.3,108z" />
        <path class="st1" d="M192.4,86.4c1-1.5,4-5.4,9.1-7.3c1.3-0.5,2.5-0.7,3.6-0.9c-0.4-1.7-0.2-3.4,0.7-4.8
			c-4.4,3.9-10.3,6.4-17.8,6.4c-2.8,0-5.4-0.4-7.8-1c3.1,3.7,6.4,7.3,9.9,10.7L192.4,86.4z" />

        <linearGradient id="SVGID_00000055699731481626353410000017350876029236872066_"
            gradientUnits="userSpaceOnUse" x1="239.873" y1="9.3178" x2="233.0353" y2="69.5679"
            gradientTransform="matrix(1 0 0 -1 0 158.3832)">
			<stop offset="0.2984" style="stop-color:#32A851" />
            <stop offset="1" style="stop-color:#30A850" />
		</linearGradient>
        <path style="fill:url(#SVGID_00000055699731481626353410000017350876029236872066_);" d="M254.6,91.5L254.6,91.5L254.6,91.5
			l-0.1-0.1l-3.2-4.7l0,0l0,0l-6.4-9.5c-6-0.3-12-1.5-18.1-1.5c-1.1,0-1.8-0.7-2-1.5c-2,0.4-3.9,0.7-5.9,0.7
			c-2.5,0.1-5.2-0.2-7.7,0.2c-0.7,0.1-1.8,0.4-2,0.8c-0.2,0.4,0,1.4,0.3,2.2c0.8,0.1,1.7,0.1,2.5,0.3c0,0,1.9,0.5,3.7,1.4
			c2.9,1.4,4.4,3.3,8,7.9c1.9,2.5,5.9,7.7,10.2,14.5c0.7,1.1,1.5,2.4,2.3,4.3c0,0,1.6,3.9,1.8,7.7c0.4,7.1-9.1,19.8-20.5,20.3
			c1.3,7.6,0.7,15.5-1.7,22.7c0.4,0,0.7,0.1,1,0.1c1.3,0,2.7-0.1,4-0.2c15-1.3,27.8-10.3,34.5-22.9c3.3-6.1,5.2-13.2,5.2-20.6
			C260.5,105.5,258.4,98,254.6,91.5z" />
        <path class="st1" d="M99.1,114.3c0.3-5.9,3.3-10.2,4.6-12.7l8.8-13l10.3-15.2l4.6-6.7c7.2-10.6,14.3-21.1,21.5-31.7l0,0
			c0.7-1.1,5.5-8.6,13-10.9c3.2-1,6.5-1,6.5-1c0,0,8.7,0,39.8,0.1c-1.1-1.6-2.1-3.2-3.2-4.7C197.1,8.5,185.3,1.9,171.8,1
			c-1-0.1-2-0.1-3-0.1c-1.3,0-2.6,0.1-3.9,0.2c-3.9,0.3-7.7,1.1-11.3,2.4c-3.5,1.2-9.9,3.5-15.7,9.4c-3.2,3.3-5.2,6.6-6.3,9.1
			c-0.1-0.2-0.3-0.4-0.5-0.7c-4.1,6.8-8.8,13.3-13.9,19.4c0.3,0.5,0.6,1,0.8,1.4c-0.5,0.8-1.1,1.6-1.6,2.4
			c-6.6,9.9-12.9,19.1-18.6,27.6c-5.2,7.6-20.7,30.5-15.5,22.9c-2.5,3.7-4.8,7.1-7,10.2c-0.5,2.5-1,4.9-1.6,7.4
			c0.3,2.9,0.5,5.8,0.6,8.8c0.1,1.6,0.1,3.3,0.1,4.9c1.7,3.9,3.3,7.9,4.7,12c0.9-1.4,1.6-2.6,1.6-2.6c0.3-0.6,0.6-1.1,0.8-1.5
			c2,3.9,7,12.1,17.1,17.8c0.2,0.1,0.7,0.4,0.7,0.4S99.1,134.1,99.1,114.3z" />

        <linearGradient id="SVGID_00000182492952565950616670000006687196332370737062_"
            gradientUnits="userSpaceOnUse" x1="121.977" y1="10.9968" x2="194.7214" y2="85.2546"
            gradientTransform="matrix(1 0 0 -1 0 158.3832)">
			<stop offset="5.410000e-02" style="stop-color:#4272B7" />
            <stop offset="1" style="stop-color:#2CA94F" />
		</linearGradient>
        <path style="fill:url(#SVGID_00000182492952565950616670000006687196332370737062_);" d="M192.4,86.4c1-1.5,4-5.4,9.1-7.3
			c2.9-1.1,5.3-1.1,6.5-1.1c8.1,0,21.1-0.1,37.3,0c-1.1-1.6-2.2-3.2-3.2-4.8c-2.6-3.2-8.8-9.6-19-13.3c-9.3-3.4-17.3-2.7-19.9-2.4
			c-15.8,1.9-25.6,12.3-28.3,15.4l-0.3,0.4l-2.1,2.9l0,0.1l0,0c-0.9,1.3-1.7,2.6-2.4,4c-4.8,6.2-9.6,12.5-14.4,18.7l-18.3,24.6
			c-0.6,0.8-8.2,10.8-17.9,10.8c-3.3,0-6.4-1-6.4-1c-3-1-5.7-2.7-7.9-4.9l0,0l-0.1-0.1c-1.7-1.7-3.1-3.7-4-5.9l0,0
			c-0.8-1.5-1.2-2.8-1.4-3.7c0,0-0.2-0.8-0.3-4.3c0,0,0,12.9-0.2,37.8c5.3,2.8,10.2,4.1,13.7,4.6h0c2.1,0.3,4.2,0.5,6.3,0.5
			c1.8,0,3.6-0.1,5.3-0.3c10.5-1.3,19.8-6.5,26.3-14.1c6-8.1,11.9-16.1,17.9-24.2c4.7-6.4,9.5-12.7,14.2-19.1L192.4,86.4z" />

        <linearGradient id="SVGID_00000168097497517260444600000012727527001160750771_"
            gradientUnits="userSpaceOnUse" x1="189.5184" y1="136.7907" x2="227.9872" y2="78.1909"
            gradientTransform="matrix(1 0 0 -1 0 158.3832)">
			<stop offset="0.1778" style="stop-color:#4272B7" />
            <stop offset="1" style="stop-color:#2B388F;stop-opacity:0.5" />
		</linearGradient>
        <path style="fill:url(#SVGID_00000168097497517260444600000012727527001160750771_);" d="M223,45.1c-6-8.9-12.1-17.7-18.1-26.6
			c-6.6-8.4-16.1-14.5-27.1-16.6c-0.4,7.6-2.3,14.8-5.9,21.6c0.8,0.1,1.6,0.3,2.5,0.5c7.4,2.1,12.3,9.2,13.1,10.4l7.6,11.1l8.1,11.9
			c4-0.5,11.2-0.7,19.5,2.2c10.5,3.7,16.7,10.4,19.4,13.6C235.7,63.8,229.4,54.4,223,45.1z" />

        <linearGradient id="SVGID_00000140710225292115424890000003305154040266356394_"
            gradientUnits="userSpaceOnUse" x1="31.6691" y1="58.8348" x2="145.8085" y2="122.5096"
            gradientTransform="matrix(1 0 0 -1 0 158.3832)">
			<stop offset="0" style="stop-color:#E62E26" />
            <stop offset="0.145" style="stop-color:#E63326" />
            <stop offset="0.3265" style="stop-color:#E84325" />
            <stop offset="0.4383" style="stop-color:#E95024" />
            <stop offset="0.5941" style="stop-color:#F17B22" />
            <stop offset="0.7697" style="stop-color:#F7971F" />
		</linearGradient>
        <path style="fill:url(#SVGID_00000140710225292115424890000003305154040266356394_);" d="M115,37.3c0.3,0.4,0.6,0.9,0.6,0.9
			c1,1.5,1.8,2.9,2.3,3.8c4.5-6.7,9-13.3,13.6-20c-0.6-1.1-1.4-2.3-2.4-3.7c0,0-0.7-1-1.5-2C120.1,7,110.1,3.9,106.8,2.9
			c0,0-5.5-1.6-11.1-1.9c-0.8,0-1.6-0.1-2.4-0.1c-0.8,0-1.7,0-2.5,0.1c-1.5,0.1-6.4,0.6-10.4,1.8c-8,2.3-17.6,8.7-24.6,17.9
			c-1.2,1.6-2.1,2.9-2.6,3.8l-9.4,13.9L30.1,58.6l-21.7,32l-0.7,1c-4.4,6.7-6.9,14.7-6.9,23.3c0,6.9,1.7,13.5,4.6,19.3
			c6.5,12.8,19.3,21.8,34.4,23.1c1.2,0.1,2.3,0.2,3.5,0.2c13.9,0,26.3-6.7,34-17c1.8-2.4,3.2-4.9,3.2-4.9c0.3-0.6,0.6-1.1,0.8-1.5
			c-1.6-3.1-3.6-7.8-4.5-13.8c-1.3-8.8,0.4-16,1.6-19.9c-8.1,11.9-13.8,20.3-16.4,24.2c-1.6,2.3-5.3,8.1-12.3,10.4
			c-0.9,0.3-3.3,0.9-6.2,0.9c-11.5,0-20.8-9.3-20.8-20.8c0-2.6,0.7-5.3,0.7-5.3c0.9-3.3,2.4-5.7,3.4-7.1l0,0l16.5-24.4l3.8-5.6
			l4.4-6.6l5.4-8l15.3-22.6c0.8-1.4,1.6-2.7,2.7-3.9c4.3-5.1,10.7-8.4,18-8.4c3.8,0,6.7,0.9,7.7,1.3C107.8,26.9,111.8,32.6,115,37.3
			z" />
	</g>
        <g>
		<g>
			<path class="st8" d="M424.3,124.8c0,0.4-0.1,0.7-0.3,1c-0.2,0.3-0.6,0.5-1.1,0.7c-0.5,0.2-1.2,0.3-2,0.4
				c-0.8,0.1-1.8,0.2-3.1,0.2c-1.2,0-2.2-0.1-3-0.2c-0.8-0.1-1.5-0.3-2-0.4c-0.5-0.2-0.8-0.4-1-0.7c-0.2-0.3-0.3-0.6-0.3-1v-84h-0.1
				l-34,84.4c-0.1,0.3-0.4,0.6-0.6,0.9c-0.3,0.2-0.7,0.5-1.2,0.6c-0.5,0.2-1.1,0.3-1.9,0.4c-0.7,0.1-1.6,0.1-2.6,0.1
				c-1,0-1.9,0-2.7-0.1s-1.4-0.2-1.9-0.4c-0.5-0.2-0.9-0.4-1.2-0.6c-0.3-0.2-0.5-0.5-0.6-0.8l-32.5-84.4h-0.1v84
				c0,0.4-0.1,0.7-0.3,1c-0.2,0.3-0.6,0.5-1.1,0.7c-0.5,0.2-1.2,0.3-2,0.4c-0.8,0.1-1.9,0.2-3.1,0.2c-1.2,0-2.3-0.1-3.1-0.2
				c-0.8-0.1-1.5-0.3-2-0.4c-0.5-0.2-0.8-0.4-1-0.7c-0.2-0.3-0.3-0.6-0.3-1V36.1c0-2.1,0.6-3.6,1.7-4.5c1.1-0.9,2.3-1.3,3.7-1.3h7.9
				c1.6,0,3,0.1,4.2,0.4s2.3,0.8,3.2,1.4c0.9,0.6,1.7,1.5,2.3,2.5c0.6,1,1.1,2.2,1.6,3.5l27.6,69.8h0.4l28.7-69.6
				c0.6-1.5,1.2-2.8,1.8-3.8c0.7-1,1.4-1.9,2.2-2.5c0.8-0.6,1.7-1.1,2.6-1.3c1-0.3,2.1-0.4,3.3-0.4h8.3c0.8,0,1.5,0.1,2.2,0.3
				c0.7,0.2,1.3,0.6,1.7,1c0.5,0.5,0.9,1.1,1.2,1.8c0.3,0.7,0.5,1.6,0.5,2.6L424.3,124.8L424.3,124.8z" />
            <path class="st8" d="M505.7,88.4c0,1.9-0.5,3.3-1.5,4.1c-1,0.8-2.1,1.2-3.3,1.2h-44.2c0,3.7,0.4,7.1,1.1,10.1
				c0.7,3,2,5.5,3.7,7.7c1.7,2.1,4,3.8,6.8,4.9c2.8,1.1,6.2,1.7,10.3,1.7c3.2,0,6-0.3,8.5-0.8c2.5-0.5,4.7-1.1,6.5-1.8
				c1.8-0.6,3.3-1.2,4.5-1.8s2.1-0.8,2.7-0.8c0.3,0,0.7,0.1,0.9,0.3c0.3,0.2,0.5,0.4,0.6,0.8c0.1,0.3,0.3,0.8,0.3,1.5
				c0.1,0.6,0.1,1.4,0.1,2.3c0,0.6,0,1.2-0.1,1.7c0,0.5-0.1,0.9-0.2,1.3c-0.1,0.4-0.2,0.7-0.4,1c-0.2,0.3-0.4,0.6-0.7,0.9
				c-0.3,0.3-1.1,0.7-2.4,1.3s-3.1,1.2-5.2,1.8c-2.1,0.6-4.6,1.1-7.4,1.6c-2.8,0.5-5.8,0.7-9,0.7c-5.5,0-10.3-0.8-14.5-2.3
				c-4.1-1.5-7.6-3.8-10.5-6.9s-5-6.8-6.4-11.4c-1.4-4.6-2.2-9.9-2.2-15.9c0-5.8,0.7-10.9,2.2-15.5c1.5-4.6,3.6-8.5,6.4-11.7
				s6.2-5.7,10.2-7.4c4-1.7,8.4-2.6,13.3-2.6c5.3,0,9.8,0.8,13.5,2.5c3.7,1.7,6.7,4,9.1,6.8s4.1,6.2,5.3,10.1
				c1.1,3.9,1.7,8,1.7,12.3L505.7,88.4L505.7,88.4z M493.4,84.8c0.1-6.5-1.3-11.5-4.3-15.2c-3-3.7-7.5-5.5-13.5-5.5
				c-3,0-5.7,0.6-8,1.7c-2.3,1.1-4.2,2.7-5.8,4.5c-1.5,1.9-2.7,4.1-3.6,6.6c-0.9,2.5-1.3,5.1-1.4,7.9H493.4z" />
            <path class="st8" d="M582.2,124.9c0,0.4-0.1,0.7-0.3,1c-0.2,0.3-0.5,0.5-1,0.7c-0.4,0.2-1.1,0.3-1.9,0.4c-0.8,0.1-1.8,0.1-3,0.1
				c-1.2,0-2.3,0-3.1-0.1c-0.8-0.1-1.4-0.2-1.9-0.4c-0.4-0.2-0.8-0.4-1-0.7c-0.2-0.3-0.3-0.6-0.3-1V85.6c0-3.8-0.3-6.9-0.9-9.2
				c-0.6-2.3-1.5-4.3-2.6-6c-1.1-1.7-2.6-3-4.4-3.9c-1.8-0.9-3.9-1.3-6.3-1.3c-3.1,0-6.2,1.1-9.2,3.3c-3.1,2.2-6.3,5.4-9.7,9.6v46.9
				c0,0.4-0.1,0.7-0.3,1c-0.2,0.3-0.5,0.5-1,0.7c-0.4,0.2-1.1,0.3-1.9,0.4c-0.8,0.1-1.8,0.1-3.1,0.1c-1.2,0-2.2,0-3-0.1
				c-0.8-0.1-1.4-0.2-1.9-0.4c-0.5-0.2-0.8-0.4-1-0.7c-0.2-0.3-0.3-0.6-0.3-1V57.8c0-0.4,0.1-0.7,0.2-1c0.1-0.3,0.4-0.5,0.9-0.7
				s1-0.4,1.7-0.4c0.7-0.1,1.6-0.1,2.8-0.1c1.1,0,2,0,2.7,0.1c0.7,0.1,1.3,0.2,1.7,0.4c0.4,0.2,0.7,0.5,0.9,0.7
				c0.2,0.3,0.3,0.6,0.3,1v8.9c3.8-4.2,7.5-7.3,11.3-9.3c3.8-2,7.5-2.9,11.4-2.9c4.5,0,8.2,0.8,11.3,2.3c3.1,1.5,5.5,3.5,7.4,6.1
				c1.9,2.5,3.2,5.5,4.1,8.9c0.8,3.4,1.2,7.5,1.2,12.3L582.2,124.9L582.2,124.9z" />
            <path class="st8" d="M655.2,124.9c0,0.6-0.2,1-0.6,1.3c-0.4,0.3-0.9,0.5-1.6,0.7c-0.7,0.1-1.7,0.2-3.1,0.2
				c-1.3,0-2.3-0.1-3.1-0.2c-0.8-0.1-1.3-0.4-1.7-0.7s-0.5-0.7-0.5-1.3v-6.7c-2.9,3.1-6.2,5.6-9.8,7.3c-3.6,1.7-7.4,2.6-11.4,2.6
				c-3.5,0-6.7-0.5-9.6-1.4c-2.9-0.9-5.3-2.2-7.3-4c-2-1.7-3.6-3.9-4.7-6.4c-1.1-2.5-1.7-5.4-1.7-8.6c0-3.8,0.8-7.1,2.3-9.8
				c1.5-2.8,3.8-5.1,6.6-6.9c2.9-1.8,6.4-3.2,10.6-4.1c4.2-0.9,8.9-1.4,14.1-1.4h9.2v-5.2c0-2.6-0.3-4.9-0.8-6.9
				c-0.5-2-1.4-3.6-2.6-5c-1.2-1.3-2.8-2.3-4.7-3c-1.9-0.7-4.3-1-7.2-1c-3,0-5.8,0.4-8.2,1.1c-2.4,0.7-4.5,1.5-6.3,2.4
				c-1.8,0.9-3.3,1.7-4.5,2.4c-1.2,0.7-2.1,1.1-2.7,1.1c-0.4,0-0.7-0.1-1-0.3c-0.3-0.2-0.6-0.5-0.8-0.9c-0.2-0.4-0.4-0.9-0.5-1.5
				c-0.1-0.6-0.1-1.3-0.1-2c0-1.2,0.1-2.2,0.3-2.9c0.2-0.7,0.6-1.4,1.3-2c0.7-0.6,1.8-1.4,3.5-2.3c1.6-0.9,3.5-1.7,5.7-2.4
				c2.1-0.7,4.5-1.3,7-1.8c2.5-0.5,5.1-0.7,7.7-0.7c4.8,0,8.9,0.5,12.3,1.6c3.4,1.1,6.1,2.7,8.2,4.8c2.1,2.1,3.6,4.7,4.5,7.9
				c0.9,3.1,1.4,6.8,1.4,11L655.2,124.9L655.2,124.9z M642.9,94.3h-10.5c-3.4,0-6.3,0.3-8.8,0.9c-2.5,0.6-4.5,1.4-6.2,2.5
				c-1.6,1.1-2.8,2.5-3.6,4c-0.8,1.6-1.2,3.4-1.2,5.4c0,3.5,1.1,6.2,3.3,8.3c2.2,2.1,5.3,3.1,9.3,3.1c3.2,0,6.2-0.8,9-2.5
				c2.8-1.6,5.7-4.1,8.7-7.5L642.9,94.3L642.9,94.3z" />
		</g>
	</g>
</g>
</svg>
