<?xml version="1.0" encoding="iso-8859-1"?>
<!-- Generator: Adobe Illustrator 27.3.1, SVG Export Plug-In . SVG Version: 6.00 Build 0)  -->
<svg version="1.1" id="Layer_1" xmlns="http://www.w3.org/2000/svg" xmlns:xlink="http://www.w3.org/1999/xlink" x="0px" y="0px"
	 viewBox="0 0 656 158.383" style="enable-background:new 0 0 656 158.383;" xml:space="preserve">
<g>
	<g>
		<g>
			<path style="fill:#5B5C5E;stroke:#5B5C5E;stroke-width:0.5;stroke-miterlimit:10;" d="M424.293,124.795
				c0,0.398-0.103,0.745-0.308,1.043c-0.205,0.299-0.562,0.535-1.074,0.708c-0.513,0.175-1.165,0.323-1.958,0.447
				c-0.793,0.123-1.829,0.187-3.107,0.187c-1.178,0-2.188-0.063-3.032-0.187c-0.845-0.124-1.51-0.272-1.996-0.447
				c-0.486-0.173-0.831-0.409-1.036-0.708c-0.205-0.298-0.307-0.645-0.307-1.043V40.807h-0.148l-33.983,84.36
				c-0.148,0.349-0.36,0.646-0.633,0.895c-0.274,0.249-0.671,0.46-1.192,0.634c-0.522,0.174-1.144,0.298-1.863,0.372
				c-0.721,0.075-1.578,0.112-2.571,0.112c-1.043,0-1.938-0.05-2.683-0.149s-1.367-0.236-1.863-0.409
				c-0.497-0.174-0.883-0.385-1.155-0.634c-0.273-0.248-0.46-0.521-0.559-0.82l-32.493-84.36h-0.074v83.988
				c0,0.398-0.103,0.745-0.308,1.043c-0.205,0.299-0.562,0.535-1.075,0.708c-0.512,0.175-1.177,0.323-1.996,0.447
				c-0.819,0.123-1.868,0.187-3.146,0.187c-1.229,0-2.252-0.063-3.071-0.187c-0.818-0.124-1.471-0.272-1.957-0.447
				c-0.487-0.173-0.819-0.409-0.998-0.708c-0.179-0.298-0.268-0.645-0.268-1.043V36.112c0-2.087,0.555-3.577,1.664-4.472
				c1.11-0.894,2.346-1.341,3.709-1.341h7.87c1.614,0,3.026,0.149,4.237,0.447s2.27,0.771,3.178,1.416
				c0.908,0.646,1.666,1.466,2.271,2.459c0.605,0.995,1.135,2.162,1.589,3.503l27.574,69.828h0.372l28.692-69.604
				c0.554-1.491,1.159-2.757,1.816-3.801c0.656-1.043,1.376-1.875,2.158-2.497c0.783-0.621,1.652-1.068,2.612-1.341
				c0.958-0.272,2.069-0.41,3.331-0.41h8.253c0.757,0,1.477,0.112,2.157,0.335c0.682,0.224,1.263,0.572,1.742,1.043
				c0.479,0.473,0.871,1.069,1.174,1.789c0.303,0.721,0.454,1.602,0.454,2.646L424.293,124.795L424.293,124.795z"/>
			<path style="fill:#5B5C5E;stroke:#5B5C5E;stroke-width:0.5;stroke-miterlimit:10;" d="M505.747,88.428
				c0,1.938-0.486,3.315-1.46,4.136c-0.974,0.819-2.083,1.229-3.331,1.229h-44.171c0,3.727,0.374,7.08,1.123,10.061
				c0.749,2.981,1.997,5.541,3.745,7.676c1.746,2.137,4.018,3.776,6.813,4.919c2.796,1.144,6.216,1.714,10.26,1.714
				c3.195,0,6.04-0.261,8.537-0.782c2.496-0.521,4.655-1.105,6.478-1.752c1.822-0.645,3.319-1.229,4.493-1.751
				s2.061-0.782,2.66-0.782c0.349,0,0.66,0.087,0.935,0.261c0.275,0.175,0.487,0.436,0.637,0.782
				c0.149,0.349,0.263,0.833,0.337,1.453c0.074,0.622,0.113,1.379,0.113,2.273c0,0.646-0.026,1.205-0.075,1.677
				c-0.05,0.473-0.111,0.895-0.186,1.267c-0.075,0.373-0.199,0.708-0.373,1.006c-0.175,0.299-0.398,0.585-0.671,0.857
				c-0.273,0.273-1.08,0.721-2.422,1.342s-3.081,1.229-5.217,1.825c-2.137,0.597-4.608,1.13-7.415,1.603
				c-2.808,0.472-5.801,0.708-8.98,0.708c-5.515,0-10.347-0.771-14.494-2.311c-4.149-1.539-7.639-3.825-10.471-6.855
				s-4.969-6.831-6.409-11.402c-1.441-4.57-2.161-9.887-2.161-15.948c0-5.763,0.745-10.942,2.235-15.538
				c1.491-4.595,3.64-8.496,6.446-11.7s6.197-5.664,10.173-7.378c3.975-1.714,8.421-2.571,13.34-2.571
				c5.266,0,9.75,0.846,13.451,2.534c3.701,1.689,6.744,3.962,9.129,6.819s4.137,6.211,5.254,10.061
				c1.118,3.851,1.677,7.962,1.677,12.333L505.747,88.428L505.747,88.428z M493.377,84.776c0.148-6.458-1.289-11.526-4.312-15.203
				c-3.023-3.676-7.511-5.515-13.458-5.515c-3.05,0-5.725,0.572-8.023,1.714c-2.3,1.144-4.225,2.659-5.774,4.546
				c-1.55,1.889-2.749,4.087-3.599,6.596c-0.851,2.509-1.324,5.13-1.425,7.862H493.377z"/>
			<path style="fill:#5B5C5E;stroke:#5B5C5E;stroke-width:0.5;stroke-miterlimit:10;" d="M582.209,124.87
				c0,0.398-0.101,0.733-0.299,1.006c-0.198,0.274-0.521,0.511-0.969,0.708c-0.447,0.198-1.068,0.348-1.862,0.447
				c-0.796,0.1-1.789,0.149-2.981,0.149c-1.242,0-2.262-0.05-3.056-0.149c-0.795-0.1-1.416-0.249-1.863-0.447
				c-0.446-0.197-0.771-0.434-0.969-0.708c-0.198-0.272-0.298-0.607-0.298-1.006V85.597c0-3.826-0.298-6.905-0.895-9.241
				c-0.596-2.334-1.466-4.347-2.608-6.037c-1.143-1.688-2.621-2.981-4.434-3.875c-1.814-0.895-3.912-1.341-6.297-1.341
				c-3.081,0-6.161,1.093-9.241,3.279c-3.081,2.187-6.311,5.392-9.688,9.614v46.875c0,0.398-0.1,0.733-0.298,1.006
				c-0.199,0.274-0.521,0.511-0.969,0.708c-0.447,0.198-1.069,0.348-1.863,0.447c-0.795,0.1-1.814,0.149-3.056,0.149
				c-1.192,0-2.187-0.05-2.98-0.149c-0.796-0.1-1.429-0.249-1.9-0.447c-0.473-0.197-0.795-0.434-0.969-0.708
				c-0.175-0.272-0.261-0.607-0.261-1.006V57.8c0-0.397,0.074-0.732,0.224-1.006c0.148-0.272,0.447-0.521,0.894-0.745
				s1.019-0.373,1.715-0.447c0.694-0.074,1.613-0.112,2.757-0.112c1.093,0,1.999,0.038,2.721,0.112
				c0.719,0.075,1.278,0.224,1.677,0.447c0.396,0.224,0.682,0.473,0.856,0.745c0.174,0.274,0.261,0.609,0.261,1.006v8.868
				c3.775-4.222,7.539-7.315,11.291-9.278c3.75-1.962,7.538-2.944,11.364-2.944c4.472,0,8.235,0.758,11.29,2.273
				c3.056,1.516,5.526,3.54,7.416,6.073c1.887,2.534,3.241,5.503,4.062,8.906c0.819,3.404,1.229,7.49,1.229,12.259v40.913H582.209z"
				/>
			<path style="fill:#5B5C5E;stroke:#5B5C5E;stroke-width:0.5;stroke-miterlimit:10;" d="M655.166,124.945
				c0,0.596-0.199,1.043-0.596,1.341c-0.398,0.298-0.944,0.521-1.64,0.671c-0.696,0.149-1.714,0.224-3.056,0.224
				c-1.292,0-2.323-0.074-3.093-0.224c-0.771-0.149-1.329-0.373-1.677-0.671s-0.521-0.745-0.521-1.341v-6.708
				c-2.932,3.131-6.198,5.565-9.8,7.304c-3.603,1.738-7.415,2.608-11.439,2.608c-3.528,0-6.72-0.46-9.576-1.379
				c-2.857-0.919-5.291-2.247-7.304-3.987c-2.012-1.738-3.577-3.875-4.694-6.408c-1.118-2.534-1.677-5.415-1.677-8.646
				c0-3.774,0.77-7.054,2.31-9.837c1.54-2.781,3.751-5.092,6.633-6.931c2.881-1.837,6.409-3.216,10.582-4.136
				c4.174-0.919,8.869-1.379,14.085-1.379h9.241v-5.217c0-2.583-0.273-4.868-0.819-6.856c-0.548-1.986-1.429-3.639-2.646-4.956
				c-1.219-1.316-2.795-2.311-4.732-2.981c-1.938-0.671-4.322-1.006-7.154-1.006c-3.031,0-5.751,0.361-8.16,1.081
				c-2.411,0.721-4.521,1.516-6.335,2.385c-1.814,0.87-3.329,1.665-4.546,2.385c-1.218,0.721-2.124,1.081-2.72,1.081
				c-0.398,0-0.745-0.099-1.044-0.298c-0.298-0.198-0.559-0.496-0.782-0.895c-0.224-0.397-0.386-0.906-0.484-1.528
				c-0.1-0.621-0.149-1.304-0.149-2.049c0-1.241,0.087-2.223,0.262-2.943c0.173-0.72,0.596-1.403,1.267-2.05
				c0.671-0.645,1.825-1.403,3.465-2.273c1.64-0.869,3.527-1.664,5.664-2.385c2.136-0.719,4.472-1.315,7.005-1.789
				c2.534-0.471,5.093-0.708,7.677-0.708c4.818,0,8.917,0.547,12.296,1.64c3.378,1.093,6.111,2.696,8.197,4.807
				c2.087,2.112,3.602,4.732,4.546,7.862c0.943,3.13,1.416,6.782,1.416,10.955v45.237H655.166z M642.945,94.315h-10.508
				c-3.379,0-6.31,0.287-8.794,0.857c-2.484,0.571-4.546,1.416-6.186,2.533c-1.639,1.118-2.845,2.46-3.614,4.024
				c-0.771,1.565-1.155,3.366-1.155,5.403c0,3.479,1.105,6.248,3.316,8.31c2.21,2.062,5.303,3.093,9.278,3.093
				c3.229,0,6.223-0.82,8.98-2.46c2.757-1.64,5.65-4.147,8.682-7.526V94.315H642.945z"/>
		</g>
	</g>
	<g>
		
			<linearGradient id="SVGID_1_" gradientUnits="userSpaceOnUse" x1="172.5608" y1="92.2338" x2="240.7561" y2="21.1038" gradientTransform="matrix(1 0 0 -1 0 158.3832)">
			<stop  offset="0.4776" style="stop-color:#F7981D"/>
			<stop  offset="0.5518" style="stop-color:#D39B26"/>
			<stop  offset="0.7156" style="stop-color:#77A23D"/>
			<stop  offset="0.8404" style="stop-color:#2DA84F"/>
		</linearGradient>
		<path style="fill:url(#SVGID_1_);" d="M254.583,91.529l-0.014-0.015l-0.029-0.043l-0.043-0.072l-3.156-4.663l-0.029-0.043
			l-0.014-0.014l-6.448-9.484c-6.022-0.347-12.01-1.494-18.056-1.522c-1.119-0.005-1.765-0.711-1.984-1.546
			c-1.954,0.372-3.915,0.697-5.891,0.749c-2.533,0.067-5.161-0.217-7.667,0.24c-0.739,0.135-1.789,0.425-2.037,0.837
			c-0.244,0.406,0.017,1.37,0.297,2.165c0.834,0.083,1.667,0.12,2.505,0.326c0,0,1.93,0.472,3.717,1.352
			c2.863,1.41,4.445,3.252,8.048,7.916c1.941,2.514,5.882,7.686,10.184,14.542c0.667,1.064,1.481,2.387,2.254,4.281
			c0,0,1.607,3.936,1.808,7.747c0.381,7.238-9.294,20.162-20.903,20.286c-7.655,0.082-14.911-4.542-18.937-11.75
			c-5.155-7.8-10.311-15.6-15.466-23.4l2.482-3.347c-2.663-7.47-8.681-12.936-13.171-19.336c-0.726,1.109-1.427,2.232-2.037,3.415
			l-0.287-0.402v-0.015l-9.426-14.275L146.41,44.469l-2.089-3.17c-1.389,0.692-2.422,1.822-3.824,2.129
			c-0.082,0.164-0.163,0.338-0.247,0.499c-0.522,1.003-1.107,1.965-1.732,2.899c-1.486,4.3-4.171,8.043-7.555,11.07
			c-0.158,1.678-0.426,3.308-0.911,4.828c0.275-0.406,0.55-0.812,0.825-1.219c1.237,1.872,2.474,3.744,3.711,5.616l9.541,14.433
			l0.014,0.015l4.189,6.356l7.216,10.918l-0.84,1.132c2.566,3.113,4.536,6.701,5.876,10.64c0.319,0.938,0.683,1.856,1.036,2.78
			c2.448,1.781,4.592,3.98,5.723,6.755c0.401-0.541,0.802-1.082,1.203-1.623l0.33-0.43c7.005,12.772,12.099,20.057,15.243,24.139
			c0.472,0.613,0.993,1.274,1.719,2.086c6.242,6.989,13.693,9.572,17.143,10.722c2.712,0.904,7.645,2.249,13.871,2.249
			c1.349,0,2.669-0.057,3.974-0.186c14.992-1.349,27.79-10.272,34.547-22.926c3.3-6.14,5.165-13.156,5.165-20.616
			C260.537,105.532,258.371,97.999,254.583,91.529z"/>
		<path style="opacity:0.33;fill:#404041;enable-background:new    ;" d="M188.287,107.956c-1.856-2.788-3.711-5.576-5.567-8.364
			c-4.615,6.226-9.23,12.453-13.845,18.679c1.655,2.897,3.309,5.795,4.964,8.692C178.655,120.628,183.471,114.292,188.287,107.956z"
			/>
		
			<linearGradient id="SVGID_00000009591739756651765230000011524817693495832493_" gradientUnits="userSpaceOnUse" x1="239.873" y1="9.3178" x2="233.0353" y2="69.5679" gradientTransform="matrix(1 0 0 -1 0 158.3832)">
			<stop  offset="0.2984" style="stop-color:#32A851"/>
			<stop  offset="1" style="stop-color:#30A850"/>
		</linearGradient>
		<path style="fill:url(#SVGID_00000009591739756651765230000011524817693495832493_);" d="M254.583,91.529l-0.014-0.015
			l-0.029-0.043l-0.043-0.072l-3.156-4.663l-0.029-0.043l-0.014-0.014l-6.448-9.484c-6.022-0.347-12.01-1.494-18.056-1.522
			c-1.119-0.005-1.765-0.711-1.984-1.546c-1.954,0.372-3.915,0.697-5.891,0.749c-2.533,0.067-5.161-0.217-7.667,0.24
			c-0.739,0.135-1.789,0.425-2.037,0.837c-0.244,0.406,0.017,1.37,0.297,2.165c0.834,0.083,1.667,0.12,2.505,0.326
			c0,0,1.93,0.472,3.717,1.352c2.863,1.41,4.445,3.252,8.048,7.916c1.941,2.514,5.882,7.686,10.184,14.542
			c0.667,1.064,1.481,2.387,2.254,4.281c0,0,1.607,3.936,1.808,7.747c0.377,7.146-9.053,19.81-20.464,20.252
			c1.275,7.559,0.693,15.484-1.742,22.707c0.354,0.009,0.667,0.052,1.03,0.052c1.349,0,2.669-0.057,3.974-0.186
			c14.992-1.349,27.79-10.272,34.547-22.926c3.3-6.14,5.165-13.156,5.165-20.616C260.537,105.532,258.371,97.999,254.583,91.529z"/>
		<path style="fill:#4272B7;" d="M99.136,114.255c0.324-5.923,3.34-10.205,4.62-12.726l8.78-12.97l10.286-15.179l4.562-6.714
			c7.159-10.573,14.318-21.147,21.477-31.721l0.014-0.014c0.707-1.129,5.496-8.572,12.993-10.866
			c3.172-0.971,6.473-0.971,6.476-0.971c-0.002,0,1.364-0.018,3.645,0.329c4.999,0.759,15.959-0.268,36.116-0.207
			c-1.059-1.58-2.118-3.161-3.177-4.741c-7.833-9.942-19.669-16.585-33.084-17.46c-1.004-0.072-2.023-0.1-3.041-0.1
			c-1.32,0-2.625,0.057-3.917,0.172c-3.922,0.328-7.703,1.148-11.279,2.4c-3.48,1.217-9.934,3.457-15.738,9.417
			c-3.205,3.29-5.165,6.638-6.34,9.058c-0.107-0.167-0.29-0.446-0.46-0.71c-4.11,6.791-8.752,13.273-13.888,19.369
			c0.299,0.497,0.58,0.972,0.79,1.355c-0.54,0.798-1.081,1.597-1.621,2.396c-6.647,9.89-12.886,19.131-18.612,27.586
			c-5.168,7.631-20.71,30.498-15.532,22.874c-2.51,3.688-4.834,7.1-6.956,10.215c-0.468,2.473-1.016,4.924-1.63,7.353
			c0.284,2.914,0.514,5.841,0.646,8.79c0.074,1.64,0.062,3.267,0.072,4.897c1.686,3.94,3.277,7.931,4.668,12.019
			c0.928-1.439,1.573-2.589,1.573-2.59c0.336-0.61,0.603-1.132,0.793-1.514c2.02,3.862,7.047,12.137,17.057,17.755
			c0.186,0.104,0.703,0.368,0.703,0.368S99.136,134.145,99.136,114.255z"/>
		
			<linearGradient id="SVGID_00000061438060000481879900000003896822193692907174_" gradientUnits="userSpaceOnUse" x1="121.977" y1="10.9968" x2="194.7214" y2="85.2546" gradientTransform="matrix(1 0 0 -1 0 158.3832)">
			<stop  offset="0.0541" style="stop-color:#4272B7"/>
			<stop  offset="1" style="stop-color:#2CA94F"/>
		</linearGradient>
		<path style="fill:url(#SVGID_00000061438060000481879900000003896822193692907174_);" d="M192.39,86.379
			c1.014-1.495,3.967-5.443,9.125-7.331c2.882-1.055,5.315-1.113,6.533-1.119c8.146-0.045,21.069-0.095,37.266,0
			c-1.076-1.597-2.151-3.194-3.227-4.792c-2.637-3.152-8.785-9.634-18.97-13.338c-9.338-3.397-17.277-2.716-19.939-2.4
			c-15.848,1.881-25.629,12.337-28.306,15.408l-0.287,0.373l-2.123,2.855l-0.043,0.057l-0.029,0.043
			c-0.875,1.291-1.679,2.625-2.396,4.017c-4.816,6.231-9.631,12.463-14.447,18.694l-18.264,24.619
			c-0.594,0.795-8.241,10.771-17.948,10.803c-3.299,0.011-6.445-1.043-6.445-1.043c-3.037-1.015-5.749-2.726-7.945-4.939
			l-0.028-0.043l-0.057-0.057c-1.679-1.693-3.056-3.687-4.017-5.896l-0.014-0.014c-0.843-1.475-1.208-2.754-1.384-3.676
			c0-0.001-0.153-0.803-0.309-4.344c0,0,0,12.884-0.158,37.771c5.251,2.843,10.181,4.08,13.687,4.623h0.014
			c2.052,0.316,4.161,0.473,6.298,0.473c1.793,0,3.572-0.115,5.308-0.344c10.473-1.32,19.755-6.499,26.341-14.074
			c5.973-8.058,11.946-16.116,17.919-24.174c4.725-6.37,9.45-12.74,14.175-19.11L192.39,86.379z"/>
		
			<linearGradient id="SVGID_00000011745072585129944550000002100038881069493918_" gradientUnits="userSpaceOnUse" x1="189.5184" y1="136.7907" x2="227.9872" y2="78.1909" gradientTransform="matrix(1 0 0 -1 0 158.3832)">
			<stop  offset="0.1778" style="stop-color:#4272B7"/>
			<stop  offset="1" style="stop-color:#2B4A94"/>
		</linearGradient>
		<path style="fill:url(#SVGID_00000011745072585129944550000002100038881069493918_);" d="M223.02,45.089
			c-6.03-8.871-12.061-17.742-18.091-26.613c-6.636-8.423-16.15-14.461-27.057-16.648c-0.366,7.634-2.328,14.832-5.883,21.595
			c0.782,0.125,1.619,0.292,2.453,0.532c7.4,2.125,12.288,9.249,13.07,10.417l7.589,11.147l8.077,11.879
			c3.972-0.452,11.228-0.738,19.54,2.181c10.476,3.679,16.747,10.385,19.368,13.558C235.732,63.787,229.376,54.438,223.02,45.089z"
			/>
		
			<linearGradient id="SVGID_00000005966568180132155170000007429458414368051613_" gradientUnits="userSpaceOnUse" x1="31.6691" y1="58.8348" x2="145.8085" y2="122.5096" gradientTransform="matrix(1 0 0 -1 0 158.3832)">
			<stop  offset="0" style="stop-color:#E62E26"/>
			<stop  offset="0.145" style="stop-color:#E63326"/>
			<stop  offset="0.3265" style="stop-color:#E84325"/>
			<stop  offset="0.4383" style="stop-color:#E95024"/>
			<stop  offset="0.5941" style="stop-color:#F17B22"/>
			<stop  offset="0.7697" style="stop-color:#F7971F"/>
		</linearGradient>
		<path style="fill:url(#SVGID_00000005966568180132155170000007429458414368051613_);" d="M115.039,37.263
			c0.301,0.43,0.598,0.874,0.598,0.874c1.035,1.546,1.808,2.879,2.335,3.839c4.519-6.671,9.038-13.342,13.558-20.014
			c-0.607-1.057-1.399-2.338-2.401-3.745c0,0-0.716-1.018-1.475-1.959c-7.505-9.291-17.574-12.356-20.822-13.344
			c0,0-5.457-1.635-11.068-1.941c-0.789-0.043-1.578-0.057-2.367-0.057c-0.846,0-1.679,0.029-2.511,0.072
			c-1.53,0.079-6.394,0.603-10.446,1.786c-8.001,2.336-17.636,8.665-24.582,17.941c-1.184,1.581-2.064,2.946-2.618,3.845
			l-9.411,13.873L30.142,58.648L8.478,90.627L7.775,91.66c-4.39,6.686-6.944,14.691-6.944,23.285c0,6.944,1.664,13.515,4.634,19.311
			c6.528,12.797,19.339,21.836,34.375,23.055c1.162,0.115,2.324,0.158,3.515,0.158c13.931,0,26.283-6.7,34.045-17.03
			c1.776-2.363,3.181-4.921,3.181-4.921c0.336-0.61,0.603-1.132,0.793-1.515c-1.631-3.147-3.586-7.831-4.476-13.779
			c-1.317-8.799,0.352-15.981,1.599-19.941c-8.09,11.879-13.825,20.278-16.419,24.187c-1.555,2.343-5.317,8.115-12.298,10.404
			c-0.941,0.309-3.256,0.944-6.209,0.944c-11.477,0-20.788-9.311-20.788-20.789c0-2.635,0.681-5.29,0.682-5.29
			c0.872-3.306,2.387-5.699,3.422-7.091l0.029-0.043l16.527-24.404l3.802-5.595l4.447-6.571l5.438-8.049l15.308-22.582
			c0.76-1.406,1.65-2.726,2.668-3.945c4.29-5.107,10.746-8.364,17.962-8.364c3.848,0,6.727,0.943,7.72,1.297
			C107.771,26.887,111.756,32.576,115.039,37.263z"/>
	</g>
</g>
</svg>
