<svg width="48" height="48" viewBox="0 0 48 48" fill="none" xmlns="http://www.w3.org/2000/svg">
<g clip-path="url(#clip0_2613_66253)">
<path d="M24 46.25C36.2883 46.25 46.25 36.2883 46.25 24C46.25 11.7117 36.2883 1.75 24 1.75C11.7117 1.75 1.75 11.7117 1.75 24C1.75 36.2883 11.7117 46.25 24 46.25Z" fill="#0170CC" stroke="white" stroke-width="2.5"/>
<path opacity="0.35" d="M24 35.25C17.7868 35.25 12.75 30.2132 12.75 24C12.75 17.7868 17.7868 12.75 24 12.75C30.2132 12.75 35.25 17.7868 35.25 24C35.25 30.2132 30.2132 35.25 24 35.25Z" fill="white"/>
<path d="M17.75 22.75H21.5C22.19 22.75 22.75 22.19 22.75 21.5V17.75C22.75 17.06 23.31 16.5 24 16.5C24.69 16.5 25.25 17.06 25.25 17.75V21.5C25.25 22.19 25.81 22.75 26.5 22.75H30.25C30.94 22.75 31.5 23.31 31.5 24C31.5 24.69 30.94 25.25 30.25 25.25H26.5C25.81 25.25 25.25 25.81 25.25 26.5V30.25C25.25 30.94 24.69 31.5 24 31.5C23.31 31.5 22.75 30.94 22.75 30.25V26.5C22.75 25.81 22.19 25.25 21.5 25.25H17.75C17.06 25.25 16.5 24.69 16.5 24C16.5 23.31 17.06 22.75 17.75 22.75Z" fill="white"/>
</g>
<defs>
<clipPath id="clip0_2613_66253">
<rect width="48" height="48" fill="white"/>
</clipPath>
</defs>
</svg>
