<svg width="28" height="28" viewBox="0 0 28 28" fill="none" xmlns="http://www.w3.org/2000/svg">
<path opacity="0.35" d="M5 19.4545V6.72727C5 5.22091 6.19279 4 7.66447 4H14.4737L19.2105 9.45455V19.4545C19.2105 20.9609 18.0177 22.1818 16.546 22.1818H7.66447C6.19279 22.1818 5 20.9609 5 19.4545Z" fill="#51B8F5"/>
<path d="M14.4727 7.63636V4L19.2095 9.45454H16.0516C15.1793 9.45454 14.4727 8.64091 14.4727 7.63636Z" fill="#0074C7"/>
<path d="M22.2642 15.2351C21.559 14.6933 20.57 14.8527 19.9561 15.5083L14.9834 20.8192C14.6569 21.1688 14.4727 21.6424 14.4727 22.1368V23.2833C14.4727 23.6785 14.7728 23.9991 15.1429 23.9991H16.2163C16.6785 23.9991 17.1227 23.8033 17.4493 23.4536L22.4876 18.0727C23.2371 17.2722 23.1629 15.9263 22.2642 15.2351Z" fill="#0074C7"/>
</svg>
