<svg width="28" height="28" viewBox="0 0 28 28" fill="none" xmlns="http://www.w3.org/2000/svg">
<path opacity="0.35" d="M5.25 19.4545V6.72727C5.25 5.35346 6.33632 4.25 7.66447 4.25H14.3597L18.9605 9.54795V19.4545C18.9605 20.8284 17.8742 21.9318 16.546 21.9318H7.66447C6.33632 21.9318 5.25 20.8284 5.25 19.4545Z" stroke="#707070" stroke-width="0.5"/>
<path d="M14.4727 7.63636V4L19.2095 9.45454H16.0516C15.1793 9.45454 14.4727 8.64091 14.4727 7.63636Z" fill="#707070"/>
<path d="M22.2642 15.2351C21.559 14.6933 20.57 14.8527 19.9561 15.5083L14.9834 20.8192C14.6569 21.1688 14.4727 21.6424 14.4727 22.1368V23.2833C14.4727 23.6785 14.7728 23.9991 15.1429 23.9991H16.2163C16.6785 23.9991 17.1227 23.8033 17.4493 23.4536L22.4876 18.0727C23.2371 17.2722 23.1629 15.9263 22.2642 15.2351Z" fill="#707070"/>
</svg>
