<?xml version="1.0" encoding="utf-8"?>
<!-- Generator: Adobe Illustrator 26.5.0, SVG Export Plug-In . SVG Version: 6.00 Build 0)  -->
<svg version="1.1" id="Layer_1" xmlns="http://www.w3.org/2000/svg" xmlns:xlink="http://www.w3.org/1999/xlink" x="0px" y="0px"
	 viewBox="0 0 216.11 216.11" style="enable-background:new 0 0 216.11 216.11;" xml:space="preserve">
<style type="text/css">
	.st0{fill:#4273B8;}
</style>
<g>
	<g>
		<g>
			<path class="st0" d="M168.684,108.067c0,5.346-4.376,9.724-9.724,9.724H84.669l14.878,14.876c3.792,3.794,3.792,9.919,0,13.712
				c-1.945,1.847-4.473,2.82-6.904,2.82c-2.528,0-4.959-0.973-6.904-2.82l-24.504-24.6l-13.808-13.712l13.808-13.712l24.504-24.6
				c3.792-3.794,9.919-3.794,13.808,0c3.792,3.794,3.792,9.919,0,13.708l-14.878,14.88h74.291
				C164.308,98.343,168.684,102.721,168.684,108.067z"/>
		</g>
	</g>
	<g>
		<path class="st0" d="M107.446,215.828c-32.135,0-64.098-8.205-82.141-24.547c-0.237-0.218-0.465-0.437-0.684-0.674
			c-32.856-36.275-32.856-128.842,0-165.079c36.94-33.54,129.517-33.559,165.763-0.665c34.214,37.709,34.214,128.729,0.674,165.744
			C172.504,207.443,139.894,215.828,107.446,215.828z M38.714,177.189c29.514,26.143,109.509,26.048,138.604-0.323
			c25.801-28.536,25.801-109.043-0.674-138.282c-28.555-25.82-109.062-25.829-138.282,0.684
			C12.657,67.68,12.552,147.656,38.714,177.189z"/>
	</g>
</g>
</svg>
