<svg width="24" height="25" viewBox="0 0 24 25" fill="none" xmlns="http://www.w3.org/2000/svg">
<path fill-rule="evenodd" clip-rule="evenodd" d="M10.7153 3.16699H13.2847C13.55 3.16699 13.7453 3.16699 13.9347 3.18699C14.8247 3.28385 15.6437 3.71806 16.2233 4.40033C16.3467 4.54499 16.4567 4.70699 16.6053 4.92699L16.6287 4.96033L16.6967 5.06033C16.7647 5.16033 16.7813 5.18499 16.7967 5.20566C17.0047 5.47899 17.322 5.64699 17.6647 5.66566C17.69 5.66699 17.7207 5.66699 17.8413 5.66699H17.8813C18.1447 5.66699 18.3293 5.66699 18.4927 5.68033C19.3934 5.75723 20.2379 6.14997 20.8771 6.78919C21.5164 7.4284 21.9091 8.27295 21.986 9.17366C22 9.33766 22 9.52233 22 9.78566V12.7703C22 13.9523 22 14.891 21.938 15.6477C21.8747 16.4217 21.7427 17.079 21.4367 17.679C20.9413 18.6512 20.1509 19.4416 19.1787 19.937C18.5787 20.2437 17.9213 20.375 17.1473 20.4383C16.3907 20.5003 15.4527 20.5003 14.27 20.5003H9.73C8.54733 20.5003 7.60933 20.5003 6.85267 20.4383C6.07867 20.375 5.42133 20.243 4.82133 19.937C3.84912 19.4416 3.05869 18.6512 2.56333 17.679C2.25667 17.079 2.12533 16.4217 2.062 15.6477C2 14.891 2 13.9523 2 12.7703V9.78566C2 9.52233 2 9.33766 2.01333 9.17433C2.09024 8.27362 2.48298 7.42907 3.12219 6.78985C3.76141 6.15064 4.60596 5.75789 5.50667 5.68099C5.67067 5.66699 5.85533 5.66699 6.11867 5.66699H6.15867C6.28 5.66699 6.31 5.66699 6.33533 5.66566C6.50476 5.65671 6.6702 5.61092 6.82011 5.53147C6.97002 5.45202 7.1008 5.34084 7.20333 5.20566C7.21867 5.18566 7.23533 5.16033 7.30333 5.06033L7.37133 4.96033L7.394 4.92699C7.54333 4.70699 7.65333 4.54499 7.77667 4.40033C8.3563 3.71806 9.17534 3.28385 10.0653 3.18699C10.2547 3.16699 10.45 3.16699 10.7153 3.16699ZM10.7567 4.83366C10.4327 4.83366 10.3333 4.83499 10.2453 4.84433C9.779 4.89488 9.34978 5.12225 9.046 5.47966C8.98867 5.54699 8.93267 5.62899 8.75 5.89699L8.67267 6.01099C8.62706 6.07952 8.57971 6.14688 8.53067 6.21299C8.28169 6.54111 7.96416 6.811 7.60021 7.00385C7.23627 7.1967 6.83465 7.30789 6.42333 7.32966C6.348 7.33366 6.27133 7.33366 6.17667 7.33366H6.15867C5.83933 7.33366 5.732 7.33433 5.64867 7.34166C5.13974 7.38522 4.66256 7.60718 4.30138 7.96837C3.94019 8.32955 3.71823 8.80673 3.67467 9.31566C3.668 9.39899 3.66667 9.50633 3.66667 9.82566V12.7337C3.66667 13.9603 3.66733 14.831 3.72267 15.5117C3.778 16.183 3.882 16.5963 4.048 16.9223C4.3836 17.5811 4.9192 18.1167 5.578 18.4523C5.90467 18.619 6.31733 18.7223 6.98867 18.7777C7.66867 18.833 8.53933 18.8337 9.76667 18.8337H14.2333C15.46 18.8337 16.3307 18.833 17.0113 18.7777C17.6827 18.7223 18.096 18.6183 18.4227 18.4523C19.0812 18.1166 19.6166 17.581 19.952 16.9223C20.1187 16.5957 20.222 16.183 20.2773 15.5117C20.3327 14.8317 20.3333 13.961 20.3333 12.7337V9.82566C20.3333 9.50633 20.3327 9.39899 20.3253 9.31633C20.2819 8.80717 20.0599 8.32975 19.6986 7.96842C19.3372 7.60709 18.8598 7.38509 18.3507 7.34166C18.268 7.33499 18.1607 7.33366 17.8413 7.33366H17.8233C17.7287 7.33366 17.652 7.33366 17.5767 7.32966C17.1655 7.3078 16.764 7.19656 16.4002 7.00371C16.0363 6.81086 15.7189 6.54103 15.47 6.21299C15.4207 6.14692 15.3731 6.07956 15.3273 6.01099L15.25 5.89699C15.068 5.62899 15.0113 5.54699 14.9533 5.47966C14.6497 5.1224 14.2208 4.89504 13.7547 4.84433C13.6667 4.83499 13.5673 4.83366 13.2433 4.83366H10.7567Z" fill="#6D7885"/>
<path fill-rule="evenodd" clip-rule="evenodd" d="M10.422 9.66488C10.8861 9.38664 11.4249 9.22727 12.0007 9.22727C13.6261 9.22727 14.9647 10.5 15.1393 12.1364H14.5124C14.3532 12.1364 14.2607 12.3225 14.3534 12.4564L15.3328 13.8701C15.4109 13.9827 15.5729 13.9827 15.6509 13.8701L16.6304 12.4564C16.7231 12.3225 16.6306 12.1364 16.4713 12.1364H15.8446C15.6673 10.0976 14.014 8.5 12.0007 8.5C11.2982 8.5 10.6386 8.6948 10.0706 9.03535C9.90284 9.13591 9.84551 9.35836 9.94255 9.5322C10.0396 9.70604 10.2542 9.76544 10.422 9.66488ZM8.15674 12.8636H7.52997C7.37073 12.8636 7.27819 12.6775 7.37092 12.5436L8.35037 11.1299C8.42842 11.0173 8.59043 11.0173 8.66847 11.1299L9.64793 12.5436C9.74065 12.6775 9.64812 12.8636 9.48888 12.8636H8.86203C9.03658 14.5 10.3752 15.7727 12.0007 15.7727C12.5822 15.7727 13.1261 15.6101 13.5934 15.3267C13.7606 15.2252 13.9755 15.2835 14.0734 15.4568C14.1713 15.6301 14.1151 15.8529 13.9478 15.9543C13.376 16.3013 12.7102 16.5 12.0007 16.5C9.98731 16.5 8.33402 14.9024 8.15674 12.8636Z" fill="#6D7885"/>
</svg>
