<svg width="65" height="26" viewBox="0 0 65 26" fill="none" xmlns="http://www.w3.org/2000/svg">
<path d="M60 0.808594H5C2.23858 0.808594 0 3.04717 0 5.80859V15.8086C0 18.57 2.23858 20.8086 5 20.8086H60C62.7614 20.8086 65 18.57 65 15.8086V5.80859C65 3.04717 62.7614 0.808594 60 0.808594Z" fill="#EAEAEA"/>
<path d="M0 5.8086C0 3.04717 2.23858 0.808594 5 0.808594H51L56 20.8086H5C2.23858 20.8086 0 18.57 0 15.8086V5.8086Z" fill="#1A93E6"/>
<path d="M42.1189 12.4184C40.6676 10.1019 41.3458 7.0492 43.6414 5.56504L50.9984 0.808594L56.002 20.8086L54.4665 21.9524C52.1247 23.6967 48.7927 23.0716 47.2425 20.597L42.1189 12.4184Z" fill="#0170CC"/>
<path d="M9.34181 10.2478H11.3648C11.4418 11.0388 11.2668 11.6758 10.8258 12.1588C10.3848 12.6418 9.83181 12.8798 9.15281 12.8798C8.45981 12.8798 7.87181 12.6418 7.37481 12.1658C6.87781 11.6898 6.63281 11.0878 6.63281 10.3598C6.63281 9.63884 6.88481 9.03684 7.38181 8.56084C7.88581 8.07784 8.47381 7.83984 9.15281 7.83984C9.78981 7.83984 10.3288 8.03584 10.7838 8.42084L10.3148 8.95284C9.98581 8.69384 9.61481 8.56784 9.20181 8.56784C8.71881 8.56784 8.29881 8.73584 7.94881 9.07884C7.60581 9.42184 7.43081 9.84884 7.43081 10.3598C7.43081 10.8778 7.59881 11.3048 7.93481 11.6478C8.27081 11.9838 8.68381 12.1518 9.16681 12.1518C9.97181 12.1518 10.5248 11.7458 10.6578 10.8988H9.34181V10.2478ZM12.9858 10.6958V12.0958H15.2048V12.8098H12.2158V7.90984H15.1418V8.62384H12.9858V9.99584H14.6448V10.6958H12.9858ZM15.9064 7.90984H19.2804V8.62384H17.9784V12.8098H17.2084V8.62384H15.9064V7.90984ZM25.5079 11.7458L25.9769 12.2848C25.5219 12.6838 24.9759 12.8798 24.3249 12.8798C23.6459 12.8798 23.0579 12.6418 22.5539 12.1658C22.0499 11.6828 21.7979 11.0808 21.7979 10.3598C21.7979 9.63884 22.0499 9.03684 22.5539 8.56084C23.0579 8.07784 23.6459 7.83984 24.3249 7.83984C24.9619 7.83984 25.5009 8.03584 25.9559 8.42084L25.4869 8.95284C25.1579 8.69384 24.7869 8.56784 24.3739 8.56784C23.8909 8.56784 23.4709 8.73584 23.1209 9.07884C22.7709 9.42184 22.5959 9.84884 22.5959 10.3598C22.5959 10.8708 22.7709 11.2978 23.1209 11.6408C23.4709 11.9838 23.8909 12.1518 24.3739 12.1518C24.8009 12.1518 25.1789 12.0188 25.5079 11.7458ZM27.3892 8.55384C27.8862 8.07784 28.4812 7.83984 29.1602 7.83984C29.8392 7.83984 30.4342 8.07784 30.9312 8.55384C31.4282 9.02984 31.6802 9.63184 31.6802 10.3598C31.6802 11.0878 31.4282 11.6898 30.9312 12.1658C30.4342 12.6418 29.8392 12.8798 29.1602 12.8798C28.4812 12.8798 27.8862 12.6418 27.3892 12.1658C26.8922 11.6898 26.6402 11.0878 26.6402 10.3598C26.6402 9.63184 26.8922 9.02984 27.3892 8.55384ZM27.9492 11.6478C28.2922 11.9838 28.6912 12.1518 29.1602 12.1518C29.6292 12.1518 30.0282 11.9838 30.3712 11.6478C30.7142 11.3048 30.8822 10.8778 30.8822 10.3598C30.8822 9.84184 30.7142 9.41484 30.3712 9.07884C30.0282 8.73584 29.6292 8.56784 29.1602 8.56784C28.6912 8.56784 28.2922 8.73584 27.9492 9.07884C27.6062 9.41484 27.4382 9.84184 27.4382 10.3598C27.4382 10.8778 27.6062 11.3048 27.9492 11.6478ZM32.5172 7.90984H34.0992C34.8062 7.90984 35.3942 8.14784 35.8632 8.61684C36.3392 9.08584 36.5772 9.66684 36.5772 10.3458C36.5772 11.0388 36.3392 11.6198 35.8632 12.0958C35.3942 12.5718 34.8062 12.8098 34.0992 12.8098H32.5172V7.90984ZM33.2872 12.0818H34.0922C34.6172 12.0818 35.0302 11.9138 35.3312 11.5848C35.6392 11.2558 35.7932 10.8428 35.7932 10.3458C35.7932 9.86284 35.6392 9.45684 35.3312 9.12784C35.0232 8.79884 34.6102 8.63784 34.0922 8.63784H33.2872V12.0818ZM38.15 10.6958V12.0958H40.369V12.8098H37.38V7.90984H40.306V8.62384H38.15V9.99584H39.809V10.6958H38.15Z" fill="white"/>
</svg>
