<svg width="28" height="28" viewBox="0 0 28 28" fill="none" xmlns="http://www.w3.org/2000/svg">
<path opacity="0.35" d="M12.2464 4.62493L5.78349 8.21508C4.8373 8.74085 4.25 9.73765 4.25 10.8209V20.7685C4.25 22.4153 5.5847 23.75 7.23149 23.75H20.1575C21.8043 23.75 23.139 22.4153 23.139 20.7685V10.8209C23.139 9.73868 22.5516 8.74083 21.6055 8.21508L15.1425 4.6249M12.2464 4.62493C12.2464 4.62492 12.2463 4.62494 12.2464 4.62493ZM12.2464 4.62493C13.1468 4.12506 14.2421 4.12503 15.1425 4.6249M15.1425 4.6249C15.1425 4.62491 15.1424 4.62489 15.1425 4.6249Z" stroke="#707070" stroke-width="0.5"/>
<path d="M16.9278 24.0001H10.4648V17.5371C10.4648 16.3468 11.4288 15.3828 12.6191 15.3828H14.7734C15.9637 15.3828 16.9278 16.3468 16.9278 17.5371V24.0001Z" fill="#707070"/>
</svg>
