<svg width="32" height="32" viewBox="0 0 32 32" fill="none" xmlns="http://www.w3.org/2000/svg">
<path fill-rule="evenodd" clip-rule="evenodd" d="M17.9865 5.72391C20.2787 3.43187 23.9948 3.43187 26.2868 5.72391C28.5788 8.01595 28.5788 11.7321 26.2868 14.0241L24.8581 15.4529C24.3893 15.9217 23.6292 15.9217 23.1603 15.4529C22.6915 14.984 22.6915 14.2238 23.1603 13.755L24.5891 12.3264C25.9435 10.972 25.9435 8.77607 24.5891 7.42169C23.2347 6.0673 21.0388 6.0673 19.6844 7.42169L14.9683 12.1377C13.6139 13.4921 13.6139 15.688 14.9683 17.0424C15.4372 17.5112 15.4372 18.2713 14.9683 18.7402C14.4995 19.209 13.7393 19.209 13.2706 18.7402C10.9785 16.4481 10.9785 12.732 13.2706 10.44L17.9865 5.72391ZM17.0433 13.2696C17.5121 12.8008 18.2723 12.8008 18.7412 13.2696C21.0332 15.5616 21.0332 19.2777 18.7412 21.5698L14.0251 26.2858C11.7331 28.5778 8.01693 28.5778 5.72489 26.2858C3.43285 23.9938 3.43285 20.2777 5.72489 17.9856L7.22062 16.4898C7.68945 16.021 8.44957 16.021 8.9184 16.4898C9.38722 16.9588 9.38722 17.7188 8.9184 18.1877L7.42266 19.6834C6.06828 21.0378 6.06828 23.2337 7.42266 24.5881C8.77705 25.9425 10.973 25.9425 12.3273 24.5881L17.0433 19.8721C18.3977 18.5177 18.3977 16.3217 17.0433 14.9673C16.5745 14.4985 16.5745 13.7384 17.0433 13.2696Z" fill="#2688EB"/>
</svg>
