<svg width="29" height="28" viewBox="0 0 29 28" fill="none" xmlns="http://www.w3.org/2000/svg">
<path opacity="0.35" d="M22.8879 20.4942H5.2981C3.63393 20.4942 2.25 19.0201 2.25 17.1561V7.58804C2.25 5.72407 3.63393 4.25 5.2981 4.25H22.8879C24.5521 4.25 25.936 5.72407 25.936 7.58804V17.1561C25.936 19.0201 24.5521 20.4942 22.8879 20.4942Z" stroke="#707070" stroke-width="0.5"/>
<path d="M17.8927 24H10.2958C9.39727 24 8.66797 23.2707 8.66797 22.372C8.66797 21.4734 9.39727 20.7441 10.2958 20.7441H17.8927C18.7913 20.7441 19.5206 21.4734 19.5206 22.372C19.5206 23.2707 18.7913 24 17.8927 24Z" fill="#707070"/>
</svg>
