<?xml version="1.0" encoding="utf-8"?>
<!-- Generator: Adobe Illustrator 26.5.0, SVG Export Plug-In . SVG Version: 6.00 Build 0)  -->
<svg version="1.1" id="Layer_1" xmlns="http://www.w3.org/2000/svg" xmlns:xlink="http://www.w3.org/1999/xlink" x="0px" y="0px"
	 viewBox="0 0 1762.56 1080" style="enable-background:new 0 0 1762.56 1080;" xml:space="preserve">
<style type="text/css">
	.st0{fill:#404041;stroke:#404041;stroke-width:0.5;stroke-miterlimit:10;}
	.st1{fill:#4372B8;}
	.st2{fill:#33A852;}
	.st3{fill:#E52E25;}
	.st4{fill:#F89820;}
	.st5{fill:#E52E25;stroke:#E52E25;stroke-width:0.5;stroke-miterlimit:10;}
</style>
<g>
	<g>
		<path class="st0" d="M907.438,547.229c0,0.154-0.008,0.283-0.023,0.389c-0.016,0.104-0.04,0.191-0.075,0.266
			s-0.077,0.127-0.127,0.162c-0.051,0.035-0.11,0.053-0.18,0.053h-6.627c-0.178,0-0.346-0.061-0.504-0.18s-0.237-0.33-0.237-0.631
			v-13.878c0-0.062,0.016-0.116,0.047-0.162c0.03-0.047,0.085-0.083,0.162-0.11s0.182-0.05,0.312-0.069s0.29-0.029,0.475-0.029
			c0.193,0,0.354,0.01,0.481,0.029c0.127,0.02,0.229,0.042,0.307,0.069s0.131,0.063,0.162,0.11c0.031,0.046,0.047,0.101,0.047,0.162
			v12.962h5.375c0.069,0,0.129,0.018,0.18,0.053c0.05,0.033,0.092,0.084,0.127,0.15c0.035,0.064,0.06,0.152,0.075,0.26
			C907.43,546.943,907.438,547.074,907.438,547.229z"/>
		<path class="st0" d="M911.631,547.797c0,0.061-0.016,0.115-0.047,0.162c-0.031,0.045-0.085,0.082-0.162,0.109
			s-0.18,0.051-0.307,0.07c-0.128,0.018-0.288,0.027-0.481,0.027c-0.185,0-0.344-0.01-0.475-0.027
			c-0.131-0.02-0.235-0.043-0.312-0.07s-0.132-0.064-0.162-0.109c-0.031-0.047-0.047-0.102-0.047-0.162v-14.388
			c0-0.062,0.018-0.116,0.053-0.162c0.034-0.047,0.093-0.083,0.174-0.11s0.185-0.05,0.312-0.069c0.127-0.02,0.279-0.029,0.457-0.029
			c0.193,0,0.354,0.01,0.481,0.029c0.127,0.02,0.229,0.042,0.307,0.069s0.131,0.063,0.162,0.11c0.031,0.046,0.047,0.101,0.047,0.162
			V547.797z"/>
		<path class="st0" d="M921.674,547.75c-0.03,0.084-0.073,0.154-0.127,0.209c-0.055,0.053-0.13,0.096-0.227,0.127
			s-0.22,0.053-0.37,0.062c-0.15,0.012-0.338,0.018-0.562,0.018c-0.171,0-0.319-0.002-0.446-0.006
			c-0.128-0.004-0.237-0.014-0.33-0.027c-0.093-0.016-0.172-0.033-0.237-0.053c-0.066-0.02-0.122-0.045-0.168-0.076
			c-0.047-0.029-0.083-0.066-0.11-0.109s-0.052-0.094-0.075-0.156l-4.9-13.924c-0.062-0.17-0.095-0.307-0.099-0.411
			s0.029-0.184,0.099-0.237c0.069-0.055,0.182-0.089,0.336-0.104s0.363-0.023,0.626-0.023c0.216,0,0.388,0.006,0.516,0.018
			c0.127,0.012,0.226,0.033,0.295,0.063c0.069,0.031,0.122,0.071,0.156,0.122c0.035,0.05,0.067,0.113,0.099,0.19l4.298,12.616h0.012
			l4.182-12.592c0.023-0.085,0.05-0.154,0.081-0.208c0.031-0.055,0.085-0.097,0.162-0.128c0.077-0.03,0.186-0.052,0.324-0.063
			c0.14-0.012,0.324-0.018,0.557-0.018c0.239,0,0.429,0.01,0.567,0.029s0.233,0.056,0.283,0.109c0.051,0.055,0.07,0.134,0.059,0.238
			c-0.012,0.104-0.049,0.241-0.11,0.411L921.674,547.75z"/>
		<path class="st0" d="M937.417,547.275c0,0.139-0.008,0.26-0.023,0.363c-0.016,0.105-0.042,0.191-0.081,0.262
			c-0.038,0.07-0.083,0.119-0.133,0.15c-0.051,0.031-0.106,0.047-0.168,0.047h-7.194c-0.178,0-0.346-0.061-0.504-0.18
			s-0.237-0.33-0.237-0.631v-13.369c0-0.302,0.079-0.512,0.237-0.632c0.158-0.119,0.326-0.18,0.504-0.18h7.113
			c0.062,0,0.117,0.016,0.168,0.047c0.05,0.03,0.091,0.081,0.121,0.15c0.031,0.069,0.057,0.156,0.076,0.261
			c0.019,0.104,0.028,0.233,0.028,0.388c0,0.14-0.01,0.261-0.028,0.365c-0.02,0.104-0.045,0.189-0.076,0.255
			c-0.03,0.065-0.071,0.114-0.121,0.145c-0.051,0.031-0.106,0.047-0.168,0.047h-5.861v4.703h5.027c0.062,0,0.117,0.017,0.168,0.052
			c0.05,0.035,0.093,0.083,0.127,0.145c0.035,0.062,0.06,0.147,0.075,0.255c0.016,0.109,0.023,0.236,0.023,0.382
			c0,0.139-0.008,0.26-0.023,0.359s-0.04,0.182-0.075,0.244c-0.034,0.061-0.077,0.105-0.127,0.133
			c-0.051,0.027-0.106,0.039-0.168,0.039h-5.027v5.365h5.942c0.062,0,0.117,0.016,0.168,0.045c0.05,0.031,0.095,0.08,0.133,0.145
			c0.039,0.066,0.065,0.152,0.081,0.256S937.417,547.121,937.417,547.275z"/>
	</g>
</g>
<g>
	<path class="st1" d="M881.618,521.771c-0.501-0.396-0.998-0.801-1.489-1.215C880.618,520.97,881.117,521.372,881.618,521.771z"/>
	<path class="st1" d="M878.631,519.248c-0.105-0.095-0.21-0.192-0.315-0.287C878.421,519.057,878.526,519.153,878.631,519.248z"/>
	<path class="st1" d="M876.86,517.572c-0.191-0.189-0.384-0.376-0.573-0.567C876.476,517.195,876.668,517.384,876.86,517.572z"/>
	<path class="st1" d="M883.049,519.179c-0.352-0.284-0.705-0.568-1.05-0.86C882.346,518.611,882.697,518.896,883.049,519.179z"/>
	<path class="st1" d="M872.709,520.474c-0.003,0.003-0.006,0.007-0.009,0.01c0.491,0.495,0.977,0.995,1.485,1.474
		c1.643,1.55,3.36,2.998,5.12,4.343C876.978,524.508,874.774,522.56,872.709,520.474z"/>
	<path class="st1" d="M880.363,527.092c-0.218-0.161-0.441-0.314-0.657-0.477C879.924,526.778,880.145,526.932,880.363,527.092z"/>
	<path class="st2" d="M866.881,475.151c-0.001,0.458,0.02,0.918,0.031,1.377h0.003C866.903,476.069,866.883,475.612,866.881,475.151
		z"/>
	<path class="st1" d="M954.891,432.159c-0.044-0.037-0.089-0.072-0.133-0.109c0.044,0.037,0.087,0.075,0.13,0.112
		C954.889,432.162,954.89,432.16,954.891,432.159z"/>
	<path class="st2" d="M885.363,429.414c0.11-0.102,0.183-0.227,0.255-0.351c-2.223,1.591-4.352,3.347-6.364,5.278
		c-11.204,10.758-17.375,25.233-17.375,40.759c0,0.014,0.001,0.028,0.001,0.043c0.048-15.412,6.344-30.136,17.554-40.803
		C881.292,432.57,883.282,430.917,885.363,429.414z"/>
	<path class="st2" d="M889.602,432.392c9.04-6.123,19.752-9.197,30.931-8.748c9.9,0.403,19.133,3.708,26.88,9.06
		c-1.694-1.84-2.146-4.448-1.316-6.717c-7.577-4.33-16.208-6.966-25.361-7.339c-10.737-0.428-21.081,2.093-30.142,7.231
		C891.437,428.043,891.09,430.533,889.602,432.392z"/>
	<path class="st1" d="M953.712,431.193c-0.752-0.608-1.516-1.203-2.298-1.773c0.012,0.01,0.016,0.024,0.028,0.034
		C952.211,430.009,952.965,430.594,953.712,431.193z"/>
	<path class="st1" d="M870.886,518.566c-0.467-0.511-0.919-1.034-1.37-1.56C869.967,517.532,870.419,518.055,870.886,518.566z"/>
	<path class="st1" d="M957.051,423.756c0.135,0.101,0.267,0.21,0.401,0.312C957.318,423.965,957.186,423.859,957.051,423.756z"/>
	<path class="st1" d="M959.143,432.05c-0.23-0.217-0.467-0.426-0.7-0.64c0.493,0.453,0.976,0.917,1.454,1.387
		C959.646,432.548,959.401,432.294,959.143,432.05z"/>
	<path class="st1" d="M868.88,516.262c-0.382-0.459-0.753-0.929-1.122-1.398C868.126,515.333,868.498,515.802,868.88,516.262z"/>
	<path class="st1" d="M864.953,511.019c-0.135-0.201-0.269-0.403-0.402-0.604C864.684,510.617,864.818,510.818,864.953,511.019z"/>
	<path class="st1" d="M866.903,513.759c-0.27-0.358-0.532-0.722-0.795-1.086C866.37,513.038,866.634,513.4,866.903,513.759z"/>
	<path class="st1" d="M954.691,428.242c0.151,0.117,0.298,0.238,0.448,0.357C954.989,428.481,954.841,428.359,954.691,428.242z"/>
	<path class="st1" d="M956.631,429.817c0.505,0.428,1.005,0.861,1.496,1.305C957.634,430.677,957.135,430.242,956.631,429.817z"/>
	<path class="st1" d="M859.033,478.302c0.189,3.82,0.755,7.551,1.656,11.16c-1.136-4.609-1.721-9.397-1.727-14.289
		C858.959,476.213,858.982,477.256,859.033,478.302z"/>
	<path class="st1" d="M875.286,515.962c-0.281-0.295-0.561-0.591-0.834-0.89C874.726,515.374,875.007,515.667,875.286,515.962z"/>
	<path class="st1" d="M861.379,491.996c-0.106-0.36-0.198-0.726-0.297-1.089C861.182,491.269,861.272,491.636,861.379,491.996z"/>
	<path class="st1" d="M872.982,513.399c-0.047-0.056-0.095-0.111-0.142-0.167C872.887,513.288,872.935,513.343,872.982,513.399z"/>
	<path class="st1" d="M872.68,520.465c0.003-0.003,0.007-0.007,0.01-0.01c-0.414-0.418-0.819-0.844-1.222-1.272
		C871.871,519.611,872.265,520.047,872.68,520.465z"/>
	<path class="st1" d="M858.205,452.847c0.804,0.342,1.617,0.665,2.443,0.949c0.655,0.226,1.322,0.432,2.002,0.569
		c0.004-0.012,0.01-0.023,0.014-0.035c-0.509-0.099-1.012-0.232-1.505-0.39c-0.797-0.255-1.58-0.553-2.355-0.87
		c-0.254-0.104-0.501-0.224-0.754-0.333c3.419-9.161,8.896-17.529,16.195-24.39c2.372-2.236,4.901-4.281,7.516-6.079
		c2.447-1.104,5.285-0.583,7.196,1.185c9.683-5.543,20.762-8.243,32.257-7.708c9.55,0.443,18.558,3.227,26.465,7.774
		c1.921-1.848,4.837-2.389,7.326-1.239c0.467,0.322,0.927,0.66,1.389,0.998c-9.931-7.34-21.978-11.925-34.947-12.527
		c-17.805-0.841-34.692,5.475-47.545,17.745c-12.86,12.276-19.942,28.827-19.942,46.603c0,0.022,0.002,0.044,0.002,0.066
		c0.023-7.73,1.434-15.299,4.077-22.394C858.095,452.796,858.149,452.824,858.205,452.847z"/>
	<path class="st1" d="M954.908,432.174c-0.001,0.001-0.002,0.002-0.003,0.003c0.049,0.042,0.098,0.084,0.147,0.126
		C955.003,432.262,954.957,432.216,954.908,432.174z"/>
	<path class="st1" d="M916.033,527.422c8.783,0.352,17.352-0.896,25.404-3.597h-44.686
		C902.867,525.896,909.337,527.149,916.033,527.422z"/>
	<path class="st1" d="M944.96,534.007v12.7c0,2.709-2.204,4.913-4.913,4.913h-43.347c-2.709,0-4.912-2.204-4.912-4.913v-12.7
		c0-0.048,0.013-0.092,0.014-0.14c-1.593-0.733-3.154-1.527-4.676-2.385c-0.213,0.807-0.338,1.651-0.338,2.524v12.7
		c0,5.466,4.446,9.913,9.912,9.913h43.347c5.466,0,9.913-4.447,9.913-9.913v-12.7c0-0.822-0.112-1.616-0.301-2.38
		c-1.534,0.856-3.107,1.631-4.701,2.355C944.958,533.991,944.96,533.999,944.96,534.007z"/>
	<path class="st1" d="M901.33,529.095c-3.186-1.026-6.252-2.332-9.174-3.887c-0.964,0.5-1.835,1.152-2.583,1.926
		c1.609,0.905,3.263,1.734,4.956,2.489c0.657-0.327,1.387-0.528,2.17-0.528H901.33z"/>
	<path class="st1" d="M944.716,525.268c-2.91,1.539-5.937,2.827-9.067,3.827h4.398c0.828,0,1.596,0.225,2.281,0.588
		c1.679-0.74,3.328-1.552,4.935-2.45C946.527,526.449,945.671,525.78,944.716,525.268z"/>
	<path class="st1" d="M953.712,431.193c0.35,0.283,0.702,0.565,1.046,0.857C954.412,431.759,954.063,431.475,953.712,431.193z"/>
	<path class="st2" d="M953.799,433.36c-0.24,0.275-0.478,0.551-0.716,0.827c-0.238,0.275-0.475,0.551-0.715,0.824
		c-0.234,0.267-0.47,0.533-0.709,0.795c-0.025,0.028-0.052,0.054-0.078,0.082c-1.332-1.132-2.727-2.189-4.168-3.185
		c0.021,0.023,0.035,0.049,0.057,0.072c1.631,1.113,3.215,2.344,4.734,3.669c-0.203-0.178-0.398-0.365-0.604-0.54
		c0.203-0.22,0.405-0.443,0.603-0.668c0.24-0.271,0.477-0.545,0.713-0.819c0.238-0.276,0.476-0.552,0.714-0.827
		c0.233-0.269,0.468-0.536,0.706-0.801c0.186-0.207,0.377-0.411,0.569-0.613c-0.006-0.005-0.011-0.01-0.017-0.015
		c-0.128,0.135-0.259,0.269-0.384,0.406C954.265,432.83,954.031,433.094,953.799,433.36z"/>
	<path class="st1" d="M958.127,431.122c0.106,0.095,0.21,0.192,0.316,0.288C958.337,431.314,958.232,431.218,958.127,431.122z"/>
	<path class="st1" d="M969.845,473.818c-0.012-0.497-0.011-0.992-0.037-1.49c-0.287-5.489-1.467-10.763-3.387-15.684
		c2.092,5.413,3.258,11.198,3.421,17.174H969.845z"/>
	<path class="st1" d="M964.049,429.896c0.003-0.003,0.006-0.006,0.009-0.01c-0.491-0.495-0.977-0.995-1.485-1.475
		c-1.643-1.55-3.36-2.998-5.121-4.344C959.78,425.862,961.984,427.81,964.049,429.896z"/>
	<path class="st1" d="M955.139,428.599c0.502,0.396,1,0.802,1.492,1.218C956.141,429.402,955.642,428.999,955.139,428.599z"/>
	<path class="st1" d="M956.395,423.279c0.218,0.161,0.441,0.314,0.657,0.477C956.834,423.593,956.613,423.438,956.395,423.279z"/>
	<path class="st1" d="M959.897,432.797c0.192,0.19,0.386,0.378,0.576,0.57C960.282,433.176,960.09,432.986,959.897,432.797z"/>
	<path class="st2" d="M947.413,432.704c1.441,0.995,2.836,2.053,4.168,3.185c0.026-0.028,0.052-0.054,0.078-0.082
		c0.24-0.262,0.476-0.528,0.709-0.795c0.24-0.274,0.477-0.549,0.715-0.824c0.238-0.276,0.476-0.552,0.716-0.827
		c0.232-0.266,0.467-0.531,0.705-0.792c0.126-0.137,0.256-0.271,0.384-0.406c-0.044-0.037-0.087-0.075-0.13-0.112
		c-0.344-0.292-0.695-0.573-1.046-0.857c-0.746-0.599-1.501-1.184-2.27-1.739c-0.012-0.01-0.016-0.024-0.028-0.034
		c-1.704-1.241-3.481-2.384-5.317-3.433C945.267,428.256,945.719,430.864,947.413,432.704z"/>
	<path class="st1" d="M947.68,423.52c2.45,1.409,4.79,2.991,7.011,4.722c0.15,0.116,0.298,0.239,0.448,0.357
		c0.503,0.4,1.003,0.803,1.492,1.218c0.504,0.425,1.003,0.86,1.496,1.305c0.106,0.096,0.211,0.192,0.316,0.288
		c0.233,0.213,0.47,0.422,0.7,0.64c0.259,0.244,0.503,0.498,0.754,0.747c0.193,0.189,0.385,0.378,0.576,0.57
		c0.101,0.102,0.206,0.202,0.307,0.304c0.368-0.51,0.755-1.007,1.162-1.486c0.5-0.588,1.023-1.157,1.555-1.716
		c0.183-0.192,0.369-0.382,0.553-0.573c-2.066-2.086-4.269-4.034-6.597-5.828c-0.134-0.103-0.266-0.211-0.401-0.312
		c-0.216-0.163-0.439-0.316-0.657-0.477c-0.461-0.337-0.922-0.676-1.389-0.998C952.517,421.131,949.601,421.672,947.68,423.52z"/>
	<path class="st1" d="M883.049,519.179c0.751,0.607,1.514,1.202,2.295,1.771c-0.011-0.01-0.016-0.024-0.028-0.034
		C884.548,520.362,883.794,519.778,883.049,519.179z"/>
	<path class="st2" d="M902.118,524.095c-4.568-1.547-8.86-3.725-12.774-6.429c1.694,1.84,2.146,4.448,1.316,6.718
		c0.494,0.282,0.993,0.556,1.496,0.824c1.363-0.707,2.906-1.113,4.544-1.113H902.118z"/>
	<path class="st1" d="M881.867,518.211c0.043,0.037,0.089,0.071,0.132,0.108c-0.043-0.037-0.086-0.074-0.129-0.111
		C881.869,518.209,881.868,518.21,881.867,518.211z"/>
	<path class="st3" d="M947.155,517.978c-3.844,2.604-7.988,4.655-12.346,6.117h5.237c1.688,0,3.276,0.426,4.669,1.173
		c0.484-0.256,0.971-0.506,1.448-0.776C945.32,522.328,945.668,519.837,947.155,517.978z"/>
	<path class="st2" d="M889.345,517.667c-1.441-0.995-2.836-2.053-4.168-3.185c-0.025,0.028-0.052,0.054-0.078,0.082
		c-0.24,0.262-0.475,0.528-0.709,0.795c-0.24,0.274-0.477,0.549-0.715,0.824c-0.238,0.276-0.476,0.552-0.716,0.827
		c-0.232,0.266-0.467,0.531-0.705,0.792c-0.126,0.138-0.256,0.271-0.385,0.406c0.043,0.037,0.086,0.074,0.129,0.111
		c0.345,0.293,0.698,0.576,1.05,0.86c0.745,0.598,1.499,1.183,2.267,1.737c0.012,0.01,0.016,0.024,0.028,0.034
		c1.704,1.241,3.481,2.384,5.317,3.434C891.491,522.115,891.038,519.507,889.345,517.667z"/>
	<path class="st1" d="M934.81,524.095c-5.89,1.976-12.16,2.889-18.585,2.631c-4.899-0.199-9.632-1.116-14.106-2.631h-5.418
		c-1.638,0-3.181,0.406-4.544,1.113c2.921,1.555,5.988,2.861,9.174,3.887h34.319c3.13-1,6.157-2.289,9.067-3.827
		c-1.392-0.747-2.981-1.173-4.669-1.173H934.81z"/>
	<path class="st1" d="M882.067,522.128c-0.151-0.118-0.299-0.239-0.448-0.357C881.768,521.889,881.916,522.011,882.067,522.128z"/>
	<path class="st1" d="M880.129,520.555c-0.505-0.429-1.007-0.862-1.498-1.307C879.125,519.693,879.624,520.129,880.129,520.555z"/>
	<path class="st1" d="M854.039,478.55c0.579,11.668,4.385,22.576,10.512,31.865c-6.811-10.395-10.576-22.666-10.589-35.249
		C853.958,476.29,853.983,477.419,854.039,478.55z"/>
	<path class="st1" d="M879.707,526.615c-0.135-0.102-0.267-0.21-0.402-0.313C879.44,526.405,879.572,526.512,879.707,526.615z"/>
	<path class="st1" d="M871.469,519.183c-0.194-0.206-0.392-0.408-0.583-0.617C871.077,518.775,871.275,518.976,871.469,519.183z"/>
	<path class="st1" d="M982.798,475.27c0-0.022-0.002-0.043-0.002-0.065c-0.023,7.73-1.434,15.299-4.077,22.393
		c-0.056-0.024-0.11-0.052-0.166-0.075c-0.804-0.342-1.617-0.665-2.443-0.949c-0.656-0.226-1.322-0.431-2.002-0.569
		c-0.004,0.012-0.01,0.023-0.014,0.035c0.509,0.099,1.012,0.232,1.505,0.39c0.797,0.255,1.58,0.552,2.355,0.869
		c0.254,0.104,0.501,0.224,0.754,0.333c-3.419,9.161-8.896,17.529-16.195,24.39c-2.372,2.236-4.901,4.281-7.516,6.079
		c-2.447,1.104-5.285,0.583-7.196-1.185c-0.18,0.103-0.356,0.216-0.537,0.317c1.144,1.218,1.981,2.722,2.396,4.394
		c4.732-2.641,9.163-5.903,13.196-9.754C975.716,509.597,982.798,493.046,982.798,475.27z"/>
	<path class="st1" d="M869.517,517.006c-0.213-0.248-0.428-0.493-0.637-0.745C869.089,516.513,869.304,516.759,869.517,517.006z"/>
	<path class="st1" d="M866.108,512.673c-0.392-0.547-0.781-1.096-1.155-1.654C865.33,511.577,865.715,512.128,866.108,512.673z"/>
	<path class="st1" d="M867.758,514.863c-0.287-0.366-0.575-0.732-0.854-1.104C867.183,514.131,867.47,514.498,867.758,514.863z"/>
	<path class="st1" d="M874.816,518.186c0.407-0.479,0.794-0.976,1.162-1.487c0.101,0.103,0.207,0.203,0.308,0.305
		c-0.339-0.342-0.669-0.692-1-1.042c0.227,0.238,0.442,0.483,0.673,0.718c-0.317,0.44-0.645,0.871-0.992,1.287
		c-0.494,0.592-1.012,1.163-1.541,1.723c-0.243,0.258-0.491,0.51-0.736,0.764c0.006,0.006,0.012,0.013,0.018,0.019
		c0.184-0.191,0.37-0.38,0.553-0.572C873.793,519.342,874.316,518.774,874.816,518.186z"/>
	<path class="st1" d="M889.078,526.851c-1.921,1.848-4.837,2.388-7.326,1.239c-0.467-0.321-0.927-0.66-1.389-0.997
		c2.16,1.596,4.414,3.069,6.763,4.391c0.438-1.659,1.29-3.149,2.448-4.349C889.408,527.041,889.243,526.946,889.078,526.851z"/>
	<path class="st2" d="M872.84,513.231c-5.167-6.169-9.12-13.379-11.461-21.236C863.665,499.757,867.545,506.951,872.84,513.231z"/>
	<path class="st1" d="M861.082,490.907c-0.133-0.481-0.272-0.96-0.393-1.445C860.808,489.947,860.95,490.425,861.082,490.907z"/>
	<path class="st1" d="M862.663,454.369c-0.004-0.001-0.009-0.002-0.013-0.003c-2.424,6.534-3.69,13.525-3.69,20.734
		c0,0.024,0.002,0.048,0.002,0.073c0.022-7.177,1.341-14.203,3.81-20.784C862.736,454.382,862.699,454.376,862.663,454.369z"/>
	<path class="st1" d="M877.615,518.321c0.231,0.218,0.467,0.427,0.701,0.64c-0.494-0.454-0.978-0.919-1.457-1.389
		C877.111,517.822,877.356,518.076,877.615,518.321z"/>
	<path class="st1" d="M874.452,515.072c-0.499-0.549-0.991-1.106-1.47-1.673C873.462,513.964,873.949,514.523,874.452,515.072z"/>
	<path class="st1" d="M889.078,526.851c-2.45-1.409-4.79-2.991-7.011-4.723c-0.151-0.116-0.298-0.239-0.448-0.357
		c-0.502-0.399-1-0.801-1.489-1.215c-0.505-0.426-1.004-0.862-1.498-1.307c-0.105-0.095-0.21-0.191-0.315-0.287
		c-0.234-0.214-0.47-0.423-0.701-0.64c-0.259-0.244-0.504-0.499-0.756-0.749c-0.192-0.188-0.383-0.376-0.573-0.567
		c-0.101-0.103-0.207-0.203-0.308-0.305c-0.368,0.51-0.755,1.007-1.162,1.487c-0.5,0.588-1.023,1.156-1.555,1.716
		c-0.183,0.192-0.369,0.382-0.553,0.572c2.065,2.086,4.269,4.034,6.596,5.827c0.135,0.103,0.267,0.211,0.402,0.313
		c0.216,0.163,0.439,0.316,0.657,0.477c0.461,0.337,0.922,0.676,1.389,0.997C884.241,529.239,887.157,528.699,889.078,526.851z"/>
	<path class="st1" d="M874.968,517.968c0.347-0.416,0.675-0.847,0.992-1.287c-0.231-0.235-0.447-0.48-0.673-0.718
		c-0.28-0.296-0.561-0.589-0.834-0.89c-0.503-0.549-0.99-1.109-1.47-1.673c-0.047-0.056-0.095-0.111-0.142-0.167
		c-5.295-6.28-9.175-13.475-11.461-21.236c-0.107-0.36-0.197-0.726-0.297-1.089c-0.132-0.482-0.274-0.96-0.393-1.445
		c-0.9-3.609-1.466-7.34-1.656-11.16c-0.052-1.046-0.075-2.089-0.072-3.129c0-0.024-0.002-0.048-0.002-0.073
		c0-7.21,1.266-14.2,3.69-20.734c-0.68-0.137-1.347-0.343-2.002-0.569c-0.826-0.284-1.639-0.608-2.443-0.949
		c-0.056-0.024-0.11-0.052-0.166-0.075c-2.643,7.095-4.054,14.664-4.077,22.394c0.013,12.583,3.778,24.854,10.589,35.249
		c0.133,0.202,0.267,0.404,0.402,0.604c0.375,0.558,0.763,1.107,1.155,1.654c0.262,0.364,0.525,0.728,0.795,1.086
		c0.279,0.372,0.567,0.738,0.854,1.104c0.37,0.47,0.74,0.939,1.122,1.398c0.208,0.251,0.424,0.497,0.637,0.745
		c0.45,0.525,0.903,1.049,1.37,1.56c0.191,0.208,0.389,0.411,0.583,0.617c0.402,0.429,0.808,0.854,1.222,1.272
		c0.246-0.254,0.494-0.507,0.736-0.764C873.955,519.13,874.474,518.559,874.968,517.968z"/>
	<path class="st1" d="M947.8,526.916c1.911,1.768,4.749,2.288,7.196,1.185c2.614-1.798,5.144-3.843,7.516-6.079
		c7.299-6.861,12.776-15.229,16.195-24.39c-0.252-0.108-0.499-0.229-0.754-0.333c-0.774-0.317-1.557-0.615-2.355-0.869
		c-0.493-0.157-0.996-0.291-1.505-0.39c-3.09,8.311-8.055,15.881-14.691,22.217C955.846,521.652,951.949,524.541,947.8,526.916z"/>
	<path class="st1" d="M942.328,529.683c1.55,0.821,2.62,2.429,2.63,4.299c1.594-0.724,3.167-1.499,4.701-2.355
		c-0.415-1.672-1.251-3.176-2.396-4.394C945.656,528.131,944.007,528.943,942.328,529.683z"/>
	<path class="st1" d="M894.53,529.623c-1.693-0.754-3.348-1.584-4.956-2.489c-1.157,1.2-2.01,2.69-2.448,4.349
		c1.522,0.857,3.083,1.651,4.676,2.385C891.856,532.002,892.953,530.407,894.53,529.623z"/>
	<path class="st1" d="M881.85,518.196c0.001-0.001,0.002-0.002,0.003-0.003c-0.049-0.042-0.098-0.084-0.147-0.126
		C881.755,518.109,881.801,518.154,881.85,518.196z"/>
	<path class="st2" d="M889.35,432.724c0.095-0.104,0.166-0.222,0.253-0.332c-2.421,1.64-4.728,3.485-6.885,5.555
		c-10.213,9.807-15.838,23.001-15.838,37.152c0,0.017,0.001,0.034,0.001,0.051c0.047-14.047,5.786-27.468,16.002-37.19
		C884.891,436.048,887.066,434.286,889.35,432.724z"/>
	<path class="st2" d="M866.912,476.528c-0.011-0.459-0.032-0.919-0.031-1.377c0-0.017-0.001-0.034-0.001-0.051
		c0-14.151,5.625-27.346,15.838-37.152c2.156-2.07,4.464-3.916,6.885-5.555c1.488-1.859,1.835-4.349,0.992-6.513
		c-1.707,0.968-3.366,2.033-4.976,3.184c-0.072,0.124-0.145,0.249-0.255,0.351c-2.081,1.503-4.071,3.156-5.929,4.926
		c-11.209,10.666-17.506,25.391-17.554,40.803c0.001,0.463,0.023,0.923,0.035,1.385H866.912z"/>
	<path class="st1" d="M888.958,423.454c-1.911-1.768-4.749-2.288-7.196-1.185c-2.614,1.798-5.144,3.843-7.516,6.079
		c-7.299,6.861-12.776,15.229-16.195,24.39c0.252,0.108,0.499,0.229,0.754,0.333c0.774,0.317,1.557,0.615,2.355,0.87
		c0.493,0.157,0.996,0.29,1.505,0.39c3.09-8.311,8.055-15.881,14.691-22.217C880.912,428.719,884.809,425.83,888.958,423.454z"/>
	<path class="st2" d="M883.127,516.78c0.239-0.275,0.476-0.551,0.714-0.827c0.237-0.274,0.474-0.548,0.713-0.819
		c0.198-0.225,0.4-0.447,0.603-0.667c-0.206-0.176-0.402-0.363-0.605-0.541c-0.157-0.137-0.312-0.279-0.468-0.418
		c-0.374-0.336-0.747-0.671-1.111-1.017c-0.032-0.031-0.066-0.06-0.099-0.09c-0.172-0.164-0.333-0.336-0.503-0.502
		c-0.381-0.375-0.764-0.747-1.133-1.133c-0.444-0.462-0.872-0.935-1.296-1.409c-0.112-0.126-0.229-0.247-0.34-0.374
		c-4.004-4.563-7.124-9.711-9.266-15.255c-1.92-4.921-3.1-10.195-3.387-15.684c-0.026-0.498-0.026-0.993-0.037-1.489h-4.997
		c0.14,5.634,1.093,11.115,2.804,16.316c3.282,9.849,9.241,18.541,16.985,25.198c0.049,0.042,0.098,0.084,0.147,0.126
		c0.192-0.202,0.382-0.406,0.569-0.613C882.659,517.315,882.894,517.048,883.127,516.78z"/>
	<path class="st3" d="M969.846,473.842c0.011,0.459,0.032,0.918,0.031,1.376c0,0.018,0.001,0.035,0.001,0.052
		c0,14.151-5.625,27.346-15.838,37.152c-2.156,2.07-4.464,3.916-6.885,5.555c-1.488,1.859-1.835,4.349-0.992,6.513
		c1.707-0.968,3.365-2.033,4.975-3.184c0.072-0.124,0.145-0.249,0.255-0.351c2.081-1.503,4.071-3.156,5.929-4.926
		c11.209-10.666,17.506-25.392,17.554-40.804c-0.001-0.463-0.023-0.923-0.035-1.384H969.846z"/>
	<path class="st4" d="M953.631,433.591c-0.239,0.275-0.476,0.551-0.714,0.827c-0.237,0.274-0.474,0.548-0.713,0.819
		c-0.198,0.225-0.4,0.447-0.603,0.668c0.206,0.175,0.401,0.362,0.604,0.54c0.159,0.138,0.314,0.281,0.471,0.421
		c0.373,0.335,0.746,0.669,1.109,1.015c0.032,0.031,0.066,0.06,0.099,0.09c0.172,0.164,0.333,0.336,0.503,0.502
		c0.381,0.375,0.764,0.747,1.133,1.133c0.444,0.461,0.872,0.934,1.296,1.409c0.112,0.126,0.229,0.247,0.34,0.374
		c4.004,4.563,7.124,9.711,9.266,15.255c1.92,4.921,3.1,10.195,3.387,15.684c0.026,0.498,0.026,0.993,0.037,1.49h4.997
		c-0.14-5.634-1.093-11.115-2.804-16.316c-3.282-9.85-9.241-18.541-16.985-25.198c-0.049-0.042-0.098-0.085-0.147-0.126
		c-0.192,0.202-0.382,0.406-0.569,0.613C954.099,433.055,953.864,433.322,953.631,433.591z"/>
	<path class="st1" d="M961.79,432.403c-0.347,0.416-0.676,0.847-0.992,1.287c0.231,0.235,0.447,0.48,0.673,0.718
		c0.28,0.295,0.561,0.589,0.834,0.89c0.503,0.549,0.99,1.109,1.47,1.674c0.047,0.056,0.095,0.111,0.143,0.167
		c5.295,6.28,9.175,13.475,11.461,21.236c0.107,0.36,0.197,0.726,0.297,1.089c0.132,0.481,0.274,0.96,0.393,1.445
		c0.9,3.609,1.466,7.34,1.656,11.16c0.052,1.046,0.075,2.089,0.072,3.13c0,0.024,0.002,0.048,0.002,0.072
		c0,7.21-1.266,14.2-3.69,20.734c0.68,0.137,1.347,0.343,2.002,0.569c0.826,0.284,1.639,0.608,2.443,0.949
		c0.056,0.024,0.11,0.052,0.166,0.075c2.643-7.095,4.054-14.663,4.077-22.393c-0.013-12.583-3.777-24.854-10.589-35.248
		c-0.134-0.203-0.268-0.406-0.404-0.607c-0.374-0.558-0.762-1.107-1.154-1.653c-0.262-0.364-0.525-0.728-0.795-1.086
		c-0.279-0.372-0.567-0.738-0.854-1.104c-0.37-0.47-0.74-0.939-1.122-1.398c-0.208-0.251-0.424-0.497-0.637-0.745
		c-0.451-0.525-0.903-1.049-1.37-1.559c-0.191-0.208-0.389-0.411-0.583-0.617c-0.402-0.429-0.808-0.855-1.222-1.273
		c-0.246,0.254-0.494,0.507-0.737,0.764C962.803,431.24,962.284,431.811,961.79,432.403z"/>
</g>
<g>
	<path class="st5" d="M907.438,547.229c0,0.154-0.008,0.283-0.023,0.389c-0.016,0.104-0.04,0.191-0.075,0.266
		s-0.077,0.127-0.127,0.162c-0.051,0.035-0.11,0.053-0.18,0.053h-6.627c-0.178,0-0.346-0.061-0.504-0.18s-0.237-0.33-0.237-0.631
		v-13.878c0-0.062,0.016-0.116,0.047-0.162c0.03-0.047,0.085-0.083,0.162-0.11s0.182-0.05,0.312-0.069s0.29-0.029,0.475-0.029
		c0.193,0,0.354,0.01,0.481,0.029c0.127,0.02,0.229,0.042,0.307,0.069s0.131,0.063,0.162,0.11c0.031,0.046,0.047,0.101,0.047,0.162
		v12.962h5.375c0.069,0,0.129,0.018,0.18,0.053c0.05,0.033,0.092,0.084,0.127,0.15c0.035,0.064,0.06,0.152,0.075,0.26
		C907.43,546.943,907.438,547.074,907.438,547.229z"/>
	<path class="st5" d="M911.631,547.797c0,0.061-0.016,0.115-0.047,0.162c-0.031,0.045-0.085,0.082-0.162,0.109
		s-0.18,0.051-0.307,0.07c-0.128,0.018-0.288,0.027-0.481,0.027c-0.185,0-0.344-0.01-0.475-0.027
		c-0.131-0.02-0.235-0.043-0.312-0.07s-0.132-0.064-0.162-0.109c-0.031-0.047-0.047-0.102-0.047-0.162v-14.388
		c0-0.062,0.018-0.116,0.053-0.162c0.034-0.047,0.093-0.083,0.174-0.11s0.185-0.05,0.312-0.069c0.127-0.02,0.279-0.029,0.457-0.029
		c0.193,0,0.354,0.01,0.481,0.029c0.127,0.02,0.229,0.042,0.307,0.069s0.131,0.063,0.162,0.11c0.031,0.046,0.047,0.101,0.047,0.162
		V547.797z"/>
	<path class="st5" d="M921.674,547.75c-0.03,0.084-0.073,0.154-0.127,0.209c-0.055,0.053-0.13,0.096-0.227,0.127
		s-0.22,0.053-0.37,0.062c-0.15,0.012-0.338,0.018-0.562,0.018c-0.171,0-0.319-0.002-0.446-0.006
		c-0.128-0.004-0.237-0.014-0.33-0.027c-0.093-0.016-0.172-0.033-0.237-0.053c-0.066-0.02-0.122-0.045-0.168-0.076
		c-0.047-0.029-0.083-0.066-0.11-0.109s-0.052-0.094-0.075-0.156l-4.9-13.924c-0.062-0.17-0.095-0.307-0.099-0.411
		s0.029-0.184,0.099-0.237c0.069-0.055,0.182-0.089,0.336-0.104s0.363-0.023,0.626-0.023c0.216,0,0.388,0.006,0.516,0.018
		c0.127,0.012,0.226,0.033,0.295,0.063c0.069,0.031,0.122,0.071,0.156,0.122c0.035,0.05,0.067,0.113,0.099,0.19l4.298,12.616h0.012
		l4.182-12.592c0.023-0.085,0.05-0.154,0.081-0.208c0.031-0.055,0.085-0.097,0.162-0.128c0.077-0.03,0.186-0.052,0.324-0.063
		c0.14-0.012,0.324-0.018,0.557-0.018c0.239,0,0.429,0.01,0.567,0.029s0.233,0.056,0.283,0.109c0.051,0.055,0.07,0.134,0.059,0.238
		c-0.012,0.104-0.049,0.241-0.11,0.411L921.674,547.75z"/>
	<path class="st5" d="M937.417,547.275c0,0.139-0.008,0.26-0.023,0.363c-0.016,0.105-0.042,0.191-0.081,0.262
		c-0.038,0.07-0.083,0.119-0.133,0.15c-0.051,0.031-0.106,0.047-0.168,0.047h-7.194c-0.178,0-0.346-0.061-0.504-0.18
		s-0.237-0.33-0.237-0.631v-13.369c0-0.302,0.079-0.512,0.237-0.632c0.158-0.119,0.326-0.18,0.504-0.18h7.113
		c0.062,0,0.117,0.016,0.168,0.047c0.05,0.03,0.091,0.081,0.121,0.15c0.031,0.069,0.057,0.156,0.076,0.261
		c0.019,0.104,0.028,0.233,0.028,0.388c0,0.14-0.01,0.261-0.028,0.365c-0.02,0.104-0.045,0.189-0.076,0.255
		c-0.03,0.065-0.071,0.114-0.121,0.145c-0.051,0.031-0.106,0.047-0.168,0.047h-5.861v4.703h5.027c0.062,0,0.117,0.017,0.168,0.052
		c0.05,0.035,0.093,0.083,0.127,0.145c0.035,0.062,0.06,0.147,0.075,0.255c0.016,0.109,0.023,0.236,0.023,0.382
		c0,0.139-0.008,0.26-0.023,0.359s-0.04,0.182-0.075,0.244c-0.034,0.061-0.077,0.105-0.127,0.133
		c-0.051,0.027-0.106,0.039-0.168,0.039h-5.027v5.365h5.942c0.062,0,0.117,0.016,0.168,0.045c0.05,0.031,0.095,0.08,0.133,0.145
		c0.039,0.066,0.065,0.152,0.081,0.256S937.417,547.121,937.417,547.275z"/>
</g>
</svg>
