<svg width="29" height="28" viewBox="0 0 29 28" fill="none" xmlns="http://www.w3.org/2000/svg">
<path opacity="0.35" d="M22.8879 20.7442H5.2981C3.47645 20.7442 2 19.1379 2 17.1561V7.58804C2 5.60625 3.47645 4 5.2981 4H22.8879C24.7096 4 26.186 5.60625 26.186 7.58804V17.1561C26.186 19.1379 24.7096 20.7442 22.8879 20.7442Z" fill="#51B8F5"/>
<path d="M17.8927 24H10.2958C9.39727 24 8.66797 23.2707 8.66797 22.372C8.66797 21.4734 9.39727 20.7441 10.2958 20.7441H17.8927C18.7913 20.7441 19.5206 21.4734 19.5206 22.372C19.5206 23.2707 18.7913 24 17.8927 24Z" fill="#0074C7"/>
</svg>
