<?xml version="1.0" encoding="utf-8"?>
<!-- Generator: Adobe Illustrator 26.5.0, SVG Export Plug-In . SVG Version: 6.00 Build 0)  -->
<svg version="1.1" id="Layer_1" xmlns="http://www.w3.org/2000/svg" xmlns:xlink="http://www.w3.org/1999/xlink" x="0px" y="0px"
	 viewBox="0 0 377.88 383.64" style="enable-background:new 0 0 377.88 383.64;" xml:space="preserve">
<style type="text/css">
	.st0{fill:#31373F;}
	.st1{fill:#00ADEE;}
	.st2{fill:#4272B7;}
	.st3{fill:url(#SVGID_1_);}
	.st4{opacity:0.33;fill:#404041;}
	.st5{fill:url(#SVGID_00000051378566347040603990000013792667290574768063_);}
	.st6{fill:url(#SVGID_00000129181574080469567760000003371281048833032844_);}
	.st7{fill:url(#SVGID_00000178899937811965995260000000476666172092626611_);}
	.st8{fill:url(#SVGID_00000129180746488189347910000008145743793947643068_);}
</style>
<path class="st0" d="M200.961,202.252h-9.701c-2.346,0-4.248-1.902-4.248-4.248v-9.701c0-2.346,1.902-4.248,4.248-4.248h9.701
	c2.346,0,4.248,1.902,4.248,4.248v9.701C205.209,200.35,203.307,202.252,200.961,202.252z"/>
<g>
	<g>
		<path class="st1" d="M199.658,195.952"/>
		<path class="st2" d="M202.742,193.814L202.742,193.814l-0.002-0.003l-0.002-0.004l-0.169-0.25l-0.002-0.002l-0.001-0.001
			l-1.513-2.226c-0.323-0.475-0.645-0.95-0.968-1.424c-0.419-0.532-1.053-0.888-1.771-0.934c-0.054-0.004-0.108-0.005-0.163-0.005
			c-0.071,0-0.141,0.003-0.21,0.009c-0.21,0.018-0.412,0.061-0.604,0.128c-0.186,0.065-0.532,0.185-0.842,0.504
			c-0.172,0.176-0.276,0.355-0.339,0.485c-0.006-0.009-0.016-0.024-0.025-0.038c-0.22,0.363-0.468,0.71-0.743,1.037
			c0.016,0.027,0.031,0.052,0.042,0.073c-0.029,0.043-0.058,0.085-0.087,0.128c-0.356,0.529-0.69,1.024-0.996,1.476
			c-0.277,0.408-1.108,1.632-0.831,1.224c-0.134,0.197-0.259,0.38-0.372,0.547c-0.025,0.132-0.054,0.264-0.087,0.394
			c0.015,0.156,0.028,0.313,0.035,0.47c0.004,0.088,0.003,0.175,0.004,0.262c0.09,0.211,0.175,0.424,0.25,0.643
			c0.05-0.077,0.084-0.139,0.084-0.139c0.018-0.033,0.032-0.061,0.042-0.081c0.108,0.207,0.377,0.65,0.913,0.95
			c0.292,0.164,0.568,0.232,0.762,0.262h0.001c0.11,0.017,0.223,0.025,0.337,0.025c0.096,0,0.191-0.006,0.284-0.018
			c0.561-0.071,1.057-0.348,1.41-0.753c0.32-0.431,0.639-0.863,0.959-1.294l0.018-0.023c0.375,0.684,0.648,1.073,0.816,1.292
			c0.025,0.033,0.053,0.068,0.092,0.112c0.334,0.374,0.733,0.512,0.917,0.574c0.145,0.048,0.409,0.12,0.742,0.12
			c0.072,0,0.143-0.003,0.213-0.01c0.802-0.072,1.487-0.55,1.849-1.227c0.177-0.329,0.276-0.704,0.276-1.103
			C203.06,194.563,202.944,194.16,202.742,193.814z M196.464,195.523c-0.032,0.043-0.441,0.576-0.961,0.578
			c-0.177,0.001-0.345-0.056-0.345-0.056c-0.163-0.054-0.308-0.146-0.425-0.264l-0.002-0.002l-0.003-0.003
			c-0.09-0.091-0.164-0.197-0.215-0.316l-0.001-0.001c-0.016-0.036-0.03-0.073-0.042-0.11c0,0-0.049-0.154-0.049-0.319
			c0-0.174,0.07-0.43,0.247-0.681l0.47-0.694l0.551-0.812l0.244-0.359c0.062-0.092,0.125-0.184,0.187-0.276
			c0.066,0.1,0.132,0.2,0.199,0.301l0.511,0.772l0.001,0.001l0.224,0.34l0.386,0.584L196.464,195.523z M198.476,192.812l-0.015,0.02
			l-0.114,0.153l-0.002,0.003l-0.002,0.002c-0.047,0.069-0.09,0.141-0.128,0.215l-0.015-0.021v-0.001l-0.504-0.764l-0.742-1.123
			l-0.105-0.16c0,0-0.001,0-0.001,0c0.079-0.117,0.158-0.234,0.237-0.351l0.001-0.001c0.038-0.06,0.294-0.459,0.695-0.582
			c0.17-0.052,0.347-0.052,0.347-0.052s0.166,0,0.326,0.046c0.396,0.114,0.658,0.495,0.699,0.558l0.406,0.597l0.432,0.636
			C199.382,192.057,198.846,192.364,198.476,192.812z M200.737,196.118c-0.41,0.004-0.798-0.243-1.014-0.629
			c-0.276-0.417-0.552-0.835-0.828-1.252l0.518-0.698c0.054-0.08,0.212-0.291,0.488-0.392c0.168-0.062,0.321-0.06,0.35-0.06
			c0.07,0.001,0.141,0.01,0.212,0.028c0,0,0.103,0.025,0.199,0.072c0.153,0.075,0.238,0.174,0.431,0.424
			c0.104,0.135,0.315,0.411,0.545,0.778c0.036,0.057,0.079,0.128,0.121,0.229c0,0,0.086,0.211,0.097,0.415
			C201.876,195.419,201.358,196.111,200.737,196.118z"/>
		<linearGradient id="SVGID_1_" gradientUnits="userSpaceOnUse" x1="198.3517" y1="192.4557" x2="202.0015" y2="196.2626">
			<stop  offset="0.4776" style="stop-color:#F7981D"/>
			<stop  offset="0.5518" style="stop-color:#D39B26"/>
			<stop  offset="0.7156" style="stop-color:#77A23D"/>
			<stop  offset="0.8404" style="stop-color:#2DA84F"/>
		</linearGradient>
		<path class="st3" d="M202.742,193.814L202.742,193.814l-0.002-0.003l-0.002-0.004l-0.169-0.25l-0.002-0.002l-0.001-0.001
			l-0.345-0.508c-0.322-0.019-0.643-0.08-0.966-0.081c-0.06,0-0.094-0.038-0.106-0.083c-0.105,0.02-0.21,0.037-0.315,0.04
			c-0.136,0.004-0.276-0.012-0.41,0.013c-0.04,0.007-0.096,0.023-0.109,0.045c-0.013,0.022,0.001,0.073,0.016,0.116
			c0.045,0.004,0.089,0.006,0.134,0.017c0,0,0.103,0.025,0.199,0.072c0.153,0.075,0.238,0.174,0.431,0.424
			c0.104,0.135,0.315,0.411,0.545,0.778c0.036,0.057,0.079,0.128,0.121,0.229c0,0,0.086,0.211,0.097,0.415
			c0.02,0.387-0.497,1.079-1.119,1.086c-0.41,0.004-0.798-0.243-1.014-0.629c-0.276-0.417-0.552-0.835-0.828-1.252l0.133-0.179
			c-0.143-0.4-0.465-0.692-0.705-1.035c-0.039,0.059-0.076,0.119-0.109,0.183l-0.015-0.021v-0.001l-0.504-0.764l-0.742-1.123
			l-0.092-0.139c-0.074,0.037-0.15,0.067-0.225,0.083c-0.004,0.009-0.009,0.018-0.013,0.027c-0.028,0.054-0.059,0.105-0.093,0.155
			c-0.08,0.23-0.223,0.43-0.404,0.592c-0.008,0.09-0.023,0.177-0.049,0.258c0.015-0.022,0.029-0.043,0.044-0.065
			c0.066,0.1,0.132,0.2,0.199,0.301l0.511,0.772l0.001,0.001l0.224,0.34l0.386,0.584l-0.045,0.061
			c0.137,0.167,0.243,0.359,0.314,0.569c0.017,0.05,0.037,0.099,0.055,0.149c0.131,0.095,0.246,0.213,0.306,0.361
			c0.021-0.029,0.043-0.058,0.064-0.087l0.018-0.023c0.375,0.684,0.648,1.073,0.816,1.292c0.025,0.033,0.053,0.068,0.092,0.112
			c0.334,0.374,0.733,0.512,0.917,0.574c0.145,0.048,0.409,0.12,0.742,0.12c0.072,0,0.143-0.003,0.213-0.01
			c0.802-0.072,1.487-0.55,1.849-1.227c0.177-0.329,0.276-0.704,0.276-1.103C203.06,194.563,202.944,194.16,202.742,193.814z"/>
		<path class="st4" d="M199.193,194.693c-0.099-0.149-0.199-0.298-0.298-0.448c-0.247,0.333-0.494,0.666-0.741,1
			c0.089,0.155,0.177,0.31,0.266,0.465C198.678,195.371,198.936,195.032,199.193,194.693z"/>
		<path class="st2" d="M199.413,193.538c0.054-0.08,0.212-0.291,0.488-0.392c0.069-0.025,0.134-0.039,0.19-0.047
			c-0.019-0.091-0.012-0.182,0.038-0.254c-0.234,0.208-0.551,0.343-0.955,0.343c-0.151,0-0.289-0.02-0.416-0.054
			c0.167,0.2,0.344,0.39,0.532,0.57L199.413,193.538z"/>
		
			<linearGradient id="SVGID_00000115502322858237161430000017195166589888669113_" gradientUnits="userSpaceOnUse" x1="201.9543" y1="196.8933" x2="201.5883" y2="193.6688">
			<stop  offset="0.2984" style="stop-color:#32A851"/>
			<stop  offset="1" style="stop-color:#30A850"/>
		</linearGradient>
		<path style="fill:url(#SVGID_00000115502322858237161430000017195166589888669113_);" d="M202.742,193.814L202.742,193.814
			l-0.002-0.003l-0.002-0.004l-0.169-0.25l-0.002-0.002l-0.001-0.001l-0.345-0.508c-0.322-0.019-0.643-0.08-0.966-0.081
			c-0.06,0-0.094-0.038-0.106-0.083c-0.105,0.02-0.21,0.037-0.315,0.04c-0.136,0.004-0.276-0.012-0.41,0.013
			c-0.04,0.007-0.096,0.023-0.109,0.045c-0.013,0.022,0.001,0.073,0.016,0.116c0.045,0.004,0.089,0.006,0.134,0.017
			c0,0,0.103,0.025,0.199,0.072c0.153,0.075,0.238,0.174,0.431,0.424c0.104,0.135,0.315,0.411,0.545,0.778
			c0.036,0.057,0.079,0.128,0.121,0.229c0,0,0.086,0.211,0.097,0.415c0.02,0.382-0.485,1.06-1.095,1.084
			c0.068,0.405,0.037,0.829-0.093,1.215c0.019,0,0.036,0.003,0.055,0.003c0.072,0,0.143-0.003,0.213-0.01
			c0.802-0.072,1.487-0.55,1.849-1.227c0.177-0.329,0.276-0.704,0.276-1.103C203.06,194.563,202.944,194.16,202.742,193.814z"/>
		<path class="st2" d="M194.422,195.03c0.017-0.317,0.179-0.546,0.247-0.681l0.47-0.694l0.551-0.812l0.244-0.359
			c0.383-0.566,0.766-1.132,1.149-1.698l0.001-0.001c0.038-0.06,0.294-0.459,0.695-0.582c0.17-0.052,0.346-0.052,0.347-0.052
			c0,0,0.465,0.001,2.128,0.007c-0.057-0.085-0.113-0.169-0.17-0.254c-0.419-0.532-1.053-0.888-1.771-0.934
			c-0.054-0.004-0.108-0.005-0.163-0.005c-0.071,0-0.141,0.003-0.21,0.009c-0.21,0.018-0.412,0.061-0.604,0.128
			c-0.186,0.065-0.532,0.185-0.842,0.504c-0.172,0.176-0.276,0.355-0.339,0.485c-0.006-0.009-0.016-0.024-0.025-0.038
			c-0.22,0.363-0.468,0.71-0.743,1.037c0.016,0.027,0.031,0.052,0.042,0.073c-0.029,0.043-0.058,0.085-0.087,0.128
			c-0.356,0.529-0.69,1.024-0.996,1.476c-0.277,0.408-1.108,1.632-0.831,1.224c-0.134,0.197-0.259,0.38-0.372,0.547
			c-0.025,0.132-0.054,0.264-0.087,0.394c0.015,0.156,0.028,0.313,0.035,0.47c0.004,0.088,0.003,0.175,0.004,0.262
			c0.09,0.211,0.175,0.424,0.25,0.643c0.05-0.077,0.084-0.139,0.084-0.139c0.018-0.033,0.032-0.061,0.042-0.081
			c0.108,0.207,0.377,0.65,0.913,0.95c0.01,0.006,0.038,0.02,0.038,0.02S194.422,196.095,194.422,195.03z"/>
		
			<linearGradient id="SVGID_00000182489339258743414940000015137180336867441575_" gradientUnits="userSpaceOnUse" x1="195.6445" y1="196.8034" x2="199.5378" y2="192.8292">
			<stop  offset="0.0541" style="stop-color:#4272B7"/>
			<stop  offset="1" style="stop-color:#2CA94F"/>
		</linearGradient>
		<path style="fill:url(#SVGID_00000182489339258743414940000015137180336867441575_);" d="M199.413,193.538
			c0.054-0.08,0.212-0.291,0.488-0.392c0.154-0.056,0.284-0.06,0.35-0.06c0.436-0.002,1.128-0.005,1.994,0
			c-0.058-0.085-0.115-0.171-0.173-0.256c-0.141-0.169-0.47-0.516-1.015-0.714c-0.5-0.182-0.925-0.145-1.067-0.128
			c-0.848,0.101-1.372,0.66-1.515,0.825l-0.015,0.02l-0.114,0.153l-0.002,0.003l-0.002,0.002c-0.047,0.069-0.09,0.141-0.128,0.215
			c-0.258,0.333-0.515,0.667-0.773,1l-0.977,1.318c-0.032,0.043-0.441,0.576-0.961,0.578c-0.177,0.001-0.345-0.056-0.345-0.056
			c-0.163-0.054-0.308-0.146-0.425-0.264l-0.002-0.002l-0.003-0.003c-0.09-0.091-0.164-0.197-0.215-0.316l-0.001-0.001
			c-0.045-0.079-0.065-0.147-0.074-0.197c0,0-0.008-0.043-0.017-0.232c0,0,0,0.69-0.008,2.021c0.281,0.152,0.545,0.218,0.733,0.247
			h0.001c0.11,0.017,0.223,0.025,0.337,0.025c0.096,0,0.191-0.006,0.284-0.018c0.561-0.071,1.057-0.348,1.41-0.753
			c0.32-0.431,0.639-0.863,0.959-1.294c0.253-0.341,0.506-0.682,0.759-1.023L199.413,193.538z"/>
		
			<linearGradient id="SVGID_00000035524254502630315010000008227728802650390176_" gradientUnits="userSpaceOnUse" x1="199.2594" y1="190.071" x2="201.3182" y2="193.2072">
			<stop  offset="0.1778" style="stop-color:#4272B7"/>
			<stop  offset="1" style="stop-color:#2B388F;stop-opacity:0.5"/>
		</linearGradient>
		<path style="fill:url(#SVGID_00000035524254502630315010000008227728802650390176_);" d="M201.052,191.329
			c-0.323-0.475-0.645-0.95-0.968-1.424c-0.355-0.451-0.864-0.774-1.448-0.891c-0.02,0.409-0.125,0.794-0.315,1.156
			c0.042,0.007,0.087,0.016,0.131,0.028c0.396,0.114,0.658,0.495,0.699,0.558l0.406,0.597l0.432,0.636
			c0.213-0.024,0.601-0.04,1.046,0.117c0.561,0.197,0.896,0.556,1.037,0.726C201.733,192.329,201.393,191.829,201.052,191.329z"/>
		
			<linearGradient id="SVGID_00000040573519238779412060000016740612786513790616_" gradientUnits="userSpaceOnUse" x1="190.8113" y1="194.2431" x2="196.92" y2="190.8353">
			<stop  offset="0" style="stop-color:#E62E26"/>
			<stop  offset="0.145" style="stop-color:#E63326"/>
			<stop  offset="0.3265" style="stop-color:#E84325"/>
			<stop  offset="0.4383" style="stop-color:#E95024"/>
			<stop  offset="0.5941" style="stop-color:#F17B22"/>
			<stop  offset="0.7697" style="stop-color:#F7971F"/>
		</linearGradient>
		<path style="fill:url(#SVGID_00000040573519238779412060000016740612786513790616_);" d="M195.273,190.91
			c0.016,0.023,0.032,0.047,0.032,0.047c0.055,0.083,0.097,0.154,0.125,0.205c0.242-0.357,0.484-0.714,0.726-1.071
			c-0.032-0.057-0.075-0.125-0.129-0.2c0,0-0.038-0.055-0.079-0.105c-0.402-0.497-0.941-0.661-1.114-0.714
			c0,0-0.292-0.088-0.592-0.104c-0.042-0.002-0.084-0.003-0.127-0.003c-0.045,0-0.09,0.002-0.134,0.004
			c-0.082,0.004-0.342,0.032-0.559,0.096c-0.428,0.125-0.944,0.464-1.316,0.96c-0.063,0.085-0.11,0.158-0.14,0.206l-0.504,0.743
			l-0.732,1.082l-1.159,1.712l-0.038,0.055c-0.235,0.358-0.372,0.786-0.372,1.246c0,0.372,0.089,0.723,0.248,1.034
			c0.349,0.685,1.035,1.169,1.84,1.234c0.062,0.006,0.124,0.008,0.188,0.008c0.746,0,1.407-0.359,1.822-0.911
			c0.095-0.126,0.17-0.263,0.17-0.263c0.018-0.033,0.032-0.061,0.042-0.081c-0.087-0.168-0.192-0.419-0.24-0.737
			c-0.07-0.471,0.019-0.855,0.086-1.067c-0.433,0.636-0.74,1.085-0.879,1.294c-0.083,0.125-0.285,0.434-0.658,0.557
			c-0.05,0.017-0.174,0.051-0.332,0.051c-0.614,0-1.113-0.498-1.113-1.113c0-0.141,0.036-0.283,0.036-0.283
			c0.047-0.177,0.128-0.305,0.183-0.38l0.002-0.002l0.885-1.306l0.203-0.299l0.238-0.352l0.291-0.431l0.819-1.209
			c0.041-0.075,0.088-0.146,0.143-0.211c0.23-0.273,0.575-0.448,0.961-0.448c0.206,0,0.36,0.05,0.413,0.069
			C194.884,190.354,195.098,190.659,195.273,190.91z"/>
	</g>
</g>
<g>
</g>
<g>
</g>
<g>
</g>
<g>
</g>
<g>
</g>
<g>
</g>
</svg>
