<?xml version="1.0" encoding="utf-8"?>
<!-- Generator: Adobe Illustrator 26.5.0, SVG Export Plug-In . SVG Version: 6.00 Build 0)  -->
<svg version="1.1" id="Layer_1" xmlns="http://www.w3.org/2000/svg" xmlns:xlink="http://www.w3.org/1999/xlink" x="0px" y="0px"
	 viewBox="0 0 328.214 313.929" style="enable-background:new 0 0 328.214 313.929;" xml:space="preserve">
<style type="text/css">
	.st0{fill:#4480C2;}
	.st1{fill:#5B5C5E;}
	.st2{fill:#5B5C5E;stroke:#5B5C5E;stroke-width:0.5;stroke-miterlimit:10;}
	.st3{fill:#E52E25;}
	.st4{fill:#F89820;}
	.st5{fill:#33A852;}
</style>
<g>
	<g>
		<path class="st0" d="M30.166,172.923c-4.297-0.139-7.783-3.182-8.176-7.053h-5.136c0.133,6.739,5.639,12.165,12.423,12.165h0.889
			V172.923z"/>
		<path class="st0" d="M53.562,172.936H30.273c-0.098,0-0.193-0.009-0.291-0.012v5.111h23.58V172.936z"/>
		<path class="st0" d="M60.045,153.998c0.001,0.049,0.008,0.097,0.008,0.146v18.792h-7.142v5.099h12.25v-24.036H60.045z"/>
		<path class="st0" d="M16.848,165.87h0.006c-0.002-0.083-0.012-0.164-0.012-0.247C16.842,165.706,16.847,165.787,16.848,165.87z"/>
		<path class="st0" d="M21.95,153.925c0-0.051,0.007-0.101,0.008-0.152h-5.116v12.074c0,0.087,0.011,0.17,0.012,0.256h5.136
			c-0.024-0.249-0.04-0.501-0.04-0.757V153.925z"/>
		<path class="st0" d="M52.64,141.251H30.162v5.102c0.024,0,0.047-0.003,0.071-0.003h21.206c4.684,0,8.484,3.412,8.571,7.649h5.152
			v-0.336C65.161,146.808,59.555,141.251,52.64,141.251z"/>
		<path class="st0" d="M30.376,141.251h-1.098c-6.868,0-12.436,5.557-12.436,12.412v0.31h5.118c0.1-4.196,3.818-7.572,8.416-7.619
			V141.251z"/>
	</g>
	<g>
		<g>
			<g>
				<g>
					<path class="st1" d="M187.74,176.314c0,0.091-0.023,0.17-0.07,0.237c-0.046,0.067-0.128,0.121-0.244,0.161
						s-0.265,0.073-0.445,0.102s-0.416,0.042-0.707,0.042c-0.268,0-0.497-0.014-0.689-0.042c-0.191-0.028-0.343-0.062-0.454-0.102
						c-0.11-0.04-0.188-0.094-0.235-0.161s-0.069-0.146-0.069-0.237v-19.102h-0.034l-7.729,19.187
						c-0.034,0.079-0.082,0.146-0.145,0.203s-0.152,0.104-0.271,0.145c-0.118,0.039-0.26,0.067-0.424,0.084
						c-0.163,0.018-0.358,0.025-0.584,0.025c-0.237,0-0.441-0.011-0.61-0.033c-0.17-0.023-0.311-0.054-0.424-0.094
						c-0.113-0.039-0.201-0.087-0.263-0.144c-0.062-0.057-0.104-0.119-0.127-0.187l-7.39-19.187h-0.018v19.102
						c0,0.091-0.023,0.17-0.069,0.237c-0.047,0.067-0.128,0.121-0.245,0.161c-0.116,0.04-0.268,0.073-0.454,0.102
						c-0.186,0.028-0.424,0.042-0.715,0.042c-0.279,0-0.513-0.014-0.698-0.042c-0.187-0.028-0.335-0.062-0.445-0.102
						c-0.111-0.04-0.187-0.094-0.228-0.161c-0.04-0.067-0.061-0.146-0.061-0.237v-20.169c0-0.475,0.126-0.813,0.379-1.017
						c0.252-0.203,0.533-0.305,0.843-0.305h1.79c0.367,0,0.688,0.034,0.964,0.102s0.517,0.175,0.723,0.322
						c0.207,0.147,0.379,0.333,0.517,0.56s0.258,0.492,0.361,0.796l6.271,15.882h0.085l6.525-15.831
						c0.126-0.339,0.264-0.627,0.413-0.865s0.312-0.426,0.491-0.568c0.178-0.141,0.375-0.243,0.594-0.305
						c0.218-0.062,0.471-0.093,0.758-0.093h1.877c0.172,0,0.335,0.025,0.49,0.076s0.287,0.13,0.396,0.237
						c0.108,0.107,0.198,0.243,0.267,0.407c0.069,0.164,0.104,0.364,0.104,0.602V176.314z"/>
					<path class="st1" d="M206.265,168.043c0,0.441-0.11,0.754-0.332,0.941c-0.222,0.186-0.474,0.279-0.758,0.279H195.13
						c0,0.848,0.085,1.61,0.256,2.288c0.17,0.678,0.454,1.26,0.852,1.746c0.397,0.485,0.914,0.858,1.55,1.118s1.413,0.39,2.333,0.39
						c0.727,0,1.374-0.059,1.941-0.178c0.568-0.118,1.06-0.251,1.474-0.398c0.414-0.146,0.755-0.279,1.021-0.398
						c0.268-0.118,0.469-0.178,0.605-0.178c0.079,0,0.15,0.02,0.213,0.06s0.11,0.099,0.145,0.178s0.06,0.189,0.076,0.331
						c0.018,0.141,0.026,0.313,0.026,0.517c0,0.146-0.006,0.274-0.018,0.381c-0.011,0.107-0.025,0.204-0.042,0.288
						c-0.018,0.085-0.046,0.161-0.085,0.229c-0.04,0.067-0.091,0.133-0.152,0.194c-0.062,0.062-0.246,0.164-0.551,0.306
						c-0.306,0.142-0.701,0.279-1.187,0.415c-0.486,0.136-1.048,0.257-1.687,0.364s-1.319,0.161-2.042,0.161
						c-1.255,0-2.354-0.176-3.297-0.525c-0.943-0.351-1.737-0.87-2.382-1.56c-0.644-0.688-1.13-1.554-1.457-2.593
						c-0.328-1.04-0.492-2.249-0.492-3.627c0-1.311,0.17-2.489,0.509-3.534c0.339-1.045,0.827-1.932,1.466-2.661
						c0.639-0.729,1.41-1.288,2.313-1.678c0.904-0.39,1.916-0.585,3.034-0.585c1.197,0,2.218,0.192,3.06,0.577
						s1.534,0.901,2.076,1.551s0.94,1.413,1.195,2.288c0.254,0.875,0.381,1.811,0.381,2.805V168.043z M203.452,167.212
						c0.034-1.469-0.293-2.621-0.98-3.458c-0.688-0.836-1.708-1.254-3.062-1.254c-0.693,0-1.302,0.13-1.824,0.39
						c-0.523,0.26-0.961,0.604-1.313,1.034c-0.353,0.43-0.625,0.93-0.818,1.5c-0.193,0.571-0.301,1.167-0.324,1.788H203.452z"/>
					<path class="st1" d="M220.096,172.178c0,0.78-0.144,1.475-0.432,2.085s-0.698,1.124-1.229,1.542
						c-0.531,0.419-1.163,0.735-1.897,0.949c-0.735,0.215-1.543,0.322-2.424,0.322c-0.543,0-1.06-0.042-1.551-0.127
						c-0.492-0.085-0.933-0.192-1.322-0.322s-0.721-0.266-0.991-0.406c-0.271-0.142-0.47-0.269-0.594-0.382
						c-0.124-0.112-0.215-0.271-0.271-0.475s-0.084-0.48-0.084-0.83c0-0.215,0.011-0.396,0.033-0.543
						c0.022-0.146,0.051-0.266,0.085-0.355c0.034-0.091,0.082-0.155,0.145-0.195c0.062-0.039,0.132-0.06,0.212-0.06
						c0.124,0,0.308,0.077,0.551,0.229c0.242,0.152,0.542,0.319,0.897,0.5c0.356,0.181,0.777,0.348,1.264,0.5
						c0.485,0.152,1.045,0.229,1.678,0.229c0.475,0,0.903-0.051,1.288-0.152c0.384-0.102,0.717-0.252,1-0.449
						c0.282-0.197,0.5-0.449,0.652-0.754c0.152-0.306,0.229-0.667,0.229-1.085c0-0.43-0.109-0.791-0.33-1.085
						s-0.512-0.554-0.873-0.779c-0.361-0.227-0.769-0.427-1.221-0.603c-0.451-0.175-0.918-0.358-1.397-0.55
						c-0.48-0.192-0.949-0.409-1.407-0.652c-0.458-0.243-0.867-0.54-1.229-0.89c-0.362-0.35-0.653-0.768-0.873-1.254
						c-0.221-0.486-0.331-1.068-0.331-1.746c0-0.599,0.116-1.172,0.348-1.72c0.231-0.548,0.579-1.028,1.043-1.44
						c0.463-0.413,1.042-0.743,1.737-0.992c0.694-0.249,1.505-0.373,2.432-0.373c0.407,0,0.813,0.034,1.221,0.102
						c0.406,0.067,0.773,0.152,1.102,0.254c0.327,0.102,0.607,0.212,0.839,0.331s0.407,0.223,0.525,0.313
						c0.119,0.091,0.197,0.169,0.237,0.237s0.068,0.144,0.085,0.229s0.034,0.189,0.051,0.313c0.017,0.125,0.025,0.277,0.025,0.458
						c0,0.192-0.009,0.359-0.025,0.5c-0.017,0.142-0.045,0.257-0.085,0.348s-0.088,0.155-0.144,0.195
						c-0.057,0.04-0.119,0.06-0.187,0.06c-0.102,0-0.249-0.062-0.441-0.187c-0.191-0.125-0.44-0.257-0.745-0.398
						c-0.306-0.141-0.664-0.274-1.076-0.398c-0.413-0.124-0.885-0.187-1.416-0.187c-0.474,0-0.893,0.054-1.254,0.161
						c-0.361,0.107-0.658,0.26-0.89,0.458c-0.231,0.198-0.407,0.433-0.525,0.704c-0.119,0.271-0.178,0.565-0.178,0.881
						c0,0.441,0.112,0.811,0.339,1.11c0.226,0.299,0.52,0.562,0.881,0.788s0.774,0.43,1.237,0.61
						c0.464,0.181,0.936,0.368,1.416,0.56c0.479,0.192,0.954,0.407,1.423,0.644s0.885,0.525,1.246,0.864s0.652,0.746,0.873,1.221
						C219.986,170.957,220.096,171.523,220.096,172.178z"/>
					<path class="st1" d="M233.673,172.178c0,0.78-0.145,1.475-0.433,2.085s-0.697,1.124-1.229,1.542
						c-0.531,0.419-1.164,0.735-1.898,0.949c-0.734,0.215-1.542,0.322-2.424,0.322c-0.542,0-1.06-0.042-1.551-0.127
						s-0.932-0.192-1.322-0.322c-0.39-0.13-0.72-0.266-0.991-0.406c-0.271-0.142-0.469-0.269-0.593-0.382
						c-0.125-0.112-0.215-0.271-0.271-0.475s-0.085-0.48-0.085-0.83c0-0.215,0.011-0.396,0.034-0.543
						c0.022-0.146,0.051-0.266,0.085-0.355c0.033-0.091,0.081-0.155,0.144-0.195c0.062-0.039,0.133-0.06,0.212-0.06
						c0.124,0,0.308,0.077,0.551,0.229s0.543,0.319,0.898,0.5s0.776,0.348,1.263,0.5c0.485,0.152,1.045,0.229,1.678,0.229
						c0.475,0,0.904-0.051,1.288-0.152c0.385-0.102,0.718-0.252,1-0.449s0.5-0.449,0.653-0.754c0.152-0.306,0.229-0.667,0.229-1.085
						c0-0.43-0.11-0.791-0.331-1.085c-0.22-0.294-0.511-0.554-0.872-0.779c-0.362-0.227-0.769-0.427-1.221-0.603
						c-0.452-0.175-0.918-0.358-1.398-0.55s-0.949-0.409-1.406-0.652c-0.458-0.243-0.868-0.54-1.229-0.89
						c-0.361-0.35-0.652-0.768-0.873-1.254c-0.22-0.486-0.33-1.068-0.33-1.746c0-0.599,0.115-1.172,0.348-1.72
						c0.231-0.548,0.579-1.028,1.042-1.44s1.043-0.743,1.737-0.992c0.695-0.249,1.506-0.373,2.433-0.373
						c0.406,0,0.813,0.034,1.22,0.102c0.407,0.067,0.774,0.152,1.102,0.254c0.328,0.102,0.607,0.212,0.84,0.331
						c0.231,0.119,0.406,0.223,0.525,0.313c0.118,0.091,0.197,0.169,0.237,0.237c0.039,0.068,0.067,0.144,0.084,0.229
						c0.018,0.085,0.034,0.189,0.051,0.313c0.018,0.125,0.025,0.277,0.025,0.458c0,0.192-0.008,0.359-0.025,0.5
						c-0.017,0.142-0.045,0.257-0.084,0.348c-0.04,0.09-0.088,0.155-0.145,0.195s-0.118,0.06-0.187,0.06
						c-0.102,0-0.248-0.062-0.44-0.187s-0.44-0.257-0.746-0.398c-0.305-0.141-0.664-0.274-1.076-0.398
						c-0.412-0.124-0.884-0.187-1.415-0.187c-0.475,0-0.893,0.054-1.254,0.161c-0.362,0.107-0.659,0.26-0.891,0.458
						c-0.231,0.198-0.406,0.433-0.525,0.704c-0.118,0.271-0.178,0.565-0.178,0.881c0,0.441,0.113,0.811,0.339,1.11
						c0.227,0.299,0.52,0.562,0.882,0.788c0.361,0.226,0.773,0.43,1.237,0.61c0.463,0.181,0.935,0.368,1.415,0.56
						c0.48,0.192,0.955,0.407,1.424,0.644s0.884,0.525,1.246,0.864c0.361,0.339,0.652,0.746,0.872,1.221
						C233.562,170.957,233.673,171.523,233.673,172.178z"/>
					<path class="st1" d="M250.689,168.043c0,0.441-0.11,0.754-0.332,0.941c-0.222,0.186-0.474,0.279-0.758,0.279h-10.046
						c0,0.848,0.085,1.61,0.256,2.288c0.17,0.678,0.454,1.26,0.852,1.746c0.397,0.485,0.914,0.858,1.55,1.118s1.413,0.39,2.333,0.39
						c0.727,0,1.374-0.059,1.941-0.178c0.568-0.118,1.06-0.251,1.474-0.398c0.414-0.146,0.755-0.279,1.021-0.398
						c0.268-0.118,0.469-0.178,0.605-0.178c0.079,0,0.15,0.02,0.213,0.06s0.11,0.099,0.145,0.178s0.06,0.189,0.076,0.331
						c0.018,0.141,0.026,0.313,0.026,0.517c0,0.146-0.006,0.274-0.018,0.381c-0.011,0.107-0.025,0.204-0.042,0.288
						c-0.018,0.085-0.046,0.161-0.085,0.229c-0.04,0.067-0.091,0.133-0.152,0.194c-0.062,0.062-0.246,0.164-0.551,0.306
						c-0.306,0.142-0.701,0.279-1.187,0.415c-0.486,0.136-1.048,0.257-1.687,0.364s-1.319,0.161-2.042,0.161
						c-1.255,0-2.354-0.176-3.297-0.525c-0.943-0.351-1.737-0.87-2.382-1.56c-0.644-0.688-1.13-1.554-1.457-2.593
						c-0.328-1.04-0.492-2.249-0.492-3.627c0-1.311,0.17-2.489,0.509-3.534c0.339-1.045,0.827-1.932,1.466-2.661
						c0.639-0.729,1.41-1.288,2.313-1.678c0.904-0.39,1.916-0.585,3.034-0.585c1.197,0,2.218,0.192,3.06,0.577
						s1.534,0.901,2.076,1.551s0.94,1.413,1.195,2.288c0.254,0.875,0.381,1.811,0.381,2.805V168.043z M247.876,167.212
						c0.034-1.469-0.293-2.621-0.98-3.458c-0.688-0.836-1.708-1.254-3.062-1.254c-0.693,0-1.302,0.13-1.824,0.39
						c-0.523,0.26-0.961,0.604-1.313,1.034c-0.353,0.43-0.625,0.93-0.818,1.5c-0.193,0.571-0.301,1.167-0.324,1.788H247.876z"/>
					<path class="st1" d="M268.079,176.33c0,0.091-0.022,0.167-0.067,0.229c-0.046,0.062-0.119,0.115-0.221,0.161
						c-0.102,0.045-0.243,0.078-0.424,0.102c-0.181,0.022-0.406,0.033-0.678,0.033c-0.282,0-0.515-0.011-0.695-0.033
						c-0.181-0.023-0.321-0.057-0.424-0.102c-0.102-0.046-0.175-0.1-0.22-0.161c-0.046-0.062-0.068-0.139-0.068-0.229v-8.932
						c0-0.87-0.067-1.57-0.203-2.102s-0.333-0.989-0.593-1.373c-0.261-0.384-0.597-0.678-1.009-0.881
						c-0.413-0.204-0.89-0.305-1.433-0.305c-0.7,0-1.4,0.249-2.102,0.746c-0.7,0.497-1.435,1.226-2.203,2.186v10.661
						c0,0.091-0.022,0.167-0.067,0.229c-0.046,0.062-0.119,0.115-0.221,0.161c-0.102,0.045-0.243,0.078-0.424,0.102
						c-0.181,0.022-0.413,0.033-0.695,0.033c-0.271,0-0.497-0.011-0.678-0.033c-0.181-0.023-0.325-0.057-0.432-0.102
						c-0.108-0.046-0.182-0.1-0.221-0.161c-0.04-0.062-0.06-0.139-0.06-0.229v-15.254c0-0.09,0.018-0.167,0.051-0.229
						c0.034-0.062,0.102-0.119,0.204-0.169c0.102-0.051,0.231-0.085,0.39-0.102c0.158-0.017,0.367-0.025,0.627-0.025
						c0.248,0,0.455,0.009,0.618,0.025c0.164,0.017,0.291,0.051,0.382,0.102c0.09,0.051,0.155,0.107,0.195,0.169
						c0.039,0.062,0.059,0.138,0.059,0.229v2.017c0.858-0.96,1.715-1.664,2.568-2.11c0.853-0.446,1.714-0.669,2.584-0.669
						c1.018,0,1.873,0.172,2.568,0.517s1.257,0.805,1.687,1.381c0.429,0.576,0.737,1.251,0.924,2.025
						c0.187,0.774,0.279,1.704,0.279,2.788V176.33z"/>
					<path class="st1" d="M285.927,161.772c0,0.396-0.054,0.681-0.16,0.856c-0.108,0.175-0.246,0.263-0.416,0.263h-2.187
						c0.396,0.407,0.673,0.856,0.831,1.347c0.158,0.492,0.237,1.003,0.237,1.534c0,0.881-0.142,1.661-0.424,2.339
						c-0.282,0.678-0.687,1.251-1.212,1.72c-0.525,0.47-1.15,0.828-1.873,1.076c-0.723,0.249-1.525,0.373-2.406,0.373
						c-0.622,0-1.212-0.082-1.771-0.245c-0.56-0.164-0.991-0.37-1.297-0.619c-0.203,0.203-0.37,0.436-0.5,0.695
						s-0.194,0.559-0.194,0.898c0,0.396,0.183,0.723,0.551,0.982c0.366,0.261,0.855,0.401,1.466,0.424l3.983,0.17
						c0.757,0.022,1.451,0.127,2.084,0.313s1.181,0.452,1.645,0.796c0.463,0.346,0.824,0.769,1.085,1.271
						c0.26,0.503,0.39,1.088,0.39,1.755c0,0.7-0.147,1.366-0.44,2c-0.294,0.632-0.743,1.188-1.348,1.669s-1.376,0.858-2.313,1.136
						c-0.938,0.276-2.046,0.415-3.322,0.415c-1.231,0-2.279-0.104-3.145-0.313c-0.864-0.209-1.573-0.494-2.127-0.855
						c-0.554-0.362-0.955-0.794-1.203-1.297c-0.249-0.503-0.373-1.048-0.373-1.636c0-0.373,0.045-0.734,0.136-1.085
						c0.09-0.351,0.229-0.684,0.415-1s0.418-0.618,0.695-0.906c0.276-0.288,0.596-0.573,0.957-0.856
						c-0.554-0.282-0.963-0.638-1.229-1.067s-0.398-0.893-0.398-1.39c0-0.689,0.142-1.306,0.424-1.848
						c0.282-0.543,0.633-1.028,1.051-1.458c-0.351-0.418-0.627-0.89-0.83-1.416c-0.204-0.525-0.306-1.161-0.306-1.907
						c0-0.87,0.147-1.649,0.441-2.339c0.293-0.689,0.7-1.271,1.22-1.746s1.145-0.839,1.873-1.093
						c0.729-0.254,1.522-0.381,2.382-0.381c0.463,0,0.895,0.025,1.296,0.076s0.777,0.122,1.127,0.212h4.61
						c0.192,0,0.336,0.093,0.433,0.28C285.879,161.102,285.927,161.387,285.927,161.772z M282.961,177.873
						c0-0.655-0.269-1.161-0.805-1.518c-0.537-0.355-1.263-0.545-2.179-0.567l-3.948-0.136c-0.362,0.282-0.659,0.551-0.891,0.806
						c-0.231,0.254-0.415,0.497-0.551,0.729s-0.229,0.46-0.279,0.687c-0.051,0.226-0.076,0.457-0.076,0.694
						c0,0.734,0.373,1.291,1.118,1.67c0.746,0.378,1.785,0.567,3.119,0.567c0.848,0,1.557-0.082,2.127-0.245
						c0.57-0.164,1.031-0.382,1.381-0.653c0.351-0.271,0.603-0.582,0.755-0.932C282.885,178.624,282.961,178.257,282.961,177.873z
						 M281.555,165.788c0-1.039-0.286-1.85-0.856-2.432c-0.57-0.582-1.381-0.873-2.432-0.873c-0.543,0-1.015,0.091-1.416,0.271
						s-0.734,0.43-1,0.746c-0.266,0.316-0.463,0.681-0.593,1.093c-0.13,0.413-0.195,0.845-0.195,1.297
						c0,1.006,0.285,1.796,0.856,2.373c0.57,0.576,1.37,0.865,2.398,0.865c0.553,0,1.033-0.087,1.44-0.263
						c0.406-0.175,0.743-0.418,1.009-0.729c0.265-0.311,0.463-0.669,0.593-1.076S281.555,166.229,281.555,165.788z"/>
					<path class="st1" d="M302.249,168.043c0,0.441-0.11,0.754-0.332,0.941c-0.222,0.186-0.474,0.279-0.758,0.279h-10.046
						c0,0.848,0.085,1.61,0.256,2.288c0.17,0.678,0.454,1.26,0.852,1.746c0.397,0.485,0.914,0.858,1.55,1.118s1.413,0.39,2.333,0.39
						c0.727,0,1.374-0.059,1.941-0.178c0.568-0.118,1.06-0.251,1.474-0.398c0.414-0.146,0.755-0.279,1.021-0.398
						c0.268-0.118,0.469-0.178,0.605-0.178c0.079,0,0.15,0.02,0.213,0.06s0.11,0.099,0.145,0.178s0.06,0.189,0.076,0.331
						c0.018,0.141,0.026,0.313,0.026,0.517c0,0.146-0.006,0.274-0.018,0.381c-0.011,0.107-0.025,0.204-0.042,0.288
						c-0.018,0.085-0.046,0.161-0.085,0.229c-0.04,0.067-0.091,0.133-0.152,0.194c-0.062,0.062-0.246,0.164-0.551,0.306
						c-0.306,0.142-0.701,0.279-1.187,0.415c-0.486,0.136-1.048,0.257-1.687,0.364s-1.319,0.161-2.042,0.161
						c-1.255,0-2.354-0.176-3.297-0.525c-0.943-0.351-1.737-0.87-2.382-1.56c-0.644-0.688-1.13-1.554-1.457-2.593
						c-0.328-1.04-0.492-2.249-0.492-3.627c0-1.311,0.17-2.489,0.509-3.534c0.339-1.045,0.827-1.932,1.466-2.661
						c0.639-0.729,1.41-1.288,2.313-1.678c0.904-0.39,1.916-0.585,3.034-0.585c1.197,0,2.218,0.192,3.06,0.577
						s1.534,0.901,2.076,1.551s0.94,1.413,1.195,2.288c0.254,0.875,0.381,1.811,0.381,2.805V168.043z M299.435,167.212
						c0.034-1.469-0.293-2.621-0.98-3.458c-0.688-0.836-1.708-1.254-3.062-1.254c-0.693,0-1.302,0.13-1.824,0.39
						c-0.523,0.26-0.961,0.604-1.313,1.034c-0.353,0.43-0.625,0.93-0.818,1.5c-0.193,0.571-0.301,1.167-0.324,1.788H299.435z"/>
					<path class="st1" d="M315.418,162.076c0,0.249-0.005,0.458-0.017,0.627s-0.034,0.302-0.067,0.398
						c-0.034,0.096-0.076,0.17-0.127,0.221c-0.052,0.051-0.122,0.076-0.212,0.076c-0.091,0-0.201-0.025-0.331-0.076
						s-0.277-0.102-0.44-0.153c-0.164-0.051-0.348-0.099-0.551-0.144c-0.203-0.045-0.424-0.068-0.661-0.068
						c-0.282,0-0.56,0.057-0.831,0.17c-0.271,0.113-0.557,0.299-0.855,0.559c-0.3,0.26-0.613,0.604-0.94,1.034
						c-0.328,0.43-0.689,0.955-1.085,1.577v10.033c0,0.091-0.022,0.167-0.067,0.229c-0.046,0.062-0.119,0.115-0.221,0.161
						c-0.102,0.045-0.243,0.078-0.424,0.102c-0.181,0.022-0.413,0.033-0.695,0.033c-0.271,0-0.497-0.011-0.678-0.033
						c-0.181-0.023-0.325-0.057-0.432-0.102c-0.108-0.046-0.182-0.1-0.221-0.161c-0.04-0.062-0.06-0.139-0.06-0.229v-15.254
						c0-0.09,0.018-0.167,0.051-0.229c0.034-0.062,0.102-0.119,0.204-0.169c0.102-0.051,0.231-0.085,0.39-0.102
						c0.158-0.017,0.367-0.025,0.627-0.025c0.248,0,0.455,0.009,0.618,0.025c0.164,0.017,0.291,0.051,0.382,0.102
						c0.09,0.051,0.155,0.107,0.195,0.169c0.039,0.062,0.059,0.138,0.059,0.229v2.221c0.418-0.61,0.811-1.107,1.179-1.492
						c0.366-0.384,0.714-0.687,1.042-0.907c0.327-0.22,0.652-0.373,0.975-0.458c0.322-0.085,0.646-0.127,0.975-0.127
						c0.146,0,0.313,0.009,0.5,0.025c0.187,0.017,0.381,0.048,0.585,0.093c0.203,0.045,0.387,0.096,0.551,0.153
						c0.163,0.057,0.279,0.113,0.347,0.169c0.068,0.057,0.113,0.11,0.136,0.161c0.022,0.051,0.043,0.116,0.06,0.195
						s0.028,0.195,0.034,0.347C315.415,161.61,315.418,161.817,315.418,162.076z"/>
				</g>
			</g>
			<g>
				<path class="st2" d="M102.836,176.314c0,0.091-0.023,0.17-0.07,0.237c-0.046,0.067-0.128,0.121-0.245,0.161
					c-0.116,0.04-0.265,0.073-0.445,0.102c-0.181,0.028-0.416,0.042-0.707,0.042c-0.268,0-0.498-0.014-0.689-0.042
					s-0.343-0.062-0.454-0.102s-0.189-0.094-0.236-0.161c-0.046-0.067-0.069-0.146-0.069-0.237v-19.102h-0.034l-7.729,19.187
					c-0.034,0.079-0.082,0.146-0.144,0.203c-0.062,0.057-0.153,0.104-0.271,0.145c-0.119,0.039-0.26,0.067-0.424,0.084
					c-0.164,0.018-0.358,0.025-0.584,0.025c-0.237,0-0.441-0.011-0.61-0.033c-0.169-0.023-0.311-0.054-0.424-0.094
					c-0.113-0.039-0.201-0.087-0.263-0.144s-0.104-0.119-0.127-0.187l-7.39-19.187h-0.017v19.102c0,0.091-0.023,0.17-0.07,0.237
					c-0.047,0.067-0.128,0.121-0.245,0.161s-0.268,0.073-0.454,0.102c-0.186,0.028-0.424,0.042-0.715,0.042
					c-0.279,0-0.512-0.014-0.698-0.042c-0.187-0.028-0.334-0.062-0.445-0.102s-0.186-0.094-0.227-0.161
					c-0.041-0.067-0.061-0.146-0.061-0.237v-20.169c0-0.475,0.126-0.813,0.379-1.017c0.252-0.203,0.533-0.305,0.843-0.305h1.79
					c0.367,0,0.688,0.034,0.964,0.102s0.516,0.175,0.723,0.322c0.207,0.147,0.378,0.333,0.516,0.56s0.258,0.492,0.362,0.796
					l6.271,15.882h0.085l6.525-15.831c0.126-0.339,0.264-0.627,0.413-0.865s0.313-0.426,0.491-0.568
					c0.178-0.141,0.375-0.243,0.594-0.305c0.218-0.062,0.471-0.093,0.758-0.093h1.877c0.172,0,0.335,0.025,0.491,0.076
					c0.155,0.051,0.287,0.13,0.396,0.237s0.198,0.243,0.267,0.407c0.069,0.164,0.103,0.364,0.103,0.602V176.314z"/>
				<path class="st2" d="M121.362,168.043c0,0.441-0.111,0.754-0.332,0.941c-0.222,0.186-0.474,0.279-0.758,0.279h-10.046
					c0,0.848,0.085,1.61,0.255,2.288s0.454,1.26,0.852,1.746c0.397,0.485,0.914,0.858,1.55,1.118s1.414,0.39,2.333,0.39
					c0.727,0,1.374-0.059,1.941-0.178c0.568-0.118,1.059-0.251,1.473-0.398c0.415-0.146,0.755-0.279,1.022-0.398
					c0.267-0.118,0.469-0.178,0.605-0.178c0.08,0,0.15,0.02,0.213,0.06s0.11,0.099,0.145,0.178s0.06,0.189,0.077,0.331
					c0.017,0.141,0.026,0.313,0.026,0.517c0,0.146-0.006,0.274-0.017,0.381c-0.011,0.107-0.025,0.204-0.042,0.288
					c-0.017,0.085-0.045,0.161-0.084,0.229c-0.04,0.067-0.091,0.133-0.153,0.194c-0.062,0.062-0.246,0.164-0.551,0.306
					s-0.701,0.279-1.187,0.415s-1.048,0.257-1.687,0.364c-0.638,0.107-1.319,0.161-2.042,0.161c-1.254,0-2.354-0.176-3.297-0.525
					c-0.943-0.351-1.737-0.87-2.381-1.56c-0.644-0.688-1.13-1.554-1.458-2.593c-0.328-1.04-0.492-2.249-0.492-3.627
					c0-1.311,0.169-2.489,0.509-3.534c0.339-1.045,0.827-1.932,1.466-2.661c0.638-0.729,1.41-1.288,2.313-1.678
					s1.916-0.585,3.034-0.585c1.197,0,2.217,0.192,3.059,0.577s1.534,0.901,2.077,1.551c0.542,0.65,0.94,1.413,1.195,2.288
					c0.254,0.875,0.381,1.811,0.381,2.805V168.043z M118.549,167.212c0.034-1.469-0.293-2.621-0.981-3.458
					c-0.688-0.836-1.708-1.254-3.061-1.254c-0.693,0-1.302,0.13-1.825,0.39s-0.96,0.604-1.313,1.034
					c-0.353,0.43-0.625,0.93-0.819,1.5c-0.193,0.571-0.301,1.167-0.324,1.788H118.549z"/>
				<path class="st2" d="M138.752,176.33c0,0.091-0.023,0.167-0.068,0.229c-0.045,0.062-0.119,0.115-0.22,0.161
					c-0.102,0.045-0.243,0.078-0.424,0.102c-0.181,0.022-0.407,0.033-0.678,0.033c-0.282,0-0.514-0.011-0.695-0.033
					c-0.181-0.023-0.322-0.057-0.424-0.102c-0.102-0.046-0.175-0.1-0.22-0.161c-0.045-0.062-0.068-0.139-0.068-0.229v-8.932
					c0-0.87-0.068-1.57-0.203-2.102c-0.136-0.531-0.333-0.989-0.593-1.373c-0.26-0.384-0.596-0.678-1.009-0.881
					s-0.89-0.305-1.432-0.305c-0.701,0-1.401,0.249-2.102,0.746c-0.701,0.497-1.435,1.226-2.204,2.186v10.661
					c0,0.091-0.022,0.167-0.067,0.229c-0.045,0.062-0.119,0.115-0.221,0.161c-0.102,0.045-0.243,0.078-0.423,0.102
					c-0.181,0.022-0.413,0.033-0.695,0.033c-0.271,0-0.497-0.011-0.678-0.033c-0.181-0.023-0.325-0.057-0.432-0.102
					c-0.108-0.046-0.181-0.1-0.221-0.161c-0.04-0.062-0.059-0.139-0.059-0.229v-15.254c0-0.09,0.017-0.167,0.051-0.229
					s0.102-0.119,0.204-0.169c0.102-0.051,0.231-0.085,0.39-0.102c0.158-0.017,0.367-0.025,0.627-0.025
					c0.249,0,0.455,0.009,0.619,0.025c0.164,0.017,0.291,0.051,0.381,0.102s0.155,0.107,0.195,0.169
					c0.039,0.062,0.059,0.138,0.059,0.229v2.017c0.858-0.96,1.714-1.664,2.568-2.11c0.853-0.446,1.714-0.669,2.584-0.669
					c1.017,0,1.873,0.172,2.568,0.517c0.695,0.345,1.257,0.805,1.687,1.381c0.429,0.576,0.737,1.251,0.924,2.025
					c0.187,0.774,0.28,1.704,0.28,2.788V176.33z"/>
				<path class="st2" d="M155.346,176.348c0,0.136-0.046,0.237-0.136,0.305c-0.091,0.068-0.215,0.119-0.373,0.152
					c-0.158,0.034-0.39,0.051-0.695,0.051c-0.294,0-0.528-0.017-0.703-0.051c-0.175-0.033-0.303-0.084-0.381-0.152
					c-0.08-0.067-0.119-0.169-0.119-0.305v-1.525c-0.667,0.712-1.409,1.266-2.229,1.661c-0.82,0.395-1.687,0.593-2.602,0.593
					c-0.803,0-1.528-0.104-2.178-0.313s-1.203-0.511-1.661-0.907c-0.458-0.396-0.813-0.881-1.067-1.457
					c-0.254-0.576-0.381-1.231-0.381-1.967c0-0.858,0.175-1.604,0.525-2.237c0.35-0.632,0.853-1.157,1.508-1.576
					c0.655-0.418,1.458-0.731,2.407-0.94s2.017-0.313,3.204-0.313h2.102v-1.187c0-0.587-0.062-1.107-0.187-1.56
					c-0.124-0.452-0.324-0.828-0.602-1.127s-0.636-0.525-1.076-0.678c-0.44-0.152-0.983-0.229-1.627-0.229
					c-0.689,0-1.308,0.082-1.856,0.246c-0.548,0.164-1.028,0.345-1.44,0.542c-0.413,0.198-0.757,0.378-1.034,0.542
					c-0.277,0.164-0.483,0.246-0.619,0.246c-0.09,0-0.169-0.022-0.237-0.068c-0.067-0.045-0.127-0.113-0.178-0.203
					s-0.088-0.206-0.11-0.348c-0.022-0.141-0.034-0.296-0.034-0.466c0-0.282,0.02-0.505,0.059-0.669
					c0.04-0.164,0.136-0.319,0.288-0.466c0.153-0.147,0.416-0.319,0.789-0.517c0.373-0.198,0.802-0.378,1.288-0.542
					c0.485-0.164,1.017-0.299,1.593-0.407c0.576-0.107,1.158-0.161,1.746-0.161c1.096,0,2.028,0.125,2.797,0.373
					s1.39,0.613,1.864,1.093c0.475,0.48,0.819,1.076,1.034,1.788c0.214,0.712,0.322,1.542,0.322,2.492V176.348z M152.565,169.381
					h-2.39c-0.769,0-1.436,0.065-2,0.195c-0.565,0.13-1.034,0.322-1.407,0.576c-0.373,0.254-0.647,0.56-0.822,0.915
					c-0.175,0.356-0.263,0.766-0.263,1.229c0,0.791,0.251,1.421,0.754,1.89c0.502,0.469,1.206,0.703,2.11,0.703
					c0.734,0,1.416-0.187,2.042-0.56c0.627-0.372,1.285-0.943,1.975-1.712V169.381z"/>
			</g>
		</g>
	</g>
	<g>
		<path class="st0" d="M30.166,172.923c-4.297-0.139-7.783-3.182-8.176-7.053h-5.136c0.133,6.739,5.639,12.165,12.423,12.165h0.889
			V172.923z"/>
		<path class="st0" d="M53.562,172.936H30.273c-0.098,0-0.193-0.009-0.291-0.012v5.111h23.58V172.936z"/>
		<path class="st3" d="M60.045,153.998c0.001,0.049,0.008,0.097,0.008,0.146v18.792h-7.142v5.099h12.25v-24.036H60.045z"/>
		<path class="st0" d="M16.848,165.87h0.006c-0.002-0.083-0.012-0.164-0.012-0.247C16.842,165.706,16.847,165.787,16.848,165.87z"/>
		<path class="st0" d="M21.95,153.925c0-0.051,0.007-0.101,0.008-0.152h-5.116v12.074c0,0.087,0.011,0.17,0.012,0.256h5.136
			c-0.024-0.249-0.04-0.501-0.04-0.757V153.925z"/>
		<path class="st4" d="M52.725,141.251H30.401v5.102c0.024,0,0.046-0.003,0.07-0.003h21.061c4.652,0,8.427,3.412,8.513,7.649h5.116
			v-0.336C65.161,146.808,59.593,141.251,52.725,141.251z"/>
		<path class="st5" d="M30.376,141.251h-1.098c-6.868,0-12.436,5.557-12.436,12.412v0.31h5.118c0.1-4.196,3.818-7.572,8.416-7.619
			V141.251z"/>
	</g>
</g>
<g>
</g>
<g>
</g>
<g>
</g>
<g>
</g>
<g>
</g>
<g>
</g>
</svg>
