<svg xmlns="http://www.w3.org/2000/svg" xmlns:xlink="http://www.w3.org/1999/xlink" viewBox="0 0 770.13 186.64"><defs><linearGradient id="New_Gradient_Swatch_1" y1="93.32" x2="770.13" y2="93.32" gradientUnits="userSpaceOnUse"><stop offset="0" stop-color="#003f81"/><stop offset="1" stop-color="#51b8f5"/></linearGradient><linearGradient id="New_Gradient_Swatch_1-12" y1="93.32" x2="770.13" y2="93.32" gradientTransform="translate(33.15 -67.13) rotate(9.22)" xlink:href="#New_Gradient_Swatch_1"/><linearGradient id="New_Gradient_Swatch_1-13" y1="93.32" x2="770.13" y2="93.32" gradientTransform="translate(28.74 -5.84) rotate(9.22)" xlink:href="#New_Gradient_Swatch_1"/></defs><g id="Layer_2" data-name="Layer 2"><g id="Layer_1-2" data-name="Layer 1"><polygon points="428.34 43.98 388.27 0 388.27 29.77 489.46 140.83 489.46 140.82 529.53 184.8 529.53 155.03 428.34 43.97 428.34 43.98" style="fill:url(#New_Gradient_Swatch_1)"/><polygon points="668.39 7.56 655.51 29.88 577.88 165.37 566.55 185.25 592.1 185.25 603.53 165.37 668.39 52.2 668.39 52.09 681.17 29.88 682.83 26.88 671.73 1.67 668.39 7.56" style="fill:url(#New_Gradient_Swatch_1)"/><polygon points="758.8 165.37 699.27 61.53 686.5 83.85 733.25 165.37 744.58 185.25 770.13 185.25 758.8 165.37" style="fill:url(#New_Gradient_Swatch_1)"/><polygon points="19.88 23.42 17.21 20.53 0 1.65 0 31.41 19.88 53.18 101.15 142.44 101.15 142.49 101.17 142.46 101.18 142.47 101.18 142.46 202.34 31.43 202.34 1.66 101.17 112.7 19.88 23.42" style="fill:url(#New_Gradient_Swatch_1)"/><polygon points="0 185.29 19.88 185.29 19.88 92.67 0 70.9 0 185.29" style="fill:url(#New_Gradient_Swatch_1)"/><polygon points="383.75 185.29 403.63 185.29 403.63 92.67 383.75 70.9 383.75 185.29" style="fill:url(#New_Gradient_Swatch_1)"/><polygon points="509.88 94.28 529.76 116.05 529.76 1.66 509.88 1.66 509.88 94.28" style="fill:url(#New_Gradient_Swatch_1)"/><polygon points="253.17 1.66 240.4 1.66 240.4 9.6 240.4 13.32 240.4 19.48 240.4 21.54 240.4 70.9 240.4 89.12 240.4 94.78 240.4 103 240.4 133.87 240.4 177.07 240.4 185.29 260.28 185.29 345.8 185.29 345.8 165.41 260.28 165.41 260.28 133.87 260.28 103 260.28 92.67 260.28 89.12 260.28 83.12 260.28 41.25 260.28 21.54 304.37 21.54 345.8 21.54 345.8 1.66 304.37 1.66 253.17 1.66" style="fill:url(#New_Gradient_Swatch_1)"/><rect x="286.14" y="83.12" width="44.63" height="19.88" style="fill:url(#New_Gradient_Swatch_1)"/><polygon points="182.46 185.29 202.34 185.29 202.34 70.9 182.46 92.67 182.46 185.29" style="fill:url(#New_Gradient_Swatch_1)"/><circle cx="617.84" cy="12.96" r="11.29" style="fill:url(#New_Gradient_Swatch_1)"/><circle cx="432.96" cy="172.04" r="11.29" transform="translate(-21.97 71.57) rotate(-9.22)" style="fill:url(#New_Gradient_Swatch_1-12)"/><circle cx="50.59" cy="175.35" r="11.29" transform="translate(-27.43 10.37) rotate(-9.22)" style="fill:url(#New_Gradient_Swatch_1-13)"/></g></g></svg>