<svg version="1.2" xmlns="http://www.w3.org/2000/svg" viewBox="0 0 342 54" width="342" height="54">
    <style>
        .a{fill:#404041}.b{fill:#4272b7}.c{fill:#f89820}.d{fill:#e52e25}.e{fill:#33a852}.f{fill:#5b5c5e}.g{fill:#5b5c5e;stroke:#5b5c5e;stroke-miterlimit:10;stroke-width:.5}
    </style>
    <path class="a"
        d="m26.7 33.9q0 0.2-0.1 0.4-0.2 0.2-0.5 0.2h-6.5q-0.4 0-0.6-0.4-0.1-0.3 0.1-0.6l5.8-8.5q0.2-0.5 0.2-1 0-1.1-0.7-1.9-0.8-0.7-1.9-0.7-1.1 0-1.8 0.7-0.8 0.8-0.8 1.9 0 0.1 0 0.2 0 0.2-0.1 0.4-0.2 0.2-0.5 0.2-0.2 0-0.4-0.2-0.2-0.1-0.2-0.4 0-0.1 0-0.2 0-1.6 1.1-2.7 1.1-1.1 2.7-1.1 1.6 0 2.7 1.1 1.1 1.1 1.1 2.7 0 0.8-0.3 1.5 0 0.1-0.1 0.1l-5.2 7.7h5.4q0.3 0 0.5 0.1 0.1 0.2 0.1 0.5z" />
    <path fill-rule="evenodd" class="a"
        d="m33.7 20.2q1.6 0 2.7 1.1 1.2 1.1 1.2 2.7 0 0.6-0.2 1.3 0 0 0 0l-3.1 8.8q-0.2 0.4-0.6 0.4-0.1 0-0.2-0.1-0.2-0.1-0.3-0.3-0.1-0.2-0.1-0.4l2.2-6.1q-0.8 0.3-1.6 0.3-1.6 0-2.7-1.1-1.2-1.2-1.2-2.8 0-1.6 1.2-2.7 1.1-1.1 2.7-1.1zm-2.7 3.8q0 1.1 0.8 1.9 0.8 0.8 1.9 0.8 1.1 0 1.9-0.8 0.8-0.8 0.8-1.9 0-1.1-0.8-1.9-0.8-0.8-1.9-0.8-1.1 0-1.9 0.8-0.8 0.8-0.8 1.9z" />
    <path class="b"
        d="m8.9 33.4v-21.6h-5.2v21.6c0 1.5 1.2 2.6 2.6 2.6h0.1c1.4 0 2.5-1.1 2.5-2.6z" />
    <path class="c"
        d="m46.7 39.3c0 3.9-3.1 7-6.9 7h-18.3c-1.5 0-2.6 1.2-2.6 2.6v0.1c0 1.4 1.1 2.6 2.6 2.6h19.3c6 0 11-5 11-11v-25.8h-5.1c0 0 0 24.5 0 24.5z" />
    <path class="b"
        d="m3.7 6.5v8.3h5.2v-5.8c0-0.8 0.7-1.5 1.5-1.5h34.8c0.9 0 1.5 0.7 1.5 1.5v5.8h5.1v-8.3c0-2.4-1.9-4.3-4.3-4.3h-39.5c-2.4 0-4.3 1.9-4.3 4.3z" />
    <path class="d"
        d="m39.5 46.3h-18c-1.5 0-2.6 1.2-2.6 2.6v0.1c0 1.4 1.1 2.6 2.6 2.6h18c0 0 0-5.3 0-5.3z" />
    <path class="e" d="m46.7 14.8h5.1v19.9h-5.1z" />
    <path class="f"
        d="m26.7 33.9q0 0.2-0.1 0.4-0.2 0.2-0.5 0.2h-6.5q-0.4 0-0.6-0.4-0.1-0.3 0.1-0.6l5.8-8.5q0.2-0.5 0.2-1 0-1.1-0.7-1.9-0.8-0.7-1.9-0.7-1.1 0-1.8 0.7-0.8 0.8-0.8 1.9 0 0.1 0 0.2 0 0.2-0.1 0.4-0.2 0.2-0.5 0.2-0.2 0-0.4-0.2-0.2-0.1-0.2-0.4 0-0.1 0-0.2 0-1.6 1.1-2.7 1.1-1.1 2.7-1.1 1.6 0 2.7 1.1 1.1 1.1 1.1 2.7 0 0.8-0.3 1.5 0 0.1-0.1 0.1l-5.2 7.7h5.4q0.3 0 0.5 0.1 0.1 0.2 0.1 0.5z" />
    <path fill-rule="evenodd" class="f"
        d="m33.7 20.2q1.6 0 2.7 1.1 1.2 1.1 1.2 2.7 0 0.6-0.2 1.3 0 0 0 0l-3.1 8.8q-0.2 0.4-0.6 0.4-0.1 0-0.2-0.1-0.2-0.1-0.3-0.3-0.1-0.2-0.1-0.4l2.2-6.1q-0.8 0.3-1.6 0.3-1.6 0-2.7-1.1-1.2-1.2-1.2-2.8 0-1.6 1.2-2.7 1.1-1.1 2.7-1.1zm-2.7 3.8q0 1.1 0.8 1.9 0.8 0.8 1.9 0.8 1.1 0 1.9-0.8 0.8-0.8 0.8-1.9 0-1.1-0.8-1.9-0.8-0.8-1.9-0.8-1.1 0-1.9 0.8-0.8 0.8-0.8 1.9z" />
    <path class="b"
        d="m8.6 51.3c-2.6 0-4.8-2.1-4.8-4.8v-0.4c0-2.7 2.2-4.9 4.8-4.9 2.7 0 4.9 2.2 4.9 4.9v0.4c0 2.7-2.2 4.8-4.9 4.8z" />
    <path fill-rule="evenodd" class="f"
        d="m175.6 37.2q0.2 0.4 0.2 0.6 0 0.3-0.1 0.4-0.2 0.1-0.5 0.1-0.3 0.1-0.8 0.1-0.5 0-0.9-0.1-0.3 0-0.4 0-0.2-0.1-0.3-0.2 0-0.1-0.1-0.2l-1.9-5.3h-9l-1.8 5.2q0 0.1-0.1 0.2-0.1 0.2-0.3 0.2-0.1 0.1-0.4 0.1-0.3 0.1-0.8 0.1-0.5 0-0.8-0.1-0.3 0-0.4-0.1-0.2-0.1-0.1-0.4 0-0.2 0.1-0.6l7.3-20.2q0.1-0.2 0.2-0.3 0.1-0.1 0.3-0.2 0.2 0 0.5 0 0.4-0.1 0.9-0.1 0.5 0 0.8 0.1 0.4 0 0.6 0 0.2 0.1 0.4 0.2 0.1 0.2 0.1 0.3zm-9.3-17.8l-3.8 10.9h7.6z" />
    <path fill-rule="evenodd" class="f"
        d="m192.9 30.1q0 1.9-0.5 3.5-0.4 1.6-1.2 2.7-0.9 1.1-2.1 1.7-1.2 0.6-2.8 0.6-0.7 0-1.2-0.1-0.6-0.2-1.2-0.5-0.5-0.2-1-0.7-0.6-0.4-1.2-1v7.6q0 0.1-0.1 0.2 0 0.1-0.2 0.2-0.1 0-0.4 0.1-0.3 0-0.7 0-0.4 0-0.7 0-0.2-0.1-0.4-0.1-0.1-0.1-0.2-0.2-0.1-0.1-0.1-0.2v-21.2q0-0.1 0.1-0.2 0-0.1 0.2-0.2 0.1 0 0.4-0.1 0.2 0 0.6 0 0.3 0 0.5 0 0.3 0.1 0.4 0.1 0.2 0.1 0.2 0.2 0.1 0.1 0.1 0.2v2.1q0.7-0.7 1.3-1.3 0.6-0.5 1.3-0.8 0.6-0.4 1.3-0.6 0.7-0.1 1.5-0.1 1.6 0 2.8 0.6 1.1 0.6 1.9 1.8 0.7 1.1 1 2.5 0.4 1.5 0.4 3.2zm-2.9 0.3q0-1.2-0.2-2.3-0.2-1.1-0.6-1.9-0.4-0.8-1.2-1.3-0.7-0.5-1.8-0.5-0.5 0-1 0.1-0.6 0.2-1.1 0.5-0.5 0.4-1.1 0.9-0.6 0.6-1.3 1.4v6q1.2 1.4 2.2 2.2 1 0.7 2.2 0.7 1 0 1.8-0.5 0.7-0.5 1.2-1.3 0.4-0.9 0.7-1.9 0.2-1.1 0.2-2.1z" />
    <path fill-rule="evenodd" class="f"
        d="m210.9 30.1q0 1.9-0.4 3.5-0.4 1.6-1.2 2.7-0.9 1.1-2.1 1.7-1.2 0.6-2.8 0.6-0.7 0-1.3-0.1-0.5-0.2-1.1-0.5-0.5-0.2-1.1-0.7-0.5-0.4-1.1-1v7.6q0 0.1-0.1 0.2 0 0.1-0.2 0.2-0.1 0-0.4 0.1-0.3 0-0.7 0-0.4 0-0.7 0-0.2-0.1-0.4-0.1-0.2-0.1-0.2-0.2-0.1-0.1-0.1-0.2v-21.2q0-0.1 0.1-0.2 0-0.1 0.2-0.2 0.1 0 0.4-0.1 0.2 0 0.5 0 0.4 0 0.6 0 0.2 0.1 0.4 0.1 0.1 0.1 0.2 0.2 0.1 0.1 0.1 0.2v2.1q0.6-0.7 1.3-1.3 0.6-0.5 1.3-0.8 0.6-0.4 1.3-0.6 0.7-0.1 1.4-0.1 1.7 0 2.8 0.6 1.2 0.6 1.9 1.8 0.8 1.1 1.1 2.5 0.3 1.5 0.3 3.2zm-2.8 0.3q0-1.2-0.2-2.3-0.2-1.1-0.6-1.9-0.5-0.8-1.2-1.3-0.7-0.5-1.8-0.5-0.5 0-1.1 0.1-0.5 0.2-1 0.5-0.6 0.4-1.1 0.9-0.6 0.6-1.3 1.4v6q1.1 1.4 2.2 2.2 1 0.7 2.1 0.7 1.1 0 1.8-0.5 0.8-0.5 1.3-1.3 0.4-0.9 0.6-1.9 0.3-1.1 0.3-2.1z" />
    <path fill-rule="evenodd" class="f"
        d="m229.2 30.1q0 1.9-0.5 3.4-0.5 1.6-1.5 2.7-0.9 1.1-2.4 1.8-1.4 0.6-3.4 0.6-1.8 0-3.2-0.6-1.4-0.5-2.3-1.6-0.9-1-1.4-2.5-0.5-1.6-0.4-3.5-0.1-1.8 0.4-3.4 0.5-1.5 1.5-2.7 0.9-1.1 2.4-1.7 1.4-0.6 3.4-0.6 1.8 0 3.2 0.5 1.4 0.6 2.3 1.6 1 1.1 1.4 2.6 0.5 1.5 0.5 3.4zm-2.9 0.2q0-1.2-0.2-2.3-0.3-1.1-0.8-1.9-0.5-0.8-1.4-1.3-0.9-0.5-2.2-0.5-1.3 0-2.2 0.4-0.9 0.5-1.4 1.3-0.6 0.8-0.9 1.9-0.3 1-0.3 2.3 0 1.3 0.3 2.4 0.2 1.1 0.7 1.9 0.6 0.8 1.4 1.3 0.9 0.5 2.3 0.5 1.2 0 2.1-0.5 0.9-0.4 1.5-1.2 0.6-0.8 0.8-1.9 0.3-1.1 0.3-2.4z" />
    <path class="f"
        d="m236.4 17.6q0 1-0.4 1.3-0.4 0.4-1.4 0.4-1 0-1.3-0.3-0.4-0.4-0.4-1.3 0-1 0.4-1.4 0.4-0.3 1.4-0.3 0.9 0 1.3 0.3 0.3 0.4 0.4 1.3zm-0.4 20.3q0 0.1 0 0.2-0.1 0.1-0.3 0.1-0.1 0.1-0.4 0.1-0.2 0.1-0.7 0.1-0.4 0-0.6-0.1-0.3 0-0.5-0.1-0.1 0-0.2-0.1 0-0.1 0-0.2v-15.2q0-0.1 0-0.2 0.1-0.1 0.2-0.2 0.2 0 0.5-0.1 0.2 0 0.6 0 0.5 0 0.7 0 0.3 0.1 0.4 0.1 0.2 0.1 0.3 0.2 0 0.1 0 0.2z" />
    <path class="f"
        d="m254.2 37.9q0 0.1-0.1 0.2-0.1 0.1-0.2 0.1-0.2 0.1-0.4 0.1-0.3 0.1-0.7 0.1-0.4 0-0.7-0.1-0.3 0-0.4-0.1-0.2 0-0.2-0.1-0.1-0.1-0.1-0.2v-8.9q0-1.3-0.2-2.1-0.2-0.8-0.6-1.3-0.4-0.6-1-0.9-0.6-0.3-1.4-0.3-1 0-2.1 0.7-1 0.8-2.2 2.2v10.6q0 0.1 0 0.2-0.1 0.1-0.3 0.1-0.1 0.1-0.4 0.1-0.2 0.1-0.7 0.1-0.4 0-0.6-0.1-0.3 0-0.5-0.1-0.1 0-0.2-0.1 0-0.1 0-0.2v-15.2q0-0.1 0-0.2 0.1-0.1 0.2-0.2 0.2 0 0.4-0.1 0.2 0 0.6 0 0.4 0 0.6 0 0.3 0.1 0.4 0.1 0.1 0.1 0.2 0.2 0.1 0.1 0.1 0.2v2q1.2-1.4 2.5-2.1 1.3-0.6 2.6-0.6 1.5 0 2.5 0.5 1 0.5 1.7 1.4 0.6 0.8 0.9 2 0.3 1.1 0.3 2.7c0 0 0 9.3 0 9.3z" />
    <path class="f"
        d="m266.8 36.7q0 0.5-0.1 0.8 0 0.3-0.2 0.4-0.1 0.2-0.4 0.3-0.3 0.1-0.6 0.2-0.3 0.1-0.7 0.1-0.4 0.1-0.8 0.1-1.2 0-2-0.4-0.9-0.3-1.4-0.9-0.5-0.6-0.8-1.6-0.2-1-0.2-2.3v-8.8h-2.1q-0.3 0-0.4-0.3-0.2-0.2-0.2-0.9 0-0.3 0-0.5 0.1-0.2 0.2-0.3 0-0.2 0.1-0.3 0.1 0 0.3 0h2.1v-3.6q0-0.1 0-0.2 0.1-0.1 0.3-0.2 0.1-0.1 0.4-0.1 0.3 0 0.7 0 0.4 0 0.6 0 0.3 0 0.5 0.1 0.1 0.1 0.2 0.2 0 0.1 0 0.2v3.6h3.9q0.2 0 0.3 0 0.1 0.1 0.1 0.3 0.1 0.1 0.2 0.3 0 0.2 0 0.5 0 0.7-0.2 0.9-0.1 0.3-0.4 0.3h-3.9v8.4q0 1.6 0.5 2.4 0.5 0.8 1.7 0.8 0.4 0 0.7-0.1 0.3-0.1 0.5-0.1 0.2-0.1 0.4-0.2 0.2-0.1 0.3-0.1 0.1 0 0.2 0.1 0 0 0.1 0.1 0 0.1 0.1 0.3 0 0.2 0 0.5z" />
    <path class="f"
        d="m292.9 37.9q0 0.1-0.1 0.2-0.1 0.1-0.2 0.1-0.2 0.1-0.4 0.1-0.3 0.1-0.7 0.1-0.4 0-0.7-0.1-0.3 0-0.4-0.1-0.2 0-0.2-0.1-0.1-0.1-0.1-0.2v-9.2q0-1-0.2-1.8-0.1-0.8-0.5-1.3-0.4-0.6-1-0.9-0.5-0.3-1.3-0.3-1 0-1.9 0.7-1 0.8-2.1 2.2v10.6q0 0.1-0.1 0.2-0.1 0.1-0.2 0.1-0.2 0.1-0.5 0.1-0.2 0.1-0.6 0.1-0.4 0-0.7-0.1-0.3 0-0.4-0.1-0.2 0-0.3-0.1 0-0.1 0-0.2v-9.2q0-1-0.2-1.8-0.2-0.8-0.6-1.3-0.3-0.6-0.9-0.9-0.6-0.3-1.3-0.3-1 0-2 0.7-0.9 0.8-2.1 2.2v10.6q0 0.1 0 0.2-0.1 0.1-0.3 0.1-0.1 0.1-0.4 0.1-0.3 0.1-0.7 0.1-0.4 0-0.6-0.1-0.3 0-0.5-0.1-0.1 0-0.2-0.1-0.1-0.1-0.1-0.2v-15.2q0-0.1 0.1-0.2 0-0.1 0.2-0.2 0.1 0 0.4-0.1 0.2 0 0.6 0 0.4 0 0.6 0 0.3 0.1 0.4 0.1 0.1 0.1 0.2 0.2 0 0.1 0 0.2v2q1.3-1.4 2.5-2.1 1.2-0.6 2.5-0.6 0.9 0 1.6 0.2 0.8 0.2 1.4 0.6 0.5 0.4 0.9 0.9 0.4 0.6 0.7 1.3 0.8-0.9 1.4-1.4 0.7-0.6 1.4-1 0.6-0.3 1.2-0.5 0.6-0.1 1.2-0.1 1.4 0 2.4 0.5 1 0.5 1.6 1.4 0.7 0.8 0.9 2 0.3 1.1 0.3 2.4c0 0 0 9.6 0 9.6z" />
    <path fill-rule="evenodd" class="f"
        d="m310.8 29.6q0 0.7-0.3 1-0.3 0.2-0.7 0.2h-10q0 1.3 0.3 2.3 0.2 1 0.8 1.7 0.6 0.8 1.5 1.2 1 0.3 2.4 0.3 1 0 1.9-0.1 0.8-0.2 1.4-0.4 0.7-0.2 1.1-0.4 0.3-0.2 0.6-0.2 0.1 0 0.2 0.1 0.1 0 0.1 0.1 0.1 0.2 0.1 0.4 0 0.2 0 0.5 0 0.2 0 0.4 0 0.1-0.1 0.2 0 0.2 0 0.3-0.1 0.1-0.2 0.2-0.1 0-0.5 0.3-0.5 0.2-1.2 0.4-0.7 0.2-1.7 0.3-0.9 0.2-2 0.2-1.9 0-3.3-0.5-1.4-0.6-2.3-1.6-1-1-1.5-2.5-0.5-1.6-0.5-3.6 0-2 0.5-3.5 0.5-1.6 1.5-2.7 0.9-1.1 2.3-1.6 1.3-0.6 3-0.6 1.8 0 3 0.5 1.3 0.6 2.1 1.6 0.8 0.9 1.2 2.2 0.3 1.4 0.3 2.8c0 0 0 0.5 0 0.5zm-2.7-0.8q0-2.2-1-3.4-1-1.3-3.1-1.3-1 0-1.8 0.4-0.7 0.4-1.3 1.1-0.5 0.6-0.8 1.4-0.3 0.9-0.3 1.8c0 0 8.3 0 8.3 0z" />
    <path class="f"
        d="m328.1 37.9q0 0.1-0.1 0.2 0 0.1-0.2 0.1-0.1 0.1-0.4 0.1-0.3 0.1-0.7 0.1-0.4 0-0.7-0.1-0.2 0-0.4-0.1-0.2 0-0.2-0.1-0.1-0.1-0.1-0.2v-8.9q0-1.3-0.2-2.1-0.2-0.8-0.6-1.3-0.4-0.6-1-0.9-0.6-0.3-1.4-0.3-1 0-2.1 0.7-1 0.8-2.2 2.2v10.6q0 0.1 0 0.2-0.1 0.1-0.2 0.1-0.2 0.1-0.5 0.1-0.2 0.1-0.7 0.1-0.4 0-0.6-0.1-0.3 0-0.5-0.1-0.1 0-0.2-0.1 0-0.1 0-0.2v-15.2q0-0.1 0-0.2 0.1-0.1 0.2-0.2 0.2 0 0.4-0.1 0.2 0 0.6 0 0.4 0 0.6 0 0.3 0.1 0.4 0.1 0.1 0.1 0.2 0.2 0.1 0.1 0.1 0.2v2q1.2-1.4 2.5-2.1 1.3-0.6 2.6-0.6 1.5 0 2.5 0.5 1.1 0.5 1.7 1.4 0.6 0.8 0.9 2 0.3 1.1 0.3 2.7c0 0 0 9.3 0 9.3z" />
    <path class="f"
        d="m340.7 36.7q0 0.5-0.1 0.8 0 0.3-0.2 0.4-0.1 0.2-0.4 0.3-0.2 0.1-0.6 0.2-0.3 0.1-0.7 0.1-0.4 0.1-0.8 0.1-1.2 0-2-0.4-0.9-0.3-1.4-0.9-0.5-0.6-0.8-1.6-0.2-1-0.2-2.3v-8.8h-2.1q-0.3 0-0.4-0.3-0.2-0.2-0.2-0.9 0-0.3 0.1-0.5 0-0.2 0.1-0.3 0-0.2 0.1-0.3 0.1 0 0.3 0h2.1v-3.6q0-0.1 0-0.2 0.1-0.1 0.3-0.2 0.1-0.1 0.4-0.1 0.3 0 0.7 0 0.4 0 0.7 0 0.2 0 0.4 0.1 0.1 0.1 0.2 0.2 0.1 0.1 0.1 0.2v3.6h3.8q0.2 0 0.3 0 0.1 0.1 0.2 0.3 0 0.1 0.1 0.3 0 0.2 0 0.5 0 0.7-0.2 0.9-0.1 0.3-0.4 0.3h-3.8v8.4q0 1.6 0.4 2.4 0.5 0.8 1.7 0.8 0.4 0 0.7-0.1 0.3-0.1 0.5-0.1 0.2-0.1 0.4-0.2 0.2-0.1 0.3-0.1 0.1 0 0.2 0.1 0 0 0.1 0.1 0 0.1 0.1 0.3 0 0.2 0 0.5z" />
    <path class="g"
        d="m90.3 37.8q0 0.2 0 0.3-0.1 0.1-0.3 0.1-0.1 0.1-0.4 0.1-0.3 0.1-0.7 0.1-0.4 0-0.7-0.1-0.3 0-0.4-0.1-0.2 0-0.3-0.1-0.1-0.1-0.1-0.3v-18.9l-7.6 19q-0.1 0.1-0.2 0.2-0.1 0.1-0.3 0.2-0.1 0-0.4 0-0.2 0.1-0.6 0.1-0.3 0-0.6-0.1-0.2 0-0.4-0.1-0.2 0-0.2-0.1-0.1-0.1-0.2-0.2l-7.3-19v18.9q0 0.2-0.1 0.3-0.1 0.1-0.2 0.1-0.2 0.1-0.5 0.1-0.3 0.1-0.7 0.1-0.4 0-0.7-0.1-0.3 0-0.4-0.1-0.2 0-0.2-0.1-0.1-0.1-0.1-0.3v-20q0-0.7 0.4-1 0.3-0.3 0.8-0.3h1.8q0.5 0 0.9 0.1 0.4 0.1 0.8 0.3 0.3 0.3 0.5 0.6 0.2 0.3 0.3 0.8l6.2 15.7h0.1l6.5-15.7q0.2-0.5 0.4-0.8 0.2-0.4 0.5-0.6 0.3-0.2 0.6-0.3 0.3-0.1 0.7-0.1h1.9q0.2 0 0.5 0.1 0.2 0.1 0.4 0.2 0.1 0.2 0.2 0.4 0.1 0.3 0.1 0.6c0 0 0 20 0 20z" />
    <path fill-rule="evenodd" class="g"
        d="m108.7 29.6q0 0.7-0.3 1-0.4 0.2-0.8 0.2h-9.9q0 1.3 0.2 2.3 0.3 1 0.9 1.7 0.6 0.8 1.5 1.2 0.9 0.3 2.3 0.3 1.1 0 1.9-0.1 0.9-0.2 1.5-0.4 0.6-0.2 1-0.4 0.4-0.2 0.6-0.2 0.1 0 0.2 0.1 0.1 0 0.2 0.1 0 0.2 0 0.4 0.1 0.2 0.1 0.5 0 0.2 0 0.4-0.1 0.1-0.1 0.2 0 0.2-0.1 0.3 0 0.1-0.1 0.2-0.1 0-0.6 0.3-0.4 0.2-1.1 0.4-0.8 0.2-1.7 0.3-1 0.2-2 0.2-1.9 0-3.3-0.5-1.4-0.6-2.4-1.6-0.9-1-1.4-2.5-0.5-1.6-0.5-3.6 0-2 0.5-3.5 0.5-1.6 1.5-2.7 0.9-1.1 2.2-1.6 1.4-0.6 3.1-0.6 1.7 0 3 0.5 1.2 0.6 2 1.6 0.9 0.9 1.2 2.2 0.4 1.4 0.4 2.8c0 0 0 0.5 0 0.5zm-2.8-0.8q0.1-2.2-1-3.4-1-1.3-3-1.3-1 0-1.8 0.4-0.8 0.4-1.3 1.1-0.5 0.6-0.8 1.4-0.3 0.9-0.3 1.8c0 0 8.2 0 8.2 0z" />
    <path class="g"
        d="m125.9 37.9q0 0.1 0 0.2-0.1 0.1-0.2 0.1-0.2 0.1-0.5 0.1-0.2 0.1-0.6 0.1-0.4 0-0.7-0.1-0.3 0-0.4-0.1-0.2 0-0.3-0.1 0-0.1 0-0.2v-8.9q0-1.3-0.2-2.1-0.2-0.8-0.6-1.3-0.4-0.6-1-0.9-0.6-0.3-1.4-0.3-1.1 0-2.1 0.7-1.1 0.8-2.2 2.2v10.6q0 0.1-0.1 0.2 0 0.1-0.2 0.1-0.1 0.1-0.4 0.1-0.3 0.1-0.7 0.1-0.4 0-0.7-0.1-0.2 0-0.4-0.1-0.2 0-0.2-0.1-0.1-0.1-0.1-0.2v-15.2q0-0.1 0.1-0.2 0-0.1 0.2-0.2 0.1 0 0.4-0.1 0.2 0 0.6 0 0.4 0 0.6 0 0.2 0.1 0.4 0.1 0.1 0.1 0.2 0.2 0 0.1 0 0.2v2q1.3-1.4 2.6-2.1 1.2-0.6 2.5-0.6 1.6 0 2.6 0.5 1 0.5 1.7 1.4 0.6 0.8 0.9 2 0.2 1.1 0.2 2.7c0 0 0 9.3 0 9.3z" />
    <path fill-rule="evenodd" class="g"
        d="m142.4 37.9q0 0.2-0.1 0.3-0.2 0.1-0.4 0.1-0.2 0.1-0.7 0.1-0.4 0-0.7-0.1-0.3 0-0.4-0.1-0.1-0.1-0.1-0.3v-1.5q-1 1-2.2 1.6-1.2 0.6-2.6 0.6-1.2 0-2.1-0.3-1-0.3-1.7-0.9-0.7-0.6-1-1.5-0.4-0.8-0.4-1.9 0-1.3 0.5-2.2 0.5-1 1.5-1.6 1-0.6 2.4-0.9 1.4-0.3 3.2-0.3h2v-1.2q0-0.9-0.1-1.6-0.2-0.6-0.6-1.1-0.4-0.4-1.1-0.7-0.7-0.2-1.6-0.2-1 0-1.9 0.3-0.8 0.2-1.4 0.5-0.6 0.3-1 0.5-0.4 0.3-0.6 0.3-0.2 0-0.3-0.1-0.1 0-0.1-0.2-0.1-0.1-0.1-0.3-0.1-0.2-0.1-0.5 0-0.4 0.1-0.7 0-0.2 0.3-0.4 0.2-0.2 0.7-0.5 0.6-0.3 1.3-0.6 0.7-0.2 1.6-0.4 0.9-0.1 1.7-0.1 1.7 0 2.8 0.3 1.2 0.4 1.9 1.1 0.7 0.7 1 1.8 0.3 1.1 0.3 2.5c0 0 0 10.2 0 10.2zm-2.8-6.9h-2.3q-1.2 0-2 0.2-0.8 0.1-1.4 0.5-0.6 0.4-0.8 0.9-0.3 0.6-0.3 1.3 0 1.1 0.8 1.8 0.7 0.7 2.1 0.7 1.1 0 2-0.5 0.9-0.6 1.9-1.7z" />
</svg>