<?xml version="1.0" encoding="utf-8"?><!-- Generator: Adobe Illustrator 25.2.3, SVG Export Plug-In . SVG Version: 6.00 Build 0)  -->
<svg version="1.1" id="Layer_1" xmlns="http://www.w3.org/2000/svg"
    xmlns:xlink="http://www.w3.org/1999/xlink" x="0px" y="0px" viewBox="0 0 221 51.8"
    style="enable-background:new 0 0 221 51.8;" xml:space="preserve">
    <g>
	<path style="fill:#5B5C5E;stroke:#5B5C5E;stroke-width:0.5;stroke-miterlimit:10;" class="st0" d="M91.5,41.7c0,0.1,0,0.2-0.1,0.2c0,0.1-0.1,0.1-0.2,0.2c-0.1,0-0.3,0.1-0.4,0.1s-0.4,0-0.7,0
		c-0.3,0-0.5,0-0.7,0S89,42.1,88.9,42c-0.1,0-0.2-0.1-0.2-0.2c0-0.1-0.1-0.1-0.1-0.2V22.6h0l-7.7,19.2c0,0.1-0.1,0.1-0.1,0.2
		s-0.2,0.1-0.3,0.1c-0.1,0-0.3,0.1-0.4,0.1c-0.2,0-0.4,0-0.6,0c-0.2,0-0.4,0-0.6,0c-0.2,0-0.3-0.1-0.4-0.1c-0.1,0-0.2-0.1-0.3-0.1
		c-0.1-0.1-0.1-0.1-0.1-0.2l-7.4-19.2h0v19.1c0,0.1,0,0.2-0.1,0.2c0,0.1-0.1,0.1-0.2,0.2c-0.1,0-0.3,0.1-0.5,0.1s-0.4,0-0.7,0
		c-0.3,0-0.5,0-0.7,0S68.1,42.1,68,42s-0.2-0.1-0.2-0.2s-0.1-0.1-0.1-0.2V21.5c0-0.5,0.1-0.8,0.4-1c0.3-0.2,0.5-0.3,0.8-0.3h1.8
		c0.4,0,0.7,0,1,0.1c0.3,0.1,0.5,0.2,0.7,0.3c0.2,0.1,0.4,0.3,0.5,0.6s0.3,0.5,0.4,0.8l6.3,15.9h0.1L86.1,22
		c0.1-0.3,0.3-0.6,0.4-0.9c0.1-0.2,0.3-0.4,0.5-0.6s0.4-0.2,0.6-0.3c0.2-0.1,0.5-0.1,0.8-0.1h1.9c0.2,0,0.3,0,0.5,0.1
		c0.2,0.1,0.3,0.1,0.4,0.2s0.2,0.2,0.3,0.4c0.1,0.2,0.1,0.4,0.1,0.6L91.5,41.7L91.5,41.7z" />
        <path style="fill:#5B5C5E;stroke:#5B5C5E;stroke-width:0.5;stroke-miterlimit:10;" class="st0" d="M110,33.4c0,0.4-0.1,0.8-0.3,0.9c-0.2,0.2-0.5,0.3-0.8,0.3h-10c0,0.8,0.1,1.6,0.3,2.3c0.2,0.7,0.5,1.3,0.9,1.7
		c0.4,0.5,0.9,0.9,1.5,1.1c0.6,0.3,1.4,0.4,2.3,0.4c0.7,0,1.4-0.1,1.9-0.2c0.6-0.1,1.1-0.3,1.5-0.4c0.4-0.1,0.8-0.3,1-0.4
		c0.3-0.1,0.5-0.2,0.6-0.2c0.1,0,0.1,0,0.2,0.1c0.1,0,0.1,0.1,0.1,0.2c0,0.1,0.1,0.2,0.1,0.3c0,0.1,0,0.3,0,0.5c0,0.1,0,0.3,0,0.4
		c0,0.1,0,0.2,0,0.3c0,0.1,0,0.2-0.1,0.2c0,0.1-0.1,0.1-0.2,0.2c-0.1,0.1-0.2,0.2-0.6,0.3c-0.3,0.1-0.7,0.3-1.2,0.4
		c-0.5,0.1-1,0.3-1.7,0.4c-0.6,0.1-1.3,0.2-2,0.2c-1.3,0-2.4-0.2-3.3-0.5s-1.7-0.9-2.4-1.6c-0.6-0.7-1.1-1.6-1.5-2.6
		c-0.3-1-0.5-2.2-0.5-3.6c0-1.3,0.2-2.5,0.5-3.5c0.3-1,0.8-1.9,1.5-2.7c0.6-0.7,1.4-1.3,2.3-1.7c0.9-0.4,1.9-0.6,3-0.6
		c1.2,0,2.2,0.2,3.1,0.6c0.8,0.4,1.5,0.9,2.1,1.6c0.5,0.6,0.9,1.4,1.2,2.3c0.3,0.9,0.4,1.8,0.4,2.8L110,33.4L110,33.4z M107.2,32.6
		c0-1.5-0.3-2.6-1-3.5c-0.7-0.8-1.7-1.3-3.1-1.3c-0.7,0-1.3,0.1-1.8,0.4c-0.5,0.3-1,0.6-1.3,1s-0.6,0.9-0.8,1.5s-0.3,1.2-0.3,1.8
		L107.2,32.6L107.2,32.6z" />
        <path style="fill:#5B5C5E;stroke:#5B5C5E;stroke-width:0.5;stroke-miterlimit:10;" class="st0" d="M127.4,41.7c0,0.1,0,0.2-0.1,0.2c0,0.1-0.1,0.1-0.2,0.2c-0.1,0-0.2,0.1-0.4,0.1c-0.2,0-0.4,0-0.7,0
		c-0.3,0-0.5,0-0.7,0c-0.2,0-0.3-0.1-0.4-0.1c-0.1,0-0.2-0.1-0.2-0.2c0-0.1-0.1-0.1-0.1-0.2v-8.9c0-0.9-0.1-1.6-0.2-2.1
		s-0.3-1-0.6-1.4c-0.3-0.4-0.6-0.7-1-0.9c-0.4-0.2-0.9-0.3-1.4-0.3c-0.7,0-1.4,0.2-2.1,0.7c-0.7,0.5-1.4,1.2-2.2,2.2v10.7
		c0,0.1,0,0.2-0.1,0.2c0,0.1-0.1,0.1-0.2,0.2c-0.1,0-0.2,0.1-0.4,0.1c-0.2,0-0.4,0-0.7,0c-0.3,0-0.5,0-0.7,0c-0.2,0-0.3-0.1-0.4-0.1
		c-0.1,0-0.2-0.1-0.2-0.2c0-0.1-0.1-0.1-0.1-0.2V26.4c0-0.1,0-0.2,0.1-0.2s0.1-0.1,0.2-0.2s0.2-0.1,0.4-0.1c0.2,0,0.4,0,0.6,0
		c0.2,0,0.5,0,0.6,0c0.2,0,0.3,0.1,0.4,0.1c0.1,0.1,0.2,0.1,0.2,0.2s0.1,0.1,0.1,0.2v2c0.9-1,1.7-1.7,2.6-2.1
		c0.9-0.4,1.7-0.7,2.6-0.7c1,0,1.9,0.2,2.6,0.5s1.3,0.8,1.7,1.4c0.4,0.6,0.7,1.3,0.9,2c0.2,0.8,0.3,1.7,0.3,2.8L127.4,41.7
		L127.4,41.7z" />
        <path style="fill:#5B5C5E;stroke:#5B5C5E;stroke-width:0.5;stroke-miterlimit:10;" class="st0" d="M144,41.7c0,0.1,0,0.2-0.1,0.3c-0.1,0.1-0.2,0.1-0.4,0.2c-0.2,0-0.4,0.1-0.7,0.1c-0.3,0-0.5,0-0.7-0.1
		c-0.2,0-0.3-0.1-0.4-0.2c-0.1-0.1-0.1-0.2-0.1-0.3v-1.5c-0.7,0.7-1.4,1.3-2.2,1.7s-1.7,0.6-2.6,0.6c-0.8,0-1.5-0.1-2.2-0.3
		c-0.6-0.2-1.2-0.5-1.7-0.9c-0.5-0.4-0.8-0.9-1.1-1.5c-0.3-0.6-0.4-1.2-0.4-2c0-0.9,0.2-1.6,0.5-2.2c0.4-0.6,0.9-1.2,1.5-1.6
		s1.5-0.7,2.4-0.9c0.9-0.2,2-0.3,3.2-0.3h2.1v-1.2c0-0.6-0.1-1.1-0.2-1.6c-0.1-0.5-0.3-0.8-0.6-1.1c-0.3-0.3-0.6-0.5-1.1-0.7
		c-0.4-0.2-1-0.2-1.6-0.2c-0.7,0-1.3,0.1-1.9,0.2c-0.5,0.2-1,0.3-1.4,0.5c-0.4,0.2-0.8,0.4-1,0.5c-0.3,0.2-0.5,0.2-0.6,0.2
		c-0.1,0-0.2,0-0.2-0.1c-0.1,0-0.1-0.1-0.2-0.2s-0.1-0.2-0.1-0.3c0-0.1,0-0.3,0-0.5c0-0.3,0-0.5,0.1-0.7c0-0.2,0.1-0.3,0.3-0.5
		s0.4-0.3,0.8-0.5c0.4-0.2,0.8-0.4,1.3-0.5s1-0.3,1.6-0.4s1.2-0.2,1.7-0.2c1.1,0,2,0.1,2.8,0.4c0.8,0.2,1.4,0.6,1.9,1.1
		s0.8,1.1,1,1.8c0.2,0.7,0.3,1.5,0.3,2.5L144,41.7L144,41.7z M141.2,34.7h-2.4c-0.8,0-1.4,0.1-2,0.2c-0.6,0.1-1,0.3-1.4,0.6
		c-0.4,0.3-0.6,0.6-0.8,0.9s-0.3,0.8-0.3,1.2c0,0.8,0.3,1.4,0.8,1.9s1.2,0.7,2.1,0.7c0.7,0,1.4-0.2,2-0.6c0.6-0.4,1.3-0.9,2-1.7
		L141.2,34.7L141.2,34.7z" />
        <path style="fill:#404041;" class="st1" d="M168.8,21.4c0,0.2,0,0.4,0,0.6c0,0.2-0.1,0.3-0.1,0.4s-0.1,0.2-0.2,0.2c-0.1,0-0.1,0.1-0.2,0.1h-8v7.5h7.6
		c0.1,0,0.2,0,0.2,0.1c0.1,0,0.1,0.1,0.2,0.2s0.1,0.2,0.1,0.4c0,0.2,0,0.3,0,0.6c0,0.2,0,0.4,0,0.6c0,0.2-0.1,0.3-0.1,0.4
		c-0.1,0.1-0.1,0.2-0.2,0.2c-0.1,0.1-0.1,0.1-0.2,0.1h-7.6v9.1c0,0.1,0,0.2-0.1,0.2S160,42,159.9,42s-0.3,0.1-0.4,0.1s-0.4,0-0.7,0
		c-0.3,0-0.5,0-0.7,0s-0.3-0.1-0.5-0.1c-0.1,0-0.2-0.1-0.2-0.2c0-0.1-0.1-0.1-0.1-0.2V21.4c0-0.4,0.1-0.7,0.3-0.9
		c0.2-0.2,0.5-0.3,0.7-0.3h9.9c0.1,0,0.2,0,0.2,0.1c0.1,0,0.1,0.1,0.2,0.2s0.1,0.2,0.1,0.4C168.8,21,168.8,21.2,168.8,21.4z" />
        <path style="fill:#404041;" class="st1" d="M185.9,33.4c0,0.4-0.1,0.8-0.3,0.9c-0.2,0.2-0.5,0.3-0.8,0.3h-10c0,0.8,0.1,1.6,0.3,2.3s0.5,1.3,0.9,1.7
		c0.4,0.5,0.9,0.9,1.5,1.1s1.4,0.4,2.3,0.4c0.7,0,1.4-0.1,1.9-0.2c0.6-0.1,1.1-0.3,1.5-0.4c0.4-0.1,0.8-0.3,1-0.4
		c0.3-0.1,0.5-0.2,0.6-0.2c0.1,0,0.1,0,0.2,0.1c0.1,0,0.1,0.1,0.1,0.2c0,0.1,0.1,0.2,0.1,0.3c0,0.1,0,0.3,0,0.5c0,0.1,0,0.3,0,0.4
		c0,0.1,0,0.2,0,0.3c0,0.1,0,0.2-0.1,0.2c0,0.1-0.1,0.1-0.2,0.2c-0.1,0.1-0.2,0.2-0.6,0.3c-0.3,0.1-0.7,0.3-1.2,0.4s-1,0.3-1.7,0.4
		s-1.3,0.2-2,0.2c-1.3,0-2.4-0.2-3.3-0.5c-0.9-0.4-1.7-0.9-2.4-1.6c-0.6-0.7-1.1-1.6-1.5-2.6c-0.3-1-0.5-2.2-0.5-3.6
		c0-1.3,0.2-2.5,0.5-3.5c0.3-1,0.8-1.9,1.5-2.7s1.4-1.3,2.3-1.7s1.9-0.6,3-0.6c1.2,0,2.2,0.2,3.1,0.6c0.8,0.4,1.5,0.9,2.1,1.6
		c0.5,0.6,0.9,1.4,1.2,2.3s0.4,1.8,0.4,2.8L185.9,33.4L185.9,33.4z M183.1,32.6c0-1.5-0.3-2.6-1-3.5c-0.7-0.8-1.7-1.3-3.1-1.3
		c-0.7,0-1.3,0.1-1.8,0.4s-1,0.6-1.3,1s-0.6,0.9-0.8,1.5s-0.3,1.2-0.3,1.8L183.1,32.6L183.1,32.6z" />
        <path style="fill:#404041;" class="st1" d="M203.2,33.4c0,0.4-0.1,0.8-0.3,0.9c-0.2,0.2-0.5,0.3-0.8,0.3h-10c0,0.8,0.1,1.6,0.3,2.3s0.5,1.3,0.9,1.7
		c0.4,0.5,0.9,0.9,1.5,1.1s1.4,0.4,2.3,0.4c0.7,0,1.4-0.1,1.9-0.2c0.6-0.1,1.1-0.3,1.5-0.4c0.4-0.1,0.8-0.3,1-0.4
		c0.3-0.1,0.5-0.2,0.6-0.2c0.1,0,0.1,0,0.2,0.1c0.1,0,0.1,0.1,0.1,0.2c0,0.1,0.1,0.2,0.1,0.3c0,0.1,0,0.3,0,0.5c0,0.1,0,0.3,0,0.4
		c0,0.1,0,0.2,0,0.3c0,0.1,0,0.2-0.1,0.2c0,0.1-0.1,0.1-0.2,0.2c-0.1,0.1-0.2,0.2-0.5,0.3c-0.3,0.1-0.7,0.3-1.2,0.4s-1,0.3-1.7,0.4
		s-1.3,0.2-2,0.2c-1.3,0-2.4-0.2-3.3-0.5c-0.9-0.4-1.7-0.9-2.4-1.6c-0.6-0.7-1.1-1.6-1.5-2.6c-0.3-1-0.5-2.2-0.5-3.6
		c0-1.3,0.2-2.5,0.5-3.5c0.3-1,0.8-1.9,1.5-2.7s1.4-1.3,2.3-1.7s1.9-0.6,3-0.6c1.2,0,2.2,0.2,3.1,0.6c0.8,0.4,1.5,0.9,2.1,1.6
		c0.5,0.6,0.9,1.4,1.2,2.3s0.4,1.8,0.4,2.8L203.2,33.4L203.2,33.4z M200.4,32.6c0-1.5-0.3-2.6-1-3.5c-0.7-0.8-1.7-1.3-3.1-1.3
		c-0.7,0-1.3,0.1-1.8,0.4s-1,0.6-1.3,1s-0.6,0.9-0.8,1.5s-0.3,1.2-0.3,1.8L200.4,32.6L200.4,32.6z" />
        <path style="fill:#404041;" class="st1" d="M220.5,41.7c0,0.1,0,0.2-0.1,0.2c0,0.1-0.1,0.1-0.2,0.2c-0.1,0-0.2,0.1-0.4,0.1c-0.2,0-0.4,0-0.6,0
		c-0.2,0-0.4,0-0.6,0c-0.2,0-0.3-0.1-0.4-0.1c-0.1,0-0.2-0.1-0.2-0.2c0-0.1-0.1-0.1-0.1-0.2v-2c-0.8,0.9-1.6,1.5-2.5,2
		s-1.8,0.7-2.8,0.7c-1.1,0-2.1-0.2-2.9-0.7c-0.8-0.4-1.4-1-1.9-1.8c-0.5-0.7-0.9-1.6-1.1-2.6c-0.2-1-0.3-2.1-0.3-3.2
		c0-1.3,0.1-2.5,0.4-3.5s0.7-2,1.3-2.7s1.2-1.3,2.1-1.7c0.8-0.4,1.8-0.6,2.8-0.6c0.9,0,1.7,0.2,2.4,0.6c0.7,0.4,1.5,1,2.2,1.7v-8.9
		c0-0.1,0-0.2,0.1-0.2c0-0.1,0.1-0.1,0.2-0.2c0.1,0,0.3-0.1,0.4-0.1c0.2,0,0.4,0,0.7,0c0.3,0,0.5,0,0.7,0c0.2,0,0.3,0.1,0.4,0.1
		c0.1,0,0.2,0.1,0.2,0.2c0.1,0.1,0.1,0.1,0.1,0.2L220.5,41.7L220.5,41.7z M217.7,30.9c-0.8-0.9-1.5-1.7-2.2-2.1
		c-0.7-0.5-1.4-0.7-2.2-0.7c-0.7,0-1.3,0.2-1.8,0.5s-0.9,0.8-1.2,1.3s-0.5,1.2-0.7,1.9c-0.1,0.7-0.2,1.4-0.2,2.1
		c0,0.8,0.1,1.5,0.2,2.3c0.1,0.7,0.3,1.4,0.6,2c0.3,0.6,0.7,1,1.2,1.4c0.5,0.3,1.1,0.5,1.8,0.5c0.4,0,0.7-0.1,1.1-0.2
		c0.3-0.1,0.7-0.3,1.1-0.5s0.7-0.5,1.1-0.9c0.4-0.4,0.8-0.8,1.3-1.4L217.7,30.9L217.7,30.9z" />
</g>
    <g>
	<g>
		<path style="#404041;" class="st2" d="M32,24.6c0.4,0,0.7,0.1,1,0.4c0.3,0.3,0.4,0.6,0.4,1c0,0.4-0.1,0.8-0.4,1.1c-0.3,0.3-0.6,0.4-1,0.4h-5.3v5.3
			c0,0.4-0.1,0.8-0.4,1c-0.3,0.3-0.6,0.4-1,0.4s-0.8-0.1-1-0.4c-0.3-0.3-0.4-0.6-0.4-1v-5.3h-5.3c-0.4,0-0.8-0.1-1.1-0.4
			c-0.3-0.3-0.4-0.6-0.4-1.1c0-0.4,0.1-0.7,0.4-1c0.3-0.3,0.6-0.4,1.1-0.4h5.3v-5.3c0-0.4,0.1-0.8,0.4-1c0.3-0.3,0.6-0.4,1-0.4
			s0.8,0.1,1,0.4c0.3,0.3,0.4,0.6,0.4,1v5.3H32z" />
	</g>
        <g>
		<polygon style="fill:#4372B8;" class="st3" points="6.2,38 6.2,37.9 6.2,26.2 1.1,26.2 1.1,41 6.2,41 		" />
            <polygon style="fill:#F89820;" class="st4"
                points="44.5,15.4 44.5,15.5 44.5,25.8 49.5,25.8 49.5,12.7 44.5,12.7 		" />
            <path style="fill:#E52E25;" class="st5"
                d="M43.9,45.7h-6.5v5.2h9c1.7,0,3.1-1.4,3.1-3.1v-9.4h-5.1v6.7C44.5,45.5,44.2,45.7,43.9,45.7z" />
            <polygon style="fill:#4372B8;" class="st3"
                points="6.2,14.8 6.2,14.7 6.2,11.3 1.1,11.3 1.1,27.9 6.2,27.9 		" />
            <polygon style="fill:#4372B8;" class="st3"
                points="6.2,26.2 6.2,25.9 6.2,25.8 1.1,25.8 1.1,26.2 6.2,26.2 		" />
            <path style="fill:#4372B8;" class="st3"
                d="M6.2,45.2v-6.7H1.1v9.4c0,1.7,1.4,3.1,3.1,3.1h9v-5.2H6.7C6.4,45.7,6.2,45.5,6.2,45.2z" />
            <rect x="1.1" y="38.3" style="fill:#4372B8;" class="st3" width="5.1" height="0.1" />
            <polygon style="fill:#4372B8;" class="st3"
                points="34.9,45.7 34.6,45.7 25.3,45.7 25.3,50.9 37.1,50.9 37.1,45.7 		" />
            <rect x="36.8" y="45.7" style="fill:#E52E25;" class="st5" width="0.9" height="5.2" />
            <polygon style="fill:#E52E25;" class="st5"
                points="44.5,37.1 44.5,37.3 44.5,40.8 49.5,40.8 49.5,23.6 44.5,23.6 		" />
            <polygon style="fill:#E52E25;" class="st5"
                points="44.5,25.9 44.5,26.2 44.5,26.2 49.5,26.2 49.5,25.8 44.5,25.8 		" />
            <rect x="44.5" y="38.3" style="fill:#E52E25;" class="st5" width="5.1" height="0.1" />
            <polygon style="fill:#33A852;" class="st6"
                points="14.9,6.3 26.4,6.3 26.4,6.3 26.4,1.1 11.8,1.1 11.8,6.3 		" />
            <path style="fill:#F89820;" class="st4"
                d="M38.3,1.1h-0.8v5.2h2c2.8,0,5,2.2,5,5v2.3h5.1v-1.2C49.5,6.2,44.5,1.1,38.3,1.1z" />
            <rect x="44.5" y="13.6" style="fill:#F89820;" class="st4" width="5.1" height="0.1" />
            <path style="fill:#4372B8;" class="st3"
                d="M6.7,6.3h6.5V1.1h-9c-1.7,0-3.1,1.4-3.1,3.1v9.4h5.1V6.9C6.2,6.6,6.4,6.3,6.7,6.3z" />
            <rect x="1.1" y="13.6" style="fill:#4372B8;" class="st3" width="5.1" height="0.1" />
            <polygon style="fill:#33A852;" class="st6"
                points="34.7,6.3 35,6.3 37.5,6.3 37.5,1.1 24.2,1.1 24.2,6.3 		" />
            <rect x="37.1" y="1.1" style="fill:#33A852;" class="st6" width="0.3" height="5.2" />
            <polygon style="fill:#4372B8;" class="st3" points="26.6,45.7 14.3,45.7 11,45.7 11,50.9 26.6,50.9 		" />
	</g>
</g>
</svg>
