<?xml version="1.0" encoding="utf-8"?>
<!-- Generator: Adobe Illustrator 26.5.0, SVG Export Plug-In . SVG Version: 6.00 Build 0)  -->
<svg version="1.1" id="Layer_1" xmlns="http://www.w3.org/2000/svg" xmlns:xlink="http://www.w3.org/1999/xlink" x="0px" y="0px"
	 viewBox="0 0 328.214 313.929" style="enable-background:new 0 0 328.214 313.929;" xml:space="preserve">
<style type="text/css">
	.st0{fill:#5B5C5E;}
	.st1{fill:#5B5C5E;stroke:#5B5C5E;stroke-width:0.5;stroke-miterlimit:10;}
	.st2{fill:#4480C2;}
	.st3{fill:#F89820;}
	.st4{fill:#33A852;}
	.st5{fill:#E52E25;}
</style>
<g>
	<g>
		<g>
			<path class="st0" d="M236.935,164.928c0,0.231-0.012,0.425-0.034,0.581c-0.023,0.156-0.061,0.289-0.113,0.399
				c-0.052,0.11-0.115,0.191-0.19,0.243c-0.075,0.052-0.165,0.078-0.269,0.078h-9.919c-0.267,0-0.518-0.089-0.755-0.269
				s-0.355-0.495-0.355-0.945V144.24c0-0.092,0.023-0.173,0.069-0.243s0.127-0.125,0.243-0.165c0.115-0.041,0.271-0.075,0.468-0.104
				s0.434-0.043,0.711-0.043c0.289,0,0.529,0.015,0.72,0.043s0.344,0.063,0.46,0.104c0.115,0.041,0.196,0.096,0.242,0.165
				s0.069,0.15,0.069,0.243v19.405h8.047c0.104,0,0.193,0.026,0.269,0.078c0.075,0.052,0.139,0.127,0.19,0.226
				c0.053,0.098,0.09,0.229,0.113,0.39C236.924,164.501,236.935,164.697,236.935,164.928z"/>
			<path class="st0" d="M243.093,144.917c0,0.67-0.128,1.127-0.382,1.37c-0.255,0.243-0.723,0.364-1.404,0.364
				c-0.671,0-1.131-0.118-1.379-0.355c-0.249-0.237-0.373-0.685-0.373-1.344c0-0.67,0.127-1.127,0.382-1.37
				c0.254-0.243,0.722-0.364,1.404-0.364c0.67,0,1.13,0.119,1.379,0.355C242.968,143.81,243.093,144.257,243.093,144.917z
				 M242.763,165.796c0,0.093-0.023,0.171-0.069,0.234s-0.121,0.119-0.226,0.165c-0.104,0.046-0.248,0.081-0.434,0.104
				c-0.185,0.023-0.422,0.035-0.711,0.035c-0.277,0-0.509-0.012-0.693-0.035c-0.186-0.023-0.332-0.058-0.442-0.104
				c-0.109-0.046-0.185-0.101-0.226-0.165c-0.04-0.063-0.061-0.142-0.061-0.234v-15.607c0-0.081,0.021-0.156,0.061-0.225
				c0.041-0.069,0.116-0.127,0.226-0.173c0.11-0.046,0.257-0.081,0.442-0.104c0.185-0.023,0.416-0.035,0.693-0.035
				c0.289,0,0.526,0.011,0.711,0.035c0.186,0.023,0.33,0.058,0.434,0.104c0.104,0.046,0.18,0.104,0.226,0.173
				s0.069,0.145,0.069,0.225V165.796z"/>
			<path class="st0" d="M260.849,150.153c0,0.046-0.003,0.096-0.009,0.147c-0.006,0.052-0.015,0.107-0.025,0.165
				c-0.012,0.058-0.026,0.121-0.044,0.19c-0.017,0.069-0.037,0.145-0.061,0.226l-5.323,14.827c-0.047,0.127-0.107,0.231-0.183,0.312
				s-0.188,0.145-0.338,0.19c-0.15,0.046-0.341,0.078-0.572,0.096c-0.231,0.017-0.521,0.026-0.867,0.026s-0.636-0.012-0.867-0.035
				c-0.231-0.023-0.419-0.058-0.563-0.104s-0.258-0.11-0.338-0.191c-0.081-0.081-0.145-0.179-0.191-0.294l-5.306-14.827
				c-0.047-0.139-0.084-0.26-0.113-0.364s-0.046-0.182-0.052-0.234c-0.006-0.052-0.009-0.096-0.009-0.13
				c0-0.092,0.023-0.173,0.069-0.243s0.124-0.124,0.234-0.165c0.109-0.041,0.254-0.066,0.434-0.078
				c0.179-0.011,0.401-0.017,0.667-0.017c0.336,0,0.604,0.008,0.807,0.026c0.202,0.017,0.358,0.049,0.469,0.095
				c0.109,0.046,0.19,0.104,0.242,0.173s0.102,0.156,0.147,0.26l4.405,12.867l0.069,0.208l0.052-0.208l4.353-12.867
				c0.023-0.104,0.063-0.191,0.121-0.26s0.142-0.127,0.252-0.173c0.109-0.046,0.26-0.078,0.45-0.095
				c0.191-0.018,0.442-0.026,0.755-0.026c0.266,0,0.485,0.006,0.659,0.017c0.173,0.012,0.309,0.041,0.407,0.087
				c0.098,0.046,0.167,0.101,0.208,0.165C260.829,149.983,260.849,150.061,260.849,150.153z"/>
			<path class="st0" d="M277.411,157.316c0,0.451-0.113,0.772-0.34,0.962c-0.227,0.191-0.484,0.286-0.775,0.286h-10.278
				c0,0.867,0.087,1.647,0.262,2.341c0.174,0.693,0.465,1.289,0.871,1.786s0.936,0.879,1.586,1.145
				c0.65,0.266,1.446,0.399,2.387,0.399c0.744,0,1.406-0.061,1.987-0.182c0.58-0.122,1.083-0.257,1.507-0.408
				c0.424-0.15,0.772-0.286,1.046-0.407c0.272-0.122,0.479-0.182,0.619-0.182c0.081,0,0.153,0.02,0.217,0.061
				c0.064,0.041,0.113,0.102,0.148,0.182c0.035,0.081,0.062,0.194,0.078,0.338c0.018,0.145,0.026,0.321,0.026,0.529
				c0,0.15-0.006,0.28-0.018,0.39c-0.011,0.11-0.025,0.208-0.043,0.295c-0.018,0.086-0.046,0.165-0.087,0.234
				c-0.04,0.069-0.093,0.136-0.156,0.199c-0.063,0.064-0.251,0.168-0.563,0.312c-0.312,0.145-0.717,0.286-1.214,0.425
				s-1.072,0.263-1.726,0.373s-1.35,0.165-2.089,0.165c-1.283,0-2.408-0.18-3.373-0.538c-0.966-0.358-1.777-0.89-2.437-1.596
				c-0.659-0.705-1.156-1.589-1.491-2.653c-0.336-1.063-0.503-2.301-0.503-3.711c0-1.341,0.173-2.546,0.52-3.616
				c0.348-1.069,0.848-1.977,1.5-2.722c0.653-0.746,1.442-1.318,2.367-1.717c0.925-0.399,1.96-0.599,3.104-0.599
				c1.226,0,2.269,0.197,3.13,0.59s1.569,0.922,2.125,1.586c0.555,0.665,0.962,1.445,1.222,2.341
				c0.261,0.896,0.391,1.853,0.391,2.87V157.316z M274.532,156.466c0.035-1.503-0.3-2.682-1.003-3.538
				c-0.704-0.855-1.748-1.283-3.132-1.283c-0.71,0-1.332,0.133-1.867,0.399s-0.982,0.618-1.344,1.058
				c-0.36,0.439-0.64,0.951-0.837,1.535c-0.198,0.584-0.309,1.194-0.332,1.83H274.532z"/>
		</g>
	</g>
	<g>
	</g>
	<g>
	</g>
	<g>
	</g>
	<g>
		<g>
			<path class="st1" d="M156.061,165.778c0,0.092-0.023,0.173-0.071,0.243s-0.131,0.125-0.25,0.165
				c-0.119,0.041-0.271,0.075-0.456,0.104s-0.426,0.043-0.723,0.043c-0.274,0-0.51-0.015-0.706-0.043s-0.351-0.063-0.464-0.104
				c-0.113-0.04-0.194-0.095-0.241-0.165c-0.048-0.069-0.071-0.15-0.071-0.243v-19.544h-0.035l-7.908,19.63
				c-0.035,0.081-0.084,0.15-0.147,0.208c-0.063,0.058-0.156,0.107-0.277,0.147c-0.122,0.041-0.266,0.069-0.434,0.087
				c-0.168,0.017-0.367,0.026-0.598,0.026c-0.243,0-0.451-0.012-0.625-0.035c-0.173-0.023-0.318-0.055-0.434-0.095
				c-0.116-0.041-0.205-0.089-0.269-0.147c-0.064-0.058-0.107-0.122-0.13-0.191l-7.561-19.63h-0.018v19.544
				c0,0.092-0.024,0.173-0.071,0.243c-0.048,0.069-0.131,0.125-0.25,0.165c-0.12,0.041-0.274,0.075-0.465,0.104
				s-0.435,0.043-0.732,0.043c-0.286,0-0.524-0.015-0.714-0.043s-0.342-0.063-0.456-0.104c-0.113-0.04-0.19-0.095-0.232-0.165
				c-0.042-0.069-0.062-0.15-0.062-0.243v-20.636c0-0.486,0.129-0.833,0.387-1.041c0.258-0.208,0.546-0.312,0.863-0.312h1.832
				c0.375,0,0.704,0.035,0.986,0.104c0.282,0.07,0.528,0.18,0.74,0.33c0.211,0.15,0.387,0.341,0.528,0.572
				c0.141,0.231,0.264,0.503,0.37,0.815l6.417,16.249h0.086l6.677-16.197c0.129-0.347,0.27-0.642,0.423-0.884
				c0.152-0.243,0.32-0.437,0.502-0.581c0.183-0.145,0.385-0.249,0.608-0.312c0.223-0.063,0.481-0.096,0.774-0.096h1.921
				c0.176,0,0.344,0.026,0.502,0.078c0.158,0.052,0.294,0.133,0.405,0.243c0.111,0.11,0.203,0.249,0.273,0.417
				s0.105,0.373,0.105,0.616V165.778z"/>
			<path class="st1" d="M175.015,157.316c0,0.451-0.113,0.772-0.34,0.962c-0.227,0.191-0.484,0.286-0.775,0.286h-10.278
				c0,0.867,0.087,1.647,0.262,2.341c0.174,0.693,0.465,1.289,0.871,1.786s0.936,0.879,1.586,1.145
				c0.65,0.266,1.446,0.399,2.387,0.399c0.744,0,1.406-0.061,1.987-0.182c0.58-0.122,1.083-0.257,1.507-0.408
				c0.424-0.15,0.772-0.286,1.046-0.407c0.272-0.122,0.479-0.182,0.619-0.182c0.081,0,0.153,0.02,0.217,0.061
				c0.064,0.041,0.113,0.102,0.148,0.182c0.035,0.081,0.062,0.194,0.078,0.338c0.018,0.145,0.026,0.321,0.026,0.529
				c0,0.15-0.006,0.28-0.018,0.39c-0.011,0.11-0.025,0.208-0.043,0.295c-0.018,0.086-0.046,0.165-0.087,0.234
				c-0.04,0.069-0.093,0.136-0.156,0.199c-0.063,0.064-0.251,0.168-0.563,0.312c-0.312,0.145-0.717,0.286-1.214,0.425
				s-1.072,0.263-1.726,0.373s-1.35,0.165-2.089,0.165c-1.283,0-2.408-0.18-3.373-0.538c-0.966-0.358-1.777-0.89-2.437-1.596
				c-0.659-0.705-1.156-1.589-1.491-2.653c-0.336-1.063-0.503-2.301-0.503-3.711c0-1.341,0.173-2.546,0.52-3.616
				c0.348-1.069,0.848-1.977,1.5-2.722c0.653-0.746,1.442-1.318,2.367-1.717c0.925-0.399,1.96-0.599,3.104-0.599
				c1.226,0,2.269,0.197,3.13,0.59s1.569,0.922,2.125,1.586c0.555,0.665,0.962,1.445,1.222,2.341
				c0.261,0.896,0.391,1.853,0.391,2.87V157.316z M172.137,156.466c0.035-1.503-0.3-2.682-1.003-3.538
				c-0.704-0.855-1.748-1.283-3.132-1.283c-0.71,0-1.332,0.133-1.867,0.399s-0.982,0.618-1.344,1.058
				c-0.36,0.439-0.64,0.951-0.837,1.535c-0.198,0.584-0.309,1.194-0.332,1.83H172.137z"/>
			<path class="st1" d="M192.807,165.796c0,0.093-0.023,0.171-0.069,0.234s-0.121,0.119-0.226,0.165
				c-0.104,0.046-0.248,0.081-0.434,0.104c-0.185,0.023-0.416,0.035-0.693,0.035c-0.289,0-0.526-0.012-0.711-0.035
				c-0.185-0.023-0.329-0.058-0.434-0.104c-0.104-0.046-0.18-0.101-0.226-0.165s-0.069-0.142-0.069-0.234v-9.139
				c0-0.89-0.069-1.607-0.208-2.15s-0.341-1.012-0.606-1.405c-0.267-0.393-0.61-0.694-1.032-0.902s-0.91-0.312-1.465-0.312
				c-0.718,0-1.434,0.254-2.15,0.763c-0.718,0.509-1.469,1.254-2.255,2.237v10.908c0,0.093-0.023,0.171-0.069,0.234
				s-0.121,0.119-0.226,0.165c-0.104,0.046-0.248,0.081-0.434,0.104c-0.185,0.023-0.422,0.035-0.711,0.035
				c-0.277,0-0.509-0.012-0.693-0.035c-0.186-0.023-0.332-0.058-0.442-0.104c-0.109-0.046-0.185-0.101-0.226-0.165
				c-0.04-0.063-0.061-0.142-0.061-0.234v-15.607c0-0.092,0.018-0.17,0.052-0.234c0.035-0.063,0.104-0.122,0.209-0.173
				c0.104-0.052,0.236-0.087,0.398-0.104c0.162-0.018,0.376-0.026,0.642-0.026c0.254,0,0.465,0.008,0.633,0.026
				c0.168,0.017,0.298,0.052,0.391,0.104c0.092,0.052,0.158,0.11,0.199,0.173c0.04,0.063,0.061,0.142,0.061,0.234v2.064
				c0.879-0.982,1.754-1.702,2.627-2.159c0.873-0.457,1.755-0.685,2.645-0.685c1.041,0,1.917,0.177,2.628,0.529
				s1.285,0.823,1.725,1.413s0.755,1.281,0.945,2.072c0.191,0.792,0.286,1.743,0.286,2.853V165.796z"/>
			<path class="st1" d="M209.785,165.813c0,0.139-0.047,0.243-0.139,0.312c-0.093,0.069-0.22,0.122-0.382,0.156
				s-0.398,0.052-0.711,0.052c-0.301,0-0.541-0.017-0.72-0.052c-0.18-0.035-0.31-0.087-0.39-0.156
				c-0.081-0.069-0.122-0.173-0.122-0.312v-1.561c-0.682,0.729-1.442,1.295-2.28,1.7c-0.838,0.404-1.726,0.607-2.662,0.607
				c-0.82,0-1.563-0.107-2.229-0.321c-0.664-0.214-1.23-0.523-1.699-0.928c-0.468-0.405-0.832-0.902-1.093-1.492
				c-0.26-0.589-0.39-1.26-0.39-2.011c0-0.878,0.179-1.642,0.537-2.289s0.873-1.185,1.544-1.613c0.67-0.428,1.491-0.749,2.462-0.962
				c0.972-0.214,2.064-0.321,3.278-0.321h2.15v-1.214c0-0.601-0.064-1.133-0.191-1.596s-0.332-0.847-0.615-1.153
				c-0.283-0.306-0.65-0.538-1.102-0.693c-0.45-0.156-1.006-0.234-1.665-0.234c-0.705,0-1.338,0.084-1.898,0.251
				c-0.561,0.168-1.052,0.353-1.474,0.555c-0.423,0.202-0.775,0.387-1.059,0.555c-0.283,0.168-0.494,0.251-0.633,0.251
				c-0.093,0-0.173-0.023-0.242-0.069c-0.069-0.046-0.131-0.115-0.183-0.208c-0.052-0.092-0.09-0.211-0.112-0.355
				c-0.023-0.145-0.035-0.304-0.035-0.477c0-0.289,0.021-0.517,0.061-0.685c0.041-0.167,0.139-0.326,0.295-0.477
				s0.425-0.327,0.807-0.529s0.82-0.387,1.318-0.555c0.496-0.167,1.04-0.306,1.63-0.416s1.185-0.165,1.786-0.165
				c1.121,0,2.075,0.127,2.861,0.382s1.422,0.627,1.907,1.118c0.485,0.492,0.838,1.102,1.058,1.83c0.22,0.729,0.33,1.578,0.33,2.549
				V165.813z M206.941,158.686h-2.445c-0.786,0-1.469,0.066-2.047,0.199c-0.578,0.133-1.058,0.33-1.439,0.59
				c-0.381,0.26-0.661,0.572-0.841,0.937c-0.179,0.364-0.269,0.783-0.269,1.257c0,0.809,0.257,1.454,0.771,1.933
				c0.515,0.48,1.234,0.72,2.159,0.72c0.751,0,1.448-0.19,2.09-0.572c0.642-0.381,1.314-0.965,2.021-1.751V158.686z"/>
		</g>
	</g>
</g>
<g>
	<path class="st2" d="M84.529,143.726c-1.247,0.001-2.493,0.003-3.74,0.005h3.831C84.589,143.731,84.559,143.726,84.529,143.726z"/>
	<path class="st2" d="M115.842,163.897c0.402-0.346,0.649-0.81,0.65-1.359v-0.006v-0.001l-0.046-13.62
		c-0.003-0.548-0.251-1.012-0.653-1.356c-0.401-0.343-0.957-0.55-1.533-0.55c-0.37,0-0.749,0.084-1.107,0.27
		c-2.828,1.464-5.656,2.929-8.484,4.393c-0.892,0.462-1.55,1.089-1.989,1.795c-0.438,0.707-0.656,1.494-0.656,2.282
		c0,0.792,0.22,1.585,0.663,2.294c0.443,0.709,1.109,1.337,2.009,1.797l8.514,4.348c0.355,0.181,0.729,0.263,1.096,0.264
		C114.884,164.45,115.44,164.241,115.842,163.897z"/>
	<path class="st2" d="M93.35,150.121v10.89c0,3.678-2.982,6.66-6.66,6.66h-0.287v4.714c6.652,0,12.044-5.392,12.044-12.044
		c0-3.387,0-7.044,0-10.431c-1.703-0.001-3.405-0.001-5.108-0.002C93.342,149.979,93.346,150.05,93.35,150.121z"/>
	<path class="st3" d="M74.227,139.039c-3.578,0.005-8.145,0.009-11.723,0.014H61.12c-6.002,0-10.867,4.408-10.867,9.845v10.858
		h5.116v-9.366c0-3.678,2.982-6.66,6.66-6.66h12.198V139.039z"/>
	<path class="st4" d="M87.272,139.02c-4.67,0.006-9.34,0.012-14.01,0.018v4.692h7.526c1.247-0.002,2.493-0.003,3.74-0.005
		c0.031,0,0.06,0.004,0.091,0.005h1.783v-4.226c6.188,0,11.28,4.669,11.961,10.675l0.083,0
		C98.447,144.011,93.441,139.012,87.272,139.02z"/>
	<path class="st5" d="M63.997,167.671H62.03c-3.678,0-6.66-2.982-6.66-6.66v-1.769h-5.116v3.378c0,5.372,4.806,9.726,10.736,9.726
		c1.003,0.002,2.005,0.003,3.008,0.005V167.671z"/>
	<path class="st2" d="M63.903,167.671v4.679c7.583,0.011,15.166,0.023,22.749,0.034c0.326,0,0.591-0.262,0.591-0.587v-4.127H63.903z
		"/>
	<path class="st4" d="M85.503,139.561c0.3,1.39,0.6,2.78,0.9,4.169h0.287c3.606,0,6.536,2.868,6.649,6.447l5.024,0.002
		c-0.011-0.938-0.144-2.396-0.801-4.019c-0.43-1.065-1.625-3.533-4.38-5.22C89.784,138.86,86.353,139.402,85.503,139.561z"/>
</g>
<g>
</g>
<g>
</g>
<g>
</g>
<g>
</g>
<g>
</g>
<g>
</g>
</svg>
