<?xml version="1.0" encoding="utf-8"?>
<!-- Generator: Adobe Illustrator 26.5.0, SVG Export Plug-In . SVG Version: 6.00 Build 0)  -->
<svg version="1.1" id="Layer_1" xmlns="http://www.w3.org/2000/svg" xmlns:xlink="http://www.w3.org/1999/xlink" x="0px" y="0px"
	 viewBox="0 0 328.214 313.929" style="enable-background:new 0 0 328.214 313.929;" xml:space="preserve">
<style type="text/css">
	.st0{fill:#5B5C5E;stroke:#5B5C5E;stroke-width:0.5;stroke-miterlimit:10;}
	.st1{fill:#5B5C5E;}
	.st2{fill:#4272B7;}
	.st3{fill:url(#SVGID_1_);}
	.st4{fill:#F89820;}
	.st5{fill:#4480C2;}
	.st6{fill:#E52E25;}
	.st7{fill:#FFFFFF;}
</style>
<g>
	<g>
		<path class="st0" d="M120.886,182.691c0,0.092-0.023,0.173-0.071,0.241c-0.047,0.069-0.13,0.124-0.249,0.164
			s-0.27,0.075-0.453,0.104s-0.424,0.043-0.72,0.043c-0.272,0-0.506-0.015-0.702-0.043c-0.195-0.028-0.349-0.063-0.462-0.104
			s-0.192-0.095-0.24-0.164c-0.047-0.068-0.071-0.149-0.071-0.241v-19.444h-0.034l-7.868,19.53
			c-0.035,0.081-0.083,0.149-0.146,0.207c-0.063,0.058-0.155,0.106-0.276,0.146c-0.121,0.041-0.265,0.069-0.431,0.087
			c-0.167,0.017-0.365,0.025-0.595,0.025c-0.242,0-0.449-0.012-0.621-0.034c-0.173-0.023-0.316-0.055-0.432-0.095
			c-0.115-0.04-0.204-0.089-0.267-0.146c-0.063-0.058-0.106-0.121-0.129-0.19l-7.522-19.53h-0.018v19.444
			c0,0.092-0.023,0.173-0.071,0.241c-0.048,0.069-0.13,0.124-0.249,0.164s-0.272,0.075-0.462,0.104
			c-0.19,0.028-0.433,0.043-0.729,0.043c-0.285,0-0.521-0.015-0.711-0.043s-0.34-0.063-0.453-0.104s-0.189-0.095-0.231-0.164
			c-0.042-0.068-0.062-0.149-0.062-0.241v-20.531c0-0.483,0.128-0.829,0.385-1.036c0.257-0.207,0.543-0.311,0.858-0.311h1.822
			c0.374,0,0.701,0.035,0.981,0.104c0.28,0.069,0.525,0.179,0.736,0.328c0.21,0.149,0.385,0.339,0.525,0.569s0.263,0.5,0.368,0.811
			l6.384,16.166h0.086l6.643-16.114c0.128-0.345,0.268-0.639,0.42-0.88c0.152-0.241,0.318-0.434,0.5-0.578s0.383-0.248,0.605-0.311
			c0.222-0.063,0.479-0.095,0.771-0.095h1.911c0.175,0,0.342,0.026,0.5,0.078s0.292,0.132,0.403,0.242
			c0.111,0.109,0.202,0.248,0.272,0.414c0.07,0.167,0.105,0.371,0.105,0.613V182.691z"/>
		<path class="st0" d="M139.744,174.271c0,0.448-0.113,0.768-0.338,0.958c-0.225,0.189-0.482,0.284-0.771,0.284h-10.227
			c0,0.863,0.087,1.64,0.26,2.329c0.173,0.69,0.462,1.283,0.867,1.777c0.404,0.495,0.931,0.874,1.578,1.139
			c0.647,0.265,1.439,0.396,2.375,0.396c0.74,0,1.398-0.06,1.976-0.181c0.578-0.121,1.078-0.256,1.5-0.405s0.769-0.285,1.04-0.405
			c0.272-0.121,0.477-0.182,0.616-0.182c0.081,0,0.153,0.021,0.217,0.061c0.063,0.04,0.113,0.101,0.147,0.181
			c0.034,0.081,0.061,0.193,0.078,0.337c0.018,0.144,0.026,0.319,0.026,0.526c0,0.149-0.006,0.279-0.017,0.388
			c-0.012,0.109-0.026,0.207-0.043,0.294c-0.017,0.086-0.046,0.164-0.086,0.232c-0.041,0.069-0.092,0.136-0.155,0.198
			c-0.063,0.063-0.25,0.167-0.561,0.311c-0.311,0.145-0.713,0.285-1.208,0.423c-0.495,0.139-1.067,0.262-1.717,0.371
			c-0.65,0.109-1.343,0.164-2.079,0.164c-1.277,0-2.396-0.179-3.356-0.535s-1.769-0.886-2.424-1.587
			c-0.656-0.701-1.15-1.582-1.484-2.64c-0.334-1.059-0.5-2.289-0.5-3.692c0-1.334,0.173-2.533,0.518-3.598
			c0.345-1.063,0.843-1.966,1.493-2.708c0.649-0.742,1.435-1.311,2.355-1.708c0.92-0.397,1.95-0.595,3.088-0.595
			c1.219,0,2.257,0.196,3.114,0.586c0.857,0.391,1.562,0.917,2.113,1.579c0.552,0.661,0.958,1.437,1.217,2.329
			s0.388,1.844,0.388,2.855V174.271z M136.88,173.425c0.035-1.495-0.298-2.668-0.998-3.52c-0.7-0.851-1.739-1.276-3.116-1.276
			c-0.706,0-1.325,0.132-1.857,0.397s-0.978,0.615-1.337,1.052s-0.636,0.946-0.833,1.526c-0.197,0.581-0.307,1.188-0.33,1.82H136.88
			z"/>
		<path class="st0" d="M157.445,182.708c0,0.092-0.023,0.169-0.068,0.232c-0.047,0.063-0.121,0.118-0.225,0.164
			s-0.248,0.08-0.432,0.104c-0.184,0.022-0.414,0.034-0.69,0.034c-0.287,0-0.523-0.012-0.707-0.034
			c-0.184-0.023-0.328-0.058-0.432-0.104s-0.178-0.101-0.224-0.164s-0.069-0.141-0.069-0.232v-9.093c0-0.886-0.069-1.599-0.207-2.14
			s-0.339-1.007-0.604-1.397s-0.607-0.69-1.027-0.897s-0.905-0.311-1.457-0.311c-0.714,0-1.427,0.253-2.14,0.759
			c-0.713,0.506-1.461,1.248-2.243,2.226v10.853c0,0.092-0.023,0.169-0.069,0.232s-0.121,0.118-0.224,0.164s-0.248,0.08-0.432,0.104
			c-0.184,0.022-0.42,0.034-0.707,0.034c-0.276,0-0.506-0.012-0.69-0.034c-0.184-0.023-0.331-0.058-0.44-0.104
			s-0.184-0.101-0.224-0.164c-0.041-0.063-0.061-0.141-0.061-0.232V167.18c0-0.092,0.018-0.169,0.052-0.233
			c0.035-0.063,0.104-0.121,0.207-0.172s0.236-0.086,0.397-0.104c0.161-0.018,0.374-0.026,0.638-0.026
			c0.253,0,0.463,0.008,0.63,0.026c0.167,0.017,0.296,0.052,0.388,0.104c0.092,0.052,0.158,0.109,0.199,0.172
			c0.04,0.063,0.06,0.141,0.06,0.233v2.053c0.874-0.978,1.746-1.693,2.614-2.148s1.745-0.682,2.631-0.682
			c1.035,0,1.907,0.175,2.614,0.526s1.279,0.819,1.717,1.406c0.437,0.587,0.75,1.274,0.94,2.062
			c0.189,0.788,0.284,1.733,0.284,2.838V182.708z"/>
		<path class="st0" d="M174.337,182.725c0,0.139-0.046,0.242-0.138,0.311c-0.093,0.069-0.219,0.121-0.38,0.155
			c-0.161,0.035-0.396,0.052-0.707,0.052c-0.3,0-0.538-0.017-0.717-0.052c-0.178-0.034-0.308-0.086-0.388-0.155
			c-0.081-0.068-0.121-0.172-0.121-0.311v-1.553c-0.679,0.725-1.435,1.288-2.269,1.691c-0.834,0.402-1.717,0.604-2.648,0.604
			c-0.817,0-1.556-0.106-2.217-0.319c-0.662-0.213-1.226-0.521-1.691-0.923s-0.828-0.897-1.087-1.484
			c-0.259-0.586-0.388-1.253-0.388-2.001c0-0.874,0.178-1.633,0.534-2.277s0.869-1.179,1.536-1.604s1.483-0.745,2.45-0.958
			c0.966-0.213,2.053-0.319,3.261-0.319h2.14v-1.207c0-0.599-0.063-1.127-0.19-1.588c-0.127-0.46-0.331-0.842-0.612-1.147
			c-0.282-0.304-0.647-0.534-1.096-0.689s-1.001-0.233-1.656-0.233c-0.702,0-1.331,0.083-1.89,0.25
			c-0.558,0.167-1.047,0.351-1.466,0.552c-0.42,0.201-0.771,0.385-1.053,0.552c-0.282,0.167-0.492,0.25-0.63,0.25
			c-0.092,0-0.173-0.022-0.241-0.068c-0.069-0.046-0.13-0.115-0.182-0.207c-0.052-0.093-0.089-0.21-0.112-0.354
			c-0.022-0.143-0.034-0.301-0.034-0.474c0-0.288,0.02-0.515,0.061-0.682c0.04-0.167,0.138-0.325,0.293-0.475
			c0.155-0.149,0.423-0.325,0.803-0.526c0.379-0.201,0.816-0.385,1.311-0.552c0.495-0.167,1.036-0.305,1.622-0.414
			c0.587-0.109,1.179-0.164,1.777-0.164c1.115,0,2.064,0.126,2.847,0.379c0.782,0.253,1.415,0.624,1.898,1.113
			c0.482,0.489,0.833,1.096,1.052,1.82s0.328,1.57,0.328,2.536V182.725z M171.508,175.634h-2.434c-0.782,0-1.461,0.066-2.035,0.198
			c-0.575,0.133-1.053,0.328-1.433,0.587c-0.379,0.259-0.658,0.569-0.837,0.932c-0.178,0.362-0.268,0.779-0.268,1.251
			c0,0.805,0.256,1.446,0.769,1.924c0.512,0.478,1.228,0.716,2.147,0.716c0.748,0,1.441-0.19,2.079-0.569
			c0.639-0.38,1.309-0.961,2.011-1.743V175.634z"/>
		<path class="st1" d="M212.156,182.691c0,0.092-0.023,0.173-0.071,0.241c-0.047,0.069-0.13,0.124-0.248,0.164
			c-0.119,0.04-0.27,0.075-0.453,0.104s-0.424,0.043-0.72,0.043c-0.272,0-0.507-0.015-0.702-0.043s-0.35-0.063-0.462-0.104
			c-0.113-0.04-0.192-0.095-0.24-0.164c-0.047-0.068-0.071-0.149-0.071-0.241v-19.444h-0.034l-7.867,19.53
			c-0.035,0.081-0.084,0.149-0.146,0.207c-0.063,0.058-0.155,0.106-0.276,0.146c-0.121,0.041-0.265,0.069-0.432,0.087
			c-0.167,0.017-0.365,0.025-0.595,0.025c-0.242,0-0.449-0.012-0.621-0.034c-0.173-0.023-0.316-0.055-0.432-0.095
			s-0.204-0.089-0.268-0.146s-0.106-0.121-0.129-0.19l-7.522-19.53h-0.018v19.444c0,0.092-0.023,0.173-0.071,0.241
			c-0.048,0.069-0.13,0.124-0.249,0.164c-0.118,0.04-0.272,0.075-0.462,0.104s-0.433,0.043-0.729,0.043
			c-0.284,0-0.521-0.015-0.711-0.043s-0.34-0.063-0.453-0.104c-0.112-0.04-0.189-0.095-0.23-0.164
			c-0.042-0.068-0.062-0.149-0.062-0.241v-20.531c0-0.483,0.128-0.829,0.386-1.036c0.257-0.207,0.543-0.311,0.858-0.311h1.822
			c0.373,0,0.7,0.035,0.98,0.104c0.28,0.069,0.525,0.179,0.736,0.328c0.21,0.149,0.385,0.339,0.525,0.569
			c0.14,0.23,0.263,0.5,0.368,0.811l6.384,16.166h0.086l6.643-16.114c0.128-0.345,0.269-0.639,0.421-0.88
			c0.151-0.241,0.318-0.434,0.499-0.578c0.182-0.144,0.383-0.248,0.605-0.311c0.222-0.063,0.479-0.095,0.771-0.095h1.911
			c0.175,0,0.342,0.026,0.499,0.078c0.158,0.052,0.293,0.132,0.403,0.242c0.111,0.109,0.202,0.248,0.272,0.414
			c0.069,0.167,0.104,0.371,0.104,0.613V182.691z"/>
		<path class="st1" d="M231.015,174.271c0,0.448-0.113,0.768-0.339,0.958c-0.225,0.189-0.481,0.284-0.771,0.284h-10.227
			c0,0.863,0.087,1.64,0.26,2.329c0.174,0.69,0.463,1.283,0.867,1.777c0.404,0.495,0.931,0.874,1.577,1.139
			c0.647,0.265,1.439,0.396,2.376,0.396c0.739,0,1.398-0.06,1.976-0.181c0.578-0.121,1.078-0.256,1.5-0.405s0.769-0.285,1.04-0.405
			c0.272-0.121,0.478-0.182,0.616-0.182c0.081,0,0.152,0.021,0.217,0.061c0.063,0.04,0.112,0.101,0.147,0.181
			c0.034,0.081,0.061,0.193,0.077,0.337c0.018,0.144,0.026,0.319,0.026,0.526c0,0.149-0.006,0.279-0.017,0.388
			c-0.012,0.109-0.026,0.207-0.044,0.294c-0.017,0.086-0.046,0.164-0.086,0.232c-0.04,0.069-0.092,0.136-0.155,0.198
			c-0.063,0.063-0.25,0.167-0.561,0.311c-0.311,0.145-0.714,0.285-1.208,0.423c-0.494,0.139-1.067,0.262-1.717,0.371
			s-1.343,0.164-2.079,0.164c-1.276,0-2.396-0.179-3.355-0.535c-0.961-0.356-1.769-0.886-2.424-1.587
			c-0.656-0.701-1.15-1.582-1.484-2.64c-0.334-1.059-0.5-2.289-0.5-3.692c0-1.334,0.173-2.533,0.518-3.598
			c0.345-1.063,0.843-1.966,1.492-2.708c0.649-0.742,1.435-1.311,2.355-1.708c0.92-0.397,1.949-0.595,3.088-0.595
			c1.22,0,2.258,0.196,3.114,0.586c0.857,0.391,1.562,0.917,2.113,1.579c0.553,0.661,0.958,1.437,1.217,2.329
			s0.389,1.844,0.389,2.855V174.271z M228.15,173.425c0.034-1.495-0.299-2.668-0.998-3.52c-0.7-0.851-1.739-1.276-3.116-1.276
			c-0.706,0-1.325,0.132-1.857,0.397s-0.979,0.615-1.337,1.052c-0.359,0.438-0.637,0.946-0.833,1.526
			c-0.197,0.581-0.307,1.188-0.33,1.82H228.15z"/>
		<path class="st1" d="M248.596,174.271c0,0.448-0.112,0.768-0.338,0.958c-0.226,0.189-0.482,0.284-0.771,0.284H237.26
			c0,0.863,0.087,1.64,0.261,2.329c0.173,0.69,0.462,1.283,0.866,1.777c0.404,0.495,0.931,0.874,1.578,1.139
			s1.438,0.396,2.375,0.396c0.74,0,1.398-0.06,1.977-0.181s1.078-0.256,1.5-0.405s0.769-0.285,1.04-0.405
			c0.271-0.121,0.477-0.182,0.615-0.182c0.081,0,0.153,0.021,0.217,0.061s0.113,0.101,0.147,0.181
			c0.034,0.081,0.061,0.193,0.078,0.337s0.026,0.319,0.026,0.526c0,0.149-0.006,0.279-0.018,0.388
			c-0.012,0.109-0.025,0.207-0.043,0.294c-0.018,0.086-0.046,0.164-0.086,0.232c-0.041,0.069-0.093,0.136-0.155,0.198
			c-0.063,0.063-0.251,0.167-0.562,0.311c-0.311,0.145-0.713,0.285-1.207,0.423c-0.495,0.139-1.067,0.262-1.717,0.371
			c-0.65,0.109-1.344,0.164-2.079,0.164c-1.277,0-2.396-0.179-3.356-0.535c-0.96-0.356-1.769-0.886-2.424-1.587
			s-1.15-1.582-1.483-2.64c-0.334-1.059-0.501-2.289-0.501-3.692c0-1.334,0.173-2.533,0.518-3.598
			c0.346-1.063,0.843-1.966,1.493-2.708c0.649-0.742,1.435-1.311,2.354-1.708s1.95-0.595,3.089-0.595
			c1.219,0,2.257,0.196,3.114,0.586c0.856,0.391,1.562,0.917,2.113,1.579c0.552,0.661,0.958,1.437,1.217,2.329
			s0.388,1.844,0.388,2.855V174.271z M245.731,173.425c0.035-1.495-0.298-2.668-0.998-3.52c-0.7-0.851-1.739-1.276-3.116-1.276
			c-0.706,0-1.325,0.132-1.857,0.397s-0.978,0.615-1.337,1.052c-0.358,0.438-0.636,0.946-0.833,1.526
			c-0.196,0.581-0.307,1.188-0.33,1.82H245.731z"/>
		<path class="st1" d="M266.246,166.731c0.345,0,0.581,0.078,0.707,0.233c0.127,0.155,0.19,0.383,0.19,0.682v15.062
			c0,0.092-0.023,0.169-0.069,0.232s-0.124,0.118-0.232,0.164c-0.109,0.046-0.257,0.08-0.44,0.104
			c-0.184,0.022-0.408,0.034-0.673,0.034c-0.288,0-0.523-0.012-0.707-0.034c-0.185-0.023-0.331-0.058-0.44-0.104
			s-0.187-0.101-0.232-0.164c-0.047-0.063-0.069-0.141-0.069-0.232v-13.613h-8.022v8.661c0,1.069,0.157,1.878,0.474,2.424
			c0.316,0.547,0.883,0.819,1.7,0.819c0.264,0,0.5-0.025,0.707-0.077s0.391-0.106,0.552-0.164s0.3-0.112,0.414-0.164
			c0.115-0.052,0.219-0.077,0.311-0.077c0.058,0,0.112,0.015,0.164,0.043s0.092,0.084,0.121,0.164
			c0.028,0.08,0.055,0.189,0.077,0.327c0.023,0.139,0.035,0.311,0.035,0.519c0,0.333-0.023,0.595-0.069,0.784
			c-0.046,0.19-0.115,0.334-0.207,0.432s-0.23,0.188-0.414,0.268s-0.394,0.146-0.63,0.198c-0.235,0.052-0.485,0.095-0.75,0.13
			c-0.265,0.034-0.529,0.052-0.794,0.052c-0.806,0-1.495-0.106-2.07-0.319c-0.575-0.213-1.047-0.535-1.415-0.967
			c-0.368-0.431-0.636-0.978-0.802-1.639c-0.167-0.661-0.251-1.44-0.251-2.338v-9.075h-2.174c-0.172,0-0.311-0.092-0.414-0.276
			s-0.155-0.483-0.155-0.897c0-0.218,0.015-0.402,0.043-0.552c0.029-0.149,0.066-0.273,0.112-0.371s0.106-0.167,0.182-0.207
			c0.074-0.04,0.158-0.061,0.25-0.061h2.156v-3.692c0-0.081,0.021-0.155,0.061-0.225c0.04-0.069,0.115-0.129,0.225-0.181
			s0.256-0.089,0.439-0.112c0.185-0.023,0.414-0.035,0.69-0.035c0.287,0,0.523,0.012,0.708,0.035
			c0.184,0.023,0.327,0.06,0.431,0.112c0.104,0.052,0.179,0.112,0.225,0.181c0.046,0.069,0.069,0.144,0.069,0.225v3.692H266.246z
			 M267.471,161.935c0,0.667-0.126,1.122-0.379,1.363c-0.253,0.241-0.719,0.362-1.397,0.362c-0.668,0-1.125-0.118-1.372-0.354
			c-0.247-0.235-0.371-0.681-0.371-1.337c0-0.667,0.127-1.122,0.38-1.363c0.253-0.241,0.719-0.362,1.397-0.362
			c0.667,0,1.124,0.118,1.372,0.354C267.348,160.834,267.471,161.279,267.471,161.935z"/>
		<path class="st1" d="M285.794,182.708c0,0.092-0.023,0.169-0.068,0.232c-0.047,0.063-0.121,0.118-0.225,0.164
			s-0.248,0.08-0.432,0.104c-0.184,0.022-0.414,0.034-0.69,0.034c-0.287,0-0.523-0.012-0.707-0.034
			c-0.184-0.023-0.328-0.058-0.432-0.104s-0.178-0.101-0.224-0.164s-0.069-0.141-0.069-0.232v-9.093c0-0.886-0.069-1.599-0.207-2.14
			s-0.339-1.007-0.604-1.397s-0.607-0.69-1.027-0.897s-0.905-0.311-1.457-0.311c-0.714,0-1.427,0.253-2.14,0.759
			c-0.714,0.506-1.461,1.248-2.243,2.226v10.853c0,0.092-0.023,0.169-0.069,0.232s-0.12,0.118-0.224,0.164s-0.248,0.08-0.432,0.104
			c-0.185,0.022-0.42,0.034-0.707,0.034c-0.276,0-0.507-0.012-0.69-0.034c-0.185-0.023-0.331-0.058-0.44-0.104
			s-0.184-0.101-0.224-0.164c-0.041-0.063-0.061-0.141-0.061-0.232V167.18c0-0.092,0.018-0.169,0.052-0.233
			c0.034-0.063,0.104-0.121,0.207-0.172s0.235-0.086,0.396-0.104c0.161-0.018,0.374-0.026,0.639-0.026
			c0.253,0,0.463,0.008,0.63,0.026c0.166,0.017,0.296,0.052,0.388,0.104s0.158,0.109,0.199,0.172c0.04,0.063,0.06,0.141,0.06,0.233
			v2.053c0.874-0.978,1.746-1.693,2.614-2.148s1.745-0.682,2.631-0.682c1.035,0,1.907,0.175,2.614,0.526s1.279,0.819,1.717,1.406
			c0.437,0.587,0.75,1.274,0.94,2.062c0.189,0.788,0.284,1.733,0.284,2.838V182.708z"/>
		<path class="st1" d="M303.962,167.887c0,0.403-0.055,0.693-0.163,0.871c-0.11,0.179-0.251,0.268-0.423,0.268h-2.226
			c0.402,0.414,0.684,0.871,0.845,1.372c0.161,0.5,0.242,1.021,0.242,1.562c0,0.896-0.145,1.69-0.432,2.381
			c-0.288,0.69-0.699,1.273-1.233,1.751c-0.535,0.478-1.171,0.843-1.907,1.096c-0.735,0.253-1.553,0.38-2.449,0.38
			c-0.633,0-1.234-0.084-1.804-0.251c-0.569-0.166-1.009-0.376-1.319-0.629c-0.207,0.207-0.377,0.442-0.509,0.707
			c-0.133,0.265-0.199,0.569-0.199,0.914c0,0.403,0.188,0.736,0.562,1.001c0.373,0.265,0.871,0.408,1.492,0.432l4.055,0.172
			c0.771,0.023,1.478,0.13,2.122,0.319c0.644,0.19,1.202,0.46,1.674,0.812c0.471,0.351,0.839,0.782,1.104,1.294
			s0.397,1.106,0.397,1.785c0,0.713-0.15,1.392-0.449,2.036s-0.756,1.211-1.371,1.699c-0.615,0.489-1.4,0.874-2.355,1.156
			s-2.082,0.423-3.382,0.423c-1.254,0-2.32-0.106-3.2-0.319s-1.602-0.503-2.165-0.871c-0.564-0.368-0.973-0.809-1.226-1.32
			s-0.379-1.066-0.379-1.665c0-0.379,0.046-0.747,0.138-1.104c0.092-0.357,0.232-0.696,0.423-1.019
			c0.189-0.321,0.425-0.63,0.707-0.923s0.606-0.584,0.975-0.871c-0.563-0.287-0.98-0.649-1.25-1.087
			c-0.271-0.438-0.406-0.909-0.406-1.415c0-0.701,0.144-1.328,0.432-1.881c0.287-0.552,0.645-1.046,1.069-1.483
			c-0.356-0.426-0.638-0.906-0.845-1.44c-0.207-0.535-0.311-1.183-0.311-1.941c0-0.886,0.149-1.68,0.448-2.381
			s0.713-1.294,1.242-1.777c0.529-0.483,1.165-0.854,1.906-1.113c0.742-0.259,1.55-0.388,2.425-0.388
			c0.471,0,0.911,0.026,1.319,0.078s0.791,0.124,1.147,0.215h4.693c0.195,0,0.342,0.095,0.439,0.285
			C303.913,167.206,303.962,167.496,303.962,167.887z M300.943,184.277c0-0.667-0.273-1.182-0.82-1.544
			c-0.546-0.362-1.285-0.555-2.217-0.578l-4.02-0.138c-0.369,0.287-0.671,0.561-0.906,0.819c-0.236,0.259-0.423,0.506-0.561,0.742
			c-0.139,0.235-0.233,0.469-0.285,0.698c-0.052,0.23-0.077,0.466-0.077,0.708c0,0.747,0.379,1.313,1.139,1.699
			c0.759,0.385,1.817,0.578,3.175,0.578c0.862,0,1.584-0.084,2.165-0.25c0.581-0.167,1.05-0.389,1.406-0.665
			c0.356-0.275,0.612-0.592,0.768-0.948C300.865,185.042,300.943,184.669,300.943,184.277z M299.511,171.976
			c0-1.058-0.29-1.883-0.871-2.475s-1.406-0.889-2.476-0.889c-0.553,0-1.033,0.092-1.441,0.276
			c-0.408,0.184-0.747,0.438-1.018,0.759c-0.271,0.322-0.472,0.693-0.604,1.113c-0.133,0.42-0.199,0.859-0.199,1.319
			c0,1.024,0.291,1.829,0.872,2.416c0.58,0.587,1.395,0.88,2.441,0.88c0.563,0,1.052-0.089,1.466-0.268
			c0.414-0.178,0.757-0.426,1.027-0.742c0.27-0.316,0.471-0.682,0.604-1.096C299.444,172.856,299.511,172.425,299.511,171.976z"/>
	</g>
</g>
<g>
	<path class="st2" d="M68.188,158.996L68.188,158.996c-1.516,0-2.745-1.229-2.745-2.745v-0.022c0-1.516,1.229-2.745,2.745-2.745l0,0
		c1.516,0,2.745,1.229,2.745,2.745v0.022C70.933,157.767,69.705,158.996,68.188,158.996z"/>
	<polygon class="st2" points="37.771,172.363 37.771,172.314 37.771,165.408 32.233,165.408 32.233,178.548 37.771,178.548 	"/>
	<path class="st2" d="M67.954,147.103h0.15c3.25,0,5.885-2.635,5.885-5.885v-0.646c0-3.25-2.635-5.885-5.885-5.885h-0.15
		c-3.25,0-5.885,2.635-5.885,5.885v0.646C62.068,144.468,64.704,147.103,67.954,147.103z"/>
	<path class="st2" d="M44.08,147.103h0.15c3.25,0,5.885-2.635,5.885-5.885v-0.646c0-3.25-2.635-5.885-5.885-5.885h-0.15
		c-3.25,0-5.885,2.635-5.885,5.885v0.646C38.194,144.468,40.829,147.103,44.08,147.103z"/>
	<linearGradient id="SVGID_1_" gradientUnits="userSpaceOnUse" x1="37.6845" y1="188.0169" x2="74.5335" y2="188.0169">
		<stop  offset="0.2984" style="stop-color:#32A851"/>
		<stop  offset="1" style="stop-color:#30A850"/>
	</linearGradient>
	<rect x="37.685" y="185.248" class="st3" width="36.849" height="5.538"/>
	<rect x="32.233" y="178.109" class="st2" width="5.538" height="0.083"/>
	<path class="st2" d="M37.771,165.732v-0.067v-0.266c0-3.491,2.812-6.323,6.294-6.361v-5.555h-0.061
		c-6.501,0-11.771,5.27-11.771,11.771v0.521h5.538V165.732z"/>
	<rect x="32.233" y="165.776" class="st2" width="5.538" height="0.125"/>
	<path class="st2" d="M44.136,159.035h0.017h0.002v-5.551h-0.09v5.555C44.089,159.038,44.112,159.035,44.136,159.035z"/>
	<polygon class="st4" points="74.462,172.274 74.462,172.322 74.462,178.668 79.997,178.668 79.997,165.588 74.462,165.588 	"/>
	<path class="st2" d="M56.102,165.664h0.026v-0.27c0-0.086-0.011-0.169-0.013-0.254c-0.002,0.085-0.013,0.169-0.013,0.254V165.664z"
		/>
	<rect x="56.102" y="165.664" class="st2" width="0.026" height="0.236"/>
	<path class="st4" d="M74.462,190.804L74.462,190.804c3.057,0,5.535-2.478,5.535-5.535v-7.077h-5.535V190.804z"/>
	<rect x="74.462" y="178.109" class="st4" width="5.535" height="0.083"/>
	<rect x="68.076" y="178.109" class="st5" width="0.022" height="0.083"/>
	<path class="st6" d="M68.226,153.483h-0.061v5.513c3.481,0.02,6.297,2.846,6.297,6.331v0.229v0.067v0.152h5.535v-0.521
		C79.997,158.753,74.727,153.483,68.226,153.483z"/>
	<rect x="74.462" y="165.776" class="st6" width="5.535" height="0.125"/>
	<path class="st6" d="M68.098,158.995L68.098,158.995l0.016-0.001h0.015h0.017v0.001c0.007,0,0.013,0.001,0.02,0.001v-5.513h-0.09
		v5.513C68.083,158.996,68.09,158.995,68.098,158.995z"/>
	<rect x="44.155" y="172.317" class="st7" width="0.046" height="0.045"/>
	<path class="st6" d="M68.146,158.994h-0.017C68.135,158.994,68.14,158.995,68.146,158.994L68.146,158.994z"/>
	<path class="st6" d="M68.098,158.994L68.098,158.994c0.005,0.001,0.011,0,0.016,0H68.098z"/>
	<path class="st2" d="M44.061,159.035c2.399,0.286,3.793,1.156,4.62,1.891c2.037,1.811,1.989,4.004,4.177,5.336
		c1.19,0.725,2.449,0.834,3.288,0.822c-0.015-0.563-0.029-1.127-0.044-1.69c0.003-0.054,0.008-0.144,0.013-0.254
		c0.039-0.827,0.033-1.534-0.002-2.856c-0.018-0.659-0.026-0.995-0.033-1.118c-0.092-1.756-1.982-3.978-3.945-5.359
		c-3.289-2.313-6.865-2.321-8.058-2.324c-0.026,0-0.048,0-0.063,0C44.03,155.334,44.045,157.184,44.061,159.035z"/>
	<path class="st2" d="M56.146,167.084c0.938-0.004,2.372-0.154,3.649-1.052c1.991-1.401,1.871-3.406,3.775-5.147
		c0.78-0.713,2.128-1.59,4.505-1.889v-5.513h-0.062c-1.579-0.021-5.224,0.161-8.383,2.62c-2.205,1.716-3.886,4.318-3.682,5.754
		c0.015,0.105,0.059,0.34,0.099,0.723c0.1,0.969,0.073,1.59,0.068,2.56C56.113,165.601,56.117,166.267,56.146,167.084z"/>
	<path class="st2" d="M32.233,178.193v7.074c0,3.058,2.479,5.538,5.538,5.538h0v-12.611H32.233z"/>
	<path class="st2" d="M44.188,159.052L44.188,159.052c-1.516,0-2.745-1.229-2.745-2.745v-0.079c0-1.516,1.229-2.745,2.745-2.745h0
		c1.516,0,2.745,1.229,2.745,2.745v0.079C46.933,157.823,45.705,159.052,44.188,159.052z"/>
	<path class="st2" d="M56.156,167.084h-0.079c-1.716,0-3.107-1.391-3.107-3.107v-0.026c0-1.716,1.391-3.107,3.107-3.107h0.079
		c1.716,0,3.107,1.391,3.107,3.107v0.026C59.263,165.693,57.872,167.084,56.156,167.084z"/>
</g>
<g>
</g>
<g>
</g>
<g>
</g>
<g>
</g>
<g>
</g>
<g>
</g>
</svg>
