<svg width="28" height="23" viewBox="0 0 28 23" fill="none" xmlns="http://www.w3.org/2000/svg">
<g clip-path="url(#clip0_2613_66236)">
<path d="M2.54545 5.09091C3.95127 5.09091 5.09091 3.95127 5.09091 2.54545C5.09091 1.13964 3.95127 0 2.54545 0C1.13964 0 0 1.13964 0 2.54545C0 3.95127 1.13964 5.09091 2.54545 5.09091Z" fill="white"/>
<path d="M25.5 0C24.8567 0 11.1433 0 10.5 0C9.12 0 8 1.12 8 2.5C8 3.88 9.12 5 10.5 5C11.1433 5 24.8567 5 25.5 5C26.88 5 28 3.88 28 2.5C28 1.12 26.88 0 25.5 0Z" fill="white"/>
<path d="M25.5 9C24.8567 9 11.1433 9 10.5 9C9.12 9 8 10.12 8 11.5C8 12.88 9.12 14 10.5 14C11.1433 14 24.8567 14 25.5 14C26.88 14 28 12.88 28 11.5C28 10.12 26.88 9 25.5 9Z" fill="white"/>
<path d="M25.5 18C24.8567 18 11.1433 18 10.5 18C9.12 18 8 19.12 8 20.5C8 21.88 9.12 23 10.5 23C11.1433 23 24.8567 23 25.5 23C26.88 23 28 21.88 28 20.5C28 19.12 26.88 18 25.5 18Z" fill="white"/>
<path d="M2.54545 13.9991C3.95127 13.9991 5.09091 12.8595 5.09091 11.4536C5.09091 10.0478 3.95127 8.9082 2.54545 8.9082C1.13964 8.9082 0 10.0478 0 11.4536C0 12.8595 1.13964 13.9991 2.54545 13.9991Z" fill="white"/>
<path d="M2.54545 22.9093C3.95127 22.9093 5.09091 21.7696 5.09091 20.3638C5.09091 18.958 3.95127 17.8184 2.54545 17.8184C1.13964 17.8184 0 18.958 0 20.3638C0 21.7696 1.13964 22.9093 2.54545 22.9093Z" fill="white"/>
</g>
<defs>
<clipPath id="clip0_2613_66236">
<rect width="28" height="23" fill="white"/>
</clipPath>
</defs>
</svg>
