<svg width="28" height="28" viewBox="0 0 28 28" fill="none" xmlns="http://www.w3.org/2000/svg">
<path d="M23.9988 6.99995V15.9998C23.9988 17.3598 23.1088 18.4997 21.8688 18.8697C21.9488 18.5997 21.9988 18.2997 21.9988 17.9998V8.99991C21.9988 7.33994 20.6588 5.99996 18.9988 5.99996H6.9989C6.69891 5.99996 6.39891 6.04996 6.12891 6.12996C6.49891 4.88998 7.6389 4 8.9989 4H20.9988C22.6588 4 23.9988 5.33998 23.9988 6.99995Z" fill="#0074C7"/>
<path opacity="0.35" d="M19 6H7C5.343 6 4 7.34298 4 8.99995V17.9998C4 19.6218 5.29 20.9357 6.9 20.9897L7.656 23.3097C7.88999 24.0277 8.80399 24.2367 9.32799 23.6927L11.916 20.9997H19C20.657 20.9997 22 19.6568 22 17.9998V8.99995C22 7.34298 20.657 6 19 6Z" fill="#51B8F5"/>
</svg>
