<svg width="28" height="28" viewBox="0 0 28 28" fill="none" xmlns="http://www.w3.org/2000/svg">
<path d="M23.9988 6.99995V15.9998C23.9988 17.3598 23.1088 18.4997 21.8688 18.8697C21.9488 18.5997 21.9988 18.2997 21.9988 17.9998V8.99991C21.9988 7.33994 20.6588 5.99996 18.9988 5.99996H6.9989C6.69891 5.99996 6.39891 6.04996 6.12891 6.12996C6.49891 4.88998 7.6389 4 8.9989 4H20.9988C22.6588 4 23.9988 5.33998 23.9988 6.99995Z" fill="#707070"/>
<path opacity="0.35" d="M9.14794 23.5193L11.7357 20.8265L11.8095 20.7497H11.916H19C20.5189 20.7497 21.75 19.5187 21.75 17.9998V8.99995C21.75 7.48105 20.5189 6.25 19 6.25H7C5.48107 6.25 4.25 7.48105 4.25 8.99995V17.9998C4.25 19.4854 5.43156 20.6903 6.90838 20.7399L7.08343 20.7457L7.13769 20.9123L7.89369 23.2322C8.06906 23.7703 8.75442 23.9275 9.14794 23.5193ZM9.14794 23.5193C9.14788 23.5193 9.148 23.5193 9.14794 23.5193Z" stroke="#707070" stroke-width="0.5"/>
</svg>
