<?xml version="1.0" encoding="utf-8"?>
<!-- Generator: Adobe Illustrator 27.1.0, SVG Export Plug-In . SVG Version: 6.00 Build 0)  -->
<svg version="1.1" id="Layer_1" xmlns="http://www.w3.org/2000/svg" xmlns:xlink="http://www.w3.org/1999/xlink" x="0px" y="0px"
	 viewBox="0 0 16 25" style="enable-background:new 0 0 16 25;" xml:space="preserve">
<style type="text/css">
	.st0{fill-rule:evenodd;clip-rule:evenodd;fill:#0170CC;}
	.st1{fill:#0170CC;}
</style>
<path class="st0" d="M2.9,7.7c0-2.8,2.3-5.1,5.1-5.1c2.8,0,5.1,2.3,5.1,5.1v3.8c0,2.8-2.3,5.1-5.1,5.1c-2.8,0-5.1-2.3-5.1-5.1V7.7z
	 M8,3.9c-2.1,0-3.8,1.7-3.8,3.8v3.8c0,2.1,1.7,3.8,3.8,3.8c2.1,0,3.8-1.7,3.8-3.8V7.7C11.8,5.6,10.1,3.9,8,3.9z"/>
<path class="st1" d="M1.2,14.3C1.1,14,0.7,13.9,0.4,14c-0.3,0.1-0.5,0.5-0.3,0.8c1.2,2.9,4,5,7.3,5.2v2.1c0,0.3,0.3,0.6,0.6,0.6
	c0.3,0,0.6-0.3,0.6-0.6V20c3.3-0.2,6.1-2.3,7.3-5.2c0.1-0.3,0-0.7-0.3-0.8c-0.3-0.1-0.7,0-0.8,0.3c-1.1,2.6-3.7,4.5-6.8,4.5
	C4.9,18.8,2.3,17,1.2,14.3z"/>
</svg>
