<svg width="168" height="335" viewBox="0 0 168 335" fill="none" xmlns="http://www.w3.org/2000/svg">
<g clip-path="url(#clip0_2613_66300)">
<path d="M163 117.05C162.999 117.605 163.107 118.155 163.318 118.668C163.53 119.181 163.84 119.648 164.232 120.04C164.624 120.433 165.09 120.745 165.603 120.958C166.115 121.171 166.665 121.28 167.22 121.28V129.55C166.135 129.603 165.112 130.071 164.363 130.858C163.614 131.644 163.196 132.689 163.196 133.775C163.196 134.861 163.614 135.906 164.363 136.692C165.112 137.479 166.135 137.947 167.22 138V146.28C166.101 146.28 165.027 146.725 164.236 147.516C163.445 148.307 163 149.381 163 150.5C163 151.619 163.445 152.693 164.236 153.484C165.027 154.275 166.101 154.72 167.22 154.72V163C166.101 163 165.027 163.445 164.236 164.236C163.445 165.027 163 166.101 163 167.22C163 168.339 163.445 169.413 164.236 170.204C165.027 170.995 166.101 171.44 167.22 171.44V179.72C166.101 179.72 165.027 180.165 164.236 180.956C163.445 181.747 163 182.821 163 183.94C163 185.059 163.445 186.133 164.236 186.924C165.027 187.715 166.101 188.16 167.22 188.16V196.44C166.135 196.493 165.112 196.961 164.363 197.748C163.614 198.534 163.196 199.579 163.196 200.665C163.196 201.751 163.614 202.796 164.363 203.582C165.112 204.369 166.135 204.837 167.22 204.89V213.16C166.135 213.213 165.112 213.681 164.363 214.468C163.614 215.254 163.196 216.299 163.196 217.385C163.196 218.471 163.614 219.516 164.363 220.302C165.112 221.089 166.135 221.557 167.22 221.61V229.89C166.666 229.89 166.117 229.999 165.605 230.211C165.093 230.423 164.628 230.734 164.236 231.126C163.844 231.518 163.533 231.983 163.321 232.495C163.109 233.007 163 233.556 163 234.11C163 234.664 163.109 235.213 163.321 235.725C163.533 236.237 163.844 236.702 164.236 237.094C164.628 237.486 165.093 237.797 165.605 238.009C166.117 238.221 166.666 238.33 167.22 238.33V246.61C166.101 246.61 165.027 247.055 164.236 247.846C163.445 248.637 163 249.711 163 250.83C163 251.949 163.445 253.023 164.236 253.814C165.027 254.605 166.101 255.05 167.22 255.05V263.33C166.135 263.383 165.112 263.851 164.363 264.638C163.614 265.424 163.196 266.469 163.196 267.555C163.196 268.641 163.614 269.686 164.363 270.472C165.112 271.259 166.135 271.727 167.22 271.78V280.05C166.135 280.103 165.112 280.571 164.363 281.358C163.614 282.144 163.196 283.189 163.196 284.275C163.196 285.361 163.614 286.406 164.363 287.192C165.112 287.979 166.135 288.447 167.22 288.5V296.78C166.666 296.78 166.117 296.889 165.605 297.101C165.093 297.313 164.628 297.624 164.236 298.016C163.844 298.408 163.533 298.873 163.321 299.385C163.109 299.897 163 300.446 163 301C163 301.554 163.109 302.103 163.321 302.615C163.533 303.127 163.844 303.592 164.236 303.984C164.628 304.376 165.093 304.687 165.605 304.899C166.117 305.111 166.666 305.22 167.22 305.22V313.5C166.101 313.5 165.027 313.945 164.236 314.736C163.445 315.527 163 316.601 163 317.72C163 318.839 163.445 319.913 164.236 320.704C165.027 321.495 166.101 321.94 167.22 321.94V330.22C166.101 330.22 165.027 330.665 164.236 331.456C163.445 332.247 163 333.321 163 334.44C163 334.54 163 334.63 163 334.72C163 334.81 163 334.9 163 335H154.55C154.55 333.881 154.105 332.807 153.314 332.016C152.523 331.225 151.449 330.78 150.33 330.78C149.211 330.78 148.137 331.225 147.346 332.016C146.555 332.807 146.11 333.881 146.11 335H137.83C137.777 333.915 137.309 332.892 136.522 332.143C135.736 331.394 134.691 330.976 133.605 330.976C132.519 330.976 131.474 331.394 130.688 332.143C129.901 332.892 129.433 333.915 129.38 335H121.11C121.057 333.915 120.589 332.892 119.802 332.143C119.016 331.394 117.971 330.976 116.885 330.976C115.799 330.976 114.754 331.394 113.968 332.143C113.181 332.892 112.713 333.915 112.66 335H104.38C104.38 333.881 103.935 332.807 103.144 332.016C102.353 331.225 101.279 330.78 100.16 330.78C99.0408 330.78 97.9674 331.225 97.176 332.016C96.3846 332.807 95.94 333.881 95.94 335H87.66C87.66 333.881 87.2154 332.807 86.424 332.016C85.6326 331.225 84.5592 330.78 83.44 330.78C82.3208 330.78 81.2474 331.225 80.456 332.016C79.6646 332.807 79.22 333.881 79.22 335H70.94C70.94 333.881 70.4954 332.807 69.704 332.016C68.9126 331.225 67.8392 330.78 66.72 330.78C65.6008 330.78 64.5274 331.225 63.736 332.016C62.9446 332.807 62.5 333.881 62.5 335H54.22C54.1672 333.915 53.699 332.892 52.9125 332.143C52.1259 331.394 51.0813 330.976 49.995 330.976C48.9087 330.976 47.8641 331.394 47.0775 332.143C46.291 332.892 45.8228 333.915 45.77 335H37.5C37.4472 333.915 36.979 332.892 36.1925 332.143C35.4059 331.394 34.3613 330.976 33.275 330.976C32.1887 330.976 31.1441 331.394 30.3575 332.143C29.571 332.892 29.1028 333.915 29.05 335H20.77C20.77 333.881 20.3254 332.807 19.534 332.016C18.7426 331.225 17.6692 330.78 16.55 330.78C15.4308 330.78 14.3574 331.225 13.566 332.016C12.7746 332.807 12.33 333.881 12.33 335H4.22C4.17995 334.815 4.17995 334.625 4.22 334.44C4.22 333.321 3.77539 332.247 2.98399 331.456C2.19259 330.665 1.11921 330.22 0 330.22V321.94C0.554178 321.94 1.10293 321.831 1.61492 321.619C2.12692 321.407 2.59213 321.096 2.98399 320.704C3.37585 320.312 3.6867 319.847 3.89877 319.335C4.11085 318.823 4.22 318.274 4.22 317.72C4.22 316.601 3.77539 315.527 2.98399 314.736C2.19259 313.945 1.11921 313.5 0 313.5V305.22C1.11921 305.22 2.19259 304.775 2.98399 303.984C3.77539 303.193 4.22 302.119 4.22 301C4.22 299.881 3.77539 298.807 2.98399 298.016C2.19259 297.225 1.11921 296.78 0 296.78V288.5C1.11921 288.5 2.19259 288.055 2.98399 287.264C3.77539 286.473 4.22 285.399 4.22 284.28C4.22132 283.725 4.11313 283.175 3.90165 282.662C3.69016 282.149 3.37953 281.682 2.98753 281.29C2.59554 280.897 2.12988 280.585 1.61724 280.372C1.10459 280.159 0.555021 280.05 0 280.05L0 271.78C0.555021 271.78 1.10459 271.671 1.61724 271.458C2.12988 271.245 2.59554 270.933 2.98753 270.54C3.37953 270.148 3.69016 269.681 3.90165 269.168C4.11313 268.655 4.22132 268.105 4.22 267.55C4.22 266.431 3.77539 265.357 2.98399 264.566C2.19259 263.775 1.11921 263.33 0 263.33V255.05C1.11921 255.05 2.19259 254.605 2.98399 253.814C3.77539 253.023 4.22 251.949 4.22 250.83C4.22 249.711 3.77539 248.637 2.98399 247.846C2.19259 247.055 1.11921 246.61 0 246.61L0 238.33C1.11921 238.33 2.19259 237.885 2.98399 237.094C3.77539 236.303 4.22 235.229 4.22 234.11C4.22 232.991 3.77539 231.917 2.98399 231.126C2.19259 230.335 1.11921 229.89 0 229.89V221.61C1.11921 221.61 2.19259 221.165 2.98399 220.374C3.77539 219.583 4.22 218.509 4.22 217.39C4.22132 216.835 4.11313 216.285 3.90165 215.772C3.69016 215.259 3.37953 214.792 2.98753 214.4C2.59554 214.007 2.12988 213.695 1.61724 213.482C1.10459 213.269 0.555021 213.16 0 213.16L0 204.89C0.555021 204.89 1.10459 204.781 1.61724 204.568C2.12988 204.355 2.59554 204.043 2.98753 203.65C3.37953 203.258 3.69016 202.791 3.90165 202.278C4.11313 201.765 4.22132 201.215 4.22 200.66C4.22 199.541 3.77539 198.467 2.98399 197.676C2.19259 196.885 1.11921 196.44 0 196.44V188.16C1.11921 188.16 2.19259 187.715 2.98399 186.924C3.77539 186.133 4.22 185.059 4.22 183.94C4.22 182.821 3.77539 181.747 2.98399 180.956C2.19259 180.165 1.11921 179.72 0 179.72V171.44C1.11921 171.44 2.19259 170.995 2.98399 170.204C3.77539 169.413 4.22 168.339 4.22 167.22C4.22 166.101 3.77539 165.027 2.98399 164.236C2.19259 163.445 1.11921 163 0 163V154.72C1.11921 154.72 2.19259 154.275 2.98399 153.484C3.77539 152.693 4.22 151.619 4.22 150.5C4.22 149.381 3.77539 148.307 2.98399 147.516C2.19259 146.725 1.11921 146.28 0 146.28V138C1.11921 138 2.19259 137.555 2.98399 136.764C3.77539 135.973 4.22 134.899 4.22 133.78C4.22132 133.225 4.11313 132.675 3.90165 132.162C3.69016 131.649 3.37953 131.182 2.98753 130.79C2.59554 130.397 2.12988 130.085 1.61724 129.872C1.10459 129.659 0.555021 129.55 0 129.55L0 121.28C0.555021 121.28 1.10459 121.171 1.61724 120.958C2.12988 120.745 2.59554 120.433 2.98753 120.04C3.37953 119.648 3.69016 119.181 3.90165 118.668C4.11313 118.155 4.22132 117.605 4.22 117.05C4.22 115.931 3.77539 114.857 2.98399 114.066C2.19259 113.275 1.11921 112.83 0 112.83V104.55C1.11921 104.55 2.19259 104.105 2.98399 103.314C3.77539 102.523 4.22 101.449 4.22 100.33C4.21964 99.8776 4.14533 99.4284 4 99H163.23C163.077 99.4405 162.999 99.9037 163 100.37C163 101.489 163.445 102.563 164.236 103.354C165.027 104.145 166.101 104.59 167.22 104.59V112.87C166.108 112.87 165.04 113.309 164.25 114.092C163.46 114.875 163.011 115.938 163 117.05Z" fill="#D10D25"/>
<path d="M163 16.72C163 17.8392 163.445 18.9126 164.236 19.704C165.027 20.4954 166.101 20.94 167.22 20.94V29.22C166.101 29.22 165.027 29.6646 164.236 30.456C163.445 31.2474 163 32.3208 163 33.44C163 34.5592 163.445 35.6326 164.236 36.424C165.027 37.2154 166.101 37.66 167.22 37.66V45.94C166.135 45.9928 165.112 46.461 164.363 47.2475C163.614 48.0341 163.196 49.0787 163.196 50.165C163.196 51.2513 163.614 52.2959 164.363 53.0825C165.112 53.869 166.135 54.3372 167.22 54.39V62.66C166.135 62.7128 165.112 63.181 164.363 63.9675C163.614 64.7541 163.196 65.7987 163.196 66.885C163.196 67.9713 163.614 69.0159 164.363 69.8025C165.112 70.589 166.135 71.0572 167.22 71.11V79.39C166.101 79.39 165.027 79.8346 164.236 80.626C163.445 81.4174 163 82.4908 163 83.61C163 84.7292 163.445 85.8026 164.236 86.594C165.027 87.3854 166.101 87.83 167.22 87.83V96.11C166.339 96.1082 165.48 96.382 164.763 96.8931C164.045 97.4042 163.506 98.1269 163.22 98.96H4C3.71407 98.1269 3.17464 97.4042 2.45733 96.8931C1.74001 96.382 0.880764 96.1082 0 96.11L0 87.83C1.11921 87.83 2.19259 87.3854 2.98399 86.594C3.77539 85.8026 4.22 84.7292 4.22 83.61C4.22 82.4908 3.77539 81.4174 2.98399 80.626C2.19259 79.8346 1.11921 79.39 0 79.39V71.11C1.11921 71.11 2.19259 70.6654 2.98399 69.874C3.77539 69.0826 4.22 68.0092 4.22 66.89C4.22132 66.335 4.11313 65.7852 3.90165 65.272C3.69016 64.7589 3.37953 64.2925 2.98753 63.8995C2.59554 63.5066 2.12988 63.1949 1.61724 62.9822C1.10459 62.7695 0.555021 62.66 0 62.66L0 54.39C0.555021 54.39 1.10459 54.2805 1.61724 54.0678C2.12988 53.8551 2.59554 53.5434 2.98753 53.1505C3.37953 52.7575 3.69016 52.2911 3.90165 51.778C4.11313 51.2648 4.22132 50.715 4.22 50.16C4.22 49.0408 3.77539 47.9674 2.98399 47.176C2.19259 46.3846 1.11921 45.94 0 45.94V37.66C1.11921 37.66 2.19259 37.2154 2.98399 36.424C3.77539 35.6326 4.22 34.5592 4.22 33.44C4.22 32.3208 3.77539 31.2474 2.98399 30.456C2.19259 29.6646 1.11921 29.22 0 29.22V20.94C1.11921 20.94 2.19259 20.4954 2.98399 19.704C3.77539 18.9126 4.22 17.8392 4.22 16.72C4.22 15.6008 3.77539 14.5274 2.98399 13.736C2.19259 12.9446 1.11921 12.5 0 12.5V4.22C1.11921 4.22 2.19259 3.77539 2.98399 2.98399C3.77539 2.19259 4.22 1.11921 4.22 0L12.33 0C12.33 1.11921 12.7746 2.19259 13.566 2.98399C14.3574 3.77539 15.4308 4.22 16.55 4.22C17.1042 4.22 17.6529 4.11085 18.1649 3.89877C18.6769 3.6867 19.1421 3.37585 19.534 2.98399C19.9259 2.59213 20.2367 2.12692 20.4488 1.61492C20.6608 1.10293 20.77 0.554178 20.77 0H29.05C29.05 1.11921 29.4946 2.19259 30.286 2.98399C31.0774 3.77539 32.1508 4.22 33.27 4.22C33.825 4.22132 34.3748 4.11313 34.888 3.90165C35.4011 3.69016 35.8675 3.37953 36.2605 2.98753C36.6534 2.59554 36.9651 2.12988 37.1778 1.61724C37.3905 1.10459 37.5 0.555021 37.5 0L45.77 0C45.77 0.555021 45.8795 1.10459 46.0922 1.61724C46.3049 2.12988 46.6166 2.59554 47.0095 2.98753C47.4025 3.37953 47.8689 3.69016 48.382 3.90165C48.8952 4.11313 49.445 4.22132 50 4.22C51.1192 4.22 52.1926 3.77539 52.984 2.98399C53.7754 2.19259 54.22 1.11921 54.22 0L62.5 0C62.5 1.11921 62.9446 2.19259 63.736 2.98399C64.5274 3.77539 65.6008 4.22 66.72 4.22C67.8392 4.22 68.9126 3.77539 69.704 2.98399C70.4954 2.19259 70.94 1.11921 70.94 0L79.22 0C79.22 1.11921 79.6646 2.19259 80.456 2.98399C81.2474 3.77539 82.3208 4.22 83.44 4.22C84.5592 4.22 85.6326 3.77539 86.424 2.98399C87.2154 2.19259 87.66 1.11921 87.66 0L95.94 0C95.94 1.11921 96.3846 2.19259 97.176 2.98399C97.9674 3.77539 99.0408 4.22 100.16 4.22C101.279 4.22 102.353 3.77539 103.144 2.98399C103.935 2.19259 104.38 1.11921 104.38 0L112.66 0C112.66 1.11921 113.105 2.19259 113.896 2.98399C114.687 3.77539 115.761 4.22 116.88 4.22C117.435 4.22132 117.985 4.11313 118.498 3.90165C119.011 3.69016 119.478 3.37953 119.87 2.98753C120.263 2.59554 120.575 2.12988 120.788 1.61724C121.001 1.10459 121.11 0.555021 121.11 0L129.38 0C129.38 0.555021 129.489 1.10459 129.702 1.61724C129.915 2.12988 130.227 2.59554 130.62 2.98753C131.012 3.37953 131.479 3.69016 131.992 3.90165C132.505 4.11313 133.055 4.22132 133.61 4.22C134.164 4.22 134.713 4.11085 135.225 3.89877C135.737 3.6867 136.202 3.37585 136.594 2.98399C136.986 2.59213 137.297 2.12692 137.509 1.61492C137.721 1.10293 137.83 0.554178 137.83 0H146.11C146.11 1.11921 146.555 2.19259 147.346 2.98399C148.137 3.77539 149.211 4.22 150.33 4.22C151.449 4.22 152.523 3.77539 153.314 2.98399C154.105 2.19259 154.55 1.11921 154.55 0L163 0C163 1.11921 163.445 2.19259 164.236 2.98399C165.027 3.77539 166.101 4.22 167.22 4.22V12.5C166.101 12.5 165.027 12.9446 164.236 13.736C163.445 14.5274 163 15.6008 163 16.72Z" fill="white"/>
<path d="M26.6297 28.8906H25.6797V70.0806H26.6297V28.8906Z" fill="black"/>
<path d="M30.9486 28.8906H29.0586V70.0806H30.9486V28.8906Z" fill="black"/>
<path d="M39.6102 28.8906H38.6602V70.0806H39.6102V28.8906Z" fill="black"/>
<path d="M43.9408 28.8906H42.0508V70.0806H43.9408V28.8906Z" fill="black"/>
<path d="M35.5189 28.8906H33.6289V70.0806H35.5189V28.8906Z" fill="black"/>
<path d="M47.3289 28.8906H46.3789V70.0806H47.3289V28.8906Z" fill="black"/>
<path d="M51.6595 28.8906H49.7695V70.0806H51.6595V28.8906Z" fill="black"/>
<path d="M60.3094 28.8906H59.3594V70.0806H60.3094V28.8906Z" fill="black"/>
<path d="M63.3797 28.8906H62.4297V70.0806H63.3797V28.8906Z" fill="black"/>
<path d="M67.3289 28.8906H66.3789V70.0806H67.3289V28.8906Z" fill="black"/>
<path d="M56.2181 28.8906H54.3281V70.0806H56.2181V28.8906Z" fill="black"/>
<path d="M75.5789 28.8906H74.6289V70.0806H75.5789V28.8906Z" fill="black"/>
<path d="M78.6492 28.8906H77.6992V70.0806H78.6492V28.8906Z" fill="black"/>
<path d="M82.5984 28.8906H81.6484V70.0806H82.5984V28.8906Z" fill="black"/>
<path d="M71.4799 28.8906H69.5898V70.0806H71.4799V28.8906Z" fill="black"/>
<path d="M85.5789 28.8906H84.6289V70.0806H85.5789V28.8906Z" fill="black"/>
<path d="M89.9017 28.8906H88.0117V70.0806H89.9017V28.8906Z" fill="black"/>
<path d="M98.5594 28.8906H97.6094V70.0806H98.5594V28.8906Z" fill="black"/>
<path d="M102.89 28.8906H101V70.0806H102.89V28.8906Z" fill="black"/>
<path d="M94.4681 28.8906H92.5781V70.0806H94.4681V28.8906Z" fill="black"/>
<path d="M106.278 28.8906H105.328V70.0806H106.278V28.8906Z" fill="black"/>
<path d="M110.609 28.8906H108.719V70.0806H110.609V28.8906Z" fill="black"/>
<path d="M119.259 28.8906H118.309V70.0806H119.259V28.8906Z" fill="black"/>
<path d="M122.341 28.8906H121.391V70.0806H122.341V28.8906Z" fill="black"/>
<path d="M126.278 28.8906H125.328V70.0806H126.278V28.8906Z" fill="black"/>
<path d="M115.171 28.8906H113.281V70.0806H115.171V28.8906Z" fill="black"/>
<path d="M134.528 28.8906H133.578V70.0806H134.528V28.8906Z" fill="black"/>
<path d="M137.598 28.8906H136.648V70.0806H137.598V28.8906Z" fill="black"/>
<path d="M141.552 28.8906H140.602V70.0806H141.552V28.8906Z" fill="black"/>
<path d="M130.429 28.8906H128.539V70.0806H130.429V28.8906Z" fill="black"/>
<path d="M118.28 131.001C116.78 130.871 109.16 130.311 109.16 122.101C109.16 113.691 116.54 112.721 124.49 112.721C134.07 112.721 139.71 115.531 139.71 122.421C139.71 130.261 132.99 130.871 130.62 130.991V125.751C131.62 125.671 135.22 125.601 135.22 122.331C135.22 119.061 131.15 118.201 124.38 118.201C118.81 118.201 113.57 118.761 113.57 122.201C113.57 125.351 117.14 125.611 118.28 125.741V131.001Z" fill="white"/>
<path d="M124.68 153.33C113.87 153.33 109.16 150.39 109.16 143.57C109.16 137.21 113.79 134.1 124.74 134.1C135.41 134.1 139.74 137.72 139.74 143.82C139.71 150.26 135 153.33 124.68 153.33ZM124.79 139.53C117.79 139.53 113.6 140.6 113.6 143.7C113.6 146.97 117.46 147.9 124.78 147.9C131.65 147.9 135.23 146.9 135.23 143.7C135.23 140.5 131.38 139.53 124.79 139.53Z" fill="white"/>
<path d="M139.238 162.74H118.888C116.468 162.74 113.588 163.35 113.588 166.6C113.588 169.85 116.018 170.43 118.858 170.43H139.238V175.73H118.778C113.468 175.73 109.148 173.66 109.148 166.52C109.148 159.38 113.208 157.43 118.778 157.43H139.238V162.74Z" fill="white"/>
<path d="M139.239 180.779V189.679C139.239 194.559 136.309 198.219 130.449 198.219C124.589 198.219 121.699 194.909 121.699 189.269V186.079H109.699V180.779H139.239ZM125.999 186.079V188.669C125.999 191.609 127.449 192.909 130.569 192.909C133.569 192.909 135.009 191.379 135.009 188.909V186.039L125.999 186.079Z" fill="white"/>
<path d="M124.68 220.259C113.87 220.259 109.16 217.319 109.16 210.509C109.16 204.139 113.79 201.029 124.74 201.029C135.41 201.029 139.74 204.649 139.74 210.749C139.71 217.189 135 220.259 124.68 220.259ZM124.79 206.459C117.79 206.459 113.6 207.529 113.6 210.629C113.6 213.899 117.46 214.829 124.78 214.829C131.65 214.829 135.23 213.829 135.23 210.629C135.23 207.429 131.38 206.459 124.79 206.459Z" fill="white"/>
<path d="M109.672 224.41H139.242V230.41C122.902 236.53 119.782 237.71 118.332 238.06C121.882 237.81 126.242 237.8 131.082 237.8H139.242V242.53H109.672V236.77C127.092 230.45 130.232 229.33 131.592 228.95V229C127.952 229.22 123.592 229.23 118.292 229.23H109.672V224.41Z" fill="white"/>
<path d="M80.8494 159.8C77.7794 159.49 72.6894 158.73 68.1094 157.99V161.83C72.6794 161.13 77.9294 160.44 80.8494 160.04V159.8Z" fill="white"/>
<path d="M100.999 299.241V121.351C100.996 118.883 100.014 116.518 98.2685 114.774C96.5229 113.03 94.1563 112.051 91.6889 112.051H50.4389C47.9715 112.051 45.605 113.03 43.8593 114.774C42.1136 116.518 41.1316 118.883 41.1289 121.351V299.241C41.1316 301.708 42.1136 304.074 43.8593 305.817C45.605 307.561 47.9715 308.541 50.4389 308.541H91.6689C92.8924 308.543 94.1043 308.305 95.2355 307.839C96.3667 307.373 97.395 306.688 98.2615 305.825C99.128 304.961 99.8157 303.935 100.285 302.805C100.755 301.675 100.998 300.464 100.999 299.241ZM54.4989 136.491C54.4989 128.711 58.8889 126.351 64.3589 126.201V133.501C61.7189 133.671 59.9589 134.411 59.9589 136.561C59.9589 138.711 61.3689 139.301 63.1589 139.301C65.3489 139.301 66.6389 138.211 68.5589 134.471C71.4389 128.941 73.8589 126.841 78.5589 126.841C84.0289 126.841 87.5589 130.171 87.5589 136.531C87.5589 143.961 82.9389 146.111 77.9889 146.171V139.051C80.2389 138.931 82.1089 138.531 82.1089 136.481C82.1089 134.881 81.1089 134.171 79.3089 134.171C77.5089 134.171 76.5689 134.871 74.8289 138.321C71.8289 144.241 69.3089 146.751 63.9489 146.751C58.5889 146.751 54.4989 143.671 54.4989 136.491ZM55.1089 163.881L61.8889 162.791V157.061L55.1089 156.001V148.591L86.9989 154.811V165.281L55.0989 171.581L55.1089 163.881ZM55.1089 186.191V176.921L86.9989 170.071V177.931L74.6589 179.931C70.5789 180.601 66.1289 181.201 62.4289 181.521V181.741C66.2589 182.061 70.5289 182.831 74.5589 183.471L86.9989 185.441V193.081L55.1089 186.191ZM55.1089 212.851V195.551H86.9989V212.871H80.9989V202.811H74.6089V212.441H68.6089V202.811H61.0689V213.721L55.1089 212.851ZM51.4089 306.101C49.087 306.017 46.8897 305.029 45.2865 303.348C43.6833 301.666 42.8013 299.424 42.8289 297.101V237.441C42.8289 235.054 43.7771 232.765 45.4649 231.077C47.1528 229.389 49.442 228.441 51.8289 228.441H89.5289C91.9159 228.441 94.205 229.389 95.8929 231.077C97.5807 232.765 98.5289 235.054 98.5289 237.441V297.121C98.5189 298.333 98.2663 299.531 97.786 300.644C97.3057 301.757 96.6073 302.762 95.7322 303.601C94.857 304.44 93.8227 305.095 92.6904 305.528C91.558 305.961 90.3504 306.162 89.1389 306.121L51.4089 306.101Z" fill="white"/>
<path d="M74.8988 258.93H81.2288C80.8484 259.26 80.4049 259.509 79.9253 259.662C79.4456 259.815 78.9399 259.868 78.4388 259.82V266.38C83.4388 266.27 86.4387 264.1 86.9587 258.93H89.6087V255.59H86.9987C86.8573 253.446 85.8738 251.444 84.2627 250.023C82.6517 248.601 80.5438 247.874 78.3988 248C73.3088 248 71.0888 250.2 68.6888 255.61H61.5387C62.1587 254.76 63.3187 254.52 64.7687 254.48V247.68C60.1787 247.8 56.4387 249.78 55.8387 255.61H52.4688V258.95H55.8387C56.4187 264.56 59.9387 266.95 64.8387 266.95C69.7387 266.95 72.5488 264.58 74.8988 258.93ZM76.9987 255.56C77.5774 255.043 78.3336 254.771 79.1087 254.8C79.5116 254.76 79.9183 254.808 80.3012 254.939C80.6842 255.07 81.0346 255.282 81.3288 255.56H76.9987ZM61.4688 258.9H66.6787C66.3162 259.244 65.8868 259.51 65.4173 259.682C64.9478 259.854 64.448 259.928 63.9487 259.9C63.4851 259.949 63.0166 259.883 62.5842 259.709C62.1518 259.534 61.7688 259.256 61.4688 258.9Z" fill="white"/>
<path d="M74.8988 280.53H81.2288C80.8464 280.856 80.4024 281.102 79.9231 281.253C79.4438 281.404 78.939 281.458 78.4388 281.41V287.97C83.4388 287.86 86.4387 285.69 86.9587 280.53H89.6087V277.19H86.9987C86.8648 275.047 85.8884 273.044 84.2828 271.618C82.6772 270.192 80.5727 269.46 78.4287 269.58C73.3387 269.58 71.1188 271.77 68.7188 277.19H61.5387C62.1587 276.33 63.3187 276.09 64.7687 276.05V269.25C60.1787 269.37 56.4387 271.35 55.8387 277.19H52.4688V280.53H55.8387C56.4187 286.14 59.9387 288.53 64.8387 288.53C69.7387 288.53 72.5488 286.17 74.8988 280.53ZM76.9987 277.16C77.5758 276.64 78.3322 276.364 79.1087 276.39C79.5123 276.352 79.9194 276.401 80.3024 276.534C80.6855 276.667 81.0355 276.88 81.3288 277.16H76.9987ZM61.4688 280.5H66.6787C66.3162 280.844 65.8868 281.111 65.4173 281.283C64.9478 281.455 64.448 281.529 63.9487 281.5C63.4851 281.549 63.0166 281.483 62.5842 281.309C62.1518 281.135 61.7688 280.857 61.4688 280.5Z" fill="white"/>
<path d="M27.1498 119.609C26.8433 119.534 26.5739 119.351 26.3904 119.095C26.2069 118.838 26.1216 118.524 26.1498 118.209C26.1478 117.983 26.1945 117.759 26.2867 117.552C26.3789 117.345 26.5144 117.161 26.6842 117.011C26.8539 116.861 27.0539 116.749 27.2705 116.683C27.4872 116.618 27.7154 116.599 27.9398 116.629C28.166 116.604 28.3949 116.627 28.6119 116.695C28.8288 116.764 29.029 116.877 29.1995 117.028C29.37 117.179 29.5071 117.363 29.6018 117.57C29.6966 117.777 29.747 118.002 29.7498 118.229C29.782 118.551 29.6903 118.873 29.4933 119.129C29.2963 119.386 29.009 119.557 28.6898 119.609V119.149C28.8968 119.1 29.0793 118.978 29.204 118.805C29.3288 118.633 29.3876 118.421 29.3698 118.209C29.3698 117.439 28.6598 117.119 27.9498 117.119C27.2398 117.119 26.5398 117.419 26.5398 118.229C26.5297 118.432 26.5883 118.632 26.7063 118.797C26.8243 118.963 26.9947 119.083 27.1898 119.139L27.1498 119.609Z" fill="white"/>
<path d="M27.9316 123.389C27.7003 123.415 27.4662 123.391 27.2448 123.319C27.0233 123.248 26.8195 123.13 26.6467 122.975C26.4738 122.819 26.3359 122.628 26.242 122.415C26.148 122.202 26.1002 121.972 26.1016 121.739C26.1016 121.51 26.15 121.283 26.2435 121.074C26.3371 120.865 26.4737 120.678 26.6445 120.525C26.8153 120.372 27.0165 120.257 27.2348 120.187C27.4531 120.117 27.6838 120.094 27.9116 120.119C28.1417 120.097 28.374 120.123 28.5932 120.197C28.8125 120.27 29.0137 120.389 29.1837 120.546C29.3536 120.703 29.4885 120.894 29.5795 121.106C29.6705 121.319 29.7155 121.548 29.7116 121.779C29.7129 122.006 29.6663 122.23 29.575 122.437C29.4837 122.645 29.3496 122.83 29.1816 122.982C29.0136 123.134 28.8154 123.249 28.6 123.319C28.3846 123.389 28.1569 123.413 27.9316 123.389ZM27.9316 120.609C27.1716 120.609 26.5116 120.999 26.5116 121.759C26.5116 122.519 27.1816 122.899 27.9316 122.899C28.6816 122.899 29.3316 122.529 29.3316 121.759C29.3316 120.989 28.6716 120.609 27.9216 120.609H27.9316Z" fill="white"/>
<path d="M29.6614 124.57H27.5514C26.7214 124.57 26.5014 125.02 26.5014 125.47C26.5014 125.92 26.7414 126.37 27.5514 126.37H29.6614V126.84H27.5714C26.4314 126.84 26.1114 126.21 26.1114 125.46C26.0929 125.271 26.1177 125.079 26.1839 124.9C26.2502 124.722 26.3561 124.56 26.4938 124.428C26.6315 124.296 26.7973 124.197 26.9788 124.139C27.1602 124.08 27.3526 124.064 27.5414 124.09H29.6614V124.57Z" fill="white"/>
<path d="M29.6584 127.75V129.08C29.6802 129.223 29.6705 129.37 29.6301 129.509C29.5897 129.648 29.5195 129.777 29.4244 129.886C29.3292 129.996 29.2115 130.083 29.0792 130.142C28.947 130.202 28.8034 130.232 28.6584 130.23C28.5074 130.24 28.3561 130.215 28.2159 130.158C28.0757 130.101 27.9504 130.013 27.8493 129.9C27.7482 129.787 27.674 129.653 27.6322 129.508C27.5905 129.362 27.5824 129.209 27.6084 129.06V128.22H26.1484V127.75H29.6584ZM27.9884 128.22V129C27.9884 129.48 28.2184 129.72 28.6284 129.72C28.7187 129.724 28.8087 129.708 28.8921 129.673C28.9755 129.638 29.0503 129.586 29.1113 129.519C29.1722 129.452 29.2179 129.373 29.245 129.287C29.2722 129.201 29.2802 129.11 29.2684 129.02V128.19L27.9884 128.22Z" fill="white"/>
<path d="M27.9316 134C27.7003 134.025 27.4662 134.001 27.2448 133.93C27.0233 133.858 26.8195 133.741 26.6467 133.585C26.4738 133.429 26.3359 133.239 26.242 133.026C26.148 132.813 26.1002 132.582 26.1016 132.35C26.1014 132.121 26.1498 131.895 26.2434 131.686C26.3371 131.477 26.4739 131.29 26.6449 131.138C26.8159 130.986 27.0172 130.872 27.2356 130.803C27.4539 130.734 27.6843 130.713 27.9116 130.74C28.1409 130.717 28.3723 130.743 28.5908 130.816C28.8093 130.889 29.0101 131.007 29.1799 131.163C29.3497 131.319 29.4848 131.508 29.5764 131.72C29.668 131.931 29.7141 132.159 29.7116 132.39C29.7129 132.616 29.6663 132.84 29.575 133.048C29.4837 133.255 29.3496 133.441 29.1816 133.593C29.0136 133.745 28.8154 133.859 28.6 133.93C28.3846 134 28.1569 134.024 27.9316 134ZM27.9316 131.23C27.1716 131.23 26.5116 131.61 26.5116 132.37C26.5116 133.13 27.1816 133.51 27.9316 133.51C28.6816 133.51 29.3316 133.14 29.3316 132.37C29.3316 131.6 28.6716 131.24 27.9216 131.24L27.9316 131.23Z" fill="white"/>
<path d="M26.1484 134.73H29.6584V135.35C28.8384 135.85 27.0984 136.95 26.7084 137.15C27.1584 137.15 27.7084 137.15 28.2884 137.15H29.6584V137.59H26.1484V137C26.9084 136.53 28.7884 135.39 29.1484 135.17C28.7484 135.17 28.1484 135.17 27.5184 135.17H26.1484V134.73Z" fill="white"/>
<path d="M27.1491 142.551C26.8436 142.474 26.5754 142.291 26.3923 142.034C26.2091 141.778 26.123 141.465 26.1491 141.151C26.1471 140.924 26.1938 140.7 26.286 140.493C26.3782 140.286 26.5137 140.102 26.6835 139.952C26.8532 139.802 27.0532 139.691 27.2698 139.625C27.4865 139.559 27.7147 139.541 27.9391 139.571C28.1653 139.546 28.3942 139.568 28.6112 139.637C28.8281 139.705 29.0283 139.819 29.1988 139.969C29.3693 140.12 29.5064 140.305 29.6011 140.512C29.6959 140.719 29.7463 140.943 29.7491 141.171C29.7813 141.492 29.6896 141.814 29.4926 142.071C29.2956 142.327 29.0083 142.499 28.6891 142.551V142.081C28.8953 142.033 29.0776 141.913 29.2025 141.742C29.3274 141.572 29.3865 141.362 29.3691 141.151C29.3691 140.371 28.6591 140.061 27.9491 140.061C27.2391 140.061 26.5391 140.361 26.5391 141.171C26.529 141.373 26.5876 141.574 26.7056 141.739C26.8236 141.904 26.994 142.025 27.1891 142.081L27.1491 142.551Z" fill="white"/>
<path d="M27.9316 146.321C27.7003 146.346 27.4662 146.322 27.2448 146.251C27.0233 146.179 26.8195 146.062 26.6467 145.906C26.4738 145.75 26.3359 145.56 26.242 145.347C26.148 145.134 26.1002 144.903 26.1016 144.671C26.103 144.442 26.1524 144.217 26.2466 144.009C26.3407 143.801 26.4776 143.615 26.6482 143.463C26.8189 143.311 27.0195 143.197 27.2372 143.128C27.4548 143.058 27.6846 143.036 27.9116 143.061C28.1409 143.038 28.3723 143.064 28.5908 143.137C28.8093 143.21 29.0101 143.328 29.1799 143.484C29.3497 143.64 29.4848 143.829 29.5764 144.041C29.668 144.252 29.7141 144.48 29.7116 144.711C29.7129 144.937 29.6663 145.162 29.575 145.369C29.4837 145.576 29.3496 145.762 29.1816 145.914C29.0136 146.066 28.8154 146.181 28.6 146.251C28.3846 146.321 28.1569 146.345 27.9316 146.321ZM27.9316 143.551C27.1716 143.551 26.5116 143.941 26.5116 144.691C26.5116 145.441 27.1816 145.831 27.9316 145.831C28.6816 145.831 29.3316 145.471 29.3316 144.691C29.3316 143.911 28.6716 143.551 27.9216 143.551H27.9316Z" fill="white"/>
<path d="M29.6609 147.499H27.5509C26.7209 147.499 26.5009 147.959 26.5009 148.409C26.5009 148.859 26.7409 149.309 27.5509 149.309H29.6609V149.779H27.5709C26.4309 149.779 26.1109 149.139 26.1109 148.399C26.0874 148.207 26.1085 148.012 26.1725 147.829C26.2366 147.647 26.3418 147.481 26.4801 147.346C26.6184 147.211 26.786 147.109 26.97 147.049C27.1539 146.989 27.3493 146.972 27.5409 146.999H29.6609V147.499Z" fill="white"/>
<path d="M29.6584 150.68V152C29.6802 152.143 29.6705 152.289 29.6301 152.429C29.5897 152.568 29.5195 152.697 29.4244 152.806C29.3292 152.915 29.2115 153.003 29.0792 153.062C28.947 153.121 28.8034 153.151 28.6584 153.15C28.5077 153.162 28.3562 153.14 28.2152 153.085C28.0742 153.031 27.9475 152.945 27.8445 152.834C27.7415 152.724 27.6649 152.591 27.6206 152.446C27.5762 152.302 27.5653 152.149 27.5884 152V151.16H26.1484V150.69L29.6584 150.68ZM27.9884 151.15V152C27.9884 152.48 28.2184 152.72 28.6284 152.72C28.7187 152.723 28.8087 152.707 28.8921 152.673C28.9755 152.638 29.0503 152.585 29.1113 152.519C29.1722 152.452 29.2179 152.373 29.245 152.287C29.2722 152.2 29.2802 152.109 29.2684 152.02V151.18L27.9884 151.15Z" fill="white"/>
<path d="M27.9316 156.94C27.7003 156.965 27.4662 156.941 27.2448 156.87C27.0233 156.799 26.8195 156.681 26.6467 156.525C26.4738 156.369 26.3359 156.179 26.242 155.966C26.148 155.753 26.1002 155.523 26.1016 155.29C26.103 155.061 26.1524 154.836 26.2466 154.628C26.3407 154.42 26.4776 154.234 26.6482 154.082C26.8189 153.93 27.0195 153.816 27.2372 153.747C27.4548 153.677 27.6846 153.655 27.9116 153.68C28.1417 153.657 28.374 153.684 28.5932 153.757C28.8125 153.831 29.0137 153.95 29.1837 154.106C29.3536 154.263 29.4885 154.454 29.5795 154.667C29.6705 154.879 29.7155 155.109 29.7116 155.34C29.7115 155.566 29.6639 155.789 29.5719 155.995C29.48 156.201 29.3457 156.385 29.1779 156.536C29.01 156.687 28.8124 156.801 28.5976 156.871C28.3829 156.94 28.156 156.964 27.9316 156.94ZM27.9316 154.17C27.1716 154.17 26.5116 154.56 26.5116 155.31C26.5116 156.06 27.1816 156.46 27.9316 156.46C28.6816 156.46 29.3316 156.09 29.3316 155.32C29.3316 154.55 28.6716 154.17 27.9216 154.17H27.9316Z" fill="white"/>
<path d="M26.1484 157.67H29.6584V158.29C28.8384 158.79 27.0984 159.89 26.7084 160.08C27.1584 160.08 27.7084 160.08 28.2884 160.08H29.6584V160.52H26.1484V159.94C26.9084 159.48 28.7884 158.33 29.1484 158.11C28.7484 158.11 28.1484 158.11 27.5184 158.11H26.1484V157.67Z" fill="white"/>
<path d="M27.149 165.48C26.8443 165.405 26.5763 165.224 26.393 164.97C26.2098 164.715 26.1232 164.403 26.149 164.09C26.1455 163.863 26.1911 163.638 26.2827 163.43C26.3742 163.222 26.5096 163.036 26.6795 162.885C26.8494 162.734 27.0499 162.622 27.2673 162.555C27.4846 162.489 27.7137 162.47 27.939 162.5C28.1652 162.475 28.3941 162.498 28.611 162.566C28.828 162.635 29.0282 162.748 29.1987 162.899C29.3692 163.05 29.5062 163.235 29.601 163.441C29.6958 163.648 29.7462 163.873 29.749 164.1C29.7812 164.422 29.6894 164.744 29.4925 165C29.2955 165.257 29.0081 165.429 28.689 165.48V165C28.896 164.951 29.0784 164.829 29.2032 164.656C29.328 164.484 29.3868 164.272 29.369 164.06C29.369 163.29 28.659 162.97 27.949 162.97C27.239 162.97 26.539 163.27 26.539 164.08C26.5283 164.284 26.5866 164.486 26.7045 164.653C26.8224 164.82 26.9931 164.942 27.189 165L27.149 165.48Z" fill="white"/>
<path d="M27.9316 169.259C27.7003 169.285 27.4662 169.261 27.2448 169.19C27.0233 169.118 26.8195 169.001 26.6467 168.845C26.4738 168.689 26.3359 168.498 26.242 168.285C26.148 168.073 26.1002 167.842 26.1016 167.609C26.1014 167.381 26.1498 167.154 26.2434 166.945C26.3371 166.737 26.4739 166.55 26.6449 166.398C26.8159 166.246 27.0172 166.132 27.2356 166.063C27.4539 165.994 27.6843 165.973 27.9116 165.999C28.1409 165.977 28.3723 166.003 28.5908 166.076C28.8093 166.149 29.0101 166.267 29.1799 166.423C29.3497 166.578 29.4848 166.768 29.5764 166.979C29.668 167.191 29.7141 167.419 29.7116 167.649C29.7129 167.876 29.6663 168.1 29.575 168.308C29.4837 168.515 29.3496 168.701 29.1816 168.852C29.0136 169.004 28.8154 169.119 28.6 169.189C28.3846 169.26 28.1569 169.283 27.9316 169.259ZM27.9316 166.479C27.1716 166.479 26.5116 166.869 26.5116 167.629C26.5116 168.389 27.1816 168.769 27.9316 168.769C28.6816 168.769 29.3316 168.399 29.3316 167.629C29.3316 166.859 28.6716 166.479 27.9216 166.479H27.9316Z" fill="white"/>
<path d="M29.659 170.44H27.549C26.719 170.44 26.499 170.89 26.499 171.35C26.499 171.81 26.739 172.24 27.549 172.24H29.659V172.71H27.569C26.429 172.71 26.109 172.08 26.109 171.33C26.0949 171.143 26.1232 170.955 26.1916 170.78C26.26 170.606 26.3668 170.449 26.5042 170.321C26.6415 170.193 26.8058 170.098 26.985 170.043C27.1641 169.987 27.3534 169.972 27.539 170H29.659V170.44Z" fill="white"/>
<path d="M29.6584 173.619V174.999C29.6802 175.142 29.6705 175.289 29.6301 175.428C29.5897 175.567 29.5195 175.696 29.4244 175.805C29.3292 175.915 29.2115 176.002 29.0792 176.062C28.947 176.121 28.8034 176.151 28.6584 176.149C28.5064 176.159 28.354 176.135 28.213 176.077C28.0719 176.019 27.9459 175.93 27.8446 175.816C27.7433 175.702 27.6694 175.567 27.6284 175.42C27.5875 175.273 27.5807 175.119 27.6084 174.969V174.129H26.1484V173.659L29.6584 173.619ZM27.9884 174.089V174.899C27.9884 175.389 28.2184 175.629 28.6284 175.629C29.0384 175.629 29.2684 175.339 29.2684 174.919V174.089H27.9884Z" fill="white"/>
<path d="M27.9316 179.879C27.7003 179.905 27.4662 179.881 27.2448 179.809C27.0233 179.738 26.8195 179.62 26.6467 179.465C26.4738 179.309 26.3359 179.118 26.242 178.905C26.148 178.692 26.1002 178.462 26.1016 178.229C26.103 178.001 26.1524 177.775 26.2466 177.567C26.3407 177.359 26.4776 177.173 26.6482 177.021C26.8189 176.87 27.0195 176.755 27.2372 176.686C27.4548 176.617 27.6846 176.594 27.9116 176.619C28.1409 176.597 28.3723 176.623 28.5908 176.696C28.8093 176.769 29.0101 176.887 29.1799 177.043C29.3497 177.198 29.4848 177.388 29.5764 177.599C29.668 177.811 29.7141 178.039 29.7116 178.269C29.7129 178.496 29.6663 178.72 29.575 178.927C29.4837 179.135 29.3496 179.32 29.1816 179.472C29.0136 179.624 28.8154 179.739 28.6 179.809C28.3846 179.879 28.1569 179.903 27.9316 179.879ZM27.9316 177.109C27.1716 177.109 26.5116 177.499 26.5116 178.249C26.5116 178.999 27.1816 179.389 27.9316 179.389C28.6816 179.389 29.3316 179.019 29.3316 178.249C29.3316 177.479 28.6716 177.109 27.9216 177.109H27.9316Z" fill="white"/>
<path d="M26.1484 180.609H29.6584V181.219C28.8384 181.729 27.0984 182.819 26.7084 183.019C27.1584 183.019 27.7084 183.019 28.2884 183.019H29.6584V183.459H26.1484V182.879C26.9084 182.409 28.7884 181.269 29.1484 181.049C28.7484 181.049 28.1484 181.049 27.5184 181.049H26.1484V180.609Z" fill="white"/>
<path d="M27.1491 188.42C26.8436 188.343 26.5754 188.16 26.3923 187.903C26.2091 187.647 26.123 187.334 26.1491 187.02C26.1471 186.793 26.1938 186.569 26.286 186.362C26.3782 186.156 26.5137 185.971 26.6835 185.821C26.8532 185.671 27.0532 185.56 27.2698 185.494C27.4865 185.428 27.7147 185.41 27.9391 185.44C28.1653 185.415 28.3942 185.437 28.6112 185.506C28.8281 185.575 29.0283 185.688 29.1988 185.839C29.3693 185.989 29.5064 186.174 29.6011 186.381C29.6959 186.588 29.7463 186.812 29.7491 187.04C29.7813 187.362 29.6896 187.683 29.4926 187.94C29.2956 188.196 29.0083 188.368 28.6891 188.42V188C28.8961 187.95 29.0786 187.828 29.2033 187.656C29.3281 187.483 29.3869 187.272 29.3691 187.06C29.3691 186.29 28.6591 185.97 27.9491 185.97C27.2391 185.97 26.5391 186.27 26.5391 187.08C26.529 187.283 26.5876 187.483 26.7056 187.648C26.8236 187.813 26.994 187.934 27.1891 187.99L27.1491 188.42Z" fill="white"/>
<path d="M27.9316 192.19C27.7003 192.215 27.4662 192.191 27.2448 192.12C27.0233 192.049 26.8195 191.931 26.6467 191.775C26.4738 191.619 26.3359 191.429 26.242 191.216C26.148 191.003 26.1002 190.773 26.1016 190.54C26.103 190.311 26.1524 190.086 26.2466 189.878C26.3407 189.67 26.4776 189.484 26.6482 189.332C26.8189 189.18 27.0195 189.066 27.2372 188.997C27.4548 188.927 27.6846 188.905 27.9116 188.93C28.1417 188.907 28.374 188.934 28.5932 189.007C28.8125 189.081 29.0137 189.2 29.1837 189.356C29.3536 189.513 29.4885 189.704 29.5795 189.917C29.6705 190.129 29.7155 190.359 29.7116 190.59C29.7115 190.816 29.6639 191.039 29.5719 191.245C29.48 191.451 29.3457 191.635 29.1779 191.786C29.01 191.937 28.8124 192.051 28.5976 192.121C28.3829 192.19 28.156 192.214 27.9316 192.19ZM27.9316 189.42C27.1716 189.42 26.5116 189.81 26.5116 190.56C26.5116 191.31 27.1816 191.71 27.9316 191.71C28.6816 191.71 29.3316 191.34 29.3316 190.57C29.3316 189.8 28.6716 189.42 27.9216 189.42H27.9316Z" fill="white"/>
<path d="M29.6614 193.379H27.5514C26.7214 193.379 26.5014 193.829 26.5014 194.279C26.5014 194.729 26.7414 195.179 27.5514 195.179H29.6614V195.649H27.5714C26.4314 195.649 26.1114 195.019 26.1114 194.269C26.0929 194.079 26.1177 193.888 26.1839 193.709C26.2502 193.53 26.3561 193.369 26.4938 193.237C26.6315 193.105 26.7973 193.006 26.9788 192.948C27.1602 192.889 27.3526 192.872 27.5414 192.899H29.6614V193.379Z" fill="white"/>
<path d="M29.6584 196.559V197.889C29.6802 198.033 29.6705 198.179 29.6301 198.318C29.5897 198.457 29.5195 198.586 29.4244 198.696C29.3292 198.805 29.2115 198.892 29.0792 198.952C28.947 199.011 28.8034 199.041 28.6584 199.039C28.5064 199.049 28.354 199.025 28.213 198.967C28.0719 198.909 27.9459 198.82 27.8446 198.706C27.7433 198.592 27.6694 198.457 27.6284 198.31C27.5875 198.163 27.5807 198.009 27.6084 197.859V196.999H26.1484V196.529L29.6584 196.559ZM27.9984 196.999V197.809C27.9984 198.289 28.2284 198.529 28.6384 198.529C28.7287 198.533 28.8187 198.517 28.9021 198.482C28.9855 198.447 29.0603 198.395 29.1213 198.328C29.1822 198.261 29.2279 198.182 29.255 198.096C29.2822 198.01 29.2902 197.919 29.2784 197.829V196.999H27.9984Z" fill="white"/>
<path d="M27.9316 202.82C27.7003 202.845 27.4662 202.822 27.2448 202.75C27.0233 202.679 26.8195 202.561 26.6467 202.405C26.4738 202.249 26.3359 202.059 26.242 201.846C26.148 201.633 26.1002 201.403 26.1016 201.17C26.1014 200.941 26.1498 200.715 26.2434 200.506C26.3371 200.297 26.4739 200.111 26.6449 199.958C26.8159 199.806 27.0172 199.692 27.2356 199.623C27.4539 199.555 27.6843 199.533 27.9116 199.56C28.1409 199.538 28.3723 199.564 28.5908 199.637C28.8093 199.709 29.0101 199.828 29.1799 199.983C29.3497 200.139 29.4848 200.329 29.5764 200.54C29.668 200.751 29.7141 200.98 29.7116 201.21C29.7129 201.437 29.6663 201.661 29.575 201.868C29.4837 202.075 29.3496 202.261 29.1816 202.413C29.0136 202.565 28.8154 202.68 28.6 202.75C28.3846 202.82 28.1569 202.844 27.9316 202.82ZM27.9316 200.04C27.1716 200.04 26.5116 200.43 26.5116 201.19C26.5116 201.95 27.1816 202.33 27.9316 202.33C28.6816 202.33 29.3316 201.96 29.3316 201.19C29.3316 200.42 28.6716 200 27.9216 200L27.9316 200.04Z" fill="white"/>
<path d="M26.1484 203.539H29.6584V204.159C28.8384 204.659 27.0984 205.759 26.7084 205.959C27.1584 205.959 27.7084 205.959 28.2884 205.959H29.6584V206.399H26.1484V205.819C26.9084 205.359 28.7884 204.219 29.1484 203.999C28.7484 203.999 28.1484 203.999 27.5184 203.999H26.1484V203.539Z" fill="white"/>
<path d="M27.1491 211.359C26.8436 211.282 26.5754 211.099 26.3923 210.843C26.2091 210.586 26.123 210.273 26.1491 209.959C26.1471 209.733 26.1938 209.509 26.286 209.302C26.3782 209.095 26.5137 208.911 26.6835 208.761C26.8532 208.611 27.0532 208.499 27.2698 208.433C27.4865 208.368 27.7147 208.349 27.9391 208.379C28.1653 208.354 28.3942 208.377 28.6112 208.445C28.8281 208.514 29.0283 208.627 29.1988 208.778C29.3693 208.929 29.5064 209.113 29.6011 209.32C29.6959 209.527 29.7463 209.752 29.7491 209.979C29.7789 210.301 29.6862 210.621 29.4897 210.877C29.2931 211.133 29.0072 211.305 28.6891 211.359V210.889C28.8953 210.842 29.0776 210.722 29.2025 210.551C29.3274 210.38 29.3865 210.17 29.3691 209.959C29.3691 209.179 28.6591 208.869 27.9491 208.869C27.2391 208.869 26.5391 209.169 26.5391 209.979C26.529 210.182 26.5876 210.382 26.7056 210.547C26.8236 210.713 26.994 210.833 27.1891 210.889L27.1491 211.359Z" fill="white"/>
<path d="M27.9316 215.129C27.7003 215.155 27.4662 215.131 27.2448 215.059C27.0233 214.988 26.8195 214.87 26.6467 214.715C26.4738 214.559 26.3359 214.368 26.242 214.155C26.148 213.942 26.1002 213.712 26.1016 213.479C26.103 213.251 26.1524 213.025 26.2466 212.817C26.3407 212.609 26.4776 212.423 26.6482 212.271C26.8189 212.12 27.0195 212.005 27.2372 211.936C27.4548 211.867 27.6846 211.844 27.9116 211.869C28.1409 211.847 28.3723 211.873 28.5908 211.946C28.8093 212.019 29.0101 212.137 29.1799 212.293C29.3497 212.448 29.4848 212.638 29.5764 212.849C29.668 213.061 29.7141 213.289 29.7116 213.519C29.7129 213.746 29.6663 213.97 29.575 214.177C29.4837 214.385 29.3496 214.57 29.1816 214.722C29.0136 214.874 28.8154 214.989 28.6 215.059C28.3846 215.129 28.1569 215.153 27.9316 215.129ZM27.9316 212.359C27.1716 212.359 26.5116 212.749 26.5116 213.499C26.5116 214.249 27.1816 214.639 27.9316 214.639C28.6816 214.639 29.3316 214.269 29.3316 213.499C29.3316 212.729 28.6716 212.359 27.9216 212.359H27.9316Z" fill="white"/>
<path d="M29.6588 216.31H27.5488C26.7188 216.31 26.4988 216.77 26.4988 217.22C26.4988 217.67 26.7388 218.11 27.5488 218.11H29.6588V218.58H27.5688C26.4288 218.58 26.1088 217.95 26.1088 217.21C26.0883 217.02 26.1117 216.828 26.1772 216.648C26.2427 216.468 26.3487 216.306 26.4868 216.174C26.625 216.041 26.7916 215.942 26.974 215.885C27.1564 215.827 27.3496 215.812 27.5388 215.84H29.6588V216.31Z" fill="white"/>
<path d="M29.6584 219.49V220.83C29.6802 220.974 29.6705 221.12 29.6301 221.259C29.5897 221.398 29.5195 221.527 29.4244 221.636C29.3292 221.746 29.2115 221.833 29.0792 221.893C28.947 221.952 28.8034 221.982 28.6584 221.98C28.5064 221.99 28.354 221.966 28.213 221.908C28.0719 221.85 27.9459 221.761 27.8446 221.647C27.7433 221.533 27.6694 221.398 27.6284 221.251C27.5875 221.104 27.5807 220.95 27.6084 220.8V220H26.1484V219.53L29.6584 219.49ZM27.9984 220V220.82C27.9984 221.3 28.2284 221.54 28.6384 221.54C28.7287 221.544 28.8187 221.528 28.9021 221.493C28.9855 221.458 29.0603 221.406 29.1213 221.339C29.1822 221.272 29.2279 221.193 29.255 221.107C29.2822 221.021 29.2902 220.93 29.2784 220.84V220H27.9984Z" fill="white"/>
<path d="M27.9316 225.75C27.7003 225.776 27.4662 225.752 27.2448 225.681C27.0233 225.609 26.8195 225.492 26.6467 225.336C26.4738 225.18 26.3359 224.989 26.242 224.776C26.148 224.563 26.1002 224.333 26.1016 224.1C26.103 223.872 26.1524 223.646 26.2466 223.438C26.3407 223.23 26.4776 223.044 26.6482 222.893C26.8189 222.741 27.0195 222.627 27.2372 222.557C27.4548 222.488 27.6846 222.465 27.9116 222.49C28.1409 222.468 28.3723 222.494 28.5908 222.567C28.8093 222.64 29.0101 222.758 29.1799 222.914C29.3497 223.069 29.4848 223.259 29.5764 223.47C29.668 223.682 29.7141 223.91 29.7116 224.14C29.7129 224.367 29.6663 224.591 29.575 224.799C29.4837 225.006 29.3496 225.192 29.1816 225.343C29.0136 225.495 28.8154 225.61 28.6 225.68C28.3846 225.75 28.1569 225.774 27.9316 225.75ZM27.9316 222.98C27.1716 222.98 26.5116 223.37 26.5116 224.12C26.5116 224.87 27.1816 225.26 27.9316 225.26C28.6816 225.26 29.3316 224.9 29.3316 224.13C29.3316 223.36 28.6716 223 27.9216 223L27.9316 222.98Z" fill="white"/>
<path d="M26.1484 226.48H29.6584V227.1C28.8384 227.6 27.0984 228.69 26.7084 228.89C27.1584 228.89 27.7084 228.89 28.2884 228.89H29.6584V229.33H26.1484V228.75C26.9084 228.29 28.7884 227.14 29.1484 226.92C28.7484 226.92 28.1484 226.92 27.5184 226.92H26.1484V226.48Z" fill="white"/>
<path d="M27.1498 234.291C26.8433 234.216 26.5739 234.033 26.3904 233.776C26.2069 233.519 26.1216 233.205 26.1498 232.891C26.1478 232.664 26.1945 232.44 26.2867 232.234C26.3789 232.027 26.5144 231.842 26.6842 231.692C26.8539 231.542 27.0539 231.431 27.2705 231.365C27.4872 231.299 27.7154 231.281 27.9398 231.311C28.166 231.286 28.3949 231.308 28.6119 231.377C28.8288 231.446 29.029 231.559 29.1995 231.71C29.37 231.86 29.5071 232.045 29.6018 232.252C29.6966 232.459 29.747 232.683 29.7498 232.911C29.782 233.233 29.6903 233.555 29.4933 233.811C29.2963 234.067 29.009 234.239 28.6898 234.291V233.831C28.8968 233.781 29.0793 233.659 29.204 233.487C29.3288 233.314 29.3876 233.103 29.3698 232.891C29.3698 232.121 28.6598 231.801 27.9498 231.801C27.2398 231.801 26.5398 232.101 26.5398 232.911C26.5297 233.114 26.5883 233.314 26.7063 233.479C26.8243 233.644 26.9947 233.765 27.1898 233.821L27.1498 234.291Z" fill="white"/>
<path d="M27.9316 238.07C27.7003 238.095 27.4662 238.072 27.2448 238C27.0233 237.929 26.8195 237.811 26.6467 237.655C26.4738 237.499 26.3359 237.309 26.242 237.096C26.148 236.883 26.1002 236.653 26.1016 236.42C26.1014 236.191 26.1498 235.965 26.2434 235.756C26.3371 235.547 26.4739 235.361 26.6449 235.208C26.8159 235.056 27.0172 234.942 27.2356 234.873C27.4539 234.805 27.6843 234.783 27.9116 234.81C28.1412 234.786 28.3733 234.811 28.5925 234.883C28.8117 234.955 29.0131 235.074 29.1833 235.23C29.3535 235.386 29.4886 235.576 29.5796 235.788C29.6707 236 29.7157 236.229 29.7116 236.46C29.7129 236.687 29.6663 236.911 29.575 237.118C29.4837 237.325 29.3496 237.511 29.1816 237.663C29.0136 237.815 28.8154 237.93 28.6 238C28.3846 238.07 28.1569 238.094 27.9316 238.07ZM27.9316 235.29C27.1716 235.29 26.5116 235.68 26.5116 236.44C26.5116 237.2 27.1816 237.58 27.9316 237.58C28.6816 237.58 29.3316 237.21 29.3316 236.44C29.3316 235.67 28.6716 235.29 27.9216 235.29H27.9316Z" fill="white"/>
<path d="M29.6616 239.25H27.5516C26.7216 239.25 26.5016 239.7 26.5016 240.15C26.5016 240.6 26.7416 241.05 27.5516 241.05H29.6616V241.52H27.5716C26.4316 241.52 26.1116 240.89 26.1116 240.14C26.0928 239.95 26.1174 239.759 26.1837 239.58C26.2499 239.402 26.3561 239.241 26.494 239.11C26.632 238.979 26.7981 238.881 26.9796 238.823C27.1612 238.766 27.3534 238.751 27.5416 238.78H29.6616V239.25Z" fill="white"/>
<path d="M29.6584 242.43V243.76C29.6818 243.904 29.6733 244.051 29.6337 244.192C29.594 244.332 29.524 244.462 29.4287 244.573C29.3334 244.683 29.2151 244.772 29.082 244.832C28.949 244.891 28.8044 244.922 28.6584 244.92C28.5064 244.93 28.354 244.905 28.213 244.847C28.0719 244.79 27.9459 244.701 27.8446 244.587C27.7433 244.473 27.6694 244.337 27.6284 244.191C27.5875 244.044 27.5807 243.89 27.6084 243.74V242.9H26.1484V242.43H29.6584ZM27.9984 242.9V243.71C27.9984 244.19 28.2284 244.43 28.6384 244.43C28.7287 244.433 28.8187 244.417 28.9021 244.383C28.9855 244.348 29.0603 244.295 29.1213 244.229C29.1822 244.162 29.2279 244.083 29.255 243.997C29.2822 243.91 29.2902 243.819 29.2784 243.73V242.9H27.9984Z" fill="white"/>
<path d="M27.9284 248.691C27.6937 248.717 27.4562 248.692 27.2319 248.618C27.0075 248.544 26.8017 248.423 26.6282 248.263C26.4547 248.103 26.3177 247.907 26.2263 247.689C26.1349 247.472 26.0913 247.237 26.0984 247.001C26.0998 246.772 26.1492 246.547 26.2434 246.339C26.3375 246.131 26.4744 245.945 26.6451 245.793C26.8157 245.641 27.0164 245.527 27.234 245.458C27.4516 245.388 27.6814 245.366 27.9084 245.391C28.1377 245.368 28.3691 245.394 28.5876 245.467C28.8062 245.54 29.0069 245.658 29.1767 245.814C29.3465 245.97 29.4816 246.159 29.5732 246.371C29.6649 246.582 29.7109 246.81 29.7084 247.041C29.7154 247.271 29.6731 247.499 29.5843 247.712C29.4955 247.924 29.3623 248.114 29.1937 248.271C29.025 248.427 28.8248 248.545 28.6066 248.618C28.3883 248.69 28.1571 248.715 27.9284 248.691ZM27.9284 245.921C27.1684 245.921 26.5084 246.311 26.5084 247.061C26.5084 247.811 27.1784 248.201 27.9284 248.201C28.6784 248.201 29.3284 247.831 29.3284 247.061C29.3284 246.291 28.6684 245.921 27.9184 245.921H27.9284Z" fill="white"/>
<path d="M26.1484 249.41H29.6584V250C28.8384 250.51 27.0984 251.6 26.7084 251.8C27.1584 251.8 27.7084 251.8 28.2884 251.8H29.6584V252.24H26.1484V251.66C26.9084 251.19 28.7884 250.05 29.1484 249.83C28.7484 249.83 28.1484 249.83 27.5184 249.83H26.1484V249.41Z" fill="white"/>
<path d="M27.1491 257.23C26.8436 257.153 26.5754 256.97 26.3923 256.714C26.2091 256.457 26.123 256.144 26.1491 255.83C26.1471 255.604 26.1938 255.38 26.286 255.173C26.3782 254.966 26.5137 254.782 26.6835 254.632C26.8532 254.482 27.0532 254.37 27.2698 254.305C27.4865 254.239 27.7147 254.22 27.9391 254.25C28.1653 254.225 28.3942 254.248 28.6112 254.316C28.8281 254.385 29.0283 254.498 29.1988 254.649C29.3693 254.8 29.5064 254.985 29.6011 255.191C29.6959 255.398 29.7463 255.623 29.7491 255.85C29.7813 256.172 29.6896 256.494 29.4926 256.75C29.2956 257.007 29.0083 257.179 28.6891 257.23V256.76C28.8964 256.715 29.0799 256.595 29.2051 256.424C29.3304 256.253 29.3887 256.042 29.3691 255.83C29.3691 255.05 28.6591 254.74 27.9491 254.74C27.2391 254.74 26.5391 255.04 26.5391 255.85C26.529 256.053 26.5876 256.253 26.7056 256.419C26.8236 256.584 26.994 256.704 27.1891 256.76L27.1491 257.23Z" fill="white"/>
<path d="M27.9316 261C27.7003 261.026 27.4662 261.002 27.2448 260.931C27.0233 260.859 26.8195 260.742 26.6467 260.586C26.4738 260.43 26.3359 260.239 26.242 260.026C26.148 259.813 26.1002 259.583 26.1016 259.35C26.103 259.122 26.1524 258.896 26.2466 258.688C26.3407 258.48 26.4776 258.294 26.6482 258.143C26.8189 257.991 27.0195 257.877 27.2372 257.807C27.4548 257.738 27.6846 257.715 27.9116 257.74C28.1409 257.718 28.3723 257.744 28.5908 257.817C28.8093 257.89 29.0101 258.008 29.1799 258.164C29.3497 258.319 29.4848 258.509 29.5764 258.72C29.668 258.932 29.7141 259.16 29.7116 259.39C29.7129 259.617 29.6663 259.841 29.575 260.049C29.4837 260.256 29.3496 260.442 29.1816 260.593C29.0136 260.745 28.8154 260.86 28.6 260.93C28.3846 261 28.1569 261.024 27.9316 261ZM27.9316 258.23C27.1716 258.23 26.5116 258.62 26.5116 259.37C26.5116 260.12 27.1816 260.51 27.9316 260.51C28.6816 260.51 29.3316 260.15 29.3316 259.38C29.3316 258.61 28.6716 258.23 27.9216 258.23H27.9316Z" fill="white"/>
<path d="M29.6614 262.18H27.5514C26.7214 262.18 26.5014 262.64 26.5014 263.09C26.5014 263.54 26.7414 263.99 27.5514 263.99H29.6614V264.46H27.5714C26.4314 264.46 26.1114 263.83 26.1114 263.08C26.0929 262.89 26.1177 262.698 26.1839 262.52C26.2502 262.341 26.3561 262.179 26.4938 262.047C26.6315 261.916 26.7973 261.817 26.9788 261.758C27.1602 261.7 27.3526 261.683 27.5414 261.71H29.6614V262.18Z" fill="white"/>
<path d="M29.6584 265.369V266.699C29.6802 266.842 29.6705 266.989 29.6301 267.128C29.5897 267.267 29.5195 267.396 29.4244 267.505C29.3292 267.615 29.2115 267.702 29.0792 267.762C28.947 267.821 28.8034 267.851 28.6584 267.849C28.5064 267.859 28.354 267.835 28.213 267.777C28.0719 267.719 27.9459 267.63 27.8446 267.516C27.7433 267.402 27.6694 267.267 27.6284 267.12C27.5875 266.973 27.5807 266.819 27.6084 266.669V265.839H26.1484V265.369H29.6584ZM27.9884 265.839V266.649C27.9884 267.129 28.2184 267.369 28.6284 267.369C28.7187 267.373 28.8087 267.357 28.8921 267.322C28.9755 267.287 29.0503 267.235 29.1113 267.168C29.1722 267.101 29.2179 267.022 29.245 266.936C29.2722 266.85 29.2802 266.759 29.2684 266.669V265.839H27.9884Z" fill="white"/>
<path d="M27.9316 271.629C27.7019 271.654 27.4696 271.631 27.2495 271.561C27.0294 271.49 26.8266 271.375 26.6541 271.221C26.4816 271.067 26.3433 270.879 26.2481 270.669C26.1529 270.458 26.103 270.23 26.1016 269.999C26.1016 269.77 26.1499 269.543 26.2435 269.334C26.337 269.125 26.4737 268.937 26.6445 268.785C26.8153 268.632 27.0164 268.517 27.2348 268.447C27.4531 268.377 27.6837 268.354 27.9116 268.379C28.1417 268.357 28.374 268.383 28.5932 268.456C28.8124 268.53 29.0136 268.649 29.1836 268.806C29.3536 268.962 29.4885 269.153 29.5795 269.366C29.6705 269.579 29.7155 269.808 29.7116 270.039C29.71 270.264 29.6614 270.486 29.5689 270.691C29.4763 270.896 29.3418 271.079 29.1742 271.229C29.0065 271.379 28.8093 271.492 28.5952 271.561C28.3812 271.63 28.1552 271.653 27.9316 271.629ZM27.9316 268.849C27.1716 268.849 26.5116 269.239 26.5116 269.999C26.5116 270.759 27.1816 271.139 27.9316 271.139C28.6816 271.139 29.3316 270.769 29.3316 269.999C29.3316 269.229 28.6716 268.849 27.9216 268.849H27.9316Z" fill="white"/>
<path d="M26.1484 272.35H29.6584V273C28.8384 273.5 27.0984 274.6 26.7084 274.8C27.1584 274.8 27.7084 274.8 28.2884 274.8H29.6584V275.24H26.1484V274.66C26.9084 274.2 28.7884 273.05 29.1484 272.83C28.7484 272.83 28.1484 272.83 27.5184 272.83H26.1484V272.35Z" fill="white"/>
<path d="M27.1485 280.17C26.844 280.091 26.577 279.907 26.3941 279.651C26.2113 279.396 26.1243 279.083 26.1485 278.77C26.1465 278.543 26.1931 278.319 26.2853 278.112C26.3775 277.906 26.5131 277.721 26.6828 277.571C26.8526 277.421 27.0526 277.31 27.2692 277.244C27.4858 277.178 27.7141 277.16 27.9385 277.19C28.1638 277.165 28.3919 277.187 28.6082 277.255C28.8245 277.323 29.0242 277.436 29.1945 277.585C29.3649 277.735 29.5021 277.918 29.5975 278.124C29.6929 278.33 29.7443 278.553 29.7485 278.78C29.7785 279.102 29.6862 279.424 29.4898 279.682C29.2934 279.939 29.0074 280.113 28.6885 280.17V279.7C28.8937 279.651 29.0747 279.53 29.1993 279.36C29.3238 279.189 29.3838 278.98 29.3685 278.77C29.3685 277.99 28.6585 277.67 27.9485 277.67C27.2385 277.67 26.5385 277.97 26.5385 278.79C26.5283 278.993 26.587 279.193 26.705 279.358C26.823 279.523 26.9934 279.644 27.1885 279.7L27.1485 280.17Z" fill="white"/>
<path d="M27.9316 283.94C27.7003 283.965 27.4662 283.941 27.2448 283.87C27.0233 283.799 26.8195 283.681 26.6467 283.525C26.4738 283.369 26.3359 283.179 26.242 282.966C26.148 282.753 26.1002 282.523 26.1016 282.29C26.103 282.062 26.1524 281.836 26.2466 281.628C26.3407 281.42 26.4776 281.234 26.6482 281.082C26.8189 280.93 27.0195 280.816 27.2372 280.747C27.4548 280.677 27.6846 280.655 27.9116 280.68C28.1409 280.657 28.3723 280.683 28.5908 280.756C28.8093 280.829 29.0101 280.947 29.1799 281.103C29.3497 281.259 29.4848 281.449 29.5764 281.66C29.668 281.871 29.7141 282.1 29.7116 282.33C29.7129 282.556 29.6663 282.781 29.575 282.988C29.4837 283.195 29.3496 283.381 29.1816 283.533C29.0136 283.685 28.8154 283.8 28.6 283.87C28.3846 283.94 28.1569 283.964 27.9316 283.94ZM27.9316 281.17C27.1716 281.17 26.5116 281.56 26.5116 282.31C26.5116 283.06 27.1816 283.45 27.9316 283.45C28.6816 283.45 29.3316 283.08 29.3316 282.31C29.3316 281.54 28.6716 281.17 27.9216 281.17H27.9316Z" fill="white"/>
<path d="M29.6588 285.121H27.5488C26.7188 285.121 26.4988 285.581 26.4988 286.031C26.4988 286.481 26.7388 286.921 27.5488 286.921H29.6588V287.391H27.5688C26.4288 287.391 26.1088 286.761 26.1088 286.021C26.0883 285.831 26.1117 285.638 26.1772 285.458C26.2427 285.279 26.3487 285.116 26.4868 284.984C26.625 284.852 26.7916 284.753 26.974 284.695C27.1564 284.637 27.3496 284.622 27.5388 284.651H29.6588V285.121Z" fill="white"/>
<path d="M29.6584 288.301V289.641C29.6802 289.784 29.6705 289.93 29.6301 290.07C29.5897 290.209 29.5195 290.338 29.4244 290.447C29.3292 290.556 29.2115 290.644 29.0792 290.703C28.947 290.763 28.8034 290.792 28.6584 290.791C28.5064 290.801 28.354 290.776 28.213 290.719C28.0719 290.661 27.9459 290.572 27.8446 290.458C27.7433 290.344 27.6694 290.208 27.6284 290.062C27.5875 289.915 27.5807 289.761 27.6084 289.611V288.771H26.1484V288.301H29.6584ZM27.9884 288.771V289.591C27.9884 290.071 28.2184 290.311 28.6284 290.311C29.0384 290.311 29.2684 290.021 29.2684 289.601V288.771H27.9884Z" fill="white"/>
<path d="M27.9316 294.559C27.7003 294.584 27.4662 294.561 27.2448 294.489C27.0233 294.418 26.8195 294.3 26.6467 294.144C26.4738 293.989 26.3359 293.798 26.242 293.585C26.148 293.372 26.1002 293.142 26.1016 292.909C26.103 292.681 26.1524 292.455 26.2466 292.247C26.3407 292.039 26.4776 291.853 26.6482 291.701C26.8189 291.549 27.0195 291.435 27.2372 291.366C27.4548 291.297 27.6846 291.274 27.9116 291.299C28.1409 291.277 28.3723 291.303 28.5908 291.376C28.8093 291.448 29.0101 291.567 29.1799 291.722C29.3497 291.878 29.4848 292.068 29.5764 292.279C29.668 292.49 29.7141 292.719 29.7116 292.949C29.7129 293.176 29.6663 293.4 29.575 293.607C29.4837 293.814 29.3496 294 29.1816 294.152C29.0136 294.304 28.8154 294.419 28.6 294.489C28.3846 294.559 28.1569 294.583 27.9316 294.559ZM27.9316 291.789C27.1716 291.789 26.5116 292.179 26.5116 292.929C26.5116 293.679 27.1816 294.069 27.9316 294.069C28.6816 294.069 29.3316 293.699 29.3316 292.929C29.3316 292.159 28.6716 291.789 27.9216 291.789H27.9316Z" fill="white"/>
<path d="M26.1484 295.289H29.6584V295.899C28.8384 296.409 27.0984 297.499 26.7084 297.699C27.1584 297.699 27.7084 297.699 28.2884 297.699H29.6584V298.139H26.1484V297.559C26.9084 297.089 28.7884 295.949 29.1484 295.729C28.7484 295.729 28.1484 295.729 27.5184 295.729H26.1484V295.289Z" fill="white"/>
<path d="M21.0912 119.61C20.7847 119.535 20.5153 119.352 20.3318 119.095C20.1484 118.838 20.063 118.524 20.0912 118.21C20.0909 117.984 20.1386 117.761 20.2314 117.555C20.3241 117.349 20.4597 117.165 20.629 117.015C20.7984 116.866 20.9977 116.754 21.2136 116.688C21.4295 116.621 21.6571 116.601 21.8812 116.63C22.1082 116.603 22.3382 116.625 22.5564 116.693C22.7745 116.761 22.9759 116.874 23.1476 117.025C23.3192 117.175 23.4572 117.361 23.5525 117.568C23.6479 117.776 23.6986 118.001 23.7012 118.23C23.7334 118.552 23.6417 118.873 23.4447 119.13C23.2477 119.386 22.9604 119.558 22.6412 119.61V119.15C22.8454 119.097 23.0243 118.973 23.1468 118.801C23.2692 118.63 23.3274 118.42 23.3112 118.21C23.3112 117.44 22.6112 117.12 21.9012 117.12C21.1912 117.12 20.4812 117.42 20.4812 118.23C20.4711 118.433 20.5297 118.633 20.6477 118.798C20.7657 118.963 20.9361 119.084 21.1312 119.14L21.0912 119.61Z" fill="white"/>
<path d="M21.87 123.389C21.6359 123.419 21.3981 123.399 21.1725 123.329C20.9469 123.26 20.7387 123.144 20.5617 122.987C20.3847 122.831 20.2431 122.639 20.1462 122.424C20.0494 122.209 19.9995 121.975 20 121.739C20 121.51 20.0484 121.283 20.1419 121.074C20.2355 120.865 20.3721 120.678 20.5429 120.525C20.7137 120.372 20.9149 120.257 21.1332 120.187C21.3516 120.117 21.5822 120.094 21.81 120.119C22.0409 120.095 22.2743 120.12 22.4947 120.193C22.7152 120.266 22.9176 120.385 23.0887 120.542C23.2598 120.699 23.3957 120.89 23.4873 121.104C23.5788 121.317 23.6241 121.547 23.62 121.779C23.6209 122.003 23.5751 122.225 23.4855 122.43C23.396 122.635 23.2647 122.819 23.1001 122.97C22.9354 123.122 22.741 123.237 22.5292 123.309C22.3174 123.382 22.0929 123.409 21.87 123.389ZM21.87 120.609C21.11 120.609 20.44 120.999 20.44 121.759C20.44 122.519 21.11 122.899 21.86 122.899C22.61 122.899 23.26 122.529 23.26 121.759C23.26 120.989 22.62 120.609 21.87 120.609Z" fill="white"/>
<path d="M23.6091 124.57H21.4891C20.6591 124.57 20.4891 125.02 20.4891 125.47C20.4891 125.92 20.7291 126.37 21.4891 126.37H23.6091V126.84H21.5191C20.3791 126.84 20.0491 126.21 20.0491 125.46C20.0302 125.269 20.0552 125.077 20.1219 124.897C20.1887 124.717 20.2956 124.555 20.4345 124.423C20.5733 124.291 20.7405 124.193 20.9232 124.135C21.106 124.077 21.2995 124.062 21.4891 124.09H23.6091V124.57Z" fill="white"/>
<path d="M23.6098 127.75V129.08C23.6316 129.223 23.6219 129.37 23.5815 129.509C23.5411 129.648 23.4709 129.777 23.3758 129.886C23.2807 129.996 23.1629 130.083 23.0306 130.142C22.8984 130.202 22.7548 130.232 22.6098 130.23C22.4588 130.24 22.3075 130.215 22.1673 130.158C22.0271 130.101 21.9018 130.013 21.8007 129.9C21.6996 129.787 21.6254 129.653 21.5836 129.508C21.5419 129.362 21.5338 129.209 21.5598 129.06V128.22H20.0898V127.75H23.6098ZM21.9298 128.22V129C21.9298 129.48 22.1698 129.72 22.5698 129.72C22.6609 129.725 22.7521 129.71 22.8367 129.676C22.9213 129.642 22.9974 129.59 23.0595 129.523C23.1216 129.456 23.1681 129.376 23.1959 129.289C23.2236 129.202 23.2318 129.11 23.2198 129.02V128.19L21.9298 128.22Z" fill="white"/>
<path d="M21.87 133.999C21.6364 134.031 21.3989 134.012 21.1733 133.944C20.9476 133.876 20.7392 133.76 20.5621 133.605C20.3849 133.449 20.243 133.258 20.1461 133.043C20.0491 132.828 19.9993 132.595 20 132.359C19.9998 132.131 20.0482 131.904 20.1418 131.695C20.2355 131.487 20.3723 131.3 20.5433 131.148C20.7143 130.996 20.9156 130.882 21.134 130.813C21.3523 130.744 21.5827 130.723 21.81 130.749C22.0401 130.725 22.2726 130.75 22.4923 130.823C22.7121 130.895 22.914 131.013 23.085 131.169C23.2559 131.324 23.3919 131.515 23.4842 131.727C23.5764 131.939 23.6227 132.168 23.62 132.399C23.6195 132.622 23.5726 132.843 23.4825 133.047C23.3924 133.25 23.2609 133.433 23.0964 133.584C22.9319 133.734 22.7379 133.849 22.5268 133.92C22.3157 133.992 22.0921 134.019 21.87 133.999ZM21.87 131.229C21.11 131.229 20.44 131.609 20.44 132.369C20.44 133.129 21.11 133.509 21.86 133.509C22.61 133.509 23.26 133.139 23.26 132.369C23.26 131.599 22.62 131.239 21.87 131.239V131.229Z" fill="white"/>
<path d="M20.0898 134.73H23.6098V135.35C22.7898 135.85 21.0398 136.95 20.6598 137.15C21.1098 137.15 21.6598 137.15 22.2398 137.15H23.6098V137.59H20.0898V137C20.8598 136.53 22.7398 135.39 23.0898 135.17C22.6898 135.17 22.0898 135.17 21.4598 135.17H20.0898V134.73Z" fill="white"/>
<path d="M21.0905 142.549C20.785 142.472 20.5168 142.289 20.3337 142.033C20.1505 141.776 20.0644 141.463 20.0905 141.149C20.0902 140.923 20.1379 140.7 20.2307 140.494C20.3234 140.288 20.459 140.104 20.6283 139.955C20.7977 139.805 20.997 139.693 21.2129 139.627C21.4288 139.561 21.6564 139.541 21.8805 139.569C22.1075 139.543 22.3375 139.564 22.5557 139.632C22.7738 139.7 22.9752 139.813 23.1469 139.964C23.3185 140.115 23.4565 140.3 23.5518 140.508C23.6472 140.715 23.6979 140.941 23.7005 141.169C23.7327 141.491 23.641 141.813 23.444 142.069C23.247 142.326 22.9597 142.497 22.6405 142.549V142.079C22.8449 142.03 23.0248 141.909 23.1477 141.738C23.2706 141.568 23.3284 141.359 23.3105 141.149C23.3105 140.369 22.6105 140.059 21.9005 140.059C21.1905 140.059 20.4805 140.359 20.4805 141.169C20.4704 141.372 20.529 141.572 20.647 141.737C20.765 141.903 20.9354 142.023 21.1305 142.079L21.0905 142.549Z" fill="white"/>
<path d="M21.8701 146.321C21.6357 146.352 21.3972 146.333 21.1709 146.264C20.9446 146.196 20.7357 146.079 20.5583 145.923C20.381 145.766 20.2393 145.573 20.143 145.357C20.0467 145.141 19.998 144.907 20.0001 144.671C20.0015 144.442 20.0509 144.217 20.145 144.009C20.2392 143.801 20.376 143.615 20.5467 143.463C20.7174 143.311 20.918 143.197 21.1357 143.128C21.3533 143.058 21.5831 143.036 21.8101 143.061C22.0401 143.037 22.2727 143.062 22.4924 143.134C22.7121 143.206 22.9141 143.324 23.085 143.48C23.256 143.636 23.392 143.826 23.4842 144.038C23.5764 144.25 23.6227 144.479 23.6201 144.711C23.6209 144.935 23.5751 145.156 23.4856 145.361C23.3961 145.566 23.2648 145.75 23.1001 145.902C22.9355 146.053 22.7411 146.169 22.5293 146.241C22.3175 146.313 22.093 146.34 21.8701 146.321ZM21.8701 143.551C21.1101 143.551 20.4401 143.941 20.4401 144.691C20.4401 145.441 21.1101 145.831 21.8601 145.831C22.6101 145.831 23.2601 145.471 23.2601 144.691C23.2601 143.911 22.6201 143.551 21.8701 143.551Z" fill="white"/>
<path d="M23.6086 147.501H21.4886C20.6586 147.501 20.4886 147.961 20.4886 148.411C20.4886 148.861 20.7286 149.311 21.4886 149.311H23.6086V149.781H21.5186C20.3786 149.781 20.0485 149.141 20.0485 148.401C20.0247 148.208 20.0459 148.012 20.1105 147.828C20.1751 147.645 20.2813 147.479 20.4207 147.343C20.5602 147.207 20.7292 147.106 20.9145 147.046C21.0997 146.987 21.2962 146.971 21.4886 147.001H23.6086V147.501Z" fill="white"/>
<path d="M23.6098 150.68V152C23.6316 152.143 23.6219 152.289 23.5815 152.429C23.5411 152.568 23.4709 152.697 23.3758 152.806C23.2807 152.915 23.1629 153.003 23.0306 153.062C22.8984 153.121 22.7548 153.151 22.6098 153.15C22.4592 153.162 22.3076 153.14 22.1666 153.085C22.0257 153.031 21.8989 152.945 21.7959 152.834C21.6929 152.724 21.6164 152.591 21.572 152.446C21.5277 152.302 21.5167 152.149 21.5398 152V151.16H20.0898V150.69L23.6098 150.68ZM21.9298 151.15V152C21.9298 152.48 22.1698 152.72 22.5698 152.72C22.6609 152.725 22.7521 152.71 22.8367 152.676C22.9213 152.642 22.9974 152.589 23.0595 152.523C23.1216 152.456 23.1681 152.376 23.1959 152.289C23.2236 152.202 23.2318 152.11 23.2198 152.02V151.18L21.9298 151.15Z" fill="white"/>
<path d="M21.8701 156.94C21.6357 156.971 21.3972 156.952 21.1709 156.884C20.9446 156.815 20.7357 156.698 20.5583 156.542C20.381 156.385 20.2393 156.193 20.143 155.977C20.0467 155.761 19.998 155.526 20.0001 155.29C20.0015 155.061 20.0509 154.836 20.145 154.628C20.2392 154.42 20.376 154.234 20.5467 154.082C20.7174 153.93 20.918 153.816 21.1357 153.747C21.3533 153.677 21.5831 153.655 21.8101 153.68C22.041 153.656 22.2744 153.681 22.4948 153.754C22.7152 153.827 22.9177 153.945 23.0888 154.102C23.2599 154.259 23.3957 154.451 23.4873 154.664C23.5789 154.877 23.6242 155.108 23.6201 155.34C23.6195 155.563 23.5727 155.783 23.4826 155.987C23.3924 156.191 23.261 156.374 23.0964 156.524C22.9319 156.675 22.738 156.789 22.5269 156.861C22.3158 156.932 22.0921 156.959 21.8701 156.94ZM21.8701 154.17C21.1101 154.17 20.4401 154.56 20.4401 155.31C20.4401 156.06 21.1101 156.46 21.8601 156.46C22.6101 156.46 23.2601 156.09 23.2601 155.32C23.2601 154.55 22.6201 154.17 21.8701 154.17Z" fill="white"/>
<path d="M20.0898 157.67H23.6098V158.29C22.7898 158.79 21.0398 159.89 20.6598 160.08C21.1098 160.08 21.6598 160.08 22.2398 160.08H23.6098V160.52H20.0898V159.94C20.8598 159.48 22.7398 158.33 23.0898 158.11C22.6898 158.11 22.0898 158.11 21.4598 158.11H20.0898V157.67Z" fill="white"/>
<path d="M21.0904 165.481C20.7857 165.406 20.5177 165.225 20.3344 164.97C20.1512 164.715 20.0646 164.404 20.0904 164.091C20.0886 163.864 20.1353 163.64 20.2274 163.432C20.3195 163.225 20.4549 163.04 20.6244 162.89C20.7939 162.739 20.9937 162.626 21.2104 162.559C21.427 162.492 21.6554 162.472 21.8804 162.501C22.107 162.476 22.3365 162.498 22.5539 162.567C22.7714 162.636 22.9722 162.749 23.1435 162.899C23.3148 163.05 23.4527 163.234 23.5486 163.441C23.6445 163.648 23.6962 163.873 23.7004 164.101C23.7326 164.423 23.6408 164.745 23.4439 165.001C23.2469 165.257 22.9595 165.429 22.6404 165.481V165.001C22.8445 164.948 23.0235 164.824 23.1459 164.652C23.2684 164.481 23.3266 164.271 23.3104 164.061C23.3104 163.291 22.6104 162.971 21.9004 162.971C21.1904 162.971 20.4804 163.271 20.4804 164.081C20.4697 164.285 20.528 164.487 20.6459 164.654C20.7638 164.82 20.9345 164.943 21.1304 165.001L21.0904 165.481Z" fill="white"/>
<path d="M21.8701 169.261C21.6357 169.292 21.3972 169.273 21.1709 169.204C20.9446 169.136 20.7357 169.019 20.5583 168.863C20.381 168.706 20.2393 168.514 20.143 168.297C20.0467 168.081 19.998 167.847 20.0001 167.611C19.9991 167.378 20.0484 167.148 20.1444 166.936C20.2404 166.724 20.381 166.535 20.5566 166.382C20.7321 166.23 20.9385 166.116 21.1617 166.051C21.3849 165.985 21.6197 165.968 21.8501 166.001C22.0801 165.977 22.3127 166.002 22.5324 166.074C22.7521 166.146 22.9541 166.264 23.125 166.42C23.296 166.576 23.432 166.766 23.5242 166.978C23.6164 167.19 23.6627 167.419 23.6601 167.651C23.6615 167.878 23.6147 168.103 23.5228 168.312C23.4309 168.52 23.2959 168.706 23.1268 168.858C22.9576 169.01 22.7582 169.125 22.5416 169.194C22.325 169.263 22.0961 169.286 21.8701 169.261ZM21.8701 166.481C21.1101 166.481 20.4401 166.871 20.4401 167.631C20.4401 168.391 21.1101 168.771 21.8601 168.771C22.6101 168.771 23.2601 168.401 23.2601 167.631C23.2601 166.861 22.6201 166.481 21.8701 166.481Z" fill="white"/>
<path d="M23.6105 170.439H21.4905C20.6605 170.439 20.4905 170.889 20.4905 171.349C20.4905 171.809 20.7305 172.239 21.4905 172.239H23.6105V172.709H21.5205C20.3805 172.709 20.0505 172.079 20.0505 171.329C20.0362 171.141 20.0645 170.953 20.1335 170.777C20.2025 170.602 20.3102 170.444 20.4488 170.316C20.5873 170.188 20.7529 170.093 20.9333 170.038C21.1137 169.984 21.3042 169.97 21.4905 169.999H23.6105V170.439Z" fill="white"/>
<path d="M23.6098 173.619V174.999C23.6316 175.142 23.6219 175.289 23.5815 175.428C23.5411 175.567 23.4709 175.696 23.3758 175.805C23.2807 175.915 23.1629 176.002 23.0306 176.062C22.8984 176.121 22.7548 176.151 22.6098 176.149C22.4578 176.159 22.3054 176.135 22.1644 176.077C22.0233 176.019 21.8973 175.93 21.796 175.816C21.6947 175.702 21.6208 175.567 21.5799 175.42C21.5389 175.273 21.5321 175.119 21.5598 174.969V174.129H20.0898V173.659L23.6098 173.619ZM21.9298 174.089V174.899C21.9298 175.389 22.1698 175.629 22.5698 175.629C22.6614 175.633 22.7527 175.616 22.8373 175.581C22.9219 175.546 22.9978 175.493 23.0597 175.425C23.1216 175.357 23.168 175.277 23.1956 175.19C23.2233 175.102 23.2316 175.01 23.2198 174.919V174.089H21.9298Z" fill="white"/>
<path d="M21.8701 179.879C21.6357 179.911 21.3972 179.892 21.1709 179.823C20.9446 179.754 20.7357 179.638 20.5583 179.481C20.381 179.325 20.2393 179.132 20.143 178.916C20.0467 178.7 19.998 178.466 20.0001 178.229C20.0015 178.001 20.0509 177.775 20.145 177.567C20.2392 177.359 20.376 177.173 20.5467 177.021C20.7174 176.87 20.918 176.755 21.1357 176.686C21.3533 176.617 21.5831 176.594 21.8101 176.619C22.0401 176.595 22.2727 176.62 22.4924 176.693C22.7121 176.765 22.9141 176.883 23.085 177.039C23.256 177.194 23.392 177.385 23.4842 177.597C23.5764 177.809 23.6227 178.038 23.6201 178.269C23.6209 178.493 23.5751 178.715 23.4856 178.92C23.3961 179.125 23.2648 179.309 23.1001 179.46C22.9355 179.612 22.7411 179.727 22.5293 179.799C22.3175 179.872 22.093 179.899 21.8701 179.879ZM21.8701 177.109C21.1101 177.109 20.4401 177.499 20.4401 178.249C20.4401 178.999 21.1101 179.389 21.8601 179.389C22.6101 179.389 23.2601 179.019 23.2601 178.249C23.2601 177.479 22.6201 177.109 21.8701 177.109Z" fill="white"/>
<path d="M20.0898 180.609H23.6098V181.219C22.7898 181.729 21.0398 182.819 20.6598 183.019C21.1098 183.019 21.6598 183.019 22.2398 183.019H23.6098V183.459H20.0898V182.879C20.8598 182.409 22.7398 181.269 23.0898 181.049C22.6898 181.049 22.0898 181.049 21.4598 181.049H20.0898V180.609Z" fill="white"/>
<path d="M21.0905 188.42C20.785 188.343 20.5168 188.16 20.3337 187.904C20.1505 187.647 20.0644 187.334 20.0905 187.02C20.0902 186.794 20.1379 186.571 20.2307 186.365C20.3234 186.159 20.459 185.975 20.6283 185.826C20.7977 185.676 20.997 185.564 21.2129 185.498C21.4288 185.432 21.6564 185.412 21.8805 185.44C22.1075 185.414 22.3375 185.435 22.5557 185.503C22.7738 185.571 22.9752 185.684 23.1469 185.835C23.3185 185.986 23.4565 186.171 23.5518 186.379C23.6472 186.586 23.6979 186.812 23.7005 187.04C23.7327 187.362 23.641 187.684 23.444 187.94C23.247 188.197 22.9597 188.368 22.6405 188.42V188C22.8447 187.947 23.0236 187.824 23.1461 187.652C23.2685 187.48 23.3268 187.271 23.3105 187.06C23.3105 186.29 22.6105 185.97 21.9005 185.97C21.1905 185.97 20.4805 186.27 20.4805 187.08C20.4704 187.283 20.529 187.483 20.647 187.649C20.765 187.814 20.9354 187.934 21.1305 187.99L21.0905 188.42Z" fill="white"/>
<path d="M21.8701 192.19C21.6357 192.221 21.3972 192.202 21.1709 192.134C20.9446 192.065 20.7357 191.948 20.5583 191.792C20.381 191.635 20.2393 191.443 20.143 191.227C20.0467 191.011 19.998 190.776 20.0001 190.54C20.0015 190.311 20.0509 190.086 20.145 189.878C20.2392 189.67 20.376 189.484 20.5467 189.332C20.7174 189.18 20.918 189.066 21.1357 188.997C21.3533 188.927 21.5831 188.905 21.8101 188.93C22.041 188.906 22.2744 188.931 22.4948 189.004C22.7152 189.077 22.9177 189.195 23.0888 189.352C23.2599 189.509 23.3957 189.701 23.4873 189.914C23.5789 190.127 23.6242 190.358 23.6201 190.59C23.6195 190.813 23.5727 191.033 23.4826 191.237C23.3924 191.441 23.261 191.624 23.0964 191.774C22.9319 191.925 22.738 192.039 22.5269 192.111C22.3158 192.182 22.0921 192.209 21.8701 192.19ZM21.8701 189.42C21.1101 189.42 20.4401 189.81 20.4401 190.56C20.4401 191.31 21.1101 191.71 21.8601 191.71C22.6101 191.71 23.2601 191.34 23.2601 190.57C23.2601 189.8 22.6201 189.42 21.8701 189.42Z" fill="white"/>
<path d="M23.6091 193.381H21.4891C20.6591 193.381 20.4891 193.831 20.4891 194.281C20.4891 194.731 20.7291 195.181 21.4891 195.181H23.6091V195.651H21.5191C20.3791 195.651 20.0491 195.021 20.0491 194.271C20.0302 194.08 20.0552 193.887 20.1219 193.708C20.1887 193.528 20.2956 193.366 20.4345 193.234C20.5733 193.102 20.7405 193.003 20.9232 192.945C21.106 192.888 21.2995 192.872 21.4891 192.901H23.6091V193.381Z" fill="white"/>
<path d="M23.6098 196.559V197.889C23.6316 198.033 23.6219 198.179 23.5815 198.318C23.5411 198.457 23.4709 198.586 23.3758 198.696C23.2807 198.805 23.1629 198.892 23.0306 198.952C22.8984 199.011 22.7548 199.041 22.6098 199.039C22.4578 199.049 22.3054 199.025 22.1644 198.967C22.0233 198.909 21.8973 198.82 21.796 198.706C21.6947 198.592 21.6208 198.457 21.5799 198.31C21.5389 198.163 21.5321 198.009 21.5598 197.859V196.999H20.0898V196.529L23.6098 196.559ZM21.9298 197.029V197.839C21.9298 198.319 22.1698 198.559 22.5698 198.559C22.6609 198.564 22.7521 198.55 22.8367 198.515C22.9213 198.481 22.9974 198.429 23.0595 198.362C23.1216 198.295 23.1681 198.216 23.1959 198.129C23.2236 198.042 23.2318 197.95 23.2198 197.859V196.999L21.9298 197.029Z" fill="white"/>
<path d="M21.87 202.82C21.6359 202.85 21.3981 202.829 21.1725 202.76C20.9469 202.691 20.7387 202.574 20.5617 202.418C20.3847 202.262 20.2431 202.07 20.1462 201.855C20.0494 201.639 19.9995 201.406 20 201.17C19.9998 200.941 20.0482 200.715 20.1418 200.506C20.2355 200.297 20.3723 200.111 20.5433 199.958C20.7143 199.806 20.9156 199.692 21.134 199.623C21.3523 199.555 21.5827 199.533 21.81 199.56C22.0401 199.536 22.2726 199.561 22.4923 199.633C22.7121 199.705 22.914 199.823 23.085 199.979C23.2559 200.135 23.3919 200.325 23.4842 200.537C23.5764 200.749 23.6227 200.979 23.62 201.21C23.6209 201.434 23.5751 201.655 23.4855 201.86C23.396 202.065 23.2647 202.249 23.1001 202.401C22.9354 202.552 22.741 202.668 22.5292 202.74C22.3174 202.812 22.0929 202.839 21.87 202.82ZM21.87 200.04C21.11 200.04 20.44 200.43 20.44 201.19C20.44 201.95 21.11 202.33 21.86 202.33C22.61 202.33 23.26 201.96 23.26 201.19C23.26 200.42 22.62 200 21.87 200V200.04Z" fill="white"/>
<path d="M20.0898 203.539H23.6098V204.159C22.7898 204.659 21.0398 205.759 20.6598 205.959C21.1098 205.959 21.6598 205.959 22.2398 205.959H23.6098V206.399H20.0898V205.819C20.8598 205.359 22.7398 204.219 23.0898 203.999C22.6898 203.999 22.0898 203.999 21.4598 203.999H20.0898V203.539Z" fill="white"/>
<path d="M21.0905 211.36C20.785 211.283 20.5168 211.1 20.3337 210.843C20.1505 210.587 20.0644 210.274 20.0905 209.96C20.0902 209.734 20.1379 209.51 20.2307 209.304C20.3234 209.098 20.459 208.915 20.6283 208.765C20.7977 208.616 20.997 208.504 21.2129 208.438C21.4288 208.371 21.6564 208.351 21.8805 208.38C22.1075 208.353 22.3375 208.375 22.5557 208.443C22.7738 208.511 22.9752 208.624 23.1469 208.774C23.3185 208.925 23.4565 209.111 23.5518 209.318C23.6472 209.526 23.6979 209.751 23.7005 209.98C23.7303 210.301 23.6376 210.622 23.4411 210.878C23.2446 211.134 22.9586 211.306 22.6405 211.36V210.89C22.8449 210.84 23.0248 210.719 23.1477 210.549C23.2706 210.378 23.3284 210.169 23.3105 209.96C23.3105 209.18 22.6105 208.87 21.9005 208.87C21.1905 208.87 20.4805 209.17 20.4805 209.98C20.4704 210.183 20.529 210.383 20.647 210.548C20.765 210.713 20.9354 210.834 21.1305 210.89L21.0905 211.36Z" fill="white"/>
<path d="M21.8701 215.129C21.6357 215.161 21.3972 215.142 21.1709 215.073C20.9446 215.004 20.7357 214.888 20.5583 214.731C20.381 214.575 20.2393 214.382 20.143 214.166C20.0467 213.95 19.998 213.716 20.0001 213.479C20.0015 213.251 20.0509 213.025 20.145 212.817C20.2392 212.609 20.376 212.423 20.5467 212.271C20.7174 212.12 20.918 212.005 21.1357 211.936C21.3533 211.867 21.5831 211.844 21.8101 211.869C22.0401 211.845 22.2727 211.87 22.4924 211.943C22.7121 212.015 22.9141 212.133 23.085 212.289C23.256 212.444 23.392 212.635 23.4842 212.847C23.5764 213.059 23.6227 213.288 23.6201 213.519C23.6209 213.743 23.5751 213.965 23.4856 214.17C23.3961 214.375 23.2648 214.559 23.1001 214.71C22.9355 214.862 22.7411 214.977 22.5293 215.049C22.3175 215.122 22.093 215.149 21.8701 215.129ZM21.8701 212.359C21.1101 212.359 20.4401 212.749 20.4401 213.499C20.4401 214.249 21.1101 214.639 21.8601 214.639C22.6101 214.639 23.2601 214.269 23.2601 213.499C23.2601 212.729 22.6201 212.359 21.8701 212.359Z" fill="white"/>
<path d="M23.6091 216.31H21.4891C20.6591 216.31 20.4891 216.77 20.4891 217.22C20.4891 217.67 20.7291 218.11 21.4891 218.11H23.6091V218.58H21.5191C20.3791 218.58 20.0491 217.95 20.0491 217.21C20.0302 217.019 20.0552 216.827 20.1219 216.647C20.1887 216.467 20.2956 216.305 20.4345 216.173C20.5733 216.041 20.7405 215.943 20.9232 215.885C21.106 215.827 21.2995 215.812 21.4891 215.84H23.6091V216.31Z" fill="white"/>
<path d="M23.6098 219.49V220.83C23.6316 220.974 23.6219 221.12 23.5815 221.259C23.5411 221.398 23.4709 221.527 23.3758 221.636C23.2807 221.746 23.1629 221.833 23.0306 221.893C22.8984 221.952 22.7548 221.982 22.6098 221.98C22.4578 221.99 22.3054 221.966 22.1644 221.908C22.0233 221.85 21.8973 221.761 21.796 221.647C21.6947 221.533 21.6208 221.398 21.5799 221.251C21.5389 221.104 21.5321 220.95 21.5598 220.8V220H20.0898V219.53L23.6098 219.49ZM21.9298 219.96V220.78C21.9298 221.26 22.1698 221.5 22.5698 221.5C22.6609 221.505 22.7521 221.49 22.8367 221.456C22.9213 221.422 22.9974 221.37 23.0595 221.303C23.1216 221.236 23.1681 221.157 23.1959 221.07C23.2236 220.983 23.2318 220.891 23.2198 220.8V220L21.9298 219.96Z" fill="white"/>
<path d="M21.8701 225.75C21.6357 225.782 21.3972 225.763 21.1709 225.694C20.9446 225.625 20.7357 225.509 20.5583 225.352C20.381 225.196 20.2393 225.003 20.143 224.787C20.0467 224.571 19.998 224.337 20.0001 224.1C20.0015 223.872 20.0509 223.646 20.145 223.438C20.2392 223.23 20.376 223.044 20.5467 222.893C20.7174 222.741 20.918 222.627 21.1357 222.557C21.3533 222.488 21.5831 222.465 21.8101 222.49C22.0401 222.466 22.2727 222.491 22.4924 222.564C22.7121 222.636 22.9141 222.754 23.085 222.91C23.256 223.065 23.392 223.256 23.4842 223.468C23.5764 223.68 23.6227 223.909 23.6201 224.14C23.6209 224.364 23.5751 224.586 23.4856 224.791C23.3961 224.996 23.2648 225.18 23.1001 225.331C22.9355 225.483 22.7411 225.598 22.5293 225.671C22.3175 225.743 22.093 225.77 21.8701 225.75ZM21.8701 222.98C21.1101 222.98 20.4401 223.37 20.4401 224.12C20.4401 224.87 21.1101 225.26 21.8601 225.26C22.6101 225.26 23.2601 224.9 23.2601 224.13C23.2601 223.36 22.6201 223 21.8701 223V222.98Z" fill="white"/>
<path d="M20.0898 226.48H23.6098V227.1C22.7898 227.6 21.0398 228.69 20.6598 228.89C21.1098 228.89 21.6598 228.89 22.2398 228.89H23.6098V229.33H20.0898V228.75C20.8598 228.29 22.7398 227.14 23.0898 226.92C22.6898 226.92 22.0898 226.92 21.4598 226.92H20.0898V226.48Z" fill="white"/>
<path d="M21.0912 234.289C20.7847 234.214 20.5153 234.032 20.3318 233.775C20.1484 233.518 20.063 233.204 20.0912 232.89C20.0909 232.664 20.1386 232.44 20.2314 232.234C20.3241 232.028 20.4597 231.844 20.629 231.695C20.7984 231.545 20.9977 231.434 21.2136 231.367C21.4295 231.301 21.6571 231.281 21.8812 231.31C22.1082 231.283 22.3382 231.304 22.5564 231.372C22.7745 231.44 22.9759 231.553 23.1476 231.704C23.3192 231.855 23.4572 232.04 23.5525 232.248C23.6479 232.456 23.6986 232.681 23.7012 232.91C23.7334 233.231 23.6417 233.553 23.4447 233.81C23.2477 234.066 22.9604 234.238 22.6412 234.289V233.83C22.8454 233.776 23.0243 233.653 23.1468 233.481C23.2692 233.309 23.3274 233.1 23.3112 232.89C23.3112 232.12 22.6112 231.8 21.9012 231.8C21.1912 231.8 20.4812 232.1 20.4812 232.91C20.4711 233.112 20.5297 233.313 20.6477 233.478C20.7657 233.643 20.9361 233.763 21.1312 233.82L21.0912 234.289Z" fill="white"/>
<path d="M21.87 238.07C21.6359 238.1 21.3981 238.079 21.1725 238.01C20.9469 237.941 20.7387 237.824 20.5617 237.668C20.3847 237.512 20.2431 237.32 20.1462 237.105C20.0494 236.889 19.9995 236.656 20 236.42C19.9998 236.191 20.0482 235.965 20.1418 235.756C20.2355 235.547 20.3723 235.361 20.5433 235.208C20.7143 235.056 20.9156 234.942 21.134 234.873C21.3523 234.805 21.5827 234.783 21.81 234.81C22.0404 234.784 22.2736 234.808 22.494 234.88C22.7145 234.951 22.9171 235.069 23.0884 235.225C23.2597 235.382 23.3957 235.572 23.4874 235.785C23.5791 235.998 23.6243 236.228 23.62 236.46C23.6209 236.684 23.5751 236.905 23.4855 237.11C23.396 237.315 23.2647 237.499 23.1001 237.651C22.9354 237.802 22.741 237.918 22.5292 237.99C22.3174 238.062 22.0929 238.089 21.87 238.07ZM21.87 235.29C21.11 235.29 20.44 235.68 20.44 236.44C20.44 237.2 21.11 237.58 21.86 237.58C22.61 237.58 23.26 237.21 23.26 236.44C23.26 235.67 22.62 235.29 21.87 235.29Z" fill="white"/>
<path d="M23.6093 239.249H21.4893C20.6593 239.249 20.4893 239.699 20.4893 240.149C20.4893 240.599 20.7293 241.049 21.4893 241.049H23.6093V241.519H21.5193C20.3793 241.519 20.0493 240.889 20.0493 240.139C20.0301 239.949 20.0548 239.757 20.1216 239.577C20.1885 239.398 20.2956 239.236 20.4347 239.105C20.5738 238.974 20.7412 238.876 20.9241 238.819C21.1069 238.763 21.3003 238.749 21.4893 238.779H23.6093V239.249Z" fill="white"/>
<path d="M23.6098 242.43V243.76C23.6332 243.904 23.6248 244.051 23.5851 244.192C23.5454 244.332 23.4754 244.462 23.3801 244.573C23.2849 244.683 23.1665 244.772 23.0334 244.832C22.9004 244.891 22.7558 244.922 22.6098 244.92C22.4578 244.93 22.3054 244.905 22.1644 244.847C22.0233 244.79 21.8973 244.701 21.796 244.587C21.6947 244.473 21.6208 244.337 21.5799 244.191C21.5389 244.044 21.5321 243.89 21.5598 243.74V242.9H20.0898V242.43H23.6098ZM21.9298 242.9V243.71C21.9298 244.19 22.1698 244.43 22.5698 244.43C22.6609 244.435 22.7521 244.42 22.8367 244.386C22.9213 244.352 22.9974 244.299 23.0595 244.233C23.1216 244.166 23.1681 244.086 23.1959 243.999C23.2236 243.912 23.2318 243.82 23.2198 243.73V242.9H21.9298Z" fill="white"/>
<path d="M21.8709 248.691C21.6331 248.723 21.3912 248.703 21.1619 248.632C20.9327 248.561 20.7217 248.441 20.5437 248.28C20.3656 248.119 20.2248 247.921 20.1311 247.7C20.0374 247.479 19.9929 247.241 20.0009 247.001C20.0023 246.772 20.0517 246.547 20.1459 246.339C20.24 246.131 20.3769 245.945 20.5476 245.793C20.7182 245.641 20.9189 245.527 21.1365 245.458C21.3541 245.388 21.5839 245.366 21.8109 245.391C22.041 245.367 22.2735 245.392 22.4932 245.464C22.713 245.536 22.9149 245.654 23.0859 245.81C23.2568 245.966 23.3928 246.156 23.4851 246.368C23.5773 246.58 23.6236 246.81 23.6209 247.041C23.6274 247.268 23.5858 247.494 23.4988 247.704C23.4118 247.914 23.2813 248.103 23.1161 248.258C22.9508 248.414 22.7544 248.533 22.5398 248.608C22.3252 248.682 22.0972 248.711 21.8709 248.691ZM21.8709 245.921C21.1109 245.921 20.4409 246.311 20.4409 247.061C20.4409 247.811 21.1109 248.201 21.8609 248.201C22.6109 248.201 23.2609 247.831 23.2609 247.061C23.2609 246.291 22.6209 245.921 21.8709 245.921Z" fill="white"/>
<path d="M20.0898 249.41H23.6098V250C22.7898 250.51 21.0398 251.6 20.6598 251.8C21.1098 251.8 21.6598 251.8 22.2398 251.8H23.6098V252.24H20.0898V251.66C20.8598 251.19 22.7398 250.05 23.0898 249.83C22.6898 249.83 22.0898 249.83 21.4598 249.83H20.0898V249.41Z" fill="white"/>
</g>
<defs>
<clipPath id="clip0_2613_66300">
<rect width="167.22" height="335" fill="white"/>
</clipPath>
</defs>
</svg>
