<svg width="38" height="55" viewBox="0 0 38 55" fill="none" xmlns="http://www.w3.org/2000/svg">
<path d="M20.6043 0C20.241 0 19.924 0.267365 19.873 0.637105L19.4957 3.35129C19.3308 3.34617 19.1659 3.33975 19 3.33975C10.9503 3.33975 4.29042 9.44941 3.54672 17.3734C1.8425 17.5165 0.5 18.9463 0.5 20.6828C0.5 22.4149 1.84119 23.8259 3.53949 23.975L7.16578 54.3485C7.21018 54.7197 7.52556 55 7.9 55H29.36C29.7352 55 30.0506 54.7197 30.0942 54.3485L33.7176 24.0039H34.17C36.0059 24.0039 37.5 22.5138 37.5 20.6828C37.5 18.9463 36.1568 17.5165 34.4518 17.3734C33.8293 10.769 29.035 5.27072 22.5482 3.75632L22.924 1.05367C22.9507 0.859578 22.8986 0.663096 22.7795 0.507377C22.6611 0.350921 22.4842 0.248546 22.2895 0.221978L20.7055 0.00576565C20.6714 0.00133763 20.6376 0 20.6043 0ZM20.6057 0.738003L22.1898 0.952774L19.8065 18.0998H18.1935L20.6057 0.738003ZM19 4.81576C19.0978 4.81576 19.1945 4.82103 19.292 4.82297L17.4607 17.9989C17.4559 18.0331 17.4679 18.0657 17.468 18.0998H6.87C6.66576 18.0998 6.5 18.2651 6.5 18.4688C6.5 18.6725 6.66576 18.8378 6.87 18.8378H18.1935H19.8065H33.3924C33.5967 18.8378 33.7624 18.6725 33.7624 18.4688C33.7624 18.2651 33.5967 18.0998 33.3924 18.0998H20.5537L22.343 5.22656C28.3329 6.68661 32.6962 11.9115 33.0195 18.0998H32.69C32.4858 18.0998 32.32 18.2651 32.32 18.4688C32.32 18.6725 32.4858 18.8378 32.69 18.8378H33.7624H34.17C35.1905 18.8378 36.02 19.6659 36.02 20.6828C36.02 21.6998 35.1905 22.5278 34.17 22.5278H33.06H4.2H3.83C2.81028 22.5278 1.98 21.6998 1.98 20.6828C1.98 19.6659 2.81028 18.8378 3.83 18.8378H4.23758H7.53C7.73424 18.8378 7.9 18.6725 7.9 18.4688C7.9 18.2651 7.73424 18.0998 7.53 18.0998H4.97902C5.3687 10.6479 11.5197 4.81576 19 4.81576ZM5.03395 24.0039H32.2261L31.8734 26.9559H21.22C21.0158 26.9559 20.85 27.1212 20.85 27.3249C20.85 27.5286 21.0158 27.6939 21.22 27.6939H31.7852L28.7024 53.524H8.55762L5.47477 27.6939H22.13C22.3342 27.6939 22.5 27.5286 22.5 27.3249C22.5 27.1212 22.3342 26.9559 22.13 26.9559H5.3866L5.03395 24.0039ZM15.2075 30.7468C15.1128 30.7468 15.018 30.7829 14.9459 30.8549L10.2356 35.551C10.0913 35.6949 10.0913 35.9289 10.2356 36.0728L14.9459 40.7704C15.0184 40.842 15.1128 40.877 15.2075 40.877C15.3022 40.877 15.3973 40.842 15.4691 40.7704L20.1779 36.0728C20.3222 35.9289 20.3222 35.6949 20.1779 35.551L15.4691 30.8549C15.397 30.7829 15.3022 30.7468 15.2075 30.7468ZM15.2075 31.6376L19.3931 35.8119L15.2075 39.9862L11.0219 35.8119L15.2075 31.6376ZM19.37 42.5462C19.1658 42.5462 19 42.7115 19 42.9152V49.5572C19 49.7609 19.1658 49.9262 19.37 49.9262H26.03C26.2342 49.9262 26.4 49.7609 26.4 49.5572V42.9152C26.4 42.7115 26.2342 42.5462 26.03 42.5462C25.8258 42.5462 25.66 42.7115 25.66 42.9152V49.1882H19.74V43.2842H26.13C26.3342 43.2842 26.207 43.1189 26.207 42.9152C26.207 42.7115 26.2342 42.5462 26.03 42.5462H19.37Z" fill="#2688EB"/>
</svg>
