<svg width="24" height="24" viewBox="0 0 24 24" fill="none" xmlns="http://www.w3.org/2000/svg">
<path fill-rule="evenodd" clip-rule="evenodd" d="M8.49684 4.20039C6.50484 4.20039 6.06924 4.40319 5.66124 4.62039C5.20764 4.86399 4.86204 5.20839 4.61844 5.66439C4.40124 6.07119 4.19844 6.50679 4.19844 8.49879V15.502C4.19844 16.39 4.23924 16.9684 4.30284 17.374L6.95004 14.7256C7.28604 14.3896 7.57404 14.1016 7.83324 13.882C8.10395 13.6375 8.42045 13.449 8.76444 13.3276C9.3065 13.1515 9.89037 13.1515 10.4324 13.3276C10.796 13.4464 11.0924 13.6516 11.3636 13.882C11.5556 14.0452 11.7656 14.2468 11.9984 14.4784L14.3804 12.0952C14.618 11.8576 14.822 11.6536 15.002 11.4952C15.1815 11.3424 15.4137 11.2661 15.6488 11.2827C15.884 11.2993 16.1032 11.4075 16.2594 11.584C16.4156 11.7605 16.4963 11.9912 16.4843 12.2266C16.4722 12.4619 16.3683 12.6832 16.1948 12.8428C16.0616 12.9604 15.8948 13.126 15.6344 13.3864L12.6344 16.3864C12.4657 16.5549 12.2369 16.6496 11.9984 16.6496C11.7599 16.6496 11.5312 16.5549 11.3624 16.3864L10.9988 16.0228C10.7418 15.7572 10.4752 15.5011 10.1996 15.2548C10.0124 15.0952 9.92364 15.0556 9.87564 15.04C9.69507 14.9814 9.5006 14.9814 9.32004 15.04C9.27204 15.0556 9.18444 15.0952 8.99724 15.2548C8.80284 15.4204 8.56524 15.6568 8.19804 16.0228L5.43444 18.7864C5.34469 18.8769 5.23669 18.9473 5.11764 18.9928C5.27724 19.1428 5.45844 19.2712 5.66124 19.3792C6.06924 19.5976 6.50484 19.8004 8.49684 19.8004H12.2984C12.5371 19.8004 12.766 19.8952 12.9348 20.064C13.1036 20.2328 13.1984 20.4617 13.1984 20.7004C13.1984 20.9391 13.1036 21.168 12.9348 21.3368C12.766 21.5056 12.5371 21.6004 12.2984 21.6004H8.49684C6.36684 21.6004 5.59284 21.3844 4.81284 20.9668C4.05409 20.5652 3.43363 19.9447 3.03204 19.186C2.61444 18.406 2.39844 17.632 2.39844 15.502V8.49879C2.39844 6.36879 2.61444 5.59479 3.03204 4.81479C3.43363 4.05604 4.05409 3.43558 4.81284 3.03399C5.59284 2.61639 6.36684 2.40039 8.49684 2.40039H15.5C17.63 2.40039 18.404 2.61639 19.184 3.03399C19.952 3.44439 20.5544 4.04679 20.9648 4.81479C21.3824 5.59479 21.5984 6.36879 21.5984 8.49879V12.3004C21.5984 12.5391 21.5036 12.768 21.3348 12.9368C21.166 13.1056 20.9371 13.2004 20.6984 13.2004C20.4597 13.2004 20.2308 13.1056 20.062 12.9368C19.8933 12.768 19.7984 12.5391 19.7984 12.3004V8.49879C19.7984 6.50679 19.5956 6.07119 19.3784 5.66319C19.1443 5.21773 18.7802 4.85403 18.3344 4.62039C17.9276 4.40319 17.492 4.20039 15.5 4.20039H8.49684ZM7.19844 8.70039C7.19844 8.30257 7.35647 7.92104 7.63778 7.63973C7.91908 7.35843 8.30061 7.20039 8.69844 7.20039C9.09626 7.20039 9.47779 7.35843 9.7591 7.63973C10.0404 7.92104 10.1984 8.30257 10.1984 8.70039C10.1984 9.09822 10.0404 9.47975 9.7591 9.76105C9.47779 10.0424 9.09626 10.2004 8.69844 10.2004C8.30061 10.2004 7.91908 10.0424 7.63778 9.76105C7.35647 9.47975 7.19844 9.09822 7.19844 8.70039ZM18.5996 14.398C18.8383 14.398 19.0672 14.4928 19.236 14.6616C19.4048 14.8304 19.4996 15.0593 19.4996 15.298V17.7004H21.8972C22.1359 17.7004 22.3648 17.7952 22.5336 17.964C22.7024 18.1328 22.7972 18.3617 22.7972 18.6004C22.7972 18.8391 22.7024 19.068 22.5336 19.2368C22.3648 19.4056 22.1359 19.5004 21.8972 19.5004H19.4984V21.9028C19.4984 22.1415 19.4036 22.3704 19.2348 22.5392C19.0661 22.708 18.8371 22.8028 18.5984 22.8028C18.3597 22.8028 18.1308 22.708 17.962 22.5392C17.7933 22.3704 17.6984 22.1415 17.6984 21.9028V19.5004H15.302C15.0633 19.5004 14.8344 19.4056 14.6656 19.2368C14.4969 19.068 14.402 18.8391 14.402 18.6004C14.402 18.3617 14.4969 18.1328 14.6656 17.964C14.8344 17.7952 15.0633 17.7004 15.302 17.7004H17.6984V15.298C17.6984 15.0593 17.7933 14.8304 17.962 14.6616C18.1308 14.4928 18.3597 14.398 18.5984 14.398H18.5996Z" fill="#2688EB"/>
</svg>
