<svg width="18" height="18" viewBox="0 0 18 18" fill="none" xmlns="http://www.w3.org/2000/svg">
<path d="M9.67578 5.7715C9.67578 5.59248 9.60467 5.42079 9.47808 5.29421C9.35149 5.16762 9.1798 5.0965 9.00078 5.0965C8.82176 5.0965 8.65007 5.16762 8.52348 5.29421C8.3969 5.42079 8.32578 5.59248 8.32578 5.7715V12.229C8.32578 12.408 8.3969 12.5797 8.52348 12.7063C8.65007 12.8329 8.82176 12.904 9.00078 12.904C9.1798 12.904 9.35149 12.8329 9.47808 12.7063C9.60467 12.5797 9.67578 12.408 9.67578 12.229V5.7715ZM5.85078 7.459C6.0298 7.459 6.20149 7.53012 6.32808 7.65671C6.45467 7.78329 6.52578 7.95498 6.52578 8.13401V12.229C6.52578 12.408 6.45467 12.5797 6.32808 12.7063C6.20149 12.8329 6.0298 12.904 5.85078 12.904C5.67176 12.904 5.50007 12.8329 5.37348 12.7063C5.2469 12.5797 5.17578 12.408 5.17578 12.229V8.13401C5.17578 7.95498 5.2469 7.78329 5.37348 7.65671C5.50007 7.53012 5.67176 7.459 5.85078 7.459ZM12.8258 9.70901C12.8258 9.52998 12.7547 9.35829 12.6281 9.23171C12.5015 9.10512 12.3298 9.03401 12.1508 9.03401C11.9718 9.03401 11.8001 9.10512 11.6735 9.23171C11.5469 9.35829 11.4758 9.52998 11.4758 9.70901V12.229C11.4758 12.408 11.5469 12.5797 11.6735 12.7063C11.8001 12.8329 11.9718 12.904 12.1508 12.904C12.3298 12.904 12.5015 12.8329 12.6281 12.7063C12.7547 12.5797 12.8258 12.408 12.8258 12.229V9.70901ZM3.37758 1.7845C4.09218 1.402 4.79058 1.2373 6.41598 1.2373H11.5856C13.211 1.2373 13.9094 1.402 14.624 1.7845C15.302 2.14395 15.8566 2.69856 16.2161 3.3766C16.5986 4.0912 16.7633 4.7896 16.7633 6.415V11.5846C16.7633 13.21 16.5986 13.9084 16.2161 14.623C15.8566 15.3011 15.302 15.8557 14.624 16.2151C13.9094 16.5976 13.211 16.7623 11.5856 16.7623H6.41598C4.79058 16.7623 4.09218 16.5976 3.37758 16.2151C2.69953 15.8557 2.14492 15.3011 1.78548 14.623C1.40298 13.9084 1.23828 13.21 1.23828 11.5846V6.415C1.23828 4.7896 1.40298 4.0912 1.78548 3.3766C2.14492 2.69856 2.69953 2.14395 3.37758 1.7845ZM6.41598 2.5873C4.89498 2.5873 4.44948 2.7421 4.01388 2.9743C3.56388 3.2155 3.21648 3.5638 2.97618 4.0129C2.74218 4.4485 2.58828 4.894 2.58828 6.415V11.5846C2.58828 13.1056 2.74308 13.5511 2.97528 13.9867C3.21648 14.4367 3.56478 14.7841 4.01388 15.0244C4.44948 15.2584 4.89498 15.4123 6.41598 15.4123H11.5856C13.1066 15.4123 13.5521 15.2575 13.9877 15.0253C14.4303 14.7916 14.792 14.4296 15.0254 13.9867C15.2594 13.5511 15.4133 13.1056 15.4133 11.5846V6.415C15.4133 4.894 15.2585 4.4485 15.0263 4.0129C14.7925 3.57026 14.4305 3.20856 13.9877 2.9752C13.5521 2.7412 13.1066 2.5873 11.5856 2.5873H6.41598Z" fill="#2688EB"/>
</svg>
