<?xml version="1.0" encoding="utf-8"?>
<!-- Generator: Adobe Illustrator 26.5.0, SVG Export Plug-In . SVG Version: 6.00 Build 0)  -->
<svg version="1.1" id="Layer_1" xmlns="http://www.w3.org/2000/svg" xmlns:xlink="http://www.w3.org/1999/xlink" x="0px" y="0px"
	 viewBox="0 0 138.525 140.164" style="enable-background:new 0 0 138.525 140.164;" xml:space="preserve">
<style type="text/css">
	.st0{fill:#4273B8;}
</style>
<g>
	<g>
		<path class="st0" d="M63.725,60.175c1.091-0.988,2.461-1.455,3.825-1.454v-1.332c-1.681-0.001-3.367,0.591-4.711,1.808
			c-2.124,1.923-2.794,4.848-1.952,7.405l1.243-0.475C61.476,64.064,62.016,61.721,63.725,60.175z"/>
		<g>
			<path class="st0" d="M63.324,68.226c-0.566-0.625-0.955-1.345-1.194-2.1l-1.243,0.475c0.298,0.903,0.78,1.76,1.459,2.511
				c1.389,1.534,3.301,2.304,5.219,2.3L67.56,70.08C66.003,70.082,64.452,69.471,63.324,68.226z"/>
			<path class="st0" d="M72.229,69.631l-0.046-0.046c-0.5-0.5-0.505-1.296-0.035-1.814c-0.224,0.305-0.481,0.591-0.772,0.855
				c-1.089,0.985-2.454,1.452-3.815,1.454l0.005,1.332C69.227,71.408,70.894,70.825,72.229,69.631z"/>
		</g>
	</g>
	<path class="st0" d="M78.856,74.388l-5.73-5.73c-0.256,0.335-0.541,0.654-0.865,0.946c-0.01,0.009-0.022,0.017-0.032,0.026
		l5.692,5.692L78.856,74.388z"/>
	<path class="st0" d="M72.153,67.763c-0.002,0.003-0.003,0.006-0.005,0.008C72.15,67.769,72.151,67.766,72.153,67.763z"/>
	<path class="st0" d="M73.126,68.658l-0.942-0.942l-0.002,0.002c-0.013,0.013-0.017,0.031-0.03,0.045
		c-0.002,0.003-0.003,0.006-0.005,0.008c-0.47,0.518-0.465,1.314,0.035,1.814l0.046,0.046c0.01-0.009,0.022-0.017,0.032-0.026
		C72.585,69.312,72.87,68.993,73.126,68.658z"/>
	<g>
		<path class="st0" d="M72.754,59.689c-1.385-1.53-3.291-2.3-5.204-2.301v1.332c1.554,0,3.101,0.612,4.226,1.855
			c0.061,0.068,0.105,0.145,0.162,0.214l0.938-0.938C72.832,59.799,72.801,59.74,72.754,59.689z"/>
		<path class="st0" d="M71.938,60.789c1.673,2.033,1.727,4.908,0.215,6.974c0.013-0.014,0.016-0.031,0.03-0.045l0.002-0.002
			l0.942,0.942c1.978-2.585,1.926-6.26-0.249-8.807L71.938,60.789z"/>
	</g>
</g>
<g>
</g>
<g>
</g>
<g>
</g>
<g>
</g>
<g>
</g>
<g>
</g>
</svg>
