<svg width="24" height="24" viewBox="0 0 24 24" fill="none" xmlns="http://www.w3.org/2000/svg">
<path fill-rule="evenodd" clip-rule="evenodd" d="M10.4016 1.59961C5.50156 1.59961 1.60156 5.59961 1.60156 10.3996C1.60156 15.1996 5.60156 19.1996 10.4016 19.1996C12.5016 19.1996 14.5016 18.3996 16.0016 17.1996L21.0016 22.1996C21.3016 22.4996 21.8016 22.4996 22.1016 22.1996C22.4016 21.8996 22.4016 21.3996 22.1016 21.0996L17.1016 16.0996C18.4016 14.5996 19.2016 12.5996 19.2016 10.3996C19.2016 5.49961 15.3016 1.59961 10.4016 1.59961ZM3.20156 10.3996C3.20156 6.39961 6.40156 3.19961 10.4016 3.19961C14.4016 3.19961 17.6016 6.39961 17.6016 10.3996C17.6016 14.3996 14.4016 17.5996 10.4016 17.5996C6.40156 17.5996 3.20156 14.3996 3.20156 10.3996Z" fill="#0170CC"/>
</svg>
