<svg width="28" height="28" viewBox="0 0 28 28" fill="none" xmlns="http://www.w3.org/2000/svg">
<path fill-rule="evenodd" clip-rule="evenodd" d="M14.7228 0.288918C14.2668 0.288918 13.8097 0.298632 13.3537 0.287775C13.1194 0.28206 12.2971 0.262632 11.6063 0.815203C10.9285 1.35749 10.676 2.18549 10.5234 2.79406C10.4053 3.23764 10.2358 3.66588 10.0183 4.07006C9.53768 4.26092 9.07425 4.48549 8.63082 4.74035C8.19407 4.65481 7.76848 4.51985 7.36225 4.33806C6.79311 4.07349 5.98911 3.7472 5.13939 3.93349C4.27425 4.12206 3.77254 4.77292 3.62968 4.95806C3.36577 5.29963 3.09389 5.63496 2.81425 5.96377C2.66225 6.1432 2.13196 6.76777 2.12625 7.64949C2.12111 8.51577 2.60568 9.23235 2.98339 9.73463C3.21596 10.0432 3.47482 10.4889 3.67425 10.9701C3.52933 11.4495 3.4182 11.9385 3.34168 12.4335C2.95768 12.7706 2.53825 13.0506 2.20054 13.2226C1.64054 13.5083 0.889679 13.9409 0.51425 14.7226C0.131965 15.5175 0.334822 16.3112 0.393108 16.5381C0.499965 16.9558 0.597679 17.3781 0.684536 17.8003C0.731965 18.0289 0.897679 18.8323 1.59082 19.3798C2.27254 19.9192 3.13768 19.9786 3.76625 19.9901C4.13768 19.9969 4.62568 20.0626 5.11025 20.1918C5.40168 20.6158 5.72282 21.0175 6.07082 21.3941C6.08682 21.8923 6.04111 22.3792 5.96454 22.7403C5.83425 23.3541 5.69882 24.2083 6.06968 24.9918C6.44796 25.7895 7.19425 26.1318 7.40682 26.2295C7.79882 26.4095 8.18854 26.5992 8.57139 26.7975C8.77939 26.9049 9.51025 27.2832 10.3743 27.0889C11.2228 26.8981 11.8137 26.2638 12.2171 25.7838C12.5243 25.4294 12.8727 25.1128 13.2548 24.8409C13.7485 24.8752 14.2548 24.8752 14.7485 24.8409C15.1305 25.1129 15.4786 25.4294 15.7857 25.7838C16.1897 26.2638 16.78 26.8981 17.6285 27.0889C18.4931 27.2832 19.2234 26.9049 19.4314 26.7975C19.8143 26.5992 20.204 26.4095 20.596 26.2295C20.8091 26.1323 21.5554 25.7895 21.9331 24.9918C22.3045 24.2083 22.1685 23.3541 22.0383 22.7403C21.9512 22.2972 21.9155 21.8454 21.932 21.3941C22.2804 21.0167 22.6014 20.6149 22.8925 20.1918C23.3314 20.0728 23.7826 20.0051 24.2371 19.9901C24.8651 19.9786 25.7308 19.9192 26.4125 19.3798C27.1057 18.8323 27.2708 18.0289 27.3182 17.8003C27.4057 17.3775 27.5028 16.9558 27.6097 16.5381C27.668 16.3112 27.8708 15.5175 27.4891 14.7226C27.1131 13.9409 26.3622 13.5083 25.8028 13.2226C25.3925 13.0057 25.0093 12.741 24.6611 12.4341C24.5848 11.9389 24.4738 11.4497 24.3291 10.9701C24.5089 10.5321 24.7406 10.1173 25.0194 9.73463C25.3977 9.23292 25.8817 8.51577 25.8765 7.64892C25.8708 6.76777 25.3405 6.1432 25.1885 5.96435C24.9089 5.63536 24.637 5.29984 24.3731 4.95806C24.2302 4.77292 23.7285 4.12263 22.864 3.93349C22.0143 3.74777 21.2097 4.07349 20.6405 4.33806C20.2343 4.51992 19.8087 4.65488 19.372 4.74035C18.9261 4.48401 18.4625 4.26001 17.9845 4.07006C17.767 3.66588 17.5974 3.23764 17.4794 2.79406C17.3331 2.20892 17.0988 1.45235 16.5177 0.919203C15.8365 0.29406 15.0348 0.290632 14.7474 0.288918H14.7228ZM19.804 24.7112L18.7171 25.2409C18.1731 25.5061 17.9017 25.6386 17.1 24.6843C16.6497 24.1495 15.9457 23.5266 15.176 23.0809C14.3963 23.1802 13.6071 23.1802 12.8274 23.0809C12.0571 23.5266 11.3531 24.1495 10.9034 24.6843C10.1017 25.6386 9.82911 25.5061 9.28625 25.2409L8.19882 24.7112C7.65539 24.4461 7.38339 24.3135 7.64225 23.0941C7.78454 22.4226 7.84225 21.5061 7.72796 20.6386C7.14357 20.0794 6.63625 19.4449 6.21939 18.7518C5.39711 18.4432 4.48625 18.2923 3.79654 18.2798C2.55082 18.2569 2.48225 17.9626 2.34625 17.3741L2.07425 16.1958C1.93825 15.6072 1.87025 15.3123 2.98054 14.7461C3.60054 14.4295 4.36225 13.8872 4.96911 13.2415C5.04282 12.4438 5.22054 11.6758 5.48739 10.9506C5.22625 10.0969 4.77596 9.2672 4.35425 8.7072C3.60454 7.7112 3.79425 7.47635 4.17539 7.00663L4.93654 6.0672C5.31711 5.59749 5.50796 5.36263 6.63768 5.88835C7.25711 6.17635 8.13196 6.43806 8.99939 6.5232C9.67464 6.07619 10.4069 5.72197 11.1765 5.47006C11.6651 4.73635 12.0194 3.8792 12.1868 3.20777C12.4897 1.9992 12.792 1.9992 13.3965 1.9992H14.7102C15.2468 2.0032 15.5314 2.07006 15.816 3.20777C15.984 3.8792 16.3377 4.73635 16.8268 5.47006C17.604 5.72435 18.3354 6.08092 19.004 6.5232C19.8708 6.43749 20.7457 6.17635 21.3651 5.88835C22.4954 5.36263 22.6857 5.59692 23.0663 6.0672L23.8274 7.00663C24.208 7.47635 24.3988 7.7112 23.6485 8.7072C23.2268 9.2672 22.7765 10.0969 22.5154 10.9512C22.7875 11.6887 22.9619 12.4587 23.0343 13.2415C23.6411 13.8872 24.4023 14.4301 25.0223 14.7461C26.1325 15.3123 26.0645 15.6066 25.9285 16.1958L25.6565 17.3741C25.5205 17.9626 25.4525 18.2575 24.2062 18.2798C23.5165 18.2923 22.6062 18.4432 21.7834 18.7518C21.3666 19.4449 20.8592 20.0795 20.2748 20.6386C20.1605 21.5061 20.2188 22.4226 20.3605 23.0946C20.6194 24.3135 20.3474 24.4461 19.804 24.7112Z" fill="#2688EB"/>
</svg>
