<svg width="18" height="18" viewBox="0 0 18 18" fill="none" xmlns="http://www.w3.org/2000/svg">
<path d="M10.0687 2.69336C10.2468 2.69336 10.419 2.75668 10.5547 2.87198L17.091 8.42784C17.4067 8.69623 17.4451 9.16973 17.1767 9.48547C17.1505 9.51632 17.1218 9.545 17.091 9.57122L10.5547 15.1271C10.2389 15.3954 9.7654 15.3571 9.49704 15.0413L9.46053 14.9948C9.36814 14.8669 9.31842 14.7131 9.31842 14.5554V11.8323L9.21335 11.8344C5.81148 11.9132 3.40054 12.6872 1.96578 14.127L1.88362 14.2113C1.64181 14.4644 1.23488 14.4737 0.978156 14.2285C0.897733 14.1517 0.83861 14.0553 0.806565 13.9488C0.774519 13.8424 0.770647 13.7294 0.795327 13.6209L0.830299 13.4707C1.9329 8.83692 4.75848 6.3788 9.21631 6.18395L9.31842 6.17996V3.4437C9.31842 3.02928 9.65435 2.69336 10.0687 2.69336ZM16.2748 8.99953L10.2827 3.90617V6.65352C10.2827 6.91979 10.0668 7.13566 9.80057 7.13566L9.65811 7.13643C5.73379 7.17957 3.22035 9.01335 2.03983 12.7131L2.00625 12.821L2.07375 12.7709C3.83045 11.4911 6.40895 10.8634 9.80057 10.8634L9.84698 10.8656C10.0915 10.889 10.2827 11.0949 10.2827 11.3455V14.0926L16.2748 8.99953Z" fill="#2688EB"/>
</svg>
