<svg width="32" height="32" viewBox="0 0 32 32" fill="none" xmlns="http://www.w3.org/2000/svg">
<g clip-path="url(#clip0_2531_30397)">
<path d="M20.2857 17.143C25.9441 17.143 30.8571 19.1574 30.8571 23.592C30.8571 25.8965 29.9644 26.8573 28.0504 26.8573H12.521C10.607 26.8573 9.71428 25.8965 9.71428 23.592C9.71428 19.1574 14.6273 17.143 20.2857 17.143ZM20.2857 19.4287C15.776 19.4287 12 20.977 12 23.592C12 24.6102 11.9183 24.5789 12.4253 24.5723L28.0504 24.5716C28.663 24.5716 28.5714 24.6701 28.5714 23.592C28.5714 20.977 24.7954 19.4287 20.2857 19.4287ZM5.71429 8.00014C6.34547 8.00014 6.85714 8.51181 6.85714 9.143V12.5716H10.2857C10.9169 12.5716 11.4286 13.0832 11.4286 13.7144C11.4286 14.3456 10.9169 14.8573 10.2857 14.8573H6.85714V18.2859C6.85714 18.917 6.34547 19.4287 5.71429 19.4287C5.0831 19.4287 4.57143 18.917 4.57143 18.2859V14.8573H1.14286C0.511675 14.8573 0 14.3456 0 13.7144C0 13.0832 0.511675 12.5716 1.14286 12.5716H4.57143V9.143C4.57143 8.51181 5.0831 8.00014 5.71429 8.00014ZM20 3.42871C23.4726 3.42871 26.2857 6.24181 26.2857 9.71443C26.2857 13.187 23.4726 16.0001 20 16.0001C16.5274 16.0001 13.7143 13.187 13.7143 9.71443C13.7143 6.24181 16.5274 3.42871 20 3.42871ZM20 5.71443C17.7898 5.71443 16 7.50418 16 9.71443C16 11.9247 17.7898 13.7144 20 13.7144C22.2102 13.7144 24 11.9247 24 9.71443C24 7.50418 22.2102 5.71443 20 5.71443Z" fill="#2688EB"/>
</g>
<defs>
<clipPath id="clip0_2531_30397">
<rect width="32" height="32" fill="white"/>
</clipPath>
</defs>
</svg>
