<svg width="24" height="25" viewBox="0 0 24 25" fill="none" xmlns="http://www.w3.org/2000/svg">
<g clip-path="url(#clip0_2684_66097)">
<path d="M15.2143 13.357C19.4581 13.357 23.1429 14.8678 23.1429 18.1937C23.1429 19.9221 22.4733 20.6427 21.0378 20.6427H9.39076C7.95524 20.6427 7.28571 19.9221 7.28571 18.1937C7.28571 14.8678 10.9705 13.357 15.2143 13.357ZM15.2143 15.0713C11.832 15.0713 9 16.2325 9 18.1937C9 18.9574 8.93874 18.9339 9.31897 18.929L21.0378 18.9284C21.4973 18.9284 21.4286 19.0024 21.4286 18.1937C21.4286 16.2325 18.5966 15.0713 15.2143 15.0713ZM4.28571 6.49986C4.7591 6.49986 5.14286 6.88362 5.14286 7.357V9.92843H7.71429C8.18767 9.92843 8.57143 10.3122 8.57143 10.7856C8.57143 11.259 8.18767 11.6427 7.71429 11.6427H5.14286V14.2141C5.14286 14.6875 4.7591 15.0713 4.28571 15.0713C3.81233 15.0713 3.42857 14.6875 3.42857 14.2141V11.6427H0.857143C0.383756 11.6427 0 11.259 0 10.7856C0 10.3122 0.383756 9.92843 0.857143 9.92843H3.42857V7.357C3.42857 6.88362 3.81233 6.49986 4.28571 6.49986ZM15 3.07129C17.6045 3.07129 19.7143 5.18112 19.7143 7.78557C19.7143 10.39 17.6045 12.4999 15 12.4999C12.3955 12.4999 10.2857 10.39 10.2857 7.78557C10.2857 5.18112 12.3955 3.07129 15 3.07129ZM15 4.78557C13.3423 4.78557 12 6.12789 12 7.78557C12 9.44326 13.3423 10.7856 15 10.7856C16.6577 10.7856 18 9.44326 18 7.78557C18 6.12789 16.6577 4.78557 15 4.78557Z" fill="#6D7885"/>
</g>
<defs>
<clipPath id="clip0_2684_66097">
<rect width="24" height="24" fill="white" transform="translate(0 0.5)"/>
</clipPath>
</defs>
</svg>
