<svg width="24" height="25" viewBox="0 0 24 25" fill="none" xmlns="http://www.w3.org/2000/svg">
<path d="M9.4239 4.24992C9.72227 4.23799 10.0037 4.10802 10.2062 3.8886C10.4088 3.66918 10.5158 3.37829 10.5039 3.07992C10.492 2.78156 10.362 2.50015 10.1426 2.29761C9.92316 2.09507 9.63227 1.98799 9.3339 1.99992C8.3994 2.03742 7.6764 2.15442 7.0089 2.36442C5.80125 2.74457 4.70306 3.41029 3.80742 4.30515C2.91179 5.2 2.24511 6.29761 1.8639 7.50492C1.6509 8.17992 1.5444 8.90892 1.5054 9.83292C1.49287 10.1313 1.59938 10.4224 1.80149 10.6423C2.00361 10.8621 2.28478 10.9926 2.58315 11.0052C2.88152 11.0177 3.17265 10.9112 3.39248 10.7091C3.61232 10.507 3.74287 10.2258 3.7554 9.92742C3.7884 9.12492 3.8754 8.60742 4.0104 8.18142C4.28237 7.31935 4.7581 6.53552 5.3973 5.89632C6.03649 5.25713 6.82032 4.78139 7.6824 4.50942C8.1159 4.37292 8.6334 4.27842 9.4224 4.24692L9.4239 4.24992ZM14.6664 1.99992C14.368 1.98799 14.0771 2.09507 13.8577 2.29761C13.6383 2.50015 13.5083 2.78156 13.4964 3.07992C13.4845 3.37829 13.5915 3.66918 13.7941 3.8886C13.9966 4.10802 14.278 4.23799 14.5764 4.24992C15.3669 4.27992 15.8859 4.37442 16.3164 4.51092C17.179 4.78248 17.9635 5.25803 18.6032 5.89725C19.243 6.53647 19.7191 7.32052 19.9914 8.18292C20.1249 8.60742 20.2119 9.12342 20.2464 9.92292C20.2673 10.2151 20.4013 10.4876 20.62 10.6825C20.8386 10.8773 21.1247 10.9793 21.4173 10.9666C21.7099 10.9539 21.9861 10.8276 22.187 10.6145C22.388 10.4014 22.4979 10.1183 22.4934 9.82542C22.4544 8.90592 22.3494 8.17992 22.1364 7.50642C21.7557 6.29916 21.0896 5.20147 20.1945 4.30637C19.2994 3.41127 18.2017 2.74513 16.9944 2.36442C16.3254 2.15442 15.6009 2.03742 14.6664 2.00142V1.99992ZM3.7509 15.0874C3.73897 14.7891 3.60899 14.5076 3.38958 14.3051C3.17016 14.1026 2.87927 13.9955 2.5809 14.0074C2.28253 14.0194 2.00113 14.1493 1.79859 14.3687C1.59605 14.5882 1.48897 14.8791 1.5009 15.1774C1.5399 16.1074 1.6554 16.8274 1.8654 17.4934C2.24611 18.7007 2.91224 19.7984 3.80734 20.6935C4.70245 21.5886 5.80014 22.2547 7.0074 22.6354C7.6764 22.8454 8.3994 22.9624 9.3339 22.9984C9.48433 23.0094 9.63543 22.99 9.7782 22.9414C9.92098 22.8927 10.0525 22.8159 10.165 22.7154C10.2775 22.615 10.3686 22.4929 10.433 22.3565C10.4974 22.2201 10.5336 22.0721 10.5397 21.9214C10.5457 21.7707 10.5214 21.6203 10.4681 21.4792C10.4149 21.3381 10.3338 21.2091 10.2297 21.1C10.1256 20.9908 10.0006 20.9037 9.86222 20.8439C9.72378 20.784 9.57472 20.7525 9.4239 20.7514C8.6349 20.7199 8.1174 20.6254 7.6839 20.4889C6.82183 20.217 6.03799 19.7412 5.3988 19.102C4.7596 18.4628 4.28387 17.679 4.0119 16.8169C3.8754 16.3849 3.7824 15.8689 3.7509 15.0874ZM22.5009 15.1774C22.5068 15.0297 22.4836 14.8822 22.4325 14.7435C22.3814 14.6047 22.3035 14.4774 22.2032 14.3687C22.1029 14.2601 21.9822 14.1723 21.848 14.1103C21.7138 14.0483 21.5686 14.0133 21.4209 14.0074C21.1225 13.9955 20.8316 14.1026 20.6122 14.3051C20.3928 14.5076 20.2628 14.7891 20.2509 15.0874C20.2209 15.8689 20.1264 16.3849 19.9899 16.8169C19.7179 17.679 19.2422 18.4628 18.603 19.102C17.9638 19.7412 17.18 20.217 16.3179 20.4889C15.8844 20.6254 15.3669 20.7199 14.5779 20.7514C14.4271 20.7525 14.278 20.784 14.1396 20.8439C14.0012 20.9037 13.8762 20.9908 13.7721 21.1C13.668 21.2091 13.5869 21.3381 13.5337 21.4792C13.4804 21.6203 13.4561 21.7707 13.4621 21.9214C13.4682 22.0721 13.5044 22.2201 13.5688 22.3565C13.6332 22.4929 13.7243 22.615 13.8368 22.7154C13.9493 22.8159 14.0808 22.8927 14.2236 22.9414C14.3664 22.99 14.5175 23.0094 14.6679 22.9984C15.6009 22.9624 16.3254 22.8454 16.9929 22.6354C18.2007 22.2551 19.299 21.5892 20.1947 20.6941C21.0903 19.7989 21.7569 18.701 22.1379 17.4934C22.3464 16.8289 22.4634 16.1074 22.5009 15.1774ZM9.7509 10.9999C9.7509 10.6021 9.59287 10.2206 9.31156 9.93926C9.03026 9.65796 8.64873 9.49992 8.2509 9.49992C7.85308 9.49992 7.47155 9.65796 7.19024 9.93926C6.90894 10.2206 6.7509 10.6021 6.7509 10.9999C6.7509 11.3977 6.90894 11.7793 7.19024 12.0606C7.47155 12.3419 7.85308 12.4999 8.2509 12.4999C8.64873 12.4999 9.03026 12.3419 9.31156 12.0606C9.59287 11.7793 9.7509 11.3977 9.7509 10.9999ZM15.7509 9.49992C16.1487 9.49992 16.5303 9.65796 16.8116 9.93926C17.0929 10.2206 17.2509 10.6021 17.2509 10.9999C17.2509 11.3977 17.0929 11.7793 16.8116 12.0606C16.5303 12.3419 16.1487 12.4999 15.7509 12.4999C15.3531 12.4999 14.9715 12.3419 14.6902 12.0606C14.4089 11.7793 14.2509 11.3977 14.2509 10.9999C14.2509 10.6021 14.4089 10.2206 14.6902 9.93926C14.9715 9.65796 15.3531 9.49992 15.7509 9.49992ZM14.2149 14.4814C14.0364 14.3749 13.8324 14.3749 13.4259 14.3749H10.5759C10.1694 14.3749 9.9654 14.3749 9.7869 14.4814C9.63625 14.5817 9.52125 14.7272 9.4584 14.8969C9.3954 15.0964 9.4329 15.2524 9.5079 15.5659C9.52443 15.6416 9.547 15.7158 9.5754 15.7879C9.84826 16.4201 10.3583 16.9199 10.9959 17.1799C11.4755 17.3741 12.0012 17.4247 12.509 17.3256C13.0168 17.2266 13.4849 16.9821 13.8564 16.6219C14.1009 16.3819 14.2944 16.0999 14.4264 15.7879C14.4548 15.7158 14.4774 15.6416 14.4939 15.5659C14.5689 15.2524 14.6064 15.0964 14.5434 14.8969C14.4802 14.727 14.3661 14.5815 14.2149 14.4814Z" fill="#6D7885"/>
</svg>
