<svg enable-background="new 0 0 216.11 216.11" viewBox="0 0 216.11 216.11" xmlns="http://www.w3.org/2000/svg"><g fill="#4273b8"><path d="m168.684 108.067c0 5.346-4.376 9.724-9.724 9.724h-74.291l14.878 14.876c3.792 3.794 3.792 9.919 0 13.712-1.945 1.847-4.473 2.82-6.904 2.82-2.528 0-4.959-.973-6.904-2.82l-24.504-24.6-13.808-13.712 13.808-13.712 24.504-24.6c3.792-3.794 9.919-3.794 13.808 0 3.792 3.794 3.792 9.919 0 13.708l-14.878 14.88h74.291c5.348 0 9.724 4.378 9.724 9.724z"/><path d="m107.446 215.828c-32.135 0-64.098-8.205-82.141-24.547-.237-.218-.465-.437-.684-.674-32.856-36.275-32.856-128.842 0-165.079 36.94-33.54 129.517-33.559 165.763-.665 34.214 37.709 34.214 128.729.674 165.744-18.554 16.836-51.164 25.221-83.612 25.221zm-68.732-38.639c29.514 26.143 109.509 26.048 138.604-.323 25.801-28.536 25.801-109.043-.674-138.282-28.555-25.82-109.062-25.829-138.282.684-25.705 28.412-25.81 108.388.352 137.921z"/></g></svg>