<svg viewBox="0 0 216.11 163.229" xmlns="http://www.w3.org/2000/svg" xmlns:xlink="http://www.w3.org/1999/xlink" id="Layer_1" xml:space="preserve" overflow="hidden"><g><g><path d="M200.1 19.577C189.09 7.617 173.45-0.003 155.91-0.003L60.2-0.003C26.94-0.003-0.03 26.967-0.03 60.227L-0.03 102.997C-0.03 121.597 8.57 138.007 21.82 149.057 32.26 157.777 45.53 163.227 60.2 163.227L216.14 163.227 216.14 60.227C216.14 44.497 209.97 30.307 200.1 19.577ZM200.92 149.377 63.41 149.377C45.56 149.377 30.16 139.567 21.82 125.157 17.71 118.067 15.19 109.937 15.19 101.147L15.19 62.437C15.19 35.597 36.94 13.847 63.77 13.847L153.08 13.847C161.16 13.847 168.65 16.037 175.33 19.577 190.48 27.607 200.92 43.347 200.92 61.697L200.92 149.377Z" stroke="#818B9A" fill="#818B9A"/></g><g><circle cx="108.055" cy="81.614" r="7.7" stroke="#818B9A" fill="#818B9A"/><g><circle cx="70.038" cy="81.614" r="7.7" stroke="#818B9A" fill="#818B9A"/><circle cx="146.072" cy="81.614" r="7.7" stroke="#818B9A" fill="#818B9A"/></g></g></g></svg>