<svg viewBox="0 0 496.677 500" xmlns="http://www.w3.org/2000/svg" xmlns:xlink="http://www.w3.org/1999/xlink" id="Layer_1" xml:space="preserve" overflow="hidden"><g><path d="M458.299 159.917 458.299 381.366C458.299 446.979 405.071 500.211 339.455 500.211L118.843 500.211C53.228 500.211 0 446.98 0 381.366L0 159.917C0 94.475 53.228 41.244 118.843 41.244L339.456 41.244C353.684 41.244 367.41 43.753 379.964 48.444 378.96 49.441 377.788 50.618 376.616 51.623 375.612 52.792 374.44 53.797 373.436 54.966 368.916 59.322 364.398 63.842 359.878 68.525 358.874 69.865 357.702 70.871 356.53 72.211 355.358 73.38 354.186 74.72 353.016 76.061 348.496 75.219 344.144 74.721 339.457 74.721L118.843 74.721C71.808 74.721 33.477 112.881 33.477 159.917L33.477 381.366C33.477 428.402 71.808 466.734 118.843 466.734L339.456 466.734C386.492 466.734 424.823 428.402 424.823 381.366L424.823 162.263C426.162 160.759 427.501 159.247 428.84 157.743 430.179 156.239 431.518 154.727 432.857 153.223 437.878 147.698 442.733 142.01 447.252 136.321 448.424 135.144 449.596 133.804 450.6 132.463 451.772 131.131 452.776 129.79 453.948 128.278 456.624 138.496 458.299 149.039 458.299 159.917Z" fill="#4273B8"/><path d="M496.462 20.321C494.286 31.036 488.763 45.592 478.218 64.006 469.849 78.57 459.303 93.968 447.085 109.873 446.081 111.213 445.243 112.382 444.239 113.551 443.235 114.891 442.23 116.068 441.394 117.237 437.377 122.255 433.192 127.282 429.008 132.3 427.836 133.64 426.664 134.981 425.493 136.485 424.489 137.654 423.317 138.831 422.313 139.999 409.927 154.057 396.704 167.951 382.475 181.682 341.633 221.518 298.783 254.161 261.959 273.743 254.259 277.756 247.396 280.935 241.036 283.616 242.877 277.257 245.221 270.228 248.401 262.529 263.8 223.862 291.753 177.831 326.737 132.806 341.299 114.22 356.363 96.812 371.261 80.915 372.433 79.738 373.437 78.733 374.441 77.564 375.445 76.559 376.45 75.39 377.454 74.385 381.806 70.037 385.991 66.016 390.175 61.995 391.179 60.826 392.184 59.821 393.355 58.816 394.359 57.811 395.531 56.814 396.535 55.808 409.089 44.088 421.643 33.545 433.527 25.004 459.304 6.092 478.218-0.774 487.592 0.068L488.596 0.068C490.269 0.403 491.609 0.902 492.613 1.572 495.625 3.918 497.299 10.448 496.462 20.321Z" fill="#4273B8"/></g></svg>