<svg width="68" height="76" xmlns="http://www.w3.org/2000/svg" xmlns:xlink="http://www.w3.org/1999/xlink" overflow="hidden"><g transform="translate(1 -176)"><g><g><path d="M388.409 341.498C378.629 341.498 370.698 349.426 370.698 359.209 370.698 364.259 372.823 368.805 376.215 372.032 376.276 371.395 376.339 370.8 376.38 370.63 377.669 365.054 382.855 361.241 388.58 361.241 394.811 361.241 399.95 365.868 400.781 371.871 404.072 368.656 406.12 364.175 406.12 359.211 406.118 349.426 398.19 341.498 388.409 341.498ZM388.103 358.216C384.917 358.216 382.333 355.632 382.333 352.446 382.333 349.26 384.917 346.676 388.103 346.676 391.289 346.676 393.873 349.26 393.873 352.446 393.873 355.632 391.291 358.216 388.103 358.216Z" fill="#C9CBCD" transform="matrix(1 0 0 1.00161 -356.686 -148.261)"/></g></g></g></svg>