<svg enable-background="new 0 0 1080 150.763" viewBox="0 0 1080 150.763" xmlns="http://www.w3.org/2000/svg"><g fill="#f1f2f2"><path d="m616.011 126.384c0 .326-.084.611-.252.855s-.461.438-.881.58c-.42.143-.955.265-1.604.367-.65.101-1.5.153-2.548.153-.966 0-1.794-.052-2.486-.153-.691-.102-1.237-.224-1.636-.367-.399-.142-.682-.336-.85-.58-.168-.245-.251-.529-.251-.855v-68.853h-.122l-27.859 69.159c-.122.286-.296.53-.52.733-.224.204-.55.377-.978.519-.428.143-.938.245-1.527.306-.591.061-1.293.092-2.107.092-.855 0-1.589-.041-2.199-.123-.611-.082-1.121-.193-1.527-.336-.408-.142-.724-.315-.947-.519-.225-.204-.377-.428-.458-.672l-26.637-69.159h-.061v68.854c0 .326-.084.611-.252.855s-.461.438-.881.58c-.42.143-.965.265-1.636.367-.671.101-1.531.153-2.579.153-1.007 0-1.846-.052-2.518-.153-.671-.102-1.206-.224-1.604-.367-.399-.142-.671-.336-.818-.58-.147-.245-.219-.529-.219-.855v-72.703c0-1.711.454-2.933 1.364-3.666s1.923-1.1 3.04-1.1h6.452c1.323 0 2.481.123 3.474.367.992.244 1.86.632 2.604 1.161.745.53 1.365 1.202 1.862 2.016.496.815.931 1.772 1.303 2.872l22.604 57.245h.306l23.521-57.062c.454-1.222.95-2.26 1.489-3.116.538-.855 1.128-1.537 1.77-2.046s1.354-.875 2.142-1.1c.785-.223 1.696-.336 2.73-.336h6.766c.62 0 1.21.092 1.769.275.559.184 1.035.469 1.429.855.393.388.714.876.962 1.466.248.591.372 1.313.372 2.169v72.702z"/><path d="m682.787 96.57c0 1.588-.398 2.719-1.196 3.391-.799.672-1.708 1.008-2.731 1.008h-36.211c0 3.055.307 5.804.92 8.248.614 2.444 1.638 4.542 3.07 6.292 1.432 1.752 3.294 3.096 5.586 4.032 2.292.938 5.096 1.405 8.411 1.405 2.619 0 4.952-.214 6.998-.642 2.047-.428 3.816-.906 5.311-1.436 1.494-.529 2.722-1.008 3.684-1.436.963-.428 1.689-.642 2.181-.642.286 0 .541.071.767.214s.399.357.522.642c.122.285.215.682.275 1.191.062.51.093 1.13.093 1.864 0 .53-.021.988-.062 1.375-.041.388-.091.733-.152 1.039-.062.305-.163.581-.306.825s-.326.479-.55.703c-.225.224-.886.591-1.985 1.1-1.1.51-2.526 1.008-4.276 1.497-1.752.489-3.778.926-6.079 1.313-2.302.386-4.756.58-7.362.58-4.521 0-8.482-.632-11.883-1.894-3.4-1.262-6.262-3.136-8.583-5.621-2.322-2.484-4.073-5.6-5.255-9.347s-1.771-8.104-1.771-13.074c0-4.724.611-8.97 1.833-12.738 1.222-3.767 2.983-6.965 5.284-9.592s5.081-4.643 8.34-6.048c3.258-1.405 6.903-2.107 10.936-2.107 4.317 0 7.993.693 11.027 2.077 3.034 1.385 5.529 3.249 7.484 5.59 1.955 2.343 3.391 5.092 4.308 8.248.916 3.157 1.374 6.527 1.374 10.111v1.832zm-10.141-2.993c.122-5.294-1.057-9.449-3.534-12.463-2.479-3.014-6.157-4.521-11.034-4.521-2.5 0-4.692.469-6.577 1.405-1.885.938-3.463 2.179-4.733 3.727-1.271 1.548-2.254 3.351-2.951 5.407-.696 2.057-1.085 4.206-1.167 6.445z"/><path d="m732.641 111.477c0 2.811-.52 5.315-1.559 7.515-1.038 2.2-2.516 4.053-4.429 5.56-1.915 1.507-4.196 2.648-6.843 3.421-2.648.773-5.56 1.161-8.736 1.161-1.955 0-3.818-.153-5.591-.458-1.771-.306-3.36-.693-4.765-1.161s-2.597-.957-3.574-1.466c-.978-.509-1.69-.967-2.139-1.375-.448-.406-.774-.977-.978-1.71s-.306-1.73-.306-2.994c0-.773.04-1.425.123-1.955.081-.529.183-.957.305-1.283s.295-.56.52-.703c.224-.142.479-.214.764-.214.448 0 1.109.275 1.985.825s1.955 1.151 3.238 1.802c1.283.652 2.8 1.252 4.552 1.802 1.751.55 3.767.825 6.048.825 1.711 0 3.259-.183 4.644-.55 1.384-.367 2.586-.906 3.604-1.619 1.018-.712 1.803-1.619 2.353-2.719s.824-2.403.824-3.91c0-1.547-.397-2.851-1.191-3.91s-1.843-1.995-3.146-2.81c-1.304-.814-2.77-1.537-4.398-2.169-1.63-.631-3.31-1.292-5.04-1.986-1.731-.692-3.422-1.476-5.071-2.352-1.649-.875-3.126-1.944-4.429-3.208-1.305-1.262-2.353-2.769-3.146-4.521-.795-1.75-1.191-3.849-1.191-6.292 0-2.158.417-4.225 1.252-6.201.835-1.975 2.087-3.706 3.758-5.193 1.669-1.486 3.757-2.678 6.262-3.574s5.427-1.344 8.768-1.344c1.466 0 2.933.122 4.398.366 1.466.245 2.789.55 3.971.917s2.189.764 3.024 1.191 1.467.805 1.895 1.13c.427.326.712.611.854.855.143.245.245.52.306.825.062.306.122.683.184 1.13.061.449.092.999.092 1.65 0 .693-.031 1.293-.092 1.802-.062.51-.163.927-.306 1.252-.144.326-.315.56-.52.702-.204.144-.428.214-.672.214-.366 0-.896-.223-1.588-.672-.693-.448-1.589-.926-2.688-1.436-1.1-.509-2.394-.987-3.88-1.436-1.487-.448-3.188-.672-5.102-.672-1.71 0-3.218.194-4.521.581-1.304.387-2.373.937-3.207 1.649-.836.713-1.467 1.558-1.895 2.535-.428.978-.642 2.037-.642 3.177 0 1.588.407 2.923 1.223 4.001.813 1.08 1.872 2.027 3.177 2.841 1.303.815 2.789 1.548 4.46 2.2 1.669.652 3.369 1.324 5.101 2.016 1.731.693 3.441 1.466 5.132 2.321 1.69.855 3.187 1.894 4.491 3.116 1.303 1.222 2.352 2.688 3.146 4.399.793 1.714 1.191 3.751 1.191 6.112z"/><path d="m781.577 111.477c0 2.811-.52 5.315-1.559 7.515-1.038 2.2-2.516 4.053-4.429 5.56-1.915 1.507-4.196 2.648-6.843 3.421-2.648.773-5.56 1.161-8.736 1.161-1.955 0-3.818-.153-5.591-.458-1.771-.306-3.36-.693-4.765-1.161s-2.597-.957-3.574-1.466c-.978-.509-1.69-.967-2.139-1.375-.448-.406-.774-.977-.978-1.71s-.306-1.73-.306-2.994c0-.773.04-1.425.123-1.955.081-.529.183-.957.305-1.283s.295-.56.52-.703c.224-.142.479-.214.764-.214.448 0 1.109.275 1.985.825s1.955 1.151 3.238 1.802c1.283.652 2.8 1.252 4.552 1.802 1.751.55 3.767.825 6.048.825 1.711 0 3.259-.183 4.644-.55 1.384-.367 2.586-.906 3.604-1.619 1.018-.712 1.803-1.619 2.353-2.719s.824-2.403.824-3.91c0-1.547-.397-2.851-1.191-3.91s-1.843-1.995-3.146-2.81c-1.304-.814-2.77-1.537-4.398-2.169-1.63-.631-3.31-1.292-5.04-1.986-1.731-.692-3.422-1.476-5.071-2.352-1.649-.875-3.126-1.944-4.429-3.208-1.305-1.262-2.353-2.769-3.146-4.521-.795-1.75-1.191-3.849-1.191-6.292 0-2.158.417-4.225 1.252-6.201.835-1.975 2.087-3.706 3.758-5.193 1.669-1.486 3.757-2.678 6.262-3.574s5.427-1.344 8.768-1.344c1.466 0 2.933.122 4.398.366 1.466.245 2.789.55 3.971.917s2.189.764 3.024 1.191 1.467.805 1.895 1.13c.427.326.712.611.854.855.143.245.245.52.306.825.062.306.122.683.184 1.13.061.449.092.999.092 1.65 0 .693-.031 1.293-.092 1.802-.062.51-.163.927-.306 1.252-.144.326-.315.56-.52.702-.204.144-.428.214-.672.214-.366 0-.896-.223-1.588-.672-.693-.448-1.589-.926-2.688-1.436-1.1-.509-2.394-.987-3.88-1.436-1.487-.448-3.188-.672-5.102-.672-1.71 0-3.218.194-4.521.581-1.304.387-2.373.937-3.207 1.649-.836.713-1.467 1.558-1.895 2.535-.428.978-.642 2.037-.642 3.177 0 1.588.407 2.923 1.223 4.001.813 1.08 1.872 2.027 3.177 2.841 1.303.815 2.789 1.548 4.46 2.2 1.669.652 3.369 1.324 5.101 2.016 1.731.693 3.441 1.466 5.132 2.321 1.69.855 3.187 1.894 4.491 3.116 1.303 1.222 2.352 2.688 3.146 4.399.794 1.714 1.191 3.751 1.191 6.112z"/><path d="m842.915 96.57c0 1.588-.398 2.719-1.196 3.391-.799.672-1.708 1.008-2.731 1.008h-36.211c0 3.055.307 5.804.92 8.248.614 2.444 1.638 4.542 3.07 6.292 1.432 1.752 3.294 3.096 5.586 4.032 2.292.938 5.096 1.405 8.411 1.405 2.619 0 4.952-.214 6.998-.642 2.047-.428 3.816-.906 5.311-1.436 1.494-.529 2.722-1.008 3.684-1.436.963-.428 1.689-.642 2.181-.642.286 0 .541.071.767.214s.399.357.522.642c.122.285.215.682.275 1.191.062.51.093 1.13.093 1.864 0 .53-.021.988-.062 1.375-.041.388-.091.733-.152 1.039-.062.305-.163.581-.306.825s-.326.479-.55.703c-.225.224-.886.591-1.985 1.1-1.1.51-2.526 1.008-4.276 1.497-1.752.489-3.778.926-6.079 1.313-2.302.386-4.756.58-7.362.58-4.521 0-8.482-.632-11.883-1.894-3.4-1.262-6.262-3.136-8.583-5.621-2.322-2.484-4.073-5.6-5.255-9.347s-1.771-8.104-1.771-13.074c0-4.724.611-8.97 1.833-12.738 1.222-3.767 2.983-6.965 5.284-9.592s5.081-4.643 8.34-6.048c3.258-1.405 6.903-2.107 10.936-2.107 4.317 0 7.993.693 11.027 2.077 3.034 1.385 5.529 3.249 7.484 5.59 1.955 2.343 3.391 5.092 4.308 8.248.916 3.157 1.374 6.527 1.374 10.111v1.832zm-10.142-2.993c.122-5.294-1.057-9.449-3.534-12.463-2.479-3.014-6.157-4.521-11.034-4.521-2.5 0-4.692.469-6.577 1.405-1.885.938-3.463 2.179-4.733 3.727-1.271 1.548-2.254 3.351-2.951 5.407-.696 2.057-1.085 4.206-1.167 6.445z"/><path d="m905.598 126.445c0 .327-.082.602-.244.825-.163.225-.428.418-.794.581-.367.162-.877.284-1.527.366-.652.082-1.467.123-2.444.123-1.019 0-1.854-.041-2.505-.123s-1.16-.204-1.527-.366c-.366-.163-.632-.356-.794-.581-.163-.223-.244-.498-.244-.825v-32.196c0-3.136-.245-5.661-.733-7.576-.488-1.914-1.202-3.563-2.139-4.949-.938-1.384-2.148-2.444-3.635-3.177s-3.207-1.1-5.162-1.1c-2.526 0-5.051.896-7.576 2.688-2.525 1.793-5.173 4.42-7.942 7.881v38.428c0 .327-.082.602-.244.825-.163.225-.428.418-.794.581-.367.162-.877.284-1.527.366-.652.082-1.487.123-2.505.123-.978 0-1.793-.041-2.444-.123s-1.171-.204-1.558-.366c-.388-.163-.652-.356-.794-.581-.144-.223-.214-.498-.214-.825v-54.984c0-.326.061-.601.183-.825.123-.224.367-.428.733-.611.367-.184.835-.306 1.405-.367s1.323-.092 2.261-.092c.896 0 1.639.031 2.229.092s1.049.183 1.375.367c.325.183.56.387.702.611.143.224.214.499.214.825v7.27c3.095-3.461 6.181-5.997 9.256-7.606 3.075-1.608 6.181-2.413 9.317-2.413 3.665 0 6.751.621 9.256 1.863 2.505 1.243 4.53 2.902 6.078 4.979s2.658 4.511 3.33 7.301c.672 2.791 1.008 6.14 1.008 10.05v33.541z"/><path d="m969.93 73.965c0 1.426-.193 2.454-.58 3.085-.388.632-.886.947-1.497.947h-7.881c1.425 1.466 2.423 3.085 2.993 4.857s.855 3.615.855 5.529c0 3.177-.51 5.987-1.527 8.431-1.019 2.444-2.474 4.512-4.368 6.201-1.894 1.69-4.145 2.984-6.751 3.879-2.606.896-5.498 1.344-8.675 1.344-2.241 0-4.368-.295-6.385-.886-2.016-.59-3.574-1.334-4.674-2.23-.733.733-1.334 1.568-1.802 2.505-.469.937-.703 2.016-.703 3.238 0 1.426.662 2.607 1.985 3.543 1.323.938 3.086 1.446 5.285 1.527l14.357.611c2.728.082 5.232.458 7.515 1.13 2.28.672 4.255 1.629 5.926 2.872 1.67 1.243 2.973 2.77 3.91 4.582s1.405 3.919 1.405 6.323c0 2.525-.53 4.928-1.589 7.209-1.06 2.281-2.679 4.286-4.856 6.018-2.18 1.73-4.96 3.095-8.34 4.093-3.381.998-7.372 1.497-11.975 1.497-4.439 0-8.217-.377-11.333-1.13-3.115-.754-5.672-1.782-7.667-3.085-1.996-1.304-3.442-2.862-4.338-4.674s-1.344-3.778-1.344-5.896c0-1.344.162-2.648.488-3.91.326-1.263.825-2.465 1.497-3.604s1.506-2.23 2.505-3.269c.997-1.039 2.147-2.067 3.452-3.085-1.996-1.018-3.474-2.3-4.43-3.849-.957-1.547-1.436-3.217-1.436-5.01 0-2.484.509-4.704 1.527-6.659s2.28-3.706 3.788-5.254c-1.264-1.506-2.261-3.208-2.994-5.101-.733-1.894-1.1-4.185-1.1-6.874 0-3.136.529-5.946 1.589-8.431 1.059-2.484 2.524-4.582 4.398-6.293 1.873-1.71 4.124-3.024 6.751-3.94s5.488-1.375 8.584-1.375c1.669 0 3.228.091 4.674.275 1.444.183 2.8.438 4.062.764h16.617c.692 0 1.212.336 1.559 1.008.349.674.523 1.703.523 3.087zm-10.692 58.04c0-2.363-.968-4.185-2.901-5.468-1.936-1.283-4.552-1.965-7.851-2.047l-14.235-.489c-1.304 1.019-2.373 1.986-3.207 2.902-.836.917-1.497 1.792-1.986 2.627-.488.834-.824 1.659-1.008 2.474-.184.814-.274 1.649-.274 2.505 0 2.647 1.344 4.653 4.032 6.018 2.688 1.364 6.435 2.047 11.241 2.047 3.055 0 5.609-.296 7.667-.886 2.057-.591 3.716-1.375 4.979-2.352 1.262-.978 2.169-2.099 2.719-3.36.55-1.263.824-2.587.824-3.971zm-5.07-43.56c0-3.747-1.029-6.669-3.086-8.767-2.057-2.097-4.979-3.146-8.767-3.146-1.955 0-3.656.327-5.102.978-1.446.652-2.647 1.548-3.604 2.688-.957 1.141-1.671 2.455-2.139 3.941-.469 1.487-.702 3.045-.702 4.673 0 3.626 1.028 6.476 3.085 8.553s4.938 3.116 8.646 3.116c1.995 0 3.727-.315 5.192-.947 1.467-.631 2.678-1.506 3.636-2.627.956-1.12 1.669-2.413 2.138-3.879.468-1.467.703-2.995.703-4.583z"/><path d="m1028.764 96.57c0 1.588-.398 2.719-1.196 3.391-.799.672-1.708 1.008-2.731 1.008h-36.211c0 3.055.307 5.804.92 8.248.614 2.444 1.638 4.542 3.07 6.292 1.432 1.752 3.294 3.096 5.586 4.032 2.292.938 5.096 1.405 8.411 1.405 2.619 0 4.952-.214 6.998-.642 2.047-.428 3.816-.906 5.311-1.436 1.494-.529 2.722-1.008 3.684-1.436.963-.428 1.689-.642 2.181-.642.286 0 .541.071.767.214s.399.357.522.642c.122.285.215.682.275 1.191.062.51.093 1.13.093 1.864 0 .53-.021.988-.062 1.375-.041.388-.091.733-.152 1.039-.062.305-.163.581-.306.825s-.326.479-.55.703c-.225.224-.886.591-1.985 1.1-1.1.51-2.526 1.008-4.276 1.497-1.752.489-3.778.926-6.079 1.313-2.302.386-4.756.58-7.362.58-4.521 0-8.482-.632-11.883-1.894-3.4-1.262-6.262-3.136-8.583-5.621-2.322-2.484-4.073-5.6-5.255-9.347s-1.771-8.104-1.771-13.074c0-4.724.611-8.97 1.833-12.738 1.222-3.767 2.983-6.965 5.284-9.592s5.081-4.643 8.34-6.048c3.258-1.405 6.903-2.107 10.936-2.107 4.317 0 7.993.693 11.027 2.077 3.034 1.385 5.529 3.249 7.484 5.59 1.955 2.343 3.391 5.092 4.308 8.248.916 3.157 1.374 6.527 1.374 10.111v1.832zm-10.142-2.993c.122-5.294-1.057-9.449-3.534-12.463-2.479-3.014-6.157-4.521-11.034-4.521-2.5 0-4.692.469-6.577 1.405-1.885.938-3.463 2.179-4.733 3.727-1.271 1.548-2.254 3.351-2.951 5.407-.696 2.057-1.085 4.206-1.167 6.445z"/><path d="m1076.234 75.065c0 .896-.021 1.649-.062 2.261-.041.611-.122 1.09-.244 1.436-.122.347-.275.611-.458.794-.184.183-.438.275-.764.275-.327 0-.724-.092-1.191-.275-.469-.184-.999-.367-1.589-.55-.591-.183-1.252-.356-1.985-.519-.733-.162-1.527-.245-2.383-.245-1.019 0-2.016.205-2.993.611-.978.407-2.007 1.08-3.086 2.016-1.079.937-2.21 2.179-3.391 3.727-1.182 1.548-2.484 3.442-3.91 5.682v36.168c0 .327-.082.602-.244.825-.163.225-.428.418-.794.581-.367.162-.877.284-1.527.366-.652.082-1.487.123-2.505.123-.978 0-1.793-.041-2.444-.123s-1.171-.204-1.558-.366c-.388-.163-.652-.356-.794-.581-.144-.223-.214-.498-.214-.825v-54.986c0-.326.061-.601.183-.825.123-.224.367-.428.733-.611.367-.184.835-.306 1.405-.367s1.323-.092 2.261-.092c.896 0 1.639.031 2.229.092s1.049.183 1.375.367c.325.183.56.387.702.611.143.224.214.499.214.825v8.003c1.507-2.2 2.922-3.991 4.246-5.376 1.323-1.384 2.576-2.474 3.758-3.269 1.181-.794 2.352-1.344 3.513-1.649s2.331-.458 3.513-.458c.529 0 1.131.03 1.803.091s1.374.174 2.107.336c.733.164 1.395.347 1.985.55.59.205 1.009.408 1.253.611.244.204.406.397.488.58.081.184.153.418.214.703.062.286.102.703.122 1.252s.032 1.294.032 2.231z"/><path d="m309.972 126.384c0 .326-.084.611-.252.855s-.461.438-.881.58c-.42.143-.955.265-1.605.367-.65.101-1.5.153-2.548.153-.965 0-1.793-.052-2.485-.153-.692-.102-1.237-.224-1.636-.367-.399-.142-.682-.336-.85-.58-.168-.245-.251-.529-.251-.855v-68.853h-.123l-27.859 69.159c-.122.286-.296.53-.52.733-.224.204-.55.377-.977.519-.428.143-.938.245-1.528.306-.591.061-1.293.092-2.107.092-.855 0-1.588-.041-2.2-.123-.611-.082-1.121-.193-1.527-.336-.407-.142-.723-.315-.947-.519s-.377-.428-.458-.672l-26.637-69.159h-.061v68.854c0 .326-.084.611-.252.855s-.461.438-.881.58c-.42.143-.965.265-1.636.367-.671.101-1.531.153-2.579.153-1.007 0-1.846-.052-2.518-.153-.671-.102-1.206-.224-1.604-.367-.399-.142-.671-.336-.818-.58-.147-.245-.219-.529-.219-.855v-72.703c0-1.711.454-2.933 1.364-3.666s1.923-1.1 3.04-1.1h6.452c1.323 0 2.481.123 3.474.367s1.86.632 2.605 1.161c.745.53 1.365 1.202 1.861 2.016.497.815.931 1.772 1.303 2.872l22.605 57.245h.305l23.521-57.062c.454-1.222.951-2.26 1.489-3.116.538-.855 1.128-1.537 1.77-2.046s1.354-.875 2.141-1.1c.786-.223 1.696-.336 2.731-.336h6.765c.621 0 1.21.092 1.769.275.558.184 1.035.469 1.428.855.394.388.714.876.962 1.466.248.591.372 1.313.372 2.169v72.702z"/><path d="m376.748 96.57c0 1.588-.399 2.719-1.197 3.391s-1.708 1.008-2.731 1.008h-36.211c0 3.055.307 5.804.92 8.248s1.637 4.542 3.07 6.292c1.432 1.752 3.294 3.096 5.586 4.032 2.292.938 5.096 1.405 8.411 1.405 2.62 0 4.952-.214 6.999-.642 2.046-.428 3.816-.906 5.31-1.436 1.494-.529 2.722-1.008 3.684-1.436s1.688-.642 2.18-.642c.287 0 .542.071.767.214s.399.357.522.642.215.682.276 1.191c.061.51.093 1.13.093 1.864 0 .53-.021.988-.061 1.375-.041.388-.092.733-.153 1.039-.061.305-.163.581-.306.825s-.326.479-.55.703-.886.591-1.985 1.1c-1.1.51-2.526 1.008-4.277 1.497s-3.778.926-6.079 1.313c-2.302.386-4.756.58-7.362.58-4.521 0-8.482-.632-11.883-1.894s-6.262-3.136-8.584-5.621c-2.321-2.484-4.073-5.6-5.254-9.347-1.182-3.747-1.772-8.104-1.772-13.074 0-4.724.611-8.97 1.833-12.738 1.222-3.767 2.983-6.965 5.285-9.592 2.3-2.627 5.08-4.643 8.339-6.048 3.258-1.405 6.904-2.107 10.936-2.107 4.316 0 7.993.693 11.027 2.077 3.034 1.385 5.529 3.249 7.484 5.59 1.955 2.343 3.391 5.092 4.307 8.248.917 3.157 1.375 6.527 1.375 10.111v1.832zm-10.142-2.993c.123-5.294-1.057-9.449-3.535-12.463-2.479-3.014-6.157-4.521-11.033-4.521-2.5 0-4.693.469-6.577 1.405-1.885.938-3.463 2.179-4.734 3.727s-2.254 3.351-2.951 5.407c-.697 2.057-1.085 4.206-1.167 6.445z"/><path d="m439.431 126.445c0 .327-.082.602-.244.825-.163.225-.428.418-.794.581-.366.162-.876.284-1.527.366-.652.082-1.466.123-2.443.123-1.019 0-1.854-.041-2.505-.123-.652-.082-1.161-.204-1.527-.366-.367-.163-.632-.356-.794-.581-.163-.223-.245-.498-.245-.825v-32.196c0-3.136-.244-5.661-.733-7.576-.489-1.914-1.202-3.563-2.138-4.949-.938-1.384-2.149-2.444-3.635-3.177-1.487-.733-3.208-1.1-5.163-1.1-2.526 0-5.051.896-7.576 2.688-2.526 1.793-5.173 4.42-7.942 7.881v38.428c0 .327-.083.602-.245.825-.163.225-.428.418-.794.581-.366.162-.876.284-1.527.366-.652.082-1.487.123-2.505.123-.977 0-1.792-.041-2.443-.123-.652-.082-1.171-.204-1.558-.366-.388-.163-.652-.356-.794-.581-.143-.223-.213-.498-.213-.825v-54.984c0-.326.061-.601.183-.825s.367-.428.733-.611c.367-.184.834-.306 1.405-.367.57-.061 1.323-.092 2.261-.092.895 0 1.639.031 2.23.092.59.061 1.048.183 1.375.367.325.183.559.387.703.611.142.224.214.499.214.825v7.27c3.095-3.461 6.18-5.997 9.255-7.606 3.075-1.608 6.18-2.413 9.317-2.413 3.666 0 6.751.621 9.256 1.863 2.505 1.243 4.531 2.902 6.079 4.979 1.547 2.077 2.658 4.511 3.33 7.301.672 2.791 1.008 6.14 1.008 10.05v33.541z"/><path d="m499.242 126.506c0 .489-.164.855-.489 1.1-.327.245-.774.428-1.344.55-.571.123-1.405.184-2.505.184-1.06 0-1.904-.061-2.535-.184-.632-.122-1.09-.305-1.375-.55-.285-.244-.428-.611-.428-1.1v-5.499c-2.403 2.566-5.081 4.562-8.034 5.987-2.954 1.425-6.079 2.138-9.378 2.138-2.893 0-5.509-.377-7.851-1.13-2.343-.753-4.338-1.843-5.987-3.269-1.649-1.425-2.933-3.177-3.849-5.254s-1.375-4.439-1.375-7.087c0-3.095.631-5.783 1.894-8.064 1.262-2.28 3.075-4.174 5.438-5.682 2.361-1.506 5.254-2.637 8.675-3.391 3.421-.753 7.27-1.13 11.547-1.13h7.576v-4.275c0-2.117-.225-3.991-.672-5.621-.448-1.628-1.171-2.983-2.168-4.062-.999-1.079-2.291-1.894-3.88-2.444-1.588-.55-3.543-.825-5.865-.825-2.485 0-4.715.296-6.69.886-1.976.591-3.707 1.243-5.193 1.955-1.487.713-2.729 1.365-3.727 1.955-.999.591-1.741.886-2.23.886-.326 0-.611-.081-.855-.244-.245-.163-.458-.407-.642-.733-.183-.326-.316-.743-.397-1.252-.082-.509-.123-1.069-.123-1.68 0-1.018.071-1.822.214-2.413.143-.59.489-1.15 1.039-1.68.55-.529 1.497-1.15 2.841-1.863 1.344-.712 2.891-1.364 4.643-1.955 1.75-.59 3.666-1.079 5.743-1.466s4.174-.58 6.293-.58c3.95 0 7.31.448 10.081 1.344 2.769.896 5.01 2.21 6.72 3.94 1.71 1.732 2.953 3.88 3.727 6.446.773 2.566 1.161 5.56 1.161 8.981zm-10.019-25.11h-8.614c-2.771 0-5.173.235-7.209.703-2.037.469-3.727 1.161-5.071 2.077-1.344.917-2.332 2.016-2.963 3.299-.632 1.283-.947 2.76-.947 4.429 0 2.852.906 5.123 2.719 6.812 1.812 1.69 4.347 2.536 7.606 2.536 2.647 0 5.102-.672 7.362-2.016 2.261-1.344 4.633-3.4 7.118-6.171v-11.669z"/></g><path d="m129.34 0h-80.47c-.03.04-.06.09-.09.13v-.13h-3.95c-24.76 0-44.83 20.03-44.83 44.74v43.11c0 .3.04.59.04.89.01.28.01.56.03.84.91 23.9 20.58 43.01 44.76 43.01h129.34v-87.85c0-24.71-20.07-44.74-44.83-44.74zm26.42 114.21h-107.35c-.13 0-.25 0-.38-.01v-.04c-15.49-.5-28.06-11.47-29.47-25.42h-.07c-.05-.62-.08-1.25-.08-1.89v-40.99h.04c.36-15.04 13.61-27.16 30.05-27.46.09 0 .19 0 .28-.01h.22c.04-.01.09-.01.13-.01h75.91c16.77 0 30.38 12.3 30.69 27.57 0 .17.03.35.03.52z" fill="#fffffd"/><path d="m.04 88.74h-.02c0-.3-.02-.59-.02-.89 0 .3.04.59.04.89z" fill="#fffffd"/><path d="m.07 89.58h-.03c0-.31-.04-.61-.04-.93v-.8c0 .3.04.59.04.89.01.28.01.56.03.84z" fill="#fffffd"/></svg>