<svg width="73" height="73" viewBox="0 0 73 73" fill="none" xmlns="http://www.w3.org/2000/svg">
<g id="add_circle_fill_20 1" clip-path="url(#clip0_1_81)">
<path id="Vector" d="M36.5 73C56.6584 73 73 56.6584 73 36.5C73 16.3416 56.6584 0 36.5 0C16.3416 0 0 16.3416 0 36.5C0 56.6584 16.3416 73 36.5 73Z" fill="#2788E8"/>
<path id="Vector_2" d="M36.5 16.425C37.468 16.425 38.3964 16.8096 39.0809 17.4941C39.7654 18.1786 40.15 19.107 40.15 20.075V32.85H52.925C53.893 32.85 54.8214 33.2346 55.5059 33.9191C56.1904 34.6036 56.575 35.532 56.575 36.5C56.575 37.468 56.1904 38.3964 55.5059 39.0809C54.8214 39.7654 53.893 40.15 52.925 40.15H40.15V52.925C40.15 53.893 39.7654 54.8214 39.0809 55.5059C38.3964 56.1904 37.468 56.575 36.5 56.575C35.532 56.575 34.6036 56.1904 33.9191 55.5059C33.2346 54.8214 32.85 53.893 32.85 52.925V40.15H20.075C19.107 40.15 18.1786 39.7654 17.4941 39.0809C16.8096 38.3964 16.425 37.468 16.425 36.5C16.425 35.532 16.8096 34.6036 17.4941 33.9191C18.1786 33.2346 19.107 32.85 20.075 32.85H32.85V20.075C32.85 19.107 33.2346 18.1786 33.9191 17.4941C34.6036 16.8096 35.532 16.425 36.5 16.425Z" fill="white"/>
</g>
<defs>
<clipPath id="clip0_1_81">
<rect width="73" height="73" fill="white"/>
</clipPath>
</defs>
</svg>
