<svg width="30" height="27" xmlns="http://www.w3.org/2000/svg" xmlns:xlink="http://www.w3.org/1999/xlink" overflow="hidden"><g transform="translate(-258 -24)"><g><g><path d="M45.4122 42.8824C46.1897 42.1783 47.166 41.8455 48.138 41.8462L48.138 40.897C46.9401 40.8963 45.7386 41.3182 44.7808 42.1854 43.2672 43.5558 42.7897 45.6402 43.3898 47.4624L44.2756 47.1239C43.8095 45.6538 44.1943 43.9841 45.4122 42.8824Z" stroke="#FFFFFF" stroke-width="0.712628" fill="#FFFFFF" transform="matrix(1.00714 0 0 1 222.146 -10.1526)"/><path d="M45.1264 48.6197C44.7231 48.1743 44.4459 47.6613 44.2756 47.1232L43.3898 47.4617C43.6021 48.1052 43.9456 48.7159 44.4295 49.2511 45.4193 50.3443 46.7819 50.893 48.1487 50.8902L48.1451 49.941C47.0356 49.9424 45.9303 49.507 45.1264 48.6197Z" stroke="#FFFFFF" stroke-width="0.712628" fill="#FFFFFF" transform="matrix(1.00714 0 0 1 222.146 -10.1526)"/><path d="M51.4724 49.621 51.4396 49.5882C51.0833 49.2319 51.0797 48.6646 51.4147 48.2955 51.255 48.5128 51.0719 48.7167 50.8645 48.9048 50.0885 49.6067 49.1157 49.9395 48.1458 49.941L48.1494 50.8902C49.3331 50.8873 50.521 50.4719 51.4724 49.621Z" stroke="#FFFFFF" stroke-width="0.712628" fill="#FFFFFF" transform="matrix(1.00714 0 0 1 222.146 -10.1526)"/><path d="M56.195 53.011 52.1116 48.9276C51.9292 49.1663 51.7261 49.3937 51.4952 49.6017 51.4881 49.6082 51.4795 49.6139 51.4724 49.6203L55.5287 53.6765 56.195 53.011Z" stroke="#FFFFFF" stroke-width="0.712628" fill="#FFFFFF" transform="matrix(1.00714 0 0 1 222.146 -10.1526)"/><path d="M51.4182 48.2898C51.4168 48.2919 51.4161 48.2941 51.4147 48.2955 51.4161 48.2941 51.4168 48.2919 51.4182 48.2898Z" stroke="#FFFFFF" stroke-width="0.712628" fill="#FFFFFF" transform="matrix(1.00714 0 0 1 222.146 -10.1526)"/><path d="M52.1116 48.9276 51.4403 48.2563 51.4389 48.2577C51.4296 48.267 51.4268 48.2798 51.4175 48.2898 51.4161 48.2919 51.4154 48.2941 51.414 48.2955 51.079 48.6646 51.0826 49.2319 51.4389 49.5882L51.4717 49.621C51.4788 49.6146 51.4874 49.6089 51.4945 49.6025 51.7261 49.3937 51.9292 49.1663 52.1116 48.9276Z" stroke="#FFFFFF" stroke-width="0.712628" fill="#FFFFFF" transform="matrix(1.00714 0 0 1 222.146 -10.1526)"/><path d="M51.8465 42.536C50.8595 41.4457 49.5013 40.897 48.138 40.8963L48.138 41.8455C49.2454 41.8455 50.3479 42.2816 51.1496 43.1674 51.193 43.2159 51.2244 43.2708 51.265 43.3199L51.9335 42.6515C51.9021 42.6144 51.88 42.5724 51.8465 42.536Z" stroke="#FFFFFF" stroke-width="0.712628" fill="#FFFFFF" transform="matrix(1.00714 0 0 1 222.146 -10.1526)"/><path d="M51.265 43.3199C52.4572 44.7687 52.4957 46.8175 51.4182 48.2898 51.4275 48.2798 51.4296 48.2677 51.4396 48.2577L51.441 48.2563 52.1123 48.9276C53.5219 47.0854 53.4848 44.4665 51.9349 42.6515L51.265 43.3199Z" stroke="#FFFFFF" stroke-width="0.712628" fill="#FFFFFF" transform="matrix(1.00714 0 0 1 222.146 -10.1526)"/></g></g></g></svg>