<svg enable-background="new 0 0 1080 343.335" viewBox="0 0 1080 343.335" xmlns="http://www.w3.org/2000/svg"><g fill="#5b5c5e"><path d="m496.972 312.815c0 .415-.105.776-.319 1.084-.212.31-.585.556-1.118.736-.531.183-1.209.335-2.033.464-.826.129-1.901.194-3.231.194-1.223 0-2.274-.065-3.151-.194s-1.569-.281-2.075-.464c-.507-.181-.864-.426-1.078-.736-.212-.308-.317-.669-.317-1.084v-87.291h-.156l-35.318 87.679c-.156.361-.375.672-.658.93-.286.259-.698.478-1.241.658-.542.179-1.187.308-1.937.386-.747.078-1.638.116-2.671.116-1.084 0-2.015-.051-2.789-.154-.774-.105-1.419-.245-1.937-.426-.515-.181-.917-.399-1.2-.658s-.478-.542-.58-.852l-33.769-87.679h-.078v87.291c0 .415-.107.776-.319 1.084-.214.31-.585.556-1.118.736-.533.183-1.223.335-2.075.464-.85.129-1.939.194-3.269.194-1.276 0-2.341-.065-3.191-.194-.852-.129-1.528-.281-2.035-.464-.507-.181-.85-.426-1.038-.736-.185-.308-.279-.669-.279-1.084v-92.171c0-2.169.578-3.717 1.732-4.648 1.151-.928 2.437-1.392 3.854-1.392h8.18c1.678 0 3.146.154 4.405.464 1.258.31 2.359.801 3.302 1.47.944.672 1.729 1.524 2.359 2.557s1.18 2.247 1.653 3.639l28.657 72.577h.388l29.82-72.343c.576-1.551 1.205-2.867 1.888-3.952.683-1.084 1.43-1.948 2.245-2.595.812-.645 1.716-1.109 2.713-1.392.995-.283 2.151-.426 3.463-.426h8.577c.785 0 1.533.116 2.242.348.707.232 1.312.594 1.81 1.084.498.491.906 1.111 1.221 1.859.315.75.471 1.665.471 2.749z"/><path d="m581.632 275.018c0 2.015-.507 3.447-1.517 4.3-1.013.85-2.167 1.276-3.463 1.276h-45.908c0 3.874.388 7.359 1.167 10.456.779 3.099 2.075 5.759 3.891 7.979s4.177 3.925 7.082 5.112 6.46 1.781 10.664 1.781c3.32 0 6.277-.27 8.872-.812s4.84-1.149 6.732-1.821c1.894-.672 3.452-1.279 4.67-1.821 1.221-.542 2.142-.812 2.765-.812.364 0 .687.089.973.27.286.183.504.453.66.814s.272.864.35 1.511c.078.645.118 1.433.118 2.361 0 .672-.027 1.254-.078 1.743-.051.491-.116.93-.194 1.316-.078.388-.208.736-.386 1.047-.183.31-.415.607-.698.89-.283.286-1.122.75-2.517 1.395-1.395.647-3.202 1.279-5.422 1.897-2.22.62-4.788 1.176-7.707 1.667-2.916.489-6.029.736-9.331.736-5.732 0-10.755-.803-15.066-2.403s-7.939-3.974-10.882-7.125c-2.943-3.148-5.163-7.1-6.661-11.851-1.499-4.751-2.247-10.275-2.247-16.574 0-5.991.774-11.373 2.325-16.151 1.549-4.775 3.78-8.829 6.698-12.161 2.916-3.329 6.442-5.886 10.572-7.667s8.754-2.673 13.866-2.673c5.471 0 10.133.879 13.979 2.635s7.011 4.117 9.49 7.087c2.477 2.97 4.298 6.455 5.46 10.456 1.16 4.001 1.743 8.276 1.743 12.819zm-12.857-3.796c.154-6.712-1.341-11.978-4.483-15.8-3.142-3.82-7.805-5.732-13.988-5.732-3.169 0-5.949.596-8.339 1.783s-4.389 2.762-6 4.724c-1.611 1.964-2.858 4.248-3.742 6.855-.884 2.608-1.375 5.333-1.479 8.171h38.031z"/><path d="m644.833 293.918c0 3.563-.658 6.739-1.975 9.526-1.316 2.789-3.189 5.139-5.616 7.049-2.428 1.912-5.317 3.358-8.673 4.338-3.358.98-7.049 1.473-11.076 1.473-2.479 0-4.842-.194-7.087-.582-2.247-.386-4.26-.879-6.042-1.47-1.781-.594-3.291-1.214-4.53-1.859-1.241-.647-2.144-1.227-2.711-1.743-.569-.515-.982-1.241-1.241-2.169-.259-.93-.386-2.196-.386-3.796 0-.982.049-1.807.154-2.479.103-.672.232-1.214.388-1.627.154-.413.373-.71.658-.89.283-.181.605-.272.968-.272.567 0 1.406.35 2.517 1.047 1.109.696 2.479 1.459 4.103 2.285 1.627.826 3.55 1.589 5.773 2.285 2.218.696 4.775 1.047 7.667 1.047 2.169 0 4.13-.234 5.886-.698s3.278-1.149 4.57-2.053c1.29-.901 2.285-2.053 2.983-3.445.696-1.395 1.044-3.048 1.044-4.958 0-1.961-.502-3.615-1.511-4.958-1.006-1.341-2.336-2.528-3.987-3.561-1.653-1.033-3.512-1.95-5.578-2.751-2.064-.799-4.195-1.638-6.388-2.517-2.196-.877-4.338-1.87-6.429-2.981-2.093-1.109-3.965-2.466-5.616-4.068-1.653-1.6-2.983-3.51-3.99-5.73-1.006-2.22-1.511-4.88-1.511-7.979 0-2.736.529-5.355 1.589-7.861 1.058-2.504 2.646-4.697 4.764-6.582 2.115-1.885 4.764-3.396 7.939-4.532s6.879-1.705 11.114-1.705c1.859 0 3.717.156 5.576.466 1.859.308 3.537.696 5.034 1.16 1.497.466 2.776.968 3.836 1.511 1.058.542 1.859 1.02 2.401 1.433.542.415.901.774 1.084 1.084.181.31.31.658.386 1.046.078.388.156.866.232 1.433.078.569.116 1.265.116 2.091 0 .879-.038 1.64-.116 2.285-.076.647-.205 1.176-.386 1.589-.183.413-.402.71-.658.89-.259.181-.542.272-.852.272-.464 0-1.136-.283-2.015-.852-.877-.569-2.013-1.174-3.407-1.821-1.395-.645-3.035-1.252-4.918-1.821-1.885-.567-4.041-.852-6.469-.852-2.167 0-4.079.248-5.73.736-1.653.491-3.01 1.189-4.068 2.091-1.058.906-1.859 1.977-2.401 3.215s-.812 2.582-.812 4.028c0 2.015.515 3.706 1.549 5.074 1.033 1.368 2.374 2.568 4.028 3.601 1.651 1.033 3.537 1.964 5.654 2.787 2.118.828 4.273 1.68 6.469 2.557 2.193.879 4.362 1.859 6.504 2.943s4.041 2.401 5.694 3.949c1.651 1.551 2.981 3.41 3.987 5.578 1.01 2.164 1.512 4.748 1.512 7.743z"/><path d="m706.875 293.918c0 3.563-.658 6.739-1.975 9.526-1.316 2.789-3.189 5.139-5.616 7.049-2.428 1.912-5.317 3.358-8.673 4.338-3.358.98-7.049 1.473-11.076 1.473-2.479 0-4.842-.194-7.087-.582-2.247-.386-4.26-.879-6.043-1.47-1.781-.594-3.291-1.214-4.53-1.859-1.241-.647-2.144-1.227-2.711-1.743-.569-.515-.982-1.241-1.241-2.169-.259-.93-.386-2.196-.386-3.796 0-.982.049-1.807.154-2.479.103-.672.232-1.214.388-1.627.154-.413.373-.71.658-.89.283-.181.605-.272.968-.272.567 0 1.406.35 2.517 1.047 1.109.696 2.479 1.459 4.103 2.285 1.627.826 3.55 1.589 5.773 2.285 2.218.696 4.775 1.047 7.667 1.047 2.169 0 4.13-.234 5.886-.698s3.278-1.149 4.57-2.053c1.29-.901 2.285-2.053 2.983-3.445.696-1.395 1.044-3.048 1.044-4.958 0-1.961-.502-3.615-1.511-4.958-1.006-1.341-2.336-2.528-3.987-3.561-1.653-1.033-3.512-1.95-5.578-2.751-2.064-.799-4.195-1.638-6.388-2.517-2.196-.877-4.338-1.87-6.429-2.981-2.093-1.109-3.965-2.466-5.616-4.068-1.653-1.6-2.983-3.51-3.99-5.73-1.006-2.22-1.511-4.88-1.511-7.979 0-2.736.529-5.355 1.589-7.861 1.058-2.504 2.646-4.697 4.764-6.582 2.115-1.885 4.764-3.396 7.939-4.532s6.879-1.705 11.114-1.705c1.859 0 3.717.156 5.576.466 1.859.308 3.537.696 5.034 1.16 1.497.466 2.776.968 3.836 1.511 1.058.542 1.859 1.02 2.401 1.433.542.415.901.774 1.084 1.084.181.31.31.658.386 1.046.078.388.156.866.232 1.433.078.569.116 1.265.116 2.091 0 .879-.038 1.64-.116 2.285-.076.647-.205 1.176-.386 1.589-.183.413-.402.71-.658.89-.259.181-.542.272-.852.272-.464 0-1.136-.283-2.015-.852-.877-.569-2.013-1.174-3.407-1.821-1.395-.645-3.035-1.252-4.918-1.821-1.885-.567-4.041-.852-6.469-.852-2.167 0-4.079.248-5.73.736-1.653.491-3.01 1.189-4.068 2.091-1.058.906-1.859 1.977-2.401 3.215s-.812 2.582-.812 4.028c0 2.015.515 3.706 1.549 5.074 1.033 1.368 2.374 2.568 4.028 3.601 1.651 1.033 3.537 1.964 5.654 2.787 2.118.828 4.273 1.68 6.469 2.557 2.193.879 4.362 1.859 6.504 2.943s4.041 2.401 5.694 3.949c1.651 1.551 2.981 3.41 3.987 5.578 1.011 2.164 1.513 4.748 1.513 7.743z"/><path d="m784.64 275.018c0 2.015-.506 3.447-1.517 4.3-1.013.85-2.167 1.276-3.463 1.276h-45.908c0 3.874.388 7.359 1.167 10.456.779 3.099 2.075 5.759 3.891 7.979s4.177 3.925 7.082 5.112 6.46 1.781 10.664 1.781c3.32 0 6.277-.27 8.872-.812s4.84-1.149 6.732-1.821c1.894-.672 3.452-1.279 4.67-1.821 1.221-.542 2.142-.812 2.765-.812.364 0 .687.089.973.27.286.183.504.453.66.814s.272.864.35 1.511c.078.645.118 1.433.118 2.361 0 .672-.027 1.254-.078 1.743-.051.491-.116.93-.194 1.316-.078.388-.208.736-.386 1.047-.183.31-.415.607-.698.89-.283.286-1.122.75-2.517 1.395-1.395.647-3.202 1.279-5.422 1.897-2.22.62-4.789 1.176-7.707 1.667-2.916.489-6.029.736-9.332.736-5.732 0-10.755-.803-15.066-2.403s-7.939-3.974-10.882-7.125c-2.943-3.148-5.163-7.1-6.661-11.851-1.5-4.751-2.247-10.275-2.247-16.574 0-5.991.774-11.373 2.325-16.151 1.549-4.775 3.78-8.829 6.699-12.161 2.916-3.329 6.442-5.886 10.572-7.667s8.754-2.673 13.866-2.673c5.471 0 10.133.879 13.979 2.635s7.011 4.117 9.49 7.087c2.477 2.97 4.298 6.455 5.46 10.456 1.16 4.001 1.743 8.276 1.743 12.819zm-12.857-3.796c.154-6.712-1.341-11.978-4.483-15.8-3.142-3.82-7.805-5.732-13.988-5.732-3.169 0-5.949.596-8.339 1.783s-4.389 2.762-6 4.724c-1.611 1.964-2.858 4.248-3.742 6.855-.884 2.608-1.375 5.333-1.479 8.171h38.031z"/><path d="m864.108 312.893c0 .415-.105.763-.31 1.047-.208.283-.542.529-1.006.736-.466.205-1.111.359-1.937.464-.828.103-1.859.154-3.099.154-1.29 0-2.35-.051-3.175-.154-.826-.105-1.47-.259-1.937-.464-.464-.208-.801-.453-1.006-.736-.208-.283-.31-.632-.31-1.047v-40.818c0-3.976-.31-7.176-.928-9.604-.62-2.428-1.524-4.518-2.711-6.275-1.189-1.754-2.724-3.097-4.61-4.028-1.885-.93-4.066-1.395-6.545-1.395-3.202 0-6.402 1.136-9.604 3.41-3.202 2.272-6.558 5.603-10.07 9.99v48.719c0 .415-.103.763-.308 1.047-.208.283-.542.529-1.009.736-.464.205-1.111.359-1.935.464-.828.103-1.888.154-3.177.154-1.238 0-2.272-.051-3.097-.154-.828-.105-1.486-.259-1.975-.464-.493-.208-.828-.453-1.009-.736s-.27-.632-.27-1.047v-69.71c0-.413.078-.761.232-1.044s.464-.542.93-.774c.464-.232 1.058-.388 1.781-.466.723-.076 1.678-.116 2.865-.116 1.136 0 2.08.04 2.827.116.75.078 1.33.234 1.743.466s.71.491.893.774c.179.283.27.631.27 1.044v9.218c3.923-4.389 7.834-7.602 11.735-9.644 3.898-2.037 7.834-3.059 11.811-3.059 4.648 0 8.559.788 11.735 2.363 3.177 1.575 5.743 3.679 7.707 6.312 1.961 2.633 3.369 5.719 4.222 9.256.852 3.539 1.279 7.785 1.279 12.741v42.524z"/><path d="m945.668 246.361c0 1.807-.245 3.111-.734 3.912-.493.801-1.125 1.2-1.899 1.2h-9.992c1.807 1.859 3.073 3.912 3.796 6.156.723 2.247 1.084 4.583 1.084 7.011 0 4.028-.645 7.589-1.937 10.688-1.29 3.097-3.135 5.719-5.538 7.861-2.401 2.144-5.255 3.784-8.557 4.918-3.305 1.138-6.971 1.705-10.998 1.705-2.841 0-5.538-.375-8.095-1.122-2.555-.747-4.53-1.691-5.924-2.827-.93.928-1.691 1.988-2.285 3.175-.596 1.189-.89 2.555-.89 4.106 0 1.807.837 3.305 2.517 4.492 1.676 1.189 3.912 1.834 6.699 1.937l18.203.774c3.459.105 6.634.58 9.526 1.433s5.395 2.066 7.513 3.639c2.118 1.578 3.769 3.512 4.958 5.81 1.187 2.298 1.781 4.969 1.781 8.017 0 3.2-.672 6.246-2.013 9.14-1.343 2.89-3.396 5.433-6.159 7.629-2.762 2.193-6.288 3.923-10.572 5.188-4.286 1.265-9.347 1.899-15.182 1.899-5.627 0-10.416-.478-14.368-1.433-3.95-.957-7.189-2.26-9.72-3.912-2.53-1.653-4.365-3.628-5.5-5.926-1.136-2.298-1.703-4.788-1.703-7.473 0-1.705.205-3.358.618-4.958.413-1.602 1.047-3.124 1.899-4.57s1.91-2.827 3.175-4.144 2.722-2.62 4.376-3.912c-2.53-1.29-4.402-2.916-5.614-4.88-1.214-1.961-1.821-4.079-1.821-6.35 0-3.151.645-5.964 1.937-8.443 1.29-2.479 2.89-4.697 4.802-6.661-1.602-1.91-2.865-4.068-3.796-6.469s-1.395-5.304-1.395-8.713c0-3.974.672-7.538 2.015-10.688 1.341-3.148 3.2-5.808 5.576-7.977 2.374-2.169 5.228-3.836 8.559-4.996 3.329-1.163 6.957-1.743 10.882-1.743 2.115 0 4.09.116 5.924.348 1.832.232 3.55.556 5.15.968h21.068c.877 0 1.535.426 1.975 1.279.441.85.659 2.156.659 3.912zm-13.553 73.581c0-2.994-1.227-5.306-3.68-6.933-2.452-1.627-5.77-2.49-9.954-2.595l-18.045-.618c-1.653 1.29-3.01 2.517-4.068 3.68-1.058 1.16-1.897 2.272-2.517 3.329-.62 1.058-1.047 2.104-1.279 3.137s-.348 2.091-.348 3.175c0 3.356 1.705 5.9 5.112 7.629s8.158 2.595 14.252 2.595c3.874 0 7.114-.375 9.72-1.122 2.608-.75 4.713-1.743 6.312-2.983 1.6-1.238 2.751-2.66 3.447-4.26.7-1.6 1.048-3.28 1.048-5.034zm-6.428-55.226c0-4.748-1.305-8.455-3.912-11.114-2.608-2.658-6.312-3.99-11.114-3.99-2.479 0-4.637.415-6.469 1.241-1.834.826-3.356 1.964-4.57 3.407-1.214 1.446-2.118 3.113-2.711 4.996-.594 1.885-.89 3.86-.89 5.926 0 4.597 1.303 8.209 3.912 10.842 2.606 2.633 6.261 3.952 10.96 3.952 2.528 0 4.724-.399 6.583-1.2s3.396-1.91 4.61-3.331c1.212-1.419 2.115-3.059 2.709-4.918s.892-3.796.892-5.811z"/><path d="m1020.258 275.018c0 2.015-.507 3.447-1.517 4.3-1.013.85-2.167 1.276-3.463 1.276h-45.908c0 3.874.388 7.359 1.167 10.456.779 3.099 2.075 5.759 3.891 7.979s4.177 3.925 7.082 5.112 6.46 1.781 10.664 1.781c3.32 0 6.277-.27 8.872-.812s4.84-1.149 6.732-1.821c1.894-.672 3.452-1.279 4.67-1.821 1.221-.542 2.142-.812 2.765-.812.364 0 .687.089.973.27.286.183.504.453.66.814s.272.864.35 1.511c.078.645.118 1.433.118 2.361 0 .672-.027 1.254-.078 1.743-.051.491-.116.93-.194 1.316-.078.388-.207.736-.386 1.047-.183.31-.415.607-.698.89-.283.286-1.122.75-2.517 1.395-1.395.647-3.202 1.279-5.422 1.897-2.22.62-4.789 1.176-7.707 1.667-2.916.489-6.029.736-9.332.736-5.732 0-10.755-.803-15.066-2.403s-7.939-3.974-10.882-7.125c-2.943-3.148-5.163-7.1-6.661-11.851-1.5-4.751-2.247-10.275-2.247-16.574 0-5.991.774-11.373 2.325-16.151 1.549-4.775 3.78-8.829 6.699-12.161 2.916-3.329 6.442-5.886 10.572-7.667s8.754-2.673 13.866-2.673c5.471 0 10.133.879 13.979 2.635s7.011 4.117 9.49 7.087c2.477 2.97 4.298 6.455 5.46 10.456 1.16 4.001 1.743 8.276 1.743 12.819zm-12.857-3.796c.154-6.712-1.341-11.978-4.483-15.8-3.142-3.82-7.805-5.732-13.988-5.732-3.169 0-5.949.596-8.339 1.783s-4.389 2.762-6 4.724c-1.611 1.964-2.858 4.248-3.742 6.855-.884 2.608-1.375 5.333-1.479 8.171h38.031z"/><path d="m1080.438 247.753c0 1.138-.025 2.093-.076 2.867-.053.774-.156 1.381-.31 1.819-.156.44-.348.777-.58 1.009-.234.232-.556.348-.968.348-.415 0-.917-.116-1.511-.348-.596-.232-1.267-.466-2.015-.698-.747-.232-1.586-.451-2.517-.658-.928-.205-1.937-.31-3.021-.31-1.29 0-2.555.259-3.796.777-1.238.515-2.544 1.368-3.909 2.555-1.37 1.189-2.803 2.762-4.3 4.724-1.497 1.964-3.151 4.365-4.958 7.205v45.852c0 .415-.103.763-.308 1.047-.208.283-.542.529-1.009.736-.464.205-1.111.359-1.935.464-.828.103-1.888.154-3.177.154-1.238 0-2.271-.051-3.097-.154-.828-.105-1.486-.259-1.975-.464-.493-.208-.828-.453-1.009-.736s-.27-.632-.27-1.047v-69.71c0-.413.078-.761.232-1.044s.464-.542.931-.774c.464-.232 1.058-.388 1.781-.466.723-.076 1.678-.116 2.865-.116 1.136 0 2.08.04 2.827.116.75.078 1.33.234 1.743.466s.71.491.893.774c.178.283.27.631.27 1.044v10.148c1.91-2.789 3.704-5.061 5.384-6.817 1.676-1.754 3.265-3.137 4.762-4.144 1.497-1.006 2.983-1.705 4.454-2.091 1.473-.388 2.957-.582 4.454-.582.672 0 1.432.04 2.285.116.852.078 1.743.221 2.673.426.928.208 1.767.44 2.517.698.747.259 1.279.515 1.586.774.31.259.518.502.62.736.103.232.194.529.272.89.076.361.127.89.154 1.586.024.699.038 1.641.038 2.828z"/><path d="m108.979 312.815c0 .415-.105.776-.319 1.084-.212.31-.585.556-1.118.736-.531.183-1.209.335-2.033.464-.826.129-1.901.194-3.231.194-1.223 0-2.274-.065-3.151-.194s-1.569-.281-2.075-.464c-.507-.181-.864-.426-1.078-.736-.212-.308-.317-.669-.317-1.084v-87.291h-.156l-35.318 87.679c-.156.361-.375.672-.658.93-.286.259-.698.478-1.241.658-.542.179-1.187.308-1.937.386-.748.078-1.638.116-2.671.116-1.084 0-2.015-.051-2.789-.154-.774-.105-1.419-.245-1.937-.426-.515-.181-.917-.399-1.2-.658s-.478-.542-.58-.852l-33.769-87.679h-.078v87.291c0 .415-.107.776-.319 1.084-.214.31-.585.556-1.118.736-.533.183-1.223.335-2.075.464-.85.129-1.939.194-3.269.194-1.276 0-2.341-.065-3.191-.194-.852-.129-1.528-.281-2.035-.464-.507-.181-.85-.426-1.038-.736-.184-.308-.278-.669-.278-1.084v-92.171c0-2.169.578-3.717 1.732-4.648 1.151-.928 2.437-1.392 3.854-1.392h8.18c1.678 0 3.146.154 4.405.464 1.258.31 2.359.801 3.302 1.47.944.672 1.729 1.524 2.359 2.557.629 1.033 1.18 2.247 1.653 3.639l28.657 72.577h.388l29.82-72.343c.576-1.551 1.205-2.867 1.888-3.952.683-1.084 1.43-1.948 2.245-2.595.812-.645 1.716-1.109 2.713-1.392.995-.283 2.151-.426 3.463-.426h8.577c.785 0 1.533.116 2.243.348.707.232 1.312.594 1.81 1.084.498.491.906 1.111 1.221 1.859.315.75.471 1.665.471 2.749v92.172z" stroke="#5b5c5e" stroke-miterlimit="10" stroke-width=".5"/><path d="m193.639 275.018c0 2.015-.507 3.447-1.517 4.3-1.013.85-2.167 1.276-3.463 1.276h-45.908c0 3.874.388 7.359 1.167 10.456.779 3.099 2.075 5.759 3.891 7.979s4.177 3.925 7.082 5.112 6.46 1.781 10.664 1.781c3.32 0 6.277-.27 8.872-.812s4.84-1.149 6.732-1.821c1.894-.672 3.452-1.279 4.67-1.821 1.221-.542 2.142-.812 2.765-.812.364 0 .687.089.973.27.286.183.504.453.66.814s.272.864.35 1.511c.078.645.118 1.433.118 2.361 0 .672-.027 1.254-.078 1.743-.051.491-.116.93-.194 1.316-.078.388-.208.736-.386 1.047-.183.31-.415.607-.698.89-.283.286-1.122.75-2.517 1.395-1.395.647-3.202 1.279-5.422 1.897-2.22.62-4.788 1.176-7.707 1.667-2.916.489-6.029.736-9.332.736-5.732 0-10.755-.803-15.066-2.403s-7.939-3.974-10.882-7.125c-2.943-3.148-5.163-7.1-6.661-11.851-1.499-4.751-2.247-10.275-2.247-16.574 0-5.991.774-11.373 2.325-16.151 1.549-4.775 3.78-8.829 6.699-12.161 2.916-3.329 6.442-5.886 10.572-7.667s8.754-2.673 13.866-2.673c5.471 0 10.133.879 13.979 2.635 3.847 1.756 7.011 4.117 9.49 7.087 2.477 2.97 4.298 6.455 5.46 10.456 1.16 4.001 1.743 8.276 1.743 12.819zm-12.857-3.796c.154-6.712-1.341-11.978-4.483-15.8-3.142-3.82-7.805-5.732-13.988-5.732-3.169 0-5.949.596-8.339 1.783s-4.389 2.762-6 4.724c-1.611 1.964-2.858 4.248-3.742 6.855-.884 2.608-1.375 5.333-1.479 8.171h38.031z" stroke="#5b5c5e" stroke-miterlimit="10" stroke-width=".5"/><path d="m273.107 312.893c0 .415-.105.763-.31 1.047-.208.283-.542.529-1.006.736-.466.205-1.111.359-1.937.464-.828.103-1.859.154-3.099.154-1.29 0-2.35-.051-3.175-.154-.826-.105-1.47-.259-1.937-.464-.464-.208-.801-.453-1.006-.736-.208-.283-.31-.632-.31-1.047v-40.818c0-3.976-.31-7.176-.928-9.604-.62-2.428-1.524-4.518-2.711-6.275-1.189-1.754-2.724-3.097-4.61-4.028-1.885-.93-4.066-1.395-6.545-1.395-3.202 0-6.402 1.136-9.604 3.41-3.202 2.272-6.558 5.603-10.07 9.99v48.719c0 .415-.103.763-.308 1.047-.208.283-.542.529-1.009.736-.464.205-1.111.359-1.935.464-.828.103-1.888.154-3.177.154-1.238 0-2.272-.051-3.097-.154-.828-.105-1.486-.259-1.975-.464-.493-.208-.828-.453-1.009-.736s-.27-.632-.27-1.047v-69.71c0-.413.078-.761.232-1.044s.464-.542.93-.774c.464-.232 1.058-.388 1.781-.466.723-.076 1.678-.116 2.865-.116 1.136 0 2.08.04 2.827.116.75.078 1.33.234 1.743.466s.71.491.893.774c.179.283.27.631.27 1.044v9.218c3.923-4.389 7.834-7.602 11.735-9.644 3.898-2.037 7.834-3.059 11.811-3.059 4.648 0 8.559.788 11.735 2.363 3.177 1.575 5.743 3.679 7.707 6.312 1.961 2.633 3.369 5.719 4.222 9.256.852 3.539 1.279 7.785 1.279 12.741v42.524z" stroke="#5b5c5e" stroke-miterlimit="10" stroke-width=".5"/><path d="m348.935 312.971c0 .62-.207 1.084-.62 1.395-.415.31-.982.542-1.705.696-.723.156-1.781.232-3.175.232-1.343 0-2.414-.076-3.213-.232-.801-.154-1.383-.386-1.743-.696-.364-.31-.542-.774-.542-1.395v-6.971c-3.048 3.253-6.442 5.784-10.186 7.591-3.744 1.805-7.707 2.711-11.889 2.711-3.668 0-6.984-.48-9.954-1.435s-5.498-2.334-7.591-4.144c-2.091-1.807-3.717-4.028-4.878-6.661-1.163-2.633-1.743-5.627-1.743-8.986 0-3.923.799-7.33 2.401-10.224 1.6-2.89 3.898-5.291 6.893-7.203 2.995-1.91 6.661-3.343 10.998-4.298 4.338-.955 9.218-1.433 14.64-1.433h9.604v-5.422c0-2.684-.286-5.061-.852-7.127-.569-2.064-1.484-3.782-2.749-5.15-1.267-1.368-2.905-2.401-4.918-3.099-2.015-.696-4.494-1.044-7.437-1.044-3.151 0-5.978.375-8.481 1.122-2.504.75-4.699 1.575-6.582 2.479-1.885.904-3.461 1.729-4.726 2.479-1.265.747-2.207 1.122-2.827 1.122-.413 0-.774-.103-1.084-.31-.308-.205-.58-.515-.812-.928s-.402-.942-.504-1.589c-.103-.645-.154-1.354-.154-2.131 0-1.29.089-2.309.27-3.059.181-.747.62-1.457 1.316-2.129.698-.672 1.899-1.459 3.604-2.363 1.703-.904 3.664-1.729 5.886-2.479 2.218-.748 4.646-1.368 7.281-1.859 2.633-.491 5.291-.736 7.977-.736 5.007 0 9.267.569 12.779 1.705s6.353 2.803 8.522 4.996c2.169 2.196 3.742 4.918 4.724 8.171.98 3.253 1.473 7.049 1.473 11.387v47.017zm-12.703-31.835h-10.92c-3.512 0-6.56.299-9.142.89-2.582.596-4.724 1.473-6.429 2.635-1.703 1.16-2.957 2.555-3.755 4.182-.801 1.627-1.2 3.499-1.2 5.616 0 3.615 1.149 6.493 3.447 8.635 2.296 2.144 5.509 3.215 9.642 3.215 3.356 0 6.469-.852 9.334-2.557 2.865-1.703 5.873-4.311 9.024-7.823v-14.793z" stroke="#5b5c5e" stroke-miterlimit="10" stroke-width=".5"/></g><path d="m485.402 144.733c-19.636-.636-35.567-14.54-37.362-32.229h-23.471c.608 30.798 25.768 55.59 56.773 55.59h4.06z" fill="#4480c2"/><path d="m592.315 144.793h-106.428c-.448 0-.883-.043-1.328-.056v23.356h107.756z" fill="#4480c2"/><path d="m621.94 58.253c.004.224.037.442.037.667v85.874h-32.637v23.3h55.98v-109.841z" fill="#4480c2"/><path d="m424.54 112.504h.028c-.008-.379-.057-.747-.057-1.129.001.378.022.752.029 1.129z" fill="#4480c2"/><path d="m447.856 57.916c0-.235.032-.462.037-.696h-23.381v55.174c0 .396.05.778.057 1.172h23.471c-.111-1.14-.184-2.29-.184-3.458z" fill="#4480c2"/><path d="m588.1 0h-102.719v23.315c.109-.001.214-.015.323-.015h96.907c21.404 0 38.772 15.592 39.168 34.952h23.541v-1.534c0-31.324-25.618-56.718-57.22-56.718z" fill="#4480c2"/><path d="m486.359 0h-5.018c-31.386 0-56.83 25.394-56.83 56.718v1.417h23.387c.458-19.173 17.447-34.603 38.46-34.815v-23.32z" fill="#4480c2"/><path d="m485.402 144.733c-19.636-.636-35.567-14.54-37.362-32.229h-23.471c.608 30.798 25.768 55.59 56.773 55.59h4.06z" fill="#4480c2"/><path d="m592.315 144.793h-106.428c-.448 0-.883-.043-1.328-.056v23.356h107.756z" fill="#4480c2"/><path d="m621.94 58.253c.004.224.037.442.037.667v85.874h-32.637v23.3h55.98v-109.841z" fill="#e52e25"/><path d="m424.54 112.504h.028c-.008-.379-.057-.747-.057-1.129.001.378.022.752.029 1.129z" fill="#4480c2"/><path d="m447.856 57.916c0-.235.032-.462.037-.696h-23.381v55.174c0 .396.05.778.057 1.172h23.471c-.111-1.14-.184-2.29-.184-3.458z" fill="#4480c2"/><path d="m588.491 0h-102.018v23.315c.108-.001.212-.015.32-.015h96.245c21.258 0 38.508 15.592 38.901 34.952h23.381v-1.534c0-31.324-25.443-56.718-56.829-56.718z" fill="#f89820"/><path d="m486.359 0h-5.018c-31.386 0-56.83 25.394-56.83 56.718v1.417h23.387c.458-19.173 17.447-34.603 38.46-34.815v-23.32z" fill="#33a852"/></svg>