<svg enable-background="new 0 0 124.128 500" viewBox="0 0 124.128 500" xmlns="http://www.w3.org/2000/svg"><g fill="#fff"><path d="m124.12 62.12.01.93c.02 18.4-5.76 33.87-16.55 44.6-10.77 10.75-26.27 16.48-44.68 16.46h-.88l-1.13.01c-18.31.02-33.73-5.74-44.45-16.5-10.72-10.75-16.46-26.21-16.44-44.58l.01-.92v-.11l-.01-.91c-.02-18.4 5.76-33.88 16.56-44.62 10.79-10.76 26.3-16.5 44.73-16.48h1.55c18.43-.02 33.94 5.7 44.73 16.45 10.8 10.73 16.58 26.2 16.56 44.62l-.01.94z"/><path d="m124.12 436.67.01.93c.02 18.4-5.74 33.87-16.51 44.61-10.76 10.76-26.23 16.5-44.61 16.48l-.89-.01-.06-4.64-.04 4.64-.94.01c-18.37.02-33.83-5.73-44.58-16.49-10.76-10.75-16.52-26.22-16.5-44.6l.01-.92 4.63-.05-4.63-.06-.01-.91c-.02-18.38 5.73-33.85 16.49-44.6 10.73-10.76 26.19-16.52 44.55-16.5l.97.01.05 4.63.07-4.63.83-.01c18.4-.02 33.88 5.74 44.65 16.51 10.77 10.75 16.54 26.22 16.52 44.59l-.01.92-4.63.05z"/><path d="m.01 436.57 4.63.06-4.63.05z"/><path d="m62.06 494.04.06 4.64h-.1z"/><path d="m62.13 374.57-.07 4.63-.05-4.63z"/><path d="m124.12 436.58v.09l-4.63-.04z"/><path d="m124.12 249.39.01.94c.02 18.45-5.78 33.92-16.6 44.65-10.81 10.74-26.35 16.44-44.79 16.42h-1.66c-18.37.02-33.83-5.75-44.58-16.51-10.76-10.76-16.52-26.22-16.5-44.56l.01-.93v-.11l-.01-.89c-.02-18.39 5.75-33.87 16.54-44.62 10.77-10.77 26.26-16.52 44.67-16.5l.8.01h.11l.93-.01c18.37-.02 33.84 5.74 44.58 16.51 10.76 10.75 16.52 26.22 16.5 44.59l-.01.92z"/></g></svg>