<svg enable-background="new 0 0 500 500" viewBox="0 0 500 500" xmlns="http://www.w3.org/2000/svg"><g fill="#4273b8"><path d="m250.005.005c-137.86 0-250.01 112.15-250.01 250s112.15 249.99 250.01 249.99c137.85 0 250-112.14 250-249.99s-112.15-250-250-250zm0 465.01c-118.57 0-215.03-96.45-215.03-215.01s96.46-215.02 215.03-215.02c118.56 0 215.01 96.46 215.01 215.02s-96.45 215.01-215.01 215.01z"/><path d="m403.205 250.005c0 12.09-9.8 21.89-21.89 21.89h-109.42v109.43c0 6.04-2.45 11.52-6.42 15.48-3.96 3.96-9.44 6.41-15.48 6.41-12.09 0-21.89-9.8-21.89-21.89v-109.43h-109.43c-12.09 0-21.89-9.8-21.89-21.89s9.8-21.9 21.89-21.9h109.43v-109.42c0-12.09 9.8-21.89 21.89-21.89s21.9 9.8 21.9 21.89v109.42h109.42c6.04 0 11.52 2.45 15.48 6.42 3.96 3.96 6.41 9.44 6.41 15.48z"/></g></svg>