<svg viewBox="0 0 500 252.957" xmlns="http://www.w3.org/2000/svg" xmlns:xlink="http://www.w3.org/1999/xlink" id="Layer_1" xml:space="preserve" overflow="hidden"><g><g><path d="M396.894 133.951 396.79 133.951C396.685 133.47 396.58 133.043 396.528 132.562 396.632 133.043 396.737 133.524 396.894 133.951Z" stroke="#0077FF" stroke-width="0.999563" fill="#0077FF"/><path d="M476.398 133.951 476.294 133.951C476.294 131.439 476.346 128.927 476.346 126.416 476.346 128.928 476.346 131.44 476.398 133.951Z" stroke="#0077FF" stroke-width="0.999563" fill="#0077FF"/></g><g><path d="M338.91 23.11C323.5 7.38 300.72 0 279.13 0 247.69 0.19 190.95 0.21 158.89 0.22L79.56 0.22C36.04 0.22 0.63 32.81 0.63 72.87L0.63 181.05C0.38 185.38-0.67 212.09 20.04 233.16 43.54 257.07 75.04 253.35 78.53 252.87L84.57 252.87 84.57 252.89 272.04 252.96C327.56 252.96 359.94 212.68 359.94 163.18L359.94 76.89C358.86 56.54 353.12 37.44 338.91 23.11ZM329.17 78.93 329.07 168.4C329.07 199.25 304.49 224.36 274.27 224.36L87.12 224.48 73.69 224.48C50.5 224.48 31.71 205.29 31.71 181.61L31.71 74.61C31.71 49.2 51.88 28.61 76.76 28.61L274.63 28.61C302.92 28.61 329.12 40.9 329.17 78.15L329.17 78.93Z" stroke="#0077FF" stroke-width="0.999563" fill="#0077FF"/><path d="M359.99 77.9 359.94 77.9 359.94 76.93C359.96 77.25 359.98 77.58 359.99 77.9Z" stroke="#0077FF" stroke-width="0.999563" fill="#0077FF"/></g><g><path d="M496.13 65.546 495.973 65.439C493.513 63.195 490.111 61.912 486.447 61.912 483.934 61.912 481.527 62.553 479.486 63.622L414.585 97.504C408.671 100.604 403.96 104.932 400.558 110.384 398.883 113.163 397.627 116.049 396.894 118.935 396.737 119.416 396.632 119.844 396.528 120.271 396.109 122.248 395.848 124.333 395.848 126.417 395.848 128.501 396.057 130.532 396.528 132.563 396.632 133.044 396.737 133.525 396.894 133.952 397.627 136.892 398.883 139.724 400.558 142.503 403.96 147.901 408.671 152.229 414.585 155.329L479.486 189.211C481.527 190.333 483.935 190.921 486.447 190.921 490.111 190.921 493.513 189.692 495.973 187.394L496.13 187.287C498.695 185.096 499.951 182.37 499.951 179.003L499.951 73.829C499.951 70.462 498.695 67.79 496.13 65.546ZM476.398 133.951C476.398 137.532 476.45 141.166 476.45 144.8 476.555 148.274 476.712 151.213 476.764 153.297 476.974 158.695 476.974 160.351 475.979 160.993 475.037 161.634 473.676 161.046 469.855 159.069 467.343 157.786 464.255 156.13 460.696 154.152L428.612 135.34C426.885 134.164 425.576 132.614 424.739 130.904 424.477 130.316 424.163 129.675 424.006 129.034 424.006 128.981 424.006 128.981 424.006 128.927 423.901 128.5 423.796 128.126 423.796 127.698 423.692 127.27 423.692 126.843 423.692 126.415 423.692 125.987 423.692 125.56 423.796 125.132 423.796 124.704 423.901 124.33 424.006 123.903 424.686 121.391 426.309 119.093 428.612 117.543L460.696 98.732C464.255 96.701 467.343 95.044 469.855 93.762 473.676 91.785 475.037 91.197 475.979 91.838 476.973 92.48 476.973 94.136 476.764 99.534 476.712 101.618 476.555 104.558 476.45 108.031 476.45 111.665 476.398 115.299 476.398 118.933 476.346 121.445 476.346 123.903 476.346 126.415 476.346 128.928 476.346 131.44 476.398 133.951Z" stroke="#0077FF" stroke-width="0.999563" fill="#0077FF"/><path d="M396.894 118.934C396.737 119.415 396.632 119.843 396.528 120.27 396.58 119.843 396.685 119.362 396.79 118.934L396.894 118.934Z" stroke="#0077FF" stroke-width="0.999563" fill="#0077FF"/><path d="M476.398 118.934C476.346 121.446 476.346 123.904 476.346 126.416 476.346 123.904 476.294 121.446 476.294 118.934L476.398 118.934Z" stroke="#0077FF" stroke-width="0.999563" fill="#0077FF"/></g></g></svg>