<svg width="28" height="28" viewBox="0 0 28 28" fill="none" xmlns="http://www.w3.org/2000/svg">
<g id="videocam_add_outline_28 1">
<path id="Vector" fill-rule="evenodd" clip-rule="evenodd" d="M9.357 5H13.643C14.727 5 15.601 5 16.309 5.058C17.038 5.118 17.678 5.243 18.27 5.545C19.2108 6.02436 19.9756 6.78923 20.455 7.73C20.686 8.184 20.815 8.666 20.888 9.194L21.325 8.91L22.228 8.325C22.467 8.17 22.748 7.987 23.001 7.854C23.256 7.72 23.795 7.459 24.483 7.506C24.8697 7.53214 25.2463 7.64124 25.5871 7.82587C25.9278 8.0105 26.2249 8.26634 26.458 8.576C26.873 9.128 26.948 9.724 26.974 10.01C27 10.295 27 10.63 27 10.914V17.086C27 17.37 27 17.705 26.974 17.99C26.948 18.276 26.874 18.872 26.458 19.424C26.2249 19.7337 25.9278 19.9895 25.5871 20.1741C25.2463 20.3588 24.8697 20.4679 24.483 20.494C23.795 20.541 23.256 20.28 23.001 20.146C22.7366 20.0006 22.4787 19.8438 22.228 19.676L21.323 19.088L20.888 18.806C20.814 19.334 20.686 19.816 20.455 20.27C19.9756 21.2108 19.2108 21.9756 18.27 22.455C17.678 22.757 17.038 22.883 16.309 22.942C15.6 23 14.727 23 13.643 23H9.357C8.273 23 7.399 23 6.691 22.942C5.963 22.882 5.322 22.757 4.731 22.455C3.78986 21.9758 3.02462 21.2109 2.545 20.27C2.243 19.678 2.117 19.038 2.058 18.309C2 17.6 2 16.727 2 15.643V12.357C2 11.273 2 10.399 2.058 9.691C2.118 8.963 2.243 8.322 2.545 7.73C3.02436 6.78923 3.78923 6.02436 4.73 5.545C5.322 5.243 5.963 5.117 6.691 5.058C7.4 5 8.273 5 9.357 5ZM21 15.643V11.505L23.27 10.033C23.833 9.668 24.114 9.485 24.347 9.501C24.4474 9.50759 24.5452 9.53575 24.6337 9.58355C24.7222 9.63135 24.7994 9.69767 24.86 9.778C25 9.965 25 10.3 25 10.97V17.03C25 17.7 25 18.035 24.86 18.222C24.7994 18.3023 24.7222 18.3686 24.6337 18.4164C24.5452 18.4642 24.4474 18.4924 24.347 18.499C24.114 18.515 23.833 18.332 23.27 17.967L21 16.495V15.643ZM6.854 7.05C6.249 7.1 5.901 7.192 5.638 7.326C5.07354 7.61362 4.61462 8.07254 4.327 8.637C4.193 8.9 4.101 9.248 4.051 9.853C4.001 10.47 4 11.263 4 12.399V15.599C4 16.736 4 17.528 4.051 18.145C4.101 18.75 4.193 19.098 4.327 19.361C4.61462 19.9255 5.07354 20.3844 5.638 20.672C5.901 20.806 6.249 20.898 6.854 20.948C7.471 20.998 8.264 20.999 9.4 20.999H13.6C14.737 20.999 15.529 20.999 16.146 20.948C16.751 20.898 17.099 20.806 17.362 20.672C17.9265 20.3844 18.3854 19.9255 18.673 19.361C18.807 19.098 18.899 18.75 18.949 18.145C18.999 17.528 19 16.735 19 15.599V12.399C19 11.262 19 10.47 18.949 9.853C18.899 9.248 18.807 8.9 18.673 8.637C18.3854 8.07254 17.9265 7.61362 17.362 7.326C17.099 7.192 16.751 7.1 16.146 7.05C15.529 7.001 14.736 7 13.6 7H9.4C8.263 7 7.471 6.999 6.854 7.05Z" fill="#2788E8"/>
<path id="Vector_2" d="M12.493 10.883C12.4629 10.6299 12.3373 10.3978 12.1418 10.2343C11.9464 10.0707 11.6958 9.98788 11.4414 10.0028C11.187 10.0178 10.9478 10.1293 10.7728 10.3146C10.5979 10.5 10.5003 10.7451 10.5 11V13H8.5L8.383 13.007C8.13975 13.0356 7.91547 13.1526 7.75272 13.3356C7.58996 13.5187 7.50003 13.7551 7.5 14L7.507 14.117C7.53566 14.3602 7.65259 14.5845 7.83563 14.7473C8.01866 14.91 8.25507 15 8.5 15H10.5V17L10.507 17.117C10.5371 17.3701 10.6627 17.6021 10.8582 17.7657C11.0536 17.9293 11.3042 18.0121 11.5586 17.9972C11.813 17.9822 12.0522 17.8707 12.2272 17.6854C12.4021 17.5 12.4997 17.2549 12.5 17V15H14.5L14.617 14.993C14.8603 14.9643 15.0845 14.8474 15.2473 14.6644C15.41 14.4813 15.5 14.2449 15.5 14L15.493 13.883C15.4643 13.6397 15.3474 13.4155 15.1644 13.2527C14.9813 13.0899 14.7449 13 14.5 13H12.5V11L12.493 10.883Z" fill="#2788E8"/>
</g>
</svg>
