<svg viewBox="0 0 124.128 500" xmlns="http://www.w3.org/2000/svg" xmlns:xlink="http://www.w3.org/1999/xlink" id="Layer_1" xml:space="preserve" overflow="hidden"><g><path d="M124.12 62.12 124.13 63.05C124.15 81.45 118.37 96.92 107.58 107.65 96.81 118.4 81.31 124.13 62.9 124.11L62.02 124.11 60.89 124.12C42.58 124.14 27.16 118.38 16.44 107.62 5.72 96.87-0.02 81.41 0 63.04L0.01 62.12 0.01 62.01 0 61.1C-0.02 42.7 5.76 27.22 16.56 16.48 27.35 5.72 42.86-0.02 61.29 0L62.84 0C81.27-0.02 96.78 5.7 107.57 16.45 118.37 27.18 124.15 42.65 124.13 61.07L124.12 62.01 124.12 62.12Z" fill="#4273B8"/><path d="M124.12 436.67 124.13 437.6C124.15 456 118.39 471.47 107.62 482.21 96.86 492.97 81.39 498.71 63.01 498.69L62.12 498.68 62.06 494.04 62.02 498.68 61.08 498.69C42.71 498.71 27.25 492.96 16.5 482.2 5.74 471.45-0.02 455.98 0 437.6L0.01 436.68 4.64 436.63 0.01 436.57 0 435.66C-0.02 417.28 5.73 401.81 16.49 391.06 27.22 380.3 42.68 374.54 61.04 374.56L62.01 374.57 62.06 379.2 62.13 374.57 62.96 374.56C81.36 374.54 96.84 380.3 107.61 391.07 118.38 401.82 124.15 417.29 124.13 435.66L124.12 436.58 119.49 436.63 124.12 436.67Z" fill="#4273B8"/><path d="M0.01 436.57 4.64 436.63 0.01 436.68Z" fill="#4273B8"/><path d="M62.06 494.04 62.12 498.68 62.02 498.68Z" fill="#4273B8"/><path d="M62.13 374.57 62.06 379.2 62.01 374.57Z" fill="#4273B8"/><path d="M124.12 436.58 124.12 436.67 119.49 436.63Z" fill="#4273B8"/><path d="M124.12 249.39 124.13 250.33C124.15 268.78 118.35 284.25 107.53 294.98 96.72 305.72 81.18 311.42 62.74 311.4L61.08 311.4C42.71 311.42 27.25 305.65 16.5 294.89 5.74 284.13-0.02 268.67 0 250.33L0.01 249.4 0.01 249.29 0 248.4C-0.02 230.01 5.75 214.53 16.54 203.78 27.31 193.01 42.8 187.26 61.21 187.28L62.01 187.29 62.12 187.29 63.05 187.28C81.42 187.26 96.89 193.02 107.63 203.79 118.39 214.54 124.15 230.01 124.13 248.38L124.12 249.3 124.12 249.39Z" fill="#4273B8"/></g></svg>