<svg width="30" height="30" viewBox="0 0 30 30" fill="none" xmlns="http://www.w3.org/2000/svg">
<g id="list_outline_28 1" clip-path="url(#clip0_196_146)">
<g id="Page-1">
<g id="list_outline_28">
<path id="&#226;&#134;&#179;-Icon-Color" d="M4.82141 15C4.82141 15.8893 5.53927 16.6072 6.42855 16.6072C7.31784 16.6072 8.0357 15.8893 8.0357 15C8.0357 14.1107 7.31784 13.3929 6.42855 13.3929C5.53927 13.3929 4.82141 14.1107 4.82141 15ZM4.82141 8.57144C4.82141 9.46072 5.53927 10.1786 6.42855 10.1786C7.31784 10.1786 8.0357 9.46072 8.0357 8.57144C8.0357 7.68215 7.31784 6.96429 6.42855 6.96429C5.53927 6.96429 4.82141 7.68215 4.82141 8.57144ZM4.82141 21.4286C4.82141 22.3107 5.54644 23.0357 6.42855 23.0357C7.31067 23.0357 8.0357 22.3107 8.0357 21.4286C8.0357 20.5465 7.32275 19.8214 6.42855 19.8214C5.53435 19.8214 4.82141 20.5465 4.82141 21.4286ZM26.7857 21.4286C26.7857 20.8368 26.306 20.3572 25.7143 20.3572H10.7143C10.1225 20.3572 9.64284 20.8368 9.64284 21.4286C9.64284 22.0203 10.1225 22.5 10.7143 22.5H25.7143C26.306 22.5 26.7857 22.0203 26.7857 21.4286ZM26.7857 15C26.7857 14.4083 26.306 13.9286 25.7143 13.9286H10.7143C10.1225 13.9286 9.64284 14.4083 9.64284 15C9.64284 15.5917 10.1225 16.0714 10.7143 16.0714H25.7143C26.306 16.0714 26.7857 15.5917 26.7857 15ZM10.7143 9.64287H25.7143C26.306 9.64287 26.7857 9.16317 26.7857 8.57144C26.7857 7.9797 26.306 7.50001 25.7143 7.50001H10.7143C10.1225 7.50001 9.64284 7.9797 9.64284 8.57144C9.64284 9.16317 10.1225 9.64287 10.7143 9.64287Z" fill="#2788E8"/>
</g>
</g>
</g>
<defs>
<clipPath id="clip0_196_146">
<rect width="30" height="30" fill="white"/>
</clipPath>
</defs>
</svg>
