<svg viewBox="0 0 1080 150.763" xmlns="http://www.w3.org/2000/svg" xmlns:xlink="http://www.w3.org/1999/xlink" id="Layer_1" xml:space="preserve" overflow="hidden"><g><g><g><g><g><path d="M616.011 126.384C616.011 126.71 615.927 126.995 615.759 127.239 615.591 127.483 615.298 127.677 614.878 127.819 614.458 127.962 613.923 128.084 613.274 128.186 612.624 128.287 611.774 128.339 610.726 128.339 609.76 128.339 608.932 128.287 608.24 128.186 607.549 128.084 607.003 127.962 606.604 127.819 606.205 127.677 605.922 127.483 605.754 127.239 605.586 126.994 605.503 126.71 605.503 126.384L605.503 57.531 605.381 57.531 577.522 126.69C577.4 126.976 577.226 127.22 577.002 127.423 576.778 127.627 576.452 127.8 576.024 127.942 575.596 128.085 575.086 128.187 574.497 128.248 573.906 128.309 573.204 128.34 572.39 128.34 571.535 128.34 570.801 128.299 570.191 128.217 569.58 128.135 569.07 128.024 568.664 127.881 568.256 127.739 567.94 127.566 567.717 127.362 567.492 127.158 567.34 126.934 567.259 126.69L540.622 57.531 540.561 57.531 540.561 126.385C540.561 126.711 540.477 126.996 540.309 127.24 540.141 127.484 539.848 127.678 539.428 127.82 539.008 127.963 538.463 128.085 537.792 128.187 537.121 128.288 536.261 128.34 535.213 128.34 534.206 128.34 533.367 128.288 532.695 128.187 532.024 128.085 531.489 127.963 531.091 127.82 530.692 127.678 530.42 127.484 530.273 127.24 530.126 126.995 530.054 126.711 530.054 126.385L530.054 53.682C530.054 51.971 530.508 50.749 531.418 50.016 532.328 49.283 533.341 48.916 534.458 48.916L540.91 48.916C542.233 48.916 543.391 49.039 544.384 49.283 545.376 49.527 546.244 49.915 546.988 50.444 547.733 50.974 548.353 51.646 548.85 52.46 549.346 53.275 549.781 54.232 550.153 55.332L572.757 112.577 573.063 112.577 596.584 55.515C597.038 54.293 597.534 53.255 598.073 52.399 598.611 51.544 599.201 50.862 599.843 50.353 600.485 49.844 601.197 49.478 601.985 49.253 602.77 49.03 603.681 48.917 604.715 48.917L611.481 48.917C612.101 48.917 612.691 49.009 613.25 49.192 613.809 49.376 614.285 49.661 614.679 50.047 615.072 50.435 615.393 50.923 615.641 51.513 615.889 52.104 616.013 52.826 616.013 53.682L616.013 126.384Z" fill="#5B5C5E"/><path d="M682.787 96.57C682.787 98.158 682.389 99.289 681.591 99.961 680.792 100.633 679.883 100.969 678.86 100.969L642.649 100.969C642.649 104.024 642.956 106.773 643.569 109.217 644.183 111.661 645.207 113.759 646.639 115.509 648.071 117.261 649.933 118.605 652.225 119.541 654.517 120.479 657.321 120.946 660.636 120.946 663.255 120.946 665.588 120.732 667.634 120.304 669.681 119.876 671.45 119.398 672.945 118.868 674.439 118.339 675.667 117.86 676.629 117.432 677.592 117.004 678.318 116.79 678.81 116.79 679.096 116.79 679.351 116.861 679.577 117.004 679.803 117.147 679.976 117.361 680.099 117.646 680.221 117.931 680.314 118.328 680.374 118.837 680.436 119.347 680.467 119.967 680.467 120.701 680.467 121.231 680.446 121.689 680.405 122.076 680.364 122.464 680.314 122.809 680.253 123.115 680.191 123.42 680.09 123.696 679.947 123.94 679.804 124.184 679.621 124.419 679.397 124.643 679.172 124.867 678.511 125.234 677.412 125.743 676.312 126.253 674.886 126.751 673.136 127.24 671.384 127.729 669.358 128.166 667.057 128.553 664.755 128.939 662.301 129.133 659.695 129.133 655.174 129.133 651.213 128.501 647.812 127.239 644.412 125.977 641.55 124.103 639.229 121.618 636.907 119.134 635.156 116.018 633.974 112.271 632.792 108.524 632.203 104.167 632.203 99.197 632.203 94.473 632.814 90.227 634.036 86.459 635.258 82.692 637.019 79.494 639.32 76.867 641.621 74.24 644.401 72.224 647.66 70.819 650.918 69.414 654.563 68.712 658.596 68.712 662.913 68.712 666.589 69.405 669.623 70.789 672.657 72.174 675.152 74.038 677.107 76.379 679.062 78.722 680.498 81.471 681.415 84.627 682.331 87.784 682.789 91.154 682.789 94.738L682.789 96.57ZM672.646 93.577C672.768 88.283 671.589 84.128 669.112 81.114 666.633 78.1 662.955 76.593 658.078 76.593 655.578 76.593 653.386 77.062 651.501 77.998 649.616 78.936 648.038 80.177 646.768 81.725 645.497 83.273 644.514 85.076 643.817 87.132 643.121 89.189 642.732 91.338 642.65 93.577L672.646 93.577Z" fill="#5B5C5E"/><path d="M732.641 111.477C732.641 114.288 732.121 116.792 731.082 118.992 730.044 121.192 728.566 123.045 726.653 124.552 724.738 126.059 722.457 127.2 719.81 127.973 717.162 128.746 714.25 129.134 711.074 129.134 709.119 129.134 707.256 128.981 705.483 128.676 703.712 128.37 702.123 127.983 700.718 127.515 699.313 127.047 698.121 126.558 697.144 126.049 696.166 125.54 695.454 125.082 695.005 124.674 694.557 124.268 694.231 123.697 694.027 122.964 693.823 122.231 693.721 121.234 693.721 119.97 693.721 119.197 693.761 118.545 693.844 118.015 693.925 117.486 694.027 117.058 694.149 116.732 694.271 116.406 694.444 116.172 694.669 116.029 694.893 115.887 695.148 115.815 695.433 115.815 695.881 115.815 696.542 116.09 697.418 116.64 698.294 117.19 699.373 117.791 700.656 118.442 701.939 119.094 703.456 119.694 705.208 120.244 706.959 120.794 708.975 121.069 711.256 121.069 712.967 121.069 714.515 120.886 715.9 120.519 717.284 120.152 718.486 119.613 719.504 118.9 720.522 118.188 721.307 117.281 721.857 116.181 722.407 115.081 722.681 113.778 722.681 112.271 722.681 110.724 722.284 109.42 721.49 108.361 720.696 107.302 719.647 106.366 718.344 105.551 717.04 104.737 715.574 104.014 713.946 103.382 712.316 102.751 710.636 102.09 708.906 101.396 707.175 100.704 705.484 99.92 703.835 99.044 702.186 98.169 700.709 97.1 699.406 95.836 698.101 94.574 697.053 93.067 696.26 91.315 695.465 89.565 695.069 87.466 695.069 85.023 695.069 82.865 695.486 80.798 696.321 78.822 697.156 76.847 698.408 75.116 700.079 73.629 701.748 72.143 703.836 70.951 706.341 70.055 708.846 69.159 711.768 68.711 715.109 68.711 716.575 68.711 718.042 68.833 719.507 69.077 720.973 69.322 722.296 69.627 723.478 69.994 724.66 70.361 725.667 70.758 726.502 71.185 727.337 71.612 727.969 71.99 728.397 72.315 728.824 72.641 729.109 72.926 729.251 73.17 729.394 73.415 729.496 73.69 729.557 73.995 729.619 74.301 729.679 74.678 729.741 75.125 729.802 75.574 729.833 76.124 729.833 76.775 729.833 77.468 729.802 78.068 729.741 78.577 729.679 79.087 729.578 79.504 729.435 79.829 729.291 80.155 729.12 80.389 728.915 80.531 728.711 80.675 728.487 80.745 728.243 80.745 727.877 80.745 727.347 80.522 726.655 80.073 725.962 79.625 725.066 79.147 723.967 78.637 722.867 78.128 721.573 77.65 720.087 77.201 718.6 76.753 716.899 76.529 714.985 76.529 713.275 76.529 711.767 76.723 710.464 77.11 709.16 77.497 708.091 78.047 707.257 78.759 706.421 79.472 705.79 80.317 705.362 81.294 704.934 82.272 704.72 83.331 704.72 84.471 704.72 86.059 705.127 87.394 705.943 88.472 706.756 89.552 707.815 90.499 709.12 91.313 710.423 92.128 711.909 92.861 713.58 93.513 715.249 94.165 716.949 94.837 718.681 95.529 720.412 96.222 722.122 96.995 723.813 97.85 725.503 98.705 727 99.744 728.304 100.966 729.607 102.188 730.656 103.654 731.45 105.365 732.243 107.079 732.641 109.116 732.641 111.477Z" fill="#5B5C5E"/><path d="M781.577 111.477C781.577 114.288 781.057 116.792 780.018 118.992 778.98 121.192 777.502 123.045 775.589 124.552 773.674 126.059 771.393 127.2 768.746 127.973 766.098 128.746 763.186 129.134 760.01 129.134 758.055 129.134 756.192 128.981 754.419 128.676 752.648 128.37 751.059 127.983 749.654 127.515 748.249 127.047 747.057 126.558 746.08 126.049 745.102 125.54 744.39 125.082 743.941 124.674 743.493 124.268 743.167 123.697 742.963 122.964 742.759 122.231 742.657 121.234 742.657 119.97 742.657 119.197 742.697 118.545 742.78 118.015 742.861 117.486 742.963 117.058 743.085 116.732 743.207 116.406 743.38 116.172 743.605 116.029 743.829 115.887 744.084 115.815 744.369 115.815 744.817 115.815 745.478 116.09 746.354 116.64 747.23 117.19 748.309 117.791 749.592 118.442 750.875 119.094 752.392 119.694 754.144 120.244 755.895 120.794 757.911 121.069 760.192 121.069 761.903 121.069 763.451 120.886 764.836 120.519 766.22 120.152 767.422 119.613 768.44 118.9 769.458 118.188 770.243 117.281 770.793 116.181 771.343 115.081 771.617 113.778 771.617 112.271 771.617 110.724 771.22 109.42 770.426 108.361 769.632 107.302 768.583 106.366 767.28 105.551 765.976 104.737 764.51 104.014 762.882 103.382 761.252 102.751 759.572 102.09 757.842 101.396 756.111 100.704 754.42 99.92 752.771 99.044 751.122 98.169 749.645 97.1 748.342 95.836 747.037 94.574 745.989 93.067 745.196 91.315 744.401 89.565 744.005 87.466 744.005 85.023 744.005 82.865 744.422 80.798 745.257 78.822 746.092 76.847 747.344 75.116 749.015 73.629 750.684 72.143 752.772 70.951 755.277 70.055 757.782 69.159 760.704 68.711 764.045 68.711 765.511 68.711 766.978 68.833 768.443 69.077 769.909 69.322 771.232 69.627 772.414 69.994 773.596 70.361 774.603 70.758 775.438 71.185 776.273 71.612 776.905 71.99 777.333 72.315 777.76 72.641 778.045 72.926 778.187 73.17 778.33 73.415 778.432 73.69 778.493 73.995 778.555 74.301 778.615 74.678 778.677 75.125 778.738 75.574 778.769 76.124 778.769 76.775 778.769 77.468 778.738 78.068 778.677 78.577 778.615 79.087 778.514 79.504 778.371 79.829 778.227 80.155 778.056 80.389 777.851 80.531 777.647 80.675 777.423 80.745 777.179 80.745 776.813 80.745 776.283 80.522 775.591 80.073 774.898 79.625 774.002 79.147 772.903 78.637 771.803 78.128 770.509 77.65 769.023 77.201 767.536 76.753 765.835 76.529 763.921 76.529 762.211 76.529 760.703 76.723 759.4 77.11 758.096 77.497 757.027 78.047 756.193 78.759 755.357 79.472 754.726 80.317 754.298 81.294 753.87 82.272 753.656 83.331 753.656 84.471 753.656 86.059 754.063 87.394 754.879 88.472 755.692 89.552 756.751 90.499 758.056 91.313 759.359 92.128 760.845 92.861 762.516 93.513 764.185 94.165 765.885 94.837 767.617 95.529 769.348 96.222 771.058 96.995 772.749 97.85 774.439 98.705 775.936 99.744 777.24 100.966 778.543 102.188 779.592 103.654 780.386 105.365 781.18 107.079 781.577 109.116 781.577 111.477Z" fill="#5B5C5E"/><path d="M842.915 96.57C842.915 98.158 842.517 99.289 841.719 99.961 840.92 100.633 840.011 100.969 838.988 100.969L802.777 100.969C802.777 104.024 803.084 106.773 803.697 109.217 804.311 111.661 805.335 113.759 806.767 115.509 808.199 117.261 810.061 118.605 812.353 119.541 814.645 120.479 817.449 120.946 820.764 120.946 823.383 120.946 825.716 120.732 827.762 120.304 829.809 119.876 831.578 119.398 833.073 118.868 834.567 118.339 835.795 117.86 836.757 117.432 837.72 117.004 838.446 116.79 838.938 116.79 839.224 116.79 839.479 116.861 839.705 117.004 839.931 117.147 840.104 117.361 840.227 117.646 840.349 117.931 840.442 118.328 840.502 118.837 840.564 119.347 840.595 119.967 840.595 120.701 840.595 121.231 840.574 121.689 840.533 122.076 840.492 122.464 840.442 122.809 840.381 123.115 840.319 123.42 840.218 123.696 840.075 123.94 839.932 124.184 839.749 124.419 839.525 124.643 839.3 124.867 838.639 125.234 837.54 125.743 836.44 126.253 835.014 126.751 833.264 127.24 831.512 127.729 829.486 128.166 827.185 128.553 824.883 128.939 822.429 129.133 819.823 129.133 815.302 129.133 811.341 128.501 807.94 127.239 804.54 125.977 801.678 124.103 799.357 121.618 797.035 119.134 795.284 116.018 794.102 112.271 792.92 108.524 792.331 104.167 792.331 99.197 792.331 94.473 792.942 90.227 794.164 86.459 795.386 82.692 797.147 79.494 799.448 76.867 801.749 74.24 804.529 72.224 807.788 70.819 811.046 69.414 814.691 68.712 818.724 68.712 823.041 68.712 826.717 69.405 829.751 70.789 832.785 72.174 835.28 74.038 837.235 76.379 839.19 78.722 840.626 81.471 841.543 84.627 842.459 87.784 842.917 91.154 842.917 94.738L842.917 96.57ZM832.773 93.577C832.895 88.283 831.716 84.128 829.239 81.114 826.76 78.1 823.082 76.593 818.205 76.593 815.705 76.593 813.513 77.062 811.628 77.998 809.743 78.936 808.165 80.177 806.895 81.725 805.624 83.273 804.641 85.076 803.944 87.132 803.248 89.189 802.859 91.338 802.777 93.577L832.773 93.577Z" fill="#5B5C5E"/><path d="M905.598 126.445C905.598 126.772 905.516 127.047 905.354 127.27 905.191 127.495 904.926 127.688 904.56 127.851 904.193 128.013 903.683 128.135 903.033 128.217 902.381 128.299 901.566 128.34 900.589 128.34 899.57 128.34 898.735 128.299 898.084 128.217 897.433 128.135 896.924 128.013 896.557 127.851 896.191 127.688 895.925 127.495 895.763 127.27 895.6 127.047 895.519 126.772 895.519 126.445L895.519 94.249C895.519 91.113 895.274 88.588 894.786 86.673 894.298 84.759 893.584 83.11 892.647 81.724 891.709 80.34 890.499 79.28 889.012 78.547 887.525 77.814 885.805 77.447 883.85 77.447 881.324 77.447 878.799 78.343 876.274 80.135 873.749 81.928 871.101 84.555 868.332 88.016L868.332 126.444C868.332 126.771 868.25 127.046 868.088 127.269 867.925 127.494 867.66 127.687 867.294 127.85 866.927 128.012 866.417 128.134 865.767 128.216 865.115 128.298 864.28 128.339 863.262 128.339 862.284 128.339 861.469 128.298 860.818 128.216 860.167 128.134 859.647 128.012 859.26 127.85 858.872 127.687 858.608 127.494 858.466 127.269 858.322 127.046 858.252 126.771 858.252 126.444L858.252 71.46C858.252 71.134 858.313 70.859 858.435 70.635 858.558 70.411 858.802 70.207 859.168 70.024 859.535 69.84 860.003 69.718 860.573 69.657 861.143 69.596 861.896 69.565 862.834 69.565 863.73 69.565 864.473 69.596 865.063 69.657 865.653 69.718 866.112 69.84 866.438 70.024 866.763 70.207 866.998 70.411 867.14 70.635 867.283 70.859 867.354 71.134 867.354 71.46L867.354 78.73C870.449 75.269 873.535 72.733 876.61 71.124 879.685 69.516 882.791 68.711 885.927 68.711 889.592 68.711 892.678 69.332 895.183 70.574 897.688 71.817 899.713 73.476 901.261 75.553 902.809 77.63 903.919 80.064 904.591 82.854 905.263 85.645 905.599 88.994 905.599 92.904L905.599 126.445Z" fill="#5B5C5E"/><path d="M969.93 73.965C969.93 75.391 969.737 76.419 969.35 77.05 968.962 77.682 968.464 77.997 967.853 77.997L959.972 77.997C961.397 79.463 962.395 81.082 962.965 82.854 963.535 84.626 963.82 86.469 963.82 88.383 963.82 91.56 963.31 94.37 962.293 96.814 961.274 99.258 959.819 101.326 957.925 103.015 956.031 104.705 953.78 105.999 951.174 106.894 948.568 107.79 945.676 108.238 942.499 108.238 940.258 108.238 938.131 107.943 936.114 107.352 934.098 106.762 932.54 106.018 931.44 105.122 930.707 105.855 930.106 106.69 929.638 107.627 929.169 108.564 928.935 109.643 928.935 110.865 928.935 112.291 929.597 113.472 930.92 114.408 932.243 115.346 934.006 115.854 936.205 115.935L950.562 116.546C953.29 116.628 955.794 117.004 958.077 117.676 960.357 118.348 962.332 119.305 964.003 120.548 965.673 121.791 966.976 123.318 967.913 125.13 968.85 126.942 969.318 129.049 969.318 131.453 969.318 133.978 968.788 136.381 967.729 138.662 966.669 140.943 965.05 142.948 962.873 144.68 960.693 146.41 957.913 147.775 954.533 148.773 951.152 149.771 947.161 150.27 942.558 150.27 938.119 150.27 934.341 149.893 931.225 149.14 928.11 148.386 925.553 147.358 923.558 146.055 921.562 144.751 920.116 143.193 919.22 141.381 918.324 139.569 917.876 137.603 917.876 135.485 917.876 134.141 918.038 132.837 918.364 131.575 918.69 130.312 919.189 129.11 919.861 127.971 920.533 126.832 921.367 125.741 922.366 124.702 923.363 123.663 924.513 122.635 925.818 121.617 923.822 120.599 922.344 119.317 921.388 117.768 920.431 116.221 919.952 114.551 919.952 112.758 919.952 110.274 920.461 108.054 921.479 106.099 922.497 104.144 923.759 102.393 925.267 100.845 924.003 99.339 923.006 97.637 922.273 95.744 921.54 93.85 921.173 91.559 921.173 88.87 921.173 85.734 921.702 82.924 922.762 80.439 923.821 77.955 925.286 75.857 927.16 74.146 929.033 72.436 931.284 71.122 933.911 70.206 936.538 69.29 939.399 68.831 942.495 68.831 944.164 68.831 945.723 68.922 947.169 69.106 948.613 69.289 949.969 69.544 951.231 69.87L967.848 69.87C968.54 69.87 969.06 70.206 969.407 70.878 969.756 71.552 969.93 72.581 969.93 73.965ZM959.238 132.005C959.238 129.642 958.27 127.82 956.337 126.537 954.401 125.254 951.785 124.572 948.486 124.49L934.251 124.001C932.947 125.02 931.878 125.987 931.044 126.903 930.208 127.82 929.547 128.695 929.058 129.53 928.57 130.364 928.234 131.189 928.05 132.004 927.866 132.818 927.776 133.653 927.776 134.509 927.776 137.156 929.12 139.162 931.808 140.527 934.496 141.891 938.243 142.574 943.049 142.574 946.104 142.574 948.658 142.278 950.716 141.688 952.773 141.097 954.432 140.313 955.695 139.336 956.957 138.358 957.864 137.237 958.414 135.976 958.964 134.713 959.238 133.389 959.238 132.005ZM954.168 88.445C954.168 84.698 953.139 81.776 951.082 79.678 949.025 77.581 946.103 76.532 942.315 76.532 940.36 76.532 938.659 76.859 937.213 77.51 935.767 78.162 934.566 79.058 933.609 80.198 932.652 81.339 931.938 82.653 931.47 84.139 931.001 85.626 930.768 87.184 930.768 88.812 930.768 92.438 931.796 95.288 933.853 97.365 935.91 99.442 938.791 100.481 942.499 100.481 944.494 100.481 946.226 100.166 947.691 99.534 949.158 98.903 950.369 98.028 951.327 96.907 952.283 95.787 952.996 94.494 953.465 93.028 953.933 91.561 954.168 90.033 954.168 88.445Z" fill="#5B5C5E"/><path d="M1028.76 96.57C1028.76 98.158 1028.37 99.289 1027.57 99.961 1026.77 100.633 1025.86 100.969 1024.84 100.969L988.626 100.969C988.626 104.024 988.933 106.773 989.546 109.217 990.16 111.661 991.184 113.759 992.616 115.509 994.048 117.261 995.91 118.605 998.202 119.541 1000.49 120.479 1003.3 120.946 1006.61 120.946 1009.23 120.946 1011.57 120.732 1013.61 120.304 1015.66 119.876 1017.43 119.398 1018.92 118.868 1020.42 118.339 1021.64 117.86 1022.61 117.432 1023.57 117.004 1024.3 116.79 1024.79 116.79 1025.07 116.79 1025.33 116.861 1025.55 117.004 1025.78 117.147 1025.95 117.361 1026.08 117.646 1026.2 117.931 1026.29 118.328 1026.35 118.837 1026.41 119.347 1026.44 119.967 1026.44 120.701 1026.44 121.231 1026.42 121.689 1026.38 122.076 1026.34 122.464 1026.29 122.809 1026.23 123.115 1026.17 123.42 1026.07 123.696 1025.92 123.94 1025.78 124.184 1025.6 124.419 1025.37 124.643 1025.15 124.867 1024.49 125.234 1023.39 125.743 1022.29 126.253 1020.86 126.751 1019.11 127.24 1017.36 127.729 1015.34 128.166 1013.03 128.553 1010.73 128.939 1008.28 129.133 1005.67 129.133 1001.15 129.133 997.19 128.501 993.789 127.239 990.389 125.977 987.527 124.103 985.206 121.618 982.884 119.134 981.133 116.018 979.951 112.271 978.769 108.524 978.18 104.167 978.18 99.197 978.18 94.473 978.791 90.227 980.013 86.459 981.235 82.692 982.996 79.494 985.297 76.867 987.598 74.24 990.378 72.224 993.637 70.819 996.895 69.414 1000.54 68.712 1004.57 68.712 1008.89 68.712 1012.57 69.405 1015.6 70.789 1018.63 72.174 1021.13 74.038 1023.08 76.379 1025.04 78.722 1026.47 81.471 1027.39 84.627 1028.31 87.784 1028.77 91.154 1028.77 94.738L1028.77 96.57ZM1018.62 93.577C1018.74 88.283 1017.57 84.128 1015.09 81.114 1012.61 78.1 1008.93 76.593 1004.05 76.593 1001.55 76.593 999.362 77.062 997.477 77.998 995.592 78.936 994.014 80.177 992.744 81.725 991.473 83.273 990.49 85.076 989.793 87.132 989.097 89.189 988.708 91.338 988.626 93.577L1018.62 93.577Z" fill="#5B5C5E"/><path d="M1076.23 75.065C1076.23 75.961 1076.21 76.714 1076.17 77.326 1076.13 77.937 1076.05 78.416 1075.93 78.762 1075.81 79.109 1075.65 79.373 1075.47 79.556 1075.29 79.739 1075.03 79.831 1074.71 79.831 1074.38 79.831 1073.98 79.739 1073.52 79.556 1073.05 79.372 1072.52 79.189 1071.93 79.006 1071.33 78.823 1070.67 78.65 1069.94 78.487 1069.21 78.325 1068.41 78.242 1067.56 78.242 1066.54 78.242 1065.54 78.447 1064.56 78.853 1063.59 79.26 1062.56 79.933 1061.48 80.869 1060.4 81.806 1059.27 83.048 1058.09 84.596 1056.91 86.144 1055.6 88.038 1054.18 90.278L1054.18 126.446C1054.18 126.773 1054.1 127.048 1053.93 127.271 1053.77 127.496 1053.51 127.689 1053.14 127.852 1052.77 128.014 1052.26 128.136 1051.61 128.218 1050.96 128.3 1050.13 128.341 1049.11 128.341 1048.13 128.341 1047.31 128.3 1046.66 128.218 1046.01 128.136 1045.49 128.014 1045.11 127.852 1044.72 127.689 1044.45 127.496 1044.31 127.271 1044.17 127.048 1044.1 126.773 1044.1 126.446L1044.1 71.46C1044.1 71.134 1044.16 70.859 1044.28 70.635 1044.4 70.411 1044.65 70.207 1045.01 70.024 1045.38 69.84 1045.85 69.718 1046.42 69.657 1046.99 69.596 1047.74 69.565 1048.68 69.565 1049.58 69.565 1050.32 69.596 1050.91 69.657 1051.5 69.718 1051.96 69.84 1052.28 70.024 1052.61 70.207 1052.84 70.411 1052.99 70.635 1053.13 70.859 1053.2 71.134 1053.2 71.46L1053.2 79.463C1054.71 77.263 1056.12 75.472 1057.45 74.087 1058.77 72.703 1060.02 71.613 1061.2 70.818 1062.39 70.024 1063.56 69.474 1064.72 69.169 1065.88 68.864 1067.05 68.711 1068.23 68.711 1068.76 68.711 1069.36 68.741 1070.03 68.802 1070.7 68.863 1071.41 68.976 1072.14 69.138 1072.87 69.302 1073.54 69.485 1074.12 69.688 1074.71 69.893 1075.13 70.096 1075.38 70.299 1075.62 70.503 1075.78 70.696 1075.87 70.879 1075.95 71.063 1076.02 71.297 1076.08 71.582 1076.14 71.868 1076.18 72.285 1076.2 72.834 1076.22 73.383 1076.23 74.128 1076.23 75.065Z" fill="#5B5C5E"/></g></g><g><path d="M309.972 126.384C309.972 126.71 309.888 126.995 309.72 127.239 309.552 127.483 309.259 127.677 308.839 127.819 308.419 127.962 307.884 128.084 307.234 128.186 306.584 128.287 305.734 128.339 304.686 128.339 303.721 128.339 302.893 128.287 302.201 128.186 301.509 128.084 300.964 127.962 300.565 127.819 300.166 127.677 299.883 127.483 299.715 127.239 299.547 126.994 299.464 126.71 299.464 126.384L299.464 57.531 299.341 57.531 271.482 126.69C271.36 126.976 271.186 127.22 270.962 127.423 270.738 127.627 270.412 127.8 269.985 127.942 269.557 128.085 269.047 128.187 268.457 128.248 267.866 128.309 267.164 128.34 266.35 128.34 265.495 128.34 264.762 128.299 264.15 128.217 263.539 128.135 263.029 128.024 262.623 127.881 262.216 127.739 261.9 127.566 261.676 127.362 261.452 127.158 261.299 126.934 261.218 126.69L234.581 57.531 234.52 57.531 234.52 126.385C234.52 126.711 234.436 126.996 234.268 127.24 234.1 127.484 233.807 127.678 233.387 127.82 232.967 127.963 232.422 128.085 231.751 128.187 231.08 128.288 230.22 128.34 229.172 128.34 228.165 128.34 227.326 128.288 226.654 128.187 225.983 128.085 225.448 127.963 225.05 127.82 224.651 127.678 224.379 127.484 224.232 127.24 224.085 126.995 224.013 126.711 224.013 126.385L224.013 53.682C224.013 51.971 224.467 50.749 225.377 50.016 226.287 49.283 227.3 48.916 228.417 48.916L234.869 48.916C236.192 48.916 237.35 49.039 238.343 49.283 239.336 49.527 240.203 49.915 240.948 50.444 241.693 50.974 242.313 51.646 242.809 52.46 243.306 53.275 243.74 54.232 244.112 55.332L266.717 112.577 267.022 112.577 290.543 55.515C290.997 54.293 291.494 53.255 292.032 52.399 292.57 51.544 293.16 50.862 293.802 50.353 294.444 49.844 295.156 49.478 295.943 49.253 296.729 49.03 297.639 48.917 298.674 48.917L305.439 48.917C306.06 48.917 306.649 49.009 307.208 49.192 307.766 49.376 308.243 49.661 308.636 50.047 309.03 50.435 309.35 50.923 309.598 51.513 309.846 52.104 309.97 52.826 309.97 53.682L309.97 126.384Z" stroke="#5B5C5E" stroke-width="0.5" stroke-miterlimit="10" fill="#5B5C5E"/><path d="M376.748 96.57C376.748 98.158 376.349 99.289 375.551 99.961 374.753 100.633 373.843 100.969 372.82 100.969L336.609 100.969C336.609 104.024 336.916 106.773 337.529 109.217 338.142 111.661 339.166 113.759 340.599 115.509 342.031 117.261 343.893 118.605 346.185 119.541 348.477 120.479 351.281 120.946 354.596 120.946 357.216 120.946 359.548 120.732 361.595 120.304 363.641 119.876 365.411 119.398 366.905 118.868 368.399 118.339 369.627 117.86 370.589 117.432 371.551 117.004 372.277 116.79 372.769 116.79 373.056 116.79 373.311 116.861 373.536 117.004 373.761 117.147 373.935 117.361 374.058 117.646 374.181 117.931 374.273 118.328 374.334 118.837 374.395 119.347 374.427 119.967 374.427 120.701 374.427 121.231 374.406 121.689 374.366 122.076 374.325 122.464 374.274 122.809 374.213 123.115 374.152 123.42 374.05 123.696 373.907 123.94 373.764 124.184 373.581 124.419 373.357 124.643 373.133 124.867 372.471 125.234 371.372 125.743 370.272 126.253 368.846 126.751 367.095 127.24 365.344 127.729 363.317 128.166 361.016 128.553 358.714 128.939 356.26 129.133 353.654 129.133 349.133 129.133 345.172 128.501 341.771 127.239 338.37 125.977 335.509 124.103 333.187 121.618 330.866 119.134 329.114 116.018 327.933 112.271 326.751 108.524 326.161 104.167 326.161 99.197 326.161 94.473 326.772 90.227 327.994 86.459 329.216 82.692 330.977 79.494 333.279 76.867 335.579 74.24 338.359 72.224 341.618 70.819 344.876 69.414 348.522 68.712 352.554 68.712 356.87 68.712 360.547 69.405 363.581 70.789 366.615 72.174 369.11 74.038 371.065 76.379 373.02 78.722 374.456 81.471 375.372 84.627 376.289 87.784 376.747 91.154 376.747 94.738L376.747 96.57ZM366.606 93.577C366.729 88.283 365.549 84.128 363.071 81.114 360.592 78.1 356.914 76.593 352.038 76.593 349.538 76.593 347.345 77.062 345.461 77.998 343.576 78.936 341.998 80.177 340.727 81.725 339.456 83.273 338.473 85.076 337.776 87.132 337.079 89.189 336.691 91.338 336.609 93.577L366.606 93.577Z" stroke="#5B5C5E" stroke-width="0.5" stroke-miterlimit="10" fill="#5B5C5E"/><path d="M439.431 126.445C439.431 126.772 439.349 127.047 439.187 127.27 439.024 127.495 438.759 127.688 438.393 127.851 438.027 128.013 437.517 128.135 436.866 128.217 436.214 128.299 435.4 128.34 434.423 128.34 433.404 128.34 432.569 128.299 431.918 128.217 431.266 128.135 430.757 128.013 430.391 127.851 430.024 127.688 429.759 127.495 429.597 127.27 429.434 127.047 429.352 126.772 429.352 126.445L429.352 94.249C429.352 91.113 429.108 88.588 428.619 86.673 428.13 84.759 427.417 83.11 426.481 81.724 425.543 80.34 424.332 79.28 422.846 78.547 421.359 77.814 419.638 77.447 417.683 77.447 415.157 77.447 412.632 78.343 410.107 80.135 407.581 81.928 404.934 84.555 402.165 88.016L402.165 126.444C402.165 126.771 402.082 127.046 401.92 127.269 401.757 127.494 401.492 127.687 401.126 127.85 400.76 128.012 400.25 128.134 399.599 128.216 398.947 128.298 398.112 128.339 397.094 128.339 396.117 128.339 395.302 128.298 394.651 128.216 393.999 128.134 393.48 128.012 393.093 127.85 392.705 127.687 392.441 127.494 392.299 127.269 392.156 127.046 392.086 126.771 392.086 126.444L392.086 71.46C392.086 71.134 392.147 70.859 392.269 70.635 392.391 70.411 392.636 70.207 393.002 70.024 393.369 69.84 393.836 69.718 394.407 69.657 394.977 69.596 395.73 69.565 396.668 69.565 397.563 69.565 398.307 69.596 398.898 69.657 399.488 69.718 399.946 69.84 400.273 70.024 400.598 70.207 400.832 70.411 400.976 70.635 401.118 70.859 401.19 71.134 401.19 71.46L401.19 78.73C404.285 75.269 407.37 72.733 410.445 71.124 413.52 69.516 416.625 68.711 419.762 68.711 423.428 68.711 426.513 69.332 429.018 70.574 431.523 71.817 433.549 73.476 435.097 75.553 436.644 77.63 437.755 80.064 438.427 82.854 439.099 85.645 439.435 88.994 439.435 92.904L439.435 126.445Z" stroke="#5B5C5E" stroke-width="0.5" stroke-miterlimit="10" fill="#5B5C5E"/><path d="M499.242 126.506C499.242 126.995 499.078 127.361 498.753 127.606 498.426 127.851 497.979 128.034 497.409 128.156 496.838 128.279 496.004 128.34 494.904 128.34 493.844 128.34 493 128.279 492.369 128.156 491.737 128.034 491.279 127.851 490.994 127.606 490.709 127.362 490.566 126.995 490.566 126.506L490.566 121.007C488.163 123.573 485.485 125.569 482.532 126.994 479.578 128.419 476.453 129.132 473.154 129.132 470.261 129.132 467.645 128.755 465.303 128.002 462.96 127.249 460.965 126.159 459.316 124.733 457.667 123.308 456.383 121.556 455.467 119.479 454.551 117.402 454.092 115.04 454.092 112.392 454.092 109.297 454.723 106.609 455.986 104.328 457.248 102.048 459.061 100.154 461.424 98.646 463.785 97.14 466.678 96.009 470.099 95.255 473.52 94.502 477.369 94.125 481.646 94.125L489.222 94.125 489.222 89.85C489.222 87.733 488.997 85.859 488.55 84.229 488.102 82.601 487.379 81.246 486.382 80.167 485.383 79.088 484.091 78.273 482.502 77.723 480.914 77.173 478.959 76.898 476.637 76.898 474.152 76.898 471.922 77.194 469.947 77.784 467.971 78.375 466.24 79.027 464.754 79.739 463.267 80.452 462.025 81.104 461.027 81.694 460.028 82.285 459.286 82.58 458.797 82.58 458.471 82.58 458.186 82.499 457.942 82.336 457.697 82.173 457.484 81.929 457.3 81.603 457.117 81.277 456.984 80.86 456.903 80.351 456.821 79.842 456.78 79.282 456.78 78.671 456.78 77.653 456.851 76.849 456.994 76.258 457.137 75.668 457.483 75.108 458.033 74.578 458.583 74.049 459.53 73.428 460.874 72.715 462.218 72.003 463.765 71.351 465.517 70.76 467.267 70.17 469.183 69.681 471.26 69.294 473.337 68.907 475.434 68.714 477.553 68.714 481.503 68.714 484.863 69.162 487.634 70.058 490.403 70.954 492.644 72.268 494.354 73.998 496.064 75.73 497.307 77.878 498.081 80.444 498.854 83.01 499.242 86.004 499.242 89.425L499.242 126.506ZM489.223 101.396 480.609 101.396C477.838 101.396 475.436 101.631 473.4 102.099 471.363 102.568 469.673 103.26 468.329 104.176 466.985 105.093 465.997 106.192 465.366 107.475 464.734 108.758 464.419 110.235 464.419 111.904 464.419 114.756 465.325 117.027 467.138 118.716 468.95 120.406 471.485 121.252 474.744 121.252 477.391 121.252 479.846 120.58 482.106 119.236 484.367 117.892 486.739 115.836 489.224 113.065L489.224 101.396Z" stroke="#5B5C5E" stroke-width="0.5" stroke-miterlimit="10" fill="#5B5C5E"/></g></g></g><g><path d="M48.028 114.162C32.539 113.66 19.973 102.693 18.558 88.74L0.045 88.74C0.525 113.033 20.37 132.588 44.826 132.588L48.029 132.588 48.029 114.162Z" fill="#4480C2"/><path d="M132.359 114.209 48.411 114.209C48.058 114.209 47.714 114.175 47.364 114.165L47.364 132.587 132.359 132.587 132.359 114.209Z" fill="#4480C2"/><path d="M155.726 45.948C155.73 46.125 155.755 46.296 155.755 46.474L155.755 114.209 130.012 114.209 130.012 132.587 174.168 132.587 174.168 45.947 155.726 45.947Z" fill="#E52E25"/><path d="M0.023 88.74 0.045 88.74C0.039 88.441 0 88.15 0 87.85 0 88.148 0.017 88.443 0.023 88.74Z" fill="#4480C2"/><path d="M18.413 45.683C18.413 45.498 18.438 45.318 18.442 45.134L0 45.134 0 88.654C0 88.966 0.039 89.268 0.045 89.578L18.558 89.578C18.47 88.679 18.413 87.771 18.413 86.851L18.413 45.683Z" fill="#4480C2"/><path d="M129.342 0 48.874 0 48.874 18.39C48.959 18.389 49.041 18.378 49.127 18.378L125.043 18.378C141.811 18.378 155.417 30.676 155.727 45.948L174.169 45.948 174.169 44.738C174.168 20.03 154.099 0 129.342 0Z" fill="#F89820"/><path d="M48.784 0 44.826 0C20.069 0 0 20.03 0 44.738L0 45.856 18.447 45.856C18.808 30.733 32.209 18.562 48.783 18.394L48.783 0Z" fill="#33A852"/></g></g></svg>