<svg width="800" height="800" viewBox="0 0 48 48" xmlns="http://www.w3.org/2000/svg" xmlns:xlink="http://www.w3.org/1999/xlink" fill="#4273B8" overflow="hidden"><g id="SVGRepo_bgCarrier" stroke-width="0"></g><g id="SVGRepo_tracerCarrier" stroke-linecap="round" stroke-linejoin="round"></g><g id="SVGRepo_iconCarrier"><g id="Layer_2"><g id="invisible_box"><rect x="0" y="0" width="48" height="48" fill="none"/></g><g id="icons_Q2"><path d="M26 18 26 29.2 28.6 26.6C29.3496 25.7888 30.615 25.7388 31.4262 26.4885 31.528 26.5825 31.6198 26.6869 31.7 26.8 32.2086 27.6839 32.043 28.8015 31.3 29.5L25.4 35.4C24.6906 36.1732 23.4887 36.2249 22.7155 35.5155 22.6753 35.4787 22.6368 35.4401 22.6 35.4L16.7 29.5C15.957 28.8015 15.7914 27.6839 16.3 26.8 16.9392 25.8992 18.1876 25.687 19.0885 26.3262 19.2015 26.4064 19.3059 26.4982 19.4 26.6L22 29.2 22 18 4 18 4 40C4 42.2091 5.79086 44 8 44L40 44C42.2091 44 44 42.2091 44 40L44 18Z"/><path d="M43.9 14 4.1 14C4.18227 13.3823 4.42347 12.7965 4.8 12.3L9.8 5.6C10.5447 4.58001 11.7372 3.98376 13 4L35 4C36.2628 3.98376 37.4553 4.58001 38.2 5.6L43.2 12.3C43.5765 12.7965 43.8177 13.3823 43.9 14Z"/></g></g></g></svg>