<svg width="800" height="800" viewBox="0 -0.5 25 25" xmlns="http://www.w3.org/2000/svg" xmlns:xlink="http://www.w3.org/1999/xlink" fill="none" overflow="hidden"><g id="SVGRepo_bgCarrier" stroke-width="0"></g><g id="SVGRepo_tracerCarrier" stroke-linecap="round" stroke-linejoin="round"></g><g id="SVGRepo_iconCarrier"><path d="M7.23841 8.13204C7.99241 7.33204 8.25941 7.11104 8.58041 7.00704 8.80312 6.94934 9.03656 6.94694 9.26041 7.00004 9.55541 7.08704 9.63241 7.15204 10.6004 8.11804 11.4504 8.96704 11.5344 9.05904 11.6164 9.22504 11.7724 9.5168 11.7968 9.86121 11.6834 10.172 11.5994 10.408 11.4754 10.565 10.9604 11.084L10.6244 11.422C10.5358 11.512 10.5149 11.6486 10.5724 11.761 11.3175 13.0395 12.3766 14.1065 13.6494 14.861 13.7958 14.9399 13.9766 14.9144 14.0954 14.798L14.4184 14.479C14.6179 14.2736 14.8293 14.0799 15.0514 13.899 15.3994 13.6828 15.8344 13.662 16.2014 13.844 16.3804 13.929 16.4404 13.983 17.3174 14.86 18.2174 15.76 18.2464 15.792 18.3474 15.999 18.5346 16.3423 18.5328 16.7575 18.3424 17.099 18.2424 17.292 18.1864 17.362 17.6784 17.882 17.3714 18.197 17.0784 18.482 17.0364 18.527 16.6175 18.8751 16.0793 19.0459 15.5364 19.003 14.5435 18.9127 13.5826 18.6055 12.7214 18.103 10.8108 17.0865 9.18554 15.607 7.99441 13.8 7.73341 13.4211 7.50142 13.023 7.30041 12.609 6.76424 11.685 6.48783 10.6333 6.50041 9.56504 6.541 9.0068 6.80753 8.48927 7.23841 8.13204Z" stroke="#4273B8" stroke-width="1.5" stroke-linecap="round" stroke-linejoin="round" fill-rule="evenodd" clip-rule="evenodd"/><path d="M18.2364 5C18.2364 4.58579 17.9006 4.25 17.4864 4.25 17.0722 4.25 16.7364 4.58579 16.7364 5L18.2364 5ZM16.7364 7.007C16.7364 7.42121 17.0722 7.757 17.4864 7.757 17.9006 7.757 18.2364 7.42121 18.2364 7.007L16.7364 7.007ZM18.2364 7.007C18.2364 6.59279 17.9006 6.257 17.4864 6.257 17.0722 6.257 16.7364 6.59279 16.7364 7.007L18.2364 7.007ZM16.7364 9.013C16.7364 9.42721 17.0722 9.763 17.4864 9.763 17.9006 9.763 18.2364 9.42721 18.2364 9.013L16.7364 9.013ZM17.4864 7.756C17.9006 7.756 18.2364 7.42021 18.2364 7.006 18.2364 6.59179 17.9006 6.256 17.4864 6.256L17.4864 7.756ZM15.4864 6.256C15.0722 6.256 14.7364 6.59179 14.7364 7.006 14.7364 7.42021 15.0722 7.756 15.4864 7.756L15.4864 6.256ZM17.4864 6.256C17.0722 6.256 16.7364 6.59179 16.7364 7.006 16.7364 7.42021 17.0722 7.756 17.4864 7.756L17.4864 6.256ZM19.4864 7.756C19.9006 7.756 20.2364 7.42021 20.2364 7.006 20.2364 6.59179 19.9006 6.256 19.4864 6.256L19.4864 7.756ZM16.7364 5 16.7364 7.007 18.2364 7.007 18.2364 5 16.7364 5ZM16.7364 7.007 16.7364 9.013 18.2364 9.013 18.2364 7.007 16.7364 7.007ZM17.4864 6.256 15.4864 6.256 15.4864 7.756 17.4864 7.756 17.4864 6.256ZM17.4864 7.756 19.4864 7.756 19.4864 6.256 17.4864 6.256 17.4864 7.756Z" fill="#4273B8"/></g></svg>