<?xml version="1.0" encoding="utf-8"?>
<!-- Generator: Adobe Illustrator 26.5.0, SVG Export Plug-In . SVG Version: 6.00 Build 0)  -->
<svg version="1.1" id="Layer_1" xmlns="http://www.w3.org/2000/svg" xmlns:xlink="http://www.w3.org/1999/xlink" x="0px" y="0px"
	 viewBox="0 0 216.11 163.229" style="enable-background:new 0 0 216.11 163.229;" xml:space="preserve">
<style type="text/css">
	.st0{fill:#FFFFFF;}
</style>
<g>
	<g>
		<path class="st0" d="M200.1,19.577c-11.01-11.96-26.65-19.58-44.19-19.58H60.2c-33.26,0-60.23,26.97-60.23,60.23v42.77
			c0,18.6,8.6,35.01,21.85,46.06c10.44,8.72,23.71,14.17,38.38,14.17h155.94v-103C216.14,44.497,209.97,30.307,200.1,19.577z
			 M200.92,149.377H63.41c-17.85,0-33.25-9.81-41.59-24.22c-4.11-7.09-6.63-15.22-6.63-24.01v-38.71
			c0-26.84,21.75-48.59,48.58-48.59h89.31c8.08,0,15.57,2.19,22.25,5.73c15.15,8.03,25.59,23.77,25.59,42.12V149.377z"/>
	</g>
	<g>
		<circle class="st0" cx="108.055" cy="81.614" r="7.7"/>
		<g>
			<circle class="st0" cx="70.038" cy="81.614" r="7.7"/>
			<circle class="st0" cx="146.072" cy="81.614" r="7.7"/>
		</g>
	</g>
</g>
</svg>
