<svg fill="none" height="24" viewBox="0 0 24 24" width="24" xmlns="http://www.w3.org/2000/svg" xmlns:xlink="http://www.w3.org/1999/xlink"><linearGradient id="a" gradientUnits="userSpaceOnUse" x1="-12" x2="12" y1="12" y2="36"><stop offset="0" stop-color="#70b2ff"/><stop offset="1" stop-color="#5c9ce6"/></linearGradient><clipPath id="b"><path d="m0 0h24v24h-24z"/></clipPath><g clip-path="url(#b)"><path d="m0 12c0-6.62742 5.37258-12 12-12 6.6274 0 12 5.37258 12 12 0 6.6274-5.3726 12-12 12-6.62742 0-12-5.3726-12-12z" fill="url(#a)"/><path d="m12 13.2c3 0 5.4 1.2 5.4 3.3v.3462c0 .4013-.0418.5467-.1202.6934-.0784.1466-.1936.2618-.3402.3402-.1467.0784-.2921.1202-.6934.1202h-8.49244c-.40119 0-.54667-.0418-.69334-.1202-.14666-.0784-.26177-.1936-.34021-.3402-.07843-.1467-.1202-.2921-.1202-.6934v-.3462c0-2.1 2.4-3.3 5.39999-3.3zm0-7.80001c1.6568 0 3 1.34315 3 3 0 1.65681-1.3432 3.00001-3 3.00001s-2.99999-1.3432-2.99999-3.00001c0-1.65685 1.34319-3 2.99999-3z" fill="#fff"/></g></svg>