<svg width="30" height="29" xmlns="http://www.w3.org/2000/svg" xmlns:xlink="http://www.w3.org/1999/xlink" overflow="hidden"><g transform="translate(-20 -69)"><g><g><path d="M83.9178 82.6537 80.7527 82.6537 80.7527 84.1655 85.4296 84.1655 85.4296 73.4495 83.9178 73.4495Z" stroke="#E52E25" stroke-width="0.225734" stroke-miterlimit="10" fill="#E52E25" transform="matrix(1 0 0 1.02964 -41.2001 5.37354)"/><path d="M66.301 79.1765C66.288 79.0597 66.2754 78.9397 66.2754 78.8202L66.2754 73.4155 64.7705 73.4155 64.7705 79.1377C64.825 81.9094 67.1248 84.1704 69.8971 84.1704L79.9856 84.1704 79.9856 82.6531 70.3085 82.6531C68.2101 82.5487 66.4951 81.054 66.301 79.1765Z" stroke="#4273B8" stroke-width="0.225734" stroke-miterlimit="10" fill="#4273B8" transform="matrix(1 0 0 1.02964 -41.2001 5.37354)"/><path d="M69.8971 84.1704 80.8163 84.1704 80.8163 82.6531 70.3085 82.6531" stroke="#4273B8" stroke-width="0.225734" stroke-miterlimit="10" fill="#4273B8" transform="matrix(1 0 0 1.02964 -41.2001 5.37354)"/><path d="M80.2941 68.5833 69.9813 68.5833 69.9813 70.0948 79.7652 70.0948C81.8766 70.0948 83.6479 71.5874 83.8874 73.4913L85.4245 73.4913C85.3053 70.7648 83.0498 68.5833 80.2941 68.5833Z" stroke="#F89820" stroke-width="0.225734" stroke-miterlimit="10" fill="#F89820" transform="matrix(1 0 0 1.02964 -41.2001 5.37354)"/><path d="M70.0126 68.5833 69.9022 68.5833C67.1503 68.5833 64.8975 70.7588 64.7723 73.4802L66.31 73.4802C66.5345 71.6894 68.0695 70.2932 70.0126 70.1159L70.0126 68.5833Z" stroke="#33A852" stroke-width="0.225734" stroke-miterlimit="10" fill="#33A852" transform="matrix(1 0 0 1.02964 -41.2001 5.37354)"/></g></g></g></svg>