<svg width="800" height="800" viewBox="0 0 24 24" xmlns="http://www.w3.org/2000/svg" xmlns:xlink="http://www.w3.org/1999/xlink" fill="#4273B8" overflow="hidden"><g id="SVGRepo_bgCarrier" stroke-width="0"></g><g id="SVGRepo_tracerCarrier" stroke-linecap="round" stroke-linejoin="round"></g><g id="SVGRepo_iconCarrier"><path d="M3.75 5.5C3.33579 5.5 3 5.83579 3 6.25 3 6.66421 3.33579 7 3.75 7L13.75 7C14.1642 7 14.5 6.66421 14.5 6.25 14.5 5.83579 14.1642 5.5 13.75 5.5L3.75 5.5ZM8.75 11.5C8.33579 11.5 8 11.8358 8 12.25 8 12.6642 8.33579 13 8.75 13L20.25 13C20.6642 13 21 12.6642 21 12.25 21 11.8358 20.6642 11.5 20.25 11.5L8.75 11.5ZM8.75 17.5C8.33579 17.5 8 17.8358 8 18.25 8 18.6642 8.33579 19 8.75 19L20.25 19C20.6642 19 21 18.6642 21 18.25 21 17.8358 20.6642 17.5 20.25 17.5L8.75 17.5ZM5 12C5 12.5523 4.55228 13 4 13 3.44772 13 3 12.5523 3 12 3 11.4477 3.44772 11 4 11 4.55228 11 5 11.4477 5 12ZM4 19C4.55228 19 5 18.5523 5 18 5 17.4477 4.55228 17 4 17 3.44772 17 3 17.4477 3 18 3 18.5523 3.44772 19 4 19Z" fill-rule="evenodd"/><path d="M19.309 7.918 17.064 5.417C16.9718 5.31425 16.9803 5.15619 17.083 5.06396 17.1289 5.02279 17.1884 5.00001 17.25 5L21.74 5C21.8781 5.00057 21.9895 5.11297 21.989 5.25104 21.9887 5.31233 21.9659 5.37139 21.925 5.417L19.681 7.917C19.5887 8.01972 19.4307 8.02821 19.328 7.93596 19.3213 7.92998 19.315 7.92365 19.309 7.917Z"/></g></svg>