<svg width="12" height="13" viewBox="0 0 12 13" fill="none" xmlns="http://www.w3.org/2000/svg">
<g id="Component 8">
<path id="Shape" fill-rule="evenodd" clip-rule="evenodd" d="M9.90676 5.45338C9.90676 2.7177 7.68905 0.5 4.95338 0.5C2.2177 0.5 0 2.7177 0 5.45338C0 8.18905 2.2177 10.4068 4.95338 10.4068C5.88708 10.4068 6.76045 10.1484 7.5059 9.69931L7.55707 9.66769C7.73043 9.55831 7.95761 9.59137 8.09259 9.74562L10.2383 12.1977L10.3221 12.273C10.7274 12.599 11.3216 12.5739 11.6977 12.1977C12.1008 11.7947 12.1008 11.1413 11.6977 10.7383L9.24773 8.63797L9.19153 8.58016C9.07478 8.43575 9.05942 8.22969 9.16143 8.06762L9.29636 7.83741C9.68543 7.13016 9.90676 6.31761 9.90676 5.45338ZM1.65112 5.45338C1.65112 3.62959 3.12959 2.15112 4.95338 2.15112C6.77716 2.15112 8.25563 3.62959 8.25563 5.45338C8.25563 7.27716 6.77716 8.75563 4.95338 8.75563C3.12959 8.75563 1.65112 7.27716 1.65112 5.45338Z" fill="#979797"/>
</g>
</svg>
