<svg enable-background="new 0 0 500 302.5" viewBox="0 0 500 302.5" xmlns="http://www.w3.org/2000/svg"><path d="m480.3 80.2c-13.2-7.6-28.9-7.6-42.1 0l-59.9 34.6c-3.1 1.8-5.9 3.9-8.3 6.3v-25.2c0-52.9-43-95.9-95.9-95.9h-178.2c-52.9 0-95.9 43-95.9 95.9v110.7c0 52.9 43 95.9 95.9 95.9h178.2c52.9 0 95.9-43 95.9-95.9v-25.1c2.5 2.4 5.3 4.5 8.3 6.3l59.9 34.5c6.6 3.8 13.8 5.7 21.1 5.7 7.2 0 14.5-1.9 21.1-5.7 13.2-7.6 21-21.2 21-36.5v-69.1c-.1-15.2-8-28.9-21.1-36.5zm-137.4 126.4c0 38-30.9 68.9-68.9 68.9h-178.1c-38 0-68.9-30.9-68.9-68.9v-110.7c0-38 30.9-68.9 68.9-68.9h178.2c38 0 68.9 30.9 68.9 68.9v110.7zm131.4-20.8c0 7.9-5.3 11.8-7.5 13.1-2.3 1.3-8.3 3.9-15.1 0l-59.9-34.6c-6.8-3.9-7.5-10.4-7.5-13.1 0-2.6.7-9.1 7.5-13.1l59.9-34.6c2.7-1.5 5.2-2.1 7.5-2.1 3.5 0 6.2 1.3 7.6 2.1 2.3 1.3 7.5 5.2 7.5 13.1z" fill="#fffffd"/><path d="m244 151c0 6.5-5 11.5-11.1 11.5h-36.5v36.5c0 6.1-5 11.1-11.1 11.1h-.4c-6.1 0-11.1-5-11.1-11.1v-36.5h-36.5c-6.1 0-11.1-5-11.1-11.1 0-6.5 5-11.5 11.1-11.5h36.5v-36.5c0-6.1 5-11.1 11.1-11.1 6.5 0 11.5 5 11.5 11.1v36.5h36.5c6.1 0 11.1 5 11.1 11.1z" fill="#f1f2f2"/></svg>