<svg viewBox="0 0 216.11 216.11" xmlns="http://www.w3.org/2000/svg" xmlns:xlink="http://www.w3.org/1999/xlink" id="Layer_1" xml:space="preserve" overflow="hidden"><g><g><g><path d="M168.684 108.067C168.684 113.413 164.308 117.791 158.96 117.791L84.669 117.791 99.547 132.667C103.339 136.461 103.339 142.586 99.547 146.379 97.602 148.226 95.074 149.199 92.643 149.199 90.115 149.199 87.684 148.226 85.739 146.379L61.235 121.779 47.427 108.067 61.235 94.355 85.739 69.755C89.531 65.961 95.658 65.961 99.547 69.755 103.339 73.549 103.339 79.674 99.547 83.463L84.669 98.343 158.96 98.343C164.308 98.343 168.684 102.721 168.684 108.067Z" stroke="#FFFFFF" fill="#FFFFFF"/></g></g><g><path d="M107.446 215.828C75.311 215.828 43.348 207.623 25.305 191.281 25.068 191.063 24.84 190.844 24.621 190.607-8.235 154.332-8.235 61.765 24.621 25.528 61.561-8.012 154.138-8.031 190.384 24.863 224.598 62.572 224.598 153.592 191.058 190.607 172.504 207.443 139.894 215.828 107.446 215.828ZM38.714 177.189C68.228 203.332 148.223 203.237 177.318 176.866 203.119 148.33 203.119 67.823 176.644 38.584 148.089 12.764 67.582 12.755 38.362 39.268 12.657 67.68 12.552 147.656 38.714 177.189Z" stroke="#FFFFFF" fill="#FFFFFF"/></g></g></svg>