<svg enable-background="new 0 0 328.214 313.929" viewBox="0 0 328.214 313.929" xmlns="http://www.w3.org/2000/svg"><g fill="#5b5c5e"><path d="m154.509 200.208c0 .091-.022.17-.069.237-.047.068-.128.122-.245.161-.116.04-.265.073-.444.102-.181.028-.416.043-.707.043-.268 0-.498-.015-.689-.043-.192-.028-.344-.062-.454-.102-.111-.039-.189-.093-.236-.161-.046-.067-.069-.146-.069-.237v-19.102h-.034l-7.728 19.187c-.034.079-.082.147-.144.204s-.153.104-.271.144-.26.067-.424.085c-.164.017-.358.025-.584.025-.237 0-.441-.012-.61-.034s-.311-.054-.424-.093c-.113-.04-.201-.088-.263-.145s-.104-.118-.127-.187l-7.39-19.187h-.017v19.102c0 .091-.023.17-.07.237-.047.068-.128.122-.245.161-.117.04-.268.073-.454.102-.186.028-.424.043-.715.043-.279 0-.512-.015-.698-.043-.187-.028-.334-.062-.445-.102-.111-.039-.186-.093-.227-.161-.041-.067-.061-.146-.061-.237v-20.169c0-.475.126-.813.379-1.018.252-.203.533-.305.843-.305h1.79c.367 0 .688.034.964.102.275.068.516.176.723.322s.378.333.516.56c.138.226.258.491.362.796l6.271 15.882h.085l6.525-15.83c.126-.34.264-.628.413-.865s.313-.426.491-.567.376-.243.594-.305.471-.094.758-.094h1.877c.172 0 .336.025.491.076.154.051.287.13.396.237s.198.243.268.407c.068.164.103.364.103.602v20.17z"/><path d="m173.035 191.938c0 .44-.111.754-.332.94-.222.187-.475.279-.758.279h-10.046c0 .848.085 1.61.255 2.288.171.679.454 1.261.852 1.746.397.486.914.859 1.55 1.119s1.414.39 2.334.39c.727 0 1.373-.06 1.941-.178.567-.119 1.059-.252 1.473-.398.415-.147.756-.28 1.022-.398.267-.119.469-.178.604-.178.08 0 .15.02.213.059.062.04.11.1.145.179s.06.188.077.33.025.313.025.517c0 .147-.006.274-.017.382-.012.107-.025.203-.043.288-.017.085-.045.161-.084.229-.04.068-.091.133-.153.195s-.245.164-.551.305c-.305.142-.7.28-1.187.415-.485.136-1.048.258-1.687.365-.638.106-1.319.161-2.042.161-1.254 0-2.354-.176-3.297-.526s-1.737-.869-2.381-1.559c-.645-.689-1.13-1.554-1.458-2.594-.328-1.039-.491-2.248-.491-3.627 0-1.311.169-2.488.509-3.534.339-1.045.827-1.932 1.466-2.661.638-.729 1.409-1.288 2.313-1.678.903-.39 1.915-.585 3.034-.585 1.197 0 2.217.192 3.059.577.842.384 1.534.9 2.077 1.551.542.649.94 1.412 1.194 2.288.254.875.382 1.811.382 2.805v.508zm-2.813-.831c.033-1.469-.294-2.621-.981-3.457s-1.708-1.255-3.061-1.255c-.693 0-1.302.131-1.825.391-.522.26-.96.604-1.312 1.033-.353.43-.626.93-.819 1.5-.193.571-.301 1.167-.323 1.788z"/><path d="m186.865 196.073c0 .779-.145 1.475-.433 2.084-.288.61-.697 1.125-1.229 1.543s-1.164.734-1.898.949c-.734.214-1.542.322-2.424.322-.542 0-1.06-.043-1.551-.128-.491-.084-.932-.192-1.322-.321-.39-.13-.72-.266-.991-.407s-.469-.269-.593-.381c-.125-.113-.215-.271-.271-.475-.057-.204-.085-.48-.085-.831 0-.215.011-.396.034-.542.022-.147.051-.266.085-.356.033-.09.081-.155.144-.194.062-.04.133-.06.212-.06.124 0 .308.076.551.229s.543.319.898.5.776.348 1.263.5c.485.152 1.045.229 1.678.229.475 0 .904-.052 1.288-.153.385-.102.718-.251 1-.449.282-.197.5-.449.653-.754.152-.305.229-.667.229-1.085 0-.429-.11-.791-.331-1.085-.22-.293-.511-.553-.872-.779-.362-.226-.769-.427-1.221-.602s-.918-.358-1.398-.551-.949-.409-1.406-.652c-.458-.243-.868-.54-1.229-.891-.361-.35-.652-.768-.873-1.254-.22-.485-.33-1.067-.33-1.746 0-.599.115-1.172.348-1.72.231-.548.579-1.028 1.042-1.44.463-.413 1.043-.743 1.737-.992.695-.248 1.506-.373 2.433-.373.406 0 .813.034 1.22.103.407.067.774.152 1.102.254s.607.212.84.33c.231.119.406.224.525.313.118.091.197.17.237.237.039.068.067.145.084.229.018.085.034.189.051.313.018.124.025.276.025.457 0 .192-.008.359-.025.5-.017.142-.045.258-.084.348-.04.091-.088.155-.145.195-.057.039-.118.06-.187.06-.102 0-.248-.062-.44-.187s-.44-.257-.746-.398c-.305-.142-.664-.274-1.076-.398s-.884-.187-1.415-.187c-.475 0-.893.054-1.254.161-.362.107-.659.26-.891.457-.231.198-.406.433-.525.704-.118.271-.178.564-.178.881 0 .441.113.812.339 1.11.227.3.52.562.882.788.361.227.773.43 1.237.61.463.181.935.367 1.415.56s.955.406 1.424.644.884.525 1.246.864c.361.34.652.746.872 1.221.219.476.329 1.041.329 1.696z"/><path d="m200.441 196.073c0 .779-.144 1.475-.432 2.084-.288.61-.698 1.125-1.229 1.543s-1.163.734-1.897.949c-.735.214-1.543.322-2.424.322-.543 0-1.06-.043-1.551-.128-.492-.084-.933-.192-1.322-.321-.39-.13-.721-.266-.991-.407-.271-.142-.47-.269-.594-.381-.124-.113-.215-.271-.271-.475-.057-.204-.084-.48-.084-.831 0-.215.011-.396.033-.542.022-.147.051-.266.085-.356s.082-.155.145-.194c.062-.04.132-.06.212-.06.124 0 .308.076.551.229.242.152.542.319.897.5.356.181.777.348 1.264.5.485.152 1.045.229 1.678.229.475 0 .903-.052 1.288-.153.384-.102.717-.251 1-.449.282-.197.5-.449.652-.754s.229-.667.229-1.085c0-.429-.109-.791-.33-1.085-.221-.293-.512-.553-.873-.779s-.769-.427-1.221-.602c-.451-.175-.918-.358-1.397-.551-.48-.192-.949-.409-1.407-.652s-.867-.54-1.229-.891c-.362-.35-.653-.768-.873-1.254-.221-.485-.331-1.067-.331-1.746 0-.599.116-1.172.348-1.72s.579-1.028 1.043-1.44c.463-.413 1.042-.743 1.737-.992.694-.248 1.505-.373 2.432-.373.407 0 .813.034 1.221.103.406.067.773.152 1.102.254.327.102.607.212.839.33.231.119.407.224.525.313.119.091.197.17.237.237.04.068.068.145.085.229s.034.189.051.313.025.276.025.457c0 .192-.009.359-.025.5-.017.142-.045.258-.085.348-.04.091-.088.155-.144.195-.057.039-.119.06-.187.06-.102 0-.249-.062-.441-.187-.191-.125-.44-.257-.745-.398-.306-.142-.664-.274-1.076-.398-.413-.124-.885-.187-1.416-.187-.474 0-.893.054-1.254.161s-.658.26-.89.457c-.231.198-.407.433-.525.704-.119.271-.178.564-.178.881 0 .441.112.812.339 1.11.226.3.52.562.881.788.361.227.774.43 1.237.61.464.181.936.367 1.416.56.479.192.954.406 1.423.644s.885.525 1.246.864c.361.34.652.746.873 1.221s.328 1.041.328 1.696z"/><path d="m217.459 191.938c0 .44-.111.754-.332.94-.222.187-.475.279-.758.279h-10.046c0 .848.085 1.61.255 2.288.171.679.454 1.261.852 1.746.397.486.914.859 1.55 1.119s1.414.39 2.334.39c.727 0 1.373-.06 1.941-.178.567-.119 1.059-.252 1.473-.398.415-.147.756-.28 1.022-.398.267-.119.469-.178.604-.178.08 0 .15.02.213.059.062.04.11.1.145.179s.06.188.077.33.025.313.025.517c0 .147-.006.274-.017.382-.012.107-.025.203-.043.288-.017.085-.045.161-.084.229-.04.068-.091.133-.153.195s-.245.164-.551.305c-.305.142-.7.28-1.187.415-.485.136-1.048.258-1.687.365-.638.106-1.319.161-2.042.161-1.254 0-2.354-.176-3.297-.526s-1.737-.869-2.381-1.559c-.645-.689-1.13-1.554-1.458-2.594-.328-1.039-.491-2.248-.491-3.627 0-1.311.169-2.488.509-3.534.339-1.045.827-1.932 1.466-2.661.638-.729 1.409-1.288 2.313-1.678.903-.39 1.915-.585 3.034-.585 1.197 0 2.217.192 3.059.577.842.384 1.534.9 2.077 1.551.542.649.94 1.412 1.194 2.288.254.875.382 1.811.382 2.805v.508zm-2.814-.831c.033-1.469-.294-2.621-.981-3.457s-1.708-1.255-3.061-1.255c-.693 0-1.302.131-1.825.391-.522.26-.96.604-1.312 1.033-.353.43-.626.93-.819 1.5-.193.571-.301 1.167-.323 1.788z"/><path d="m234.848 200.226c0 .091-.023.167-.068.229s-.118.116-.22.161c-.103.045-.243.079-.424.102-.182.022-.407.034-.679.034-.282 0-.514-.012-.694-.034s-.322-.057-.424-.102-.176-.099-.221-.161-.067-.138-.067-.229v-8.933c0-.87-.068-1.57-.203-2.102-.136-.531-.334-.988-.594-1.373-.26-.384-.596-.678-1.009-.881-.412-.204-.89-.306-1.432-.306-.701 0-1.401.249-2.102.746s-1.436 1.227-2.204 2.187v10.661c0 .091-.022.167-.067.229s-.118.116-.221.161c-.102.045-.243.079-.423.102-.182.022-.413.034-.695.034-.271 0-.497-.012-.678-.034-.182-.022-.325-.057-.433-.102s-.181-.099-.221-.161c-.039-.062-.059-.138-.059-.229v-15.255c0-.09.017-.166.051-.229.033-.062.102-.118.203-.169s.231-.085.39-.103c.158-.017.367-.025.627-.025.249 0 .455.009.619.025.164.018.291.052.381.103.091.051.155.107.195.169.039.062.06.139.06.229v2.018c.858-.961 1.714-1.664 2.567-2.11s1.715-.67 2.585-.67c1.017 0 1.873.173 2.567.518.695.345 1.257.805 1.687 1.381s.737 1.252.924 2.025c.187.774.28 1.704.28 2.788v9.306z"/><path d="m252.696 185.666c0 .396-.054.681-.161.856s-.246.263-.415.263h-2.187c.396.406.672.855.83 1.347s.237 1.003.237 1.534c0 .882-.141 1.661-.424 2.339-.282.678-.686 1.252-1.212 1.721-.525.469-1.149.828-1.872 1.076-.724.249-1.525.373-2.407.373-.621 0-1.212-.082-1.771-.246-.559-.163-.991-.37-1.296-.618-.204.203-.37.435-.5.694-.131.261-.195.56-.195.898 0 .396.184.724.551.983s.856.401 1.466.424l3.983.169c.757.023 1.452.127 2.085.313s1.181.452 1.644.797c.464.345.825.769 1.085 1.271s.39 1.087.39 1.754c0 .7-.146 1.367-.44 2s-.743 1.189-1.348 1.67c-.604.479-1.376.858-2.313 1.135-.938.277-2.045.416-3.322.416-1.231 0-2.279-.104-3.144-.313-.864-.21-1.573-.495-2.127-.856s-.955-.794-1.204-1.297c-.248-.503-.372-1.048-.372-1.635 0-.373.045-.735.135-1.085.091-.351.229-.684.416-1s.418-.619.694-.907c.277-.288.596-.573.958-.855-.554-.282-.964-.639-1.229-1.068-.266-.429-.398-.893-.398-1.39 0-.689.141-1.305.424-1.848.282-.542.632-1.027 1.051-1.457-.351-.418-.627-.891-.831-1.416-.203-.525-.305-1.16-.305-1.906 0-.87.146-1.649.44-2.339s.7-1.271 1.221-1.746c.52-.475 1.144-.839 1.873-1.093.729-.255 1.522-.382 2.381-.382.463 0 .896.025 1.297.076.4.051.776.122 1.127.212h4.61c.191 0 .336.094.432.28.095.186.143.472.143.856zm-2.966 16.102c0-.655-.269-1.161-.806-1.517-.536-.356-1.263-.545-2.178-.568l-3.949-.135c-.361.282-.658.551-.89.805s-.415.497-.551.729-.229.461-.28.687c-.051.227-.076.458-.076.695 0 .734.373 1.291 1.119 1.669.745.379 1.785.568 3.118.568.848 0 1.557-.082 2.127-.246.571-.164 1.031-.381 1.382-.652.35-.271.602-.582.754-.933.154-.35.23-.718.23-1.102zm-1.407-12.085c0-1.039-.285-1.85-.855-2.432-.571-.582-1.382-.873-2.433-.873-.542 0-1.015.091-1.415.271-.401.181-.734.43-1 .745-.266.316-.464.682-.594 1.094s-.194.845-.194 1.297c0 1.006.285 1.796.855 2.372s1.37.865 2.398.865c.554 0 1.034-.088 1.44-.263.407-.176.743-.418 1.009-.729s.463-.669.593-1.076c.131-.406.196-.83.196-1.271z"/><path d="m269.018 191.938c0 .44-.111.754-.332.94-.222.187-.475.279-.758.279h-10.046c0 .848.085 1.61.255 2.288.171.679.454 1.261.852 1.746.397.486.914.859 1.55 1.119s1.414.39 2.334.39c.727 0 1.373-.06 1.941-.178.567-.119 1.059-.252 1.473-.398.415-.147.756-.28 1.022-.398.267-.119.469-.178.604-.178.08 0 .15.02.213.059.062.04.11.1.145.179s.06.188.077.33.025.313.025.517c0 .147-.006.274-.017.382-.012.107-.025.203-.043.288-.017.085-.045.161-.084.229-.04.068-.091.133-.153.195s-.245.164-.551.305c-.305.142-.7.28-1.187.415-.485.136-1.048.258-1.687.365-.638.106-1.319.161-2.042.161-1.254 0-2.354-.176-3.297-.526s-1.737-.869-2.381-1.559c-.645-.689-1.13-1.554-1.458-2.594-.328-1.039-.491-2.248-.491-3.627 0-1.311.169-2.488.509-3.534.339-1.045.827-1.932 1.466-2.661.638-.729 1.409-1.288 2.313-1.678.903-.39 1.915-.585 3.034-.585 1.197 0 2.217.192 3.059.577.842.384 1.534.9 2.077 1.551.542.649.94 1.412 1.194 2.288.254.875.382 1.811.382 2.805v.508zm-2.813-.831c.033-1.469-.294-2.621-.981-3.457s-1.708-1.255-3.061-1.255c-.693 0-1.302.131-1.825.391-.522.26-.96.604-1.312 1.033-.353.43-.626.93-.819 1.5-.193.571-.301 1.167-.323 1.788z"/><path d="m282.187 185.971c0 .249-.006.458-.017.628-.012.169-.034.302-.068.397-.034.097-.076.17-.127.221s-.121.076-.212.076-.2-.025-.33-.076c-.131-.051-.277-.102-.441-.152-.163-.051-.347-.099-.551-.145-.203-.045-.424-.067-.661-.067-.282 0-.559.057-.83.17-.271.112-.557.299-.855.559-.3.261-.613.604-.941 1.034-.327.43-.689.955-1.085 1.576v10.034c0 .091-.022.167-.067.229s-.118.116-.221.161c-.102.045-.243.079-.423.102-.182.022-.413.034-.695.034-.271 0-.497-.012-.678-.034-.182-.022-.325-.057-.433-.102s-.181-.099-.221-.161c-.039-.062-.059-.138-.059-.229v-15.255c0-.09.017-.166.051-.229.033-.062.102-.118.203-.169s.231-.085.39-.103c.158-.017.367-.025.627-.025.249 0 .455.009.619.025.164.018.291.052.381.103.091.051.155.107.195.169.039.062.06.139.06.229v2.221c.418-.61.811-1.107 1.178-1.491s.715-.687 1.042-.907c.328-.22.653-.373.975-.457.322-.085.647-.128.975-.128.147 0 .313.009.5.025.187.018.382.049.585.094s.387.096.551.152.28.113.348.17.113.109.136.161c.022.051.042.115.06.194.017.079.027.195.033.348s.006.358.006.618z"/><path d="m69.606 200.208c0 .091-.023.17-.07.237-.046.068-.128.122-.245.161-.116.04-.265.073-.445.102-.181.028-.416.043-.707.043-.268 0-.498-.015-.689-.043s-.343-.062-.454-.102c-.111-.039-.189-.093-.236-.161-.046-.067-.069-.146-.069-.237v-19.102h-.034l-7.729 19.187c-.034.079-.082.147-.144.204s-.153.104-.271.144-.26.067-.424.085c-.164.017-.358.025-.584.025-.237 0-.441-.012-.61-.034s-.311-.054-.424-.093c-.113-.04-.201-.088-.263-.145s-.104-.118-.127-.187l-7.39-19.187h-.017v19.102c0 .091-.023.17-.07.237-.047.068-.128.122-.245.161-.117.04-.268.073-.454.102-.186.028-.424.043-.715.043-.279 0-.512-.015-.698-.043-.187-.028-.334-.062-.445-.102-.111-.039-.186-.093-.227-.161-.041-.067-.061-.146-.061-.237v-20.169c0-.475.126-.813.379-1.018.252-.203.533-.305.843-.305h1.79c.367 0 .688.034.964.102.275.068.516.176.723.322s.378.333.516.56c.138.226.258.491.362.796l6.271 15.882h.085l6.525-15.83c.126-.34.264-.628.413-.865s.313-.426.491-.567c.178-.142.375-.243.594-.305.218-.062.471-.094.758-.094h1.877c.172 0 .335.025.491.076.155.051.287.13.396.237s.198.243.267.407.103.364.103.602v20.17z" stroke="#5b5c5e" stroke-miterlimit="10" stroke-width=".5"/><path d="m88.132 191.938c0 .44-.111.754-.332.94-.222.187-.474.279-.758.279h-10.046c0 .848.085 1.61.255 2.288.17.679.454 1.261.852 1.746.397.486.914.859 1.55 1.119s1.414.39 2.333.39c.727 0 1.374-.06 1.941-.178.568-.119 1.059-.252 1.473-.398.415-.147.755-.28 1.022-.398.267-.119.469-.178.605-.178.08 0 .15.02.213.059.062.04.11.1.145.179s.06.188.077.33.026.313.026.517c0 .147-.006.274-.017.382s-.025.203-.042.288-.045.161-.084.229c-.04.068-.091.133-.153.195s-.246.164-.551.305c-.305.142-.701.28-1.187.415-.486.136-1.048.258-1.687.365-.638.106-1.319.161-2.042.161-1.254 0-2.354-.176-3.297-.526s-1.737-.869-2.381-1.559-1.13-1.554-1.458-2.594c-.328-1.039-.492-2.248-.492-3.627 0-1.311.169-2.488.509-3.534.339-1.045.827-1.932 1.466-2.661.638-.729 1.41-1.288 2.313-1.678s1.916-.585 3.034-.585c1.197 0 2.217.192 3.059.577.842.384 1.534.9 2.077 1.551.542.649.94 1.412 1.195 2.288.254.875.381 1.811.381 2.805v.508zm-2.814-.831c.034-1.469-.293-2.621-.981-3.457s-1.708-1.255-3.061-1.255c-.693 0-1.302.131-1.825.391s-.96.604-1.313 1.033c-.353.43-.625.93-.819 1.5-.193.571-.301 1.167-.324 1.788z" stroke="#5b5c5e" stroke-miterlimit="10" stroke-width=".5"/><path d="m105.521 200.226c0 .091-.023.167-.068.229s-.119.116-.22.161c-.102.045-.243.079-.424.102-.181.022-.407.034-.678.034-.282 0-.514-.012-.695-.034s-.322-.057-.424-.102-.175-.099-.22-.161-.068-.138-.068-.229v-8.933c0-.87-.068-1.57-.203-2.102-.136-.531-.333-.988-.593-1.373-.26-.384-.596-.678-1.009-.881-.413-.204-.89-.306-1.432-.306-.701 0-1.401.249-2.102.746s-1.435 1.227-2.204 2.187v10.661c0 .091-.022.167-.067.229s-.119.116-.221.161-.243.079-.423.102c-.181.022-.413.034-.695.034-.271 0-.497-.012-.678-.034s-.325-.057-.432-.102c-.108-.045-.181-.099-.221-.161s-.059-.138-.059-.229v-15.255c0-.09.017-.166.051-.229.034-.062.102-.118.204-.169s.231-.085.39-.103c.158-.017.367-.025.627-.025.249 0 .455.009.619.025.164.018.291.052.381.103s.155.107.195.169c.039.062.059.139.059.229v2.018c.858-.961 1.714-1.664 2.568-2.11.853-.446 1.714-.67 2.584-.67 1.017 0 1.873.173 2.568.518s1.257.805 1.687 1.381c.429.576.737 1.252.924 2.025.187.774.28 1.704.28 2.788v9.306z" stroke="#5b5c5e" stroke-miterlimit="10" stroke-width=".5"/><path d="m122.115 200.242c0 .136-.045.237-.136.306-.091.067-.215.118-.373.152s-.39.051-.695.051c-.294 0-.528-.017-.703-.051s-.303-.085-.381-.152c-.08-.068-.119-.17-.119-.306v-1.525c-.667.712-1.41 1.266-2.229 1.661s-1.687.594-2.602.594c-.803 0-1.528-.105-2.178-.314s-1.203-.511-1.661-.906c-.458-.396-.813-.882-1.067-1.458s-.381-1.231-.381-1.966c0-.858.175-1.604.525-2.237s.853-1.158 1.508-1.576 1.458-.731 2.407-.94 2.017-.313 3.204-.313h2.102v-1.187c0-.588-.062-1.107-.187-1.56-.125-.452-.325-.828-.602-1.127-.277-.3-.636-.525-1.076-.679-.441-.152-.983-.229-1.627-.229-.689 0-1.308.082-1.856.246s-1.028.345-1.44.542c-.413.198-.757.379-1.034.543-.277.163-.483.245-.619.245-.09 0-.169-.022-.237-.067-.067-.045-.127-.113-.178-.203-.051-.091-.088-.206-.11-.348s-.034-.297-.034-.467c0-.282.02-.505.059-.669s.136-.319.288-.466c.153-.147.416-.319.789-.518.373-.197.802-.378 1.288-.542.485-.164 1.017-.3 1.593-.407s1.158-.161 1.746-.161c1.096 0 2.028.125 2.796.373.769.249 1.39.613 1.865 1.094s.819 1.076 1.034 1.788c.214.712.322 1.542.322 2.491v10.288zm-2.78-6.965h-2.39c-.769 0-1.436.065-2 .194-.565.131-1.034.322-1.407.577-.373.254-.647.559-.822.915-.175.355-.263.766-.263 1.229 0 .791.251 1.421.754 1.89.502.47 1.206.704 2.11.704.734 0 1.416-.187 2.042-.56s1.285-.943 1.975-1.712v-3.237z" stroke="#5b5c5e" stroke-miterlimit="10" stroke-width=".5"/></g><path d="m151.977 163.427c-4.297-.139-7.783-3.182-8.176-7.053h-5.136c.133 6.739 5.639 12.165 12.423 12.165h.889z" fill="#4480c2"/><path d="m175.373 163.441h-23.289c-.098 0-.193-.009-.291-.012v5.111h23.58z" fill="#4480c2"/><path d="m181.855 144.503c.001.049.008.097.008.146v18.792h-7.142v5.099h12.25v-24.036h-5.116z" fill="#4480c2"/><path d="m138.659 156.375h.006c-.002-.083-.012-.164-.012-.247 0 .083.004.164.006.247z" fill="#4480c2"/><path d="m143.761 144.43c0-.051.007-.101.008-.152h-5.116v12.074c0 .087.011.17.012.256h5.136c-.024-.249-.04-.501-.04-.757z" fill="#4480c2"/><path d="m174.45 131.756h-22.478v5.102c.024 0 .047-.003.071-.003h21.206c4.684 0 8.484 3.412 8.571 7.649h5.152v-.336c-.001-6.855-5.607-12.412-12.522-12.412z" fill="#4480c2"/><path d="m152.186 131.756h-1.098c-6.868 0-12.436 5.557-12.436 12.412v.31h5.118c.1-4.196 3.818-7.572 8.416-7.619z" fill="#4480c2"/><path d="m151.977 163.427c-4.297-.139-7.783-3.182-8.176-7.053h-5.136c.133 6.739 5.639 12.165 12.423 12.165h.889z" fill="#4480c2"/><path d="m175.373 163.441h-23.289c-.098 0-.193-.009-.291-.012v5.111h23.58z" fill="#4480c2"/><path d="m181.855 144.503c.001.049.008.097.008.146v18.792h-7.142v5.099h12.25v-24.036h-5.116z" fill="#e52e25"/><path d="m138.659 156.375h.006c-.002-.083-.012-.164-.012-.247 0 .083.004.164.006.247z" fill="#4480c2"/><path d="m143.761 144.43c0-.051.007-.101.008-.152h-5.116v12.074c0 .087.011.17.012.256h5.136c-.024-.249-.04-.501-.04-.757z" fill="#4480c2"/><path d="m174.536 131.756h-22.324v5.102c.024 0 .046-.003.07-.003h21.061c4.652 0 8.427 3.412 8.513 7.649h5.116v-.336c-.001-6.855-5.568-12.412-12.436-12.412z" fill="#f89820"/><path d="m152.186 131.756h-1.098c-6.868 0-12.436 5.557-12.436 12.412v.31h5.118c.1-4.196 3.818-7.572 8.416-7.619z" fill="#33a852"/></svg>