<svg xmlns="http://www.w3.org/2000/svg" width="28" height="28" fill="none" viewBox="0 0 28 28">
  <path fill="#B2B3B5" d="M15.748 6c1.528 0 2.082.16 2.64.458.56.299.998.737 1.297 1.296.299.559.458 1.113.458 2.641v7.21c0 1.528-.16 2.082-.458 2.641a3.116 3.116 0 0 1-1.296 1.296c-.559.299-1.113.458-2.641.458H7.395c-1.528 0-2.082-.16-2.641-.458a3.116 3.116 0 0 1-1.296-1.296C3.159 19.687 3 19.133 3 17.605v-7.21c0-1.528.16-2.082.458-2.641a3.115 3.115 0 0 1 1.296-1.296C5.313 6.159 5.867 6 7.395 6h8.353ZM26.77 9.31c.149.199.229.44.229.687v8.006a1.143 1.143 0 0 1-1.83.914l-2.513-1.888a.572.572 0 0 1-.228-.457v-5.144a.57.57 0 0 1 .228-.457l2.514-1.888a1.143 1.143 0 0 1 1.6.228Z"/>
</svg>
