<svg xmlns="http://www.w3.org/2000/svg" width="28" height="28" fill="none" viewBox="0 0 28 28">
  <g clip-path="url(#a)">
    <path fill="#B2B3B5" d="M15 22.47v3.03a1 1 0 1 1-2 0v-3.03a9.253 9.253 0 0 1-8.292-7.261 1 1 0 0 1 1.955-.422A7.253 7.253 0 0 0 13.75 20.5h.5a7.253 7.253 0 0 0 7.087-5.712 1 1 0 1 1 1.955.422A9.253 9.253 0 0 1 15 22.47ZM14 2a5 5 0 0 1 5 5v6a5 5 0 0 1-10 0V7a5 5 0 0 1 5-5Z"/>
  </g>
  <defs>
    <clipPath id="a">
      <path fill="#fff" d="M0 0h28v28H0z"/>
    </clipPath>
  </defs>
</svg>
