<svg xmlns="http://www.w3.org/2000/svg" width="28" height="28" fill="none" viewBox="0 0 28 28">
  <g clip-path="url(#a)">
    <path fill="url(#b)" d="M0 14C0 6.268 6.268 0 14 0s14 6.268 14 14-6.268 14-14 14S0 21.732 0 14Z"/>
    <path fill="#fff" d="M6.568 8.482c-.068.255-.068.565-.068 1.185 0 .31 0 .465.034.592a1 1 0 0 0 .707.707c.127.034.282.034.592.034h12.334c.31 0 .465 0 .592-.034a1 1 0 0 0 .707-.707c.034-.127.034-.282.034-.592 0-.62 0-.93-.068-1.185a2 2 0 0 0-1.414-1.414C19.763 7 19.453 7 18.833 7H9.167c-.62 0-.93 0-1.185.068a2 2 0 0 0-1.414 1.414Z"/>
    <path fill="#fff" fill-rule="evenodd" d="M8 14.1c0-.56 0-.84.109-1.054a1 1 0 0 1 .437-.437C8.76 12.5 9.04 12.5 9.6 12.5h8.8c.56 0 .84 0 1.054.109a1 1 0 0 1 .437.437C20 13.26 20 13.54 20 14.1v2.1c0 1.68 0 2.52-.327 3.162a3 3 0 0 1-1.311 1.311C17.72 21 16.88 21 15.2 21h-2.4c-1.68 0-2.52 0-3.162-.327a3 3 0 0 1-1.311-1.311C8 18.72 8 17.88 8 16.2v-2.1Zm3.5.65a.75.75 0 0 1 .75-.75h3.5a.75.75 0 0 1 0 1.5h-3.5a.75.75 0 0 1-.75-.75Z" clip-rule="evenodd"/>
  </g>
  <defs>
    <linearGradient id="b" x1="-14" x2="14" y1="14" y2="42" gradientUnits="userSpaceOnUse">
      <stop stop-color="#B1B6BD"/>
      <stop offset="1" stop-color="#99A2AD"/>
    </linearGradient>
    <clipPath id="a">
      <path fill="#fff" d="M0 0h28v28H0z"/>
    </clipPath>
  </defs>
</svg>
