<svg width="12" height="12" viewBox="0 0 12 12" fill="none" xmlns="http://www.w3.org/2000/svg">
<g id="Icon/Left" clip-path="url(#clip0_2980_71436)">
<g id="Group">
<path id="Vector" fill-rule="evenodd" clip-rule="evenodd" d="M3.65419 1.13985C3.83503 0.959017 4.0803 0.857422 4.33603 0.857422H7.66063C7.91635 0.857422 8.16163 0.959015 8.34246 1.13985L10.8588 3.65614C11.0396 3.83698 11.1412 4.08225 11.1412 4.33798V7.66258C11.1412 7.91831 11.0396 8.16358 10.8588 8.34441L8.34248 10.8607C8.16165 11.0415 7.91638 11.1431 7.66063 11.1431H4.33605C4.0803 11.1431 3.83503 11.0415 3.65419 10.8607L1.1379 8.34441C0.957064 8.16358 0.855469 7.91831 0.855469 7.66258V4.33798C0.855469 4.08225 0.957064 3.83698 1.1379 3.65614L3.65419 1.13985ZM4.33603 1.50028C4.25078 1.50028 4.16903 1.53414 4.10875 1.59442L1.59247 4.11071C1.53219 4.17099 1.49833 4.25274 1.49833 4.33798V7.66258C1.49833 7.74782 1.53219 7.82957 1.59247 7.88985L4.10875 10.4061C4.16903 10.4664 4.2508 10.5003 4.33605 10.5003H7.66063C7.74587 10.5003 7.82764 10.4664 7.88792 10.4061L10.4042 7.88985C10.4645 7.82957 10.4983 7.74782 10.4983 7.66258V4.33798C10.4983 4.25274 10.4645 4.17099 10.4042 4.11071L7.8879 1.59442C7.82762 1.53414 7.74587 1.50028 7.66063 1.50028H4.33603Z" fill="#2688EB"/>
<path id="Vector_2" d="M6.42746 7.7147C6.42746 7.478 6.23558 7.28613 5.99888 7.28613C5.76218 7.28613 5.57031 7.478 5.57031 7.7147C5.57031 7.9514 5.76218 8.14328 5.99888 8.14328C6.23558 8.14328 6.42746 7.9514 6.42746 7.7147Z" fill="#2688EB"/>
<path id="Vector_3" d="M6.31864 3.85756C6.31864 3.68005 6.17472 3.53613 5.99721 3.53613C5.83013 3.53613 5.69284 3.66361 5.67726 3.8266L5.67578 3.85756V6.2147C5.67578 6.39222 5.8197 6.53613 5.99721 6.53613C6.16429 6.53613 6.30158 6.40865 6.31716 6.24567L6.31864 6.2147V3.85756Z" fill="#2688EB"/>
</g>
</g>
<defs>
<clipPath id="clip0_2980_71436">
<rect width="12" height="12" fill="white"/>
</clipPath>
</defs>
</svg>
