<svg width="31" height="17" viewBox="0 0 31 17" fill="none" xmlns="http://www.w3.org/2000/svg">
<path d="M23.3721 12.1279C23.4108 12.1666 23.4567 12.1973 23.5073 12.2183C23.5578 12.2392 23.612 12.25 23.6667 12.25C23.7215 12.25 23.7757 12.2392 23.8262 12.2183C23.8768 12.1973 23.9227 12.1666 23.9614 12.1279L27.2947 8.79459C27.3334 8.7559 27.3641 8.70996 27.3851 8.6594C27.406 8.60884 27.4168 8.55465 27.4168 8.49992C27.4168 8.4452 27.406 8.39101 27.3851 8.34045C27.3641 8.28989 27.3334 8.24395 27.2947 8.20526L23.9614 4.87192C23.9227 4.83323 23.8768 4.80253 23.8262 4.78159C23.7757 4.76065 23.7215 4.74987 23.6667 4.74987C23.612 4.74987 23.5578 4.76065 23.5073 4.78159C23.4567 4.80253 23.4108 4.83323 23.3721 4.87192C23.3334 4.91062 23.3027 4.95656 23.2817 5.00712C23.2608 5.05768 23.25 5.11187 23.25 5.16659C23.25 5.22131 23.2608 5.2755 23.2817 5.32606C23.3027 5.37662 23.3334 5.42256 23.3721 5.46126L26.4107 8.49992L23.3721 11.5386C23.3334 11.5773 23.3027 11.6232 23.2817 11.6738C23.2608 11.7243 23.25 11.7785 23.25 11.8333C23.25 11.888 23.2608 11.9422 23.2817 11.9927C23.3027 12.0433 23.3334 12.0892 23.3721 12.1279Z" fill="#A3A3A3"/>
<rect width="9" height="8" transform="matrix(-1 0 0 1 19 0)" fill="#2688EB"/>
<rect width="9" height="8" transform="matrix(-1 0 0 1 19 9)" fill="#2688EB"/>
<rect width="9" height="8" transform="matrix(-1 0 0 1 9 0)" fill="#2688EB"/>
<rect width="9" height="8" transform="matrix(-1 0 0 1 9 9)" fill="#2688EB"/>
</svg>
