<svg width="40" height="40" viewBox="0 0 40 40" fill="none"
    xmlns="http://www.w3.org/2000/svg">
    <path d="M12.1092 11.6925C12.0268 11.604 11.9275 11.5331 11.8171 11.4839C11.7067 11.4347 11.5875 11.4083 11.4667 11.4061C11.3458 11.404 11.2258 11.4262 11.1137 11.4715C11.0016 11.5168 10.8998 11.5841 10.8144 11.6696C10.7289 11.7551 10.6615 11.8569 10.6163 11.9689C10.571 12.081 10.5488 12.201 10.5509 12.3219C10.5531 12.4427 10.5795 12.5619 10.6287 12.6723C10.6779 12.7827 10.7488 12.8821 10.8372 12.9645L27.0372 29.1645C27.2074 29.3265 27.4341 29.4156 27.6691 29.4128C27.904 29.4099 28.1285 29.3152 28.2946 29.149C28.4607 28.9828 28.5552 28.7582 28.558 28.5233C28.5607 28.2883 28.4714 28.0616 28.3092 27.8916L12.1092 11.6925Z" fill="white"/>
    <path d="M13.7106 20.6747C13.6627 20.4525 13.5284 20.2584 13.3374 20.1352C13.1463 20.012 12.9141 19.9697 12.6919 20.0177C12.4697 20.0656 12.2757 20.1999 12.1524 20.391C12.0292 20.582 11.987 20.8142 12.0349 21.0364C12.3957 22.6987 13.2813 24.2009 14.5611 25.3214C15.8409 26.4419 17.447 27.1213 19.1424 27.2592V29.8572C19.1424 30.0846 19.2327 30.3026 19.3934 30.4633C19.5542 30.6241 19.7722 30.7144 19.9995 30.7144C20.2268 30.7144 20.4448 30.6241 20.6056 30.4633C20.7663 30.3026 20.8566 30.0846 20.8566 29.8572V27.2601C22.6306 27.1167 24.3046 26.3799 25.6086 25.1687L24.3958 23.955C23.2519 24.996 21.7605 25.5725 20.2138 25.5715H19.7852C18.3658 25.5714 16.9891 25.0856 15.8841 24.1947C14.779 23.3039 14.012 22.0617 13.7106 20.6747ZM25.8572 21.9655C25.6918 22.3221 25.7389 22.7524 26.0175 23.031L26.0501 23.0635C26.4315 23.445 27.0675 23.3841 27.3084 22.9024C27.5998 22.3195 27.8218 21.6955 27.9641 21.0372C28.012 20.815 27.9698 20.5829 27.8466 20.3918C27.7233 20.2008 27.5293 20.0665 27.3071 20.0185C27.0849 19.9706 26.8527 20.0128 26.6616 20.136C26.4706 20.2593 26.3363 20.4533 26.2884 20.6755C26.1925 21.1201 26.0479 21.5527 25.8572 21.9655ZM24.2449 19.7327C24.1635 20.325 23.4512 20.4647 23.0278 20.0412L16.2135 13.227C15.9966 13.0101 15.9058 12.6904 16.0206 12.4058C16.3923 11.4829 17.0733 10.7179 17.9471 10.242C18.8209 9.76608 19.8329 9.60889 20.8099 9.79735C21.7868 9.98581 22.6678 10.5082 23.3019 11.2749C23.9359 12.0417 24.2836 13.0051 24.2852 14.0001V19.143C24.2852 19.3427 24.2715 19.5398 24.2449 19.7327Z" fill="white"/>
    <path d="M15.7148 15.2729L22.8163 22.3744C22.1961 22.9149 21.4334 23.2654 20.6194 23.3842C19.8053 23.503 18.9743 23.385 18.2255 23.0443C17.4767 22.7035 16.8418 22.1545 16.3966 21.4627C15.9514 20.7709 15.7148 19.9656 15.7148 19.1429V15.2729Z" fill="white"/>
</svg>
