<svg width="40" height="40" viewBox="0 0 40 40" fill="none"
    xmlns="http://www.w3.org/2000/svg">

    <path d="M11.329 10.671C10.9106 10.2526 10.2322 10.2526 9.81382 10.671C9.39539 11.0894 9.39539 11.7678 9.81382 12.1862L11.538 13.9104C11.3074 14.1177 11.1149 14.3641 10.9639 14.6463C10.7078 15.1252 10.5714 15.6002 10.5714 16.9102V23.0899C10.5714 24.3998 10.7078 24.8749 10.9639 25.3537C11.2201 25.8327 11.5959 26.2085 12.0748 26.4647C12.5538 26.7208 13.0288 26.8572 14.3388 26.8572H21.4979C22.8079 26.8572 23.2829 26.7208 23.7619 26.4647C23.8334 26.4264 23.9027 26.3855 23.9695 26.3419L26.0995 28.4719C26.518 28.8903 27.1963 28.8903 27.6148 28.4719C28.0331 28.0535 28.0331 27.3751 27.6148 26.9567L11.329 10.671Z" fill="white"/>
    <path d="M25.2636 16.9101V20.1802C25.2636 20.7147 24.6173 20.9824 24.2393 20.6044L17.8019 14.1671C17.4239 13.7891 17.6917 13.1428 18.2262 13.1428H21.4962C22.8062 13.1428 23.2812 13.2792 23.7602 13.5353C24.2391 13.7915 24.6149 14.1673 24.8711 14.6462C25.1272 15.1251 25.2636 15.6002 25.2636 16.9101Z" fill="white"/>
    <path d="M30.9447 15.9807C31.0721 16.1504 31.141 16.3568 31.141 16.569V23.4312C31.141 23.9722 30.7024 24.4108 30.1614 24.4108C29.9492 24.4108 29.7427 24.3418 29.5731 24.2145L27.4183 22.596C27.2951 22.5034 27.2227 22.3584 27.2227 22.2044V17.7958C27.2227 17.6417 27.2951 17.4967 27.4183 17.4041L29.5731 15.7857C30.0057 15.4608 30.6198 15.5481 30.9447 15.9807Z" fill="white"/>
</svg>
