<svg width="40" height="40" viewBox="0 0 40 40" fill="none"
    xmlns="http://www.w3.org/2000/svg">
    <g clip-path="url(#clip0_2980_70302)">
        <path d="M26.2011 15.5066C29.0175 16.5176 31 18.9322 31 21.75C31 23.5873 30.1572 25.2532 28.7887 26.4681C28.9346 27.1714 29.2605 28.0489 29.7664 29.1006L29.9133 29.4008L29.942 29.4766C29.9898 29.6564 29.9065 29.851 29.7334 29.9371C29.6495 29.9788 29.5536 29.9898 29.4624 29.968C27.6684 29.5399 26.3394 28.9565 25.4761 28.2174C24.771 28.4012 24.0238 28.5 23.25 28.5C20.4642 28.5 18.0218 27.2198 16.6558 25.2981L16.75 25.3C21.9733 25.3 26.3 21.5316 26.3 16.75C26.3 16.3272 26.2662 15.9124 26.2011 15.5066ZM16.75 10C21.0302 10 24.5 13.0221 24.5 16.75C24.5 20.4779 21.0302 23.5 16.75 23.5C15.9762 23.5 15.229 23.4012 14.5239 23.2174C13.6606 23.9565 12.3316 24.5399 10.5376 24.968C10.4464 24.9898 10.3505 24.9788 10.2666 24.9371C10.0935 24.851 10.0102 24.6564 10.058 24.4766L10.0867 24.4008L10.2336 24.1006C10.7395 23.0489 11.0654 22.1714 11.2113 21.4681C9.84281 20.2532 9 18.5873 9 16.75C9 13.0221 12.4698 10 16.75 10Z" fill="white"/>
    </g>
    <defs>
        <clipPath id="clip0_2980_70302">
            <rect width="24" height="24" fill="white" transform="translate(8 8)"/>
        </clipPath>
    </defs>
</svg>
