<svg width="40" height="40" viewBox="0 0 40 40" fill="none" xmlns="http://www.w3.org/2000/svg">
<rect width="40" height="40" rx="20" fill="#01BC62"/>
<path d="M17.2092 11.0625C17.5325 11.0496 17.8373 10.9088 18.0567 10.6711C18.2762 10.4334 18.3922 10.1182 18.3792 9.795C18.3663 9.47177 18.2255 9.16691 17.9878 8.94749C17.7501 8.72807 17.435 8.61207 17.1117 8.625C16.0994 8.66562 15.3161 8.79237 14.593 9.01987C13.2847 9.4317 12.095 10.1529 11.1247 11.1223C10.1544 12.0917 9.4322 13.2808 9.01923 14.5887C8.78848 15.32 8.6731 16.1097 8.63085 17.1108C8.61727 17.434 8.73266 17.7494 8.95162 17.9875C9.17058 18.2257 9.47518 18.3671 9.79841 18.3807C10.1216 18.3943 10.437 18.2789 10.6752 18.0599C10.9134 17.841 11.0548 17.5364 11.0684 17.2131C11.1041 16.3437 11.1984 15.7831 11.3446 15.3216C11.6392 14.3877 12.1546 13.5386 12.8471 12.8461C13.5395 12.1536 14.3887 11.6383 15.3226 11.3436C15.7922 11.1957 16.3529 11.0934 17.2076 11.0592L17.2092 11.0625ZM22.8886 8.625C22.5654 8.61207 22.2502 8.72807 22.0125 8.94749C21.7748 9.16691 21.634 9.47177 21.6211 9.795C21.6082 10.1182 21.7242 10.4334 21.9436 10.6711C22.163 10.9088 22.4679 11.0496 22.7911 11.0625C23.6475 11.095 24.2097 11.1974 24.6761 11.3452C25.6106 11.6394 26.4604 12.1546 27.1535 12.8471C27.8465 13.5396 28.3624 14.389 28.6574 15.3232C28.802 15.7831 28.8962 16.3421 28.9336 17.2083C28.9562 17.5248 29.1014 17.8199 29.3383 18.0311C29.5752 18.2422 29.8851 18.3526 30.2021 18.3389C30.5191 18.3251 30.8182 18.1883 31.0359 17.9574C31.2536 17.7266 31.3727 17.4199 31.3679 17.1026C31.3256 16.1065 31.2119 15.32 30.9811 14.5904C30.5687 13.2825 29.847 12.0933 28.8773 11.1236C27.9076 10.154 26.7185 9.43231 25.4106 9.01987C24.6859 8.79237 23.901 8.66562 22.8886 8.62662V8.625ZM11.0635 22.8031C11.0505 22.4799 10.9097 22.175 10.672 21.9556C10.4343 21.7362 10.1192 21.6202 9.79598 21.6331C9.47274 21.6461 9.16789 21.7869 8.94847 22.0246C8.72905 22.2623 8.61305 22.5774 8.62598 22.9006C8.66823 23.9081 8.79335 24.6881 9.02085 25.4096C9.43329 26.7175 10.1549 27.9067 11.1246 28.8764C12.0943 29.846 13.2835 30.5677 14.5914 30.9801C15.3161 31.2076 16.0994 31.3344 17.1117 31.3734C17.2747 31.3852 17.4384 31.3642 17.5931 31.3115C17.7477 31.2589 17.8902 31.1756 18.0121 31.0668C18.134 30.958 18.2327 30.8257 18.3024 30.6779C18.3721 30.5302 18.4114 30.3699 18.418 30.2066C18.4245 30.0434 18.3982 29.8804 18.3405 29.7276C18.2828 29.5747 18.195 29.435 18.0822 29.3167C17.9694 29.1985 17.834 29.1041 17.6841 29.0393C17.5341 28.9744 17.3726 28.9403 17.2092 28.9391C16.3545 28.905 15.7939 28.8026 15.3242 28.6548C14.3903 28.3601 13.5412 27.8447 12.8487 27.1523C12.1562 26.4598 11.6409 25.6107 11.3462 24.6768C11.1984 24.2088 11.0976 23.6498 11.0635 22.8031ZM31.376 22.9006C31.3824 22.7406 31.3572 22.5808 31.3019 22.4305C31.2465 22.2802 31.1621 22.1423 31.0535 22.0246C30.9448 21.9069 30.8141 21.8117 30.6687 21.7446C30.5232 21.6774 30.366 21.6395 30.206 21.6331C29.8827 21.6202 29.5676 21.7362 29.3299 21.9556C29.0922 22.175 28.9514 22.4799 28.9385 22.8031C28.906 23.6498 28.8036 24.2088 28.6557 24.6768C28.3611 25.6107 27.8457 26.4598 27.1533 27.1523C26.4608 27.8447 25.6116 28.3601 24.6777 28.6548C24.2081 28.8026 23.6475 28.905 22.7927 28.9391C22.6293 28.9403 22.4679 28.9744 22.3179 29.0393C22.1679 29.1041 22.0325 29.1985 21.9198 29.3167C21.807 29.435 21.7192 29.5747 21.6615 29.7276C21.6038 29.8804 21.5774 30.0434 21.584 30.2066C21.5905 30.3699 21.6298 30.5302 21.6995 30.6779C21.7693 30.8257 21.868 30.958 21.9899 31.0668C22.1117 31.1756 22.2542 31.2589 22.4089 31.3115C22.5636 31.3642 22.7273 31.3852 22.8902 31.3734C23.901 31.3344 24.6859 31.2076 25.409 30.9801C26.7174 30.5681 27.9073 29.8467 28.8776 28.877C29.8478 27.9073 30.57 26.7179 30.9827 25.4096C31.2086 24.6898 31.3354 23.9081 31.376 22.9006ZM17.5635 18.375C17.5635 17.944 17.3923 17.5307 17.0875 17.226C16.7828 16.9212 16.3695 16.75 15.9385 16.75C15.5075 16.75 15.0942 16.9212 14.7894 17.226C14.4847 17.5307 14.3135 17.944 14.3135 18.375C14.3135 18.806 14.4847 19.2193 14.7894 19.524C15.0942 19.8288 15.5075 20 15.9385 20C16.3695 20 16.7828 19.8288 17.0875 19.524C17.3923 19.2193 17.5635 18.806 17.5635 18.375ZM24.0635 16.75C24.4945 16.75 24.9078 16.9212 25.2125 17.226C25.5173 17.5307 25.6885 17.944 25.6885 18.375C25.6885 18.806 25.5173 19.2193 25.2125 19.524C24.9078 19.8288 24.4945 20 24.0635 20C23.6325 20 23.2192 19.8288 22.9144 19.524C22.6097 19.2193 22.4385 18.806 22.4385 18.375C22.4385 17.944 22.6097 17.5307 22.9144 17.226C23.2192 16.9212 23.6325 16.75 24.0635 16.75ZM22.3995 22.1466C22.2061 22.0313 21.9851 22.0313 21.5447 22.0313H18.4572C18.0169 22.0313 17.7959 22.0313 17.6025 22.1466C17.4393 22.2553 17.3147 22.4129 17.2466 22.5968C17.1784 22.8129 17.219 22.9819 17.3002 23.3215C17.3181 23.4035 17.3426 23.4839 17.3734 23.562C17.669 24.2469 18.2215 24.7883 18.9122 25.07C19.4318 25.2803 20.0013 25.3352 20.5514 25.2279C21.1016 25.1205 21.6087 24.8557 22.0111 24.4655C22.276 24.2055 22.4856 23.9 22.6286 23.562C22.6594 23.4839 22.6838 23.4035 22.7017 23.3215C22.783 22.9819 22.8236 22.8129 22.7554 22.5968C22.6868 22.4126 22.5633 22.255 22.3995 22.1466Z" fill="white"/>
</svg>
