<svg width="12" height="12" viewBox="0 0 12 12" fill="none" xmlns="http://www.w3.org/2000/svg">
<path fill-rule="evenodd" clip-rule="evenodd" d="M4.98942 1.19995H5.54922C5.60831 1.19995 5.66683 1.21159 5.72143 1.23421C5.77602 1.25682 5.82563 1.28997 5.86742 1.33175C5.9092 1.37354 5.94235 1.42315 5.96496 1.47774C5.98758 1.53234 5.99922 1.59086 5.99922 1.64995C5.99922 1.70905 5.98758 1.76756 5.96496 1.82216C5.94235 1.87676 5.9092 1.92636 5.86742 1.96815C5.82563 2.00994 5.77602 2.04308 5.72143 2.0657C5.66683 2.08831 5.60831 2.09995 5.54922 2.09995H5.00922C4.41402 2.09995 3.99402 2.09995 3.66642 2.12695C3.34422 2.15335 3.15042 2.20315 3.00042 2.27995C2.68989 2.43815 2.43742 2.69062 2.27922 3.00115C2.20242 3.15115 2.15322 3.34495 2.12622 3.66715C2.09982 3.99475 2.09922 4.41415 2.09922 5.00995V6.98995C2.09922 7.58515 2.09922 8.00515 2.12622 8.33275C2.15262 8.65495 2.20242 8.84875 2.27922 8.99875C2.43742 9.30928 2.68989 9.56175 3.00042 9.71995C3.15042 9.79675 3.34422 9.84595 3.66642 9.87295C3.99402 9.89935 4.41402 9.89995 5.00922 9.89995H5.54622C5.66557 9.89995 5.78003 9.94736 5.86442 10.0318C5.94881 10.1161 5.99622 10.2306 5.99622 10.35C5.99622 10.4693 5.94881 10.5838 5.86442 10.6681C5.78003 10.7525 5.66557 10.8 5.54622 10.8H4.98942C4.41822 10.8 3.96162 10.8 3.59322 10.77C3.21522 10.7388 2.89002 10.674 2.59122 10.5222C2.11141 10.2775 1.72138 9.88729 1.47702 9.40735C1.32522 9.10915 1.26042 8.78335 1.22922 8.40535C1.19922 8.03815 1.19922 7.58155 1.19922 7.01035V4.99015C1.19922 4.41895 1.19922 3.96235 1.22922 3.59395C1.26042 3.21595 1.32522 2.89075 1.47702 2.59195C1.72163 2.11215 2.11188 1.72211 2.59182 1.47775C2.89002 1.32595 3.21582 1.26115 3.59382 1.22995C3.96102 1.19995 4.41762 1.19995 4.98882 1.19995H4.98942ZM8.53122 4.18195C8.61559 4.09768 8.72997 4.05035 8.84922 4.05035C8.96847 4.05035 9.08284 4.09768 9.16722 4.18195L10.6672 5.68195C10.7515 5.76633 10.7988 5.8807 10.7988 5.99995C10.7988 6.1192 10.7515 6.23358 10.6672 6.31795L9.16722 7.81795C9.12602 7.86216 9.07634 7.89762 9.02114 7.92222C8.96594 7.94682 8.90635 7.96004 8.84593 7.96111C8.78551 7.96217 8.72549 7.95106 8.66946 7.92843C8.61343 7.90579 8.56253 7.87211 8.5198 7.82937C8.47706 7.78664 8.44338 7.73574 8.42074 7.67971C8.39811 7.62368 8.387 7.56366 8.38806 7.50324C8.38913 7.44282 8.40235 7.38323 8.42695 7.32803C8.45154 7.27283 8.48701 7.22315 8.53122 7.18195L9.26322 6.44995H5.24922C5.12987 6.44995 5.01541 6.40254 4.93102 6.31815C4.84663 6.23376 4.79922 6.1193 4.79922 5.99995C4.79922 5.8806 4.84663 5.76614 4.93102 5.68175C5.01541 5.59736 5.12987 5.54995 5.24922 5.54995H9.26322L8.53122 4.81795C8.44695 4.73358 8.39961 4.6192 8.39961 4.49995C8.39961 4.3807 8.44695 4.26633 8.53122 4.18195Z" fill="white"/>
</svg>
