<svg width="12" height="12" viewBox="0 0 12 12" fill="none" xmlns="http://www.w3.org/2000/svg">
<g id="Icon/Left">
<g id="Rectangle 827">
<path d="M0 0H12V12H0V0Z" fill="#D9D9D9"/>
<path d="M8.8421 7.76471C8.8421 8.63104 7.56965 9.33333 6 9.33333C4.43035 9.33333 3.15789 8.63104 3.15789 7.76471C3.15789 6.89838 4.43035 6.19608 6 6.19608C7.56965 6.19608 8.8421 6.89838 8.8421 7.76471Z" fill="white"/>
<path d="M7.42105 3.84314C7.42105 4.70947 6.78483 5.41176 6 5.41176C5.21517 5.41176 4.57895 4.70947 4.57895 3.84314C4.57895 2.97681 5.21517 2.27451 6 2.27451C6.78483 2.27451 7.42105 2.97681 7.42105 3.84314Z" fill="white"/>
</g>
</g>
</svg>
