<svg width="80" height="80" viewBox="0 0 80 80" fill="none" xmlns="http://www.w3.org/2000/svg">
<g clip-path="url(#clip0_3201_70555)">
<path d="M11.4921 20.7179C11.5015 20.7108 11.5109 20.7085 11.5203 20.7014L11.5192 20.6979L11.4921 20.7179Z" fill="url(#paint0_linear_3201_70555)"/>
<path d="M18.0117 17.1591C16.1049 15.2523 14.0578 15.5741 12.4786 17.1533L10.2135 46.2153C10.2135 46.4911 10.2382 46.7634 10.2536 47.0379L26.5571 30.7344C19.7347 32.5152 21.7393 26.8194 19.3729 25.3463C19.374 25.3451 21.988 21.1354 18.0117 17.1591Z" fill="url(#paint1_linear_3201_70555)"/>
<path d="M69.141 35.2905C67.8387 33.9883 65.7292 33.9883 64.4269 35.2905L54.7914 44.926L53.7201 43.6403L69.7302 27.6302C71.3577 26.0027 71.3577 23.3652 69.7302 21.7376C68.1027 20.1101 65.4652 20.1101 63.8377 21.7376L48.3603 37.215L47.289 35.9293L63.8377 19.3806C65.4652 17.7531 65.4652 15.1156 63.8377 13.488C62.2101 11.8605 59.5726 11.8605 57.9451 13.488L41.928 29.5052L40.8567 28.2194L53.0625 16.0136C54.604 14.4721 54.8986 11.9595 53.5198 10.2719C51.9323 8.33088 49.0662 8.22482 47.3385 9.95252C47.0592 10.2318 10.2531 47.0379 10.2531 47.0379C10.4429 50.2918 11.8029 53.3771 14.121 55.6953L26.7146 68.2888C30.6201 72.1944 36.9511 72.1944 40.8567 68.2888L69.141 40.0046C70.4432 38.7023 70.4432 36.5928 69.141 35.2905Z" fill="url(#paint2_linear_3201_70555)"/>
<path d="M48.5174 14.6666C49.4937 15.6429 51.0766 15.6429 52.0529 14.6666C53.0292 13.6903 53.0292 12.1074 52.0529 11.131C51.0766 10.1547 49.4937 10.1547 48.5174 11.131C47.5411 12.1074 47.5411 13.6903 48.5174 14.6666Z" fill="#FFF0C9"/>
<path d="M59.1229 18.2017C60.0992 19.178 61.6821 19.178 62.6584 18.2017C63.6347 17.2254 63.6347 15.6425 62.6584 14.6662C61.6821 13.6899 60.0992 13.6899 59.1229 14.6662C58.1465 15.6425 58.1465 17.2254 59.1229 18.2017Z" fill="#FFF0C9"/>
<path d="M65.0174 26.4517C65.9937 27.428 67.5766 27.428 68.5529 26.4517C69.5292 25.4754 69.5292 23.8925 68.5529 22.9162C67.5766 21.9399 65.9937 21.9399 65.0174 22.9162C64.0411 23.8925 64.0411 25.4754 65.0174 26.4517Z" fill="#FFF0C9"/>
<path d="M65.6066 38.8256C66.2575 39.4764 67.3128 39.4764 67.9637 38.8256C68.6145 38.1747 68.6145 37.1194 67.9637 36.4686C67.3128 35.8177 66.2575 35.8177 65.6066 36.4686C64.9558 37.1194 64.9558 38.1747 65.6066 38.8256Z" fill="#FFF0C9"/>
</g>
<defs>
<linearGradient id="paint0_linear_3201_70555" x1="11.4828" y1="20.7522" x2="11.4847" y2="20.7549" gradientUnits="userSpaceOnUse">
<stop stop-color="#FFC430"/>
<stop offset="0.57" stop-color="#F8BD29"/>
<stop offset="1" stop-color="#F0B421"/>
</linearGradient>
<linearGradient id="paint1_linear_3201_70555" x1="11.2046" y1="31.4309" x2="29.8039" y2="31.5606" gradientUnits="userSpaceOnUse">
<stop offset="0.282" stop-color="#FFC430"/>
<stop offset="0.401" stop-color="#F8BD2D"/>
<stop offset="0.574" stop-color="#E5AA23"/>
<stop offset="0.78" stop-color="#C58A14"/>
<stop offset="1" stop-color="#9C6000"/>
</linearGradient>
<linearGradient id="paint2_linear_3201_70555" x1="40.7282" y1="29.1988" x2="39.6346" y2="87.125" gradientUnits="userSpaceOnUse">
<stop stop-color="#FFC430"/>
<stop offset="0.41" stop-color="#FEC130"/>
<stop offset="0.72" stop-color="#FCB730"/>
<stop offset="0.998" stop-color="#F7A72F"/>
<stop offset="1" stop-color="#F7A72F"/>
</linearGradient>
<clipPath id="clip0_3201_70555">
<rect width="80" height="80" fill="white"/>
</clipPath>
</defs>
</svg>
