<svg width="40" height="40" viewBox="0 0 40 40" fill="none"
    xmlns="http://www.w3.org/2000/svg">

    <path d="M21.7992 26.0002C21.7992 26.9943 20.9933 27.8002 19.9992 27.8002C19.0051 27.8002 18.1992 26.9943 18.1992 26.0002C18.1992 25.0061 19.0051 24.2002 19.9992 24.2002C20.9933 24.2002 21.7992 25.0061 21.7992 26.0002ZM21.7992 20.0002C21.7992 20.9943 20.9933 21.8002 19.9992 21.8002C19.0051 21.8002 18.1992 20.9943 18.1992 20.0002C18.1992 19.0061 19.0051 18.2002 19.9992 18.2002C20.9933 18.2002 21.7992 19.0061 21.7992 20.0002ZM21.7992 14.0002C21.7992 14.9943 20.9933 15.8002 19.9992 15.8002C19.0051 15.8002 18.1992 14.9943 18.1992 14.0002C18.1992 13.0061 19.0051 12.2002 19.9992 12.2002C20.9933 12.2002 21.7992 13.0061 21.7992 14.0002Z" fill="white"/>
</svg>
