<svg width="34" height="34" viewBox="0 0 34 34" fill="none" xmlns="http://www.w3.org/2000/svg">
<rect width="34" height="34" rx="17" fill="#2688EB"/>
<path d="M21.5 17.75C23.794 17.75 28 18.607 28 22.035C28 23.535 27.618 23.75 26.853 23.75H20.763C20.921 23.261 21 22.688 21 22.035C21 20.312 20.369 18.969 19.328 17.973C20.111 17.813 20.876 17.75 21.5 17.75ZM12.5 17.75C14.794 17.75 19 18.607 19 22.035C19 23.535 18.618 23.75 17.853 23.75H7.147C6.382 23.75 6 23.535 6 22.035C6 18.607 10.206 17.75 12.5 17.75ZM12.5 10.25C13.2956 10.25 14.0587 10.5661 14.6213 11.1287C15.1839 11.6913 15.5 12.4544 15.5 13.25C15.5 14.0456 15.1839 14.8087 14.6213 15.3713C14.0587 15.9339 13.2956 16.25 12.5 16.25C11.7044 16.25 10.9413 15.9339 10.3787 15.3713C9.81607 14.8087 9.5 14.0456 9.5 13.25C9.5 12.4544 9.81607 11.6913 10.3787 11.1287C10.9413 10.5661 11.7044 10.25 12.5 10.25ZM21.5 10.25C22.2956 10.25 23.0587 10.5661 23.6213 11.1287C24.1839 11.6913 24.5 12.4544 24.5 13.25C24.5 14.0456 24.1839 14.8087 23.6213 15.3713C23.0587 15.9339 22.2956 16.25 21.5 16.25C20.7044 16.25 19.9413 15.9339 19.3787 15.3713C18.8161 14.8087 18.5 14.0456 18.5 13.25C18.5 12.4544 18.8161 11.6913 19.3787 11.1287C19.9413 10.5661 20.7044 10.25 21.5 10.25Z" fill="white"/>
</svg>
