<svg width="40" height="40" viewBox="0 0 40 40" fill="none"
    xmlns="http://www.w3.org/2000/svg">

    <path d="M30 13C30 12.2044 29.6839 11.4413 29.1213 10.8787C28.5587 10.3161 27.7956 10 27 10C26.2044 10 25.4413 10.3161 24.8787 10.8787C24.3161 11.4413 24 12.2044 24 13C24 13.7956 24.3161 14.5587 24.8787 15.1213C25.4413 15.6839 26.2044 16 27 16C27.7956 16 28.5587 15.6839 29.1213 15.1213C29.6839 14.5587 30 13.7956 30 13ZM26.5035 11.4415C26.5186 11.315 26.5814 11.1989 26.6791 11.1171C26.7768 11.0353 26.9021 10.9939 27.0293 11.0014C27.1565 11.0089 27.2761 11.0646 27.3636 11.1573C27.4511 11.25 27.4999 11.3726 27.5 11.5V12.5H28.5L28.5585 12.5035C28.685 12.5186 28.8011 12.5814 28.8829 12.6791C28.9647 12.7768 29.0061 12.9021 28.9986 13.0293C28.9911 13.1565 28.9354 13.2761 28.8427 13.3636C28.75 13.4511 28.6274 13.4999 28.5 13.5H27.5V14.5L27.4965 14.5585C27.4814 14.685 27.4186 14.8011 27.3209 14.8829C27.2232 14.9647 27.0979 15.0061 26.9707 14.9986C26.8435 14.9911 26.7239 14.9354 26.6364 14.8427C26.5489 14.75 26.5001 14.6274 26.5 14.5V13.5H25.5L25.4415 13.4965C25.315 13.4814 25.1989 13.4186 25.1171 13.3209C25.0353 13.2232 24.9939 13.0979 25.0014 12.9707C25.0089 12.8435 25.0646 12.7239 25.1573 12.6364C25.25 12.5489 25.3726 12.5001 25.5 12.5H26.5V11.5L26.5035 11.4415Z" fill="white"/>
    <path fill-rule="evenodd" clip-rule="evenodd" d="M23.2492 11.607C22.2226 11.2096 21.1221 11 20 11C17.6131 11 15.3239 11.9482 13.636 13.636C11.9482 15.3239 11 17.6131 11 20C11 22.3869 11.9482 24.6761 13.636 26.364C15.3239 28.0518 17.6131 29 20 29C22.3869 29 24.6761 28.0518 26.364 26.364C28.0518 24.6761 29 22.3869 29 20C29 18.8779 28.7904 17.7774 28.393 16.7508C27.9592 16.9119 27.4899 17 27 17C24.7909 17 23 15.2091 23 13C23 12.5101 23.0881 12.0408 23.2492 11.607ZM16.0984 17.3734C16.3375 17.1343 16.6618 17 17 17C17.3382 17 17.6625 17.1343 17.9016 17.3734C18.1407 17.6125 18.275 17.9368 18.275 18.275C18.275 18.6132 18.1407 18.9375 17.9016 19.1766C17.6625 19.4157 17.3382 19.55 17 19.55C16.6618 19.55 16.3375 19.4157 16.0984 19.1766C15.8593 18.9375 15.725 18.6132 15.725 18.275C15.725 17.9368 15.8593 17.6125 16.0984 17.3734ZM17.3681 21.9953C17.4771 22.0482 17.5744 22.1226 17.654 22.214C17.9551 22.534 18.3187 22.7888 18.7222 22.9627C19.1257 23.1366 19.5606 23.2258 20 23.225C20.4394 23.2258 20.8743 23.1366 21.2778 22.9627C21.6813 22.7888 22.0449 22.534 22.346 22.214C22.4264 22.1252 22.5237 22.0534 22.6323 22.0027C22.7408 21.952 22.8584 21.9235 22.9781 21.9189C23.0978 21.9142 23.2172 21.9335 23.3293 21.9756C23.4415 22.0177 23.5441 22.0818 23.6312 22.1641C23.7182 22.2463 23.788 22.3452 23.8364 22.4547C23.8848 22.5643 23.9108 22.6825 23.9129 22.8022C23.915 22.922 23.8932 23.041 23.8488 23.1522C23.8043 23.2635 23.7381 23.3647 23.654 23.45C22.739 24.4175 21.44 25.025 20 25.025C19.3156 25.0256 18.6383 24.886 18.0099 24.6149C17.3814 24.3437 16.8152 23.9468 16.346 23.4485C16.2594 23.3637 16.1907 23.2623 16.1442 23.1504C16.0977 23.0385 16.0743 22.9183 16.0754 22.7971C16.0765 22.6759 16.1021 22.5562 16.1506 22.4451C16.1991 22.334 16.2695 22.2338 16.3576 22.1506C16.4458 22.0675 16.5498 22.0029 16.6635 21.9609C16.7772 21.9189 16.8982 21.9003 17.0193 21.9062C17.1404 21.9122 17.259 21.9425 17.3681 21.9953ZM22.0984 17.3734C21.8593 17.6125 21.725 17.9368 21.725 18.275C21.725 18.6132 21.8593 18.9375 22.0984 19.1766C22.3375 19.4157 22.6618 19.55 23 19.55C23.3382 19.55 23.6625 19.4157 23.9016 19.1766C24.1407 18.9375 24.275 18.6132 24.275 18.275C24.275 17.9368 24.1407 17.6125 23.9016 17.3734C23.6625 17.1343 23.3382 17 23 17C22.6618 17 22.3375 17.1343 22.0984 17.3734Z" fill="white"/>
</svg>
