<svg width="40" height="40" viewBox="0 0 40 40" fill="none"
    xmlns="http://www.w3.org/2000/svg">

    <path fill-rule="evenodd" clip-rule="evenodd" d="M20.5487 9.75073C20.1859 9.70158 19.8181 9.70158 19.4554 9.75073C19.0457 9.80645 18.6518 9.94445 18.0411 10.1579L12.7787 12.0003L12.7127 12.0234C12.4512 12.1139 12.1727 12.2107 11.9558 12.3963C11.7671 12.5574 11.6213 12.7628 11.5315 12.9942C11.4282 13.2599 11.4287 13.5547 11.4299 13.8312V21.4113C11.4299 22.4022 11.6228 23.3836 11.9982 24.3007C12.9651 26.6639 14.7155 28.6227 16.9555 29.8482L18.7242 30.8154C19.1161 31.0299 19.5557 31.1422 20.0024 31.1422C20.4492 31.1422 20.8887 31.0299 21.2807 30.8154L23.0477 29.8486C25.2876 28.6226 27.0377 26.6637 28.0045 24.3003C28.3797 23.3832 28.5727 22.4018 28.5728 21.4109V13.8312C28.5737 13.5547 28.5745 13.2599 28.4712 12.9937C28.3814 12.7624 28.2356 12.557 28.0469 12.3959C27.8301 12.2103 27.5515 12.1139 27.2905 12.023C27.2684 12.0153 27.2462 12.0076 27.2241 11.9999L21.9629 10.1583C21.3522 9.94402 20.9584 9.80602 20.5487 9.75073ZM19.6285 11.0253C19.8767 10.9917 20.1282 10.9917 20.3764 11.0253C20.6412 11.0613 20.9065 11.1509 21.6021 11.3947L26.7998 13.214C26.9729 13.2744 27.0728 13.31 27.1461 13.3413C27.1907 13.3606 27.2087 13.3713 27.2129 13.3743C27.2395 13.397 27.2601 13.4258 27.2729 13.4583C27.2742 13.4634 27.2785 13.484 27.2815 13.5324C27.2871 13.6117 27.2875 13.7176 27.2875 13.9014V21.4113C27.2874 22.2354 27.1269 23.0516 26.8148 23.8143C25.9597 25.9046 24.4117 27.6372 22.4305 28.7214L20.6639 29.6883C20.4612 29.7993 20.2338 29.8574 20.0027 29.8574C19.7715 29.8574 19.5441 29.7993 19.3414 29.6883L17.5731 28.721C15.5918 27.6369 14.0438 25.9043 13.1888 23.8139C12.8766 23.0515 12.7159 22.2356 12.7157 21.4117V13.901C12.7157 13.7176 12.7157 13.6117 12.7217 13.5324C12.7224 13.5074 12.7253 13.4824 12.7302 13.4579C12.7431 13.4254 12.7637 13.3966 12.7902 13.3739C12.7945 13.3709 12.8125 13.3602 12.8571 13.3409C12.9299 13.3096 13.0302 13.274 13.2034 13.2136L18.4019 11.3939C19.0979 11.1504 19.3641 11.0609 19.6285 11.0253Z" fill="white"/>
    <path d="M20 21V10L12 12.8947V21H20Z" fill="white"/>
    <path d="M20 21L20 31L25 28L28 23L28 21L20 21Z" fill="white"/>
</svg>
