<svg width="41" height="40" viewBox="0 0 41 40" fill="none" xmlns="http://www.w3.org/2000/svg">
<rect width="40" height="40" rx="20" fill="#2688EB"/>
<g clip-path="url(#clip0_3201_70553)">
<path fill-rule="evenodd" clip-rule="evenodd" d="M12.8057 21.8619C11.3702 20.7247 10.3031 19.821 9.70182 19.1963C8.95908 18.4273 8.00852 17.6495 7.86051 16.5266C7.81289 16.1755 7.85071 15.8172 7.9708 15.4819C8.09089 15.1465 8.28975 14.8437 8.55074 14.5989C9.28085 13.9127 10.307 13.846 11.2532 13.8114C13.3168 13.7347 24.0497 13.2321 26.6437 13.1173C28.1592 13.0502 30.2112 12.7296 31.1517 14.2169C32.0616 15.6552 31.0013 17.1514 30.2166 18.3796C27.3518 22.8695 24.5393 27.3924 21.6484 31.8658C21.1235 32.6794 20.5422 33.5699 19.5533 33.8529C19.1884 33.9581 18.8034 33.969 18.4351 33.8844C18.0669 33.7998 17.7276 33.6225 17.4497 33.3696C16.9883 32.9545 16.7563 32.3883 16.5848 31.8058C16.0782 30.0762 15.7363 28.2971 15.468 26.5142C15.2938 25.3426 15.4917 24.1422 16.034 23.0798C14.8539 23.015 13.7265 22.5897 12.8057 21.8619ZM19.4687 20.228C20.4846 19.8827 21.0005 19.7147 21.1868 19.8156C21.2695 19.8601 21.338 19.9266 21.3847 20.0077C21.4313 20.0889 21.4543 20.1815 21.4511 20.2754C21.4436 20.4987 20.9965 20.8844 20.1055 21.6553C19.4903 22.1873 18.9854 22.6228 18.8294 22.7551C17.8087 23.6218 17.302 24.9249 17.4924 26.1931C17.7108 27.7037 18.0142 29.2 18.4014 30.675C18.8028 32.1692 18.8698 32.4186 19.9296 30.7798C22.8565 26.2517 25.7077 21.6748 28.6038 17.1282C29.2476 16.116 29.5703 15.5866 29.4219 15.3234C29.275 15.0628 28.6655 15.0646 27.4482 15.1164C22.0671 15.3486 16.6878 15.6453 11.3063 15.8438C9.3736 15.9152 9.59924 16.148 10.8891 17.4745C11.8781 18.4913 12.9795 19.3846 14.0922 20.2667C15.0936 21.0608 16.4717 21.271 17.7282 20.8231C18.3057 20.6161 18.8874 20.4243 19.4687 20.228Z" fill="white"/>
</g>
<defs>
<clipPath id="clip0_3201_70553">
<rect width="28.7476" height="28.3927" fill="white" transform="translate(1 15.374) rotate(-30)"/>
</clipPath>
</defs>
</svg>
