<svg width="40" height="40" viewBox="0 0 40 40" fill="none"
    xmlns="http://www.w3.org/2000/svg">

    <path fill-rule="evenodd" clip-rule="evenodd" d="M11.5868 28.1979C12.3203 28.5716 13.2804 28.5716 15.2006 28.5716H24.8006C26.7207 28.5716 27.6808 28.5716 28.4142 28.1979C29.0594 27.8692 29.5839 27.3447 29.9126 26.6995C30.2863 25.9661 30.2863 25.006 30.2863 23.0859V16.9144C30.2863 14.9943 30.2863 14.0342 29.9126 13.3008C29.5839 12.6556 29.0594 12.1311 28.4142 11.8024C27.6808 11.4287 26.7207 11.4287 24.8006 11.4287H15.2006C13.2804 11.4287 12.3203 11.4287 11.5868 11.8024C10.9417 12.1311 10.4172 12.6556 10.0886 13.3008C9.71484 14.0342 9.71484 14.9943 9.71484 16.9144V23.0859C9.71484 25.006 9.71484 25.9661 10.0886 26.6995C10.4173 27.3447 10.9417 27.8692 11.5868 28.1979ZM23.1203 27.0114L23.1203 24.9885L16.4777 24.9883C16.0358 24.9882 15.6006 25.0968 15.2104 25.3045L14.1279 25.8806C14.1042 25.8932 14.0849 25.9126 14.0722 25.9363C14.0373 26.0021 14.0622 26.0837 14.1279 26.1187L15.2105 26.6949C15.6006 26.9025 16.0357 27.0111 16.4776 27.0111L23.1203 27.0114ZM24.7373 24.9886L23.7265 24.9885V27.0114L24.7373 27.0114C25.0721 27.0114 25.3435 26.7401 25.3435 26.4053L25.3434 25.5947C25.3434 25.26 25.072 24.9886 24.7373 24.9886Z" fill="white"/>
</svg>
