<?xml version="1.0" encoding="utf-8"?>
<!-- Generator: Adobe Illustrator 26.5.0, SVG Export Plug-In . SVG Version: 6.00 Build 0)  -->
<svg version="1.1" id="Layer_1" xmlns="http://www.w3.org/2000/svg" xmlns:xlink="http://www.w3.org/1999/xlink" x="0px" y="0px"
	 viewBox="0 0 400.11 400.11" style="enable-background:new 0 0 216.11 216.11;" xml:space="preserve">
<style type="text/css">
	.st0{fill:#5B5C5E;}
</style>
<g>
	<path class="st0" d="M184.511,31.614c-42.182-42.152-110.745-42.152-152.897,0c-42.152,42.152-42.152,110.745,0,152.897
		c21.076,21.076,48.755,31.599,76.434,31.599c27.679,0,55.387-10.523,76.463-31.599c20.368-20.398,31.599-47.546,31.599-76.434
		C216.11,79.16,204.879,52.012,184.511,31.614z M108.048,16.551c23.434,0,46.898,8.931,64.731,26.765
		c35.696,35.697,35.696,93.796,0,129.492c-17.244,17.244-40.236,26.765-64.731,26.765c-24.466,0-47.458-9.521-64.731-26.765
		c-35.696-35.697-35.696-93.796,0-129.492C61.15,25.483,84.613,16.551,108.048,16.551z"/>
</g>
<g>
	<path class="st0" d="M162.578,151.587c0,3.986-3.4,7.159-7.466,6.785c0,0-0.001,0-0.001,0l-3.605-1.469l-39.182-16.01
		c-2.659-1.086-5.637-1.086-8.296,0.001l-39.713,16.236l-2.923,1.181c-1.196,0.208-2.394,0.059-3.585-0.45
		c-2.191-0.936-3.875-2.93-4.206-5.29c-0.3-2.136,0.393-4.127,1.703-5.543l2.105-1.59l23.263-17.478l18.068-13.57l2.378-1.787
		c2.029-1.212,4.407-1.908,6.937-1.908c2.756,0,5.331,0.818,7.482,2.241l1.181,0.878l0.136,0.121l18.735,14.07l23.384,17.568
		l0.03,0.015l1.575,1.181l0.03,0.03C161.835,148.028,162.578,149.725,162.578,151.587z"/>
	<path class="st0" d="M162.578,98.599c0,3.986-3.4,7.159-7.466,6.785c0,0-0.001,0-0.001,0l-3.605-1.469l-39.182-16.01
		c-2.659-1.086-5.637-1.086-8.296,0.001l-39.713,16.236l-2.923,1.181c-1.196,0.208-2.394,0.059-3.585-0.45
		c-2.191-0.936-3.875-2.93-4.206-5.29c-0.3-2.136,0.393-4.127,1.703-5.543l2.105-1.59l23.263-17.478l18.068-13.57l2.378-1.787
		c2.029-1.212,4.407-1.908,6.937-1.908c2.756,0,5.331,0.818,7.482,2.241l1.181,0.878l0.136,0.121l18.735,14.07l23.384,17.568
		l0.03,0.015l1.575,1.181l0.03,0.03C161.835,95.04,162.578,96.736,162.578,98.599z"/>
</g>
</svg>
