<?xml version="1.0" encoding="utf-8"?>
<!-- Generator: Adobe Illustrator 26.5.0, SVG Export Plug-In . SVG Version: 6.00 Build 0)  -->
<svg version="1.1" id="Layer_1" xmlns="http://www.w3.org/2000/svg" xmlns:xlink="http://www.w3.org/1999/xlink" x="0px" y="0px"
	 viewBox="0 0 247.202 216.49" style="enable-background:new 0 0 247.202 216.49;" xml:space="preserve">
<style type="text/css">
	.st0{fill:#999B9D;}
</style>
<g>
	<path class="st0" d="M247.206,108.403c-7.52-9.3-15.87-18.21-24.88-26.44c-11.6-10.61-24.28-20.1-37.61-27.88
		c-6.26-3.66-12.87-6.72-19.61-9.41l-11.24,32.36c8.15,7.95,13.24,19,13.24,31.26c0,22.65-17.15,41.01-39.16,43.37l-9.91,28.53
		c2.75,0.15,5.51,0.22,8.27,0.15c20.28-0.51,40.06-7.36,57.66-17.44c14.04-8.03,26.8-18.08,38.79-28.89
		C225.126,131.883,249.016,110.643,247.206,108.403z M191.246,58.293c0.11,0,0.22,0,0.22,0.11c0.1,0,0.1,0,0.1,0.22
		C191.356,58.503,191.246,58.403,191.246,58.293z"/>
	<path class="st0" d="M54.982,157.977v-0.111c-0.108,0-0.217,0-0.217,0C54.874,157.977,54.982,157.977,54.982,157.977z"/>
	<path class="st0" d="M191.566,58.623c-0.21-0.12-0.32-0.22-0.32-0.33c0.11,0,0.22,0,0.22,0.11
		C191.566,58.403,191.566,58.403,191.566,58.623z"/>
	<path class="st0" d="M161.056,0.443c-4.18-1.44-8.85,0.77-10.32,5l-11.12,32.02c-3.55-0.62-7.13-1.06-10.74-1.24
		c-20.27-1.01-40.55,4.33-58.69,13.43c-13.86,6.94-26.54,16.04-38.2,26.22c-3.18,2.77-33.64,30.68-31.99,32.53
		c19.34,21.54,41.45,42.79,67.11,56.63c7.83,4.23,16.09,7.73,24.61,10.32l-0.89,2.57l-9.65,27.79c-1.48,4.23,0.76,8.85,5,10.32
		c0.88,0.31,1.77,0.46,2.66,0.46c3.36,0,6.5-2.11,7.66-5.46l10.72-30.84l9.91-28.53l25.92-74.63l11.24-32.36l11.77-33.91
		C167.536,6.523,165.296,1.903,161.056,0.443z M101.816,146.283c-13.27-7.48-22.26-21.61-22.26-37.99
		c0-24.13,19.59-43.72,43.72-43.72c2.3,0,4.55,0.18,6.74,0.53l-0.96,2.76L101.816,146.283z"/>
</g>
</svg>
