<?xml version="1.0" encoding="utf-8"?>
<!-- Generator: Adobe Illustrator 26.5.0, SVG Export Plug-In . SVG Version: 6.00 Build 0)  -->
<svg version="1.1" id="Layer_1" xmlns="http://www.w3.org/2000/svg" xmlns:xlink="http://www.w3.org/1999/xlink" x="0px" y="0px"
	 viewBox="0 0 216.11 216.11" style="enable-background:new 0 0 216.11 216.11;" xml:space="preserve">
<style type="text/css">
	.st0{fill:#999B9D;}
</style>
<g>
	<path class="st0" d="M210.916,184.037c7.418,7.418,7.418,19.441,0,26.879c-3.729,3.709-8.579,5.563-13.45,5.563
		c-4.85,0-9.721-1.854-13.429-5.563l-75.787-75.787l-75.808,75.787c-3.709,3.709-8.579,5.563-13.429,5.563
		c-4.87,0-9.721-1.854-13.45-5.563c-7.418-7.438-7.418-19.461,0-26.879l75.808-75.787L5.563,32.442
		c-7.418-7.418-7.418-19.441,0-26.879c7.438-7.418,19.461-7.418,26.879,0l75.808,75.808l75.787-75.808
		c7.418-7.418,19.441-7.418,26.879,0c7.418,7.438,7.418,19.461,0,26.879l-75.787,75.808L210.916,184.037z"/>
</g>
</svg>
