<svg width="1172" height="1172" viewBox="0 0 1172 1172" fill="none" xmlns="http://www.w3.org/2000/svg">

    <defs>
        <linearGradient id="paint0_linear_3140_71031" x1="256.011" y1="30.5891" x2="965.329" y2="1202.1" gradientUnits="userSpaceOnUse">
            <stop stop-color="#0176D0" />
            <stop offset="1" stop-color="#16538C" />
        </linearGradient>
        <clipPath id="clip0_3140_71031">
            <rect width="971" height="628" fill="white" transform="translate(101 272)" />
        </clipPath>
        <clipPath id="clip1_3140_71031">
            <rect width="175.014" height="41.3632" fill="white" transform="translate(703.184 514.434)" />
        </clipPath>
    </defs>
    <rect width="1172" height="1172" fill="url(#paint0_linear_3140_71031)" />
    <g clip-path="url(#clip0_3140_71031)">
        <path
            d="M154.54 806.611C158.36 775.958 177.397 745.756 206.692 735.781C195.139 767.331 195.141 801.942 206.699 833.491C211.201 845.642 217.475 858.688 213.241 870.935C210.606 878.554 204.161 884.384 196.957 888.03C189.752 891.675 181.757 893.412 173.861 895.115L172.307 896.397C159.773 868.154 150.72 837.263 154.54 806.611Z"
            fill="#EDEDED" />
        <path
            d="M206.983 736.363C189.923 755.438 179.32 779.392 176.679 804.823C176.013 810.287 176.215 815.822 177.276 821.224C178.481 826.453 181.066 831.265 184.764 835.159C188.139 838.86 192.021 842.255 194.436 846.709C195.638 849.008 196.34 851.534 196.495 854.122C196.65 856.711 196.256 859.302 195.337 861.727C193.205 867.83 189.002 872.804 184.724 877.525C179.973 882.768 174.955 888.138 172.935 895.088C172.691 895.93 171.396 895.502 171.64 894.661C175.153 882.569 186.916 875.701 192.526 864.81C195.143 859.728 196.242 853.828 193.788 848.463C191.642 843.772 187.642 840.268 184.193 836.551C180.529 832.804 177.841 828.22 176.362 823.197C175.029 817.867 174.614 812.348 175.135 806.879C176.113 794.547 179.028 782.444 183.773 771.015C189.116 757.942 196.66 745.876 206.08 735.341C206.664 734.69 207.562 735.715 206.983 736.363Z"
            fill="white" />
        <path
            d="M177.048 796.584C172.833 795.562 169.118 793.079 166.568 789.577C164.018 786.075 162.798 781.783 163.127 777.466C163.196 776.593 164.559 776.66 164.49 777.534C164.176 781.553 165.313 785.551 167.694 788.808C170.075 792.064 173.545 794.363 177.476 795.291C178.33 795.494 177.897 796.785 177.048 796.584Z"
            fill="white" />
        <path
            d="M182.805 833.508C190.419 828.971 196.039 821.738 198.546 813.249C198.794 812.408 200.089 812.836 199.841 813.676C197.216 822.504 191.352 830.02 183.418 834.724C182.662 835.172 182.052 833.953 182.805 833.508Z"
            fill="white" />
        <path
            d="M190.383 759.231C191.931 759.965 193.638 760.304 195.351 760.217C197.063 760.13 198.727 759.621 200.193 758.734C200.944 758.277 201.552 759.495 200.807 759.95C199.182 760.922 197.344 761.483 195.452 761.583C193.561 761.683 191.673 761.319 189.955 760.523C189.787 760.462 189.648 760.339 189.568 760.179C189.487 760.019 189.47 759.835 189.521 759.664C189.579 759.493 189.701 759.351 189.863 759.27C190.024 759.189 190.211 759.175 190.383 759.231Z"
            fill="white" />
        <path
            d="M295.989 790.531C295.528 790.829 295.068 791.128 294.607 791.438C288.437 795.487 282.607 800.029 277.175 805.019C276.749 805.398 276.322 805.789 275.908 806.18C262.948 818.342 252.364 832.8 244.694 848.818C241.647 855.195 239.091 861.794 237.048 868.558C234.227 877.899 231.913 888.251 226.328 895.892C225.755 896.696 225.132 897.463 224.463 898.19H173.997C173.882 898.132 173.767 898.086 173.652 898.029L171.637 898.121C171.718 897.765 171.809 897.397 171.89 897.041C171.936 896.834 171.994 896.627 172.04 896.42C172.074 896.283 172.109 896.145 172.132 896.018C172.143 895.972 172.155 895.926 172.166 895.892C172.189 895.765 172.224 895.651 172.247 895.536C172.754 893.479 173.276 891.422 173.813 889.366C173.813 889.354 173.813 889.354 173.824 889.343C177.958 873.682 183.439 858.228 191.095 844.096C191.326 843.671 191.556 843.234 191.809 842.809C195.296 836.458 199.297 830.402 203.773 824.701C206.233 821.588 208.85 818.6 211.614 815.751C218.768 808.402 227.036 802.221 236.115 797.436C254.216 787.9 275.171 784.246 294.515 790.071C295.01 790.221 295.494 790.37 295.989 790.531Z"
            fill="#EDEDED" />
        <path
            d="M295.875 791.169C270.745 796.15 247.826 808.905 230.374 827.624C226.546 831.587 223.367 836.128 220.955 841.079C218.762 845.977 217.923 851.373 218.526 856.704C218.989 861.686 220.039 866.729 219.28 871.737C218.853 874.294 217.889 876.733 216.452 878.893C215.014 881.052 213.135 882.884 210.938 884.269C205.554 887.86 199.198 889.307 192.933 890.506C185.976 891.837 178.73 893.111 172.924 897.446C172.221 897.972 171.445 896.852 172.147 896.327C182.248 888.784 195.784 890.367 206.834 885.041C211.99 882.556 216.427 878.505 217.705 872.748C218.822 867.713 217.742 862.512 217.231 857.471C216.566 852.279 217.185 847.003 219.035 842.105C221.186 837.047 224.184 832.392 227.901 828.338C236.122 819.079 245.751 811.167 256.435 804.893C268.589 797.664 281.893 792.564 295.77 789.812C296.629 789.642 296.728 791 295.875 791.169Z"
            fill="white" />
        <path
            d="M235.639 821.267C232.89 817.919 231.422 813.704 231.499 809.376C231.576 805.048 233.192 800.888 236.059 797.639C236.641 796.983 237.689 797.855 237.106 798.512C234.431 801.532 232.926 805.407 232.862 809.438C232.799 813.469 234.182 817.389 236.761 820.492C237.321 821.167 236.196 821.938 235.639 821.267Z"
            fill="white" />
        <path
            d="M217.957 854.209C226.773 855.162 235.625 852.763 242.748 847.491C243.453 846.968 244.229 848.088 243.525 848.61C236.102 854.082 226.885 856.56 217.713 855.549C216.839 855.452 217.087 854.113 217.957 854.209Z"
            fill="white" />
        <path
            d="M268.82 799.456C269.614 800.973 270.772 802.269 272.192 803.228C273.611 804.188 275.247 804.781 276.953 804.953C277.828 805.039 277.579 806.378 276.71 806.293C274.826 806.093 273.02 805.436 271.449 804.38C269.878 803.323 268.591 801.899 267.699 800.231C267.602 800.081 267.565 799.899 267.597 799.723C267.629 799.547 267.727 799.39 267.871 799.284C268.02 799.182 268.203 799.143 268.381 799.175C268.559 799.207 268.717 799.308 268.82 799.456Z"
            fill="white" />
        <path d="M1036.07 625.84H873.723V623.542H1033.77V516.688H1036.07V625.84Z" fill="#EDEDED" />
        <path d="M509.881 670.649H507.578V561.496H669.926V563.794H509.881V670.649Z" fill="#EDEDED" />
        <path d="M747.071 427.067H584.723V317.914H587.025V424.769H747.071V427.067Z" fill="#EDEDED" />
        <path
            d="M552.418 272C551.547 272.002 550.713 272.348 550.097 272.963C549.482 273.578 549.137 274.412 549.137 275.281C549.137 276.15 549.482 276.983 550.097 277.598C550.713 278.213 551.547 278.559 552.418 278.561H619.106C619.977 278.559 620.812 278.213 621.427 277.598C622.042 276.983 622.387 276.15 622.387 275.281C622.387 274.412 622.042 273.578 621.427 272.963C620.812 272.348 619.977 272.002 619.106 272H552.418Z"
            fill="white" />
        <path
            d="M552.416 291.328C551.544 291.328 550.708 291.674 550.092 292.289C549.475 292.904 549.129 293.739 549.129 294.609C549.129 295.479 549.475 296.313 550.092 296.928C550.708 297.544 551.544 297.889 552.416 297.889H619.104C619.975 297.888 620.81 297.541 621.425 296.926C622.04 296.311 622.386 295.478 622.386 294.609C622.386 293.74 622.04 292.906 621.425 292.291C620.81 291.676 619.975 291.33 619.104 291.328H552.416Z"
            fill="white" />
        <path
            d="M1068.71 501.995C1069.58 501.993 1070.42 501.647 1071.03 501.032C1071.65 500.417 1071.99 499.583 1071.99 498.714C1071.99 497.845 1071.65 497.012 1071.03 496.397C1070.42 495.782 1069.58 495.435 1068.71 495.434H1002.02C1001.58 495.433 1001.16 495.517 1000.76 495.682C1000.36 495.846 999.994 496.088 999.688 496.392C999.382 496.697 999.139 497.059 998.973 497.457C998.808 497.856 998.723 498.283 998.723 498.714C998.723 499.145 998.808 499.573 998.973 499.971C999.139 500.369 999.382 500.731 999.688 501.036C999.994 501.341 1000.36 501.582 1000.76 501.747C1001.16 501.911 1001.58 501.996 1002.02 501.995H1068.71Z"
            fill="white" />
        <path
            d="M1068.71 482.667C1069.58 482.665 1070.42 482.319 1071.03 481.704C1071.65 481.089 1071.99 480.255 1071.99 479.386C1071.99 478.517 1071.65 477.684 1071.03 477.068C1070.42 476.453 1069.58 476.107 1068.71 476.105H1002.02C1001.58 476.105 1001.16 476.189 1000.76 476.353C1000.36 476.518 999.994 476.759 999.688 477.064C999.382 477.369 999.139 477.731 998.973 478.129C998.808 478.528 998.723 478.955 998.723 479.386C998.723 479.817 998.808 480.244 998.973 480.643C999.139 481.041 999.382 481.403 999.688 481.708C999.994 482.013 1000.36 482.254 1000.76 482.419C1001.16 482.583 1001.58 482.667 1002.02 482.667H1068.71Z"
            fill="white" />
        <path
            d="M786.087 658.057C761.72 658.057 737.901 650.847 717.641 637.338C697.381 623.829 681.59 604.628 672.265 582.164C662.94 559.699 660.5 534.98 665.254 511.132C670.008 487.284 681.741 465.378 698.971 448.184C716.201 430.991 738.153 419.282 762.052 414.538C785.951 409.794 810.722 412.229 833.234 421.534C855.746 430.839 874.987 446.597 888.525 466.814C902.062 487.032 909.288 510.801 909.288 535.116C909.251 567.711 896.259 598.96 873.162 622.008C850.066 645.056 818.751 658.02 786.087 658.057ZM786.087 414.474C762.176 414.474 738.802 421.549 718.92 434.806C699.039 448.062 683.543 466.904 674.392 488.948C665.242 510.993 662.848 535.25 667.513 558.653C672.177 582.055 683.692 603.551 700.6 620.424C717.508 637.296 739.049 648.786 762.501 653.441C785.953 658.096 810.262 655.707 832.353 646.576C854.444 637.444 873.326 621.981 886.61 602.142C899.894 582.302 906.985 558.977 906.985 535.116C906.949 503.131 894.2 472.466 871.535 449.849C848.87 427.232 818.14 414.51 786.087 414.474Z"
            fill="#EDEDED" />
        <path
            d="M736.707 440.853C744.338 440.853 750.524 434.68 750.524 427.065C750.524 419.45 744.338 413.277 736.707 413.277C729.077 413.277 722.891 419.45 722.891 427.065C722.891 434.68 729.077 440.853 736.707 440.853Z"
            fill="white" />
        <path
            d="M666.473 577.583C674.104 577.583 680.29 571.41 680.29 563.796C680.29 556.181 674.104 550.008 666.473 550.008C658.842 550.008 652.656 556.181 652.656 563.796C652.656 571.41 658.842 577.583 666.473 577.583Z"
            fill="white" />
        <path
            d="M869.118 639.626C876.748 639.626 882.935 633.453 882.935 625.839C882.935 618.224 876.748 612.051 869.118 612.051C861.487 612.051 855.301 618.224 855.301 625.839C855.301 633.453 861.487 639.626 869.118 639.626Z"
            fill="white" />
        <path
            d="M474.94 685.34C474.068 685.34 473.232 685.685 472.615 686.301C471.999 686.916 471.652 687.75 471.652 688.62C471.652 689.49 471.999 690.325 472.615 690.94C473.232 691.555 474.068 691.901 474.94 691.901H541.635C542.506 691.899 543.34 691.553 543.955 690.938C544.571 690.323 544.916 689.489 544.916 688.62C544.916 687.751 544.571 686.918 543.955 686.303C543.34 685.688 542.506 685.341 541.635 685.34H474.94Z"
            fill="white" />
        <path
            d="M474.938 704.672C474.506 704.671 474.078 704.755 473.678 704.92C473.279 705.084 472.916 705.326 472.61 705.631C472.304 705.935 472.061 706.297 471.895 706.696C471.73 707.094 471.645 707.521 471.645 707.952C471.645 708.384 471.73 708.811 471.895 709.209C472.061 709.608 472.304 709.97 472.61 710.274C472.916 710.579 473.279 710.821 473.678 710.985C474.078 711.15 474.506 711.234 474.938 711.233H541.633C542.504 711.231 543.339 710.885 543.954 710.27C544.569 709.655 544.915 708.821 544.915 707.952C544.915 707.083 544.569 706.25 543.954 705.635C543.339 705.02 542.504 704.674 541.633 704.672H474.938Z"
            fill="white" />
        <path
            d="M310.429 899.837H293.671C291.563 899.834 289.543 898.998 288.053 897.511C286.563 896.024 285.725 894.008 285.723 891.905V752.525C285.725 750.422 286.563 748.406 288.053 746.919C289.543 745.432 291.563 744.596 293.671 744.594H310.429C312.536 744.596 314.557 745.432 316.047 746.919C317.537 748.406 318.375 750.422 318.377 752.525V891.905C318.375 894.008 317.537 896.024 316.047 897.511C314.557 898.998 312.536 899.834 310.429 899.837Z"
            fill="white" />
        <path
            d="M354.929 899.837H338.171C336.063 899.834 334.043 898.998 332.553 897.511C331.063 896.024 330.225 894.008 330.223 891.905V752.525C330.225 750.422 331.063 748.406 332.553 746.919C334.043 745.432 336.063 744.596 338.171 744.594H354.929C357.037 744.596 359.057 745.432 360.547 746.919C362.037 748.406 362.875 750.422 362.878 752.525V891.905C362.875 894.008 362.037 896.024 360.547 897.511C359.057 898.998 357.037 899.834 354.929 899.837Z"
            fill="white" />
        <path
            d="M325.939 599.701C357.92 599.701 383.846 573.83 383.846 541.916C383.846 510.002 357.92 484.131 325.939 484.131C293.957 484.131 268.031 510.002 268.031 541.916C268.031 573.83 293.957 599.701 325.939 599.701Z"
            fill="white" />
        <path
            d="M345.592 794.018H303.933C295.276 794.05 286.764 791.8 279.259 787.495C271.754 783.189 265.521 776.982 261.193 769.501C256.864 762.019 254.593 753.529 254.609 744.891C254.626 736.252 256.929 727.771 261.286 720.306L319.544 619.612C320.192 618.492 321.124 617.563 322.246 616.916C323.368 616.27 324.64 615.93 325.936 615.93C327.231 615.93 328.504 616.27 329.626 616.916C330.748 617.563 331.68 618.492 332.327 619.612L389.413 718.278C393.854 725.954 396.192 734.661 396.192 743.525C396.191 752.388 393.853 761.095 389.412 768.771C384.971 776.447 378.584 782.821 370.892 787.253C363.199 791.684 354.474 794.017 345.592 794.018Z"
            fill="#1B1B1B" />
        <path d="M371.992 529.832H359.762V532.098H371.992V529.832Z" fill="#1B1B1B" />
        <path d="M345.813 570.777H333.582V573.043H345.813V570.777Z" fill="#1B1B1B" />
        <path d="M333.387 529.832H321.156V532.098H333.387V529.832Z" fill="#1B1B1B" />
        <path
            d="M312.315 781.093C311.834 780.083 311.575 778.982 311.554 777.863L308.699 674.069C308.606 669.749 310.236 665.57 313.231 662.449C316.225 659.329 320.339 657.524 324.668 657.43C328.996 657.336 333.185 658.961 336.312 661.949C339.44 664.936 341.25 669.041 341.346 673.36L344.2 777.155C344.244 779.258 343.45 781.291 341.992 782.81C340.535 784.329 338.534 785.209 336.427 785.257L319.673 785.621C318.14 785.652 316.63 785.242 315.325 784.439C314.02 783.636 312.975 782.474 312.315 781.093Z"
            fill="white" />
        <path
            d="M320.564 499.201C327.6 508.382 338.768 514.542 350.573 513.083C361.814 511.695 371.088 503.876 373.414 492.682C374.43 487.39 374.156 481.932 372.615 476.767C371.075 471.603 368.313 466.884 364.562 463.007C356.605 454.656 345.218 450.164 333.947 448.624C312.596 445.706 290.667 453.211 274.524 467.208C266.416 474.167 259.945 482.823 255.57 492.56C251.356 502.226 249.349 512.705 249.694 523.24C250.315 544.06 259.453 564.84 275.222 578.647C277.18 580.357 279.23 581.959 281.363 583.446C283.161 584.705 284.865 581.76 283.082 580.511C266.934 569.207 256.633 550.813 253.806 531.486C252.326 521.749 252.986 511.806 255.741 502.348C258.497 492.89 263.281 484.144 269.762 476.716C282.802 461.92 301.921 452.304 321.723 451.442C341.649 450.575 366.549 459.452 370.278 481.586C371.949 491.507 368.233 501.935 359.123 506.901C349.369 512.219 337.409 510.031 329.026 503.163C326.974 501.488 325.121 499.583 323.505 497.485C322.191 495.771 319.232 497.462 320.564 499.201Z"
            fill="#1B1B1B" />
        <path
            d="M1069.46 900H103.535C102.863 900 102.218 899.895 101.743 899.707C101.267 899.52 101 899.265 101 899C101 898.735 101.267 898.48 101.743 898.293C102.218 898.105 102.863 898 103.535 898H1069.46C1070.14 898 1070.78 898.105 1071.26 898.293C1071.73 898.48 1072 898.735 1072 899C1072 899.265 1071.73 899.52 1071.26 899.707C1070.78 899.895 1070.14 900 1069.46 900Z"
            fill="white" />
        <g clip-path="url(#clip1_3140_71031)">
            <path d="M726.051 546.64L748.927 521.537V514.809L726.051 539.911V546.64Z" fill="white" />
            <path d="M813.837 546.265L790.961 521.162V514.434L813.837 539.536V546.265Z" fill="white" />
            <path d="M822.896 556.203L800.02 531.1V524.371L822.896 549.474V556.203Z" fill="white" />
            <path d="M857.554 520.511L857.178 521.189L854.289 526.209V526.234L839.626 551.813L837.042 556.307H831.266L833.827 551.813L851.377 521.189L854.289 516.144L855.044 514.812L857.554 520.511Z"
                fill="white" />
            <path d="M877.293 556.304H871.517L868.956 551.811L858.387 533.385L861.274 528.34L874.732 551.811L877.293 556.304Z" fill="white" />
            <path d="M726.058 539.909V546.636L707.678 526.454L703.184 521.533V514.807L707.074 519.074L707.678 519.727L726.058 539.909Z" fill="white" />
            <path d="M707.678 535.38V556.314H703.184V530.459L707.678 535.38Z" fill="white" />
            <path d="M794.436 535.38V556.314H789.941V530.459L794.436 535.38Z" fill="white" />
            <path d="M818.453 535.743V514.809H822.947V540.664L818.453 535.743Z" fill="white" />
            <path d="M762.03 535.382V556.316H757.535V530.461L760.221 533.399L761.302 534.577L762.03 535.382Z" fill="white" />
            <path d="M762.03 516.605H757.535V534.579H762.03V516.605Z" fill="white" />
            <path d="M781.363 514.809V519.302H757.535V517.444L757.736 517.268L760.422 514.809H781.363Z" fill="white" />
            <path d="M771.997 514.809H757.535V519.302H771.997V514.809Z" fill="white" />
            <path d="M781.363 551.824V556.318H757.535V554.46L760.422 551.824H781.363Z" fill="white" />
            <path d="M777.965 533.223H767.875V537.716H777.965V533.223Z" fill="white" />
            <path d="M762.03 533.223V537.716H757.535V535.858L758.941 534.577L760.221 533.399L760.422 533.223H762.03Z" fill="white" />
            <path d="M762.03 523.757V544.691H757.535V518.836L757.736 519.062L759.595 521.096L762.03 523.757Z" fill="white" />
            <path d="M744.434 535.38V556.314H748.928V530.459L744.434 535.38Z" fill="white" />
            <path
                d="M842.861 519.916C844.271 519.916 845.413 518.774 845.413 517.364C845.413 515.955 844.271 514.812 842.861 514.812C841.451 514.812 840.309 515.955 840.309 517.364C840.309 518.774 841.451 519.916 842.861 519.916Z"
                fill="white" />
            <path
                d="M801.064 555.871C802.474 555.871 803.616 554.729 803.616 553.319C803.616 551.91 802.474 550.768 801.064 550.768C799.654 550.768 798.512 551.91 798.512 553.319C798.512 554.729 799.654 555.871 801.064 555.871Z"
                fill="white" />
            <path
                d="M714.623 556.619C716.032 556.619 717.175 555.477 717.175 554.067C717.175 552.658 716.032 551.516 714.623 551.516C713.213 551.516 712.07 552.658 712.07 554.067C712.07 555.477 713.213 556.619 714.623 556.619Z"
                fill="white" />
        </g>
    </g>

</svg>
