<svg width="971" height="628" viewBox="0 0 971 628" fill="none" xmlns="http://www.w3.org/2000/svg">
<g clip-path="url(#clip0_2931_67436)">
<path d="M138 626.902C137.99 626.931 137.99 626.97 137.981 627H74.7501C73.5598 626.242 72.389 625.454 71.2378 624.657C64.1286 619.796 57.5633 614.172 51.6569 607.882C44.8863 600.603 39.2926 592.294 35.081 583.26C26.7394 565.304 24.1735 544.876 30.6322 526.418L30.6328 526.414L30.6349 526.411L30.6381 526.408L30.6419 526.408C30.798 525.945 30.9736 525.473 31.1492 525C31.4127 525.463 31.6663 525.916 31.9395 526.368L31.9493 526.378C35.5744 532.533 39.6854 538.384 44.2422 543.872V543.882C44.5934 544.305 44.9446 544.729 45.3056 545.142L45.3063 545.146L45.3084 545.149L45.3116 545.151L45.3154 545.152C56.38 558.204 69.7477 569.073 84.7405 577.206C84.7893 577.235 84.8283 577.255 84.8771 577.285C84.9271 577.315 84.9793 577.341 85.0332 577.363C85.0429 577.373 85.0527 577.373 85.0624 577.383C88.3893 579.195 91.804 580.848 95.2773 582.345V582.355C98.009 583.546 100.79 584.629 103.59 585.633C109.56 587.75 116 589.679 121.717 592.465C127.278 595.172 132.176 598.687 135.366 603.973C135.61 604.407 135.854 604.83 136.078 605.263L134.215 618.278L137.932 618.258L137.58 624.657L137.483 626.508L138 626.902Z" fill="#EDEDED"/>
<path d="M123 627H121.648C121.52 626.216 121.392 625.442 121.244 624.668C120.86 622.549 120.34 620.457 119.685 618.405C119.389 617.484 119.053 616.582 118.668 615.69C116.487 610.614 112.738 606.155 107.192 604.665C105.578 604.24 103.918 604.006 102.249 603.969C98.9431 603.832 95.5881 604.253 92.3023 604.43C91.4931 604.469 90.6741 604.498 89.8847 604.489H89.865C85.5916 604.559 81.3536 603.71 77.4418 601.999C72.6108 599.702 68.212 596.599 64.4364 592.826C61.9659 590.477 59.6177 588.004 57.4008 585.417V585.407C57.1048 585.084 56.8187 584.751 56.5326 584.408C51.3082 578.172 46.7419 571.42 42.9055 564.258C40.9496 560.638 39.1939 556.915 37.6461 553.105C37.6256 553.071 37.6091 553.035 37.5968 552.998C34.134 544.597 31.651 535.831 30.1962 526.87L30.1969 526.866L30.199 526.863L30.2022 526.861L30.2061 526.86C30.1272 526.458 30.0679 526.047 30.0087 525.645C29.8804 524.812 31.2125 524.772 31.3309 525.606C31.3902 526.017 31.4493 526.409 31.5184 526.821L31.5283 526.831C32.9285 535.411 35.278 543.812 38.5342 551.88V551.89C38.702 552.302 38.8697 552.704 39.0375 553.105C43.6693 564.264 50.01 574.644 57.8351 583.879L57.8449 583.898C57.9239 583.996 58.0127 584.084 58.1015 584.182C58.1052 584.186 58.1081 584.191 58.1098 584.196C58.1115 584.201 58.112 584.206 58.1114 584.212C58.1212 584.202 58.1212 584.212 58.1212 584.212C59.9467 586.358 61.861 588.416 63.8543 590.415C67.5399 594.283 71.8155 597.551 76.5241 600.098C80.4559 602.098 84.8061 603.152 89.2236 603.175C89.6677 603.175 90.1117 603.185 90.5557 603.175C90.911 603.175 91.2662 603.166 91.6214 603.146C94.9665 602.989 98.3609 602.568 101.726 602.627C103.256 602.656 104.781 602.813 106.285 603.097C108.754 603.623 111.084 604.661 113.121 606.144C115.159 607.627 116.857 609.521 118.106 611.702C119.361 613.809 120.361 616.055 121.086 618.395C121.333 619.16 121.54 619.934 121.747 620.718V620.728C122.063 621.982 122.339 623.256 122.576 624.54C122.587 624.582 122.594 624.625 122.596 624.668C122.743 625.442 122.872 626.226 123 627Z" fill="white"/>
<path d="M57.729 584.57C54.4125 587.025 50.326 588.228 46.1992 587.964C42.0725 587.701 38.1742 585.989 35.2006 583.133C34.601 582.553 35.4796 581.6 36.0801 582.181C38.8441 584.845 42.4755 586.44 46.3188 586.677C50.1622 586.914 53.9643 585.779 57.0389 583.475C57.7077 582.975 58.394 584.073 57.729 584.57Z" fill="white"/>
<path d="M89.097 603.206C90.5555 594.744 88.4238 586.098 83.1272 578.991C82.6018 578.287 83.8406 577.589 84.3653 578.292C89.8619 585.697 92.0598 594.699 90.5206 603.501C90.3733 604.34 88.9504 604.04 89.097 603.206Z" fill="white"/>
<path d="M38.2961 551.831C39.7404 551.157 40.9955 550.132 41.9488 548.85C42.902 547.567 43.5235 546.067 43.7574 544.483C43.8749 543.671 45.109 543.962 44.9922 544.769C44.7257 546.517 44.0373 548.173 42.9873 549.593C41.9372 551.012 40.5575 552.151 38.9685 552.911C38.8247 552.995 38.6544 553.021 38.4922 552.983C38.33 552.946 38.1881 552.848 38.0954 552.709C38.0071 552.565 37.9786 552.393 38.0162 552.228C38.0538 552.064 38.1544 551.921 38.2961 551.831Z" fill="white"/>
<path d="M148 583.451L147.46 588.391L138.865 588.265L137.569 597.171L137.343 598.701V598.711L136.459 604.801L134.583 617.684L138.325 617.665L137.972 623.999L137.873 625.831L138.394 626.22L138.512 626.318L138.551 626.347C138.443 626.562 138.325 626.776 138.207 627C138.276 626.766 138.325 626.552 138.374 626.318H113.505C113.043 625.548 112.591 624.778 112.149 623.999C108.312 617.372 104.928 610.496 102.023 603.418C101.846 602.979 101.659 602.541 101.502 602.092V602.083C98.9186 595.607 96.8721 588.932 95.383 582.125V582.116C94.576 578.388 93.9629 574.622 93.5462 570.831C92.4815 561.035 92.9754 551.134 95.0097 541.49C95.0262 541.442 95.0393 541.393 95.049 541.344C98.9681 522.936 108.525 505.921 123.661 495.144C124.289 494.676 124.938 494.238 125.596 493.809C125.606 493.799 125.606 493.799 125.615 493.799C125.617 493.799 125.618 493.799 125.619 493.798C125.62 493.798 125.622 493.797 125.622 493.796C125.623 493.795 125.624 493.794 125.625 493.793C125.625 493.792 125.625 493.791 125.625 493.789C126.038 493.526 126.44 493.263 126.853 493C126.794 493.526 126.725 494.052 126.676 494.579C125.883 501.618 125.672 508.71 126.048 515.783V515.803C126.057 516.348 126.087 516.894 126.126 517.45V517.469C127.197 534.464 131.43 551.116 138.61 566.583C138.622 566.623 138.639 566.662 138.659 566.699C138.679 566.748 138.698 566.787 138.718 566.836C141.404 572.589 144.506 578.142 148 583.451Z" fill="#EDEDED"/>
<path d="M127.053 493.066C126.863 493.429 126.665 493.802 126.486 494.172C125.07 496.943 123.767 499.772 122.576 502.662C120.448 507.765 118.678 513.019 117.28 518.385C117.166 518.804 117.055 519.232 116.952 519.658C113.997 531.365 112.815 543.476 113.448 555.558C113.449 555.678 113.457 555.786 113.467 555.904C113.618 558.724 113.879 561.534 114.251 564.335C114.824 569.631 116.199 574.802 118.325 579.656C118.623 580.29 118.938 580.911 119.268 581.509C120.09 582.973 121.043 584.354 122.117 585.632C122.891 586.566 123.724 587.445 124.612 588.264C125.148 588.766 125.701 589.255 126.278 589.72C126.611 589.989 126.954 590.256 127.297 590.524C127.58 590.722 127.855 590.932 128.138 591.131C131.081 593.215 134.256 595.07 137 597.459L136.785 599C134.11 596.509 130.883 594.624 127.914 592.564C126.054 591.291 124.313 589.841 122.712 588.233C122.502 588.012 122.283 587.792 122.081 587.559C120.998 586.404 120.02 585.149 119.159 583.808C118.721 583.14 118.308 582.447 117.918 581.72C115.561 576.992 113.997 571.885 113.293 566.615C112.766 563.254 112.402 559.866 112.204 556.467C112.169 556.025 112.145 555.591 112.129 555.146C111.758 547.036 112.188 538.908 113.411 530.889C114.956 520.716 117.757 510.791 121.744 501.357C122.883 498.656 124.124 495.996 125.469 493.378C125.641 493.019 125.823 492.668 126.013 492.306C126.399 491.56 127.439 492.321 127.053 493.066Z" fill="white"/>
<path d="M112.308 556C108.129 555.976 104.095 554.528 100.926 551.913C97.757 549.299 95.6599 545.689 95.009 541.728C94.8802 540.926 96.1728 540.697 96.3018 541.5C96.9008 545.189 98.8546 548.552 101.811 550.98C104.766 553.409 108.53 554.744 112.421 554.744C113.267 554.745 113.149 556.001 112.308 556Z" fill="white"/>
<path d="M126.214 589.83C132.46 583.95 136.192 576.002 136.665 567.573C136.711 566.737 138.045 566.851 137.999 567.685C137.49 576.456 133.589 584.719 127.075 590.824C126.454 591.406 125.596 590.408 126.214 589.83Z" fill="white"/>
<path d="M116.722 518.238C118.36 518.635 120.059 518.566 121.667 518.037C123.275 517.509 124.741 516.537 125.935 515.208C126.545 514.525 127.398 515.683 126.792 516.362C125.467 517.823 123.846 518.894 122.071 519.483C120.295 520.071 118.419 520.159 116.607 519.739C116.433 519.715 116.274 519.618 116.161 519.466C116.049 519.315 115.991 519.121 116.001 518.923C116.017 518.724 116.102 518.541 116.237 518.412C116.372 518.284 116.547 518.221 116.722 518.238Z" fill="white"/>
<path d="M319 627.5C319 627.697 318.971 627.892 318.912 628.075C318.854 628.257 318.768 628.423 318.659 628.562C318.551 628.701 318.422 628.812 318.281 628.887C318.139 628.962 317.987 629.001 317.834 629H43.1661C43.013 629 42.8614 628.961 42.7199 628.886C42.5784 628.81 42.4498 628.7 42.3415 628.561C42.2333 628.421 42.1474 628.256 42.0888 628.074C42.0302 627.892 42 627.697 42 627.5C42 627.303 42.0302 627.108 42.0888 626.926C42.1474 626.744 42.2333 626.579 42.3415 626.439C42.4498 626.3 42.5784 626.19 42.7199 626.114C42.8614 626.039 43.013 626 43.1661 626H317.834C317.987 625.999 318.139 626.038 318.281 626.113C318.422 626.188 318.551 626.299 318.659 626.438C318.768 626.577 318.854 626.743 318.912 626.925C318.971 627.108 319 627.303 319 627.5Z" fill="#EDEDED"/>
<path d="M908.36 128.628H698.32C697.42 128.63 696.528 128.453 695.696 128.109C694.864 127.765 694.108 127.261 693.47 126.624C692.833 125.988 692.328 125.232 691.983 124.399C691.638 123.567 691.461 122.675 691.461 121.775C691.461 120.874 691.638 119.982 691.983 119.15C692.328 118.318 692.833 117.562 693.47 116.925C694.108 116.289 694.864 115.784 695.696 115.44C696.528 115.096 697.42 114.92 698.32 114.921H908.36C909.26 114.92 910.152 115.096 910.984 115.44C911.816 115.784 912.573 116.289 913.21 116.925C913.847 117.562 914.352 118.318 914.697 119.15C915.042 119.982 915.219 120.874 915.219 121.775C915.219 122.675 915.042 123.567 914.697 124.399C914.352 125.232 913.847 125.988 913.21 126.624C912.573 127.261 911.816 127.765 910.984 128.109C910.152 128.453 909.26 128.63 908.36 128.628Z" fill="#2688EB"/>
<path d="M908.358 155.711H698.318C696.503 155.709 694.763 154.986 693.48 153.7C692.197 152.415 691.477 150.673 691.477 148.857C691.477 147.041 692.197 145.299 693.48 144.014C694.763 142.728 696.503 142.005 698.318 142.003H908.358C910.174 142.005 911.914 142.728 913.197 144.014C914.479 145.299 915.2 147.041 915.2 148.857C915.2 150.673 914.479 152.415 913.197 153.7C911.914 154.986 910.174 155.709 908.358 155.711Z" fill="#2688EB"/>
<path d="M789.366 182.794H698.318C696.503 182.792 694.763 182.069 693.48 180.783C692.197 179.498 691.477 177.756 691.477 175.94C691.477 174.124 692.197 172.382 693.48 171.097C694.763 169.811 696.503 169.088 698.318 169.086H789.366C790.266 169.085 791.158 169.261 791.99 169.605C792.822 169.949 793.578 170.454 794.215 171.09C794.852 171.727 795.358 172.483 795.703 173.315C796.047 174.147 796.225 175.039 796.225 175.94C796.225 176.841 796.047 177.733 795.703 178.565C795.358 179.397 794.852 180.153 794.215 180.79C793.578 181.426 792.822 181.931 791.99 182.275C791.158 182.619 790.266 182.795 789.366 182.794Z" fill="#2688EB"/>
<path d="M908.359 282.649H698.319C696.502 282.649 694.76 281.927 693.475 280.641C692.19 279.356 691.469 277.613 691.469 275.795C691.469 273.977 692.19 272.234 693.475 270.949C694.76 269.663 696.502 268.941 698.319 268.941H908.359C910.176 268.941 911.918 269.663 913.203 270.949C914.487 272.234 915.209 273.977 915.209 275.795C915.209 277.613 914.487 279.356 913.203 280.641C911.918 281.927 910.176 282.649 908.359 282.649Z" fill="#EDEDED"/>
<path d="M908.359 309.732H698.319C696.502 309.732 694.76 309.009 693.475 307.724C692.19 306.439 691.469 304.695 691.469 302.878C691.469 301.06 692.19 299.316 693.475 298.031C694.76 296.746 696.502 296.023 698.319 296.023H908.359C910.176 296.023 911.919 296.746 913.203 298.031C914.488 299.316 915.21 301.06 915.21 302.878C915.21 304.695 914.488 306.439 913.203 307.724C911.919 309.009 910.176 309.732 908.359 309.732Z" fill="#EDEDED"/>
<path d="M789.367 336.815H698.319C696.502 336.815 694.76 336.092 693.475 334.807C692.19 333.522 691.469 331.778 691.469 329.961C691.469 328.143 692.19 326.399 693.475 325.114C694.76 323.829 696.502 323.106 698.319 323.106H789.367C790.267 323.105 791.159 323.282 791.991 323.626C792.823 323.97 793.579 324.474 794.216 325.111C794.853 325.747 795.359 326.503 795.704 327.336C796.048 328.168 796.226 329.06 796.226 329.961C796.226 330.861 796.048 331.753 795.704 332.586C795.359 333.418 794.853 334.174 794.216 334.81C793.579 335.447 792.823 335.951 791.991 336.295C791.159 336.639 790.267 336.816 789.367 336.815Z" fill="#EDEDED"/>
<path d="M908.359 445.138H698.319C697.419 445.138 696.529 444.961 695.697 444.616C694.866 444.272 694.111 443.767 693.475 443.131C692.839 442.494 692.334 441.739 691.99 440.907C691.646 440.076 691.469 439.184 691.469 438.284C691.469 437.384 691.646 436.493 691.99 435.662C692.334 434.83 692.839 434.075 693.475 433.438C694.111 432.802 694.866 432.297 695.697 431.952C696.529 431.608 697.419 431.431 698.319 431.431H908.359C909.259 431.431 910.149 431.608 910.98 431.952C911.812 432.297 912.567 432.802 913.203 433.438C913.839 434.075 914.343 434.83 914.688 435.662C915.032 436.493 915.209 437.384 915.209 438.284C915.209 439.184 915.032 440.076 914.688 440.907C914.343 441.739 913.839 442.494 913.203 443.131C912.567 443.767 911.812 444.272 910.98 444.616C910.149 444.961 909.259 445.138 908.359 445.138Z" fill="#EDEDED"/>
<path d="M908.358 472.221H698.318C696.503 472.218 694.763 471.495 693.48 470.21C692.197 468.925 691.477 467.183 691.477 465.367C691.477 463.55 692.197 461.808 693.48 460.523C694.763 459.238 696.503 458.515 698.318 458.513H908.358C910.174 458.515 911.914 459.238 913.197 460.523C914.479 461.808 915.2 463.55 915.2 465.367C915.2 467.183 914.479 468.925 913.197 470.21C911.914 471.495 910.174 472.218 908.358 472.221Z" fill="#EDEDED"/>
<path d="M789.367 499.303H698.319C696.502 499.303 694.76 498.581 693.475 497.295C692.19 496.01 691.469 494.267 691.469 492.449C691.469 490.631 692.19 488.888 693.475 487.602C694.76 486.317 696.502 485.595 698.319 485.595H789.367C790.267 485.594 791.159 485.77 791.991 486.114C792.823 486.458 793.579 486.963 794.216 487.599C794.853 488.236 795.359 488.992 795.704 489.824C796.048 490.656 796.226 491.548 796.226 492.449C796.226 493.35 796.048 494.242 795.704 495.074C795.359 495.906 794.853 496.662 794.216 497.299C793.579 497.935 792.823 498.44 791.991 498.784C791.159 499.128 790.267 499.304 789.367 499.303Z" fill="#EDEDED"/>
<path d="M614.524 357.166H488.075C484.686 357.162 481.437 355.813 479.041 353.416C476.645 351.018 475.297 347.767 475.293 344.377V261.38C475.297 257.989 476.645 254.738 479.041 252.341C481.437 249.943 484.686 248.595 488.075 248.591H614.524C617.912 248.595 621.161 249.943 623.558 252.341C625.954 254.738 627.302 257.989 627.306 261.38V344.377C627.302 347.767 625.954 351.018 623.558 353.416C621.161 355.813 617.912 357.162 614.524 357.166Z" fill="#EDEDED"/>
<path d="M605.638 258.962H496.966C493.88 258.965 490.922 260.192 488.739 262.375C486.557 264.557 485.329 267.517 485.324 270.604V335.149C485.329 338.237 486.557 341.198 488.739 343.381C490.921 345.565 493.88 346.793 496.966 346.797H566.262C579.787 346.784 592.754 341.402 602.318 331.834C611.882 322.265 617.26 309.291 617.274 295.759V270.604C617.271 267.517 616.044 264.558 613.862 262.375C611.681 260.193 608.723 258.965 605.638 258.962Z" fill="white"/>
<path d="M574.927 280.782L574.602 281.368C577.493 274.24 574.865 265.456 569.708 260.081C564.551 254.706 557.382 252.249 550.322 251.274C545.082 250.55 539.643 250.571 534.66 252.492C527.444 255.273 521.931 261.711 517.328 268.409C515.223 271.472 513.153 274.965 513.362 278.794C513.557 282.347 515.665 285.362 517.391 288.377C519.118 291.391 520.56 295.132 519.32 298.422C518.582 300.383 517.022 301.795 515.756 303.399C514.489 305.003 513.448 307.171 514.06 309.183C514.331 309.953 514.798 310.639 515.414 311.175C516.029 311.711 516.774 312.077 517.574 312.239C519.123 312.497 520.707 312.46 522.242 312.128L562.48 306.046C565.214 305.632 567.808 304.564 570.04 302.93C572.272 301.297 574.076 299.148 575.299 296.667C576.522 294.185 577.126 291.445 577.062 288.679C576.997 285.913 576.265 283.204 574.927 280.782Z" fill="#1B1B1B"/>
<path d="M544.997 305.765C555.862 305.765 564.67 296.952 564.67 286.082C564.67 275.211 555.862 266.398 544.997 266.398C534.132 266.398 525.324 275.211 525.324 286.082C525.324 296.952 534.132 305.765 544.997 305.765Z" fill="#FFB9B9"/>
<path d="M596.333 336.961C587.614 343.364 577.077 346.81 566.262 346.797H505.894C505.772 346.699 505.657 346.6 505.535 346.496L511.165 330.778C512.437 327.986 514.445 325.594 516.973 323.857C519.501 322.12 522.454 321.104 525.515 320.919L529.097 320.699L537.637 313.329C537.637 313.329 560.649 312.507 560.308 312.113L574.247 320.502L574.235 320.444L579.715 320.78C582.776 320.965 585.729 321.98 588.257 323.717C590.786 325.454 592.793 327.847 594.065 330.639L596.333 336.961Z" fill="#2688EB"/>
<path d="M563.659 267.814C563.151 265.126 560.411 263.897 558.064 263.301C551.254 261.563 544.171 261.173 537.212 262.155C532.139 262.879 526.946 264.475 523.266 268.437C520.298 271.773 518.616 276.058 518.523 280.523C518.373 283.193 518.969 285.852 520.244 288.201C520.815 289.295 521.66 290.222 522.697 290.89C523.733 291.559 524.926 291.946 526.157 292.014L526.393 292.836C536.27 291.459 545.445 285.31 551.224 276.195C550.139 280.069 547.981 283.558 544.999 286.257C551.667 283.587 557.464 279.117 561.742 273.346C562.911 271.794 564.045 269.859 563.659 267.814Z" fill="#1B1B1B"/>
<path d="M614.524 203.145H488.075C484.686 203.141 481.437 201.793 479.041 199.395C476.645 196.998 475.297 193.747 475.293 190.356V107.359C475.297 103.968 476.645 100.718 479.041 98.3203C481.437 95.9228 484.686 94.5742 488.075 94.5703H614.524C617.912 94.5741 621.161 95.9228 623.558 98.3203C625.954 100.718 627.302 103.968 627.306 107.359V190.356C627.302 193.747 625.954 196.998 623.558 199.395C621.161 201.793 617.912 203.141 614.524 203.145Z" fill="#EDEDED"/>
<path d="M605.638 104.941H496.966C493.881 104.945 490.923 106.173 488.74 108.355C486.558 110.537 485.329 113.497 485.324 116.584V181.129C485.329 184.217 486.557 187.177 488.739 189.361C490.921 191.544 493.88 192.773 496.966 192.777H566.262C579.788 192.766 592.757 187.385 602.321 177.816C611.885 168.247 617.263 155.271 617.274 141.738V116.584C617.271 113.497 616.044 110.538 613.862 108.355C611.681 106.172 608.723 104.945 605.638 104.941Z" fill="white"/>
<path d="M525.181 117.463C530.299 117.463 534.448 113.312 534.448 108.191C534.448 103.07 530.299 98.9189 525.181 98.9189C520.063 98.9189 515.914 103.07 515.914 108.191C515.914 113.312 520.063 117.463 525.181 117.463Z" fill="#1B1B1B"/>
<path d="M540.008 152.696C552.974 152.696 563.485 142.18 563.485 129.207C563.485 116.234 552.974 105.718 540.008 105.718C527.042 105.718 516.531 116.234 516.531 129.207C516.531 142.18 527.042 152.696 540.008 152.696Z" fill="#1B1B1B"/>
<path d="M541.953 152.691C552.489 152.691 561.03 144.145 561.03 133.603C561.03 123.061 552.489 114.516 541.953 114.516C531.416 114.516 522.875 123.061 522.875 133.603C522.875 144.145 531.416 152.691 541.953 152.691Z" fill="#9E616A"/>
<path d="M554.907 114.146C551.564 112.107 547.735 111.004 543.82 110.952C539.906 110.9 536.049 111.902 532.653 113.852C529.258 115.802 526.448 118.63 524.518 122.038C522.589 125.446 521.61 129.311 521.684 133.228C531.405 135.67 541.617 137.538 551.984 133.812L554.432 127.817L555.875 133.816C559.032 135.107 562.198 136.2 565.363 133.804C565.492 129.898 564.594 126.027 562.76 122.577C560.925 119.128 558.217 116.22 554.907 114.146Z" fill="#1B1B1B"/>
<path d="M516.552 83.0205C513.299 81.631 509.721 81.1803 506.225 81.7192C502.729 82.2581 499.453 83.7652 496.768 86.0699C494.142 88.4404 492.143 91.424 490.949 94.7548C489.756 98.0856 489.404 101.66 489.925 105.16C490.976 112.278 495.302 118.408 499.288 124.397C503.275 130.386 507.17 136.948 507.166 144.143C507.163 149.326 505.105 154.296 501.445 157.963C497.785 161.63 492.821 163.695 487.641 163.706C493.72 166.324 500.065 168.994 506.677 168.684C513.289 168.373 520.219 164.121 521.297 157.587C522.074 152.879 519.766 148.288 517.84 143.923C514.704 136.809 512.437 129.343 511.089 121.686C510.446 118.032 510.027 114.19 511.218 110.676C512.166 108.072 513.925 105.841 516.237 104.314C518.548 102.786 521.289 102.042 524.055 102.191L526.24 100.225C526.614 96.7054 525.882 93.1567 524.145 90.073C522.409 86.9893 519.755 84.524 516.552 83.0205Z" fill="#1B1B1B"/>
<path d="M592.416 185.541C584.518 190.288 575.476 192.79 566.262 192.777H500.866L500.762 192.69L506.392 176.967C507.664 174.176 509.672 171.784 512.2 170.048C514.728 168.312 517.681 167.297 520.742 167.113L524.323 166.893L532.864 159.523C532.864 159.523 555.876 158.695 555.534 158.302L569.473 166.691L569.462 166.638L574.941 166.974C578.003 167.157 580.956 168.17 583.484 169.906C586.013 171.643 588.02 174.035 589.291 176.828L592.416 185.541Z" fill="#2688EB"/>
<path d="M614.524 519.654H488.075C484.686 519.65 481.437 518.301 479.041 515.904C476.645 513.506 475.297 510.256 475.293 506.865V423.868C475.297 420.477 476.645 417.227 479.041 414.829C481.437 412.432 484.686 411.083 488.075 411.079H614.524C617.912 411.083 621.161 412.432 623.558 414.829C625.954 417.227 627.302 420.477 627.306 423.868V506.865C627.302 510.256 625.954 513.506 623.558 515.904C621.161 518.301 617.912 519.65 614.524 519.654Z" fill="#EDEDED"/>
<path d="M605.638 421.45H496.966C493.88 421.453 490.922 422.681 488.739 424.863C486.557 427.046 485.329 430.005 485.324 433.093V497.638C485.329 500.726 486.557 503.686 488.739 505.869C490.921 508.053 493.88 509.281 496.966 509.286H566.262C579.787 509.272 592.755 503.891 602.318 494.322C611.882 484.753 617.261 471.779 617.274 458.247V433.093C617.271 430.006 616.044 427.046 613.862 424.864C611.681 422.681 608.723 421.453 605.638 421.45Z" fill="white"/>
<path d="M551.206 462.511C565.662 462.511 577.381 450.786 577.381 436.322C577.381 421.859 565.662 410.134 551.206 410.134C536.75 410.134 525.031 421.859 525.031 436.322C525.031 450.786 536.75 462.511 551.206 462.511Z" fill="#1B1B1B"/>
<path d="M551.215 465.951C564.129 465.951 574.598 455.477 574.598 442.556C574.598 429.635 564.129 419.16 551.215 419.16C538.301 419.16 527.832 429.635 527.832 442.556C527.832 455.477 538.301 465.951 551.215 465.951Z" fill="#FFB8B8"/>
<path d="M597.989 498.187C588.98 505.383 577.791 509.297 566.263 509.286H507.949L513.481 493.845C514.753 491.054 516.761 488.661 519.289 486.924C521.817 485.187 524.77 484.172 527.831 483.986L531.413 483.766L539.953 476.396C539.953 476.396 562.965 475.574 562.624 475.181L576.563 483.569L576.551 483.511L582.031 483.847C585.092 484.032 588.045 485.047 590.573 486.784C593.101 488.521 595.109 490.914 596.381 493.706L597.989 498.187Z" fill="#2688EB"/>
<path d="M575.886 434.351C576.05 432.604 576.125 430.85 576.111 429.096C576.207 425.626 575.571 422.175 574.246 418.967C572.617 415.416 569.711 412.607 566.107 411.1C562.535 409.659 558.542 409.662 554.973 411.11C551.832 408.947 548.193 407.622 544.398 407.258C542.497 407.105 540.587 407.415 538.831 408.16C537.076 408.906 535.526 410.065 534.315 411.539C533.796 412.352 533.207 413.118 532.554 413.829C530.685 415.559 527.846 415.31 525.363 414.956C526.477 415.911 527.591 416.866 528.705 417.821C527.357 418.173 526.009 418.526 524.66 418.878C526.234 419.833 527.807 420.788 529.38 421.742C524.813 424.485 522.737 430.472 523.285 435.909C523.804 441.056 526.288 445.764 529.257 449.948C530.442 447.447 530.187 444.454 530.167 441.637C530.156 440.724 530.212 439.81 530.334 438.905C540.369 441.312 550.854 442.856 561.487 439.034L563.621 433.808C563.921 433.839 564.22 433.868 564.519 433.9L565.756 439.039C568.559 440.185 571.367 441.187 574.177 440.134C574.314 440.928 574.396 441.738 574.459 442.516C574.7 441.585 574.91 440.647 575.098 439.705C575.47 439.506 575.825 439.278 576.162 439.025C576.23 437.462 576.137 435.895 575.886 434.351Z" fill="#1B1B1B"/>
<path d="M967.945 24.0922H422.559C421.749 24.0913 420.972 23.769 420.4 23.196C419.827 22.6229 419.505 21.846 419.504 21.0357V3.05651C419.505 2.24615 419.827 1.46922 420.4 0.896208C420.972 0.323195 421.749 0.000887104 422.559 0H967.945C968.755 0.00088404 969.532 0.323195 970.105 0.896208C970.677 1.46922 970.999 2.24615 971 3.05651V21.0357C970.999 21.846 970.677 22.6229 970.105 23.196C969.532 23.769 968.755 24.0913 967.945 24.0922Z" fill="#EDEDED"/>
<path d="M437.232 15.509C439.627 15.509 441.569 13.5662 441.569 11.1695C441.569 8.77293 439.627 6.83008 437.232 6.83008C434.836 6.83008 432.895 8.77293 432.895 11.1695C432.895 13.5662 434.836 15.509 437.232 15.509Z" fill="white"/>
<path d="M453.697 15.509C456.092 15.509 458.034 13.5662 458.034 11.1695C458.034 8.77293 456.092 6.83008 453.697 6.83008C451.301 6.83008 449.359 8.77293 449.359 11.1695C449.359 13.5662 451.301 15.509 453.697 15.509Z" fill="white"/>
<path d="M470.158 15.509C472.553 15.509 474.495 13.5662 474.495 11.1695C474.495 8.77293 472.553 6.83008 470.158 6.83008C467.762 6.83008 465.82 8.77293 465.82 11.1695C465.82 13.5662 467.762 15.509 470.158 15.509Z" fill="white"/>
<path d="M951.815 8.18203H932.857C932.485 8.18203 932.128 8.034 931.864 7.77051C931.601 7.50703 931.453 7.14967 931.453 6.77705C931.453 6.40443 931.601 6.04706 931.864 5.78357C932.128 5.52009 932.485 5.37207 932.857 5.37207H951.815C952.187 5.37207 952.544 5.52009 952.807 5.78357C953.071 6.04706 953.219 6.40443 953.219 6.77705C953.219 7.14967 953.071 7.50703 952.807 7.77051C952.544 8.034 952.187 8.18203 951.815 8.18203Z" fill="white"/>
<path d="M951.815 13.4506H932.857C932.673 13.4506 932.49 13.4142 932.32 13.3436C932.15 13.273 931.995 13.1695 931.864 13.0391C931.734 12.9086 931.631 12.7537 931.56 12.5833C931.489 12.4128 931.453 12.2301 931.453 12.0456C931.453 11.8611 931.489 11.6784 931.56 11.5079C931.631 11.3375 931.734 11.1826 931.864 11.0521C931.995 10.9217 932.15 10.8182 932.32 10.7476C932.49 10.677 932.673 10.6406 932.857 10.6406H951.815C951.999 10.6406 952.182 10.677 952.352 10.7476C952.522 10.8182 952.677 10.9217 952.807 11.0521C952.938 11.1826 953.041 11.3375 953.112 11.5079C953.182 11.6784 953.219 11.8611 953.219 12.0456C953.219 12.2301 953.182 12.4128 953.112 12.5833C953.041 12.7537 952.938 12.9086 952.807 13.0391C952.677 13.1695 952.522 13.273 952.352 13.3436C952.182 13.4142 951.999 13.4506 951.815 13.4506Z" fill="white"/>
<path d="M951.815 18.7201H932.857C932.485 18.7201 932.128 18.5721 931.864 18.3086C931.601 18.0451 931.453 17.6878 931.453 17.3151C931.453 16.9425 931.601 16.5852 931.864 16.3217C932.128 16.0582 932.485 15.9102 932.857 15.9102H951.815C952.187 15.9102 952.544 16.0582 952.807 16.3217C953.071 16.5852 953.219 16.9425 953.219 17.3151C953.219 17.6878 953.071 18.0451 952.807 18.3086C952.544 18.5721 952.187 18.7201 951.815 18.7201Z" fill="white"/>
<path d="M856.609 184.659C860.941 184.659 864.453 181.146 864.453 176.812C864.453 172.477 860.941 168.964 856.609 168.964C852.277 168.964 848.766 172.477 848.766 176.812C848.766 181.146 852.277 184.659 856.609 184.659Z" fill="#2688EB"/>
<path d="M882.082 184.659C886.414 184.659 889.926 181.146 889.926 176.812C889.926 172.477 886.414 168.964 882.082 168.964C877.75 168.964 874.238 172.477 874.238 176.812C874.238 181.146 877.75 184.659 882.082 184.659Z" fill="#2688EB"/>
<path d="M907.551 184.659C911.883 184.659 915.394 181.146 915.394 176.812C915.394 172.477 911.883 168.964 907.551 168.964C903.219 168.964 899.707 172.477 899.707 176.812C899.707 181.146 903.219 184.659 907.551 184.659Z" fill="#2688EB"/>
<path d="M856.609 337.571C860.941 337.571 864.453 334.057 864.453 329.723C864.453 325.389 860.941 321.875 856.609 321.875C852.277 321.875 848.766 325.389 848.766 329.723C848.766 334.057 852.277 337.571 856.609 337.571Z" fill="#EDEDED"/>
<path d="M882.082 337.571C886.414 337.571 889.926 334.057 889.926 329.723C889.926 325.389 886.414 321.875 882.082 321.875C877.75 321.875 874.238 325.389 874.238 329.723C874.238 334.057 877.75 337.571 882.082 337.571Z" fill="#EDEDED"/>
<path d="M907.551 337.571C911.883 337.571 915.394 334.057 915.394 329.723C915.394 325.389 911.883 321.875 907.551 321.875C903.219 321.875 899.707 325.389 899.707 329.723C899.707 334.057 903.219 337.571 907.551 337.571Z" fill="#EDEDED"/>
<path d="M856.609 500.347C860.941 500.347 864.453 496.833 864.453 492.499C864.453 488.165 860.941 484.651 856.609 484.651C852.277 484.651 848.766 488.165 848.766 492.499C848.766 496.833 852.277 500.347 856.609 500.347Z" fill="#EDEDED"/>
<path d="M882.082 500.347C886.414 500.347 889.926 496.833 889.926 492.499C889.926 488.165 886.414 484.651 882.082 484.651C877.75 484.651 874.238 488.165 874.238 492.499C874.238 496.833 877.75 500.347 882.082 500.347Z" fill="#EDEDED"/>
<path d="M907.551 500.347C911.883 500.347 915.394 496.833 915.394 492.499C915.394 488.165 911.883 484.651 907.551 484.651C903.219 484.651 899.707 488.165 899.707 492.499C899.707 496.833 903.219 500.347 907.551 500.347Z" fill="#EDEDED"/>
<path d="M633.35 183.582L592.919 157.97C592.147 157.48 591.258 157.209 590.345 157.183C589.431 157.157 588.528 157.378 587.729 157.822C586.931 158.267 586.267 158.918 585.807 159.708C585.347 160.498 585.109 161.398 585.117 162.312L585.515 206.474C585.525 207.648 585.942 208.782 586.692 209.684C587.443 210.585 588.483 211.199 589.635 211.422C590.787 211.644 591.98 211.461 593.013 210.903C594.045 210.345 594.853 209.447 595.299 208.362L600.559 195.56L615.226 224.491C615.923 225.86 617.134 226.896 618.594 227.372C620.054 227.848 621.643 227.725 623.012 227.031C624.381 226.336 625.419 225.125 625.897 223.666C626.376 222.206 626.255 220.616 625.563 219.245L610.563 189.656L629.787 192.894C630.944 193.089 632.134 192.877 633.153 192.294C634.172 191.711 634.958 190.794 635.378 189.697C635.797 188.6 635.825 187.392 635.455 186.277C635.085 185.162 634.341 184.21 633.35 183.582Z" fill="#1B1B1B"/>
<path d="M129.767 426.204C130.602 425.291 131.228 424.206 131.6 423.024C131.972 421.842 132.081 420.593 131.921 419.364C131.761 418.135 131.334 416.957 130.671 415.912C130.008 414.866 129.125 413.98 128.085 413.314L135 384L120.364 389.372L116.041 416.386C115.044 418.217 114.75 420.351 115.215 422.385C115.68 424.419 116.872 426.21 118.564 427.42C120.256 428.63 122.331 429.175 124.396 428.951C126.461 428.726 128.372 427.749 129.767 426.204Z" fill="#FFB8B8"/>
<path d="M164 304.117L158.223 319.149C158.223 319.149 160.699 334.181 156.572 337.521C152.445 340.862 154.096 340.862 154.096 343.367C153.954 345.164 153.439 346.911 152.586 348.493C151.733 350.076 150.56 351.459 149.144 352.553C145.843 355.058 130.986 406 130.986 406H116.13C116.61 402.118 116.61 398.191 116.13 394.308C115.305 388.463 118.606 373.431 120.257 370.926C121.908 368.42 120.257 365.08 120.257 360.069C120.257 355.058 123.558 352.553 123.558 344.202C123.558 335.851 133.462 270.713 132.637 263.197C131.812 255.681 140.89 249 140.89 249H149.144L164 304.117Z" fill="#EDEDED"/>
<path d="M134.001 609H144.841L150 567H134L134.001 609Z" fill="#FFB6B6"/>
<path d="M130.186 602.025L147.518 601V608.355L163.997 619.626C164.811 620.182 165.424 620.982 165.746 621.908C166.069 622.834 166.084 623.838 165.79 624.773C165.495 625.708 164.907 626.526 164.11 627.106C163.313 627.687 162.35 628 161.361 628H140.726L137.169 620.725L135.78 628H128L130.186 602.025Z" fill="#1B1B1B"/>
<path d="M195.001 609H205.841L211 567H195L195.001 609Z" fill="#FFB6B6"/>
<path d="M191.186 602.025L208.518 601V608.355L224.997 619.626C225.811 620.182 226.424 620.982 226.746 621.908C227.069 622.834 227.084 623.838 226.79 624.773C226.495 625.708 225.907 626.526 225.11 627.106C224.313 627.687 223.35 628 222.361 628H201.726L198.169 620.725L196.78 628H189L191.186 602.025Z" fill="#1B1B1B"/>
<path d="M128.878 573.275H128.997L135.038 505.348C133.682 502.748 132.994 499.855 133.035 496.926C133.076 493.998 133.844 491.125 135.272 488.563L135.572 488.023L134.794 484.439C133.796 479.834 134.254 475.034 136.106 470.699L134.113 407.335C127.133 362.343 160.4 333 160.4 333H210.235L220.934 369.558C224.951 408.481 237.513 449.421 235.849 487.155C234.583 515.859 220.349 541.621 215.5 569.576L215.806 569.729C216.907 570.108 217.38 571.626 216.861 573.12C216.343 574.614 215.029 575.519 213.927 575.141L187.609 574.23C186.507 573.852 186.034 572.334 186.553 570.84C187.072 569.346 188.385 568.441 189.487 568.819L191.277 569.719L204.234 501.228L204.657 489.256L203.785 475.673L182.977 417.522L167.707 492.651L152.11 574.031C152.54 574.419 152.842 574.927 152.976 575.488C153.11 576.05 153.069 576.639 152.86 577.177C152.65 577.715 152.281 578.178 151.802 578.503C151.323 578.828 150.756 579.002 150.175 579H128.878C128.5 579 128.126 578.926 127.777 578.782C127.428 578.638 127.11 578.427 126.843 578.162C126.576 577.896 126.364 577.58 126.219 577.233C126.074 576.886 126 576.513 126 576.138C126 575.762 126.074 575.389 126.219 575.042C126.364 574.695 126.576 574.379 126.843 574.114C127.11 573.848 127.428 573.637 127.777 573.493C128.126 573.349 128.5 573.275 128.878 573.275Z" fill="#1B1B1B"/>
<path d="M125.063 364C123.436 364 122.511 363.681 122.153 362.999C121.628 361.996 122.539 360.687 123.595 359.17C124.378 358.179 124.995 357.069 125.424 355.882C126.055 353.363 130.315 289.725 127.767 277.009C127.177 274.067 127.685 270.296 129.274 265.8C133.617 253.523 139.544 249.749 151.353 242.233C152.311 241.623 153.309 240.986 154.347 240.321C155.689 239.461 155.615 236.606 155.536 233.584C155.448 230.225 155.357 226.751 157.006 224.58L157.113 224.438L157.286 224.398C161.275 223.478 174.691 221.769 182.636 224.41L182.746 224.448L182.828 224.529C184.715 226.412 184.887 230.06 185.053 233.588C185.189 236.484 185.318 239.218 186.386 240.406C194.549 249.486 203.807 249.309 203.901 249.307L204.36 249.294L204.406 249.749C207.956 285.791 213.681 340.188 214.897 342.329C214.961 342.427 214.996 342.54 215 342.657C215.003 342.774 214.975 342.889 214.917 342.991C213.131 346.32 131.198 364 125.063 364Z" fill="#EDEDED"/>
<path d="M178.5 214C192.031 214 203 203.031 203 189.5C203 175.969 192.031 165 178.5 165C164.969 165 154 175.969 154 189.5C154 203.031 164.969 214 178.5 214Z" fill="#FFB8B8"/>
<path d="M112.421 178.6C116.508 173.852 118.451 167.553 121.719 162.162C124.986 156.771 130.673 151.946 136.68 153.201C140.821 154.066 144.021 157.705 145.641 161.763C147.261 165.82 147.565 170.295 147.849 174.679C147.749 165.67 153.708 156.937 161.916 154.062C170.124 151.188 179.948 154.394 185.106 161.631C187.356 159.553 190.295 158.37 193.363 158.306C196.431 158.242 199.417 159.301 201.753 161.283C206.367 165.39 207.388 173.207 203.995 178.446C202.291 180.995 199.712 182.836 196.741 183.625C193.771 184.414 190.613 184.096 187.861 182.73L185.955 184.477C186.449 186.344 186.268 188.324 185.445 190.072C184.621 191.819 183.207 193.223 181.449 194.037C178.613 195.178 174.609 194.989 173.547 197.953C172.805 200.025 174.192 202.236 175.667 203.828C177.141 205.42 178.892 207.063 179.069 209.266C179.337 212.59 175.888 214.918 172.753 215.619C168.91 216.385 164.925 215.99 161.309 214.487C157.692 212.983 154.608 210.439 152.451 207.18C152.367 207.052 152.276 206.924 152.177 206.795C149.733 203.682 147.952 200.105 146.942 196.283C145.933 192.461 145.716 188.474 146.306 184.565C146.551 183.03 146.304 181.888 145.241 181.524C140.647 179.952 127.774 183.251 123.879 186.233C119.983 189.214 116.863 193.16 113.111 196.334C109.358 199.509 104.576 201.957 99.8116 201.093C95.9956 200.4 92.7492 197.641 90.5656 194.313C88.5065 190.868 86.9681 187.14 86 183.249C94.4382 188.104 105.987 186.072 112.421 178.6Z" fill="#1B1B1B"/>
<path d="M217.233 426.204C216.398 425.291 215.772 424.206 215.4 423.024C215.028 421.842 214.919 420.593 215.079 419.364C215.239 418.136 215.666 416.957 216.329 415.912C216.992 414.866 217.875 413.98 218.915 413.315L212 384L226.636 389.372L230.959 416.386C231.956 418.217 232.25 420.351 231.785 422.385C231.32 424.418 230.128 426.21 228.436 427.42C226.744 428.63 224.669 429.175 222.604 428.951C220.539 428.726 218.628 427.749 217.233 426.204Z" fill="#FFB8B8"/>
<path d="M182 304.117L187.898 319.149C187.898 319.149 185.37 334.181 189.583 337.521C193.795 340.862 192.11 340.862 192.11 343.367C192.256 345.164 192.781 346.911 193.652 348.493C194.523 350.076 195.72 351.459 197.166 352.553C200.536 355.058 215.701 406 215.701 406H230.867C230.377 402.118 230.377 398.191 230.867 394.308C231.71 388.463 228.339 373.431 226.654 370.926C224.969 368.42 226.654 365.08 226.654 360.069C226.654 355.058 223.284 352.553 223.284 344.202C223.284 335.851 213.174 270.713 214.016 263.197C214.859 255.681 205.591 249 205.591 249H197.166L182 304.117Z" fill="#EDEDED"/>
</g>
<defs>
<clipPath id="clip0_2931_67436">
<rect width="971" height="628" fill="white"/>
</clipPath>
</defs>
</svg>
