<svg width="972" height="629" viewBox="0 0 972 629" fill="none" xmlns="http://www.w3.org/2000/svg">
<g clip-path="url(#clip0_2930_67083)">
<path d="M733.459 500.406C730.801 482.499 730.098 464.355 731.364 446.295L733.459 416.406C721.917 439.372 724.526 469.599 733.459 500.406Z" fill="#F4F4F4"/>
<path d="M742.459 505.406C741.179 494.72 740.842 483.942 741.451 473.197L742.459 455.406C736.906 469.076 738.161 487.068 742.459 505.406Z" fill="#F4F4F4"/>
<path d="M782.461 527.408V537.408C782.457 538.203 782.139 538.963 781.578 539.525C781.016 540.087 780.255 540.404 779.461 540.408H774.461C774.329 540.408 774.199 540.433 774.078 540.483C773.956 540.533 773.846 540.607 773.753 540.7C773.66 540.793 773.586 540.903 773.536 541.025C773.486 541.147 773.46 541.277 773.461 541.408V623.408C773.457 624.203 773.139 624.963 772.578 625.525C772.016 626.087 771.255 626.404 770.461 626.408H709.461C708.665 626.408 707.903 626.091 707.34 625.529C706.778 624.966 706.462 624.204 706.461 623.408V541.408C706.46 541.143 706.355 540.889 706.167 540.702C705.98 540.515 705.726 540.409 705.461 540.408H699.461C698.665 540.408 697.903 540.091 697.34 539.529C696.778 538.966 696.462 538.204 696.461 537.408V527.408C696.46 527.014 696.538 526.624 696.688 526.259C696.839 525.895 697.06 525.564 697.338 525.286C697.617 525.007 697.948 524.786 698.312 524.635C698.676 524.485 699.067 524.408 699.461 524.408H779.461C780.256 524.411 781.018 524.727 781.58 525.289C782.142 525.852 782.459 526.613 782.461 527.408Z" fill="#EDEDED"/>
<path d="M773.551 542.508H706.551V545.508H773.551V542.508Z" fill="#F4F4F4"/>
<path d="M773.461 586.653C751.041 595.931 728.377 596.033 705.461 586.653V565.518C727.522 558.109 751.4 558.109 773.461 565.518V586.653Z" fill="#F4F4F4"/>
<path d="M451.482 250.381C471.583 250.381 487.877 234.086 487.877 213.986C487.877 193.885 471.583 177.59 451.482 177.59C431.381 177.59 415.086 193.885 415.086 213.986C415.086 234.086 431.381 250.381 451.482 250.381Z" fill="#1B1B1B"/>
<path d="M461.622 178.591C467.921 178.592 474.112 180.227 479.589 183.337C485.067 186.447 489.644 190.925 492.872 196.333C496.101 201.742 497.871 207.895 498.009 214.193C498.148 220.49 496.649 226.715 493.661 232.26C496.817 228.312 499.115 223.75 500.41 218.865C501.705 213.98 501.968 208.878 501.182 203.886C500.396 198.893 498.579 194.119 495.847 189.867C493.114 185.616 489.525 181.98 485.31 179.192C481.094 176.404 476.344 174.525 471.362 173.674C466.381 172.824 461.276 173.02 456.374 174.251C451.473 175.482 446.881 177.721 442.892 180.825C438.904 183.928 435.605 187.829 433.207 192.278C436.609 188.006 440.931 184.557 445.851 182.188C450.771 179.818 456.161 178.589 461.622 178.591Z" fill="#1B1B1B"/>
<path d="M383.471 213.908C442.517 213.908 490.384 166.042 490.384 106.995C490.384 47.9494 442.517 0.0830078 383.471 0.0830078C324.425 0.0830078 276.559 47.9494 276.559 106.995C276.559 166.042 324.425 213.908 383.471 213.908Z" fill="#1B1B1B"/>
<path d="M299.56 40.6619C317.982 19.944 343.733 7.19379 371.377 5.10227C399.022 3.01075 426.398 11.7416 447.727 29.452C446.853 28.621 445.988 27.7832 445.079 26.9756C423.885 8.15086 396.083 -1.48642 367.785 0.182746C339.487 1.85192 313.011 14.6909 294.177 35.8767C275.343 57.0625 265.694 84.8607 267.351 113.159C269.008 141.458 281.836 167.94 303.013 186.783C303.922 187.59 304.855 188.351 305.783 189.122C285.696 170.014 273.818 143.849 272.657 116.15C271.496 88.4508 281.142 61.3839 299.56 40.6619Z" fill="#1B1B1B"/>
<path d="M382.566 213.002C420.596 213.002 451.425 182.173 451.425 144.143C451.425 106.113 420.596 75.2842 382.566 75.2842C344.536 75.2842 313.707 106.113 313.707 144.143C313.707 182.173 344.536 213.002 382.566 213.002Z" fill="#FFB8B8"/>
<path d="M417.74 231.695L344.051 235.008C344.051 235.008 350.201 273.116 310.336 276.74C270.47 280.364 234.229 269.492 219.732 296.673C205.235 323.854 211.484 420.639 211.484 420.639C211.484 420.639 238.665 518.491 260.41 532.988C282.155 547.485 472.423 527.552 472.423 527.552L552.051 427.008L549.354 349.468C547.946 308.977 510.977 278.577 471.161 286.07C470.379 286.217 469.591 286.376 468.799 286.546C468.799 286.546 460.051 280.008 436.051 268.008C421.374 260.67 417.74 231.695 417.74 231.695Z" fill="#EDEDED"/>
<path d="M257.785 274.928C257.785 274.928 275.299 306.706 268.051 352.008C260.802 397.31 291.215 493.122 291.215 493.122L312.96 487.686C312.96 487.686 298.463 393.458 302.087 371.713C305.711 349.968 306.711 285.8 288.591 274.928C270.47 264.055 257.785 274.928 257.785 274.928Z" fill="#1B1B1B"/>
<path d="M467.525 291.59L475.142 492.216L489.638 501.277C489.638 501.277 510.477 281.109 499.605 281.109H477.482C476.173 281.109 474.876 281.367 473.667 281.868C472.457 282.369 471.358 283.104 470.432 284.03C469.506 284.955 468.772 286.055 468.271 287.264C467.77 288.474 467.512 289.77 467.512 291.08C467.512 291.25 467.516 291.42 467.525 291.59Z" fill="#1B1B1B"/>
<path d="M301.181 488.592C306.185 488.592 310.242 484.536 310.242 479.532C310.242 474.528 306.185 470.472 301.181 470.472C296.178 470.472 292.121 474.528 292.121 479.532C292.121 484.536 296.178 488.592 301.181 488.592Z" fill="#2688EB"/>
<path d="M482.389 497.653C487.392 497.653 491.449 493.597 491.449 488.593C491.449 483.589 487.392 479.532 482.389 479.532C477.385 479.532 473.328 483.589 473.328 488.593C473.328 493.597 477.385 497.653 482.389 497.653Z" fill="#2688EB"/>
<path d="M323.672 58.0693V126.928H339.619L359.914 105.183L357.196 126.928H427.685L423.336 105.183L432.034 126.928H443.269V58.0693H323.672Z" fill="#1B1B1B"/>
<path d="M312.799 139.613C315.802 139.613 318.236 135.151 318.236 129.647C318.236 124.143 315.802 119.681 312.799 119.681C309.797 119.681 307.363 124.143 307.363 129.647C307.363 135.151 309.797 139.613 312.799 139.613Z" fill="#FFB8B8"/>
<path d="M452.331 139.613C455.333 139.613 457.767 135.151 457.767 129.647C457.767 124.143 455.333 119.681 452.331 119.681C449.328 119.681 446.895 124.143 446.895 129.647C446.895 135.151 449.328 139.613 452.331 139.613Z" fill="#FFB8B8"/>
<path d="M603.152 608.446V614.516C603.156 616.182 602.847 617.834 602.242 619.386C601.974 620.078 601.649 620.747 601.272 621.386C600.08 623.386 598.389 625.043 596.364 626.193C594.34 627.343 592.051 627.947 589.722 627.946H143.172C140.844 627.947 138.555 627.343 136.53 626.193C134.505 625.043 132.814 623.386 131.622 621.386C131.245 620.747 130.921 620.078 130.652 619.386C130.047 617.834 129.739 616.182 129.742 614.516V608.446C129.742 606.683 130.089 604.937 130.763 603.308C131.437 601.678 132.426 600.198 133.672 598.951C134.919 597.704 136.398 596.715 138.027 596.039C139.656 595.364 141.402 595.016 143.165 595.016H168.912V592.186C168.912 592.113 168.926 592.04 168.954 591.972C168.982 591.904 169.023 591.842 169.075 591.79C169.127 591.738 169.189 591.697 169.256 591.669C169.324 591.641 169.397 591.626 169.47 591.626H182.902C183.05 591.626 183.193 591.684 183.298 591.789C183.403 591.894 183.462 592.036 183.462 592.184V595.016H191.852V592.186C191.852 592.113 191.866 592.04 191.894 591.972C191.922 591.904 191.963 591.842 192.015 591.79C192.067 591.738 192.129 591.697 192.196 591.669C192.264 591.641 192.337 591.626 192.41 591.626H205.842C205.99 591.626 206.133 591.684 206.238 591.789C206.343 591.894 206.402 592.036 206.402 592.184V595.016H214.802V592.186C214.802 592.113 214.816 592.04 214.844 591.972C214.872 591.904 214.913 591.842 214.965 591.79C215.017 591.738 215.079 591.697 215.146 591.669C215.214 591.641 215.287 591.626 215.36 591.626H228.792C228.94 591.626 229.083 591.684 229.188 591.789C229.293 591.894 229.352 592.036 229.352 592.184V595.016H237.742V592.186C237.742 592.113 237.756 592.04 237.784 591.972C237.812 591.904 237.853 591.842 237.905 591.79C237.957 591.738 238.019 591.697 238.086 591.669C238.154 591.641 238.227 591.626 238.3 591.626H251.732C251.88 591.626 252.023 591.684 252.128 591.789C252.233 591.894 252.292 592.036 252.292 592.184V595.016H260.682V592.186C260.682 592.113 260.696 592.04 260.724 591.972C260.752 591.904 260.793 591.842 260.845 591.79C260.897 591.738 260.959 591.697 261.026 591.669C261.094 591.641 261.167 591.626 261.24 591.626H274.672C274.82 591.626 274.963 591.685 275.068 591.789C275.173 591.894 275.232 592.036 275.232 592.184V595.016H283.632V592.186C283.632 592.113 283.646 592.04 283.674 591.972C283.702 591.904 283.743 591.842 283.795 591.79C283.847 591.738 283.909 591.697 283.976 591.669C284.044 591.641 284.117 591.626 284.19 591.626H297.622C297.77 591.626 297.913 591.685 298.018 591.789C298.123 591.894 298.182 592.036 298.182 592.184V595.016H306.572V592.186C306.572 592.113 306.586 592.04 306.614 591.972C306.642 591.904 306.683 591.842 306.735 591.79C306.787 591.738 306.849 591.697 306.916 591.669C306.984 591.641 307.057 591.626 307.13 591.626H412.332C412.406 591.626 412.478 591.64 412.546 591.668C412.614 591.696 412.676 591.737 412.728 591.789C412.78 591.841 412.821 591.903 412.849 591.97C412.877 592.038 412.892 592.111 412.892 592.184V595.016H421.292V592.186C421.292 592.113 421.306 592.04 421.334 591.972C421.362 591.904 421.403 591.843 421.455 591.791C421.507 591.739 421.569 591.697 421.637 591.669C421.704 591.641 421.777 591.626 421.85 591.626H435.282C435.43 591.628 435.572 591.687 435.677 591.792C435.781 591.896 435.841 592.038 435.842 592.186V595.016H444.232V592.186C444.232 592.113 444.246 592.04 444.274 591.972C444.302 591.904 444.343 591.843 444.395 591.791C444.447 591.739 444.509 591.697 444.576 591.669C444.644 591.641 444.717 591.626 444.79 591.626H458.222C458.296 591.626 458.368 591.64 458.436 591.668C458.504 591.696 458.566 591.737 458.618 591.789C458.67 591.841 458.711 591.903 458.739 591.97C458.767 592.038 458.782 592.111 458.782 592.184V595.016H467.172V592.186C467.172 592.113 467.186 592.04 467.214 591.972C467.242 591.904 467.283 591.843 467.335 591.791C467.387 591.739 467.449 591.697 467.516 591.669C467.584 591.641 467.657 591.626 467.73 591.626H481.162C481.236 591.626 481.308 591.64 481.376 591.668C481.444 591.696 481.506 591.737 481.558 591.789C481.61 591.841 481.651 591.903 481.679 591.97C481.707 592.038 481.722 592.111 481.722 592.184V595.016H490.122V592.186C490.122 592.113 490.136 592.04 490.164 591.972C490.192 591.904 490.233 591.843 490.285 591.791C490.337 591.739 490.399 591.697 490.466 591.669C490.534 591.641 490.607 591.626 490.68 591.626H504.112C504.259 591.628 504.399 591.688 504.503 591.793C504.606 591.898 504.663 592.039 504.662 592.186V595.016H513.062V592.186C513.062 592.113 513.076 592.04 513.104 591.972C513.132 591.904 513.173 591.843 513.225 591.791C513.277 591.739 513.339 591.697 513.406 591.669C513.474 591.641 513.547 591.626 513.62 591.626H527.052C527.126 591.626 527.198 591.64 527.266 591.668C527.334 591.696 527.396 591.737 527.448 591.789C527.5 591.841 527.541 591.903 527.569 591.97C527.597 592.038 527.612 592.111 527.612 592.184V595.016H536.002V592.186C536.002 592.113 536.016 592.04 536.044 591.972C536.072 591.904 536.113 591.843 536.165 591.791C536.217 591.739 536.279 591.697 536.346 591.669C536.414 591.641 536.487 591.626 536.56 591.626H549.992C550.066 591.626 550.138 591.64 550.206 591.668C550.274 591.696 550.336 591.737 550.388 591.789C550.44 591.841 550.481 591.903 550.509 591.97C550.537 592.038 550.552 592.111 550.552 592.184V595.016H589.722C593.283 595.015 596.698 596.429 599.217 598.946C601.736 601.463 603.151 604.878 603.152 608.439L603.152 608.446Z" fill="#2688EB"/>
<path d="M971.052 626.382H0V628.382H971.052V626.382Z" fill="#2688EB"/>
<path d="M567.193 352.812H158.149C156.671 352.812 155.207 353.103 153.841 353.669C152.475 354.234 151.234 355.064 150.188 356.109C149.143 357.155 148.313 358.396 147.748 359.762C147.182 361.128 146.891 362.592 146.891 364.07V591.982C146.891 594.968 148.077 597.831 150.188 599.943C152.3 602.054 155.163 603.24 158.149 603.24H567.193C570.179 603.24 573.042 602.054 575.154 599.943C577.265 597.831 578.451 594.968 578.451 591.982V364.07C578.451 361.084 577.265 358.22 575.154 356.109C573.042 353.998 570.179 352.812 567.193 352.812Z" fill="#2688EB"/>
<path d="M517.762 267.219L643.968 140.016H703.551V138.016H643.133L642.84 138.313L516.34 265.813L517.762 267.219Z" fill="#2688EB"/>
<path d="M922.552 87.792H776.328V100.822H922.552V87.792Z" fill="#2688EB"/>
<path d="M758.506 109.061H727.551V78.1055H758.506V109.061ZM729.551 107.061H756.506V80.1055H729.551L729.551 107.061Z" fill="#2688EB"/>
<path d="M922.552 131.225H776.328V144.254H922.552V131.225Z" fill="#2688EB"/>
<path d="M758.506 152.494H727.551V121.539H758.506V152.494ZM729.551 150.494H756.506V123.539H729.551L729.551 150.494Z" fill="#2688EB"/>
<path d="M922.552 174.658H776.328V187.688H922.552V174.658Z" fill="#2688EB"/>
<path d="M758.506 195.927H727.551V164.972H758.506V195.927ZM729.551 193.927H756.506V166.972H729.551L729.551 193.927Z" fill="#2688EB"/>
<g clip-path="url(#clip1_2930_67083)">
<path d="M297.258 483.701L320.525 458.211V451.379L297.258 476.868V483.701Z" fill="white"/>
<path d="M386.544 483.322L363.277 457.832V451L386.544 476.489V483.322Z" fill="white"/>
<path d="M395.755 493.411L372.488 467.922V461.09L395.755 486.579V493.411Z" fill="white"/>
<path d="M431.006 457.171L430.624 457.859L427.686 462.957V462.982L412.772 488.955L410.144 493.518H404.27L406.875 488.955L424.724 457.859L427.686 452.737L428.454 451.385L431.006 457.171Z" fill="white"/>
<path d="M451.081 493.514H445.206L442.601 488.951L431.852 470.242L434.788 465.119L448.476 488.951L451.081 493.514Z" fill="white"/>
<path d="M297.265 476.868V483.698L278.571 463.205L274 458.209V451.379L277.957 455.712L278.571 456.375L297.265 476.868Z" fill="white"/>
<path d="M278.571 472.27V493.527H274V467.273L278.571 472.27Z" fill="white"/>
<path d="M366.809 472.27V493.527H362.238V467.273L366.809 472.27Z" fill="white"/>
<path d="M391.238 472.636V451.379H395.809V477.632L391.238 472.636Z" fill="white"/>
<path d="M333.848 472.27V493.527H329.277V467.273L332.009 470.257L333.108 471.453L333.848 472.27Z" fill="white"/>
<path d="M333.848 453.205H329.277V471.456H333.848V453.205Z" fill="white"/>
<path d="M353.512 451.379V455.942H329.277V454.055L329.482 453.876L332.214 451.379H353.512Z" fill="white"/>
<path d="M343.986 451.379H329.277V455.942H343.986V451.379Z" fill="white"/>
<path d="M353.512 488.965V493.527H329.277V491.641L332.214 488.965H353.512Z" fill="white"/>
<path d="M350.055 470.077H339.793V474.64H350.055V470.077Z" fill="white"/>
<path d="M333.848 470.077V474.64H329.277V472.753L330.708 471.452L332.009 470.256L332.214 470.077H333.848Z" fill="white"/>
<path d="M333.848 460.467V481.724H329.277V455.471L329.482 455.7L331.372 457.766L333.848 460.467Z" fill="white"/>
<path d="M315.953 472.27V493.527H320.524V467.273L315.953 472.27Z" fill="white"/>
<path d="M416.061 456.567C417.494 456.567 418.657 455.407 418.657 453.976C418.657 452.545 417.494 451.385 416.061 451.385C414.627 451.385 413.465 452.545 413.465 453.976C413.465 455.407 414.627 456.567 416.061 456.567Z" fill="white"/>
<path d="M373.553 493.076C374.987 493.076 376.149 491.916 376.149 490.485C376.149 489.054 374.987 487.894 373.553 487.894C372.119 487.894 370.957 489.054 370.957 490.485C370.957 491.916 372.119 493.076 373.553 493.076Z" fill="white"/>
<path d="M285.635 493.835C287.069 493.835 288.231 492.675 288.231 491.243C288.231 489.812 287.069 488.652 285.635 488.652C284.201 488.652 283.039 489.812 283.039 491.243C283.039 492.675 284.201 493.835 285.635 493.835Z" fill="white"/>
</g>
</g>
<defs>
<clipPath id="clip0_2930_67083">
<rect width="971.052" height="628.381" fill="white"/>
</clipPath>
<clipPath id="clip1_2930_67083">
<rect width="178" height="42" fill="white" transform="translate(274 451)"/>
</clipPath>
</defs>
</svg>
