<svg width="971" height="628" viewBox="0 0 971 628" fill="none" xmlns="http://www.w3.org/2000/svg">
<g clip-path="url(#clip0_2930_66888)">
<path d="M53.5399 534.612C57.3599 503.959 76.3968 473.757 105.692 463.782C94.1388 495.332 94.1413 529.943 105.699 561.492C110.2 573.643 116.475 586.689 112.241 598.936C109.606 606.555 103.161 612.385 95.9571 616.031C88.7525 619.676 80.7568 621.413 72.8613 623.116L71.3074 624.398C58.7732 596.155 49.7199 565.264 53.5399 534.612Z" fill="#EDEDED"/>
<path d="M105.983 464.362C88.9229 483.437 78.3196 507.391 75.6791 532.822C75.0133 538.286 75.2148 543.821 76.2762 549.223C77.4806 554.452 80.0662 559.264 83.7644 563.159C87.1394 566.859 91.0212 570.254 93.4361 574.709C94.6383 577.007 95.34 579.533 95.4952 582.121C95.6504 584.71 95.2556 587.301 94.3367 589.726C92.2046 595.829 88.0023 600.803 83.7235 605.524C78.9727 610.767 73.9548 616.137 71.9354 623.087C71.6907 623.929 70.3956 623.501 70.6399 622.66C74.1534 610.568 85.9162 603.7 91.5259 592.809C94.1434 587.727 95.2421 581.827 92.7882 576.462C90.6424 571.771 86.6425 568.267 83.1927 564.55C79.5292 560.803 76.8407 556.219 75.3621 551.196C74.0285 545.866 73.6137 540.347 74.1353 534.878C75.1129 522.546 78.0276 510.443 82.7726 499.014C88.1155 485.941 95.6602 473.875 105.08 463.34C105.664 462.689 106.562 463.714 105.983 464.362Z" fill="white"/>
<path d="M76.0481 524.583C71.8325 523.561 68.118 521.078 65.5679 517.576C63.0178 514.074 61.7981 509.782 62.1268 505.465C62.1963 504.592 63.5593 504.659 63.4897 505.533C63.1762 509.552 64.3127 513.55 66.694 516.807C69.0754 520.063 72.5447 522.362 76.4759 523.29C77.3299 523.493 76.8973 524.784 76.0481 524.583Z" fill="white"/>
<path d="M81.8047 561.507C89.4186 556.97 95.0393 549.737 97.5459 541.248C97.7936 540.407 99.0888 540.835 98.8414 541.675C96.2164 550.503 90.3519 558.019 82.4183 562.723C81.6618 563.171 81.0523 561.952 81.8047 561.507Z" fill="white"/>
<path d="M89.3826 487.231C90.9312 487.965 92.6384 488.304 94.3507 488.217C96.0631 488.13 97.727 487.621 99.1931 486.734C99.9435 486.277 100.552 487.495 99.8067 487.95C98.1823 488.922 96.3439 489.483 94.4523 489.583C92.5606 489.683 90.6732 489.319 88.9549 488.523C88.7866 488.462 88.6481 488.339 88.5675 488.179C88.4869 488.019 88.4703 487.835 88.521 487.664C88.5785 487.493 88.7013 487.351 88.8626 487.27C89.0239 487.189 89.2108 487.175 89.3826 487.231Z" fill="white"/>
<path d="M194.989 518.531C194.528 518.829 194.068 519.128 193.607 519.438C187.437 523.487 181.607 528.029 176.175 533.019C175.749 533.398 175.322 533.789 174.908 534.18C161.948 546.342 151.364 560.8 143.694 576.818C140.647 583.195 138.091 589.794 136.048 596.558C133.227 605.899 130.913 616.251 125.328 623.892C124.755 624.696 124.132 625.463 123.463 626.19H72.9969C72.8822 626.132 72.7669 626.086 72.6517 626.029L70.6367 626.121C70.7177 625.765 70.8093 625.397 70.8903 625.041C70.9363 624.834 70.9937 624.627 71.0398 624.42C71.0741 624.283 71.1089 624.145 71.132 624.018C71.1433 623.972 71.155 623.926 71.1663 623.892C71.1893 623.765 71.2242 623.651 71.2473 623.536C71.7538 621.479 72.2757 619.422 72.813 617.366C72.813 617.354 72.813 617.354 72.8243 617.343C76.9582 601.682 82.4386 586.228 90.0954 572.096C90.3259 571.671 90.5558 571.234 90.8094 570.809C94.2961 564.458 98.2972 558.402 102.773 552.701C105.233 549.588 107.85 546.6 110.614 543.751C117.768 536.402 126.036 530.221 135.115 525.436C153.216 515.9 174.171 512.246 193.515 518.071C194.01 518.221 194.494 518.37 194.989 518.531Z" fill="#EDEDED"/>
<path d="M194.875 519.17C169.745 524.151 146.826 536.906 129.374 555.625C125.546 559.588 122.367 564.129 119.955 569.08C117.762 573.978 116.923 579.373 117.526 584.705C117.989 589.687 119.039 594.73 118.28 599.738C117.853 602.295 116.889 604.734 115.452 606.894C114.014 609.053 112.135 610.885 109.938 612.27C104.554 615.861 98.1978 617.308 91.9327 618.507C84.9765 619.838 77.73 621.112 71.9243 625.447C71.2209 625.973 70.4451 624.853 71.1475 624.328C81.2484 616.785 94.7843 618.368 105.834 613.042C110.99 610.557 115.427 606.506 116.705 600.749C117.822 595.714 116.742 590.513 116.231 585.472C115.566 580.28 116.185 575.004 118.035 570.106C120.186 565.048 123.184 560.393 126.901 556.339C135.122 547.08 144.751 539.168 155.435 532.894C167.589 525.665 180.893 520.564 194.77 517.813C195.629 517.643 195.728 519.001 194.875 519.17Z" fill="white"/>
<path d="M134.639 549.268C131.89 545.92 130.422 541.705 130.499 537.377C130.576 533.049 132.192 528.889 135.059 525.64C135.641 524.984 136.689 525.856 136.106 526.513C133.431 529.533 131.926 533.408 131.862 537.439C131.799 541.47 133.182 545.39 135.761 548.493C136.321 549.168 135.196 549.939 134.639 549.268Z" fill="white"/>
<path d="M116.957 582.209C125.773 583.162 134.625 580.763 141.748 575.491C142.453 574.968 143.229 576.088 142.525 576.61C135.102 582.082 125.885 584.56 116.713 583.549C115.839 583.452 116.087 582.113 116.957 582.209Z" fill="white"/>
<path d="M167.82 527.456C168.614 528.973 169.772 530.269 171.192 531.228C172.611 532.188 174.247 532.781 175.953 532.953C176.828 533.039 176.579 534.378 175.71 534.293C173.826 534.093 172.02 533.436 170.449 532.38C168.878 531.323 167.591 529.899 166.699 528.231C166.602 528.081 166.565 527.899 166.597 527.723C166.629 527.547 166.727 527.39 166.871 527.284C167.02 527.182 167.203 527.143 167.381 527.175C167.559 527.207 167.717 527.308 167.82 527.456Z" fill="white"/>
<path d="M935.071 353.84H772.723V351.542H932.768V244.688H935.071V353.84Z" fill="#EDEDED"/>
<path d="M408.881 398.65H406.578V289.497H568.926V291.795H408.881V398.65Z" fill="#EDEDED"/>
<path d="M646.071 155.067H483.723V45.9141H486.025V152.769H646.071V155.067Z" fill="#EDEDED"/>
<path d="M451.418 0C450.547 0.00162629 449.713 0.34797 449.097 0.963015C448.482 1.57806 448.137 2.41154 448.137 3.28053C448.137 4.14953 448.482 4.98301 449.097 5.59805C449.713 6.2131 450.547 6.55944 451.418 6.56107H518.106C518.977 6.55944 519.812 6.2131 520.427 5.59805C521.042 4.98301 521.387 4.14953 521.387 3.28053C521.387 2.41154 521.042 1.57806 520.427 0.963015C519.812 0.34797 518.977 0.00162629 518.106 0H451.418Z" fill="#1B1B1B"/>
<path d="M451.416 19.3281C450.544 19.3281 449.708 19.6737 449.092 20.289C448.475 20.9042 448.129 21.7386 448.129 22.6087C448.129 23.4787 448.475 24.3131 449.092 24.9284C449.708 25.5436 450.544 25.8892 451.416 25.8892H518.104C518.975 25.8876 519.81 25.5412 520.425 24.9262C521.04 24.3112 521.386 23.4777 521.386 22.6087C521.386 21.7397 521.04 20.9062 520.425 20.2911C519.81 19.6761 518.975 19.3298 518.104 19.3281H451.416Z" fill="#1B1B1B"/>
<path d="M967.711 229.995C968.582 229.993 969.417 229.647 970.032 229.032C970.647 228.417 970.993 227.583 970.993 226.714C970.993 225.845 970.647 225.012 970.032 224.397C969.417 223.782 968.582 223.435 967.711 223.434H901.016C900.584 223.433 900.156 223.517 899.756 223.682C899.357 223.846 898.994 224.088 898.688 224.392C898.382 224.697 898.139 225.059 897.973 225.457C897.808 225.856 897.723 226.283 897.723 226.714C897.723 227.145 897.808 227.573 897.973 227.971C898.139 228.369 898.382 228.731 898.688 229.036C898.994 229.341 899.357 229.582 899.756 229.747C900.156 229.911 900.584 229.996 901.016 229.995H967.711Z" fill="#1B1B1B"/>
<path d="M967.711 210.666C968.582 210.664 969.417 210.318 970.032 209.703C970.647 209.088 970.993 208.254 970.993 207.385C970.993 206.516 970.647 205.683 970.032 205.067C969.417 204.452 968.582 204.106 967.711 204.104H901.016C900.584 204.104 900.156 204.188 899.756 204.352C899.357 204.517 898.994 204.758 898.688 205.063C898.382 205.368 898.139 205.73 897.973 206.128C897.808 206.527 897.723 206.954 897.723 207.385C897.723 207.816 897.808 208.243 897.973 208.642C898.139 209.04 898.382 209.402 898.688 209.707C898.994 210.012 899.357 210.253 899.756 210.418C900.156 210.582 900.584 210.666 901.016 210.666H967.711Z" fill="#1B1B1B"/>
<path d="M685.087 386.056C660.72 386.056 636.901 378.846 616.641 365.337C596.381 351.828 580.59 332.627 571.265 310.163C561.94 287.698 559.5 262.979 564.254 239.131C569.008 215.283 580.741 193.377 597.971 176.183C615.201 158.99 637.153 147.281 661.052 142.537C684.951 137.793 709.722 140.228 732.234 149.533C754.746 158.838 773.987 174.596 787.525 194.813C801.062 215.031 808.288 238.8 808.288 263.115C808.251 295.71 795.259 326.959 772.162 350.007C749.066 373.055 717.751 386.019 685.087 386.056ZM685.087 142.473C661.176 142.473 637.802 149.548 617.92 162.805C598.039 176.061 582.543 194.903 573.392 216.947C564.242 238.992 561.848 263.249 566.513 286.652C571.177 310.054 582.692 331.55 599.6 348.423C616.508 365.295 638.049 376.785 661.501 381.44C684.953 386.095 709.262 383.706 731.353 374.575C753.444 365.443 772.325 349.98 785.61 330.141C798.894 310.301 805.985 286.976 805.985 263.115C805.949 231.13 793.2 200.465 770.535 177.848C747.87 155.231 717.14 142.509 685.087 142.473Z" fill="#EDEDED"/>
<path d="M635.707 168.854C643.338 168.854 649.524 162.681 649.524 155.066C649.524 147.451 643.338 141.278 635.707 141.278C628.077 141.278 621.891 147.451 621.891 155.066C621.891 162.681 628.077 168.854 635.707 168.854Z" fill="#2688EB"/>
<path d="M565.473 305.582C573.104 305.582 579.29 299.409 579.29 291.795C579.29 284.18 573.104 278.007 565.473 278.007C557.842 278.007 551.656 284.18 551.656 291.795C551.656 299.409 557.842 305.582 565.473 305.582Z" fill="#2688EB"/>
<path d="M768.118 367.627C775.748 367.627 781.935 361.454 781.935 353.839C781.935 346.225 775.748 340.052 768.118 340.052C760.487 340.052 754.301 346.225 754.301 353.839C754.301 361.454 760.487 367.627 768.118 367.627Z" fill="#2688EB"/>
<path d="M373.94 413.341C373.068 413.341 372.232 413.686 371.615 414.302C370.999 414.917 370.652 415.751 370.652 416.621C370.652 417.491 370.999 418.326 371.615 418.941C372.232 419.556 373.068 419.902 373.94 419.902H440.635C441.506 419.9 442.34 419.554 442.955 418.939C443.571 418.324 443.916 417.49 443.916 416.621C443.916 415.752 443.571 414.919 442.955 414.304C442.34 413.689 441.506 413.342 440.635 413.341H373.94Z" fill="#1B1B1B"/>
<path d="M373.938 432.671C373.506 432.67 373.078 432.754 372.678 432.919C372.279 433.083 371.916 433.325 371.61 433.63C371.304 433.934 371.061 434.296 370.895 434.695C370.73 435.093 370.645 435.52 370.645 435.951C370.645 436.383 370.73 436.81 370.895 437.208C371.061 437.607 371.304 437.969 371.61 438.273C371.916 438.578 372.279 438.82 372.678 438.984C373.078 439.149 373.506 439.233 373.938 439.232H440.633C441.504 439.23 442.339 438.884 442.954 438.269C443.569 437.654 443.915 436.82 443.915 435.951C443.915 435.082 443.569 434.249 442.954 433.634C442.339 433.019 441.504 432.673 440.633 432.671H373.938Z" fill="#1B1B1B"/>
<path d="M209.429 627.836H192.671C190.563 627.833 188.543 626.997 187.053 625.51C185.563 624.023 184.725 622.007 184.723 619.904V480.524C184.725 478.421 185.563 476.405 187.053 474.918C188.543 473.431 190.563 472.595 192.671 472.593H209.429C211.536 472.595 213.557 473.431 215.047 474.918C216.537 476.405 217.375 478.421 217.377 480.524V619.904C217.375 622.007 216.537 624.023 215.047 625.51C213.557 626.997 211.536 627.833 209.429 627.836Z" fill="#2688EB"/>
<path d="M253.929 627.836H237.171C235.063 627.833 233.043 626.997 231.553 625.51C230.063 624.023 229.225 622.007 229.223 619.904V480.524C229.225 478.421 230.063 476.405 231.553 474.918C233.043 473.431 235.063 472.595 237.171 472.593H253.929C256.037 472.595 258.057 473.431 259.547 474.918C261.037 476.405 261.875 478.421 261.878 480.524V619.904C261.875 622.007 261.037 624.023 259.547 625.51C258.057 626.997 256.037 627.833 253.929 627.836Z" fill="#2688EB"/>
<path d="M224.939 327.701C256.92 327.701 282.846 301.83 282.846 269.916C282.846 238.002 256.92 212.131 224.939 212.131C192.957 212.131 167.031 238.002 167.031 269.916C167.031 301.83 192.957 327.701 224.939 327.701Z" fill="#2688EB"/>
<path d="M244.592 522.018H202.933C194.276 522.05 185.764 519.8 178.259 515.495C170.754 511.189 164.521 504.982 160.193 497.501C155.864 490.019 153.593 481.529 153.609 472.891C153.626 464.252 155.929 455.771 160.286 448.306L218.544 347.612C219.192 346.492 220.124 345.563 221.246 344.916C222.368 344.27 223.64 343.93 224.936 343.93C226.231 343.93 227.504 344.27 228.626 344.916C229.748 345.563 230.68 346.492 231.327 347.612L288.413 446.278C292.854 453.954 295.192 462.661 295.192 471.525C295.191 480.388 292.853 489.095 288.412 496.771C283.971 504.447 277.584 510.821 269.892 515.253C262.199 519.684 253.474 522.017 244.592 522.018Z" fill="#1B1B1B"/>
<path d="M270.992 257.833H258.762V260.099H270.992V257.833Z" fill="#1B1B1B"/>
<path d="M244.813 298.777H232.582V301.043H244.813V298.777Z" fill="#1B1B1B"/>
<path d="M232.387 257.832H220.156V260.098H232.387V257.832Z" fill="#1B1B1B"/>
<path d="M211.315 509.093C210.834 508.083 210.575 506.982 210.554 505.863L207.699 402.069C207.606 397.749 209.236 393.57 212.231 390.449C215.225 387.329 219.339 385.524 223.668 385.43C227.996 385.336 232.185 386.961 235.312 389.949C238.44 392.936 240.25 397.041 240.346 401.36L243.2 505.155C243.244 507.258 242.45 509.291 240.992 510.81C239.535 512.329 237.534 513.209 235.427 513.257L218.673 513.621C217.14 513.652 215.63 513.242 214.325 512.439C213.02 511.636 211.975 510.474 211.315 509.093Z" fill="#2688EB"/>
<path d="M219.564 227.201C226.6 236.382 237.768 242.542 249.573 241.083C260.814 239.695 270.088 231.876 272.414 220.682C273.43 215.39 273.156 209.932 271.615 204.767C270.075 199.603 267.313 194.884 263.562 191.007C255.605 182.656 244.218 178.164 232.947 176.624C211.596 173.706 189.667 181.211 173.524 195.208C165.416 202.167 158.945 210.823 154.57 220.56C150.356 230.226 148.349 240.705 148.694 251.24C149.315 272.06 158.453 292.84 174.222 306.647C176.18 308.357 178.23 309.959 180.363 311.446C182.161 312.705 183.865 309.76 182.082 308.511C165.934 297.207 155.633 278.813 152.806 259.486C151.326 249.749 151.986 239.806 154.741 230.348C157.497 220.89 162.281 212.144 168.762 204.716C181.802 189.92 200.921 180.304 220.723 179.442C240.649 178.575 265.549 187.452 269.278 209.586C270.949 219.507 267.233 229.935 258.123 234.901C248.369 240.219 236.409 238.031 228.026 231.163C225.974 229.488 224.121 227.583 222.505 225.485C221.191 223.771 218.232 225.462 219.564 227.201Z" fill="#1B1B1B"/>
<path d="M439.837 628.488H1.15141C0.846034 628.488 0.553169 628.367 0.337238 628.152C0.121308 627.936 0 627.644 0 627.339C0 627.035 0.121308 626.742 0.337238 626.527C0.553169 626.311 0.846034 626.19 1.15141 626.19H439.837C440.142 626.19 440.435 626.311 440.651 626.527C440.867 626.742 440.988 627.035 440.988 627.339C440.988 627.644 440.867 627.936 440.651 628.152C440.435 628.367 440.142 628.488 439.837 628.488Z" fill="#1B1B1B"/>
<g clip-path="url(#clip1_2930_66888)">
<path d="M625.051 274.64L647.927 249.537V242.809L625.051 267.911V274.64Z" fill="#2688EB"/>
<path d="M712.837 274.266L689.961 249.163V242.435L712.837 267.537V274.266Z" fill="#2688EB"/>
<path d="M721.896 284.203L699.02 259.1V252.371L721.896 277.474V284.203Z" fill="#2688EB"/>
<path d="M756.554 248.512L756.178 249.19L753.289 254.21V254.235L738.626 279.814L736.042 284.308H730.266L732.827 279.814L750.377 249.19L753.289 244.145L754.044 242.813L756.554 248.512Z" fill="#2688EB"/>
<path d="M776.293 284.304H770.517L767.956 279.811L757.387 261.385L760.274 256.34L773.732 279.811L776.293 284.304Z" fill="#2688EB"/>
<path d="M625.058 267.91V274.637L606.678 254.455L602.184 249.534V242.808L606.074 247.075L606.678 247.728L625.058 267.91Z" fill="#2688EB"/>
<path d="M606.678 263.382V284.316H602.184V258.461L606.678 263.382Z" fill="#2688EB"/>
<path d="M693.436 263.382V284.316H688.941V258.461L693.436 263.382Z" fill="#2688EB"/>
<path d="M717.453 263.743V242.809H721.947V268.664L717.453 263.743Z" fill="#2688EB"/>
<path d="M661.03 263.382V284.316H656.535V258.461L659.221 261.399L660.302 262.577L661.03 263.382Z" fill="#2688EB"/>
<path d="M661.03 244.605H656.535V262.579H661.03V244.605Z" fill="#2688EB"/>
<path d="M680.363 242.809V247.302H656.535V245.444L656.736 245.268L659.422 242.809H680.363Z" fill="#2688EB"/>
<path d="M670.997 242.809H656.535V247.302H670.997V242.809Z" fill="#2688EB"/>
<path d="M680.363 279.824V284.318H656.535V282.46L659.422 279.824H680.363Z" fill="#2688EB"/>
<path d="M676.965 261.223H666.875V265.716H676.965V261.223Z" fill="#2688EB"/>
<path d="M661.03 261.223V265.716H656.535V263.858L657.941 262.577L659.221 261.399L659.422 261.223H661.03Z" fill="#2688EB"/>
<path d="M661.03 251.759V272.693H656.535V246.838L656.736 247.064L658.595 249.098L661.03 251.759Z" fill="#2688EB"/>
<path d="M643.434 263.382V284.316H647.928V258.461L643.434 263.382Z" fill="#2688EB"/>
<path d="M741.861 247.917C743.271 247.917 744.413 246.775 744.413 245.365C744.413 243.956 743.271 242.813 741.861 242.813C740.451 242.813 739.309 243.956 739.309 245.365C739.309 246.775 740.451 247.917 741.861 247.917Z" fill="#2688EB"/>
<path d="M700.064 283.872C701.474 283.872 702.616 282.73 702.616 281.32C702.616 279.911 701.474 278.769 700.064 278.769C698.654 278.769 697.512 279.911 697.512 281.32C697.512 282.73 698.654 283.872 700.064 283.872Z" fill="#2688EB"/>
<path d="M613.623 284.619C615.032 284.619 616.175 283.477 616.175 282.067C616.175 280.658 615.032 279.516 613.623 279.516C612.213 279.516 611.07 280.658 611.07 282.067C611.07 283.477 612.213 284.619 613.623 284.619Z" fill="#2688EB"/>
</g>
</g>
<defs>
<clipPath id="clip0_2930_66888">
<rect width="971" height="628" fill="white"/>
</clipPath>
<clipPath id="clip1_2930_66888">
<rect width="175.014" height="41.3632" fill="white" transform="translate(602.184 242.435)"/>
</clipPath>
</defs>
</svg>
