<svg width="1172" height="1172" viewBox="0 0 1172 1172" fill="none" xmlns="http://www.w3.org/2000/svg">

    <defs>
        <linearGradient id="paint0_linear_3140_71032" x1="256.011" y1="30.5891" x2="965.329" y2="1202.1" gradientUnits="userSpaceOnUse">
            <stop stop-color="#0176D0" />
            <stop offset="1" stop-color="#16538C" />
        </linearGradient>
        <linearGradient id="paint1_linear_3140_71032" x1="577.431" y1="604.166" x2="599.397" y2="713.099" gradientUnits="userSpaceOnUse">
            <stop stop-color="#0176D0" />
            <stop offset="1" stop-color="#16538C" />
        </linearGradient>
        <linearGradient id="paint2_linear_3140_71032" x1="604.67" y1="617.335" x2="614.971" y2="634.345" gradientUnits="userSpaceOnUse">
            <stop stop-color="#0176D0" />
            <stop offset="1" stop-color="#16538C" />
        </linearGradient>
        <linearGradient id="paint3_linear_3140_71032" x1="575.955" y1="617.335" x2="586.256" y2="634.345" gradientUnits="userSpaceOnUse">
            <stop stop-color="#0176D0" />
            <stop offset="1" stop-color="#16538C" />
        </linearGradient>
        <linearGradient id="paint4_linear_3140_71032" x1="547.24" y1="617.335" x2="557.541" y2="634.345" gradientUnits="userSpaceOnUse">
            <stop stop-color="#0176D0" />
            <stop offset="1" stop-color="#16538C" />
        </linearGradient>
        <clipPath id="clip0_3140_71032">
            <rect width="177.99" height="41.9745" fill="white" transform="translate(509 327)" />
        </clipPath>
    </defs>
    <rect width="1172" height="1172" fill="url(#paint0_linear_3140_71032)" />
    <path d="M969.312 672.791H227V291H969.312V672.791ZM239.048 660.741H957.264V303.05H239.048V660.741Z" fill="#EDEDED" />
    <path d="M573.943 406V531.494H391.539L357.842 571.932L361.689 531.494H345.293V406H573.943Z" fill="white" />
    <path d="M684.324 429V509.462H801.273L822.878 535.388L820.412 509.462H830.924V429H684.324Z" fill="#EDEDED" />
    <path d="M201.673 858.132H212.224L217.244 817.43H201.672L201.673 858.132Z" fill="#FFB8B8" />
    <path d="M198.984 854.688L219.763 854.688C223.275 854.688 226.644 856.083 229.127 858.567C231.611 861.05 233.006 864.419 233.006 867.931V868.361L198.985 868.363L198.984 854.688Z" fill="#1B1B1B" />
    <path d="M328.437 857.785L338.683 855.263L333.832 814.541L318.711 818.263L328.437 857.785Z" fill="#FFB8B8" />
    <path d="M325 855.084L345.177 850.118C348.587 849.279 352.192 849.829 355.197 851.647C358.201 853.465 360.361 856.403 361.2 859.813L361.303 860.231L328.268 868.363L325 855.084Z" fill="#1B1B1B" />
    <path
        d="M195.184 848.428L197.375 837.212C197.375 837.212 201.41 793.907 230.365 750.688L240.853 704.209C240.853 704.209 246.034 673.362 264.006 648.965L272.335 643.227L301.537 644.901L308.281 681.829L321.87 769.207C321.87 769.207 325.377 769.535 326.692 779.64C329.365 783.883 330.946 788.722 331.295 793.724C331.295 793.724 338.249 812.912 340.112 827.04L339.893 840.864L325.208 848.689L294.601 762.117L272.709 713.719C272.709 713.719 262.172 747.819 246.034 777.031C246.034 777.031 223.929 824.882 219.513 834.604L214.691 850.514L195.184 848.428Z"
        fill="#1B1B1B" />
    <path
        d="M292.821 568.918C304.349 568.918 313.693 559.572 313.693 548.043C313.693 536.514 304.349 527.168 292.821 527.168C281.294 527.168 271.949 536.514 271.949 548.043C271.949 559.572 281.294 568.918 292.821 568.918Z"
        fill="#FFB8B8" />
    <path
        d="M292.821 568.918C304.349 568.918 313.693 559.572 313.693 548.043C313.693 536.514 304.349 527.168 292.821 527.168C281.294 527.168 271.949 536.514 271.949 548.043C271.949 559.572 281.294 568.918 292.821 568.918Z"
        fill="#FFB8B8" />
    <path
        d="M264.07 649.187L270.96 631.974C266.092 616.204 266.391 599.29 271.812 583.702L273.13 582.616C284.615 573.157 294.694 574.879 304.048 586.45C305.554 588.331 307.316 589.992 309.282 591.385C313.407 594.28 319.952 610.007 311.31 619.226L304.397 659.558C305.125 681.826 288.969 673.441 264.07 649.187Z"
        fill="white" />
    <path
        d="M362.866 625.775C361.975 625.101 360.947 624.631 359.855 624.397C358.762 624.164 357.632 624.173 356.543 624.423C355.454 624.674 354.434 625.16 353.553 625.848C352.673 626.535 351.954 627.408 351.447 628.404L334.037 627.048L330.633 637.428L355.246 638.997C356.975 639.738 358.915 639.819 360.7 639.224C362.484 638.63 363.989 637.401 364.928 635.771C365.867 634.142 366.176 632.224 365.796 630.382C365.416 628.539 364.374 626.9 362.866 625.775Z"
        fill="#FFB8B8" />
    <path
        d="M346.198 642.616L296.588 633.352L280.453 606.296C279.416 603.421 279.564 600.252 280.863 597.486C282.163 594.72 284.508 592.584 287.382 591.547C290.257 590.51 293.426 590.658 296.191 591.957C298.957 593.257 301.093 595.602 302.13 598.477L309.698 619.408L348.932 625.903L346.198 642.616Z"
        fill="#EDEDED" />
    <path
        d="M255.618 543.472C266.677 543.472 275.642 534.505 275.642 523.445C275.642 512.384 266.677 503.418 255.618 503.418C244.559 503.418 235.594 512.384 235.594 523.445C235.594 534.505 244.559 543.472 255.618 543.472Z"
        fill="#1B1B1B" />
    <path
        d="M238.343 540.027C240.934 541.901 243.937 543.126 247.099 543.601C250.262 544.076 253.492 543.787 256.519 542.757C259.547 541.728 262.284 539.988 264.502 537.683C266.719 535.379 268.353 532.577 269.265 529.512C268.92 532.259 268.009 534.904 266.59 537.281C265.17 539.658 263.274 541.715 261.02 543.322C258.765 544.929 256.203 546.051 253.493 546.617C250.783 547.184 247.986 547.182 245.277 546.612C242.568 546.043 240.006 544.918 237.754 543.308C235.502 541.698 233.607 539.639 232.191 537.261C230.775 534.882 229.867 532.235 229.525 529.488C229.183 526.741 229.414 523.952 230.203 521.299C229.755 524.864 230.274 528.484 231.706 531.779C233.138 535.074 235.43 537.923 238.343 540.027Z"
        fill="#1B1B1B" />
    <path
        d="M317.368 540.049C313.872 533.79 312.534 531.176 308.027 527.37C304.041 524.003 299.139 523.015 295.184 526.204C290.506 524.183 285.301 523.725 280.342 524.897C275.382 526.07 270.934 528.812 267.656 532.715C264.379 536.617 262.448 541.473 262.15 546.561C261.852 551.649 263.203 556.698 266.002 560.957C268.801 565.216 272.899 568.458 277.688 570.202C282.476 571.946 287.699 572.099 292.581 570.637C297.463 569.176 301.744 566.179 304.787 562.091C307.83 558.002 309.474 553.042 309.473 547.945C309.47 547.05 309.416 546.156 309.312 545.267C312.749 544.784 313.93 540.532 317.368 540.049Z"
        fill="#1B1B1B" />
    <path
        d="M932.943 689.876C933.009 688.495 933.376 687.144 934.02 685.92C934.664 684.696 935.568 683.628 936.669 682.792C937.77 681.955 939.041 681.37 940.392 681.078C941.744 680.785 943.143 680.793 944.491 681.1L956.999 663.471L969.565 668.46L951.552 693.108C950.886 695.339 949.425 697.248 947.445 698.474C945.466 699.7 943.106 700.157 940.812 699.758C938.519 699.36 936.451 698.134 935 696.312C933.55 694.491 932.818 692.201 932.943 689.876Z"
        fill="#A0616A" />
    <path d="M946.664 674.714L968.903 637.307L959.842 613.142L972.182 580.23L972.637 580.426C972.936 580.554 979.948 583.683 980.987 594.889L995.168 639.464L957.321 688.569L946.664 674.714Z"
        fill="white" />
    <path
        d="M825.883 537.195C827.255 537.367 828.572 537.838 829.743 538.574C830.913 539.311 831.908 540.295 832.657 541.457C833.406 542.62 833.891 543.933 834.078 545.303C834.264 546.673 834.149 548.068 833.738 549.388L850.346 563.223L844.401 575.367L821.222 555.5C819.05 554.664 817.259 553.059 816.19 550.991C815.122 548.922 814.849 546.534 815.423 544.277C815.997 542.021 817.38 540.054 819.307 538.748C821.235 537.443 823.575 536.89 825.883 537.195Z"
        fill="#A0616A" />
    <path d="M839.936 552.047L875.507 577.114L900.297 569.948L932.152 584.797L931.922 585.236C931.772 585.524 928.11 592.273 916.858 592.443L871.327 603.137L825.301 561.602L839.936 552.047Z"
        fill="white" />
    <path d="M905.026 856.877H892.66L886.777 809.172L905.028 809.173L905.026 856.877Z" fill="#A0616A" />
    <path
        d="M883.825 853.344H907.674V868.362H868.809C868.809 866.39 869.197 864.437 869.952 862.615C870.706 860.793 871.812 859.137 873.207 857.742C874.601 856.348 876.256 855.242 878.078 854.487C879.9 853.732 881.853 853.344 883.825 853.344Z"
        fill="#1B1B1B" />
    <path d="M954.452 856.877H942.085L936.203 809.172L954.454 809.173L954.452 856.877Z" fill="#A0616A" />
    <path
        d="M933.25 853.344H957.1V868.362H918.234C918.234 866.39 918.623 864.437 919.377 862.615C920.132 860.793 921.238 859.137 922.632 857.742C924.027 856.348 925.682 855.242 927.504 854.487C929.326 853.732 931.279 853.344 933.25 853.344Z"
        fill="#1B1B1B" />
    <path d="M958.85 682.75L957.841 753.367L956.832 846.177L934.642 844.159L923.546 716.041L909.424 844.159H886.515L884.207 715.031L892.277 686.784L958.85 682.75Z" fill="#1B1B1B" />
    <path
        d="M890.064 687.218L886.684 687.072L902.386 600.557L895.957 574.407C895.623 573.047 895.799 571.611 896.453 570.372C897.106 569.133 898.192 568.177 899.503 567.684L911.071 563.346L915.158 552.105L947.403 555.58L948.196 564.365C951.69 565.486 980.464 575.07 978.479 585.991C976.519 596.769 964.949 630.681 964.362 632.399L962.336 681.032L962.086 681.157C961.786 681.307 939.561 692.236 915.416 692.235C906.705 692.38 898.063 690.67 890.064 687.218Z"
        fill="white" />
    <path
        d="M930.017 546.541C942.839 546.541 953.234 536.145 953.234 523.321C953.234 510.497 942.839 500.102 930.017 500.102C917.195 500.102 906.801 510.497 906.801 523.321C906.801 536.145 917.195 546.541 930.017 546.541Z"
        fill="#A0616A" />
    <path
        d="M948.821 545.8C944.396 550.513 936.179 547.983 935.603 541.543C935.557 541.044 935.561 540.54 935.612 540.041C935.91 537.189 937.558 534.599 937.163 531.587C937.074 530.838 936.795 530.123 936.352 529.512C932.826 524.79 924.55 531.624 921.222 527.349C919.182 524.728 921.58 520.601 920.014 517.672C917.948 513.805 911.827 515.713 907.989 513.595C903.718 511.239 903.973 504.686 906.785 500.7C910.213 495.838 916.224 493.244 922.161 492.871C928.097 492.497 933.992 494.102 939.535 496.262C945.832 498.716 952.076 502.108 955.951 507.646C960.664 514.38 961.117 523.434 958.76 531.309C957.327 536.099 952.434 541.951 948.821 545.8Z"
        fill="#1B1B1B" />
    <path d="M697.283 850.462L700.732 841.589L668.154 824.061L663.062 837.156L697.283 850.462Z" fill="#FFB8B8" />
    <path
        d="M715.761 827.315C714.299 826.746 712.739 826.471 711.171 826.505C709.602 826.539 708.055 826.882 706.619 827.514C705.183 828.146 703.886 829.055 702.802 830.189C701.717 831.323 700.866 832.659 700.299 834.122L697.972 840.104L694.385 849.336L693.508 851.6L705.003 856.073L716.123 827.459L715.761 827.315Z"
        fill="#1B1B1B" />
    <path
        d="M694.387 833.385L692.887 837.363L689.143 847.293L689.053 847.542C679.515 848.767 669.059 846.365 659.388 842.632C655.518 841.139 651.728 839.448 648.033 837.564C642.564 834.801 637.667 831.884 633.76 829.389C627.878 825.613 624.241 822.778 624.241 822.778C624.241 822.778 623.28 823.647 621.542 825.136C619.211 827.13 615.488 830.244 610.771 833.91C608.971 835.318 607.04 836.791 604.975 838.328C589.757 849.618 570.227 819.493 570.227 819.493C570.227 819.493 575.719 815.996 577.154 815.317C581.775 813.13 592.63 807.971 601.995 803.387C606.82 801.021 611.243 798.803 614.213 797.227C624.73 791.627 637.804 802.224 637.804 802.224L694.387 833.385Z"
        fill="#1B1B1B" />
    <path opacity="0.14"
        d="M694.387 833.385L692.887 837.363L689.143 847.293L689.053 847.542C679.515 848.767 669.059 846.365 659.388 842.632C655.518 841.139 651.728 839.448 648.033 837.564C642.564 834.801 637.667 831.884 633.76 829.389C627.878 825.613 624.241 822.778 624.241 822.778C624.241 822.778 623.28 823.647 621.542 825.136C619.211 827.13 615.488 830.244 610.771 833.91C608.971 835.318 607.04 836.791 604.975 838.328C589.757 849.618 570.227 819.493 570.227 819.493C570.227 819.493 575.719 815.996 577.154 815.317C581.775 813.13 592.63 807.971 601.995 803.387C606.82 801.021 611.243 798.803 614.213 797.227C624.73 791.627 637.804 802.224 637.804 802.224L694.387 833.385Z"
        fill="#1B1B1B" />
    <path
        d="M542.166 749.871H497.134C496.208 749.87 495.32 749.502 494.665 748.847C494.01 748.191 493.642 747.303 493.641 746.377V726.964C493.641 720.065 496.381 713.449 501.259 708.57C506.136 703.692 512.752 700.951 519.65 700.951C526.548 700.951 533.164 703.692 538.042 708.57C542.92 713.449 545.66 720.065 545.66 726.964V746.377C545.659 747.303 545.29 748.191 544.635 748.847C543.98 749.502 543.092 749.87 542.166 749.871Z"
        fill="#1B1B1B" />
    <path
        d="M584.988 774.255C583.94 774.439 582.945 774.851 582.073 775.461C581.201 776.072 580.473 776.866 579.941 777.788C579.409 778.71 579.086 779.738 578.994 780.798C578.902 781.859 579.044 782.926 579.409 783.926L567.164 795.19L572.193 804.302L589.262 788.152C590.901 787.427 592.217 786.126 592.96 784.495C593.704 782.865 593.824 781.018 593.297 779.305C592.77 777.592 591.633 776.132 590.102 775.201C588.57 774.271 586.751 773.934 584.988 774.255Z"
        fill="#FFB8B8" />
    <path
        d="M548.145 825.467C547.592 825.467 547.038 825.443 546.484 825.396C543.18 825.12 540.001 824.01 537.245 822.168C534.488 820.327 532.245 817.816 530.724 814.87L511.107 777.106C509.821 774.632 509.539 771.757 510.319 769.08C511.099 766.403 512.881 764.129 515.294 762.733C517.707 761.336 520.566 760.923 523.275 761.581C525.985 762.238 528.336 763.915 529.841 766.262L547.94 806.877L572.567 786.865L586.826 792.416L562.745 819.005C560.894 821.037 558.64 822.662 556.126 823.774C553.612 824.887 550.894 825.464 548.145 825.467Z"
        fill="white" />
    <path d="M694.53 862.942L698.65 854.361L667.515 834.381L661.434 847.047L694.53 862.942Z" fill="#FFB8B8" />
    <path
        d="M714.733 841.283C713.319 840.603 711.785 840.208 710.218 840.122C708.651 840.035 707.083 840.258 705.603 840.778C704.122 841.298 702.759 842.105 701.591 843.152C700.422 844.199 699.472 845.466 698.793 846.881L696.014 852.666L691.728 861.596L690.68 863.786L701.798 869.128L715.082 841.454L714.733 841.283Z"
        fill="#1B1B1B" />
    <path
        d="M692.956 845.695L691.155 849.546L686.659 859.159L686.551 859.4C676.946 859.889 666.706 856.69 657.35 852.225C653.606 850.439 649.958 848.462 646.418 846.3C641.177 843.124 636.519 839.84 632.815 837.052C627.241 832.836 623.832 829.73 623.832 829.73C623.832 829.73 622.808 830.522 620.96 831.873C618.483 833.682 614.531 836.501 609.547 839.793C607.644 841.059 605.605 842.379 603.429 843.753C587.388 853.84 564.577 866.125 545.175 868.718C511.098 873.276 519.118 827.796 519.118 827.796L546.238 813.71L557.752 816.048L570.571 818.641L575.113 819.565C575.113 819.565 575.975 819.239 577.458 818.672C582.232 816.847 593.452 812.538 603.141 808.686C608.133 806.698 612.714 804.827 615.797 803.484C626.713 798.708 638.934 810.278 638.934 810.278L692.956 845.695Z"
        fill="#1B1B1B" />
    <path
        d="M469.491 869.803C470.529 869.565 471.501 869.102 472.34 868.447C473.18 867.793 473.865 866.962 474.349 866.014C474.832 865.065 475.102 864.022 475.139 862.959C475.176 861.895 474.979 860.836 474.563 859.856L486.209 847.974L480.716 839.135L464.504 856.145C462.905 856.954 461.658 858.322 461 859.989C460.342 861.656 460.318 863.506 460.932 865.189C461.547 866.873 462.758 868.272 464.335 869.123C465.913 869.973 467.747 870.215 469.491 869.803Z"
        fill="#FFB8B8" />
    <path
        d="M526.024 750.737C536.052 750.737 544.182 742.607 544.182 732.578C544.182 722.548 536.052 714.418 526.024 714.418C515.996 714.418 507.867 722.548 507.867 732.578C507.867 742.607 515.996 750.737 526.024 750.737Z"
        fill="#FFB8B8" />
    <path
        d="M502.402 782.987L518.219 827.835L518.124 827.992C515.924 831.629 515.205 834.563 516.045 836.477C516.266 836.963 516.591 837.396 516.995 837.745C517.4 838.094 517.875 838.351 518.389 838.499L555.818 812.333L554.508 801.846L554.581 801.729C558.199 795.939 559.37 790.696 558.063 786.146C556.879 782.464 554.322 779.38 550.924 777.534L550.793 777.432L532.125 754.707L507.169 759.141L502.402 782.987Z"
        fill="white" />
    <path
        d="M478.35 861.706L467.754 848.663L493.297 806.491L505.206 769.675C505.857 767.664 506.931 765.815 508.356 764.254C509.781 762.693 511.525 761.456 513.469 760.626C515.412 759.796 517.512 759.392 519.625 759.442C521.738 759.491 523.815 759.994 525.718 760.914C527.621 761.835 529.304 763.153 530.654 764.78C532.004 766.406 532.99 768.303 533.545 770.343C534.1 772.383 534.212 774.518 533.872 776.604C533.532 778.69 532.749 780.68 531.576 782.438L509.712 815.198L478.35 861.706Z"
        fill="white" />
    <path
        d="M551.813 728.907H524.277L523.995 724.953L522.583 728.907H518.343L517.783 721.071L514.985 728.907H506.781V728.519C506.787 723.063 508.957 717.833 512.814 713.975C516.671 710.118 521.901 707.948 527.356 707.941H531.238C536.693 707.948 541.923 710.118 545.78 713.975C549.637 717.833 551.807 723.063 551.813 728.519V728.907Z"
        fill="#1B1B1B" />
    <path
        d="M524.051 753.495C523.843 753.495 523.637 753.476 523.432 753.44L503.27 749.882V716.555H525.465L524.915 717.195C517.27 726.113 523.03 740.573 527.144 748.399C527.447 748.972 527.582 749.619 527.534 750.266C527.485 750.913 527.255 751.532 526.87 752.054C526.548 752.5 526.124 752.863 525.634 753.114C525.144 753.364 524.601 753.495 524.051 753.495Z"
        fill="#1B1B1B" />
    <path d="M773.182 602V601H772.182H523H522V602V648.951V649.951H523H536.512L533.186 684.892L532.88 688.111L534.95 685.627L564.681 649.951H772.182H773.182V648.951V602Z" fill="#EDEDED"
        stroke="url(#paint1_linear_3140_71032)" stroke-width="2" />
    <path
        d="M609.461 633.909C614.16 633.909 617.97 630.1 617.97 625.4C617.97 620.7 614.16 616.891 609.461 616.891C604.762 616.891 600.953 620.7 600.953 625.4C600.953 630.1 604.762 633.909 609.461 633.909Z"
        fill="url(#paint2_linear_3140_71032)" />
    <path
        d="M580.746 633.909C585.445 633.909 589.255 630.1 589.255 625.4C589.255 620.7 585.445 616.891 580.746 616.891C576.048 616.891 572.238 620.7 572.238 625.4C572.238 630.1 576.048 633.909 580.746 633.909Z"
        fill="url(#paint3_linear_3140_71032)" />
    <path
        d="M552.032 633.909C556.731 633.909 560.54 630.1 560.54 625.4C560.54 620.7 556.731 616.891 552.032 616.891C547.333 616.891 543.523 620.7 543.523 625.4C543.523 630.1 547.333 633.909 552.032 633.909Z"
        fill="url(#paint4_linear_3140_71032)" />
    <path
        d="M1070.94 869.291H102.064C101.781 869.291 101.511 869.179 101.311 868.98C101.112 868.78 101 868.51 101 868.228C101 867.946 101.112 867.675 101.311 867.476C101.511 867.276 101.781 867.164 102.064 867.164H1070.94C1071.22 867.164 1071.49 867.276 1071.69 867.476C1071.89 867.675 1072 867.946 1072 868.228C1072 868.51 1071.89 868.78 1071.69 868.98C1071.49 869.179 1071.22 869.291 1070.94 869.291Z"
        fill="#EDEDED" />
    <g clip-path="url(#clip0_3140_71032)">
        <path d="M532.258 359.681L555.523 334.207V327.379L532.258 352.853V359.681Z" fill="white" />
        <path d="M621.535 359.302L598.27 333.828V327L621.535 352.474V359.302Z" fill="white" />
        <path d="M630.75 369.386L607.484 343.912V337.084L630.75 362.558V369.386Z" fill="white" />
        <path d="M665.997 333.167L665.615 333.855L662.677 338.95V338.975L647.764 364.932L645.136 369.492H639.262L641.867 364.932L659.715 333.855L662.677 328.736L663.445 327.385L665.997 333.167Z"
            fill="white" />
        <path d="M686.072 369.489H680.198L677.593 364.929L666.844 346.231L669.78 341.111L683.467 364.929L686.072 369.489Z" fill="white" />
        <path d="M532.263 352.853V359.679L513.571 339.198L509 334.205V327.379L512.957 331.709L513.571 332.372L532.263 352.853Z" fill="white" />
        <path d="M513.571 348.257V369.501H509V343.264L513.571 348.257Z" fill="white" />
        <path d="M601.805 348.257V369.501H597.234V343.264L601.805 348.257Z" fill="white" />
        <path d="M626.23 348.623V327.379H630.801V353.616L626.23 348.623Z" fill="white" />
        <path d="M568.844 348.257V369.501H564.273V343.264L567.005 346.245L568.104 347.44L568.844 348.257Z" fill="white" />
        <path d="M568.844 329.203H564.273V347.444H568.844V329.203Z" fill="white" />
        <path d="M588.507 327.379V331.939H564.273V330.053L564.478 329.874L567.21 327.379H588.507Z" fill="white" />
        <path d="M578.982 327.379H564.273V331.939H578.982V327.379Z" fill="white" />
        <path d="M588.507 364.941V369.501H564.273V367.616L567.21 364.941H588.507Z" fill="white" />
        <path d="M585.051 346.066H574.789V350.627H585.051V346.066Z" fill="white" />
        <path d="M568.844 346.066V350.627H564.273V348.741L565.704 347.44L567.005 346.245L567.21 346.066H568.844Z" fill="white" />
        <path d="M568.844 336.462V357.706H564.273V331.469L564.478 331.698L566.368 333.762L568.844 336.462Z" fill="white" />
        <path d="M550.953 348.257V369.501H555.524V343.264L550.953 348.257Z" fill="white" />
        <path
            d="M651.053 332.564C652.487 332.564 653.649 331.405 653.649 329.974C653.649 328.544 652.487 327.385 651.053 327.385C649.619 327.385 648.457 328.544 648.457 329.974C648.457 331.405 649.619 332.564 651.053 332.564Z"
            fill="white" />
        <path
            d="M608.545 369.051C609.979 369.051 611.141 367.891 611.141 366.461C611.141 365.031 609.979 363.871 608.545 363.871C607.111 363.871 605.949 365.031 605.949 366.461C605.949 367.891 607.111 369.051 608.545 369.051Z"
            fill="white" />
        <path
            d="M520.635 369.808C522.069 369.808 523.231 368.649 523.231 367.219C523.231 365.788 522.069 364.629 520.635 364.629C519.201 364.629 518.039 365.788 518.039 367.219C518.039 368.649 519.201 369.808 520.635 369.808Z"
            fill="white" />
    </g>

</svg>
