<svg width="1172" height="1172" viewBox="0 0 1172 1172" fill="none" xmlns="http://www.w3.org/2000/svg">
    <defs>
        <linearGradient id="paint0_linear_3140_71030" x1="256.011" y1="30.5891" x2="965.329" y2="1202.1" gradientUnits="userSpaceOnUse">
            <stop stop-color="#0176D0" />
            <stop offset="1" stop-color="#16538C" />
        </linearGradient>
        <linearGradient id="paint1_linear_3140_71030" x1="626.369" y1="585.019" x2="636.771" y2="629.992" gradientUnits="userSpaceOnUse">
            <stop stop-color="#0176D0" />
            <stop offset="1" stop-color="#16538C" />
        </linearGradient>
        <linearGradient id="paint2_linear_3140_71030" x1="621.783" y1="431.201" x2="631.979" y2="475.973" gradientUnits="userSpaceOnUse">
            <stop stop-color="#0176D0" />
            <stop offset="1" stop-color="#16538C" />
        </linearGradient>
        <linearGradient id="paint3_linear_3140_71030" x1="628.617" y1="748.07" x2="638.768" y2="792.33" gradientUnits="userSpaceOnUse">
            <stop stop-color="#0176D0" />
            <stop offset="1" stop-color="#16538C" />
        </linearGradient>
        <linearGradient id="paint4_linear_3140_71030" x1="535.789" y1="279.057" x2="541.043" y2="287.729" gradientUnits="userSpaceOnUse">
            <stop stop-color="#0176D0" />
            <stop offset="1" stop-color="#16538C" />
        </linearGradient>
        <linearGradient id="paint5_linear_3140_71030" x1="552.254" y1="279.057" x2="557.508" y2="287.729" gradientUnits="userSpaceOnUse">
            <stop stop-color="#0176D0" />
            <stop offset="1" stop-color="#16538C" />
        </linearGradient>
        <linearGradient id="paint6_linear_3140_71030" x1="568.715" y1="279.057" x2="573.969" y2="287.729" gradientUnits="userSpaceOnUse">
            <stop stop-color="#0176D0" />
            <stop offset="1" stop-color="#16538C" />
        </linearGradient>
        <linearGradient id="paint7_linear_3140_71030" x1="1037.21" y1="277.444" x2="1037.51" y2="281.26" gradientUnits="userSpaceOnUse">
            <stop stop-color="#0176D0" />
            <stop offset="1" stop-color="#16538C" />
        </linearGradient>
        <linearGradient id="paint8_linear_3140_71030" x1="1037.21" y1="282.714" x2="1037.51" y2="286.529" gradientUnits="userSpaceOnUse">
            <stop stop-color="#0176D0" />
            <stop offset="1" stop-color="#16538C" />
        </linearGradient>
        <linearGradient id="paint9_linear_3140_71030" x1="1037.21" y1="287.983" x2="1037.51" y2="291.799" gradientUnits="userSpaceOnUse">
            <stop stop-color="#0176D0" />
            <stop offset="1" stop-color="#16538C" />
        </linearGradient>
        <linearGradient id="paint10_linear_3140_71030" x1="953.192" y1="441.374" x2="962.694" y2="457.059" gradientUnits="userSpaceOnUse">
            <stop stop-color="#0176D0" />
            <stop offset="1" stop-color="#16538C" />
        </linearGradient>
        <linearGradient id="paint11_linear_3140_71030" x1="978.665" y1="441.374" x2="988.167" y2="457.059" gradientUnits="userSpaceOnUse">
            <stop stop-color="#0176D0" />
            <stop offset="1" stop-color="#16538C" />
        </linearGradient>
        <linearGradient id="paint12_linear_3140_71030" x1="1004.13" y1="441.374" x2="1013.64" y2="457.059" gradientUnits="userSpaceOnUse">
            <stop stop-color="#0176D0" />
            <stop offset="1" stop-color="#16538C" />
        </linearGradient>
        <clipPath id="clip0_3140_71030">
            <rect width="971" height="628" fill="white" transform="translate(101 272)" />
        </clipPath>
    </defs>
    <rect width="1172" height="1172" fill="url(#paint0_linear_3140_71030)" />
    <g clip-path="url(#clip0_3140_71030)">
        <path
            d="M239 898.902C238.99 898.931 238.99 898.97 238.981 899H175.75C174.56 898.242 173.389 897.454 172.238 896.657C165.129 891.796 158.563 886.172 152.657 879.882C145.886 872.603 140.293 864.294 136.081 855.26C127.739 837.304 125.174 816.876 131.632 798.418L131.633 798.414L131.635 798.411L131.638 798.408L131.642 798.408C131.798 797.945 131.974 797.473 132.149 797C132.413 797.463 132.666 797.916 132.939 798.368L132.949 798.378C136.574 804.533 140.685 810.384 145.242 815.872V815.882C145.593 816.305 145.945 816.729 146.306 817.142L146.306 817.146L146.308 817.149L146.312 817.151L146.315 817.152C157.38 830.204 170.748 841.073 185.74 849.206C185.789 849.235 185.828 849.255 185.877 849.285C185.927 849.315 185.979 849.341 186.033 849.363C186.043 849.373 186.053 849.373 186.062 849.383C189.389 851.195 192.804 852.848 196.277 854.345V854.355C199.009 855.546 201.79 856.629 204.59 857.633C210.56 859.75 217 861.679 222.717 864.465C228.278 867.172 233.176 870.687 236.366 875.973C236.61 876.407 236.854 876.83 237.078 877.263L235.215 890.278L238.932 890.258L238.58 896.657L238.483 898.508L239 898.902Z"
            fill="#EDEDED" />
        <path
            d="M224 899H222.648C222.52 898.216 222.392 897.442 222.244 896.668C221.86 894.549 221.34 892.457 220.685 890.405C220.389 889.484 220.053 888.582 219.668 887.69C217.487 882.614 213.738 878.155 208.192 876.665C206.578 876.24 204.918 876.006 203.249 875.969C199.943 875.832 196.588 876.253 193.302 876.43C192.493 876.469 191.674 876.498 190.885 876.489H190.865C186.592 876.559 182.354 875.71 178.442 873.999C173.611 871.702 169.212 868.599 165.436 864.826C162.966 862.477 160.618 860.004 158.401 857.417V857.407C158.105 857.084 157.819 856.751 157.533 856.408C152.308 850.172 147.742 843.42 143.906 836.258C141.95 832.638 140.194 828.915 138.646 825.105C138.626 825.071 138.609 825.035 138.597 824.998C135.134 816.597 132.651 807.831 131.196 798.87L131.197 798.866L131.199 798.863L131.202 798.861L131.206 798.86C131.127 798.458 131.068 798.047 131.009 797.645C130.88 796.812 132.213 796.772 132.331 797.606C132.39 798.017 132.449 798.409 132.518 798.821L132.528 798.831C133.928 807.411 136.278 815.812 139.534 823.88V823.89C139.702 824.302 139.87 824.704 140.037 825.105C144.669 836.264 151.01 846.644 158.835 855.879L158.845 855.898C158.924 855.996 159.013 856.084 159.101 856.182C159.105 856.186 159.108 856.191 159.11 856.196C159.111 856.201 159.112 856.206 159.111 856.212C159.121 856.202 159.121 856.212 159.121 856.212C160.947 858.358 162.861 860.416 164.854 862.415C168.54 866.283 172.816 869.551 177.524 872.098C181.456 874.098 185.806 875.152 190.224 875.175C190.668 875.175 191.112 875.185 191.556 875.175C191.911 875.175 192.266 875.166 192.621 875.146C195.967 874.989 199.361 874.568 202.726 874.627C204.256 874.656 205.781 874.813 207.285 875.097C209.754 875.623 212.084 876.661 214.121 878.144C216.159 879.627 217.857 881.521 219.106 883.702C220.361 885.809 221.361 888.055 222.086 890.395C222.333 891.16 222.54 891.934 222.747 892.718V892.728C223.063 893.982 223.339 895.256 223.576 896.54C223.587 896.582 223.594 896.625 223.596 896.668C223.743 897.442 223.872 898.226 224 899Z"
            fill="white" />
        <path
            d="M158.729 856.57C155.413 859.025 151.326 860.228 147.199 859.964C143.072 859.701 139.174 857.989 136.201 855.133C135.601 854.553 136.48 853.6 137.08 854.181C139.844 856.845 143.475 858.44 147.319 858.677C151.162 858.914 154.964 857.779 158.039 855.475C158.708 854.975 159.394 856.073 158.729 856.57Z"
            fill="white" />
        <path
            d="M190.097 875.206C191.555 866.744 189.424 858.098 184.127 850.991C183.602 850.287 184.841 849.589 185.365 850.292C190.862 857.697 193.06 866.699 191.521 875.501C191.373 876.34 189.95 876.04 190.097 875.206Z"
            fill="white" />
        <path
            d="M139.296 823.831C140.74 823.157 141.996 822.132 142.949 820.85C143.902 819.567 144.523 818.067 144.757 816.483C144.875 815.671 146.109 815.962 145.992 816.769C145.726 818.517 145.037 820.173 143.987 821.593C142.937 823.012 141.557 824.151 139.969 824.911C139.825 824.995 139.654 825.021 139.492 824.983C139.33 824.946 139.188 824.848 139.095 824.709C139.007 824.565 138.979 824.393 139.016 824.228C139.054 824.064 139.154 823.921 139.296 823.831Z"
            fill="white" />
        <path
            d="M249 855.451L248.46 860.391L239.865 860.265L238.569 869.171L238.343 870.701V870.711L237.459 876.801L235.583 889.684L239.325 889.665L238.972 895.999L238.873 897.831L239.394 898.22L239.512 898.318L239.551 898.347C239.443 898.562 239.325 898.776 239.207 899C239.276 898.766 239.325 898.552 239.374 898.318H214.505C214.043 897.548 213.591 896.778 213.149 895.999C209.312 889.372 205.928 882.496 203.023 875.418C202.846 874.979 202.659 874.541 202.502 874.092V874.083C199.919 867.607 197.872 860.932 196.383 854.125V854.116C195.576 850.388 194.963 846.622 194.546 842.831C193.482 833.035 193.975 823.134 196.01 813.49C196.026 813.442 196.039 813.393 196.049 813.344C199.968 794.936 209.525 777.921 224.661 767.144C225.289 766.676 225.938 766.238 226.596 765.809C226.606 765.799 226.606 765.799 226.615 765.799C226.617 765.799 226.618 765.799 226.619 765.798C226.62 765.798 226.622 765.797 226.622 765.796C226.623 765.795 226.624 765.794 226.625 765.793C226.625 765.792 226.625 765.791 226.625 765.789C227.038 765.526 227.44 765.263 227.853 765C227.794 765.526 227.725 766.052 227.676 766.579C226.883 773.618 226.672 780.71 227.048 787.783V787.803C227.057 788.348 227.087 788.894 227.126 789.45V789.469C228.197 806.464 232.43 823.116 239.61 838.583C239.622 838.623 239.639 838.662 239.659 838.699C239.679 838.748 239.698 838.787 239.718 838.836C242.404 844.589 245.506 850.142 249 855.451Z"
            fill="#EDEDED" />
        <path
            d="M228.053 765.066C227.863 765.429 227.665 765.802 227.486 766.172C226.07 768.943 224.767 771.772 223.576 774.662C221.448 779.765 219.678 785.019 218.28 790.385C218.166 790.804 218.055 791.232 217.952 791.658C214.997 803.365 213.815 815.476 214.448 827.558C214.449 827.678 214.457 827.786 214.467 827.904C214.618 830.724 214.879 833.534 215.251 836.335C215.824 841.631 217.199 846.802 219.325 851.656C219.623 852.29 219.938 852.911 220.268 853.509C221.09 854.973 222.043 856.354 223.117 857.632C223.891 858.566 224.724 859.445 225.612 860.264C226.148 860.766 226.701 861.255 227.278 861.72C227.611 861.989 227.954 862.256 228.297 862.524C228.58 862.722 228.855 862.932 229.138 863.131C232.081 865.215 235.256 867.07 238 869.459L237.785 871C235.11 868.509 231.883 866.624 228.914 864.564C227.054 863.291 225.313 861.841 223.712 860.233C223.502 860.012 223.283 859.792 223.081 859.559C221.998 858.404 221.02 857.149 220.159 855.808C219.721 855.14 219.308 854.447 218.918 853.72C216.561 848.992 214.997 843.885 214.293 838.615C213.766 835.254 213.402 831.866 213.204 828.467C213.169 828.025 213.145 827.591 213.129 827.146C212.758 819.036 213.188 810.908 214.411 802.889C215.956 792.716 218.757 782.791 222.744 773.357C223.883 770.656 225.124 767.996 226.469 765.378C226.641 765.019 226.823 764.668 227.013 764.306C227.399 763.56 228.439 764.321 228.053 765.066Z"
            fill="white" />
        <path
            d="M213.308 828C209.129 827.976 205.095 826.528 201.926 823.913C198.757 821.299 196.66 817.689 196.009 813.728C195.88 812.926 197.173 812.697 197.302 813.5C197.901 817.189 199.855 820.552 202.811 822.98C205.766 825.409 209.53 826.744 213.421 826.744C214.267 826.745 214.149 828.001 213.308 828Z"
            fill="white" />
        <path
            d="M227.214 861.83C233.46 855.95 237.192 848.002 237.665 839.573C237.711 838.737 239.045 838.851 238.999 839.685C238.49 848.456 234.589 856.719 228.075 862.824C227.454 863.406 226.596 862.408 227.214 861.83Z"
            fill="white" />
        <path
            d="M217.722 790.238C219.36 790.635 221.059 790.566 222.667 790.037C224.275 789.509 225.741 788.537 226.935 787.208C227.545 786.525 228.398 787.683 227.792 788.362C226.467 789.823 224.846 790.894 223.071 791.483C221.295 792.071 219.419 792.159 217.607 791.739C217.433 791.715 217.274 791.618 217.161 791.466C217.049 791.315 216.991 791.121 217.001 790.923C217.017 790.724 217.102 790.541 217.237 790.412C217.372 790.284 217.547 790.221 217.722 790.238Z"
            fill="white" />
        <path
            d="M1056 899.5C1056 899.697 1055.9 899.892 1055.71 900.075C1055.52 900.257 1055.23 900.423 1054.88 900.562C1054.52 900.701 1054.1 900.812 1053.63 900.887C1053.16 900.962 1052.66 901.001 1052.16 901H146.844C146.339 901 145.839 900.961 145.373 900.886C144.906 900.81 144.483 900.7 144.126 900.561C143.769 900.421 143.486 900.256 143.293 900.074C143.099 899.892 143 899.697 143 899.5C143 899.303 143.099 899.108 143.293 898.926C143.486 898.744 143.769 898.579 144.126 898.439C144.483 898.3 144.906 898.19 145.373 898.114C145.839 898.039 146.339 898 146.844 898H1052.16C1052.66 897.999 1053.16 898.038 1053.63 898.113C1054.1 898.188 1054.52 898.299 1054.88 898.438C1055.23 898.577 1055.52 898.743 1055.71 898.925C1055.9 899.108 1056 899.303 1056 899.5Z"
            fill="#EDEDED" />
        <path
            d="M1009.36 400.629H799.32C798.42 400.631 797.528 400.454 796.696 400.11C795.864 399.766 795.108 399.262 794.47 398.625C793.833 397.989 793.328 397.233 792.983 396.4C792.638 395.568 792.461 394.676 792.461 393.776C792.461 392.875 792.638 391.983 792.983 391.151C793.328 390.319 793.833 389.563 794.47 388.926C795.108 388.29 795.864 387.785 796.696 387.441C797.528 387.097 798.42 386.921 799.32 386.922H1009.36C1010.26 386.921 1011.15 387.097 1011.98 387.441C1012.82 387.785 1013.57 388.29 1014.21 388.926C1014.85 389.563 1015.35 390.319 1015.7 391.151C1016.04 391.983 1016.22 392.875 1016.22 393.776C1016.22 394.676 1016.04 395.568 1015.7 396.4C1015.35 397.233 1014.85 397.989 1014.21 398.625C1013.57 399.262 1012.82 399.766 1011.98 400.11C1011.15 400.454 1010.26 400.631 1009.36 400.629Z"
            fill="white" />
        <path
            d="M1009.36 427.712H799.318C797.503 427.71 795.763 426.987 794.48 425.701C793.197 424.416 792.477 422.674 792.477 420.858C792.477 419.042 793.197 417.3 794.48 416.015C795.763 414.729 797.503 414.006 799.318 414.004H1009.36C1011.17 414.006 1012.91 414.729 1014.2 416.015C1015.48 417.3 1016.2 419.042 1016.2 420.858C1016.2 422.674 1015.48 424.416 1014.2 425.701C1012.91 426.987 1011.17 427.71 1009.36 427.712Z"
            fill="white" />
        <path
            d="M890.366 454.794H799.318C797.503 454.792 795.763 454.069 794.48 452.783C793.197 451.498 792.477 449.756 792.477 447.94C792.477 446.124 793.197 444.382 794.48 443.097C795.763 441.811 797.503 441.088 799.318 441.086H890.366C891.266 441.085 892.158 441.261 892.99 441.605C893.822 441.949 894.578 442.454 895.215 443.09C895.852 443.727 896.358 444.483 896.703 445.315C897.047 446.147 897.225 447.039 897.225 447.94C897.225 448.841 897.047 449.733 896.703 450.565C896.358 451.397 895.852 452.153 895.215 452.79C894.578 453.426 893.822 453.931 892.99 454.275C892.158 454.619 891.266 454.795 890.366 454.794Z"
            fill="white" />
        <path
            d="M1009.36 554.649H799.319C797.502 554.649 795.76 553.927 794.475 552.641C793.19 551.356 792.469 549.613 792.469 547.795C792.469 545.977 793.19 544.234 794.475 542.949C795.76 541.663 797.502 540.941 799.319 540.941H1009.36C1011.18 540.941 1012.92 541.663 1014.2 542.949C1015.49 544.234 1016.21 545.977 1016.21 547.795C1016.21 549.613 1015.49 551.356 1014.2 552.641C1012.92 553.927 1011.18 554.649 1009.36 554.649Z"
            fill="#EDEDED" />
        <path
            d="M1009.36 581.732H799.319C797.502 581.732 795.76 581.009 794.475 579.724C793.19 578.439 792.469 576.695 792.469 574.878C792.469 573.06 793.19 571.316 794.475 570.031C795.76 568.746 797.502 568.023 799.319 568.023H1009.36C1011.18 568.023 1012.92 568.746 1014.2 570.031C1015.49 571.316 1016.21 573.06 1016.21 574.878C1016.21 576.695 1015.49 578.439 1014.2 579.724C1012.92 581.009 1011.18 581.732 1009.36 581.732Z"
            fill="#EDEDED" />
        <path
            d="M890.367 608.814H799.319C797.502 608.814 795.76 608.091 794.475 606.806C793.19 605.521 792.469 603.777 792.469 601.96C792.469 600.142 793.19 598.398 794.475 597.113C795.76 595.828 797.502 595.105 799.319 595.105H890.367C891.267 595.104 892.159 595.281 892.991 595.625C893.823 595.969 894.579 596.473 895.216 597.11C895.853 597.746 896.359 598.502 896.704 599.335C897.048 600.167 897.226 601.059 897.226 601.96C897.226 602.86 897.048 603.752 896.704 604.585C896.359 605.417 895.853 606.173 895.216 606.809C894.579 607.446 893.823 607.951 892.991 608.294C892.159 608.638 891.267 608.815 890.367 608.814Z"
            fill="#EDEDED" />
        <path
            d="M1009.36 717.137H799.319C798.419 717.137 797.529 716.96 796.697 716.615C795.866 716.271 795.111 715.766 794.475 715.13C793.839 714.493 793.334 713.738 792.99 712.906C792.646 712.075 792.469 711.183 792.469 710.283C792.469 709.383 792.646 708.492 792.99 707.661C793.334 706.829 793.839 706.074 794.475 705.437C795.111 704.801 795.866 704.296 796.697 703.951C797.529 703.607 798.419 703.43 799.319 703.43H1009.36C1010.26 703.43 1011.15 703.607 1011.98 703.951C1012.81 704.296 1013.57 704.801 1014.2 705.437C1014.84 706.074 1015.34 706.829 1015.69 707.661C1016.03 708.492 1016.21 709.383 1016.21 710.283C1016.21 711.183 1016.03 712.075 1015.69 712.906C1015.34 713.738 1014.84 714.493 1014.2 715.13C1013.57 715.766 1012.81 716.271 1011.98 716.615C1011.15 716.96 1010.26 717.137 1009.36 717.137Z"
            fill="#EDEDED" />
        <path
            d="M1009.36 744.22H799.318C797.503 744.217 795.763 743.494 794.48 742.209C793.197 740.924 792.477 739.182 792.477 737.366C792.477 735.55 793.197 733.808 794.48 732.522C795.763 731.237 797.503 730.514 799.318 730.512H1009.36C1011.17 730.514 1012.91 731.237 1014.2 732.522C1015.48 733.808 1016.2 735.55 1016.2 737.366C1016.2 739.182 1015.48 740.924 1014.2 742.209C1012.91 743.494 1011.17 744.217 1009.36 744.22Z"
            fill="#EDEDED" />
        <path
            d="M890.367 771.302H799.319C797.502 771.302 795.76 770.58 794.475 769.294C793.19 768.009 792.469 766.266 792.469 764.448C792.469 762.63 793.19 760.887 794.475 759.601C795.76 758.316 797.502 757.594 799.319 757.594H890.367C891.267 757.593 892.159 757.769 892.991 758.113C893.823 758.457 894.579 758.962 895.216 759.598C895.853 760.235 896.359 760.991 896.704 761.823C897.048 762.655 897.226 763.547 897.226 764.448C897.226 765.349 897.048 766.241 896.704 767.073C896.359 767.905 895.853 768.661 895.216 769.298C894.579 769.934 893.823 770.439 892.991 770.783C892.159 771.127 891.267 771.303 890.367 771.302Z"
            fill="#EDEDED" />
        <path
            d="M715.524 629.165H589.075C585.686 629.161 582.437 627.812 580.041 625.415C577.645 623.017 576.297 619.766 576.293 616.376V533.379C576.297 529.988 577.645 526.737 580.041 524.34C582.437 521.942 585.686 520.594 589.075 520.59H715.524C718.912 520.594 722.161 521.942 724.558 524.34C726.954 526.737 728.302 529.988 728.306 533.379V616.376C728.302 619.767 726.954 623.017 724.558 625.415C722.161 627.812 718.912 629.161 715.524 629.165Z"
            fill="#EDEDED" />
        <path
            d="M706.638 530.961H597.966C594.88 530.964 591.922 532.191 589.739 534.374C587.557 536.556 586.329 539.516 586.324 542.603V607.148C586.329 610.236 587.557 613.197 589.739 615.38C591.921 617.564 594.88 618.792 597.966 618.797H667.262C680.787 618.783 693.754 613.401 703.318 603.833C712.882 594.264 718.26 581.29 718.274 567.758V542.603C718.271 539.517 717.044 536.557 714.862 534.374C712.681 532.192 709.723 530.964 706.638 530.961Z"
            fill="white" />
        <path
            d="M675.927 552.783L675.602 553.369C678.493 546.241 675.865 537.457 670.708 532.082C665.551 526.707 658.382 524.25 651.322 523.275C646.082 522.551 640.643 522.572 635.66 524.493C628.444 527.274 622.931 533.712 618.328 540.41C616.223 543.473 614.153 546.966 614.362 550.795C614.557 554.348 616.665 557.363 618.391 560.378C620.118 563.392 621.56 567.133 620.32 570.423C619.582 572.384 618.022 573.796 616.756 575.4C615.489 577.004 614.448 579.172 615.06 581.184C615.331 581.954 615.798 582.64 616.414 583.176C617.029 583.712 617.774 584.078 618.574 584.24C620.123 584.498 621.707 584.461 623.242 584.129L663.48 578.047C666.214 577.633 668.808 576.564 671.04 574.931C673.272 573.298 675.076 571.149 676.299 568.668C677.522 566.186 678.126 563.446 678.062 560.68C677.997 557.914 677.265 555.205 675.927 552.783Z"
            fill="#1B1B1B" />
        <path
            d="M645.997 577.765C656.862 577.765 665.67 568.952 665.67 558.082C665.67 547.211 656.862 538.398 645.997 538.398C635.132 538.398 626.324 547.211 626.324 558.082C626.324 568.952 635.132 577.765 645.997 577.765Z"
            fill="#FFB9B9" />
        <path
            d="M697.333 608.961C688.614 615.364 678.077 618.81 667.262 618.797H606.894C606.772 618.699 606.657 618.6 606.535 618.496L612.165 602.778C613.437 599.986 615.445 597.594 617.973 595.857C620.501 594.12 623.454 593.104 626.515 592.919L630.097 592.699L638.637 585.329C638.637 585.329 661.649 584.507 661.308 584.113L675.247 592.502L675.235 592.444L680.715 592.78C683.776 592.965 686.729 593.98 689.257 595.717C691.786 597.454 693.793 599.847 695.065 602.639L697.333 608.961Z"
            fill="url(#paint1_linear_3140_71030)" />
        <path
            d="M664.659 539.814C664.151 537.126 661.411 535.897 659.064 535.301C652.254 533.563 645.171 533.173 638.212 534.155C633.139 534.879 627.946 536.475 624.266 540.437C621.298 543.773 619.616 548.058 619.523 552.523C619.373 555.193 619.969 557.852 621.244 560.201C621.815 561.295 622.66 562.222 623.697 562.89C624.733 563.559 625.926 563.946 627.157 564.014L627.393 564.836C637.27 563.459 646.445 557.31 652.224 548.195C651.139 552.069 648.981 555.558 645.999 558.257C652.667 555.587 658.464 551.117 662.742 545.346C663.911 543.794 665.045 541.859 664.659 539.814Z"
            fill="#1B1B1B" />
        <path
            d="M715.524 475.145H589.075C585.686 475.141 582.437 473.793 580.041 471.395C577.645 468.998 576.297 465.747 576.293 462.356V379.359C576.297 375.968 577.645 372.718 580.041 370.32C582.437 367.923 585.686 366.574 589.075 366.57H715.524C718.912 366.574 722.161 367.923 724.558 370.32C726.954 372.718 728.302 375.968 728.306 379.359V462.356C728.302 465.747 726.954 468.998 724.558 471.395C722.161 473.793 718.912 475.141 715.524 475.145Z"
            fill="#EDEDED" />
        <path
            d="M706.638 376.941H597.966C594.881 376.945 591.923 378.173 589.74 380.355C587.558 382.537 586.329 385.497 586.324 388.584V453.129C586.329 456.217 587.557 459.177 589.739 461.361C591.921 463.544 594.88 464.773 597.966 464.777H667.262C680.788 464.766 693.757 459.385 703.321 449.816C712.885 440.247 718.263 427.271 718.274 413.738V388.584C718.271 385.497 717.044 382.538 714.862 380.355C712.681 378.172 709.723 376.945 706.638 376.941Z"
            fill="white" />
        <path
            d="M626.181 389.462C631.299 389.462 635.448 385.311 635.448 380.19C635.448 375.069 631.299 370.918 626.181 370.918C621.063 370.918 616.914 375.069 616.914 380.19C616.914 385.311 621.063 389.462 626.181 389.462Z"
            fill="#1B1B1B" />
        <path
            d="M641.008 424.697C653.974 424.697 664.485 414.181 664.485 401.208C664.485 388.235 653.974 377.719 641.008 377.719C628.042 377.719 617.531 388.235 617.531 401.208C617.531 414.181 628.042 424.697 641.008 424.697Z"
            fill="#1B1B1B" />
        <path
            d="M642.953 424.691C653.489 424.691 662.03 416.145 662.03 405.603C662.03 395.061 653.489 386.516 642.953 386.516C632.416 386.516 623.875 395.061 623.875 405.603C623.875 416.145 632.416 424.691 642.953 424.691Z"
            fill="#9E616A" />
        <path
            d="M655.907 386.145C652.564 384.106 648.735 383.003 644.82 382.951C640.906 382.899 637.049 383.901 633.653 385.851C630.258 387.802 627.448 390.629 625.518 394.037C623.589 397.445 622.61 401.31 622.684 405.227C632.405 407.669 642.617 409.537 652.984 405.811L655.432 399.816L656.875 405.815C660.032 407.106 663.198 408.199 666.363 405.803C666.492 401.897 665.594 398.026 663.76 394.576C661.925 391.127 659.217 388.219 655.907 386.145Z"
            fill="#1B1B1B" />
        <path
            d="M617.552 355.02C614.299 353.631 610.721 353.18 607.225 353.719C603.729 354.258 600.453 355.765 597.768 358.07C595.142 360.44 593.143 363.424 591.949 366.755C590.756 370.086 590.404 373.66 590.925 377.16C591.976 384.278 596.302 390.408 600.288 396.397C604.275 402.386 608.17 408.948 608.166 416.143C608.163 421.326 606.105 426.296 602.445 429.963C598.785 433.63 593.821 435.695 588.641 435.706C594.72 438.324 601.065 440.994 607.677 440.684C614.289 440.373 621.219 436.121 622.297 429.587C623.074 424.879 620.766 420.288 618.84 415.923C615.704 408.809 613.437 401.343 612.089 393.686C611.446 390.032 611.027 386.19 612.218 382.676C613.166 380.072 614.925 377.841 617.237 376.314C619.548 374.786 622.289 374.042 625.055 374.191L627.24 372.225C627.614 368.705 626.882 365.157 625.145 362.073C623.409 358.989 620.755 356.524 617.552 355.02Z"
            fill="#1B1B1B" />
        <path
            d="M693.416 457.54C685.518 462.287 676.476 464.789 667.262 464.776H601.866L601.762 464.689L607.392 448.966C608.664 446.175 610.672 443.783 613.2 442.047C615.728 440.311 618.681 439.296 621.742 439.112L625.323 438.892L633.864 431.522C633.864 431.522 656.876 430.694 656.534 430.301L670.473 438.69L670.462 438.637L675.941 438.973C679.003 439.156 681.956 440.169 684.484 441.905C687.013 443.642 689.02 446.034 690.291 448.827L693.416 457.54Z"
            fill="url(#paint2_linear_3140_71030)" />
        <path
            d="M715.524 791.653H589.075C585.686 791.649 582.437 790.3 580.041 787.903C577.645 785.505 576.297 782.255 576.293 778.864V695.867C576.297 692.476 577.645 689.226 580.041 686.828C582.437 684.431 585.686 683.082 589.075 683.078H715.524C718.912 683.082 722.161 684.431 724.558 686.828C726.954 689.226 728.302 692.476 728.306 695.867V778.864C728.302 782.255 726.954 785.505 724.558 787.903C722.161 790.3 718.912 791.649 715.524 791.653Z"
            fill="#EDEDED" />
        <path
            d="M706.638 693.451H597.966C594.88 693.454 591.922 694.682 589.739 696.864C587.557 699.047 586.329 702.006 586.324 705.093V769.639C586.329 772.727 587.557 775.687 589.739 777.87C591.921 780.054 594.88 781.282 597.966 781.287H667.262C680.787 781.273 693.755 775.892 703.318 766.323C712.882 756.754 718.261 743.78 718.274 730.248V705.093C718.271 702.007 717.044 699.047 714.862 696.865C712.681 694.682 709.723 693.454 706.638 693.451Z"
            fill="white" />
        <path
            d="M652.206 734.51C666.662 734.51 678.381 722.785 678.381 708.322C678.381 693.858 666.662 682.133 652.206 682.133C637.75 682.133 626.031 693.858 626.031 708.322C626.031 722.785 637.75 734.51 652.206 734.51Z"
            fill="#1B1B1B" />
        <path
            d="M652.215 737.951C665.129 737.951 675.598 727.477 675.598 714.556C675.598 701.635 665.129 691.16 652.215 691.16C639.301 691.16 628.832 701.635 628.832 714.556C628.832 727.477 639.301 737.951 652.215 737.951Z"
            fill="#FFB8B8" />
        <path
            d="M698.989 770.186C689.98 777.382 678.791 781.296 667.263 781.285H608.949L614.481 765.844C615.753 763.053 617.761 760.66 620.289 758.923C622.817 757.186 625.77 756.171 628.831 755.985L632.413 755.765L640.953 748.395C640.953 748.395 663.965 747.573 663.624 747.18L677.563 755.568L677.551 755.511L683.031 755.846C686.092 756.031 689.045 757.046 691.573 758.783C694.101 760.52 696.109 762.913 697.381 765.705L698.989 770.186Z"
            fill="url(#paint3_linear_3140_71030)" />
        <path
            d="M676.886 706.35C677.05 704.603 677.125 702.849 677.111 701.095C677.207 697.625 676.571 694.174 675.246 690.966C673.617 687.415 670.711 684.606 667.107 683.099C663.535 681.658 659.542 681.661 655.973 683.109C652.832 680.946 649.193 679.621 645.398 679.257C643.497 679.104 641.587 679.414 639.831 680.159C638.076 680.905 636.526 682.064 635.315 683.538C634.796 684.351 634.207 685.117 633.554 685.828C631.685 687.558 628.846 687.309 626.363 686.955C627.477 687.91 628.591 688.865 629.705 689.82C628.357 690.172 627.009 690.525 625.66 690.877C627.234 691.832 628.807 692.787 630.38 693.741C625.813 696.484 623.737 702.471 624.285 707.908C624.804 713.056 627.288 717.763 630.257 721.947C631.442 719.446 631.187 716.453 631.167 713.636C631.156 712.723 631.212 711.809 631.334 710.904C641.369 713.311 651.854 714.855 662.487 711.033L664.621 705.808C664.921 705.838 665.22 705.867 665.519 705.899L666.756 711.038C669.559 712.184 672.367 713.186 675.177 712.133C675.314 712.927 675.396 713.737 675.459 714.515C675.7 713.584 675.91 712.646 676.098 711.704C676.47 711.505 676.825 711.277 677.162 711.024C677.23 709.461 677.137 707.894 676.886 706.35Z"
            fill="#1B1B1B" />
        <path
            d="M1068.95 296.092H523.559C522.749 296.091 521.972 295.769 521.4 295.196C520.827 294.623 520.505 293.846 520.504 293.036V275.057C520.505 274.246 520.827 273.469 521.4 272.896C521.972 272.323 522.749 272.001 523.559 272H1068.95C1069.76 272.001 1070.53 272.323 1071.1 272.896C1071.68 273.469 1072 274.246 1072 275.057V293.036C1072 293.846 1071.68 294.623 1071.1 295.196C1070.53 295.769 1069.76 296.091 1068.95 296.092Z"
            fill="#EDEDED" />
        <path
            d="M538.232 287.509C540.627 287.509 542.569 285.566 542.569 283.17C542.569 280.773 540.627 278.83 538.232 278.83C535.836 278.83 533.895 280.773 533.895 283.17C533.895 285.566 535.836 287.509 538.232 287.509Z"
            fill="url(#paint4_linear_3140_71030)" />
        <path
            d="M554.697 287.509C557.092 287.509 559.034 285.566 559.034 283.17C559.034 280.773 557.092 278.83 554.697 278.83C552.301 278.83 550.359 280.773 550.359 283.17C550.359 285.566 552.301 287.509 554.697 287.509Z"
            fill="url(#paint5_linear_3140_71030)" />
        <path
            d="M571.158 287.509C573.553 287.509 575.495 285.566 575.495 283.17C575.495 280.773 573.553 278.83 571.158 278.83C568.762 278.83 566.82 280.773 566.82 283.17C566.82 285.566 568.762 287.509 571.158 287.509Z"
            fill="url(#paint6_linear_3140_71030)" />
        <path
            d="M1052.81 280.181H1033.86C1033.48 280.181 1033.13 280.033 1032.86 279.77C1032.6 279.506 1032.45 279.149 1032.45 278.776C1032.45 278.403 1032.6 278.046 1032.86 277.783C1033.13 277.519 1033.48 277.371 1033.86 277.371H1052.81C1053.19 277.371 1053.54 277.519 1053.81 277.783C1054.07 278.046 1054.22 278.403 1054.22 278.776C1054.22 279.149 1054.07 279.506 1053.81 279.77C1053.54 280.033 1053.19 280.181 1052.81 280.181Z"
            fill="url(#paint7_linear_3140_71030)" />
        <path
            d="M1052.81 285.451H1033.86C1033.67 285.451 1033.49 285.414 1033.32 285.344C1033.15 285.273 1032.99 285.17 1032.86 285.039C1032.73 284.909 1032.63 284.754 1032.56 284.583C1032.49 284.413 1032.45 284.23 1032.45 284.046C1032.45 283.861 1032.49 283.678 1032.56 283.508C1032.63 283.337 1032.73 283.183 1032.86 283.052C1032.99 282.922 1033.15 282.818 1033.32 282.748C1033.49 282.677 1033.67 282.641 1033.86 282.641H1052.81C1053 282.641 1053.18 282.677 1053.35 282.748C1053.52 282.818 1053.68 282.922 1053.81 283.052C1053.94 283.183 1054.04 283.337 1054.11 283.508C1054.18 283.678 1054.22 283.861 1054.22 284.046C1054.22 284.23 1054.18 284.413 1054.11 284.583C1054.04 284.754 1053.94 284.909 1053.81 285.039C1053.68 285.17 1053.52 285.273 1053.35 285.344C1053.18 285.414 1053 285.451 1052.81 285.451Z"
            fill="url(#paint8_linear_3140_71030)" />
        <path
            d="M1052.81 290.72H1033.86C1033.48 290.72 1033.13 290.572 1032.86 290.309C1032.6 290.045 1032.45 289.688 1032.45 289.315C1032.45 288.943 1032.6 288.585 1032.86 288.322C1033.13 288.058 1033.48 287.91 1033.86 287.91H1052.81C1053.19 287.91 1053.54 288.058 1053.81 288.322C1054.07 288.585 1054.22 288.943 1054.22 289.315C1054.22 289.688 1054.07 290.045 1053.81 290.309C1053.54 290.572 1053.19 290.72 1052.81 290.72Z"
            fill="url(#paint9_linear_3140_71030)" />
        <path
            d="M957.609 456.66C961.941 456.66 965.453 453.147 965.453 448.813C965.453 444.478 961.941 440.965 957.609 440.965C953.277 440.965 949.766 444.478 949.766 448.813C949.766 453.147 953.277 456.66 957.609 456.66Z"
            fill="url(#paint10_linear_3140_71030)" />
        <path
            d="M983.082 456.66C987.414 456.66 990.926 453.147 990.926 448.813C990.926 444.478 987.414 440.965 983.082 440.965C978.75 440.965 975.238 444.478 975.238 448.813C975.238 453.147 978.75 456.66 983.082 456.66Z"
            fill="url(#paint11_linear_3140_71030)" />
        <path
            d="M1008.55 456.66C1012.88 456.66 1016.39 453.147 1016.39 448.813C1016.39 444.478 1012.88 440.965 1008.55 440.965C1004.22 440.965 1000.71 444.478 1000.71 448.813C1000.71 453.147 1004.22 456.66 1008.55 456.66Z"
            fill="url(#paint12_linear_3140_71030)" />
        <path
            d="M957.609 609.571C961.941 609.571 965.453 606.057 965.453 601.723C965.453 597.389 961.941 593.875 957.609 593.875C953.277 593.875 949.766 597.389 949.766 601.723C949.766 606.057 953.277 609.571 957.609 609.571Z"
            fill="#EDEDED" />
        <path
            d="M983.082 609.571C987.414 609.571 990.926 606.057 990.926 601.723C990.926 597.389 987.414 593.875 983.082 593.875C978.75 593.875 975.238 597.389 975.238 601.723C975.238 606.057 978.75 609.571 983.082 609.571Z"
            fill="#EDEDED" />
        <path
            d="M1008.55 609.571C1012.88 609.571 1016.39 606.057 1016.39 601.723C1016.39 597.389 1012.88 593.875 1008.55 593.875C1004.22 593.875 1000.71 597.389 1000.71 601.723C1000.71 606.057 1004.22 609.571 1008.55 609.571Z"
            fill="#EDEDED" />
        <path
            d="M957.609 772.348C961.941 772.348 965.453 768.834 965.453 764.5C965.453 760.166 961.941 756.652 957.609 756.652C953.277 756.652 949.766 760.166 949.766 764.5C949.766 768.834 953.277 772.348 957.609 772.348Z"
            fill="#EDEDED" />
        <path
            d="M983.082 772.348C987.414 772.348 990.926 768.834 990.926 764.5C990.926 760.166 987.414 756.652 983.082 756.652C978.75 756.652 975.238 760.166 975.238 764.5C975.238 768.834 978.75 772.348 983.082 772.348Z"
            fill="#EDEDED" />
        <path
            d="M1008.55 772.348C1012.88 772.348 1016.39 768.834 1016.39 764.5C1016.39 760.166 1012.88 756.652 1008.55 756.652C1004.22 756.652 1000.71 760.166 1000.71 764.5C1000.71 768.834 1004.22 772.348 1008.55 772.348Z"
            fill="#EDEDED" />
        <path
            d="M734.35 455.581L693.919 429.969C693.147 429.479 692.258 429.208 691.345 429.182C690.431 429.156 689.528 429.377 688.729 429.821C687.931 430.266 687.267 430.917 686.807 431.707C686.347 432.498 686.109 433.397 686.117 434.311L686.515 478.473C686.525 479.647 686.942 480.781 687.692 481.683C688.443 482.584 689.483 483.199 690.635 483.421C691.787 483.643 692.98 483.46 694.013 482.902C695.045 482.344 695.853 481.447 696.299 480.361L701.559 467.559L716.226 496.49C716.923 497.859 718.134 498.895 719.594 499.371C721.054 499.847 722.643 499.725 724.012 499.03C725.381 498.335 726.419 497.124 726.897 495.665C727.376 494.205 727.255 492.615 726.563 491.244L711.563 461.655L730.787 464.893C731.944 465.088 733.134 464.876 734.153 464.293C735.172 463.71 735.958 462.793 736.378 461.696C736.797 460.599 736.825 459.391 736.455 458.276C736.085 457.161 735.341 456.209 734.35 455.581Z"
            fill="#1B1B1B" />
        <path
            d="M230.767 698.204C231.602 697.291 232.228 696.206 232.6 695.024C232.972 693.842 233.081 692.593 232.921 691.364C232.761 690.135 232.334 688.957 231.671 687.912C231.008 686.866 230.125 685.98 229.085 685.314L236 656L221.364 661.372L217.041 688.386C216.044 690.217 215.75 692.351 216.215 694.385C216.68 696.419 217.872 698.21 219.564 699.42C221.256 700.63 223.331 701.175 225.396 700.951C227.461 700.726 229.372 699.749 230.767 698.204Z"
            fill="#FFB8B8" />
        <path
            d="M265 576.117L259.223 591.149C259.223 591.149 261.699 606.181 257.572 609.521C253.445 612.862 255.096 612.862 255.096 615.367C254.954 617.164 254.439 618.911 253.586 620.493C252.733 622.076 251.56 623.459 250.144 624.553C246.843 627.058 231.986 678 231.986 678H217.13C217.61 674.118 217.61 670.191 217.13 666.308C216.305 660.463 219.606 645.431 221.257 642.926C222.908 640.42 221.257 637.08 221.257 632.069C221.257 627.058 224.558 624.553 224.558 616.202C224.558 607.851 234.462 542.713 233.637 535.197C232.812 527.681 241.89 521 241.89 521H250.144L265 576.117Z"
            fill="#EDEDED" />
        <path d="M235.001 881H245.841L251 839H235L235.001 881Z" fill="#FFB6B6" />
        <path
            d="M231.186 874.025L248.518 873V880.355L264.997 891.626C265.811 892.182 266.424 892.982 266.746 893.908C267.069 894.834 267.084 895.838 266.79 896.773C266.495 897.708 265.907 898.526 265.11 899.106C264.313 899.687 263.35 900 262.361 900H241.726L238.169 892.725L236.78 900H229L231.186 874.025Z"
            fill="#1B1B1B" />
        <path d="M296.001 881H306.841L312 839H296L296.001 881Z" fill="#FFB6B6" />
        <path
            d="M292.186 874.025L309.518 873V880.355L325.997 891.626C326.811 892.182 327.424 892.982 327.746 893.908C328.069 894.834 328.084 895.838 327.79 896.773C327.495 897.708 326.907 898.526 326.11 899.106C325.313 899.687 324.35 900 323.361 900H302.726L299.169 892.725L297.78 900H290L292.186 874.025Z"
            fill="#1B1B1B" />
        <path
            d="M229.878 845.275H229.997L236.038 777.348C234.682 774.748 233.994 771.855 234.035 768.926C234.076 765.998 234.844 763.125 236.272 760.563L236.572 760.023L235.794 756.439C234.796 751.834 235.254 747.034 237.106 742.699L235.113 679.335C228.133 634.343 261.4 605 261.4 605H311.235L321.934 641.558C325.951 680.481 338.513 721.421 336.849 759.155C335.583 787.859 321.349 813.621 316.5 841.576L316.806 841.729C317.907 842.108 318.38 843.626 317.861 845.12C317.343 846.614 316.029 847.519 314.927 847.141L288.609 846.23C287.507 845.852 287.034 844.334 287.553 842.84C288.072 841.346 289.385 840.441 290.487 840.819L292.277 841.719L305.234 773.228L305.657 761.256L304.785 747.673L283.977 689.522L268.707 764.651L253.11 846.031C253.54 846.419 253.842 846.927 253.976 847.488C254.11 848.05 254.069 848.639 253.86 849.177C253.65 849.715 253.281 850.178 252.802 850.503C252.323 850.828 251.756 851.002 251.175 851H229.878C229.5 851 229.126 850.926 228.777 850.782C228.428 850.638 228.11 850.427 227.843 850.162C227.576 849.896 227.364 849.58 227.219 849.233C227.074 848.886 227 848.513 227 848.138C227 847.762 227.074 847.389 227.219 847.042C227.364 846.695 227.576 846.379 227.843 846.114C228.11 845.848 228.428 845.637 228.777 845.493C229.126 845.349 229.5 845.275 229.878 845.275Z"
            fill="#1B1B1B" />
        <path
            d="M226.063 636C224.436 636 223.511 635.681 223.153 634.999C222.628 633.996 223.539 632.687 224.595 631.17C225.378 630.179 225.995 629.069 226.424 627.882C227.055 625.363 231.315 561.725 228.767 549.009C228.177 546.067 228.685 542.296 230.274 537.8C234.617 525.523 240.544 521.749 252.353 514.233C253.311 513.623 254.309 512.986 255.347 512.321C256.689 511.461 256.615 508.606 256.536 505.584C256.448 502.225 256.357 498.751 258.006 496.58L258.113 496.438L258.286 496.398C262.275 495.478 275.691 493.769 283.636 496.41L283.746 496.448L283.828 496.529C285.715 498.412 285.887 502.06 286.053 505.588C286.189 508.484 286.318 511.218 287.386 512.406C295.549 521.486 304.807 521.309 304.901 521.307L305.36 521.294L305.406 521.749C308.956 557.791 314.681 612.188 315.897 614.329C315.961 614.427 315.996 614.54 316 614.657C316.003 614.774 315.975 614.889 315.917 614.991C314.131 618.32 232.198 636 226.063 636Z"
            fill="#EDEDED" />
        <path d="M279.5 486C293.031 486 304 475.031 304 461.5C304 447.969 293.031 437 279.5 437C265.969 437 255 447.969 255 461.5C255 475.031 265.969 486 279.5 486Z" fill="#FFB8B8" />
        <path
            d="M213.421 450.6C217.508 445.852 219.451 439.553 222.719 434.162C225.986 428.771 231.673 423.946 237.68 425.201C241.821 426.066 245.021 429.705 246.641 433.763C248.261 437.82 248.565 442.295 248.849 446.679C248.749 437.67 254.708 428.937 262.916 426.062C271.124 423.188 280.948 426.394 286.106 433.631C288.356 431.553 291.295 430.37 294.363 430.306C297.431 430.242 300.417 431.301 302.753 433.283C307.367 437.39 308.388 445.207 304.995 450.446C303.291 452.995 300.712 454.836 297.741 455.625C294.771 456.414 291.613 456.096 288.861 454.73L286.955 456.477C287.449 458.344 287.268 460.324 286.445 462.072C285.621 463.819 284.207 465.223 282.449 466.037C279.613 467.178 275.609 466.989 274.547 469.953C273.805 472.025 275.192 474.236 276.667 475.828C278.141 477.42 279.892 479.063 280.069 481.266C280.337 484.59 276.888 486.918 273.753 487.619C269.91 488.385 265.925 487.99 262.309 486.487C258.692 484.983 255.608 482.439 253.451 479.18C253.367 479.052 253.276 478.924 253.177 478.795C250.733 475.682 248.952 472.105 247.942 468.283C246.933 464.461 246.716 460.474 247.306 456.565C247.551 455.03 247.304 453.888 246.241 453.524C241.647 451.952 228.774 455.251 224.879 458.233C220.983 461.214 217.863 465.16 214.111 468.334C210.358 471.509 205.576 473.957 200.812 473.093C196.996 472.4 193.749 469.641 191.566 466.313C189.507 462.868 187.968 459.14 187 455.249C195.438 460.104 206.987 458.072 213.421 450.6Z"
            fill="#1B1B1B" />
        <path
            d="M318.233 698.204C317.398 697.291 316.772 696.206 316.4 695.024C316.028 693.842 315.919 692.593 316.079 691.364C316.239 690.136 316.666 688.957 317.329 687.912C317.992 686.866 318.875 685.98 319.915 685.315L313 656L327.636 661.372L331.959 688.386C332.956 690.217 333.25 692.351 332.785 694.385C332.32 696.418 331.128 698.21 329.436 699.42C327.744 700.63 325.669 701.175 323.604 700.951C321.539 700.726 319.628 699.749 318.233 698.204Z"
            fill="#FFB8B8" />
        <path
            d="M283 576.117L288.898 591.149C288.898 591.149 286.37 606.181 290.583 609.521C294.795 612.862 293.11 612.862 293.11 615.367C293.256 617.164 293.781 618.911 294.652 620.493C295.523 622.076 296.72 623.459 298.166 624.553C301.536 627.058 316.701 678 316.701 678H331.867C331.377 674.118 331.377 670.191 331.867 666.308C332.71 660.463 329.339 645.431 327.654 642.926C325.969 640.42 327.654 637.08 327.654 632.069C327.654 627.058 324.284 624.553 324.284 616.202C324.284 607.851 314.174 542.713 315.016 535.197C315.859 527.681 306.591 521 306.591 521H298.166L283 576.117Z"
            fill="#EDEDED" />
    </g>

</svg>
