<svg width="971" height="628" viewBox="0 0 971 628" fill="none" xmlns="http://www.w3.org/2000/svg">
<path d="M868.398 400.791H126.086V19H868.398V400.791ZM138.134 388.741H856.35V31.0497H138.134V388.741Z" fill="#EDEDED"/>
<path d="M472.943 109V234.494H290.539L256.842 274.932L260.689 234.494H244.293V109H472.943Z" fill="#2688EB"/>
<path d="M583.324 157V237.462H700.273L721.878 263.388L719.412 237.462H729.924V157H583.324Z" fill="#EDEDED"/>
<path d="M100.673 586.132H111.224L116.244 545.43H100.672L100.673 586.132Z" fill="#FFB8B8"/>
<path d="M97.9844 582.687L118.763 582.687C122.275 582.687 125.644 584.082 128.127 586.566C130.611 589.049 132.006 592.418 132.006 595.93V596.36L97.9849 596.362L97.9844 582.687Z" fill="#1B1B1B"/>
<path d="M227.437 585.785L237.683 583.263L232.832 542.541L217.711 546.263L227.437 585.785Z" fill="#FFB8B8"/>
<path d="M224 583.083L244.177 578.117C247.587 577.278 251.192 577.828 254.197 579.646C257.201 581.464 259.361 584.402 260.2 587.812L260.303 588.23L227.268 596.362L224 583.083Z" fill="#1B1B1B"/>
<path d="M94.1836 576.427L96.3754 565.211C96.3754 565.211 100.41 521.906 129.365 478.687L139.853 432.208C139.853 432.208 145.034 401.361 163.006 376.964L171.335 371.226L200.537 372.9L207.281 409.828L220.87 497.206C220.87 497.206 224.377 497.534 225.692 507.639C228.365 511.882 229.946 516.721 230.295 521.723C230.295 521.723 237.249 540.911 239.112 555.039L238.893 568.863L224.208 576.688L193.601 490.116L171.709 441.718C171.709 441.718 161.172 475.818 145.034 505.03C145.034 505.03 122.929 552.881 118.513 562.603L113.691 578.513L94.1836 576.427Z" fill="#1B1B1B"/>
<path d="M191.821 296.918C203.349 296.918 212.693 287.572 212.693 276.043C212.693 264.514 203.349 255.168 191.821 255.168C180.294 255.168 170.949 264.514 170.949 276.043C170.949 287.572 180.294 296.918 191.821 296.918Z" fill="#FFB8B8"/>
<path d="M191.821 296.918C203.349 296.918 212.693 287.572 212.693 276.043C212.693 264.514 203.349 255.168 191.821 255.168C180.294 255.168 170.949 264.514 170.949 276.043C170.949 287.572 180.294 296.918 191.821 296.918Z" fill="#FFB8B8"/>
<path d="M163.07 377.187L169.96 359.974C165.092 344.204 165.391 327.29 170.812 311.702L172.13 310.616C183.615 301.157 193.694 302.879 203.048 314.45C204.554 316.331 206.316 317.992 208.282 319.385C212.407 322.28 218.952 338.007 210.31 347.226L203.397 387.558C204.125 409.826 187.969 401.441 163.07 377.187Z" fill="#2688EB"/>
<path d="M261.866 353.775C260.975 353.101 259.947 352.631 258.855 352.397C257.762 352.164 256.632 352.173 255.543 352.423C254.454 352.674 253.434 353.16 252.553 353.848C251.673 354.535 250.954 355.408 250.447 356.404L233.037 355.048L229.633 365.428L254.246 366.997C255.975 367.738 257.915 367.819 259.7 367.224C261.484 366.63 262.989 365.401 263.928 363.771C264.867 362.142 265.176 360.224 264.796 358.382C264.416 356.539 263.374 354.9 261.866 353.775Z" fill="#FFB8B8"/>
<path d="M245.198 370.615L195.588 361.351L179.453 334.295C178.416 331.42 178.564 328.251 179.863 325.485C181.163 322.719 183.508 320.583 186.382 319.546C189.257 318.509 192.426 318.657 195.191 319.956C197.957 321.256 200.093 323.601 201.13 326.476L208.698 347.407L247.932 353.902L245.198 370.615Z" fill="#EDEDED"/>
<path d="M154.618 271.471C165.677 271.471 174.642 262.504 174.642 251.444C174.642 240.383 165.677 231.417 154.618 231.417C143.559 231.417 134.594 240.383 134.594 251.444C134.594 262.504 143.559 271.471 154.618 271.471Z" fill="#1B1B1B"/>
<path d="M137.343 268.027C139.934 269.901 142.937 271.126 146.099 271.601C149.262 272.076 152.492 271.787 155.519 270.757C158.547 269.728 161.284 267.988 163.502 265.683C165.719 263.379 167.353 260.577 168.265 257.512C167.92 260.259 167.009 262.904 165.59 265.281C164.17 267.658 162.274 269.715 160.02 271.322C157.765 272.929 155.203 274.051 152.493 274.617C149.783 275.184 146.986 275.182 144.277 274.612C141.568 274.043 139.006 272.918 136.754 271.308C134.502 269.698 132.607 267.639 131.191 265.261C129.775 262.882 128.867 260.235 128.525 257.488C128.183 254.741 128.414 251.952 129.203 249.299C128.755 252.864 129.274 256.484 130.706 259.779C132.138 263.074 134.43 265.923 137.343 268.027Z" fill="#1B1B1B"/>
<path d="M216.368 268.049C212.872 261.79 211.534 259.176 207.027 255.37C203.041 252.003 198.139 251.015 194.184 254.204C189.506 252.183 184.301 251.725 179.342 252.897C174.382 254.07 169.934 256.812 166.656 260.715C163.379 264.617 161.448 269.473 161.15 274.561C160.852 279.649 162.203 284.698 165.002 288.957C167.801 293.216 171.899 296.458 176.688 298.202C181.476 299.946 186.699 300.099 191.581 298.637C196.463 297.176 200.744 294.179 203.787 290.091C206.83 286.002 208.474 281.042 208.473 275.945C208.47 275.05 208.416 274.156 208.312 273.267C211.749 272.784 212.93 268.532 216.368 268.049Z" fill="#1B1B1B"/>
<path d="M831.943 417.876C832.009 416.495 832.376 415.144 833.02 413.92C833.664 412.696 834.568 411.628 835.669 410.792C836.77 409.955 838.041 409.37 839.392 409.078C840.744 408.785 842.143 408.793 843.491 409.1L855.999 391.471L868.565 396.46L850.552 421.108C849.886 423.339 848.425 425.248 846.445 426.474C844.466 427.7 842.106 428.157 839.812 427.758C837.519 427.36 835.451 426.134 834 424.312C832.55 422.491 831.818 420.201 831.943 417.876Z" fill="#A0616A"/>
<path d="M845.664 402.714L867.903 365.307L858.842 341.142L871.182 308.23L871.637 308.426C871.936 308.554 878.948 311.683 879.987 322.889L894.168 367.464L856.321 416.569L845.664 402.714Z" fill="#2688EB"/>
<path d="M724.883 265.194C726.255 265.366 727.572 265.837 728.743 266.573C729.913 267.31 730.908 268.294 731.657 269.456C732.406 270.619 732.891 271.932 733.078 273.302C733.264 274.672 733.149 276.067 732.738 277.387L749.346 291.222L743.401 303.366L720.222 283.499C718.05 282.663 716.259 281.058 715.19 278.99C714.122 276.921 713.849 274.533 714.423 272.276C714.997 270.02 716.38 268.053 718.307 266.747C720.235 265.442 722.575 264.889 724.883 265.194Z" fill="#A0616A"/>
<path d="M738.936 280.048L774.507 305.115L799.297 297.949L831.152 312.798L830.922 313.237C830.772 313.525 827.11 320.274 815.858 320.444L770.327 331.138L724.301 289.603L738.936 280.048Z" fill="#2688EB"/>
<path d="M804.026 584.877H791.66L785.777 537.172L804.028 537.173L804.026 584.877Z" fill="#A0616A"/>
<path d="M782.825 581.343H806.674V596.361H767.809C767.809 594.389 768.197 592.436 768.952 590.614C769.706 588.792 770.812 587.136 772.207 585.741C773.601 584.347 775.256 583.241 777.078 582.486C778.9 581.731 780.853 581.343 782.825 581.343Z" fill="#1B1B1B"/>
<path d="M853.452 584.877H841.085L835.203 537.172L853.454 537.173L853.452 584.877Z" fill="#A0616A"/>
<path d="M832.25 581.343H856.1V596.361H817.234C817.234 594.389 817.623 592.436 818.377 590.614C819.132 588.792 820.238 587.136 821.632 585.741C823.027 584.347 824.682 583.241 826.504 582.486C828.326 581.731 830.279 581.343 832.25 581.343Z" fill="#1B1B1B"/>
<path d="M857.85 410.751L856.841 481.368L855.832 574.178L833.642 572.16L822.546 444.042L808.424 572.16H785.515L783.207 443.032L791.277 414.785L857.85 410.751Z" fill="#1B1B1B"/>
<path d="M789.064 415.217L785.684 415.071L801.386 328.556L794.957 302.406C794.623 301.046 794.799 299.61 795.453 298.371C796.106 297.132 797.192 296.176 798.503 295.683L810.071 291.345L814.158 280.104L846.403 283.579L847.196 292.364C850.69 293.485 879.464 303.069 877.479 313.99C875.519 324.768 863.949 358.68 863.362 360.398L861.336 409.031L861.086 409.156C860.786 409.306 838.561 420.236 814.416 420.234C805.705 420.379 797.063 418.669 789.064 415.217Z" fill="#2688EB"/>
<path d="M829.017 274.542C841.839 274.542 852.234 264.146 852.234 251.322C852.234 238.498 841.839 228.103 829.017 228.103C816.195 228.103 805.801 238.498 805.801 251.322C805.801 264.146 816.195 274.542 829.017 274.542Z" fill="#A0616A"/>
<path d="M847.821 273.799C843.396 278.512 835.179 275.982 834.603 269.543C834.557 269.043 834.561 268.539 834.612 268.04C834.91 265.188 836.558 262.598 836.163 259.586C836.074 258.837 835.795 258.122 835.352 257.511C831.826 252.789 823.55 259.623 820.222 255.348C818.182 252.727 820.58 248.6 819.014 245.671C816.948 241.804 810.827 243.712 806.989 241.594C802.718 239.238 802.973 232.685 805.785 228.699C809.213 223.837 815.224 221.243 821.161 220.87C827.097 220.496 832.992 222.101 838.535 224.261C844.832 226.715 851.076 230.107 854.951 235.645C859.664 242.379 860.117 251.433 857.76 259.308C856.327 264.098 851.434 269.95 847.821 273.799Z" fill="#1B1B1B"/>
<path d="M596.283 578.462L599.732 569.589L567.154 552.061L562.062 565.156L596.283 578.462Z" fill="#FFB8B8"/>
<path d="M614.761 555.315C613.299 554.746 611.739 554.471 610.171 554.505C608.602 554.539 607.055 554.882 605.619 555.514C604.183 556.146 602.886 557.055 601.802 558.189C600.717 559.323 599.866 560.659 599.299 562.122L596.972 568.104L593.385 577.336L592.508 579.6L604.003 584.073L615.123 555.459L614.761 555.315Z" fill="#1B1B1B"/>
<path d="M593.387 561.386L591.887 565.364L588.143 575.294L588.053 575.543C578.515 576.768 568.059 574.366 558.388 570.633C554.518 569.14 550.728 567.449 547.033 565.565C541.564 562.802 536.667 559.885 532.76 557.39C526.878 553.614 523.241 550.779 523.241 550.779C523.241 550.779 522.28 551.648 520.542 553.137C518.211 555.131 514.488 558.245 509.771 561.911C507.971 563.319 506.04 564.792 503.975 566.329C488.757 577.619 469.227 547.494 469.227 547.494C469.227 547.494 474.719 543.997 476.154 543.318C480.775 541.131 491.63 535.972 500.995 531.388C505.82 529.022 510.243 526.804 513.213 525.228C523.73 519.628 536.804 530.225 536.804 530.225L593.387 561.386Z" fill="#1B1B1B"/>
<path opacity="0.14" d="M593.387 561.386L591.887 565.364L588.143 575.294L588.053 575.543C578.515 576.768 568.059 574.366 558.388 570.633C554.518 569.14 550.728 567.449 547.033 565.565C541.564 562.802 536.667 559.885 532.76 557.39C526.878 553.614 523.241 550.779 523.241 550.779C523.241 550.779 522.28 551.648 520.542 553.137C518.211 555.131 514.488 558.245 509.771 561.911C507.971 563.319 506.04 564.792 503.975 566.329C488.757 577.619 469.227 547.494 469.227 547.494C469.227 547.494 474.719 543.997 476.154 543.318C480.775 541.131 491.63 535.972 500.995 531.388C505.82 529.022 510.243 526.804 513.213 525.228C523.73 519.628 536.804 530.225 536.804 530.225L593.387 561.386Z" fill="#1B1B1B"/>
<path d="M441.166 477.871H396.134C395.208 477.87 394.32 477.502 393.665 476.847C393.01 476.191 392.642 475.303 392.641 474.377V454.964C392.641 448.065 395.381 441.449 400.259 436.57C405.136 431.692 411.752 428.951 418.65 428.951C425.548 428.951 432.164 431.692 437.042 436.57C441.92 441.449 444.66 448.065 444.66 454.964V474.377C444.659 475.303 444.29 476.191 443.635 476.847C442.98 477.502 442.092 477.87 441.166 477.871Z" fill="#1B1B1B"/>
<path d="M483.988 502.255C482.94 502.439 481.945 502.851 481.073 503.461C480.201 504.072 479.473 504.866 478.941 505.788C478.409 506.71 478.086 507.738 477.994 508.798C477.902 509.859 478.044 510.926 478.409 511.926L466.164 523.19L471.193 532.302L488.262 516.152C489.901 515.427 491.217 514.126 491.96 512.495C492.704 510.865 492.824 509.018 492.297 507.305C491.77 505.592 490.633 504.132 489.102 503.201C487.57 502.271 485.751 501.934 483.988 502.255Z" fill="#FFB8B8"/>
<path d="M447.145 553.467C446.592 553.467 446.038 553.443 445.484 553.396C442.18 553.12 439.001 552.01 436.245 550.168C433.488 548.327 431.245 545.816 429.724 542.87L410.107 505.106C408.821 502.632 408.539 499.757 409.319 497.08C410.099 494.403 411.881 492.129 414.294 490.733C416.707 489.336 419.566 488.923 422.275 489.581C424.985 490.238 427.336 491.915 428.841 494.262L446.94 534.877L471.567 514.865L485.826 520.416L461.745 547.005C459.894 549.037 457.64 550.662 455.126 551.774C452.612 552.887 449.894 553.464 447.145 553.467Z" fill="#2688EB"/>
<path d="M593.53 590.942L597.65 582.361L566.515 562.381L560.434 575.047L593.53 590.942Z" fill="#FFB8B8"/>
<path d="M613.733 569.283C612.319 568.603 610.785 568.208 609.218 568.122C607.651 568.035 606.083 568.258 604.603 568.778C603.122 569.298 601.759 570.105 600.591 571.152C599.422 572.199 598.472 573.466 597.793 574.881L595.014 580.666L590.728 589.596L589.68 591.786L600.798 597.128L614.082 569.454L613.733 569.283Z" fill="#1B1B1B"/>
<path d="M591.956 573.694L590.155 577.545L585.659 587.158L585.551 587.399C575.946 587.888 565.706 584.689 556.35 580.224C552.606 578.439 548.958 576.461 545.418 574.299C540.177 571.123 535.519 567.839 531.815 565.051C526.241 560.835 522.832 557.729 522.832 557.729C522.832 557.729 521.808 558.521 519.96 559.872C517.483 561.681 513.531 564.5 508.547 567.792C506.644 569.058 504.605 570.378 502.429 571.752C486.388 581.839 463.577 594.124 444.175 596.717C410.098 601.275 418.118 555.795 418.118 555.795L445.238 541.709L456.752 544.047L469.571 546.64L474.113 547.564C474.113 547.564 474.975 547.238 476.458 546.671C481.232 544.846 492.452 540.537 502.141 536.685C507.133 534.697 511.714 532.826 514.797 531.483C525.713 526.707 537.934 538.277 537.934 538.277L591.956 573.694Z" fill="#1B1B1B"/>
<path d="M368.491 597.803C369.529 597.565 370.501 597.102 371.34 596.447C372.18 595.793 372.865 594.962 373.349 594.014C373.832 593.065 374.102 592.022 374.139 590.959C374.176 589.895 373.979 588.836 373.563 587.856L385.209 575.974L379.716 567.135L363.504 584.145C361.905 584.954 360.658 586.322 360 587.989C359.342 589.656 359.318 591.506 359.932 593.189C360.547 594.873 361.758 596.272 363.335 597.123C364.913 597.973 366.747 598.215 368.491 597.803Z" fill="#FFB8B8"/>
<path d="M425.024 478.738C435.052 478.738 443.182 470.608 443.182 460.579C443.182 450.549 435.052 442.419 425.024 442.419C414.996 442.419 406.867 450.549 406.867 460.579C406.867 470.608 414.996 478.738 425.024 478.738Z" fill="#FFB8B8"/>
<path d="M401.402 510.987L417.219 555.835L417.124 555.992C414.924 559.629 414.205 562.563 415.045 564.477C415.266 564.963 415.591 565.396 415.995 565.745C416.4 566.094 416.875 566.351 417.389 566.499L454.818 540.333L453.508 529.846L453.581 529.729C457.199 523.939 458.37 518.696 457.063 514.146C455.879 510.464 453.322 507.38 449.924 505.534L449.793 505.432L431.125 482.707L406.169 487.141L401.402 510.987Z" fill="#2688EB"/>
<path d="M377.35 589.707L366.754 576.664L392.297 534.492L404.206 497.676C404.857 495.665 405.931 493.816 407.356 492.255C408.781 490.694 410.525 489.457 412.469 488.627C414.412 487.797 416.512 487.393 418.625 487.443C420.738 487.492 422.815 487.995 424.718 488.915C426.621 489.836 428.304 491.154 429.654 492.781C431.004 494.407 431.99 496.304 432.545 498.344C433.1 500.384 433.212 502.519 432.872 504.605C432.532 506.691 431.749 508.681 430.576 510.439L408.712 543.199L377.35 589.707Z" fill="#2688EB"/>
<path d="M450.813 456.906H423.277L422.995 452.952L421.583 456.906H417.343L416.783 449.07L413.985 456.906H405.781V456.518C405.787 451.062 407.957 445.832 411.814 441.974C415.671 438.117 420.901 435.947 426.356 435.94H430.238C435.693 435.947 440.923 438.117 444.78 441.974C448.637 445.832 450.807 451.062 450.813 456.518V456.906Z" fill="#1B1B1B"/>
<path d="M423.051 481.495C422.843 481.495 422.637 481.476 422.432 481.44L402.27 477.882V444.555H424.465L423.915 445.195C416.27 454.113 422.03 468.573 426.144 476.399C426.447 476.972 426.582 477.619 426.534 478.266C426.485 478.913 426.255 479.532 425.87 480.054C425.548 480.5 425.124 480.863 424.634 481.114C424.144 481.364 423.601 481.495 423.051 481.495Z" fill="#1B1B1B"/>
<path d="M671.182 300V346.951H463.213L433.182 382.987L436.612 346.951H422V300H671.182Z" fill="#EDEDED"/>
<path d="M508.461 331.91C513.16 331.91 516.97 328.1 516.97 323.401C516.97 318.701 513.16 314.892 508.461 314.892C503.762 314.892 499.953 318.701 499.953 323.401C499.953 328.1 503.762 331.91 508.461 331.91Z" fill="white"/>
<path d="M479.746 331.91C484.445 331.91 488.255 328.1 488.255 323.401C488.255 318.701 484.445 314.892 479.746 314.892C475.048 314.892 471.238 318.701 471.238 323.401C471.238 328.1 475.048 331.91 479.746 331.91Z" fill="white"/>
<path d="M451.032 331.91C455.731 331.91 459.54 328.1 459.54 323.401C459.54 318.701 455.731 314.892 451.032 314.892C446.333 314.892 442.523 318.701 442.523 323.401C442.523 328.1 446.333 331.91 451.032 331.91Z" fill="white"/>
<path d="M969.937 597.292H1.06353C0.781462 597.292 0.510949 597.18 0.311499 596.981C0.112049 596.781 0 596.511 0 596.229C0 595.947 0.112049 595.676 0.311499 595.477C0.510949 595.277 0.781462 595.165 1.06353 595.165H969.937C970.219 595.165 970.489 595.277 970.689 595.477C970.888 595.676 971 595.947 971 596.229C971 596.511 970.888 596.781 970.689 596.981C970.489 597.18 970.219 597.292 969.937 597.292Z" fill="#EDEDED"/>
</svg>
