<svg width="1172" height="1172" viewBox="0 0 1172 1172" fill="none" xmlns="http://www.w3.org/2000/svg">
    <defs>
        <linearGradient id="paint0_linear_3140_71029" x1="256.011" y1="30.5891" x2="965.329" y2="1202.1" gradientUnits="userSpaceOnUse">
            <stop stop-color="#0176D0" />
            <stop offset="1" stop-color="#16538C" />
        </linearGradient>
        <linearGradient id="paint1_linear_3140_71029" x1="403.324" y1="723.949" x2="425.059" y2="749.803" gradientUnits="userSpaceOnUse">
            <stop stop-color="#0176D0" />
            <stop offset="1" stop-color="#16538C" />
        </linearGradient>
        <linearGradient id="paint2_linear_3140_71029" x1="469.336" y1="723.57" x2="491.07" y2="749.424" gradientUnits="userSpaceOnUse">
            <stop stop-color="#0176D0" />
            <stop offset="1" stop-color="#16538C" />
        </linearGradient>
        <linearGradient id="paint3_linear_3140_71029" x1="478.551" y1="733.654" x2="500.285" y2="759.508" gradientUnits="userSpaceOnUse">
            <stop stop-color="#0176D0" />
            <stop offset="1" stop-color="#16538C" />
        </linearGradient>
        <linearGradient id="paint4_linear_3140_71029" x1="511.086" y1="724.21" x2="539.814" y2="754.335" gradientUnits="userSpaceOnUse">
            <stop stop-color="#0176D0" />
            <stop offset="1" stop-color="#16538C" />
        </linearGradient>
        <linearGradient id="paint5_linear_3140_71029" x1="537.028" y1="737.579" x2="556.288" y2="759.133" gradientUnits="userSpaceOnUse">
            <stop stop-color="#0176D0" />
            <stop offset="1" stop-color="#16538C" />
        </linearGradient>
        <linearGradient id="paint6_linear_3140_71029" x1="380.066" y1="723.948" x2="401.799" y2="749.801" gradientUnits="userSpaceOnUse">
            <stop stop-color="#0176D0" />
            <stop offset="1" stop-color="#16538C" />
        </linearGradient>
        <linearGradient id="paint7_linear_3140_71029" x1="375.983" y1="739.675" x2="385.507" y2="742.415" gradientUnits="userSpaceOnUse">
            <stop stop-color="#0176D0" />
            <stop offset="1" stop-color="#16538C" />
        </linearGradient>
        <linearGradient id="paint8_linear_3140_71029" x1="464.217" y1="739.675" x2="473.741" y2="742.415" gradientUnits="userSpaceOnUse">
            <stop stop-color="#0176D0" />
            <stop offset="1" stop-color="#16538C" />
        </linearGradient>
        <linearGradient id="paint9_linear_3140_71029" x1="493.213" y1="723.79" x2="502.737" y2="726.531" gradientUnits="userSpaceOnUse">
            <stop stop-color="#0176D0" />
            <stop offset="1" stop-color="#16538C" />
        </linearGradient>
        <linearGradient id="paint10_linear_3140_71029" x1="431.256" y1="739.675" x2="440.78" y2="742.415" gradientUnits="userSpaceOnUse">
            <stop stop-color="#0176D0" />
            <stop offset="1" stop-color="#16538C" />
        </linearGradient>
        <linearGradient id="paint11_linear_3140_71029" x1="431.256" y1="725.406" x2="440.061" y2="729.05" gradientUnits="userSpaceOnUse">
            <stop stop-color="#0176D0" />
            <stop offset="1" stop-color="#16538C" />
        </linearGradient>
        <linearGradient id="paint12_linear_3140_71029" x1="435.551" y1="723.224" x2="436.252" y2="729.374" gradientUnits="userSpaceOnUse">
            <stop stop-color="#0176D0" />
            <stop offset="1" stop-color="#16538C" />
        </linearGradient>
        <linearGradient id="paint13_linear_3140_71029" x1="433.471" y1="723.224" x2="434.6" y2="729.242" gradientUnits="userSpaceOnUse">
            <stop stop-color="#0176D0" />
            <stop offset="1" stop-color="#16538C" />
        </linearGradient>
        <linearGradient id="paint14_linear_3140_71029" x1="435.551" y1="760.787" x2="436.252" y2="766.936" gradientUnits="userSpaceOnUse">
            <stop stop-color="#0176D0" />
            <stop offset="1" stop-color="#16538C" />
        </linearGradient>
        <linearGradient id="paint15_linear_3140_71029" x1="443.015" y1="741.912" x2="444.578" y2="747.721" gradientUnits="userSpaceOnUse">
            <stop stop-color="#0176D0" />
            <stop offset="1" stop-color="#16538C" />
        </linearGradient>
        <linearGradient id="paint16_linear_3140_71029" x1="431.256" y1="741.912" x2="434.013" y2="746.476" gradientUnits="userSpaceOnUse">
            <stop stop-color="#0176D0" />
            <stop offset="1" stop-color="#16538C" />
        </linearGradient>
        <linearGradient id="paint17_linear_3140_71029" x1="431.256" y1="727.88" x2="440.78" y2="730.62" gradientUnits="userSpaceOnUse">
            <stop stop-color="#0176D0" />
            <stop offset="1" stop-color="#16538C" />
        </linearGradient>
        <linearGradient id="paint18_linear_3140_71029" x1="417.936" y1="739.675" x2="427.46" y2="742.415" gradientUnits="userSpaceOnUse">
            <stop stop-color="#0176D0" />
            <stop offset="1" stop-color="#16538C" />
        </linearGradient>
        <linearGradient id="paint19_linear_3140_71029" x1="515.576" y1="723.247" x2="518.707" y2="728.43" gradientUnits="userSpaceOnUse">
            <stop stop-color="#0176D0" />
            <stop offset="1" stop-color="#16538C" />
        </linearGradient>
        <linearGradient id="paint20_linear_3140_71029" x1="473.068" y1="759.733" x2="476.199" y2="764.917" gradientUnits="userSpaceOnUse">
            <stop stop-color="#0176D0" />
            <stop offset="1" stop-color="#16538C" />
        </linearGradient>
        <linearGradient id="paint21_linear_3140_71029" x1="385.158" y1="760.491" x2="388.289" y2="765.675" gradientUnits="userSpaceOnUse">
            <stop stop-color="#0176D0" />
            <stop offset="1" stop-color="#16538C" />
        </linearGradient>
        <clipPath id="clip0_3140_71029">
            <rect width="971" height="628" fill="white" transform="translate(101 272)" />
        </clipPath>
        <clipPath id="clip1_3140_71029">
            <rect width="177.99" height="41.9745" fill="white" transform="translate(374.984 722.727)" />
        </clipPath>
    </defs>
    <rect width="1172" height="1172" fill="url(#paint0_linear_3140_71029)" />
    <g clip-path="url(#clip0_3140_71029)">
        <path d="M834.42 772.101C831.761 754.204 831.059 736.072 832.325 718.023L834.42 688.152C822.878 711.104 825.487 741.312 834.42 772.101Z" fill="#F4F4F4" />
        <path d="M843.416 777.099C842.136 766.419 841.799 755.648 842.408 744.909L843.416 727.129C837.863 740.791 839.118 758.772 843.416 777.099Z" fill="#F4F4F4" />
        <path
            d="M883.421 799.088V809.082C883.417 809.876 883.1 810.636 882.538 811.197C881.976 811.759 881.216 812.076 880.421 812.08H875.422C875.29 812.08 875.16 812.105 875.038 812.155C874.917 812.205 874.806 812.279 874.714 812.372C874.621 812.465 874.547 812.575 874.497 812.697C874.447 812.818 874.421 812.948 874.422 813.08V895.03C874.418 895.824 874.1 896.584 873.539 897.145C872.977 897.707 872.216 898.024 871.422 898.028H810.425C809.63 898.027 808.867 897.711 808.305 897.149C807.742 896.587 807.426 895.825 807.425 895.03V813.08C807.424 812.815 807.319 812.561 807.132 812.374C806.944 812.186 806.69 812.081 806.425 812.08H800.426C799.63 812.08 798.868 811.763 798.305 811.201C797.743 810.639 797.426 809.877 797.426 809.082V799.088C797.425 798.694 797.503 798.304 797.653 797.94C797.804 797.576 798.025 797.245 798.303 796.967C798.582 796.688 798.913 796.467 799.277 796.317C799.641 796.166 800.032 796.089 800.426 796.09H880.421C881.216 796.092 881.978 796.409 882.54 796.971C883.102 797.532 883.419 798.294 883.421 799.088Z"
            fill="#EDEDED" />
        <path d="M874.512 814.18H807.516V817.178H874.512V814.18Z" fill="#F4F4F4" />
        <path d="M874.422 858.297C852.004 867.569 829.341 867.672 806.426 858.297V837.175C828.486 829.77 852.362 829.77 874.422 837.175V858.297Z" fill="#F4F4F4" />
        <path
            d="M552.456 522.23C572.556 522.23 588.85 505.945 588.85 485.856C588.85 465.767 572.556 449.482 552.456 449.482C532.357 449.482 516.062 465.767 516.062 485.856C516.062 505.945 532.357 522.23 552.456 522.23Z"
            fill="#1B1B1B" />
        <path
            d="M562.597 450.484C568.896 450.484 575.086 452.119 580.563 455.227C586.04 458.335 590.617 462.81 593.846 468.215C597.074 473.62 598.844 479.77 598.982 486.063C599.121 492.357 597.623 498.578 594.635 504.12C597.79 500.174 600.088 495.615 601.383 490.733C602.678 485.85 602.941 480.752 602.155 475.762C601.369 470.773 599.552 466.002 596.82 461.753C594.087 457.504 590.499 453.871 586.284 451.084C582.068 448.298 577.319 446.42 572.337 445.57C567.355 444.719 562.251 444.916 557.35 446.146C552.448 447.376 547.857 449.614 543.868 452.715C539.88 455.817 536.581 459.715 534.184 464.162C537.586 459.893 541.907 456.446 546.827 454.078C551.746 451.71 557.137 450.481 562.597 450.484Z"
            fill="#1B1B1B" />
        <path
            d="M484.45 485.779C543.493 485.779 591.357 437.942 591.357 378.932C591.357 319.921 543.493 272.084 484.45 272.084C425.407 272.084 377.543 319.921 377.543 378.932C377.543 437.942 425.407 485.779 484.45 485.779Z"
            fill="#1B1B1B" />
        <path
            d="M400.546 312.636C418.967 291.931 444.717 279.188 472.36 277.098C500.003 275.008 527.377 283.733 548.706 301.433C547.831 300.603 546.967 299.765 546.058 298.958C524.865 280.145 497.064 270.513 468.768 272.182C440.472 273.85 413.997 286.681 395.164 307.854C376.331 329.027 366.682 356.808 368.339 385.09C369.996 413.371 382.823 439.837 404 458.668C404.908 459.476 405.841 460.236 406.769 461.006C386.683 441.91 374.806 415.761 373.645 388.079C372.484 360.396 382.13 333.346 400.546 312.636Z"
            fill="#1B1B1B" />
        <path
            d="M483.543 484.872C521.57 484.872 552.398 454.062 552.398 416.055C552.398 378.049 521.57 347.238 483.543 347.238C445.515 347.238 414.688 378.049 414.688 416.055C414.688 454.062 445.515 484.872 483.543 484.872Z"
            fill="#FFB8B8" />
        <path
            d="M518.717 503.555L445.032 506.865C445.032 506.865 451.182 544.95 411.319 548.572C371.455 552.194 335.216 541.328 320.72 568.493C306.224 595.658 312.472 692.384 312.472 692.384C312.472 692.384 339.652 790.177 361.395 804.664C383.139 819.152 573.397 799.231 573.397 799.231L653.021 698.749L650.324 621.256C648.916 580.79 611.949 550.408 572.135 557.897C571.353 558.044 570.566 558.202 569.773 558.372C569.773 558.372 561.026 551.838 537.027 539.845C522.351 532.511 518.717 503.555 518.717 503.555Z"
            fill="#EDEDED" />
        <path
            d="M358.773 546.761C358.773 546.761 376.286 578.519 369.038 623.794C361.791 669.068 392.201 764.822 392.201 764.822L413.945 759.39C413.945 759.39 399.449 665.219 403.073 643.487C406.697 621.755 407.697 557.627 389.577 546.761C371.457 535.895 358.773 546.761 358.773 546.761Z"
            fill="#1B1B1B" />
        <path
            d="M568.501 563.414L576.118 763.918L590.614 772.973C590.614 772.973 611.451 552.939 600.579 552.939H578.458C577.149 552.939 575.852 553.197 574.643 553.698C573.433 554.199 572.334 554.933 571.408 555.858C570.483 556.783 569.748 557.882 569.247 559.091C568.746 560.3 568.488 561.595 568.488 562.904C568.488 563.074 568.493 563.244 568.501 563.414Z"
            fill="#1B1B1B" />
        <path
            d="M402.166 760.296C407.17 760.296 411.226 756.242 411.226 751.241C411.226 746.24 407.17 742.186 402.166 742.186C397.162 742.186 393.105 746.24 393.105 751.241C393.105 756.242 397.162 760.296 402.166 760.296Z"
            fill="white" />
        <path
            d="M583.365 769.351C588.369 769.351 592.425 765.297 592.425 760.296C592.425 755.294 588.369 751.24 583.365 751.24C578.361 751.24 574.305 755.294 574.305 760.296C574.305 765.297 578.361 769.351 583.365 769.351Z"
            fill="white" />
        <path d="M424.656 330.033V398.85H440.602L460.896 377.119L458.178 398.85H528.664L524.315 377.119L533.012 398.85H544.247V330.033H424.656Z" fill="#1B1B1B" />
        <path
            d="M413.784 411.528C416.786 411.528 419.22 407.069 419.22 401.568C419.22 396.067 416.786 391.607 413.784 391.607C410.781 391.607 408.348 396.067 408.348 401.568C408.348 407.069 410.781 411.528 413.784 411.528Z"
            fill="#FFB8B8" />
        <path
            d="M553.307 411.528C556.309 411.528 558.743 407.069 558.743 401.568C558.743 396.067 556.309 391.607 553.307 391.607C550.305 391.607 547.871 396.067 547.871 401.568C547.871 407.069 550.305 411.528 553.307 411.528Z"
            fill="#FFB8B8" />
        <path
            d="M704.119 880.077V886.144C704.123 887.809 703.814 889.459 703.209 891.011C702.941 891.702 702.616 892.371 702.239 893.01C701.048 895.009 699.356 896.664 697.332 897.814C695.307 898.963 693.018 899.567 690.69 899.566H244.164C241.835 899.567 239.546 898.963 237.522 897.813C235.497 896.664 233.806 895.009 232.614 893.01C232.237 892.371 231.913 891.702 231.644 891.011C231.04 889.459 230.731 887.809 230.734 886.144V880.077C230.734 878.315 231.081 876.57 231.755 874.942C232.429 873.314 233.418 871.834 234.664 870.588C235.911 869.342 237.39 868.353 239.019 867.678C240.648 867.004 242.393 866.656 244.157 866.656H269.902V863.827C269.902 863.754 269.917 863.681 269.945 863.613C269.972 863.545 270.014 863.484 270.065 863.432C270.117 863.38 270.179 863.339 270.247 863.31C270.314 863.282 270.387 863.268 270.46 863.268H283.892C284.04 863.267 284.182 863.326 284.287 863.431C284.392 863.535 284.451 863.677 284.452 863.825V866.656H292.841V863.827C292.841 863.754 292.855 863.681 292.883 863.613C292.911 863.546 292.952 863.484 293.004 863.432C293.056 863.38 293.118 863.339 293.185 863.31C293.253 863.282 293.326 863.268 293.399 863.268H306.83C306.979 863.267 307.121 863.326 307.226 863.431C307.331 863.535 307.39 863.677 307.39 863.825V866.656H315.79V863.827C315.79 863.754 315.804 863.681 315.832 863.613C315.86 863.546 315.901 863.484 315.953 863.432C316.005 863.38 316.066 863.339 316.134 863.31C316.202 863.282 316.275 863.268 316.348 863.268H329.779C329.927 863.267 330.07 863.326 330.175 863.431C330.28 863.535 330.339 863.677 330.339 863.825V866.656H338.729V863.827C338.728 863.754 338.743 863.681 338.771 863.613C338.799 863.546 338.84 863.484 338.892 863.432C338.944 863.38 339.005 863.339 339.073 863.311C339.141 863.282 339.213 863.268 339.287 863.268H352.718C352.866 863.267 353.008 863.326 353.113 863.431C353.218 863.535 353.278 863.677 353.278 863.825V866.656H361.667V863.827C361.667 863.754 361.682 863.681 361.71 863.613C361.738 863.546 361.779 863.484 361.83 863.432C361.882 863.38 361.944 863.339 362.012 863.311C362.079 863.282 362.152 863.268 362.226 863.268H375.657C375.805 863.267 375.947 863.326 376.052 863.431C376.157 863.535 376.216 863.677 376.217 863.825V866.656H384.616V863.827C384.616 863.754 384.63 863.681 384.658 863.613C384.686 863.546 384.727 863.484 384.779 863.432C384.831 863.38 384.893 863.339 384.96 863.311C385.028 863.282 385.101 863.268 385.174 863.268H398.605C398.754 863.267 398.896 863.326 399.001 863.431C399.106 863.535 399.165 863.677 399.165 863.826V866.656H407.555V863.827C407.555 863.754 407.569 863.681 407.597 863.613C407.625 863.546 407.666 863.484 407.718 863.432C407.77 863.38 407.831 863.339 407.899 863.311C407.967 863.282 408.04 863.268 408.113 863.268H513.309C513.383 863.268 513.455 863.282 513.523 863.31C513.591 863.338 513.653 863.379 513.705 863.431C513.757 863.482 513.798 863.544 513.826 863.612C513.855 863.68 513.869 863.752 513.869 863.826V866.656H522.269V863.827C522.269 863.754 522.283 863.681 522.311 863.613C522.339 863.546 522.38 863.484 522.432 863.432C522.484 863.38 522.545 863.339 522.613 863.311C522.681 863.282 522.754 863.268 522.827 863.268H536.258C536.406 863.269 536.548 863.329 536.652 863.433C536.757 863.538 536.817 863.679 536.818 863.827V866.656H545.208V863.827C545.207 863.754 545.222 863.681 545.25 863.613C545.278 863.546 545.319 863.484 545.371 863.432C545.423 863.38 545.484 863.339 545.552 863.311C545.62 863.282 545.692 863.268 545.766 863.268H559.197C559.27 863.268 559.343 863.282 559.411 863.31C559.479 863.338 559.54 863.379 559.592 863.431C559.644 863.483 559.686 863.544 559.714 863.612C559.742 863.68 559.757 863.752 559.757 863.826V866.656H568.146V863.827C568.146 863.754 568.161 863.681 568.189 863.613C568.217 863.546 568.258 863.484 568.309 863.432C568.361 863.38 568.423 863.339 568.491 863.311C568.558 863.282 568.631 863.268 568.704 863.268H582.136C582.209 863.268 582.282 863.282 582.35 863.31C582.417 863.338 582.479 863.379 582.531 863.431C582.583 863.483 582.624 863.544 582.653 863.612C582.681 863.68 582.695 863.752 582.696 863.826V866.656H591.095V863.827C591.095 863.754 591.109 863.681 591.137 863.613C591.165 863.546 591.206 863.484 591.258 863.432C591.31 863.38 591.372 863.339 591.439 863.311C591.507 863.282 591.58 863.268 591.653 863.268H605.084C605.231 863.27 605.372 863.329 605.475 863.434C605.578 863.539 605.635 863.68 605.634 863.827V866.656H614.034V863.827C614.034 863.754 614.048 863.681 614.076 863.613C614.104 863.546 614.145 863.484 614.197 863.432C614.249 863.38 614.31 863.339 614.378 863.311C614.446 863.282 614.519 863.268 614.592 863.268H628.023C628.097 863.268 628.169 863.282 628.237 863.31C628.305 863.338 628.367 863.379 628.419 863.431C628.471 863.483 628.512 863.544 628.54 863.612C628.568 863.68 628.583 863.752 628.583 863.826V866.656H636.973V863.827C636.973 863.754 636.987 863.681 637.015 863.614C637.043 863.546 637.084 863.484 637.136 863.432C637.188 863.38 637.249 863.339 637.317 863.311C637.385 863.282 637.457 863.268 637.531 863.268H650.962C651.035 863.268 651.108 863.282 651.176 863.31C651.244 863.338 651.305 863.379 651.357 863.431C651.409 863.483 651.451 863.544 651.479 863.612C651.507 863.68 651.522 863.752 651.522 863.826V866.656H690.69C694.25 866.655 697.666 868.068 700.184 870.583C702.703 873.099 704.118 876.512 704.119 880.07L704.119 880.077Z"
            fill="white" />
        <path d="M1072 898.002H101V900.001H1072V898.002Z" fill="white" />
        <path
            d="M668.163 624.598H259.141C257.662 624.598 256.198 624.889 254.833 625.454C253.467 626.02 252.226 626.848 251.18 627.893C250.135 628.938 249.306 630.178 248.74 631.544C248.174 632.909 247.883 634.372 247.883 635.849V863.623C247.883 866.607 249.069 869.469 251.18 871.579C253.291 873.689 256.155 874.874 259.141 874.874H668.163C671.148 874.874 674.012 873.689 676.123 871.579C678.234 869.469 679.421 866.607 679.421 863.623V635.849C679.421 632.865 678.234 630.003 676.123 627.893C674.012 625.783 671.148 624.598 668.163 624.598Z"
            fill="white" />
        <path d="M618.734 539.056L744.934 411.93H804.514V409.932H744.099L743.806 410.228L617.312 537.651L618.734 539.056Z" fill="white" />
        <path d="M1023.5 359.738H877.285V372.76H1023.5V359.738Z" fill="white" />
        <path d="M859.465 380.995H828.512V350.059H859.465V380.995ZM830.512 378.997H857.465V352.057H830.512L830.512 378.997Z" fill="white" />
        <path d="M1023.5 403.145H877.285V416.166H1023.5V403.145Z" fill="white" />
        <path d="M859.465 424.401H828.512V393.465H859.465V424.401ZM830.512 422.402H857.465V395.464H830.512L830.512 422.402Z" fill="white" />
        <path d="M1023.5 446.553H877.285V459.575H1023.5V446.553Z" fill="white" />
        <path d="M859.465 467.807H828.512V436.871H859.465V467.807ZM830.512 465.809H857.465V438.87H830.512L830.512 465.809Z" fill="white" />
        <g clip-path="url(#clip1_3140_71029)">
            <path d="M398.242 755.407L421.508 729.934V723.105L398.242 748.579V755.407Z" fill="url(#paint1_linear_3140_71029)" />
            <path d="M487.52 755.029L464.254 729.555V722.727L487.52 748.2V755.029Z" fill="url(#paint2_linear_3140_71029)" />
            <path d="M496.734 765.113L473.469 739.639V732.811L496.734 758.284V765.113Z" fill="url(#paint3_linear_3140_71029)" />
            <path d="M531.981 728.894L531.6 729.582L528.661 734.676V734.701L513.749 760.659L511.121 765.219H505.246L507.851 760.659L525.7 729.582L528.661 724.462L529.429 723.111L531.981 728.894Z"
                fill="url(#paint4_linear_3140_71029)" />
            <path d="M552.056 765.215H546.182L543.577 760.656L532.828 741.957L535.764 736.838L549.451 760.656L552.056 765.215Z" fill="url(#paint5_linear_3140_71029)" />
            <path d="M398.248 748.579V755.405L379.555 734.925L374.984 729.931V723.105L378.941 727.436L379.555 728.099L398.248 748.579Z" fill="url(#paint6_linear_3140_71029)" />
            <path d="M379.555 743.984V765.228H374.984V738.99L379.555 743.984Z" fill="url(#paint7_linear_3140_71029)" />
            <path d="M467.79 743.984V765.228H463.219V738.99L467.79 743.984Z" fill="url(#paint8_linear_3140_71029)" />
            <path d="M492.215 744.35V723.105H496.786V749.343L492.215 744.35Z" fill="url(#paint9_linear_3140_71029)" />
            <path d="M434.829 743.984V765.228H430.258V738.99L432.989 741.972L434.088 743.167L434.829 743.984Z" fill="url(#paint10_linear_3140_71029)" />
            <path d="M434.829 724.93H430.258V743.17H434.829V724.93Z" fill="url(#paint11_linear_3140_71029)" />
            <path d="M454.491 723.105V727.665H430.258V725.78L430.462 725.601L433.194 723.105H454.491Z" fill="url(#paint12_linear_3140_71029)" />
            <path d="M444.967 723.105H430.258V727.666H444.967V723.105Z" fill="url(#paint13_linear_3140_71029)" />
            <path d="M454.491 760.668V765.228H430.258V763.342L433.194 760.668H454.491Z" fill="url(#paint14_linear_3140_71029)" />
            <path d="M451.035 741.793H440.773V746.353H451.035V741.793Z" fill="url(#paint15_linear_3140_71029)" />
            <path d="M434.829 741.793V746.353H430.258V744.468L431.688 743.167L432.989 741.972L433.194 741.793H434.829Z" fill="url(#paint16_linear_3140_71029)" />
            <path d="M434.829 732.189V753.433H430.258V727.195L430.462 727.425L432.352 729.489L434.829 732.189Z" fill="url(#paint17_linear_3140_71029)" />
            <path d="M416.938 743.984V765.228H421.508V738.99L416.938 743.984Z" fill="url(#paint18_linear_3140_71029)" />
            <path
                d="M517.037 728.291C518.471 728.291 519.633 727.131 519.633 725.701C519.633 724.271 518.471 723.111 517.037 723.111C515.604 723.111 514.441 724.271 514.441 725.701C514.441 727.131 515.604 728.291 517.037 728.291Z"
                fill="url(#paint19_linear_3140_71029)" />
            <path
                d="M474.53 764.777C475.963 764.777 477.125 763.618 477.125 762.187C477.125 760.757 475.963 759.598 474.53 759.598C473.096 759.598 471.934 760.757 471.934 762.187C471.934 763.618 473.096 764.777 474.53 764.777Z"
                fill="url(#paint20_linear_3140_71029)" />
            <path
                d="M386.619 765.535C388.053 765.535 389.215 764.375 389.215 762.945C389.215 761.515 388.053 760.355 386.619 760.355C385.186 760.355 384.023 761.515 384.023 762.945C384.023 764.375 385.186 765.535 386.619 765.535Z"
                fill="url(#paint21_linear_3140_71029)" />
        </g>
    </g>

</svg>
