<svg width="971" height="628" viewBox="0 0 971 628" fill="none" xmlns="http://www.w3.org/2000/svg">
<path d="M600.988 514.277H30.5817C24.3006 514.27 18.2789 511.769 13.8375 507.325C9.39606 502.88 6.89775 496.853 6.89062 490.567V81.0218C6.89775 74.7359 9.39606 68.7094 13.8375 64.2646C18.2789 59.8198 24.3006 57.3196 30.5817 57.3125H600.988C607.269 57.3196 613.291 59.8198 617.732 64.2646C622.174 68.7094 624.672 74.7359 624.679 81.0218V490.567C624.672 496.853 622.174 502.88 617.732 507.325C613.291 511.769 607.269 514.27 600.988 514.277ZM30.5817 69.791C27.6065 69.7945 24.7541 70.9789 22.6503 73.0843C20.5465 75.1897 19.3631 78.0443 19.3596 81.0218V490.567C19.363 493.545 20.5464 496.4 22.6502 498.505C24.754 500.611 27.6065 501.795 30.5817 501.798H600.988C603.963 501.795 606.816 500.611 608.92 498.505C611.023 496.4 612.207 493.545 612.21 490.567V81.0218C612.207 78.0443 611.023 75.1897 608.919 73.0843C606.816 70.9789 603.963 69.7945 600.988 69.791H30.5817Z" fill="#EDEDED"/>
<path d="M509 612C525.569 612 539 598.569 539 582C539 565.431 525.569 552 509 552C492.431 552 479 565.431 479 582C479 598.569 492.431 612 509 612Z" fill="#EDEDED"/>
<path d="M509 605C521.703 605 532 594.703 532 582C532 569.297 521.703 559 509 559C496.297 559 486 569.297 486 582C486 594.703 496.297 605 509 605Z" fill="white"/>
<path d="M520.958 595C520.821 595 520.685 594.972 520.559 594.918C520.433 594.863 520.318 594.783 520.221 594.682L497.286 570.83C497.099 570.625 496.997 570.353 497 570.07C497.004 569.787 497.113 569.517 497.305 569.318C497.498 569.118 497.757 569.004 498.029 569C498.301 568.996 498.563 569.103 498.76 569.298L521.695 593.149C521.841 593.301 521.94 593.494 521.98 593.704C522.02 593.915 522 594.133 521.921 594.331C521.842 594.529 521.708 594.698 521.537 594.817C521.366 594.936 521.164 595 520.958 595Z" fill="#2688EB"/>
<path d="M522.664 584.098C522.884 583.773 523.001 583.395 523 583.01C522.999 582.624 522.88 582.247 522.657 581.923C520.946 579.413 518.69 577.27 516.037 575.633C513.349 573.954 510.201 573.04 506.972 573C505.343 573.002 503.726 573.251 502.183 573.738C502.139 573.751 502.101 573.775 502.07 573.806C502.039 573.838 502.018 573.876 502.007 573.918C501.997 573.96 501.998 574.003 502.01 574.044C502.023 574.085 502.046 574.122 502.079 574.153L505.229 577.109C505.262 577.139 505.303 577.161 505.348 577.173C505.393 577.184 505.44 577.185 505.485 577.174C507.134 576.797 508.876 577.051 510.326 577.879C511.776 578.706 512.817 580.041 513.219 581.589L513.226 581.618C513.771 584.011 515.014 586.216 516.816 587.984L517.82 588.927C517.867 588.971 517.931 588.997 517.997 589C518.064 589.002 518.13 588.982 518.181 588.941C519.925 587.546 521.436 585.914 522.664 584.098Z" fill="#2688EB"/>
<path d="M511.233 586.725C510.433 586.725 509.641 586.559 508.901 586.237C508.162 585.914 507.49 585.442 506.924 584.847C506.359 584.251 505.91 583.544 505.603 582.766C505.297 581.988 505.14 581.154 505.14 580.312C505.14 580.306 505.14 580.301 505.14 580.295C505.153 579.735 505.06 579.177 504.867 578.655C504.675 578.132 504.385 577.655 504.016 577.251L501.002 574.078C500.957 574.031 500.896 574.003 500.832 574C500.768 573.998 500.706 574.021 500.657 574.064C499.028 575.551 497.585 577.25 496.364 579.121C496.134 579.468 496.008 579.879 496 580.302C495.993 580.724 496.105 581.14 496.323 581.495C497.925 584.177 500.052 586.469 502.561 588.219C505.124 590.018 508.132 590.985 511.213 591C512.778 590.996 514.334 590.735 515.823 590.228C515.865 590.214 515.902 590.19 515.932 590.156C515.962 590.122 515.983 590.081 515.993 590.037C516.003 589.992 516.002 589.946 515.991 589.902C515.979 589.857 515.956 589.817 515.926 589.785L512.913 586.614C512.881 586.582 512.842 586.558 512.8 586.546C512.757 586.534 512.713 586.533 512.67 586.544C512.2 586.664 511.717 586.725 511.233 586.725Z" fill="#2688EB"/>
<path d="M395 612C411.569 612 425 598.569 425 582C425 565.431 411.569 552 395 552C378.431 552 365 565.431 365 582C365 598.569 378.431 612 395 612Z" fill="#EDEDED"/>
<path d="M395 605C407.703 605 418 594.703 418 582C418 569.297 407.703 559 395 559C382.297 559 372 569.297 372 582C372 594.703 382.297 605 395 605Z" fill="white"/>
<path d="M404.243 597C402.979 597 401.203 596.527 398.544 594.99C395.239 593.164 392.221 590.829 389.593 588.066C386.873 585.387 384.602 582.259 382.872 578.811C380.486 574.323 380.893 571.971 381.347 570.966C381.872 569.866 382.697 568.951 383.721 568.332C384.307 567.934 384.928 567.594 385.576 567.314C385.64 567.285 385.701 567.258 385.754 567.233C385.968 567.107 386.206 567.03 386.451 567.007C386.696 566.984 386.943 567.015 387.176 567.099C387.693 567.356 388.153 567.721 388.527 568.171C389.874 569.734 391.01 571.478 391.905 573.357C392.272 574.006 392.499 574.731 392.567 575.481C392.513 576.223 392.223 576.925 391.742 577.478C391.657 577.597 391.572 577.712 391.491 577.823C390.998 578.493 390.89 578.687 390.961 579.032C391.106 579.727 393.294 580.33 395.064 582.157C396.834 583.984 397.664 586.491 398.338 586.64C398.687 586.717 398.878 586.6 399.546 586.073C399.642 585.997 399.74 585.919 399.843 585.84C400.379 585.318 401.069 584.998 401.803 584.933H401.807C402.542 585.011 403.249 585.268 403.87 585.682C405.665 586.624 407.343 587.788 408.866 589.15C409.301 589.536 409.655 590.01 409.905 590.544C409.985 590.785 410.015 591.041 409.993 591.295C409.97 591.549 409.896 591.795 409.776 592.018C409.752 592.073 409.725 592.134 409.697 592.202C409.425 592.87 409.093 593.511 408.707 594.116C408.107 595.174 407.22 596.025 406.157 596.566C405.559 596.859 404.904 597.007 404.243 597Z" fill="#2688EB"/>
<path d="M624 612C640.569 612 654 598.569 654 582C654 565.431 640.569 552 624 552C607.431 552 594 565.431 594 582C594 598.569 607.431 612 624 612Z" fill="#EDEDED"/>
<path d="M624 605C636.703 605 647 594.703 647 582C647 569.297 636.703 559 624 559C611.297 559 601 569.297 601 582C601 594.703 611.297 605 624 605Z" fill="white"/>
<path d="M632 578C631.735 578 631.48 578.105 631.293 578.293C631.105 578.48 631 578.735 631 579V581C631 584.866 627.866 586 624 586C620.134 586 617 584.866 617 581V579C617 578.735 616.895 578.48 616.707 578.293C616.52 578.105 616.265 578 616 578C615.735 578 615.48 578.105 615.293 578.293C615.105 578.48 615 578.735 615 579V581C615.003 583.213 615.82 585.347 617.295 586.995C618.771 588.644 620.801 589.692 623 589.94V594C623 594.265 623.105 594.52 623.293 594.707C623.48 594.895 623.735 595 624 595C624.265 595 624.52 594.895 624.707 594.707C624.895 594.52 625 594.265 625 594V589.94C627.199 589.692 629.229 588.644 630.705 586.995C632.18 585.347 632.997 583.213 633 581V579C633 578.735 632.895 578.48 632.707 578.293C632.52 578.105 632.265 578 632 578Z" fill="#2688EB"/>
<path d="M624 582.998C622.773 583.025 621.56 582.72 620.466 582.113C620.072 581.941 619.728 581.656 619.47 581.288C619.212 580.92 619.05 580.482 619 580.021V575.941C618.989 574.323 621.21 573.006 623.961 573C623.974 573 623.987 573 624 573C626.732 572.983 628.97 574.271 629 575.878C629 575.899 629 575.92 629 575.941V580.021C629.014 581.654 626.777 582.986 624 582.998Z" fill="#2688EB"/>
<path d="M600.986 508.661H30.58C25.7866 508.656 21.1911 506.748 17.8016 503.356C14.4121 499.963 12.5055 495.364 12.5 490.567V81.0216C12.5055 76.2245 14.4121 71.6255 17.8016 68.2334C21.1911 64.8413 25.7866 62.9332 30.58 62.9277H600.986C605.78 62.9332 610.375 64.8413 613.765 68.2334C617.154 71.6255 619.061 76.2245 619.066 81.0216V490.567C619.061 495.364 617.154 499.963 613.765 503.356C610.375 506.748 605.78 508.656 600.986 508.661Z" fill="white"/>
<path d="M312.989 316.737C346.334 316.737 373.365 289.685 373.365 256.315C373.365 222.945 346.334 195.893 312.989 195.893C279.645 195.893 252.613 222.945 252.613 256.315C252.613 289.685 279.645 316.737 312.989 316.737Z" fill="#FFB8B8"/>
<path d="M245.638 198.188C246.094 191.249 250.68 184.149 265.247 180.438C265.247 180.438 290.248 148.445 324.221 165.223C324.221 165.223 340.691 162.387 352.903 179.488C352.903 179.488 365.012 172.341 370.12 185.009C370.12 185.009 384.322 210.848 379.093 237.204C373.865 263.56 371.189 266.849 371.189 266.849C371.189 266.849 377.853 212.332 339.47 216.112C301.086 219.893 270.184 206.384 261.491 235.961C254.274 260.52 255.183 273.275 255.183 273.275C255.183 273.275 231.046 248.775 239.253 229.483C243.45 219.616 244.934 208.888 245.638 198.188Z" fill="#1B1B1B"/>
<path d="M148.805 508.038H482.762C480.53 482.544 479.071 463.577 479.071 457.163C479.071 428.874 455.941 398.002 455.941 398.002L447.661 393.422L378.521 371.834L360.628 348.574C358.754 346.132 356.34 344.157 353.575 342.806C350.81 341.455 347.769 340.764 344.692 340.788L288.17 341.212C283.197 341.25 278.416 343.146 274.766 346.528L239.766 379.022L188.431 403.555L188.344 403.467L187.808 403.867L180.189 409.357L175.289 412.901C175.289 412.901 162.433 428.337 152.159 474.632C150.613 481.596 149.528 493.25 148.805 508.038Z" fill="#2688EB"/>
<path d="M927.655 25H1.34467C0.985362 24.9971 0.643424 24.9432 0.392087 24.8497C0.14075 24.7563 0 24.6307 0 24.5C0 24.3693 0.14075 24.2437 0.392087 24.1503C0.643424 24.0568 0.985362 24.0029 1.34467 24H927.655C928.015 24.0029 928.357 24.0568 928.608 24.1503C928.859 24.2437 929 24.3693 929 24.5C929 24.6307 928.859 24.7563 928.608 24.8497C928.357 24.9432 928.015 24.9971 927.655 25Z" fill="#1B1B1B"/>
<path d="M16.5 15C20.6421 15 24 11.6421 24 7.5C24 3.35786 20.6421 0 16.5 0C12.3579 0 9 3.35786 9 7.5C9 11.6421 12.3579 15 16.5 15Z" fill="#1B1B1B"/>
<path d="M42.5 15C46.6421 15 50 11.6421 50 7.5C50 3.35786 46.6421 0 42.5 0C38.3579 0 35 3.35786 35 7.5C35 11.6421 38.3579 15 42.5 15Z" fill="#1B1B1B"/>
<path d="M68.5 15C72.6421 15 76 11.6421 76 7.5C76 3.35786 72.6421 0 68.5 0C64.3579 0 61 3.35786 61 7.5C61 11.6421 64.3579 15 68.5 15Z" fill="#1B1B1B"/>
<path d="M927.645 5H909.355C908.993 4.99139 908.648 4.82956 908.395 4.5492C908.142 4.26883 908 3.89221 908 3.49999C908 3.10778 908.142 2.73116 908.395 2.45079C908.648 2.17043 908.993 2.00861 909.355 2H927.645C928.007 2.00861 928.352 2.17043 928.605 2.45079C928.858 2.73116 929 3.10778 929 3.49999C929 3.89221 928.858 4.26883 928.605 4.5492C928.352 4.82956 928.007 4.99139 927.645 5Z" fill="#1B1B1B"/>
<path d="M927.645 10H909.355C908.993 9.99139 908.648 9.82957 908.395 9.54921C908.142 9.26884 908 8.89222 908 8.5C908 8.10778 908.142 7.73116 908.395 7.45079C908.648 7.17043 908.993 7.00861 909.355 7H927.645C928.007 7.00861 928.352 7.17043 928.605 7.45079C928.858 7.73116 929 8.10778 929 8.5C929 8.89222 928.858 9.26884 928.605 9.54921C928.352 9.82957 928.007 9.99139 927.645 10Z" fill="#1B1B1B"/>
<path d="M927.645 15H909.355C908.993 14.9914 908.648 14.8296 908.395 14.5492C908.142 14.2688 908 13.8922 908 13.5C908 13.1078 908.142 12.7312 908.395 12.4508C908.648 12.1704 908.993 12.0086 909.355 12H927.645C928.007 12.0086 928.352 12.1704 928.605 12.4508C928.858 12.7312 929 13.1078 929 13.5C929 13.8922 928.858 14.2688 928.605 14.5492C928.352 14.8296 928.007 14.9914 927.645 15Z" fill="#1B1B1B"/>
<path d="M911.152 514.065H720.804C714.523 514.058 708.501 511.558 704.06 507.113C699.619 502.668 697.12 496.642 697.113 490.356V359.885C697.12 353.599 699.619 347.573 704.06 343.128C708.501 338.683 714.523 336.183 720.804 336.176H911.152C917.433 336.183 923.455 338.683 927.896 343.128C932.337 347.573 934.836 353.599 934.843 359.885V490.356C934.836 496.642 932.337 502.668 927.896 507.113C923.455 511.558 917.433 514.058 911.152 514.065ZM720.804 348.654C717.829 348.658 714.977 349.842 712.873 351.948C710.769 354.053 709.586 356.908 709.582 359.885V490.356C709.586 493.333 710.769 496.188 712.873 498.293C714.977 500.399 717.829 501.583 720.804 501.586H911.152C914.127 501.583 916.979 500.399 919.083 498.293C921.187 496.188 922.37 493.333 922.374 490.356V359.885C922.37 356.908 921.187 354.053 919.083 351.948C916.979 349.842 914.127 348.658 911.152 348.654H720.804Z" fill="#EDEDED"/>
<path d="M911.146 508.452H720.799C716.005 508.447 711.41 506.538 708.02 503.146C704.631 499.754 702.724 495.155 702.719 490.358V359.887C702.724 355.09 704.631 350.491 708.02 347.099C711.41 343.707 716.005 341.798 720.799 341.793H911.146C915.94 341.798 920.535 343.707 923.925 347.099C927.314 350.491 929.221 355.09 929.226 359.887V490.358C929.221 495.155 927.314 499.754 923.925 503.146C920.535 506.538 915.94 508.447 911.146 508.452Z" fill="white"/>
<path d="M833.828 384.265C834.929 377.394 831.815 372.336 823.56 369.481C815.348 362.35 803.211 360.639 795.926 372.06C792.985 371.885 790.09 372.854 787.845 374.763C785.6 376.672 784.178 379.375 783.876 382.308C777.185 390.091 784.615 418.659 786.817 429.544L798.562 429.428L822.01 429.196L833.828 429.08L838.332 403.556C841.07 396.135 839.954 389.627 833.828 384.265Z" fill="#EDEDED"/>
<path d="M876.474 491.72C879.542 489.759 882.791 488.099 886.177 486.763L852.78 447.078L830.708 441.425C830.527 441.323 830.348 441.219 830.17 441.112L792.936 442.541L792.777 442.382L769.3 453.876L735.902 492.517C739.198 493.809 742.365 495.411 745.36 497.3L741.913 510.417H765.81L772.168 501.17H772.486C772.486 501.01 772.501 500.851 772.501 500.691L776.962 494.198C777.063 499.445 776.918 504.851 776.556 510.417H850.883C850.767 505.793 850.738 501.199 850.738 496.633L859.051 508.707C859.674 507.793 860.34 506.938 861.006 506.069L862.643 510.417H881.673L877.111 493.053C876.982 492.573 876.766 492.121 876.474 491.72Z" fill="#EDEDED"/>
<path d="M911.148 233.889H720.8C714.519 233.882 708.498 231.382 704.056 226.937C699.615 222.492 697.117 216.466 697.109 210.18V79.7092C697.117 73.4233 699.615 67.3969 704.056 62.9521C708.498 58.5073 714.519 56.0071 720.8 56H911.148C917.429 56.0071 923.451 58.5073 927.892 62.9521C932.334 67.3969 934.832 73.4233 934.839 79.7092V210.18C934.832 216.466 932.334 222.492 927.892 226.937C923.451 231.382 917.429 233.882 911.148 233.889ZM720.8 68.4785C717.825 68.482 714.973 69.6663 712.869 71.7717C710.765 73.8772 709.582 76.7317 709.578 79.7092V210.18C709.582 213.157 710.765 216.012 712.869 218.117C714.973 220.223 717.825 221.407 720.8 221.411H911.148C914.123 221.407 916.976 220.223 919.079 218.117C921.183 216.012 922.367 213.157 922.37 210.18V79.7092C922.367 76.7317 921.183 73.8772 919.079 71.7717C916.976 69.6663 914.123 68.482 911.148 68.4785H720.8Z" fill="#EDEDED"/>
<path d="M911.15 228.274H720.803C716.009 228.268 711.414 226.36 708.024 222.968C704.635 219.576 702.728 214.977 702.723 210.18V79.7091C702.728 74.912 704.635 70.313 708.024 66.9209C711.414 63.5288 716.009 61.6207 720.803 61.6152H911.15C915.944 61.6207 920.539 63.5288 923.929 66.9209C927.318 70.313 929.225 74.912 929.23 79.7091V210.18C929.225 214.977 927.318 219.576 923.929 222.968C920.539 226.36 915.944 228.268 911.15 228.274Z" fill="white"/>
<path d="M791.934 125.945C792.505 131.745 795.077 137.164 799.207 141.272C803.338 145.38 808.77 147.918 814.569 148.452C820.368 148.985 826.172 147.48 830.982 144.195C835.792 140.91 839.308 136.051 840.925 130.452C841.737 129.606 850.726 119.992 847.472 112.344C845.865 108.194 844.969 103.803 844.822 99.3547C844.633 96.4749 842.73 93.528 836.684 91.9881C836.684 91.9881 826.307 78.7094 812.207 85.6729C812.207 85.6729 805.371 84.496 800.303 91.5937C800.303 91.5937 795.277 88.6275 793.157 93.885C793.157 93.885 787.263 104.609 789.433 115.548C790.069 119.058 790.905 122.529 791.934 125.945Z" fill="#EDEDED"/>
<path d="M883.619 216.683C879.355 197.469 874.02 191.062 874.02 191.062L871.986 189.591L868.824 187.312L868.601 187.147L868.565 187.183L847.259 177.001L832.732 163.515C831.218 162.111 829.234 161.324 827.169 161.308L803.71 161.132C802.433 161.122 801.171 161.409 800.024 161.97C798.876 162.531 797.874 163.35 797.096 164.364L789.67 174.018L760.974 182.977L757.538 184.878C757.538 184.878 747.938 197.691 747.938 209.432C747.938 212.094 747.333 219.966 746.406 230.547H885.011C884.889 225.898 884.423 221.264 883.619 216.683Z" fill="#EDEDED"/>
<path d="M792.334 410.084H543.474C535.262 410.075 527.389 406.806 521.582 400.995C515.776 395.184 512.509 387.305 512.5 379.087V208.509C512.509 200.291 515.776 192.412 521.582 186.601C527.389 180.79 535.262 177.521 543.474 177.512H792.334C800.546 177.521 808.419 180.79 814.225 186.601C820.032 192.412 823.298 200.291 823.307 208.509V379.087C823.298 387.305 820.032 395.184 814.225 400.995C808.419 406.806 800.546 410.075 792.334 410.084ZM543.474 193.826C539.584 193.831 535.855 195.379 533.104 198.132C530.354 200.884 528.806 204.616 528.802 208.509V379.087C528.806 382.979 530.354 386.711 533.104 389.464C535.855 392.217 539.584 393.765 543.474 393.77H792.334C796.224 393.765 799.953 392.217 802.703 389.464C805.454 386.711 807.001 382.979 807.006 379.087V208.509C807.001 204.616 805.454 200.884 802.703 198.132C799.953 195.379 796.224 193.831 792.334 193.826H543.474Z" fill="#EDEDED"/>
<path d="M792.329 184.852H543.473C537.204 184.86 531.195 187.356 526.763 191.791C522.33 196.227 519.837 202.241 519.828 208.514V379.092C519.837 385.364 522.331 391.376 526.764 395.809C531.197 400.243 537.206 402.736 543.473 402.742H792.329C798.596 402.736 804.605 400.243 809.037 395.809C813.47 391.376 815.964 385.364 815.973 379.092V208.514C815.965 202.241 813.471 196.227 809.039 191.791C804.606 187.356 798.597 184.86 792.329 184.852Z" fill="white"/>
<path d="M711.684 256.162C722.417 256.162 731.118 247.455 731.118 236.713C731.118 225.972 722.417 217.265 711.684 217.265C700.951 217.265 692.25 225.972 692.25 236.713C692.25 247.455 700.951 256.162 711.684 256.162Z" fill="#1B1B1B"/>
<path d="M671.76 322.251C698.95 322.251 720.992 300.192 720.992 272.981C720.992 245.77 698.95 223.711 671.76 223.711C644.569 223.711 622.527 245.77 622.527 272.981C622.527 300.192 644.569 322.251 671.76 322.251Z" fill="#1B1B1B"/>
<path d="M663.206 325.247C685.301 325.247 703.213 307.321 703.213 285.209C703.213 263.097 685.301 245.172 663.206 245.172C641.111 245.172 623.199 263.097 623.199 285.209C623.199 307.321 641.111 325.247 663.206 325.247Z" fill="#A0616A"/>
<path d="M648.125 235.349C655.896 232.698 664.237 232.186 672.274 233.866C680.311 235.546 687.749 239.355 693.812 244.897C699.874 250.438 704.337 257.508 706.735 265.367C709.132 273.225 709.376 281.584 707.441 289.569C686.43 290.136 664.675 289.304 645.152 276.946L642.871 263.556L637.184 275.181C630.134 276.384 623.157 277.177 617.77 270.828C619.284 262.773 622.884 255.257 628.211 249.03C633.538 242.804 640.405 238.086 648.125 235.349Z" fill="#1B1B1B"/>
<path d="M740.807 189.113C755.263 186.017 771.093 192.508 779.916 204.38C788.738 216.252 790.514 232.769 785.227 246.586C779.834 260.681 768.188 271.259 757.3 281.702C746.411 292.145 735.449 303.805 732.181 318.539C729.827 329.152 731.774 340.265 737.596 349.443C743.418 358.62 752.64 365.113 763.238 367.496C749.601 370.085 735.396 372.658 722.004 369.007C708.612 365.356 696.364 353.489 697.132 339.619C697.686 329.625 704.502 321.279 710.432 313.219C720.091 300.085 728.132 285.833 734.38 270.771C737.36 263.582 739.967 255.907 739.131 248.169C738.376 242.405 735.79 237.036 731.754 232.854C727.719 228.672 722.448 225.899 716.718 224.943L713.142 219.92C714.335 205.173 726.351 192.21 740.807 189.113Z" fill="#1B1B1B"/>
<path d="M754.994 401.64C752.403 375.216 737.762 376.253 737.762 376.253L699.102 368.694L682.169 340.558L639.661 338.898L624.528 365.452L593.434 369.342L593.408 369.783C590.325 370.016 579.209 372.454 576.98 395.157C576.773 397.244 576.488 399.799 576.125 402.742H755.11C755.071 402.353 755.033 401.99 754.994 401.64Z" fill="#1B1B1B"/>
</svg>
