<svg width="971" height="628" viewBox="0 0 971 628" fill="none" xmlns="http://www.w3.org/2000/svg">
<path d="M915.903 342.142C937.702 342.142 955.373 324.467 955.373 302.663C955.373 280.859 937.702 263.184 915.903 263.184C894.105 263.184 876.434 280.859 876.434 302.663C876.434 324.467 894.105 342.142 915.903 342.142Z" fill="#1B1B1B"/>
<path d="M954.71 484.876H893.87C893.87 486.635 831.166 488.063 831.166 488.063C830.182 488.808 829.285 489.664 828.492 490.612C826.11 493.47 824.809 497.081 824.816 500.81V503.36C824.818 507.585 826.487 511.637 829.458 514.625C832.428 517.613 836.456 519.292 840.657 519.294H954.71C958.91 519.29 962.937 517.61 965.907 514.623C968.877 511.635 970.547 507.585 970.551 503.36V500.81C970.545 496.586 968.874 492.536 965.905 489.55C962.935 486.563 958.91 484.882 954.71 484.876Z" fill="#EDEDED"/>
<path d="M906.794 519.294H890.602V625.585H906.794V519.294Z" fill="#EDEDED"/>
<path d="M953.349 624.548C953.349 626.358 928.428 625.248 897.686 625.248C866.944 625.248 842.023 626.358 842.023 624.548C842.023 622.737 866.944 608.376 897.686 608.376C928.428 608.376 953.349 622.737 953.349 624.548Z" fill="#EDEDED"/>
<path d="M815.708 610.4H799.937L792.434 550.675H815.711L815.708 610.4Z" fill="#FFB8B8"/>
<path d="M788.937 606.352H818.746V624.573H770.168C770.168 619.74 772.145 615.106 775.665 611.688C779.185 608.271 783.959 606.352 788.937 606.352Z" fill="#1B1B1B"/>
<path d="M791.347 602.302L776.238 597.596L787.336 537.516L809.636 544.46L791.347 602.302Z" fill="#FFB8B8"/>
<path d="M767.459 589.714L795.994 598.671L790.356 616.642L743.854 602.045C744.594 599.685 745.792 597.494 747.379 595.597C748.966 593.7 750.911 592.135 753.103 590.99C755.295 589.845 757.691 589.143 760.154 588.924C762.617 588.705 765.099 588.973 767.459 589.714Z" fill="#1B1B1B"/>
<path d="M913.627 474.548C913.267 471.523 912.621 468.538 911.697 465.635L908.79 461.979L901.225 452.482L900.895 452.495C900.336 452.521 898.013 452.648 894.422 452.927H894.383C892.162 453.105 889.445 453.333 886.361 453.625C885.549 453.714 884.698 453.79 883.823 453.879V467.133H899.689C900.46 467.134 901.205 467.416 901.784 467.925C902.363 468.434 902.737 469.136 902.837 469.901C902.85 470.041 902.863 470.168 902.863 470.307C902.862 471.149 902.528 471.956 901.933 472.551C901.338 473.147 900.531 473.481 899.689 473.481H807.535C806.361 474.261 805.233 475.109 804.158 476.021C800.912 478.534 798.572 482.037 797.494 485.999C792.112 509.665 782.3 553.795 779.406 566.758C779.196 567.734 779.244 568.749 779.544 569.701C779.845 570.654 780.388 571.512 781.12 572.192C781.66 572.695 782.294 573.088 782.986 573.347L794.435 577.638C794.906 577.812 795.396 577.927 795.895 577.981C795.958 577.981 796.009 577.993 796.073 577.993C796.191 578.004 796.309 578.008 796.428 578.006C797.586 578.002 798.715 577.648 799.668 576.991C800.622 576.334 801.355 575.405 801.772 574.324L810.81 550.609L824.735 514.045L830.244 499.584C836.628 501.082 890.195 512.94 908.13 493.833C909.9 491.95 911.295 489.749 912.243 487.345C913.753 483.259 914.228 478.862 913.627 474.548Z" fill="#1B1B1B"/>
<path d="M928.892 478.225C928.613 477.096 928.296 475.927 927.928 474.747L917.452 461.594L917.122 461.606C916.461 461.645 913.326 461.81 908.513 462.203C903.053 462.66 895.422 463.397 886.851 464.552C886.597 464.577 886.331 464.615 886.077 464.654C885.238 464.768 884.388 464.882 883.537 465.009V467.358H899.409C900.18 467.359 900.925 467.64 901.504 468.149C902.084 468.658 902.458 469.361 902.558 470.125C902.57 470.265 902.583 470.392 902.583 470.532C902.583 471.373 902.249 472.181 901.653 472.776C901.058 473.371 900.251 473.705 899.409 473.706H843.311C840.861 474.506 838.499 475.343 836.239 476.245C824.379 480.942 815.503 487.1 813.687 495.111C813.078 497.803 812.405 500.761 811.694 503.909C809.053 515.615 805.841 529.949 802.933 542.975V542.987C802.336 545.679 801.74 548.294 801.168 550.833C798.742 561.752 796.686 571.007 795.593 575.87C795.568 576.009 795.543 576.136 795.517 576.276V576.301C795.391 577.285 795.513 578.285 795.873 579.209L795.885 579.221V579.234C796.235 580.119 796.803 580.901 797.537 581.507C798.027 581.911 798.58 582.233 799.174 582.459L810.628 586.75C811.265 586.988 811.94 587.113 812.621 587.118C813.575 587.12 814.515 586.88 815.351 586.42C816.551 585.77 817.479 584.711 817.967 583.436L842.625 518.738L846.447 508.695C852.834 510.194 906.418 522.039 924.359 502.944C927.904 499.108 929.927 494.111 930.048 488.89C930.173 485.298 929.784 481.707 928.892 478.225Z" fill="#1B1B1B"/>
<path d="M927.044 366.645C926.844 366.405 926.63 366.164 926.404 365.936C923.06 362.394 918.932 359.7 914.356 358.075C909.78 356.45 904.888 355.94 900.079 356.587C895.884 357.142 891.729 357.966 887.638 359.054C882.355 360.423 877.517 363.157 873.603 366.987C870.554 369.966 868.153 373.551 866.552 377.515C864.95 381.479 864.184 385.735 864.301 390.013C864.351 391.746 864.363 393.517 864.339 395.314C864.339 396.149 864.326 396.996 864.314 397.844H876.691C877.228 397.842 877.764 397.906 878.286 398.034C879.796 398.398 881.141 399.263 882.105 400.491C883.068 401.719 883.593 403.237 883.596 404.802V463.658C884.437 463.898 885.278 464.139 886.107 464.392C886.37 464.48 886.622 464.556 886.872 464.632C887.161 464.721 887.45 464.809 887.726 464.898C890.274 465.695 892.764 466.538 895.195 467.428H899.288C900.051 467.429 900.787 467.71 901.36 468.217C901.932 468.724 902.303 469.424 902.401 470.186C903.255 470.528 904.083 470.87 904.899 471.211C907.799 472.426 910.548 473.64 913.072 474.817C916.474 476.386 919.5 477.879 922.036 479.182C922.833 479.591 923.714 479.808 924.609 479.814C925.784 479.81 926.927 479.429 927.873 478.726C928.069 478.58 928.258 478.424 928.437 478.258C929.109 477.623 929.617 476.833 929.917 475.955C930.217 475.078 930.299 474.14 930.157 473.223C928.862 463.285 928.483 453.247 929.028 443.238C929.379 434.825 930.132 426.196 931.112 417.859C931.639 413.342 932.229 408.914 932.844 404.651C933.434 400.577 934.062 396.667 934.677 392.973C935.484 388.288 935.216 383.48 933.893 378.916C932.569 374.352 930.227 370.155 927.044 366.645Z" fill="#2688EB"/>
<path d="M875.813 367.627C875.168 367.35 874.504 367.119 873.826 366.935C870.475 366.032 866.912 366.365 863.786 367.874C860.661 369.383 858.182 371.966 856.801 375.153L848.163 395.113L847.082 397.63H876.919C877.457 397.628 877.993 397.692 878.516 397.819L879.522 395.49L883.344 386.656C884.863 383.132 884.922 379.15 883.51 375.583C882.098 372.015 879.33 369.154 875.813 367.627Z" fill="#2688EB"/>
<path d="M902.745 347.205C920.072 347.205 934.118 333.155 934.118 315.823C934.118 298.492 920.072 284.442 902.745 284.442C885.417 284.442 871.371 298.492 871.371 315.823C871.371 333.155 885.417 347.205 902.745 347.205Z" fill="#FFB8B8"/>
<path d="M933.478 405.082L915.623 405.561L914.324 417.982L914.031 420.857L886.063 433.291L883.516 434.426V456.532L886.063 455.813L894.112 453.544H894.15L929.607 443.544L930.014 443.43C932.879 442.611 935.4 440.898 937.204 438.547C939.008 436.196 939.997 433.331 940.025 430.378L940.114 415.712L940.19 404.905L933.478 405.082Z" fill="#FFB8B8"/>
<path d="M939.233 380.17C938.993 376.297 937.216 372.678 934.293 370.108C931.369 367.537 927.538 366.227 923.642 366.465C919.747 366.703 916.106 368.469 913.52 371.376C910.935 374.282 909.617 378.091 909.856 381.963L911.813 413.71C911.866 414.545 912.103 415.359 912.508 416.093C912.913 416.827 913.475 417.464 914.155 417.958C915.236 418.76 916.57 419.152 917.916 419.065L931.633 418.225L935.791 417.971C936.548 417.934 937.29 417.745 937.972 417.414C938.654 417.084 939.261 416.62 939.758 416.05C939.868 415.929 939.97 415.802 940.064 415.669C940.877 414.587 941.277 413.252 941.19 411.904L939.233 380.17Z" fill="#2688EB"/>
<path d="M887.515 465.389H885.891V465.225C885.06 465.338 884.217 465.452 883.374 465.579V467.92H895.003C892.562 467.034 890.065 466.19 887.515 465.389ZM887.515 465.389H885.891V465.225C885.06 465.338 884.217 465.452 883.374 465.579V467.92H895.003C892.562 467.034 890.065 466.19 887.515 465.389ZM899.107 465.389H885.891V405.284C885.886 403.227 885.218 401.226 883.985 399.583C882.752 397.94 881.023 396.744 879.056 396.174C878.211 395.918 877.333 395.79 876.451 395.794H764.428C761.926 395.797 759.526 396.798 757.757 398.577C755.987 400.356 754.991 402.768 754.988 405.284V467.287C754.989 469.804 755.984 472.217 757.754 473.997C759.524 475.776 761.925 476.776 764.428 476.777H899.107C900.501 476.775 901.846 476.256 902.884 475.32C903.922 474.384 904.58 473.096 904.733 471.703C904.759 471.498 904.771 471.291 904.771 471.083C904.769 469.574 904.171 468.127 903.11 467.059C902.048 465.992 900.609 465.391 899.107 465.389ZM902.254 471.083C902.253 471.922 901.922 472.727 901.332 473.32C900.742 473.913 899.941 474.246 899.107 474.247H764.428C762.593 474.246 760.833 473.512 759.534 472.207C758.236 470.902 757.507 469.133 757.506 467.287V405.284C757.507 403.439 758.236 401.669 759.534 400.364C760.833 399.059 762.593 398.326 764.428 398.325H876.451C876.989 398.323 877.526 398.387 878.049 398.515C879.564 398.878 880.912 399.744 881.878 400.972C882.844 402.2 883.371 403.719 883.374 405.284V467.92H899.107C899.872 467.921 900.61 468.201 901.184 468.709C901.758 469.216 902.13 469.916 902.229 470.678C902.241 470.817 902.254 470.944 902.254 471.083ZM887.515 465.389H885.891V465.225C885.06 465.338 884.217 465.452 883.374 465.579V467.92H895.003C892.562 467.034 890.065 466.19 887.515 465.389Z" fill="#1B1B1B"/>
<path d="M0 491.624V494.324C0.00387563 498.797 1.77836 503.086 4.9339 506.25C8.08944 509.413 12.3682 511.192 16.8308 511.195H138.012C142.476 511.194 146.756 509.416 149.912 506.252C153.068 503.088 154.841 498.798 154.843 494.324V491.624C154.851 487.676 153.468 483.852 150.938 480.827C150.096 479.822 149.143 478.917 148.097 478.127C148.097 478.127 81.474 476.616 81.474 474.753H16.8308C12.3689 474.759 8.09149 476.539 4.93645 479.701C1.7814 482.864 0.0061767 487.152 0 491.624Z" fill="#EDEDED"/>
<path d="M67.8066 623.561H86.0234L86.0234 510.184H67.8066L67.8066 623.561Z" fill="#EDEDED"/>
<path d="M18.2188 623.474C18.2188 625.392 44.7256 624.216 77.4234 624.216C110.121 624.216 136.628 625.392 136.628 623.474C136.628 621.557 110.121 606.352 77.4234 606.352C44.7256 606.352 18.2188 621.557 18.2188 623.474Z" fill="#EDEDED"/>
<path d="M165.979 609.388L182.437 609.386L190.266 545.613L165.977 545.615L165.979 609.388Z" fill="#A0616A"/>
<path d="M214.676 624.84L162.654 624.842L162.654 604.738L194.576 604.737C197.215 604.737 199.829 605.256 202.267 606.267C204.706 607.277 206.922 608.758 208.788 610.624C210.655 612.491 212.135 614.707 213.145 617.146C214.156 619.586 214.676 622.2 214.676 624.84Z" fill="#1B1B1B"/>
<path d="M191.902 600.278L207.468 595.351L196.034 532.454L173.059 539.726L191.902 600.278Z" fill="#A0616A"/>
<path d="M242.891 600.377L193.256 615.957L187.238 596.775L217.696 587.215C222.782 585.618 228.293 586.108 233.018 588.576C237.743 591.045 241.295 595.29 242.891 600.377Z" fill="#1B1B1B"/>
<path d="M204.297 563.01C201.241 549.211 190.823 502.233 185.116 477.041C184.025 472.982 181.678 469.375 178.413 466.742C177.311 465.772 176.151 464.87 174.94 464.039H85.6999C84.8076 464.039 83.9519 463.683 83.3209 463.049C82.6899 462.416 82.3353 461.557 82.3349 460.661C82.3349 460.512 82.3487 460.377 82.3618 460.228C82.4677 459.414 82.8647 458.666 83.4788 458.124C84.0929 457.582 84.8823 457.283 85.6999 457.282H102.525V443.862C101.61 443.753 100.721 443.645 99.8329 443.551C92.7933 442.713 86.7363 442.172 82.4026 441.834C78.5532 441.537 76.0629 441.402 75.4708 441.375L75.1205 441.348L67.0983 451.47L64.016 455.363C63.0349 458.448 62.3499 461.62 61.9701 464.837C61.0144 473.324 62.9664 480.217 67.7984 485.379C86.8172 505.706 143.619 493.097 150.389 491.502L180.58 571.065C181.02 572.215 181.797 573.204 182.809 573.901C183.821 574.599 185.019 574.972 186.247 574.97C186.435 574.97 186.623 574.957 186.812 574.943C187.341 574.894 187.861 574.776 188.36 574.592L200.501 570.024C201.864 569.503 202.996 568.509 203.692 567.223C204.389 565.936 204.603 564.441 204.297 563.01Z" fill="#1B1B1B"/>
<path d="M187.087 572.12C184.032 558.321 173.614 511.343 167.908 486.151C166.01 477.799 156.965 471.352 144.799 466.392C142.47 465.433 140.021 464.541 137.477 463.689H85.9959C85.1037 463.689 84.248 463.333 83.6171 462.699C82.9862 462.066 82.6315 461.206 82.6312 460.31C82.6312 460.162 82.645 460.027 82.6581 459.878C82.764 459.064 83.1609 458.316 83.775 457.774C84.389 457.232 85.1784 456.933 85.9959 456.932H102.82V455.499C100.949 455.175 99.0784 454.877 97.2482 454.594C96.4135 454.472 95.5789 454.35 94.7443 454.229C93.2505 454.013 91.7835 453.81 90.3432 453.621C81.2584 452.391 73.1829 451.607 67.3958 451.12C62.2949 450.701 58.9701 450.526 58.2709 450.485L57.9206 450.458L46.8169 464.473C46.4266 465.73 46.0901 466.973 45.7944 468.176C43.1025 479.367 44.7172 488.192 50.599 494.49C69.6164 514.816 126.414 502.207 133.183 500.612L163.372 580.175C163.948 581.671 165.086 582.88 166.542 583.54C167.997 584.2 169.653 584.258 171.151 583.702L183.291 579.134C184.259 578.767 185.118 578.156 185.784 577.362C186.451 576.567 186.904 575.614 187.1 574.593C187.277 573.778 187.273 572.933 187.087 572.12Z" fill="#1B1B1B"/>
<path d="M114.36 373.131C114.365 368.717 113.483 364.346 111.769 360.28C110.055 356.213 107.542 352.534 104.381 349.46C100.191 345.384 95.0125 342.475 89.3569 341.021C84.9683 339.864 80.5123 338.982 76.0145 338.379C70.8614 337.696 65.6203 338.244 60.7186 339.977C55.8169 341.711 51.3935 344.581 47.8093 348.354C47.5676 348.597 47.339 348.853 47.1236 349.109C43.7129 352.848 41.2023 357.321 39.7847 362.184C38.3671 367.047 38.0801 372.171 38.9458 377.162C39.6052 381.098 40.2777 385.264 40.9095 389.605C41.5689 394.147 42.2007 398.866 42.7655 403.678C43.815 412.562 44.6221 421.755 44.9984 430.706C45.5886 441.375 45.1833 452.075 43.7881 462.668C43.6361 463.646 43.7246 464.645 44.0457 465.58C44.3669 466.515 44.911 467.357 45.6309 468.034C45.8235 468.211 46.0254 468.377 46.2358 468.533C47.1272 469.196 48.1878 469.592 49.2947 469.675C50.4017 469.759 51.5095 469.526 52.4899 469.004C55.2068 467.616 58.4486 466.025 62.0935 464.354C67.5944 461.833 74.0101 459.11 80.9237 456.602C83.3044 455.74 85.7521 454.904 88.2273 454.122C88.8591 453.92 89.5047 453.717 90.1503 453.515C93.365 452.531 96.6337 451.615 99.9285 450.833C100.83 450.617 101.718 450.415 102.619 450.226V390.09C102.622 388.422 103.184 386.804 104.216 385.496C105.248 384.188 106.69 383.265 108.308 382.878C108.867 382.742 109.441 382.674 110.016 382.676H114.347C114.32 381.772 114.307 380.869 114.307 379.979C114.28 377.957 114.294 375.962 114.347 374.008C114.36 373.711 114.36 373.414 114.36 373.131Z" fill="#EDEDED"/>
<path d="M132.426 380.537L122.983 358.651C121.495 355.209 118.824 352.418 115.458 350.787C112.091 349.155 108.252 348.791 104.64 349.761C103.91 349.959 103.194 350.209 102.499 350.508C98.7091 352.161 95.7265 355.254 94.2054 359.109C92.6843 362.965 92.7488 367.268 94.3847 371.076L101.063 386.546L102.865 390.733C102.868 389.051 103.435 387.419 104.475 386.1C105.514 384.781 106.966 383.851 108.596 383.46C109.159 383.323 109.737 383.254 110.316 383.256H133.591L132.426 380.537Z" fill="#EDEDED"/>
<path d="M73.372 327.971C91.5374 327.971 106.263 313.014 106.263 294.565C106.263 276.115 91.5374 261.159 73.372 261.159C55.2065 261.159 40.4805 276.115 40.4805 294.565C40.4805 313.014 55.2065 327.971 73.372 327.971Z" fill="#A0616A"/>
<path d="M53.6216 324.095C53.151 324.637 52.5762 325.079 51.9313 325.396C51.2864 325.712 50.5845 325.897 49.867 325.938C49.1494 325.979 48.4309 325.876 47.754 325.635C47.077 325.394 46.4553 325.021 45.9256 324.536C38.5183 318.552 32.6435 310.896 28.7862 302.2C24.4676 291.928 23.8347 279.392 28.7497 269.763C32.9046 261.624 40.3632 256.442 47.8092 252.207C50.6637 250.413 53.7918 249.093 57.0709 248.301C58.7272 247.926 60.4438 247.901 62.1103 248.228C63.7768 248.555 65.3562 249.227 66.7468 250.2C68.2223 251.319 69.3643 252.819 70.0501 254.538C70.7359 256.256 70.9396 258.129 70.6393 259.954C74.0452 255.477 78.637 252.038 83.8967 250.025C87.124 248.639 90.7296 248.398 94.1133 249.342C98.8951 250.935 102.435 255.754 104.404 260.931C105.997 264.894 106.581 269.19 106.102 273.434C105.894 275.46 105.274 277.423 104.282 279.203C103.289 280.983 101.944 282.543 100.328 283.788C96.4278 286.474 91.4027 286.201 86.8666 285.012C82.3304 283.824 77.928 281.808 73.3127 281.246C68.6974 280.684 63.5824 281.903 60.8327 286.011C58.8962 288.904 58.4397 292.714 58.0445 296.347L55.9893 315.241C55.8441 317.944 55.2605 320.606 54.2613 323.122C54.0922 323.473 53.8771 323.8 53.6216 324.095Z" fill="#1B1B1B"/>
<path d="M99.5267 424.061L61.0338 406.763L60.7243 403.691L59.352 390.421L40.4889 389.909L33.3984 389.721L33.4792 401.266L33.5732 416.934C33.603 420.087 34.6484 423.145 36.5539 425.655C38.4593 428.165 41.1231 429.992 44.1488 430.864L44.5791 430.986L82.1036 441.682L99.5267 446.653L102.218 447.421V425.273L99.5267 424.061Z" fill="#A0616A"/>
<path d="M51.0854 349.258C49.0325 349.132 46.9747 349.407 45.0295 350.068C43.0843 350.728 41.29 351.761 39.7491 353.106C38.2083 354.452 36.9512 356.085 36.0497 357.911C35.1481 359.737 34.6199 361.721 34.4952 363.749L32.3975 397.319C32.312 398.744 32.7362 400.154 33.596 401.302C33.6965 401.443 33.8058 401.578 33.9233 401.705C34.4364 402.278 35.0559 402.749 35.7483 403.091C36.4927 403.47 37.3094 403.69 38.1453 403.737L42.5722 404.006L57.1744 404.894C58.7974 404.988 60.3921 404.444 61.6097 403.38C62.8273 402.316 63.5687 400.819 63.6717 399.216L65.7555 365.646C66.0067 361.552 64.603 357.527 61.8525 354.455C59.102 351.382 55.2296 349.513 51.0854 349.258Z" fill="#EDEDED"/>
<path d="M926.34 339.239C923.69 340.655 920.39 342.052 917.866 340.343C915.403 338.674 915.227 334.96 916.078 332.073C916.928 329.187 918.523 326.49 918.671 323.467C918.883 319.135 915.971 315.115 912.355 312.866C908.739 310.617 904.5 309.793 900.365 309.01L877.683 304.713C872.068 303.649 865.99 302.32 862.243 297.832C856.822 291.337 859.173 280.506 865.594 275.248C872.016 269.99 881.066 269.4 889.149 271.167C893.62 272.145 897.98 273.768 902.52 274.242C911.481 275.179 920.956 271.656 929.271 275.318C936.509 278.506 940.894 286.601 941.917 294.648C942.94 302.694 941.154 310.78 939.159 318.587C937.972 323.232 936.665 327.947 934.046 331.898C931.427 335.849 927.241 338.974 922.584 339.034L926.34 339.239Z" fill="#1B1B1B"/>
<path d="M945.25 303.676C959.224 303.676 970.552 292.346 970.552 278.369C970.552 264.392 959.224 253.062 945.25 253.062C931.277 253.062 919.949 264.392 919.949 278.369C919.949 292.346 931.277 303.676 945.25 303.676Z" fill="#1B1B1B"/>
<path d="M100.237 454.38V454.555H98.4922C98.1138 454.676 97.7216 454.797 97.3433 454.918C95.004 455.658 92.7051 456.433 90.4468 457.244H102.941V454.757C102.035 454.622 101.129 454.501 100.237 454.38ZM100.237 454.38V454.555H98.4922C98.1138 454.676 97.7216 454.797 97.3433 454.918C95.004 455.658 92.7051 456.433 90.4468 457.244H102.941V454.757C102.035 454.622 101.129 454.501 100.237 454.38ZM100.237 454.38V454.555H98.4922C98.1138 454.676 97.7216 454.797 97.3433 454.918C99.1822 455.201 101.062 455.496 102.941 455.819V454.757C102.035 454.622 101.129 454.501 100.237 454.38ZM100.237 451.275V454.555H98.4922C98.1138 454.676 97.7216 454.797 97.3433 454.918C95.004 455.658 92.7051 456.433 90.4468 457.244H102.941V450.67C102.035 450.858 101.142 451.06 100.237 451.275ZM100.237 451.275V454.555H98.4922C98.1138 454.676 97.7216 454.797 97.3433 454.918C95.004 455.658 92.7051 456.433 90.4468 457.244H102.941V450.67C102.035 450.858 101.142 451.06 100.237 451.275ZM100.237 451.275V454.555H98.4922C98.1138 454.676 97.7216 454.797 97.3433 454.918C95.004 455.658 92.7051 456.433 90.4468 457.244H102.941V450.67C102.035 450.858 101.142 451.06 100.237 451.275ZM230.727 380.61H110.378C109.43 380.606 108.487 380.742 107.579 381.014C106.169 381.422 104.863 382.128 103.752 383.084C102.641 384.04 101.751 385.223 101.142 386.553C100.544 387.852 100.235 389.265 100.237 390.694V454.555H86.0382C85.239 454.555 84.4477 454.712 83.7094 455.016C82.9711 455.32 82.3003 455.765 81.7352 456.327C81.1701 456.889 80.7219 457.556 80.4161 458.29C80.1104 459.024 79.953 459.811 79.9531 460.605C79.9529 460.825 79.9665 461.045 79.9941 461.264C80.1586 462.744 80.866 464.112 81.9809 465.107C83.0959 466.101 84.5403 466.653 86.0382 466.655H230.727C233.416 466.654 235.995 465.592 237.897 463.701C239.799 461.81 240.868 459.246 240.868 456.572V390.694C240.865 388.021 239.796 385.458 237.894 383.567C235.993 381.677 233.415 380.614 230.727 380.61ZM238.164 456.572C238.163 458.533 237.379 460.413 235.984 461.799C234.59 463.186 232.699 463.965 230.727 463.966H86.0382C85.1417 463.966 84.282 463.612 83.6481 462.981C83.0142 462.351 82.6579 461.497 82.6576 460.605C82.6576 460.457 82.6715 460.323 82.6846 460.175C82.791 459.365 83.1898 458.621 83.8068 458.082C84.4237 457.543 85.2167 457.245 86.0382 457.244H102.941L102.941 390.694C102.944 389.031 103.51 387.417 104.547 386.112C105.585 384.807 107.034 383.888 108.661 383.501C109.223 383.365 109.8 383.298 110.378 383.299H230.727C232.699 383.301 234.59 384.08 235.984 385.466C237.379 386.853 238.163 388.733 238.164 390.694V456.572ZM100.237 451.275V454.555H98.4922C98.1138 454.676 97.7216 454.797 97.3433 454.918C95.004 455.658 92.7051 456.433 90.4468 457.244H102.941V450.67C102.035 450.858 101.142 451.06 100.237 451.275ZM100.237 451.275V454.555H98.4922C98.1138 454.676 97.7216 454.797 97.3433 454.918C95.004 455.658 92.7051 456.433 90.4468 457.244H102.941V450.67C102.035 450.858 101.142 451.06 100.237 451.275ZM100.237 451.275V454.555H98.4922C98.1138 454.676 97.7216 454.797 97.3433 454.918C95.004 455.658 92.7051 456.433 90.4468 457.244H102.941V450.67C102.035 450.858 101.142 451.06 100.237 451.275ZM100.237 454.38V454.555H98.4922C98.1138 454.676 97.7216 454.797 97.3433 454.918C95.004 455.658 92.7051 456.433 90.4468 457.244H102.941V454.757C102.035 454.622 101.129 454.501 100.237 454.38Z" fill="#1B1B1B"/>
<g clip-path="url(#clip0_2930_67001)">
<path d="M152.656 427.074L160.593 418.473V416.168L152.656 424.769V427.074Z" fill="#2688EB"/>
<path d="M183.117 426.946L175.18 418.346V416.04L183.117 424.641V426.946Z" fill="#2688EB"/>
<path d="M186.258 430.351L178.32 421.75V419.444L186.258 428.045V430.351Z" fill="#2688EB"/>
<path d="M198.285 418.122L198.155 418.355L197.152 420.075V420.083L192.065 428.847L191.168 430.387H189.164L190.053 428.847L196.142 418.355L197.152 416.626L197.414 416.17L198.285 418.122Z" fill="#2688EB"/>
<path d="M205.13 430.386H203.126L202.237 428.846L198.57 422.533L199.572 420.805L204.241 428.846L205.13 430.386Z" fill="#2688EB"/>
<path d="M152.659 424.769V427.074L146.282 420.159L144.723 418.473V416.168L146.073 417.63L146.282 417.854L152.659 424.769Z" fill="#2688EB"/>
<path d="M146.282 423.217V430.39H144.723V421.531L146.282 423.217Z" fill="#2688EB"/>
<path d="M176.384 423.217V430.39H174.824V421.531L176.384 423.217Z" fill="#2688EB"/>
<path d="M184.715 423.341V416.168H186.274V425.027L184.715 423.341Z" fill="#2688EB"/>
<path d="M165.137 423.217V430.39H163.578V421.531L164.51 422.538L164.885 422.941L165.137 423.217Z" fill="#2688EB"/>
<path d="M165.137 416.784H163.578V422.942H165.137V416.784Z" fill="#2688EB"/>
<path d="M171.846 416.168V417.708H163.578V417.071L163.648 417.011L164.58 416.168H171.846Z" fill="#2688EB"/>
<path d="M168.596 416.168H163.578V417.708H168.596V416.168Z" fill="#2688EB"/>
<path d="M171.846 428.851V430.39H163.578V429.754L164.58 428.851H171.846Z" fill="#2688EB"/>
<path d="M170.669 422.478H167.168V424.017H170.669V422.478Z" fill="#2688EB"/>
<path d="M165.137 422.478V424.017H163.578V423.381L164.066 422.941L164.51 422.538L164.58 422.478H165.137Z" fill="#2688EB"/>
<path d="M165.137 419.235V426.408H163.578V417.549L163.648 417.626L164.293 418.323L165.137 419.235Z" fill="#2688EB"/>
<path d="M159.035 423.217V430.39H160.595V421.531L159.035 423.217Z" fill="#2688EB"/>
<path d="M193.186 417.919C193.675 417.919 194.072 417.527 194.072 417.044C194.072 416.561 193.675 416.17 193.186 416.17C192.697 416.17 192.301 416.561 192.301 417.044C192.301 417.527 192.697 417.919 193.186 417.919Z" fill="#2688EB"/>
<path d="M178.682 430.238C179.172 430.238 179.568 429.846 179.568 429.364C179.568 428.881 179.172 428.489 178.682 428.489C178.193 428.489 177.797 428.881 177.797 429.364C177.797 429.846 178.193 430.238 178.682 430.238Z" fill="#2688EB"/>
<path d="M148.69 430.494C149.179 430.494 149.576 430.102 149.576 429.619C149.576 429.137 149.179 428.745 148.69 428.745C148.201 428.745 147.805 429.137 147.805 429.619C147.805 430.102 148.201 430.494 148.69 430.494Z" fill="#2688EB"/>
</g>
<g clip-path="url(#clip1_2930_67001)">
<path d="M800.852 439.447L808.26 431.46V429.319L800.852 437.306V439.447Z" fill="#2688EB"/>
<path d="M829.279 439.327L821.871 431.341V429.2L829.279 437.187V439.327Z" fill="#2688EB"/>
<path d="M832.213 442.489L824.805 434.502V432.361L832.213 440.348V442.489Z" fill="#2688EB"/>
<path d="M843.435 431.133L843.313 431.349L842.378 432.946V432.954L837.629 441.092L836.792 442.522H834.922L835.751 441.092L841.435 431.349L842.378 429.744L842.622 429.32L843.435 431.133Z" fill="#2688EB"/>
<path d="M849.826 442.521H847.955L847.126 441.091L843.703 435.229L844.638 433.624L848.996 441.091L849.826 442.521Z" fill="#2688EB"/>
<path d="M800.853 437.306V439.446L794.901 433.025L793.445 431.459V429.319L794.705 430.677L794.901 430.885L800.853 437.306Z" fill="#2688EB"/>
<path d="M794.901 435.864V442.525H793.445V434.299L794.901 435.864Z" fill="#2688EB"/>
<path d="M822.994 435.864V442.525H821.539V434.299L822.994 435.864Z" fill="#2688EB"/>
<path d="M830.773 435.98V429.319H832.229V437.545L830.773 435.98Z" fill="#2688EB"/>
<path d="M812.502 435.864V442.525H811.047V434.299L811.917 435.234L812.267 435.608L812.502 435.864Z" fill="#2688EB"/>
<path d="M812.502 429.891H811.047V435.609H812.502V429.891Z" fill="#2688EB"/>
<path d="M818.763 429.319V430.749H811.047V430.158L811.112 430.102L811.982 429.319H818.763Z" fill="#2688EB"/>
<path d="M815.73 429.319H811.047V430.749H815.73V429.319Z" fill="#2688EB"/>
<path d="M818.763 441.096V442.525H811.047V441.934L811.982 441.096H818.763Z" fill="#2688EB"/>
<path d="M817.662 435.178H814.395V436.607H817.662V435.178Z" fill="#2688EB"/>
<path d="M812.502 435.178V436.607H811.047V436.016L811.502 435.608L811.917 435.234L811.982 435.178H812.502Z" fill="#2688EB"/>
<path d="M812.502 432.166V438.827H811.047V430.601L811.112 430.672L811.714 431.32L812.502 432.166Z" fill="#2688EB"/>
<path d="M806.805 435.864V442.525H808.26V434.299L806.805 435.864Z" fill="#2688EB"/>
<path d="M838.678 430.944C839.135 430.944 839.505 430.581 839.505 430.132C839.505 429.684 839.135 429.32 838.678 429.32C838.222 429.32 837.852 429.684 837.852 430.132C837.852 430.581 838.222 430.944 838.678 430.944Z" fill="#2688EB"/>
<path d="M825.143 442.384C825.599 442.384 825.969 442.02 825.969 441.572C825.969 441.123 825.599 440.76 825.143 440.76C824.686 440.76 824.316 441.123 824.316 441.572C824.316 442.02 824.686 442.384 825.143 442.384Z" fill="#2688EB"/>
<path d="M797.151 442.622C797.607 442.622 797.977 442.258 797.977 441.81C797.977 441.362 797.607 440.998 797.151 440.998C796.694 440.998 796.324 441.362 796.324 441.81C796.324 442.258 796.694 442.622 797.151 442.622Z" fill="#2688EB"/>
</g>
<g clip-path="url(#clip2_2930_67001)">
<path d="M632.45 43.7051H342.665C332.035 43.7051 323.391 52.3756 323.391 63.0385V262.228C323.391 272.891 332.035 281.561 342.665 281.561H632.45C643.08 281.561 651.724 272.891 651.724 262.228V63.0385C651.724 52.3756 643.08 43.7051 632.45 43.7051Z" fill="#F2F2F2"/>
<path d="M601.009 59.0479H311.224C300.593 59.0479 291.949 67.7184 291.949 78.3812V277.57C291.949 288.233 300.593 296.904 311.224 296.904H601.009C611.639 296.904 620.283 288.233 620.283 277.57V78.3812C620.283 67.7184 611.639 59.0479 601.009 59.0479ZM618.256 218.944C618.256 260.877 584.366 294.871 542.561 294.871H311.224C301.698 294.871 293.976 287.125 293.976 277.57V78.3812C293.976 68.8265 301.698 61.0808 311.224 61.0808H601.009C610.534 61.0808 618.256 68.8265 618.256 78.3813V218.944Z" fill="#3F3D56"/>
<path d="M333.34 253.738L331.625 252.655C332.74 250.877 333.89 249.155 335.043 247.534L336.693 248.715C335.562 250.304 334.435 251.993 333.34 253.738Z" fill="#CCCCCC"/>
<path d="M344.517 239.249L343.066 237.83C346.159 234.651 349.414 231.921 352.74 229.718L353.857 231.415C350.651 233.538 347.509 236.174 344.517 239.249ZM395.08 226.417C392.66 226.417 390.455 226.106 388.804 225.835L389.132 223.829C390.804 224.104 392.819 224.384 395.08 224.384C397.077 224.384 399.04 224.164 401.081 223.711L401.518 225.696C399.332 226.181 397.226 226.417 395.08 226.417ZM364.754 226.148L364.144 224.209C366.321 223.521 368.576 223.004 370.847 222.674C372.797 222.391 374.662 222.254 376.546 222.254H376.671V224.287H376.546C374.76 224.287 372.991 224.417 371.138 224.686C368.975 225.001 366.826 225.493 364.754 226.148ZM413.063 220.273L411.767 218.71C414.564 216.379 416.568 213.562 418.691 210.578L419.538 209.392L421.182 210.58L420.341 211.759C418.14 214.853 416.061 217.775 413.063 220.273ZM429.316 201.633L428.069 200.03C430.801 197.892 433.888 196.159 437.505 194.733C438.121 194.49 438.71 194.273 439.275 194.08L439.929 196.004C439.392 196.188 438.832 196.394 438.247 196.625C434.813 197.979 431.892 199.616 429.316 201.633ZM453.784 194.572C453.102 194.572 452.456 194.565 451.834 194.558L451.858 192.525C452.493 192.533 453.156 192.534 453.858 192.539C456.243 192.539 459.565 192.471 464.121 191.942L464.354 193.961C459.648 194.508 456.274 194.565 453.784 194.572ZM476.683 191.909L476.281 189.917C479.922 189.179 484.157 188.3 488.349 187.215L488.855 189.183C484.615 190.281 480.349 191.166 476.683 191.909ZM500.794 185.329L500.036 183.444C504.1 181.8 507.629 179.947 510.824 177.777L511.96 179.461C508.645 181.712 504.992 183.632 500.794 185.329ZM521.272 170.803L519.627 169.614C520.193 168.827 520.682 168.059 521.154 167.317C522.55 165.125 523.993 162.858 527.43 160.076L527.67 159.883L528.926 161.478L528.703 161.657C525.523 164.232 524.231 166.262 522.862 168.411C522.375 169.177 521.87 169.969 521.272 170.803ZM539.454 155.555L538.715 153.662C542.327 152.242 546.407 151.099 550.841 150.265L551.215 152.263C546.905 153.074 542.948 154.182 539.454 155.555Z" fill="#CCCCCC"/>
<path d="M563.599 150.77L563.473 148.741C565.442 148.617 567.501 148.536 569.592 148.498L569.629 150.531C567.567 150.568 565.539 150.648 563.599 150.77Z" fill="#CCCCCC"/>
<path d="M355.944 81.0771H327.508C326.079 81.0771 324.914 82.2461 324.914 83.6793C324.914 85.1227 326.079 86.2917 327.508 86.2917H355.944C357.373 86.2917 358.538 85.1227 358.538 83.6793C358.538 82.2461 357.373 81.0771 355.944 81.0771Z" fill="#E6E6E6"/>
<path d="M403.573 81.0771H375.137C373.708 81.0771 372.543 82.2461 372.543 83.6793C372.543 85.1227 373.708 86.2917 375.137 86.2917H403.573C405.001 86.2917 406.167 85.1227 406.167 83.6793C406.167 82.2461 405.001 81.0771 403.573 81.0771Z" fill="#E6E6E6"/>
<path d="M451.201 81.0771H422.766C421.337 81.0771 420.172 82.2461 420.172 83.6793C420.172 85.1227 421.337 86.2917 422.766 86.2917H451.201C452.63 86.2917 453.796 85.1227 453.796 83.6793C453.796 82.2461 452.63 81.0771 451.201 81.0771Z" fill="#E6E6E6"/>
<path d="M583.297 252.179H324.887V254.212H583.297V252.179Z" fill="#E6E6E6"/>
<path d="M569.644 103.773C551.251 104.251 537.53 109.679 528.835 119.884C525.623 123.666 524.316 126.644 522.937 129.795C521.569 132.905 520.171 136.107 516.918 140.285V136.829C518.935 133.861 520.019 131.381 521.083 128.972C522.522 125.678 523.89 122.568 527.295 118.573C536.375 107.9 550.603 102.238 569.583 101.74L569.644 103.773Z" fill="#CCCCCC"/>
<path d="M522.937 129.795C521.569 132.906 520.17 136.107 516.917 140.285C516.532 140.783 516.117 141.302 515.671 141.84C503.936 155.837 488.259 160.432 475.653 164.132C474.862 164.366 474.092 164.579 473.342 164.782C462.134 167.832 455.993 167.72 451.423 167.649C446.832 167.567 443.802 167.517 438.381 170.627C428.44 176.309 424.366 184.624 420.424 192.664C416.36 200.938 412.53 208.755 402.761 212.425C395.981 214.966 391.218 213.705 386.182 212.384C381.855 211.235 374.056 182.963 367.151 178.84C352.892 181.839 344.228 228.577 333.415 253.602L331.551 252.789C342.647 227.133 351.788 179.999 366.725 176.848C373.383 175.445 382.149 209.213 386.699 210.412C391.421 211.662 395.87 212.831 402.051 210.514C411.07 207.139 414.556 200.013 418.6 191.77C422.491 183.841 426.899 174.856 437.367 168.858C443.275 165.474 446.711 165.535 451.453 165.616C455.973 165.697 462.074 165.799 473.342 162.678C473.91 162.516 474.487 162.353 475.085 162.18C487.428 158.561 502.781 154.058 514.11 140.539C515.225 139.208 516.147 137.978 516.917 136.829C518.934 133.861 520.018 131.381 521.082 128.972C522.521 125.678 524.315 126.644 522.937 129.795Z" fill="#0079F9"/>
<path d="M414.87 362.345C414.067 359.543 412.694 357.153 411.058 355.449L405.116 328.278L392.164 331.461L399.586 358.68C399.098 360.983 399.196 363.732 399.998 366.534C401.831 372.935 406.645 377.186 410.752 376.029C414.859 374.873 416.702 368.746 414.87 362.345Z" fill="#FFB6B6"/>
<path d="M413.081 184.114C413.081 184.114 392.626 183.694 387.425 198.635C382.691 212.235 377.079 249.597 380.113 251.756L393.026 343.732L411.44 341.194L406.714 230.836L413.081 184.114Z" fill="#0079F9"/>
<path d="M428.091 592.118H410.262L401.781 524.294L428.094 524.295L428.091 592.118Z" fill="#FFB6B6"/>
<path d="M397.986 587.056H432.143V608.314H376.48C376.48 605.522 377.037 602.758 378.118 600.179C379.198 597.6 380.782 595.256 382.779 593.282C384.776 591.308 387.147 589.742 389.756 588.674C392.366 587.606 395.162 587.056 397.986 587.056Z" fill="#1B1B1B"/>
<path d="M497.923 592.118H481.465L473.637 524.294L497.926 524.295L497.923 592.118Z" fill="#FFB6B6"/>
<path d="M468.209 587.056H502.987V608.314H446.313C446.312 605.522 446.879 602.758 447.979 600.179C449.08 597.6 450.693 595.256 452.726 593.282C454.759 591.308 457.173 589.742 459.83 588.674C462.486 587.606 465.334 587.056 468.209 587.056Z" fill="#1B1B1B"/>
<path d="M505.011 344.105L503.576 444.71L502.139 576.933L470.547 574.058L454.751 391.533L434.647 574.058H402.032L398.746 390.095L410.235 349.853L505.011 344.105Z" fill="#1B1B1B"/>
<path d="M469.292 165.779L435.851 163.746L424.704 177.977L400.383 187.125L411.53 295.888L406.463 360.943C406.463 360.943 477.399 417.866 507.801 354.844L499.694 278.608L501.72 190.175L478.413 180.01L469.292 165.779Z" fill="#0079F9"/>
<path d="M533.669 141.038C534.032 144.562 533.571 147.876 532.51 150.533L538.081 183.886L522.181 186.08L518.242 152.011C516.662 149.628 515.536 146.478 515.173 142.954C514.344 134.903 517.813 127.948 522.92 127.419C528.028 126.89 532.84 132.987 533.669 141.038Z" fill="#FFB6B6"/>
<path d="M505.977 193.991C500.496 184.594 486.9 183.708 480.811 192.72C479.146 195.184 479.61 197.954 479.212 201.281C477.525 215.406 504.51 257.147 523.183 261.952C525.633 262.583 527.029 265.234 529.502 265.767C536.828 267.347 543.649 261.514 543.254 254.008L538.182 157.739L516.874 165.029L518.237 215.01L505.977 193.991Z" fill="#0079F9"/>
<path d="M456.042 161.115C472.311 161.115 485.499 147.886 485.499 131.568C485.499 115.25 472.311 102.021 456.042 102.021C439.774 102.021 426.586 115.25 426.586 131.568C426.586 147.886 439.774 161.115 456.042 161.115Z" fill="#FFB6B6"/>
<path d="M483.482 109.871C483.229 109.932 487.36 105.894 487.536 105.805C491.589 103.772 487.424 123.645 484.495 123.086C477.29 121.713 474.179 118.989 471.382 125.789C470.602 127.68 470.116 129.815 468.596 131.167C466.508 133.006 463.042 132.854 461.34 135.049C459.972 136.818 460.367 139.42 461.38 141.413C462.394 143.415 463.934 145.113 464.856 147.156C465.89 149.453 461.482 156.761 459.8 160.868V160.878L459.789 160.902C459.343 161.979 458.28 158.876 457.159 158.567C455.817 158.196 453.84 161.374 451.703 160.797C451.693 160.797 451.682 160.787 451.672 160.787C449.635 160.217 447.365 159.608 445.116 158.998H445.106C438.772 157.27 437.171 159.75 436.867 159.679L432.935 155.552C431.586 154.566 431.738 151.385 430.787 150.53C430.008 149.832 428.068 151.446 427.497 150.775C424.693 147.481 424.048 144.187 422.396 137.682C420.886 131.736 417.755 113.937 424.189 113.134C430.26 112.372 425.821 103.894 431.932 104.21C431.567 102.664 432.246 101.008 433.35 99.8691C434.445 98.7205 435.904 98.009 437.373 97.3991C444.619 94.431 443.413 91.8797 451.054 93.6077C451.814 92.5404 462.85 93.2518 464.228 93.6077C464.329 93.6279 460.813 94.4717 466.255 93.6077C466.052 94.858 469.497 95.4068 469.295 96.6571C470.055 95.6304 478.223 101.526 478.415 102.756C478.669 104.291 476.358 103.508 477.898 103.742C478.81 103.884 480.371 105.744 480.219 106.669C480.878 105.775 481.536 104.891 482.205 103.996C482.327 104.006 482.438 104.027 482.56 104.047C485.641 104.636 482.109 114.738 482.236 111.589C482.469 105.805 486.553 109.19 483.482 109.871Z" fill="#2F2E41"/>
<path d="M596.326 267.133C596.553 267.694 597.336 267.694 597.563 267.133C599.146 263.22 601.398 258.838 603.849 255.489C604.241 254.953 603.7 254.237 603.077 254.463L597.824 256.369V223.754H596.066V256.369L590.811 254.463C590.188 254.237 589.647 254.953 590.039 255.489C592.49 258.838 594.743 263.22 596.326 267.133Z" fill="#3F3D56"/>
<path d="M630.775 300.714C630.605 301.295 631.218 301.784 631.744 301.486C635.409 299.409 639.89 297.383 643.885 296.289C644.525 296.114 644.545 295.215 643.917 295.004L638.622 293.22L658.843 267.679L657.466 266.582L637.245 292.123L634.312 287.352C633.964 286.786 633.096 287.01 633.071 287.674C632.914 291.825 631.961 296.662 630.775 300.714Z" fill="#3F3D56"/>
<path d="M614.325 322.479H580.152C578.03 322.479 576.304 320.748 576.304 318.62C571.786 305.373 571.876 292.394 576.304 279.665C576.304 277.537 578.03 275.806 580.152 275.806H614.325C616.446 275.806 618.172 277.537 618.172 279.665V318.62C618.172 320.748 616.446 322.479 614.325 322.479Z" fill="#E6E6E6"/>
<path d="M587.476 276.955C581.941 276.955 577.453 281.456 577.453 287.009V317.793C577.453 319.746 579.031 321.329 580.978 321.329H599.876C609.349 321.329 617.028 313.626 617.028 304.124V280.491C617.028 278.538 615.45 276.955 613.503 276.955H587.476Z" fill="white"/>
<path d="M605.195 288.276H589.196C588.793 288.276 588.465 287.947 588.465 287.542C588.465 287.138 588.793 286.809 589.196 286.809H605.195C605.599 286.809 605.927 287.138 605.927 287.542C605.927 287.947 605.599 288.276 605.195 288.276Z" fill="#E6E6E6"/>
<path d="M605.195 303.923H589.196C588.793 303.923 588.465 303.593 588.465 303.189C588.465 302.784 588.793 302.455 589.196 302.455H605.195C605.599 302.455 605.927 302.784 605.927 303.189C605.927 303.593 605.599 303.923 605.195 303.923Z" fill="#E6E6E6"/>
<path d="M613.78 296.104H580.61C580.207 296.104 579.879 295.775 579.879 295.37C579.879 294.966 580.207 294.637 580.61 294.637H613.78C614.183 294.637 614.512 294.966 614.512 295.37C614.512 295.775 614.183 296.104 613.78 296.104Z" fill="#E6E6E6"/>
<path d="M614.174 310.284H600.333C599.93 310.284 599.602 309.955 599.602 309.55C599.602 309.145 599.93 308.816 600.333 308.816H614.174C614.577 308.816 614.905 309.145 614.905 309.55C614.905 309.955 614.577 310.284 614.174 310.284Z" fill="#E6E6E6"/>
<path d="M304.099 31.1297C311.074 31.1297 316.729 25.5772 316.729 18.7279C316.729 11.8786 311.074 6.32617 304.099 6.32617C297.123 6.32617 291.469 11.8786 291.469 18.7279C291.469 25.5772 297.123 31.1297 304.099 31.1297Z" fill="#0079F9"/>
<path d="M405.349 14.4854H337.366C335.034 14.4854 333.137 12.5821 333.137 10.2427C333.137 7.90335 335.034 6 337.366 6H405.349C407.681 6 409.578 7.90335 409.578 10.2427C409.578 12.5821 407.681 14.4854 405.349 14.4854Z" fill="#F2F2F2"/>
<path d="M458.402 28.8458H337.366C335.034 28.8458 333.137 26.9424 333.137 24.6031C333.137 22.2637 335.034 20.3604 337.366 20.3604H458.402C460.735 20.3604 462.632 22.2637 462.632 24.6031C462.632 26.9424 460.735 28.8458 458.402 28.8458Z" fill="#F2F2F2"/>
</g>
<defs>
<clipPath id="clip0_2930_67001">
<rect width="60.7228" height="14.1721" fill="white" transform="translate(144.723 416.04)"/>
</clipPath>
<clipPath id="clip1_2930_67001">
<rect width="56.6746" height="13.1598" fill="white" transform="translate(793.445 429.2)"/>
</clipPath>
<clipPath id="clip2_2930_67001">
<rect width="367.373" height="602.314" fill="white" transform="translate(291.469 6)"/>
</clipPath>
</defs>
</svg>
