<svg fill="#fff" height="195" stroke="#fff" viewBox="-24.96 -24.96 101.92 101.92" width="195" xmlns="http://www.w3.org/2000/svg"><path d="m15.2 2.2a1.63 1.63 0 0 1 1.7 1.7v1.1a1.63 1.63 0 0 1 -1.7 1.7h-5.1a3.4 3.4 0 0 0 -3.4 3.2v32a3.4 3.4 0 0 0 3.2 3.4h32a3.4 3.4 0 0 0 3.4-3.2v-5.3a1.63 1.63 0 0 1 1.7-1.7h1.1a1.63 1.63 0 0 1 1.7 1.7v6.2a6.81 6.81 0 0 1 -6.8 6.8h-34a6.81 6.81 0 0 1 -6.8-6.8v-34a6.81 6.81 0 0 1 6.8-6.8z" fill-rule="evenodd"/><path d="m40.4 25.4 3.1-3.1a1 1 0 0 0 0-1.5l-12.5-12.6a1 1 0 0 0 -1.5 0l-3.1 3.1a1 1 0 0 0 0 1.5l12.5 12.5a1 1 0 0 0 1.5.1z"/><path d="m47.4 18.3 1.5-1.5a1 1 0 0 0 0-1.5l-12.4-12.6a1 1 0 0 0 -1.5 0l-1.5 1.5a1 1 0 0 0 0 1.5l12.5 12.6a1 1 0 0 0 1.4 0z"/><path d="m36.8 28.9c.6-.6.5-1.1.1-1.5l-12.5-12.5a1 1 0 0 0 -1.5 0l-.1.1a1 1 0 0 0 0 1.5l12.5 12.5a1 1 0 0 0 1.5-.1z"/><path d="m32.4 33.3.7-.7a1 1 0 0 0 0-1.5l-12.4-12.6a1 1 0 0 0 -1.5 0l-.7.7a1 1 0 0 0 0 1.5l12.5 12.5c.3.6.9.6 1.4.1z"/><path d="m25.7 40.1 3.1-3.1a1 1 0 0 0 0-1.5l-12.5-12.6a1 1 0 0 0 -1.5 0l-3.1 3.1a1 1 0 0 0 0 1.5l12.5 12.5a1 1 0 0 0 1.5.1z"/></svg>