<svg enable-background="new 0 0 216.11 216.11" viewBox="0 0 216.11 216.11" xmlns="http://www.w3.org/2000/svg"><path d="m210.916 184.037c7.418 7.418 7.418 19.441 0 26.879-3.729 3.709-8.579 5.563-13.45 5.563-4.85 0-9.721-1.854-13.429-5.563l-75.787-75.787-75.808 75.787c-3.709 3.709-8.579 5.563-13.429 5.563-4.87 0-9.721-1.854-13.45-5.563-7.418-7.438-7.418-19.461 0-26.879l75.808-75.787-75.808-75.808c-7.418-7.418-7.418-19.441 0-26.879 7.438-7.418 19.461-7.418 26.879 0l75.808 75.808 75.787-75.808c7.418-7.418 19.441-7.418 26.879 0 7.418 7.438 7.418 19.461 0 26.879l-75.787 75.808z" fill="#5b5c5e"/></svg>