<svg enable-background="new 0 0 247.202 216.49" viewBox="0 0 247.202 216.49" xmlns="http://www.w3.org/2000/svg"><g fill="#999b9d"><path d="m247.206 108.403c-7.52-9.3-15.87-18.21-24.88-26.44-11.6-10.61-24.28-20.1-37.61-27.88-6.26-3.66-12.87-6.72-19.61-9.41l-11.24 32.36c8.15 7.95 13.24 19 13.24 31.26 0 22.65-17.15 41.01-39.16 43.37l-9.91 28.53c2.75.15 5.51.22 8.27.15 20.28-.51 40.06-7.36 57.66-17.44 14.04-8.03 26.8-18.08 38.79-28.89 2.37-2.13 26.26-23.37 24.45-25.61zm-55.96-50.11c.11 0 .22 0 .22.11.1 0 .1 0 .1.22-.21-.12-.32-.22-.32-.33z"/><path d="m54.982 157.977v-.111c-.108 0-.217 0-.217 0 .109.111.217.111.217.111z"/><path d="m191.566 58.623c-.21-.12-.32-.22-.32-.33.11 0 .22 0 .22.11.1 0 .1 0 .1.22z"/><path d="m161.056.443c-4.18-1.44-8.85.77-10.32 5l-11.12 32.02c-3.55-.62-7.13-1.06-10.74-1.24-20.27-1.01-40.55 4.33-58.69 13.43-13.86 6.94-26.54 16.04-38.2 26.22-3.18 2.77-33.64 30.68-31.99 32.53 19.34 21.54 41.45 42.79 67.11 56.63 7.83 4.23 16.09 7.73 24.61 10.32l-.89 2.57-9.65 27.79c-1.48 4.23.76 8.85 5 10.32.88.31 1.77.46 2.66.46 3.36 0 6.5-2.11 7.66-5.46l10.72-30.84 9.91-28.53 25.92-74.63 11.24-32.36 11.77-33.91c1.48-4.24-.76-8.86-5-10.32zm-59.24 145.84c-13.27-7.48-22.26-21.61-22.26-37.99 0-24.13 19.59-43.72 43.72-43.72 2.3 0 4.55.18 6.74.53l-.96 2.76z"/></g></svg>