<svg width="18" height="18" viewBox="0 0 18 18" fill="none" xmlns="http://www.w3.org/2000/svg">
<path fill-rule="evenodd" clip-rule="evenodd" d="M15.3 9.00001C15.3 12.4794 12.4794 15.3 8.99998 15.3C5.52058 15.3 2.69998 12.4794 2.69998 9.00001C2.69998 5.52062 5.52058 2.70001 8.99998 2.70001C12.4794 2.70001 15.3 5.52062 15.3 9.00001ZM16.65 9.00001C16.65 13.225 13.2249 16.65 8.99998 16.65C4.775 16.65 1.34998 13.225 1.34998 9.00001C1.34998 4.77503 4.775 1.35001 8.99998 1.35001C13.2249 1.35001 16.65 4.77503 16.65 9.00001ZM6.74998 9.00001C6.74998 7.75737 7.75734 6.75001 8.99998 6.75001C9.52288 6.75001 10.0024 6.92754 10.3843 7.22606C10.6779 7.45566 11.1022 7.4037 11.3318 7.11001C11.5614 6.81632 11.5094 6.39209 11.2157 6.1625C10.6049 5.68497 9.83473 5.40001 8.99998 5.40001C7.01175 5.40001 5.39998 7.01178 5.39998 9.00001C5.39998 10.9882 7.01175 12.6 8.99998 12.6C9.83473 12.6 10.6049 12.3151 11.2157 11.8375C11.5094 11.6079 11.5614 11.1837 11.3318 10.89C11.1022 10.5963 10.6779 10.5443 10.3843 10.774C10.0024 11.0724 9.52288 11.25 8.99998 11.25C7.75734 11.25 6.74998 10.2426 6.74998 9.00001Z" fill="#565656"/>
</svg>
