<svg fill="#4273b8" height="800" viewBox="0 0 32 32" width="800" xmlns="http://www.w3.org/2000/svg"><path d="m0 16q0-3.232 1.28-6.208t3.392-5.12 5.12-3.392 6.208-1.28q3.264 0 6.24 1.28t5.088 3.392 3.392 5.12 1.28 6.208q0 3.264-1.28 6.208t-3.392 5.12-5.12 3.424-6.208 1.248-6.208-1.248-5.12-3.424-3.392-5.12-1.28-6.208zm4 0q0 3.264 1.6 6.048t4.384 4.352 6.016 1.6 6.016-1.6 4.384-4.352 1.6-6.048-1.6-6.016-4.384-4.352-6.016-1.632-6.016 1.632-4.384 4.352-1.6 6.016zm6.048 2.4q-.128-.576.096-1.152t.736-.896 1.12-.352h2.016v-5.984q0-.832.576-1.408t1.408-.608 1.408.608.608 1.408v5.984h1.984q.608 0 1.12.352t.736.896q.224.576.096 1.152t-.544 1.024l-4 4q-.576.576-1.408.576t-1.408-.576l-4-4q-.448-.416-.544-1.024z"/></svg>