<svg width="18" height="18" viewBox="0 0 18 18" fill="none" xmlns="http://www.w3.org/2000/svg">
<path fill-rule="evenodd" clip-rule="evenodd" d="M3.4305 1.83C3.32667 1.7226 3.20249 1.63695 3.06521 1.57806C2.92793 1.51917 2.78029 1.4882 2.63092 1.48697C2.48154 1.48575 2.33341 1.51428 2.19518 1.57091C2.05695 1.62754 1.93138 1.71114 1.8258 1.81682C1.72023 1.9225 1.63675 2.04814 1.58025 2.18643C1.52375 2.32471 1.49535 2.47286 1.49672 2.62224C1.49809 2.77161 1.52919 2.91922 1.58822 3.05645C1.64724 3.19367 1.733 3.31777 1.8405 3.4215L3.309 4.8915C1.221 6.375 0 8.2965 0 8.9955C0 10.197 3.6 15 9 15C10.2565 14.997 11.4995 14.7399 12.654 14.244L14.589 16.182C14.6927 16.285 14.816 16.3662 14.9515 16.4209C15.087 16.4756 15.2321 16.5027 15.3782 16.5006C15.5244 16.4985 15.6686 16.4672 15.8025 16.4087C15.9364 16.3501 16.0573 16.2654 16.158 16.1595C16.2639 16.0586 16.3487 15.9376 16.4073 15.8036C16.4658 15.6696 16.4971 15.5252 16.4992 15.379C16.5013 15.2327 16.4742 15.0875 16.4195 14.9519C16.3647 14.8162 16.2835 14.6929 16.1805 14.589L3.4305 1.83ZM11.286 12.876L5.124 6.708C4.61541 7.56767 4.40719 8.57208 4.53212 9.56308C4.65705 10.5541 5.10804 11.4754 5.81407 12.1819C6.5201 12.8885 7.44108 13.3401 8.43199 13.4658C9.4229 13.5914 10.426 13.384 11.286 12.876ZM13.5 8.9955C13.5 9.2715 13.476 9.5415 13.428 9.804L15.8145 12.192C17.2095 10.9125 18 9.558 18 8.997C18 7.7955 14.4 2.9925 9 2.9925C8.2545 2.9925 7.545 3.0825 6.873 3.2445L8.193 4.5645C8.84203 4.44646 9.50907 4.4725 10.1469 4.6408C10.7848 4.80909 11.3778 5.11552 11.8841 5.5384C12.3904 5.96128 12.7976 6.49027 13.0768 7.08793C13.3561 7.68559 13.5005 8.33582 13.5 8.9955Z" fill="#979797"/>
</svg>
