<svg fill="#fff" height="193" stroke="#fff" stroke-width=".00024" viewBox="-11.52 -11.52 47.04 47.04" width="193" xmlns="http://www.w3.org/2000/svg"><path d="m12.29 5.21 1.5 1.5a1 1 0 0 0 1.42 0 1 1 0 0 0 .13-1.21h3.66a1 1 0 0 0 0-2h-3.66a1 1 0 0 0 -.13-1.21 1 1 0 0 0 -1.42 0l-1.5 1.5a1 1 0 0 0 -.21.33 1 1 0 0 0 0 .76 1 1 0 0 0 .21.33zm10.63 3.91a1 1 0 0 0 -.21-.33l-1.5-1.5a1 1 0 0 0 -1.42 0 1 1 0 0 0 -.13 1.21h-3.66a1 1 0 0 0 0 2h3.66a1 1 0 0 0 .13 1.21 1 1 0 0 0 1.42 0l1.5-1.5a1 1 0 0 0 .21-.33 1 1 0 0 0 0-.76zm-11.92.88a4 4 0 1 0 4 4 4 4 0 0 0 -4-4zm0 6a2 2 0 1 1 2-2 2 2 0 0 1 -2 2zm9-3a1 1 0 0 0 -1 1v5a1 1 0 0 1 -1 1h-14a1 1 0 0 1 -1-1v-8a1 1 0 0 1 1-1h2a1 1 0 0 0 1-.69l.54-1.62a1 1 0 0 1 .9-.69h1.56a1 1 0 0 0 0-2h-1.56a3 3 0 0 0 -2.85 2.06l-.31.94h-1.28a3 3 0 0 0 -3 3v8a3 3 0 0 0 3 3h14a3 3 0 0 0 3-3v-5a1 1 0 0 0 -1-1z"/></svg>