<svg height="800" viewBox="0 0 50 50" width="800" xmlns="http://www.w3.org/2000/svg"><circle cx="25" cy="25" fill="#231f20" r="20.5"/><circle cx="25" cy="25" fill="#ff8e5a" r="19.5"/><circle cx="25" cy="25" fill="#231f20" r="15.5"/><circle cx="25" cy="25" fill="#ffba50" r="14.5"/><circle cx="25" cy="25" fill="#231f20" r="9.5"/><circle cx="25" cy="25" fill="#fff" r="8.5"/><path d="m27.5 21.164-2.982 2.982-.916-.917a2 2 0 0 0 -2.829 2.829l2.331 2.33a2 2 0 0 0 2.828 0l4.4-4.4a2 2 0 0 0 -2.832-2.824z" fill="#231f20"/><path d="m29.621 23.285-4.4 4.4a1.025 1.025 0 0 1 -1.414 0l-2.331-2.33a1 1 0 0 1 1.424-1.418l1.269 1.269a.5.5 0 0 0 .707 0l3.336-3.335a1 1 0 1 1 1.414 1.414z" fill="#7cc05b"/></svg>