<svg id="Layer_1" data-name="Layer 1" xmlns="http://www.w3.org/2000/svg" viewBox="0 0 20 20"><title>Home fılled ın green</title><path d="M0,10A10,10,0,1,1,10,20,10,10,0,0,1,0,10Z" style="fill:#44be43"/><path d="M10,4.36a.36.36,0,0,0-.25,0,.45.45,0,0,0-.14.1c-.11.09-.24.22-.44.42l-3.6,3.6a2,2,0,0,0-.34.37,1,1,0,0,0-.09.21,2.18,2.18,0,0,0,0,.51v3.94a.54.54,0,0,0,0,.18.39.39,0,0,0,.18.18.49.49,0,0,0,.17,0H7.88V11.76a1.95,1.95,0,0,1,3.89,0v2.15h2.6a.33.33,0,0,0,.17-.18V9.57a4.34,4.34,0,0,0,0-.51,1,1,0,0,0-.09-.21,3,3,0,0,0-.34-.37l-3.6-3.6-.44-.42c-.1-.09-.14-.1-.15-.1ZM9.33,3.21a1.54,1.54,0,0,1,1.55.33c.15.12.31.29.5.47L15,7.63h0a3.64,3.64,0,0,1,.48.56,1.84,1.84,0,0,1,.23.56,3,3,0,0,1,.06.74v4.09a1.55,1.55,0,0,1-.16.63,1.58,1.58,0,0,1-.7.7,1.72,1.72,0,0,1-.63.16h-3a.73.73,0,0,1-.73-.73h0V11.76a.74.74,0,0,0-1.48,0v2.63a.73.73,0,0,1-.73.73h-3A1.72,1.72,0,0,1,4.74,15a1.58,1.58,0,0,1-.7-.7,1.55,1.55,0,0,1-.16-.63V9.52a3,3,0,0,1,.06-.74,1.62,1.62,0,0,1,.23-.56,3.23,3.23,0,0,1,.48-.56h0L8.28,4c.19-.18.35-.35.5-.47A1.4,1.4,0,0,1,9.33,3.21Z" style="fill:#fff;fill-rule:evenodd"/></svg>