<svg enable-background="new 0 0 216.11 216.11" viewBox="0 0 216.11 216.11" xmlns="http://www.w3.org/2000/svg"><g fill="#4273b8"><path d="m183.695 32.429c-41.732-41.702-109.563-41.702-151.266 0-41.702 41.702-41.702 109.563 0 151.266 20.851 20.851 48.235 31.262 75.618 31.262s54.796-10.411 75.647-31.262c20.151-20.18 31.262-47.039 31.262-75.618.001-28.608-11.11-55.467-31.261-75.648zm-75.647-14.902c23.184 0 46.397 8.836 64.041 26.479 35.316 35.316 35.316 92.795 0 128.111-17.06 17.06-39.807 26.48-64.041 26.48-24.205 0-46.952-9.419-64.041-26.48-35.316-35.316-35.316-92.795 0-128.111 17.643-17.642 40.857-26.479 64.041-26.479z"/><path d="m161.996 151.123c0 3.943-3.364 7.083-7.386 6.713h-.001l-3.566-1.453-38.764-15.839c-2.63-1.075-5.577-1.074-8.207.001l-39.289 16.063-2.892 1.169c-1.184.206-2.369.059-3.547-.445-2.168-.926-3.833-2.899-4.161-5.233-.297-2.113.389-4.083 1.685-5.484l2.083-1.573 23.015-17.291 17.875-13.425 2.352-1.768c2.008-1.199 4.36-1.888 6.863-1.888 2.727 0 5.274.809 7.402 2.218l1.169.869.135.12 18.535 13.92 23.135 17.381.03.015 1.558 1.169.03.03c1.212 1.21 1.946 2.888 1.946 4.731z"/><path d="m161.996 98.7c0 3.943-3.364 7.083-7.386 6.713h-.001l-3.566-1.453-38.764-15.84c-2.63-1.075-5.577-1.074-8.207.001l-39.289 16.063-2.892 1.169c-1.184.206-2.369.059-3.547-.445-2.168-.926-3.833-2.899-4.161-5.233-.297-2.113.389-4.083 1.685-5.484l2.083-1.573 23.015-17.291 17.874-13.427 2.352-1.768c2.008-1.199 4.36-1.888 6.863-1.888 2.727 0 5.274.809 7.402 2.218l1.169.869.135.12 18.535 13.92 23.135 17.381.03.015 1.558 1.169.03.03c1.213 1.213 1.947 2.891 1.947 4.734z"/></g><path d="m54.42 36.49-.98.76c-3.11 2.4-6.02 4.95-8.64 7.57-16.92 16.92-26.23 39.37-26.24 63.22v1.09h-18.56v-1.09c.01-32.82 14.74-63.5 40.43-84.17l.76-.62z" fill="#e52e25"/><path d="m185 32.29-13.13 13.13-.78-.77c-16.9-16.81-39.29-26.07-63.06-26.07-19.88 0-38.74 6.44-54.53 18.62l-.76.59-13.2-13.2.95-.77c19.1-15.35 43.1-23.81 67.57-23.82 28.71.02 55.76 11.21 76.16 31.51z" fill="#f89820"/><path d="m216.11 108.05c0 28.3-10.94 55.09-30.81 75.44l-.77.79-13.12-13.12.75-.77c16.36-16.81 25.37-38.94 25.37-62.31 0-23.94-9.37-46.44-26.38-63.38l-.78-.78 13.13-13.13.78.77c20.55 20.56 31.81 47.67 31.83 76.49z" fill="#33a852"/><path d="m186.01 182.76-1.61 1.66c-20.43 20.44-47.54 31.69-76.34 31.69-59.56 0-108.03-48.45-108.06-108v-1.1h18.56v1.1c.03 49.32 40.18 89.44 89.5 89.44 23.87-.02 46.33-9.34 63.23-26.24l1.6-1.66z" fill="#4273b8"/></svg>