<svg enable-background="new 0 0 500 492.964" viewBox="0 0 500 492.964" xmlns="http://www.w3.org/2000/svg"><g fill="#97A0A8"><path d="m326.989 395.844h-153.249c-9.695 0-17.553-7.859-17.553-17.553 0-9.694 7.859-17.553 17.553-17.553h153.249c9.694 0 17.553 7.859 17.553 17.553.001 9.694-7.858 17.553-17.553 17.553z"/><path d="m468.37 163.73-22.48-21.02-.52-.48-122.96-114.95c-38.57-36.04-99.35-36.41-138.4-.9l-101.65 92.52-49 44.59c-21.2 19.29-33.36 46.8-33.36 75.47v151.95c0 56.26 45.79 102.05 102.06 102.05h296.6c56.28 0 102.07-45.79 102.07-102.05v-152.61c0-28.17-11.8-55.33-32.36-74.57zm-1.56 227.18c0 37.58-30.57 68.13-68.15 68.13h-296.6c-37.57 0-68.14-30.55-68.14-68.13v-151.95c0-19.13 8.12-37.49 22.29-50.4l49.88-45.4.41-.38 100.34-91.33c12.92-11.74 29.39-17.59 45.86-17.59 16.78 0 33.55 6.09 46.55 18.23l126.08 117.86.56.52 19.32 18.06c13.73 12.83 21.6 30.96 21.6 49.77z"/><path d="m445.21 188.53-19.32-18.05v-.01z"/></g></svg>