<svg enable-background="new 0 0 500 492.964" viewBox="0 0 500 492.964" xmlns="http://www.w3.org/2000/svg"><path d="m398.663 492.964h-296.599c-56.272 0-102.064-45.791-102.064-102.05v-151.95c0-28.673 12.163-56.18 33.363-75.471l150.651-137.11c39.047-35.51 99.825-35.139 138.395.901l145.961 136.447c20.564 19.239 32.356 46.401 32.356 74.57v152.612c.001 56.26-45.791 102.051-102.063 102.051zm-145.961-459.108c-16.47 0-32.939 5.856-45.858 17.596l-150.638 137.109c-14.164 12.905-22.286 31.27-22.286 50.403v151.95c0 37.577 30.568 68.131 68.144 68.131h296.599c37.577 0 68.144-30.554 68.144-68.131v-152.613c0-18.815-7.87-36.941-21.597-49.767l-145.961-136.447c-12.998-12.136-29.773-18.231-46.547-18.231z" fill="#2A87EA"/><path d="m326.989 395.844h-153.249c-9.695 0-17.553-7.859-17.553-17.553 0-9.694 7.859-17.553 17.553-17.553h153.249c9.694 0 17.553 7.859 17.553 17.553.001 9.694-7.858 17.553-17.553 17.553z" fill="#2A87EA"/><path d="m106.499 142.783 100.345-91.332c12.919-11.739 29.388-17.596 45.858-17.596 16.774 0 33.549 6.095 46.547 18.232l126.084 117.864c1.058-1.338 2.183-2.62 3.218-3.975 5.442-7.122 10.729-14.403 15.635-21.909l1.126-1.756.061-.079-122.963-114.948c-38.57-36.04-99.348-36.411-138.395-.901l-101.488 92.365c2.517 2.166 5.36 3.935 7.745 6.247 5.77 5.585 11.025 11.673 16.227 17.788z" fill="#2A87EA"/><path d="m260.231 459.045h-158.167c-37.577 0-68.144-30.554-68.144-68.131v-151.95c0-19.133 8.122-37.497 22.286-50.403l49.883-45.401c-5.896-6.93-11.996-13.707-18.644-19.921-1.628-1.524-3.39-2.888-5.08-4.343l-49.001 44.596c-21.201 19.292-33.364 46.799-33.364 75.472v151.95c0 56.259 45.792 102.051 102.064 102.051h158.167z" fill="#2A87EA"/><path d="m194.63 459.045h190.969v33.92h-190.969z" fill="#2A87EA"/><path d="m468.371 163.731-22.483-21.018-.301.437c-.871 1.368-1.772 2.72-2.681 4.064-5.328 7.874-10.933 15.589-16.827 23.045l-.186.215 19.318 18.06c13.727 12.826 21.597 30.952 21.597 49.767v152.612c0 37.577-30.568 68.131-68.144 68.131h-12.387v33.92h12.387c56.272 0 102.064-45.792 102.064-102.051v-152.612c-.001-28.169-11.794-55.331-32.357-74.57z" fill="#2A87EA"/></svg>