<svg fill="none" height="192" stroke="#fff" viewBox="0 0 24 24" width="192" xmlns="http://www.w3.org/2000/svg"><g stroke="#fff" stroke-linecap="round" stroke-width="1.5"><path d="m6 11.6825c3.31371-3.57667 8.6863-3.57667 12 0m-9.99998 2.1585c2.20918-2.3844 5.79088-2.3844 7.99998 0m-6 2.159c1.1046-1.1922 2.8955-1.1922 4 0"/><path d="m22 12.2039v1.5211c0 3.9008 0 5.8513-1.1716 7.0631-1.1715 1.2119-3.0572 1.2119-6.8284 1.2119h-4c-3.77124 0-5.65685 0-6.82843-1.2119-1.17157-1.2118-1.17157-3.1623-1.17157-7.0631v-1.5211c0-2.28841 0-3.43262.5192-4.38116.5192-.94853 1.46775-1.53723 3.36483-2.71461l2-1.24126c2.00536-1.24458 3.00807-1.86687 4.11597-1.86687s2.1106.62229 4.116 1.86687l2 1.24125c1.8971 1.17739 2.8456 1.76609 3.3648 2.71462"/></g></svg>