<svg enable-background="new 0 0 216.11 216.11" viewBox="0 0 216.11 216.11" xmlns="http://www.w3.org/2000/svg"><g fill="#999b9d"><path d="m184.511 31.614c-42.182-42.152-110.745-42.152-152.897 0-42.152 42.152-42.152 110.745 0 152.897 21.076 21.076 48.755 31.599 76.434 31.599s55.387-10.523 76.463-31.599c20.368-20.398 31.599-47.546 31.599-76.434 0-28.917-11.231-56.065-31.599-76.463zm-76.463-15.063c23.434 0 46.898 8.931 64.731 26.765 35.696 35.697 35.696 93.796 0 129.492-17.244 17.244-40.236 26.765-64.731 26.765-24.466 0-47.458-9.521-64.731-26.765-35.696-35.697-35.696-93.796 0-129.492 17.833-17.833 41.296-26.765 64.731-26.765z"/><path d="m162.578 151.587c0 3.986-3.4 7.159-7.466 6.785h-.001l-3.605-1.469-39.182-16.01c-2.659-1.086-5.637-1.086-8.296.001l-39.713 16.236-2.923 1.181c-1.196.208-2.394.059-3.585-.45-2.191-.936-3.875-2.93-4.206-5.29-.3-2.136.393-4.127 1.703-5.543l2.105-1.59 23.263-17.478 18.068-13.57 2.378-1.787c2.029-1.212 4.407-1.908 6.937-1.908 2.756 0 5.331.818 7.482 2.241l1.181.878.136.121 18.735 14.07 23.384 17.568.03.015 1.575 1.181.03.03c1.227 1.229 1.97 2.926 1.97 4.788z"/><path d="m162.578 98.599c0 3.986-3.4 7.159-7.466 6.785h-.001l-3.605-1.469-39.182-16.01c-2.659-1.086-5.637-1.086-8.296.001l-39.713 16.236-2.923 1.181c-1.196.208-2.394.059-3.585-.45-2.191-.936-3.875-2.93-4.206-5.29-.3-2.136.393-4.127 1.703-5.543l2.105-1.59 23.263-17.478 18.068-13.57 2.378-1.787c2.029-1.212 4.407-1.908 6.937-1.908 2.756 0 5.331.818 7.482 2.241l1.181.878.136.121 18.735 14.07 23.384 17.568.03.015 1.575 1.181.03.03c1.227 1.229 1.97 2.925 1.97 4.788z"/></g></svg>