<svg enable-background="new 0 0 500 493.776" viewBox="0 0 500 493.776" xmlns="http://www.w3.org/2000/svg"><path d="m.125 125.362c-.003.002-.003.002 0 0-2.541-80.897 33.805-117.248 114.705-114.705-.001-.001-.001-.001 0 0 80.89-2.535 117.26 33.798 114.706 114.706 2.544 80.896-33.825 117.261-114.705 114.705-.002.002-.002.002 0 0-80.906 2.547-117.253-33.799-114.706-114.706z" fill="#33a852"/><path d="m.125 378.944c-.003.002-.003.002 0 0-2.541-80.897 33.805-117.248 114.705-114.705-.001-.001-.001-.001 0 0 80.89-2.535 117.26 33.798 114.706 114.706 2.544 80.896-33.825 117.261-114.705 114.705-.002.002-.002.002 0 0-80.906 2.547-117.253-33.799-114.706-114.706z" fill="#4273b8"/><path d="m293.405 206.47c0 .004 0 .004 0 0-59-55.406-59.003-106.811 0-162.218-.001 0-.001 0 0 0 55.406-58.991 106.814-59.017 162.219 0 59 55.403 58.999 106.834 0 162.218 0 .003 0 .003 0 0-55.408 59.011-106.81 59.01-162.219 0z" fill="#f89820"/><path d="m259.811 378.944c-.003.002-.003.002 0 0-2.541-80.897 33.806-117.248 114.705-114.705-.001-.001-.001-.001 0 0 80.89-2.535 117.26 33.798 114.706 114.706 2.544 80.896-33.825 117.261-114.705 114.705-.002.002-.002.002 0 0-80.906 2.547-117.253-33.799-114.706-114.706z" fill="#e52e25"/></svg>