<svg enable-background="new 0 0 500 252.957" viewBox="0 0 500 252.957" xmlns="http://www.w3.org/2000/svg"><path d="m396.894 133.951h-.104c-.105-.481-.21-.908-.262-1.389.104.481.209.962.366 1.389z" fill="#4273b8"/><path d="m476.398 133.951h-.104c0-2.512.052-5.024.052-7.535 0 2.512 0 5.024.052 7.535z" fill="#4273b8"/><g stroke-miterlimit="10" stroke-width=".75"><path d="m31.71 74.607c0-25.402 20.168-45.994 45.046-45.994h82.136v-28.397h-79.335c-43.52 0-78.929 32.592-78.929 72.653v67.228h31.082z" fill="#f89820" stroke="#f89820"/><path d="m73.689 224.478c-23.184 0-41.979-19.191-41.979-42.863v-41.738h-31.082v41.172c-.244 4.336-1.301 31.04 19.412 52.112 23.503 23.91 55.004 20.188 58.495 19.714h8.587v-28.396h-13.433z" fill="#e52e25" stroke="#e52e25"/><path d="m274.633 28.61c28.49 0 54.856 12.459 54.538 50.318l30.821-1.024c-.943-20.732-6.637-40.223-21.082-54.792-15.408-15.735-38.189-23.112-59.779-23.112-31.438.19-88.179.214-120.239.216v28.394z" fill="#33a852" stroke="#33a852"/><path d="m272.04 252.957c55.517 0 87.904-40.275 87.904-89.776l-.002-86.292-30.776.2-.097 91.311c0 30.854-24.583 55.957-54.798 55.957l-189.7.12v28.409z" fill="#4273b8" stroke="#4273b8"/><path d="m496.13 65.546-.157-.107c-2.46-2.244-5.862-3.527-9.526-3.527-2.513 0-4.92.641-6.961 1.71l-64.901 33.882c-5.914 3.1-10.625 7.428-14.027 12.88-1.675 2.779-2.931 5.665-3.664 8.551-.157.481-.262.909-.366 1.336-.419 1.977-.68 4.062-.68 6.146s.209 4.115.68 6.146c.104.481.209.962.366 1.389.733 2.94 1.989 5.772 3.664 8.551 3.402 5.398 8.113 9.726 14.027 12.826l64.901 33.882c2.041 1.122 4.449 1.71 6.961 1.71 3.664 0 7.066-1.229 9.526-3.527l.157-.107c2.565-2.191 3.821-4.917 3.821-8.284v-105.174c0-3.367-1.256-6.039-3.821-8.283zm-19.732 68.405c0 3.581.052 7.215.052 10.849.105 3.474.262 6.413.314 8.497.21 5.398.21 7.054-.785 7.696-.942.641-2.303.053-6.124-1.924-2.512-1.283-5.6-2.939-9.159-4.917l-32.084-18.812c-1.727-1.176-3.036-2.726-3.873-4.436-.262-.588-.576-1.229-.733-1.87 0-.053 0-.053 0-.107-.105-.427-.21-.801-.21-1.229-.104-.428-.104-.855-.104-1.283s0-.855.104-1.283c0-.428.105-.802.21-1.229.68-2.512 2.303-4.81 4.606-6.36l32.084-18.811c3.559-2.031 6.647-3.688 9.159-4.97 3.821-1.977 5.182-2.565 6.124-1.924.994.642.994 2.298.785 7.696-.052 2.084-.209 5.024-.314 8.497 0 3.634-.052 7.268-.052 10.902-.052 2.512-.052 4.97-.052 7.482 0 2.513 0 5.025.052 7.536z" fill="#4273b8" stroke="#4273b8"/><path d="m396.894 118.934c-.157.481-.262.909-.366 1.336.052-.427.157-.908.262-1.336z" fill="#4273b8" stroke="#4273b8"/><path d="m476.398 118.934c-.052 2.512-.052 4.97-.052 7.482 0-2.512-.052-4.97-.052-7.482z" fill="#4273b8" stroke="#4273b8"/></g></svg>