<svg enable-background="new 0 0 500 454.478" viewBox="0 0 500 454.478" xmlns="http://www.w3.org/2000/svg"><g fill="#97A0A8"><path d="m500.27 186c-5.54-50.13-48.51-89.56-99.79-89.56h-23.6c-83.65-.03-167.31-.05-250.96-.08v-33.3c0-6.62-1.12-13.12-3.37-20.1-5.73-17.51-18.98-31.46-36.37-38.38-3.25-1.42-6.15-2.31-8.99-2.84-10.29-2.31-18.09-2.31-28.21-.06-27.5 6.33-47.55 30.28-48.79 58.25l-.12 1.18c-.11.59-.06 1.25-.06 1.72 0 .71-.05 1.36.06 2.07l.12 1.18c.24 6.86 1.66 13.72 4.14 19.93 6.45 16.21 19.4 29.16 35.6 35.6 7.1 2.66 14.37 4.14 21.47 4.32h35.19c.27 60.22.53 120.44.8 180.66v.96c.35 2.79.78 5.56 1.35 8.27.01.05.02.1.04.15 6.91 32.48 29.4 58.82 59.19 71.28l3.75 1.41c1.12.42 2.24.82 3.36 1.19-.42 9.36 1.18 18.45 4.74 26.73 1.19 2.96 2.86 5.82 4.62 8.75 2.63 4.19 5.41 7.73 8.69 11 3.1 3.1 6.69 5.91 10.96 8.61 23.89 14.98 55.15 12.08 76.02-7.04l4.17-4.19c4.55-4.82 8.37-10.6 11.22-17.04 2.86-6.63 4.44-13.87 4.69-21.58h55.19c.26 7.65 1.84 14.96 4.66 21.48 1.19 2.98 2.85 5.84 4.61 8.76 2.63 4.19 5.42 7.73 8.69 11 3.11 3.1 6.69 5.92 10.96 8.61 23.9 14.98 55.15 12.08 76.02-7.04l4.17-4.19c4.55-4.82 8.37-10.6 11.22-17.04 2.82-6.54 4.4-13.88 4.67-21.58h30.5c-.21-69.7-.41-139.39-.61-209.09zm-403.92-100.28c0 4.19-2.66 8.1-6.5 9.64-1.54.76-3.31.76-3.91.76l-26.14-.06c-15.73-1.41-28.2-13.72-29.92-29.27-.3-1.48-.3-2.72-.3-3.73 0-1.18 0-2.42.3-4.02 1.3-10.29 6.98-19.28 15.67-24.66 10.94-6.44 24.25-6.15 34.66-.12 10.17 6.39 16.14 17.04 16.14 28.57zm157.43 326.53c-.76 1.23-1.62 2.1-2.34 2.82-.7.71-1.71 1.72-3.11 2.64-8.21 6.39-18.83 8.7-28.51 6.16-5.71-1.21-11.22-4.22-15.61-8.62-4.51-4.5-7.58-10.07-8.86-16.09-.34-1.33-.6-2.7-.75-4.1.74.02 1.49.03 2.23.03h63.83c-.56 6.24-2.9 12.17-6.88 17.16zm180.2 0c-.77 1.26-1.66 2.15-2.34 2.83-.69.7-1.7 1.72-3.11 2.63-8.2 6.39-18.82 8.68-28.5 6.16-5.71-1.21-11.22-4.22-15.62-8.62-4.51-4.51-7.57-10.08-8.86-16.09-.34-1.32-.58-2.68-.74-4.07h66.06c-.56 6.24-2.91 12.17-6.89 17.16zm-226.75-46.73c-2.45 0-4.87-.11-7.27-.31-1.12-.09-2.22-.27-3.34-.4-1.24-.16-2.48-.27-3.7-.48-1.56-.25-3.09-.6-4.63-.94-.72-.16-1.45-.29-2.16-.47-1.82-.45-3.61-.99-5.39-1.56-.38-.12-.76-.21-1.13-.34-1.97-.66-3.9-1.4-5.82-2.2-.13-.06-.28-.11-.41-.17-7.34-3.1-14.21-7.16-20.33-12.21-2.28-1.89-4.39-3.93-6.41-6.05-.19-.2-.37-.4-.55-.59-1.02-1.09-2.01-2.2-2.96-3.34-.9-1.07-1.75-2.16-2.58-3.27-.14-.19-.29-.38-.43-.57-5.73-7.75-10-16.51-12.27-26.03-1.39-127.84-1.8-162.14-1.85-164.15 0-.12-.09-3.3-.08-7.05v-.37c.09-3.04 1.86-5.34 2.71-6.24 0 0 2.11-2.85 6.28-2.85 80.66.02 161.31.04 241.97.06h13.24c39.24 0 72.02 25.29 79.62 60.01.52 59.84 1.04 119.68 1.57 179.52z"/><path d="m97.39 306.59v.96c-.04-.32-.1-.63-.13-.96z"/></g></svg>