<svg enable-background="new 0 0 500 454.478" viewBox="0 0 500 454.478" xmlns="http://www.w3.org/2000/svg"><g stroke-miterlimit="10" stroke-width=".75"><path d="m400.026 423.873c-5.706-1.213-11.216-4.222-15.614-8.623-4.511-4.511-7.574-10.078-8.859-16.09-.563-2.2-.878-4.505-.941-6.855h-29.281c-.049 8.669 1.548 16.951 4.704 24.268 1.193 2.98 2.859 5.833 4.612 8.761 2.636 4.187 5.423 7.727 8.692 10.996 3.107 3.101 6.694 5.92 10.959 8.605 23.898 14.981 55.157 12.088 76.021-7.034l4.176-4.193c4.542-4.817 8.366-10.598 11.219-17.037 3.153-7.317 4.759-15.651 4.716-24.366h-29.417c-.052 7.265-2.457 14.213-7.029 19.948-.774 1.253-1.66 2.143-2.345 2.83-.69.693-1.701 1.715-3.104 2.628-8.208 6.388-18.829 8.68-28.509 6.162z" fill="#2A87EA" stroke="#4273b8"/><path d="m170.553 389.045c-1.797-.414-3.59-.836-5.353-1.333-.775 10.105.785 19.955 4.624 28.867 1.187 2.957 2.856 5.822 4.615 8.755 2.628 4.181 5.414 7.722 8.692 10.996 3.101 3.101 6.688 5.914 10.959 8.605 23.887 14.981 55.154 12.088 76.018-7.034l4.176-4.193c4.545-4.822 8.368-10.603 11.221-17.037 3.202-7.433 4.794-15.616 4.727-24.366h-29.431c-.052 7.26-2.455 14.213-7.023 19.948-.757 1.224-1.617 2.096-2.336 2.818-.699.705-1.71 1.721-3.113 2.639-8.207 6.393-18.83 8.698-28.51 6.162-5.706-1.213-11.216-4.222-15.614-8.623-4.508-4.505-7.571-10.072-8.859-16.09-.566-2.206-.884-4.522-.944-6.884-6.274-.138-12.589-.898-18.902-2.15-.881-.163-1.76-.323-2.633-.506-.772-.17-1.543-.386-2.314-.574z" fill="#2A87EA" stroke="#4273b8"/><path d="m424.404 365.519v29.57h76.474c-.204-69.695-.408-139.389-.612-209.084-10.177 0-20.353 0-30.53 0 .523 59.838 1.046 119.676 1.569 179.515h-46.901z" fill="#2A87EA" stroke="#f89820"/><path d="m400.48 96.435h-23.598v29.552h13.243c39.234 0 72.011 25.296 79.611 60.017h30.53c-5.535-50.134-48.508-89.569-99.786-89.569z" fill="#2A87EA" stroke="#e52e25"/><path d="m125.92 96.36v-33.3c0-6.62-1.12-13.12-3.37-20.1-5.73-17.51-18.98-31.46-36.37-38.38-3.25-1.42-6.15-2.31-8.99-2.84-10.29-2.31-18.09-2.31-28.21-.06-27.5 6.33-47.55 30.28-48.79 58.25l-.12 1.18c-.11.59-.06 1.25-.06 1.72 0 .71-.05 1.36.06 2.07l.12 1.18c.24 6.86 1.66 13.72 4.14 19.93 6.45 16.21 19.4 29.16 35.6 35.6 7.1 2.66 14.37 4.14 21.47 4.32h35.19c.266 60.541.532 121.083.799 181.624 10.153-.32 20.305-.64 30.458-.96-1.39-127.847-1.793-162.147-1.847-164.154-.003-.125-.092-3.299-.079-7.05.001-.21.001-.316.003-.367.091-3.044 1.853-5.346 2.706-6.247 0 0 2.114-2.847 6.282-2.846 80.657.019 161.315.038 241.972.058 0-9.851 0-19.702 0-29.552-83.656-.026-167.31-.051-250.964-.076zm-29.57-10.64c0 4.19-2.66 8.1-6.5 9.64-1.54.76-3.31.76-3.91.76l-26.14-.06c-15.73-1.41-28.2-13.72-29.92-29.27-.3-1.48-.3-2.72-.3-3.73 0-1.18 0-2.42.3-4.02 1.3-10.29 6.98-19.28 15.67-24.66 10.94-6.44 24.25-6.15 34.66-.12 10.17 6.39 16.14 17.04 16.14 28.57z" fill="#2A87EA" stroke="#4273b8"/><path d="m157.972 387.253 3.747 1.403c5.558 2.083 11.139 3.642 16.706 4.742.618.113 1.257.166 1.88.267 2.297.378 4.595.753 6.941.974 3.155.294 6.352.451 9.587.451h227.571c0-9.857 0-19.713 0-29.57-72.392 0-144.784 0-217.175 0-2.445 0-4.868-.108-7.264-.306-1.124-.093-2.229-.273-3.345-.408-1.236-.151-2.481-.269-3.7-.471-1.559-.256-3.09-.607-4.626-.946-.72-.161-1.452-.286-2.165-.464-1.823-.451-3.611-.994-5.393-1.561-.372-.119-.754-.218-1.124-.343-1.973-.657-3.905-1.402-5.817-2.199-.138-.058-.28-.109-.418-.168-7.335-3.102-14.209-7.164-20.324-12.217-2.283-1.885-4.389-3.931-6.41-6.049-.189-.195-.37-.396-.557-.593-1.016-1.089-2.008-2.195-2.955-3.341-.898-1.063-1.749-2.157-2.586-3.266-.141-.192-.287-.379-.425-.572-5.733-7.745-10.005-16.508-12.274-26.024h-30.589c.037.322.092.639.131.96.352 2.791.779 5.557 1.351 8.267.011.051.025.101.035.152 6.916 32.483 29.406 58.817 59.198 71.282z" fill="#2A87EA" stroke="#33a852"/></g></svg>