<svg enable-background="new 0 0 216.11 163.229" viewBox="0 0 216.11 163.229" xmlns="http://www.w3.org/2000/svg"><g fill="#999b9d"><path d="m200.1 19.577c-11.01-11.96-26.65-19.58-44.19-19.58h-95.71c-33.26 0-60.23 26.97-60.23 60.23v42.77c0 18.6 8.6 35.01 21.85 46.06 10.44 8.72 23.71 14.17 38.38 14.17h155.94v-103c0-15.73-6.17-29.92-16.04-40.65zm.82 129.8h-137.51c-17.85 0-33.25-9.81-41.59-24.22-4.11-7.09-6.63-15.22-6.63-24.01v-38.71c0-26.84 21.75-48.59 48.58-48.59h89.31c8.08 0 15.57 2.19 22.25 5.73 15.15 8.03 25.59 23.77 25.59 42.12z"/><circle cx="108.055" cy="81.614" r="7.7"/><circle cx="70.038" cy="81.614" r="7.7"/><circle cx="146.072" cy="81.614" r="7.7"/></g></svg>