<svg enable-background="new 0 0 500 376.973" viewBox="0 0 500 376.973" xmlns="http://www.w3.org/2000/svg"><path d="m461.4 34.62c-35.03-33.54-77.1-34.6-85.96-34.62h-251.33c-8.89.03-50.87 1.1-85.85 34.53-34.11 32.61-37.68 73.17-38.26 82.33v138.4c1.32 67.03 56.94 121.71 123.99 121.71h264.08v-.11h111.58v-259.17c-.52-9.04-3.83-50.1-38.25-83.07zm1.69 305.68h-75.02c0-.01 0-.01 0-.02h-254.13c-50.75-2.53-92.22-38.67-96.92-84.09-.32-2.82-.62-5.73-.62-8.61 0-18.196-.354-31.215 0-39.62 0 0 0-21.476 0-64.427 0-8.409 0-12.613 0-12.613-.032-2.463-.08-4.81 0-8.295.106-4.582.344-7.191.967-10.053.1-.461.43-1.94 1.074-3.951 4.58-14.312 11.552-25.41 11.552-25.41.635-1.011 7.251-11.421 16.427-20.101 13.907-13.156 28.239-18.378 34.943-20.813 3.623-1.316 10.824-3.886 20.195-5.027 3.79-.462 7.547-.642 9.001-.71 6.777-.315 11.817-.067 13.32 0h36 83.52 99.26c6.502-.074 15.55.461 25.966 3.036 12.251 3.029 26.984 9.014 40.854 20.774 2.292 1.943 8.632 7.541 15.164 16.255 3.897 5.199 10.137 13.637 14.222 26.096 3.171 9.673 3.668 17.561 4.224 26.399.417 6.622 0 9.769 0 20.88v29.88c.001 53.473.001 106.947.001 160.42z" fill="#4273b8" stroke="#4273b8" stroke-miterlimit="10" stroke-width=".75"/></svg>