<svg enable-background="new 0 0 216.11 163.229" viewBox="0 0 216.11 163.229" xmlns="http://www.w3.org/2000/svg"><path d="m15.185 62.434c0-26.832 21.752-48.583 48.583-48.583h72.198v-13.851h-75.77c-33.261 0-60.225 26.964-60.225 60.227v21.899h15.214z" fill="#33a852"/><path d="m216.14 60.227v21.9h-15.22v-20.43c0-18.35-10.44-34.09-25.59-42.12-6.68-3.54-14.17-5.73-22.25-5.73h-17.11v-13.85h19.94c17.54 0 33.18 7.62 44.19 19.58 9.87 10.73 16.04 24.92 16.04 40.65z" fill="#f89820"/><path d="m182.92 149.377v13.85h-122.72c-14.67 0-27.94-5.45-38.38-14.17-13.25-11.05-21.85-27.46-21.85-46.06v-20.87h15.22v19.02c0 8.79 2.52 16.92 6.63 24.01 8.34 14.41 23.74 24.22 41.59 24.22z" fill="#4273b8"/><path d="m216.139 82.126h-15.215v67.252h-18.003v13.851h33.218z" fill="#e52e25"/><g fill="#4273b8"><circle cx="108.055" cy="81.614" r="7.7"/><circle cx="70.038" cy="81.614" r="7.7"/><circle cx="146.072" cy="81.614" r="7.7"/></g></svg>