<svg enable-background="new 0 0 439.204 500" viewBox="0 0 439.204 500" xmlns="http://www.w3.org/2000/svg"><path d="m334.554.643h-1.443c-25.921 0-47.004 21.086-47.004 47.004v6.195c0 25.918 21.083 47.004 47.004 47.004h1.443c25.921 0 47.011-21.086 47.011-47.004v-6.195c-.001-25.918-21.09-47.004-47.011-47.004z" fill="#2A87EA"/><path d="m105.628.643h-1.443c-25.921 0-47.004 21.086-47.004 47.004v6.195c0 25.918 21.083 47.004 47.004 47.004h1.443c25.921 0 47.004-21.086 47.004-47.004v-6.195c.001-25.918-21.083-47.004-47.004-47.004z" fill="#2A87EA"/><path d="m405.49 465.36-.551 34.64-370.863-.36-.33-34.28z" fill="#2A87EA"/><path d="m325.851 196.548c-22.326 3.829-34.295 12.567-41.135 20.027-3.798 4.143-10.739 10.725-19.069 27.128-4.463 8.789-7.994 15.73-16.276 21.528-7.754 5.519-17.559 8.319-29.335 8.319h-.878c-10.167.049-18.634-2.063-25.872-6.493-9.191-5.584-13.261-13.056-18.419-22.517-4.727-8.684-10.093-18.529-20.248-27.539-11.911-10.735-27.646-17.528-46.796-20.202-2.208-.118-4.606-.155-7.169-.063-2.155.078-4.184.238-6.074.45-5.516.835-26.425 4.691-42.894 23.556-10.833 12.41-17.421 28.581-17.421 46.128v180.911c.015 17.286.031 34.572.046 51.858-3.384-.695-15.523-3.613-24.79-15.098-9.157-11.348-9.534-23.653-9.521-27.138v-191.969c0-53.859 41.381-98.236 94.095-103.009 4.572-.109 9.144-.219 13.716-.328 26.406.365 49.337 7.269 68.186 20.552 19.048 13.423 31.94 38.223 33.589 42.084.003.007.021.049.046.107.232.528 2.302 5.053 7.015 6.319.603.162 2.419.627 4.621.094 4.889-1.182 6.903-6.126 7.142-6.741 4.224-9.268 13.062-25.661 30.686-39.376 3.021-2.351 5.73-4.27 8.509-6.01 1.48-.926 4.934-3.037 10.209-5.564.719-.345 10.511-4.997 20.311-7.756 19.591-5.514 40.709-3.877 45.813-3.422-6.029 11.388-12.058 22.776-18.087 34.164z" fill="#2A87EA"/><path d="m439.204 457.391v-179.238h-34.265v221.847c19.579-4.316 34.265-21.783 34.265-42.609z" fill="#2A87EA"/><path d="m218.979 223.145c0 .096-.096.096-.096.192 0-.096 0-.192 0-.192z" fill="#2A87EA"/><path d="m439.204 262.246v16.283h-34.264v-16.283c-1.886-33.635-27.788-61.234-60.983-65.572-2.829-.377-6.098-.629-9.619-.629-3.081.063-5.91.251-8.487.503-.315-11.568-.629-23.136-.943-34.704 3.395-.126 6.978-.126 10.751 0 3.143.126 6.161.314 8.99.566v.063c51.678 4.338 92.92 47.529 94.555 99.773z" fill="#2A87EA"/></svg>