<svg enable-background="new 0 0 439.204 500" viewBox="0 0 439.204 500" xmlns="http://www.w3.org/2000/svg"><g fill="#999b9d"><path d="m334.554.643h-1.443c-25.921 0-47.004 21.086-47.004 47.004v6.195c0 25.918 21.083 47.004 47.004 47.004h1.443c25.921 0 47.011-21.086 47.011-47.004v-6.195c-.001-25.918-21.09-47.004-47.011-47.004z"/><path d="m105.628.643h-1.443c-25.921 0-47.004 21.086-47.004 47.004v6.195c0 25.918 21.083 47.004 47.004 47.004h1.443c25.921 0 47.004-21.086 47.004-47.004v-6.195c.001-25.918-21.083-47.004-47.004-47.004z"/><path d="m34.31 499.64h-.23v-.05c.08.02.16.04.23.05z"/><path d="m344.65 162.47v-.06c-2.83-.25-5.85-.44-8.99-.57-3.77-.12-7.36-.12-10.75 0v.06c-8.05.3-17.59 1.32-26.78 3.91-9.8 2.75-19.6 7.41-20.32 7.75-5.27 2.53-8.73 4.64-10.2 5.56-2.78 1.74-5.49 3.66-8.51 6.01-17.63 13.72-26.47 30.11-30.69 39.38-.24.62-2.25 5.56-7.14 6.74-2.2.53-4.02.07-4.62-.09-4.72-1.27-6.79-5.79-7.02-6.32-.02-.06-.04-.1-.04-.11-1.65-3.86-14.55-28.66-33.59-42.08-18.85-13.28-41.78-20.19-68.19-20.55-4.57.11-9.14.22-13.71.32-52.72 4.78-94.1 49.15-94.1 103.01v191.97c-.01 3.49.36 15.79 9.52 27.14 9.07 11.25 20.9 14.27 24.56 15.05.08.02.16.04.23.05l370.63.36c19.58-4.32 34.26-21.78 34.26-42.61v-195.14c-1.63-52.25-42.87-95.44-94.55-99.78zm60.29 302.89h-370.66c0-5.86-.01-11.72-.01-17.58v-180.91c0-17.55 6.58-33.72 17.42-46.13 16.47-18.86 37.37-22.72 42.89-23.55 1.89-.22 3.92-.38 6.07-.45 2.57-.1 4.97-.06 7.17.06 19.15 2.67 34.89 9.47 46.8 20.2 10.15 9.01 15.52 18.86 20.25 27.54 5.15 9.46 9.22 16.93 18.42 22.52 7.23 4.43 15.7 6.54 25.87 6.49h.88c11.77 0 21.58-2.8 29.33-8.32 8.28-5.8 11.81-12.74 16.28-21.53 8.33-16.4 15.27-22.98 19.07-27.12 6.84-7.47 18.81-16.2 41.13-20.03 2.58-.25 5.41-.44 8.49-.5 3.52 0 6.79.25 9.62.62 33.19 4.34 59.09 31.94 60.98 65.58z"/><path d="m218.979 223.145c0 .096-.096.096-.096.192 0-.096 0-.192 0-.192z"/></g></svg>