<svg enable-background="new 0 0 1080 157.75" viewBox="0 0 1080 157.75" xmlns="http://www.w3.org/2000/svg"><path d="m73.569 101.148c0 .53-.18.976-.541 1.336-.381.381-.827.572-1.335.572h-21.051c-.763 0-1.325-.339-1.685-1.018-.339-.678-.297-1.335.127-1.972l18.73-27.22c.445-1.039.667-2.13.667-3.275 0-2.311-.816-4.282-2.448-5.915-1.633-1.632-3.604-2.449-5.915-2.449s-4.282.816-5.915 2.449-2.448 3.604-2.448 5.915v.541c.042.53-.117.997-.477 1.399-.339.381-.774.594-1.304.636-.509.021-.965-.138-1.368-.477s-.615-.773-.636-1.304c-.021-.275-.032-.541-.032-.795 0-3.349 1.187-6.222 3.562-8.618 2.395-2.374 5.268-3.562 8.617-3.562s6.222 1.188 8.618 3.562c2.374 2.396 3.562 5.269 3.562 8.618 0 1.739-.35 3.392-1.049 4.961-.063.106-.127.212-.19.318l-16.791 24.39h17.426c.509 0 .954.191 1.335.572.361.362.541.807.541 1.336z" fill="#404041"/><path d="m95.924 57.329c3.413 0 6.328 1.219 8.745 3.657 2.417 2.417 3.625 5.332 3.625 8.745 0 1.314-.212 2.618-.636 3.911-.042.148-.042.181 0 .096l-9.953 28.047c-.297.848-.89 1.272-1.781 1.272-.233 0-.445-.032-.636-.095-.509-.191-.87-.52-1.082-.986-.233-.466-.265-.954-.095-1.463l6.932-19.525c-1.653.763-3.36 1.145-5.12 1.145-3.414 0-6.339-1.219-8.776-3.657-2.417-2.417-3.625-5.331-3.625-8.745 0-3.413 1.208-6.328 3.625-8.745 2.438-2.438 5.364-3.657 8.777-3.657zm-8.586 12.402c0 2.375.837 4.399 2.512 6.074s3.699 2.512 6.074 2.512c2.354 0 4.377-.837 6.074-2.512 1.674-1.675 2.512-3.699 2.512-6.074 0-2.374-.838-4.399-2.512-6.074-1.696-1.674-3.72-2.512-6.074-2.512-2.375 0-4.399.838-6.074 2.512-1.674 1.675-2.512 3.7-2.512 6.074z" fill="#404041"/><path d="m16.672 99.791v-69.115h-16.672v69.115c0 4.552 3.69 8.242 8.242 8.242h.192c4.552 0 8.242-3.69 8.242-8.242z" fill="#4272b7"/><path d="m137.548 118.622c0 12.318-9.986 22.303-22.303 22.303h-58.425v-.003c-4.593 0-8.316 3.723-8.316 8.316v.195c0 4.593 3.723 8.316 8.316 8.316h61.653c19.428 0 35.177-15.749 35.177-35.177v-82.415h-16.103v78.465z" fill="#f89820"/><path d="m0 13.635v26.522h16.672v-18.577c0-2.626 2.129-4.755 4.755-4.755h111.366c2.626 0 4.755 2.129 4.755 4.755v18.577h16.103v-26.522c0-7.53-6.105-13.635-13.635-13.635h-126.381c-7.53 0-13.635 6.105-13.635 13.635z" fill="#4272b7"/><path d="m114.447 140.926h-57.627v-.003c-4.593 0-8.316 3.723-8.316 8.316v.195c0 4.593 3.723 8.316 8.316 8.316h57.626v-16.824z" fill="#e52e25"/><path d="m137.548 40.157h16.103v63.567h-16.103z" fill="#33a852"/><path d="m73.569 101.148c0 .53-.18.976-.541 1.336-.381.381-.827.572-1.335.572h-21.051c-.763 0-1.325-.339-1.685-1.018-.339-.678-.297-1.335.127-1.972l18.73-27.22c.445-1.039.667-2.13.667-3.275 0-2.311-.816-4.282-2.448-5.915-1.633-1.632-3.604-2.449-5.915-2.449s-4.282.816-5.915 2.449-2.448 3.604-2.448 5.915v.541c.042.53-.117.997-.477 1.399-.339.381-.774.594-1.304.636-.509.021-.965-.138-1.368-.477s-.615-.773-.636-1.304c-.021-.275-.032-.541-.032-.795 0-3.349 1.187-6.222 3.562-8.618 2.395-2.374 5.268-3.562 8.617-3.562s6.222 1.188 8.618 3.562c2.374 2.396 3.562 5.269 3.562 8.618 0 1.739-.35 3.392-1.049 4.961-.063.106-.127.212-.19.318l-16.791 24.39h17.426c.509 0 .954.191 1.335.572.361.362.541.807.541 1.336z" fill="#5b5c5e"/><path d="m95.924 57.329c3.413 0 6.328 1.219 8.745 3.657 2.417 2.417 3.625 5.332 3.625 8.745 0 1.314-.212 2.618-.636 3.911-.042.148-.042.181 0 .096l-9.953 28.047c-.297.848-.89 1.272-1.781 1.272-.233 0-.445-.032-.636-.095-.509-.191-.87-.52-1.082-.986-.233-.466-.265-.954-.095-1.463l6.932-19.525c-1.653.763-3.36 1.145-5.12 1.145-3.414 0-6.339-1.219-8.776-3.657-2.417-2.417-3.625-5.331-3.625-8.745 0-3.413 1.208-6.328 3.625-8.745 2.438-2.438 5.364-3.657 8.777-3.657zm-8.586 12.402c0 2.375.837 4.399 2.512 6.074s3.699 2.512 6.074 2.512c2.354 0 4.377-.837 6.074-2.512 1.674-1.675 2.512-3.699 2.512-6.074 0-2.374-.838-4.399-2.512-6.074-1.696-1.674-3.72-2.512-6.074-2.512-2.375 0-4.399.838-6.074 2.512-1.674 1.675-2.512 3.7-2.512 6.074z" fill="#5b5c5e"/><path d="m15.764 157.032c-8.593 0-15.559-6.966-15.559-15.559v-1.294c0-8.593 6.966-15.559 15.559-15.559 8.593 0 15.559 6.966 15.559 15.559v1.294c.001 8.593-6.966 15.559-15.559 15.559z" fill="#4272b7"/><g fill="#5b5c5e"><path d="m549.76 111.995c.286.789.438 1.424.457 1.908.018.483-.117.851-.403 1.102-.287.251-.762.411-1.424.483-.664.071-1.551.107-2.66.107-1.111 0-1.998-.027-2.66-.081-.663-.054-1.165-.144-1.505-.269-.341-.125-.591-.295-.752-.511-.161-.215-.314-.483-.457-.806l-5.965-16.928h-28.912l-5.696 16.713c-.107.323-.251.601-.43.833-.18.233-.439.43-.779.591-.341.161-.825.277-1.451.349-.627.071-1.442.107-2.445.107-1.04 0-1.89-.045-2.553-.134-.664-.09-1.128-.259-1.397-.51-.269-.25-.395-.618-.376-1.102.018-.483.169-1.119.457-1.908l23.323-64.594c.143-.394.331-.716.564-.967.232-.25.573-.447 1.021-.591.448-.143 1.021-.242 1.72-.295s1.585-.081 2.66-.081c1.146 0 2.096.027 2.848.081s1.361.153 1.827.295c.465.144.824.35 1.075.618.25.269.448.601.591.994zm-29.933-57.017h-.054l-11.983 34.662h24.183z"/><path d="m604.842 88.995c0 4.228-.456 8.025-1.37 11.393-.913 3.368-2.257 6.226-4.03 8.571-1.773 2.347-3.969 4.156-6.583 5.428-2.616 1.271-5.607 1.908-8.975 1.908-1.434 0-2.759-.144-3.977-.43-1.219-.287-2.41-.734-3.574-1.344-1.164-.609-2.319-1.378-3.466-2.311-1.146-.931-2.364-2.024-3.654-3.278v24.183c0 .287-.072.538-.215.752-.144.215-.376.394-.698.538-.323.143-.771.25-1.344.322-.573.071-1.309.107-2.203.107-.86 0-1.577-.036-2.149-.107-.574-.072-1.03-.18-1.371-.322-.341-.144-.573-.323-.698-.538-.126-.215-.188-.466-.188-.752v-67.55c0-.323.054-.582.161-.779.108-.197.323-.367.646-.511.322-.143.733-.242 1.236-.295.501-.054 1.109-.081 1.826-.081.753 0 1.371.027 1.854.081s.887.153 1.209.295c.322.144.546.314.672.511.125.197.188.457.188.779v6.502c1.468-1.505 2.883-2.812 4.245-3.923 1.361-1.11 2.731-2.033 4.111-2.768 1.378-.733 2.794-1.29 4.245-1.666s2.982-.564 4.595-.564c3.511 0 6.502.681 8.975 2.042 2.472 1.362 4.487 3.225 6.045 5.589 1.559 2.365 2.695 5.115 3.413 8.249.715 3.136 1.074 6.458 1.074 9.969zm-9.19 1.021c0-2.472-.189-4.863-.567-7.174-.379-2.311-1.027-4.361-1.946-6.153-.919-1.791-2.153-3.225-3.704-4.299-1.55-1.075-3.479-1.612-5.785-1.612-1.153 0-2.29.17-3.406.511-1.118.341-2.253.878-3.406 1.612-1.154.734-2.361 1.702-3.623 2.902-1.262 1.201-2.595 2.678-4.001 4.433v19.239c2.451 2.974 4.776 5.249 6.976 6.825 2.198 1.577 4.506 2.365 6.92 2.365 2.234 0 4.154-.538 5.758-1.612s2.902-2.507 3.894-4.299c.991-1.791 1.722-3.797 2.19-6.019.466-2.222.7-4.462.7-6.719z"/><path d="m662.665 88.995c0 4.228-.456 8.025-1.37 11.393-.913 3.368-2.257 6.226-4.03 8.571-1.773 2.347-3.969 4.156-6.583 5.428-2.616 1.271-5.607 1.908-8.975 1.908-1.434 0-2.759-.144-3.977-.43-1.219-.287-2.41-.734-3.574-1.344-1.164-.609-2.319-1.378-3.466-2.311-1.146-.931-2.364-2.024-3.654-3.278v24.183c0 .287-.072.538-.215.752-.144.215-.376.394-.698.538-.323.143-.771.25-1.344.322-.573.071-1.309.107-2.203.107-.86 0-1.577-.036-2.149-.107-.574-.072-1.03-.18-1.371-.322-.341-.144-.573-.323-.698-.538-.126-.215-.188-.466-.188-.752v-67.55c0-.323.054-.582.161-.779.108-.197.323-.367.646-.511.322-.143.733-.242 1.236-.295.501-.054 1.109-.081 1.826-.081.753 0 1.371.027 1.854.081s.887.153 1.209.295c.322.144.546.314.672.511.125.197.188.457.188.779v6.502c1.468-1.505 2.883-2.812 4.245-3.923 1.361-1.11 2.731-2.033 4.111-2.768 1.378-.733 2.794-1.29 4.245-1.666s2.982-.564 4.595-.564c3.511 0 6.502.681 8.975 2.042 2.472 1.362 4.487 3.225 6.045 5.589 1.559 2.365 2.695 5.115 3.413 8.249.716 3.136 1.074 6.458 1.074 9.969zm-9.189 1.021c0-2.472-.189-4.863-.567-7.174-.379-2.311-1.027-4.361-1.946-6.153-.919-1.791-2.153-3.225-3.704-4.299-1.55-1.075-3.479-1.612-5.785-1.612-1.153 0-2.29.17-3.406.511-1.118.341-2.253.878-3.406 1.612-1.154.734-2.361 1.702-3.623 2.902-1.262 1.201-2.595 2.678-4.001 4.433v19.239c2.451 2.974 4.776 5.249 6.976 6.825 2.198 1.577 4.506 2.365 6.92 2.365 2.234 0 4.154-.538 5.758-1.612s2.902-2.507 3.894-4.299c.991-1.791 1.722-3.797 2.19-6.019.465-2.222.7-4.462.7-6.719z"/><path d="m720.973 89.21c0 3.941-.521 7.569-1.559 10.882-1.04 3.314-2.589 6.171-4.648 8.571-2.061 2.4-4.641 4.272-7.738 5.616-3.1 1.343-6.691 2.015-10.775 2.015-3.977 0-7.442-.591-10.398-1.773-2.955-1.182-5.419-2.902-7.389-5.159-1.971-2.257-3.439-4.998-4.407-8.222-.967-3.225-1.45-6.879-1.45-10.963 0-3.94.51-7.568 1.531-10.882 1.021-3.313 2.561-6.17 4.621-8.571 2.061-2.4 4.63-4.263 7.712-5.589 3.081-1.325 6.682-1.988 10.802-1.988 3.977 0 7.442.591 10.398 1.773 2.955 1.182 5.418 2.902 7.389 5.159 1.97 2.257 3.448 4.998 4.434 8.222.983 3.224 1.477 6.861 1.477 10.909zm-9.19.591c0-2.615-.245-5.087-.732-7.416-.489-2.329-1.293-4.371-2.413-6.126-1.121-1.755-2.64-3.144-4.556-4.165s-4.302-1.532-7.157-1.532c-2.639 0-4.908.466-6.806 1.397s-3.461 2.249-4.69 3.95c-1.229 1.702-2.142 3.717-2.738 6.045-.596 2.33-.894 4.873-.894 7.631 0 2.652.243 5.142.731 7.47.488 2.33 1.302 4.362 2.44 6.1 1.139 1.738 2.665 3.117 4.581 4.138s4.302 1.532 7.158 1.532c2.604 0 4.862-.465 6.778-1.397s3.487-2.239 4.717-3.923c1.229-1.684 2.133-3.689 2.712-6.019.579-2.329.869-4.89.869-7.685z"/><path d="m743.919 49.228c0 2.078-.395 3.493-1.183 4.246s-2.239 1.128-4.353 1.128c-2.078 0-3.503-.367-4.272-1.102-.771-.734-1.155-2.123-1.155-4.165 0-2.077.394-3.493 1.182-4.245s2.239-1.128 4.354-1.128c2.077 0 3.501.368 4.272 1.102.769.734 1.155 2.122 1.155 4.164zm-1.022 64.702c0 .287-.072.529-.215.725-.144.197-.376.368-.698.511-.323.143-.771.25-1.344.322-.573.071-1.309.107-2.203.107-.86 0-1.577-.036-2.149-.107-.574-.072-1.03-.18-1.371-.322s-.573-.313-.698-.511c-.126-.196-.188-.438-.188-.725v-48.365c0-.25.062-.484.188-.699.125-.215.357-.394.698-.538.341-.143.797-.25 1.371-.322.572-.071 1.289-.107 2.149-.107.895 0 1.63.036 2.203.107.572.072 1.021.18 1.344.322.322.144.555.323.698.538s.215.448.215.699z"/><path d="m800.937 113.93c0 .287-.072.529-.215.725-.144.197-.377.368-.699.511s-.771.25-1.343.322c-.574.071-1.29.107-2.15.107-.896 0-1.63-.036-2.203-.107-.573-.072-1.021-.18-1.344-.322-.322-.143-.556-.313-.698-.511-.144-.196-.215-.438-.215-.725v-28.321c0-2.758-.215-4.979-.645-6.664-.431-1.684-1.058-3.134-1.881-4.353-.825-1.217-1.891-2.149-3.198-2.794-1.308-.645-2.821-.967-4.541-.967-2.222 0-4.442.789-6.663 2.365-2.222 1.577-4.55 3.888-6.986 6.932v33.802c0 .287-.072.529-.215.725-.144.197-.376.368-.698.511-.323.143-.771.25-1.344.322-.573.071-1.309.107-2.203.107-.86 0-1.577-.036-2.149-.107-.574-.072-1.03-.18-1.371-.322s-.573-.313-.698-.511c-.126-.196-.188-.438-.188-.725v-48.365c0-.287.054-.528.161-.726.108-.196.323-.376.646-.538s.733-.269 1.236-.322c.501-.054 1.163-.081 1.988-.081.787 0 1.441.027 1.961.081.519.054.922.161 1.209.322.286.161.492.341.618.538.125.197.188.439.188.726v6.395c2.722-3.045 5.436-5.275 8.142-6.691 2.704-1.415 5.436-2.123 8.194-2.123 3.225 0 5.938.547 8.142 1.639 2.204 1.093 3.985 2.553 5.348 4.38 1.36 1.827 2.337 3.968 2.929 6.421.591 2.455.887 5.401.887 8.84v29.504z"/><path d="m841.24 110.383c0 1.04-.072 1.863-.215 2.472-.144.61-.358 1.057-.646 1.344-.287.287-.717.556-1.289.806-.574.251-1.228.457-1.962.618-.734.162-1.514.296-2.338.403s-1.647.161-2.472.161c-2.508 0-4.657-.332-6.448-.994-1.792-.663-3.261-1.666-4.407-3.009-1.146-1.344-1.979-3.045-2.499-5.105s-.778-4.487-.778-7.282v-28.267h-6.771c-.537 0-.968-.286-1.29-.86-.322-.573-.483-1.504-.483-2.794 0-.68.045-1.253.135-1.72.089-.465.205-.851.349-1.155.143-.304.331-.519.564-.645.232-.125.492-.188.779-.188h6.718v-11.5c0-.25.062-.484.188-.699.125-.215.357-.403.699-.564.34-.161.796-.277 1.37-.349.572-.071 1.289-.107 2.149-.107.895 0 1.63.036 2.203.107.572.072 1.021.188 1.344.349.322.162.555.35.698.564.143.215.215.448.215.699v11.5h12.414c.286 0 .537.063.752.188.215.126.403.341.564.645.161.305.277.69.35 1.155.071.466.107 1.04.107 1.72 0 1.29-.161 2.222-.483 2.794-.323.574-.753.86-1.29.86h-12.414v26.977c0 3.332.492 5.849 1.479 7.55.984 1.702 2.749 2.553 5.293 2.553.823 0 1.559-.081 2.203-.242.645-.162 1.218-.331 1.72-.511.501-.179.932-.349 1.29-.511.357-.161.68-.242.967-.242.179 0 .35.045.511.134.161.09.286.26.376.511.089.251.17.591.242 1.021.07.431.106.968.106 1.613z"/><path d="m924.697 113.93c0 .287-.072.529-.215.725-.144.197-.376.368-.699.511-.322.143-.771.25-1.343.322-.574.071-1.29.107-2.149.107-.896 0-1.631-.036-2.204-.107-.573-.072-1.03-.18-1.37-.322-.341-.143-.583-.313-.726-.511-.144-.196-.215-.438-.215-.725v-29.395c0-2.042-.18-3.904-.537-5.589-.358-1.684-.933-3.134-1.72-4.353-.788-1.217-1.792-2.149-3.01-2.794s-2.651-.967-4.299-.967c-2.042 0-4.094.789-6.153 2.365-2.061 1.577-4.326 3.888-6.798 6.932v33.802c0 .287-.072.529-.215.725-.144.197-.386.368-.726.511-.341.143-.798.25-1.37.322-.573.071-1.29.107-2.149.107-.825 0-1.532-.036-2.123-.107-.591-.072-1.058-.18-1.397-.322-.341-.143-.573-.313-.698-.511-.126-.196-.188-.438-.188-.725v-29.396c0-2.042-.197-3.904-.591-5.589-.395-1.684-.985-3.134-1.773-4.353-.788-1.217-1.782-2.149-2.982-2.794-1.201-.645-2.625-.967-4.272-.967-2.042 0-4.103.789-6.18 2.365-2.078 1.577-4.335 3.888-6.771 6.932v33.802c0 .287-.072.529-.215.725-.144.197-.376.368-.698.511-.323.143-.771.25-1.344.322-.573.071-1.309.107-2.203.107-.86 0-1.577-.036-2.149-.107-.574-.072-1.03-.18-1.371-.322s-.573-.313-.698-.511c-.126-.196-.188-.438-.188-.725v-48.366c0-.287.054-.528.161-.726.108-.196.323-.376.646-.538s.733-.269 1.236-.322c.501-.054 1.163-.081 1.988-.081.787 0 1.441.027 1.961.081.519.054.922.161 1.209.322.286.161.492.341.618.538.125.197.188.439.188.726v6.395c2.722-3.045 5.364-5.275 7.926-6.691 2.562-1.415 5.15-2.123 7.766-2.123 2.006 0 3.807.233 5.401.699 1.593.466 3 1.12 4.218 1.961 1.218.842 2.257 1.846 3.117 3.009.859 1.165 1.576 2.464 2.149 3.896 1.612-1.755 3.144-3.242 4.595-4.46s2.849-2.204 4.191-2.956c1.344-.752 2.651-1.298 3.923-1.639 1.271-.34 2.553-.511 3.843-.511 3.117 0 5.731.547 7.846 1.639 2.113 1.093 3.824 2.553 5.132 4.38s2.239 3.968 2.795 6.421c.555 2.455.833 5.043.833 7.766v30.579z"/><path d="m982.145 87.651c0 1.397-.352 2.392-1.054 2.983s-1.502.887-2.402.887h-31.851c0 2.687.27 5.105.809 7.254.54 2.15 1.44 3.995 2.701 5.535 1.259 1.541 2.897 2.723 4.913 3.547 2.017.825 4.482 1.236 7.398 1.236 2.305 0 4.355-.188 6.156-.564 1.8-.376 3.356-.797 4.671-1.263 1.314-.465 2.394-.887 3.24-1.263s1.485-.564 1.918-.564c.252 0 .476.063.674.188.198.126.352.314.46.564.107.251.188.601.242 1.048.054.449.081.994.081 1.639 0 .466-.018.869-.054 1.209-.036.341-.08.645-.134.914s-.144.511-.269.726c-.126.215-.287.421-.484.618s-.778.52-1.746.967c-.968.448-2.222.887-3.762 1.316-1.541.43-3.323.814-5.347 1.156-2.024.34-4.184.51-6.476.51-3.977 0-7.462-.556-10.452-1.666-2.992-1.11-5.509-2.758-7.551-4.944-2.042-2.185-3.583-4.925-4.621-8.222-1.04-3.295-1.559-7.129-1.559-11.5 0-4.156.537-7.891 1.612-11.205 1.074-3.313 2.623-6.126 4.648-8.437 2.023-2.311 4.469-4.084 7.335-5.32s6.072-1.854 9.619-1.854c3.797 0 7.03.61 9.7 1.827 2.668 1.218 4.863 2.857 6.583 4.917 1.72 2.061 2.982 4.479 3.788 7.255.807 2.777 1.21 5.742 1.21 8.894v1.612zm-8.921-2.632c.107-4.657-.93-8.312-3.109-10.963-2.181-2.651-5.416-3.977-9.705-3.977-2.199 0-4.128.412-5.785 1.236-1.658.825-3.047 1.917-4.164 3.278-1.118 1.362-1.982 2.947-2.596 4.756-.613 1.81-.954 3.7-1.026 5.67z"/><path d="m1037.28 113.93c0 .287-.072.529-.215.725-.144.197-.377.368-.699.511s-.771.25-1.343.322c-.574.071-1.29.107-2.15.107-.896 0-1.63-.036-2.203-.107-.573-.072-1.021-.18-1.344-.322-.322-.143-.556-.313-.698-.511-.144-.196-.215-.438-.215-.725v-28.321c0-2.758-.215-4.979-.645-6.664-.431-1.684-1.058-3.134-1.881-4.353-.825-1.217-1.891-2.149-3.198-2.794-1.308-.645-2.821-.967-4.541-.967-2.222 0-4.442.789-6.663 2.365-2.222 1.577-4.55 3.888-6.986 6.932v33.802c0 .287-.072.529-.215.725-.144.197-.376.368-.698.511-.323.143-.771.25-1.344.322-.573.071-1.309.107-2.203.107-.86 0-1.577-.036-2.149-.107-.574-.072-1.03-.18-1.371-.322s-.573-.313-.698-.511c-.126-.196-.188-.438-.188-.725v-48.365c0-.287.054-.528.161-.726.108-.196.323-.376.646-.538s.733-.269 1.236-.322c.501-.054 1.163-.081 1.988-.081.787 0 1.441.027 1.961.081.519.054.922.161 1.209.322.286.161.492.341.618.538.125.197.188.439.188.726v6.395c2.722-3.045 5.436-5.275 8.142-6.691 2.704-1.415 5.436-2.123 8.194-2.123 3.225 0 5.938.547 8.142 1.639 2.204 1.093 3.985 2.553 5.348 4.38 1.36 1.827 2.337 3.968 2.929 6.421.591 2.455.887 5.401.887 8.84v29.504z"/><path d="m1077.585 110.383c0 1.04-.072 1.863-.215 2.472-.144.61-.358 1.057-.646 1.344-.287.287-.717.556-1.289.806-.574.251-1.228.457-1.962.618-.734.162-1.514.296-2.338.403s-1.647.161-2.472.161c-2.508 0-4.657-.332-6.448-.994-1.792-.663-3.261-1.666-4.407-3.009-1.146-1.344-1.979-3.045-2.499-5.105s-.778-4.487-.778-7.282v-28.267h-6.771c-.537 0-.968-.286-1.29-.86-.322-.573-.483-1.504-.483-2.794 0-.68.045-1.253.135-1.72.089-.465.205-.851.349-1.155.143-.304.331-.519.564-.645.232-.125.492-.188.779-.188h6.718v-11.5c0-.25.062-.484.188-.699.125-.215.357-.403.699-.564.34-.161.796-.277 1.37-.349.572-.071 1.289-.107 2.149-.107.895 0 1.63.036 2.203.107.572.072 1.021.188 1.344.349.322.162.555.35.698.564.143.215.215.448.215.699v11.5h12.414c.286 0 .537.063.752.188.215.126.403.341.564.645.161.305.277.69.35 1.155.071.466.107 1.04.107 1.72 0 1.29-.161 2.222-.483 2.794-.323.574-.753.86-1.29.86h-12.414v26.977c0 3.332.492 5.849 1.479 7.55.984 1.702 2.749 2.553 5.293 2.553.823 0 1.559-.081 2.203-.242.645-.162 1.218-.331 1.72-.511.501-.179.932-.349 1.29-.511.357-.161.68-.242.967-.242.179 0 .35.045.511.134.161.09.286.26.376.511.089.251.17.591.242 1.021.07.431.106.968.106 1.613z"/><path d="m277.006 113.876c0 .287-.074.537-.222.752s-.406.386-.775.511c-.37.126-.84.232-1.412.322-.572.089-1.319.134-2.241.134-.849 0-1.578-.045-2.187-.134-.608-.09-1.088-.196-1.439-.322-.351-.125-.6-.295-.748-.511-.147-.215-.221-.465-.221-.752v-60.564h-.107l-24.505 60.833c-.107.251-.26.466-.457.645-.197.18-.483.332-.86.457-.376.125-.824.215-1.343.269-.52.054-1.138.081-1.854.081-.752 0-1.397-.036-1.935-.107-.538-.072-.986-.17-1.344-.295s-.636-.277-.833-.457c-.197-.179-.332-.376-.403-.591l-23.43-60.833h-.054v60.564c0 .287-.074.537-.222.752s-.406.386-.775.511c-.37.126-.849.232-1.439.322-.59.089-1.347.134-2.269.134-.886 0-1.624-.045-2.214-.134-.59-.09-1.061-.196-1.412-.322-.351-.125-.59-.295-.72-.511-.129-.215-.193-.465-.193-.752v-63.95c0-1.505.399-2.58 1.2-3.225.8-.645 1.692-.967 2.674-.967h5.675c1.164 0 2.183.108 3.056.323.874.215 1.637.556 2.292 1.021.655.466 1.201 1.057 1.638 1.773.437.717.818 1.558 1.146 2.525l19.883 50.354h.269l20.69-50.192c.399-1.075.836-1.988 1.31-2.741s.993-1.352 1.557-1.8 1.191-.77 1.883-.967c.691-.197 1.492-.296 2.402-.296h5.951c.546 0 1.064.081 1.556.242.491.161.91.412 1.256.752.346.341.628.771.846 1.29.218.52.328 1.155.328 1.908v63.948z" stroke="#5b5c5e" stroke-miterlimit="10" stroke-width=".5"/><path d="m335.743 87.651c0 1.397-.351 2.392-1.053 2.983s-1.502.887-2.402.887h-31.852c0 2.687.27 5.105.81 7.254.54 2.15 1.44 3.995 2.7 5.535 1.26 1.541 2.898 2.723 4.914 3.547 2.016.825 4.482 1.236 7.398 1.236 2.304 0 4.355-.188 6.155-.564s3.357-.797 4.671-1.263c1.314-.465 2.394-.887 3.24-1.263s1.485-.564 1.918-.564c.251 0 .476.063.674.188.198.126.351.314.459.564.107.251.189.601.243 1.048.054.449.082.994.082 1.639 0 .466-.019.869-.054 1.209-.036.341-.081.645-.134.914-.054.269-.144.511-.269.726-.126.215-.287.421-.483.618-.197.197-.779.52-1.747.967-.967.448-2.222.887-3.762 1.316-1.541.43-3.323.814-5.347 1.156-2.024.34-4.183.51-6.476.51-3.977 0-7.461-.556-10.452-1.666-2.992-1.11-5.508-2.758-7.55-4.944-2.042-2.185-3.583-4.925-4.622-8.222-1.04-3.295-1.559-7.129-1.559-11.5 0-4.156.538-7.891 1.612-11.205 1.075-3.313 2.624-6.126 4.648-8.437 2.023-2.311 4.469-4.084 7.335-5.32s6.072-1.854 9.619-1.854c3.797 0 7.031.61 9.7 1.827 2.668 1.218 4.863 2.857 6.583 4.917 1.72 2.061 2.982 4.479 3.789 7.255.806 2.777 1.209 5.742 1.209 8.894v1.612zm-8.92-2.632c.107-4.657-.93-8.312-3.109-10.963-2.181-2.651-5.416-3.977-9.705-3.977-2.199 0-4.128.412-5.785 1.236-1.659.825-3.046 1.917-4.164 3.278-1.118 1.362-1.982 2.947-2.596 4.756-.613 1.81-.955 3.7-1.027 5.67z" stroke="#5b5c5e" stroke-miterlimit="10" stroke-width=".5"/><path d="m390.879 113.93c0 .287-.072.529-.215.725-.144.197-.376.368-.699.511-.322.143-.771.25-1.343.322-.573.071-1.29.107-2.149.107-.896 0-1.631-.036-2.204-.107-.573-.072-1.021-.18-1.343-.322s-.556-.313-.699-.511c-.144-.196-.215-.438-.215-.725v-28.321c0-2.758-.215-4.979-.645-6.664-.43-1.684-1.057-3.134-1.881-4.353-.824-1.217-1.89-2.149-3.197-2.794-1.308-.645-2.821-.967-4.541-.967-2.222 0-4.443.789-6.664 2.365-2.222 1.577-4.55 3.888-6.986 6.932v33.802c0 .287-.072.529-.215.725-.144.197-.376.368-.699.511-.322.143-.771.25-1.343.322-.574.071-1.308.107-2.203.107-.86 0-1.577-.036-2.15-.107-.573-.072-1.03-.18-1.37-.322-.341-.143-.574-.313-.699-.511-.126-.196-.188-.438-.188-.725v-48.365c0-.287.054-.528.161-.726.107-.196.322-.376.645-.538.322-.161.734-.269 1.236-.322.501-.054 1.164-.081 1.988-.081.788 0 1.442.027 1.961.081s.922.161 1.209.322c.286.161.492.341.618.538.125.197.188.439.188.726v6.395c2.723-3.045 5.436-5.275 8.142-6.691 2.705-1.415 5.436-2.123 8.195-2.123 3.224 0 5.938.547 8.142 1.639 2.203 1.093 3.985 2.553 5.347 4.38 1.361 1.827 2.338 3.968 2.929 6.421.591 2.455.886 5.401.886 8.84v29.504z" stroke="#5b5c5e" stroke-miterlimit="10" stroke-width=".5"/><path d="m443.49 113.984c0 .43-.144.752-.43.967-.287.215-.681.376-1.182.483-.502.107-1.236.161-2.203.161-.932 0-1.675-.054-2.23-.161-.556-.107-.958-.269-1.209-.483-.251-.215-.376-.538-.376-.967v-4.837c-2.114 2.257-4.47 4.013-7.067 5.267-2.598 1.254-5.347 1.881-8.249 1.881-2.544 0-4.846-.332-6.905-.994-2.061-.663-3.815-1.621-5.267-2.875-1.451-1.253-2.58-2.794-3.385-4.622-.806-1.827-1.209-3.904-1.209-6.234 0-2.722.555-5.086 1.666-7.093 1.11-2.006 2.705-3.672 4.783-4.998 2.078-1.325 4.622-2.319 7.631-2.982 3.01-.663 6.395-.994 10.157-.994h6.664v-3.763c0-1.862-.197-3.511-.591-4.944-.395-1.433-1.03-2.624-1.908-3.574-.878-.949-2.015-1.666-3.413-2.149-1.397-.484-3.117-.726-5.159-.726-2.186 0-4.147.26-5.885.779-1.738.52-3.26 1.093-4.568 1.719-1.308.627-2.4 1.201-3.278 1.72-.878.52-1.532.779-1.961.779-.287 0-.538-.071-.752-.215-.215-.143-.403-.358-.564-.645-.161-.286-.278-.653-.349-1.102-.072-.448-.107-.94-.107-1.478 0-.895.062-1.603.188-2.123.125-.519.43-1.012.914-1.478.484-.465 1.316-1.012 2.499-1.639 1.182-.626 2.543-1.2 4.084-1.72 1.54-.519 3.225-.949 5.051-1.29 1.827-.34 3.672-.511 5.535-.511 3.475 0 6.431.395 8.867 1.182 2.436.789 4.407 1.944 5.911 3.466 1.505 1.523 2.597 3.413 3.278 5.669.68 2.257 1.021 4.89 1.021 7.9v32.624zm-8.813-22.087h-7.577c-2.437 0-4.55.207-6.341.618-1.792.412-3.278 1.021-4.46 1.827-1.183.806-2.051 1.773-2.606 2.902-.556 1.128-.833 2.427-.833 3.896 0 2.508.797 4.505 2.392 5.992 1.593 1.487 3.824 2.23 6.69 2.23 2.328 0 4.487-.591 6.476-1.773 1.988-1.183 4.075-2.991 6.26-5.428v-10.264z" stroke="#5b5c5e" stroke-miterlimit="10" stroke-width=".5"/></g></svg>