<svg enable-background="new 0 0 214.737 207.8" viewBox="0 0 200.737 100.8" xmlns="http://www.w3.org/2000/svg" xmlns:xlink="http://www.w3.org/1999/xlink"><linearGradient id="a" gradientUnits="userSpaceOnUse" x1="71.4037" x2="87.1955" y1="97.2539" y2="113.7253"><stop offset=".4776" stop-color="#f7981d"/><stop offset=".5518" stop-color="#d39b26"/><stop offset=".7156" stop-color="#77a23d"/><stop offset=".8404" stop-color="#2da84f"/></linearGradient><linearGradient id="b" gradientUnits="userSpaceOnUse" x1="86.9911" x2="85.4077" y1="116.4544" y2="102.5024"><stop offset=".2984" stop-color="#32a851"/><stop offset="1" stop-color="#30a850"/></linearGradient><linearGradient id="c" gradientUnits="userSpaceOnUse" x1="59.6901" x2="76.5354" y1="116.0655" y2="98.8697"><stop offset=".0541" stop-color="#4272b7"/><stop offset="1" stop-color="#2ca94f"/></linearGradient><linearGradient id="d" gradientUnits="userSpaceOnUse" x1="75.3308" x2="84.239" y1="86.9356" y2="100.5055"><stop offset=".1778" stop-color="#4272b7"/><stop offset="1" stop-color="#2b388f" stop-opacity=".5"/></linearGradient><linearGradient id="e" gradientUnits="userSpaceOnUse" x1="38.7777" x2="65.2087" y1="104.9876" y2="90.2426"><stop offset="0" stop-color="#e62e26"/><stop offset=".145" stop-color="#e63326"/><stop offset=".3265" stop-color="#e84325"/><stop offset=".4383" stop-color="#e95024"/><stop offset=".5941" stop-color="#f17b22"/><stop offset=".7697" stop-color="#f7971f"/></linearGradient><path d="m90.398 103.131-.003-.003-.007-.01-.01-.017-.731-1.08-.007-.01-.003-.003-6.548-9.631c-1.396-2.054-2.793-4.109-4.189-6.163-1.814-2.302-4.555-3.841-7.661-4.043-.233-.017-.468-.023-.704-.023-.306 0-.608.013-.907.04-.908.076-1.784.266-2.612.556-.806.282-2.3.801-3.644 2.181-.742.762-1.196 1.537-1.468 2.098-.025-.039-.067-.103-.107-.164-.952 1.573-2.027 3.074-3.216 4.485.069.115.134.225.183.314-.125.185-.25.37-.375.555-1.539 2.29-2.984 4.43-4.31 6.388-1.197 1.767-4.796 7.062-3.597 5.297-.581.854-1.119 1.644-1.611 2.365-.108.573-.235 1.14-.378 1.703.066.675.119 1.353.15 2.036.017.38.014.757.017 1.134.391.912.759 1.837 1.081 2.783.215-.333.364-.6.364-.6.078-.141.14-.262.184-.351.468.894 1.632 2.81 3.95 4.112 1.264.71 2.456 1.003 3.296 1.133h.003c.475.073.963.11 1.458.11.415 0 .827-.027 1.229-.08 2.425-.306 4.575-1.505 6.1-3.259 1.383-1.866 2.766-3.732 4.149-5.598l.076-.1c1.622 2.958 2.802 4.645 3.53 5.59.109.142.23.295.398.483 1.446 1.618 3.171 2.217 3.97 2.483.628.209 1.77.521 3.212.521.312 0 .618-.013.92-.043 3.472-.312 6.435-2.379 8-5.309.764-1.422 1.196-3.047 1.196-4.774 0-1.864-.501-3.608-1.378-5.106zm-27.163 7.395c-.137.184-1.908 2.494-4.156 2.502-.764.003-1.492-.242-1.493-.242-.703-.235-1.331-.631-1.84-1.144l-.007-.01-.013-.013c-.389-.392-.708-.854-.93-1.365l-.003-.003c-.069-.155-.129-.314-.181-.478 0 0-.21-.666-.211-1.379-.001-.754.301-1.86 1.07-2.947l2.033-3.003 2.382-3.515 1.057-1.555c.27-.398.539-.796.809-1.194.286.434.573.867.859 1.3l2.209 3.342.003.003.97 1.472 1.671 2.528zm8.704-11.731-.066.086-.492.661-.01.013-.007.01c-.203.299-.389.608-.555.93l-.066-.093v-.002l-2.183-3.306-3.213-4.86-.455-.691c-.001 0-.003.002-.004.002.342-.506.685-1.011 1.027-1.517l.003-.003c.164-.261 1.273-1.985 3.009-2.516.735-.225 1.5-.225 1.5-.225s.719 0 1.412.199c1.714.492 2.846 2.142 3.027 2.412l1.758 2.581 1.87 2.751c-2.631.303-4.953 1.628-6.555 3.568zm9.784 14.303c-1.773.019-3.453-1.052-4.385-2.721-1.194-1.806-2.388-3.612-3.581-5.419l2.239-3.02c.235-.346.919-1.26 2.113-1.698.728-.267 1.388-.261 1.513-.259.304.005.612.044.919.12 0 0 .447.109.861.313.663.326 1.029.753 1.864 1.833.45.582 1.362 1.78 2.358 3.367.155.246.343.553.522.991 0 0 .372.912.419 1.794.087 1.677-2.153 4.67-4.842 4.699z" fill="#4272b7"/><path d="m90.398 103.131-.003-.003-.007-.01-.01-.017-.731-1.08-.007-.01-.003-.003-1.493-2.196c-1.395-.08-2.781-.346-4.181-.352-.259-.001-.409-.165-.459-.358-.453.086-.906.161-1.364.174-.586.016-1.195-.05-1.775.056-.171.031-.414.098-.472.194-.057.094.004.317.069.501.193.019.386.028.58.076 0 0 .447.109.861.313.663.326 1.029.753 1.864 1.833.45.582 1.362 1.78 2.358 3.367.155.246.343.553.522.991 0 0 .372.912.419 1.794.088 1.676-2.152 4.669-4.841 4.698-1.773.019-3.453-1.052-4.385-2.721-1.194-1.806-2.388-3.612-3.581-5.419l.575-.775c-.617-1.73-2.01-2.996-3.05-4.478-.168.257-.331.517-.472.791l-.066-.093v-.004l-2.183-3.306-3.213-4.86-.396-.601c-.322.16-.648.289-.973.36-.019.038-.038.078-.057.116-.121.232-.256.455-.401.671-.344.996-.966 1.863-1.749 2.564-.037.389-.099.766-.211 1.118.064-.094.127-.188.191-.282.286.434.573.867.859 1.3l2.209 3.342.003.003.97 1.472 1.671 2.528-.195.262c.594.721 1.05 1.552 1.361 2.464.074.217.158.43.24.644.567.412 1.063.922 1.325 1.564.093-.125.186-.251.279-.376l.076-.1c1.622 2.958 2.802 4.645 3.53 5.59.109.142.23.295.398.483 1.446 1.618 3.171 2.217 3.97 2.483.628.209 1.77.521 3.212.521.312 0 .618-.013.92-.043 3.472-.312 6.435-2.379 8-5.309.764-1.422 1.196-3.047 1.196-4.774-.002-1.861-.503-3.605-1.38-5.103z" fill="url(#a)"/><path d="m75.046 106.935c-.43-.646-.859-1.291-1.289-1.937-1.069 1.442-2.137 2.884-3.206 4.326.383.671.766 1.342 1.15 2.013 1.114-1.468 2.229-2.935 3.345-4.402z" fill="#404041" opacity=".33"/><path d="m75.996 101.938c.235-.346.919-1.26 2.113-1.698.301-.11.579-.167.824-.203-.081-.392-.051-.787.164-1.1-1.014.902-2.384 1.482-4.133 1.482-.654 0-1.249-.088-1.8-.235.723.864 1.487 1.69 2.304 2.467z" fill="#4272b7"/><path d="m90.398 103.131-.003-.003-.007-.01-.01-.017-.731-1.08-.007-.01-.003-.003-1.493-2.196c-1.395-.08-2.781-.346-4.181-.352-.259-.001-.409-.165-.459-.358-.453.086-.906.161-1.364.174-.586.016-1.195-.05-1.775.056-.171.031-.414.098-.472.194-.057.094.004.317.069.501.193.019.386.028.58.076 0 0 .447.109.861.313.663.326 1.029.753 1.864 1.833.45.582 1.362 1.78 2.358 3.367.155.246.343.553.522.991 0 0 .372.912.419 1.794.087 1.655-2.096 4.587-4.739 4.69.295 1.75.161 3.586-.403 5.258.082.002.154.012.239.012.312 0 .618-.013.92-.043 3.472-.312 6.435-2.379 8-5.309.764-1.422 1.196-3.047 1.196-4.774-.003-1.862-.504-3.606-1.381-5.104z" fill="url(#b)"/><path d="m54.401 108.393c.075-1.372.773-2.363 1.07-2.947l2.033-3.003 2.382-3.515 1.057-1.555c1.658-2.448 3.316-4.897 4.973-7.346l.003-.003c.164-.261 1.273-1.985 3.009-2.516.735-.225 1.499-.225 1.5-.225-.001 0 2.01.006 9.207.028-.245-.366-.49-.732-.736-1.098-1.814-2.302-4.555-3.841-7.661-4.043-.233-.017-.468-.023-.704-.023-.306 0-.608.013-.907.04-.908.076-1.784.266-2.612.556-.806.282-2.3.801-3.644 2.181-.742.762-1.196 1.537-1.468 2.098-.025-.039-.067-.103-.107-.164-.952 1.573-2.027 3.074-3.216 4.485.069.115.134.225.183.314-.125.185-.25.37-.375.555-1.539 2.29-2.984 4.43-4.31 6.388-1.197 1.767-4.796 7.062-3.597 5.297-.581.854-1.119 1.644-1.611 2.365-.108.573-.235 1.14-.378 1.703.066.675.119 1.353.15 2.036.017.38.014.757.017 1.134.391.912.759 1.837 1.081 2.783.215-.333.364-.6.364-.6.078-.141.14-.262.184-.351.468.894 1.632 2.81 3.95 4.112.043.024.163.085.163.085s0-4.165 0-8.771z" fill="#4272b7"/><path d="m75.996 101.938c.235-.346.919-1.26 2.113-1.698.667-.244 1.231-.258 1.513-.259 1.886-.01 4.879-.022 8.63 0-.249-.37-.498-.74-.747-1.11-.611-.73-2.034-2.231-4.393-3.089-2.162-.787-4.001-.629-4.617-.556-3.67.436-5.935 2.857-6.555 3.568l-.066.086-.492.661-.01.013-.007.01c-.203.299-.389.608-.555.93-1.115 1.443-2.23 2.886-3.346 4.329l-4.229 5.701c-.137.184-1.908 2.494-4.156 2.502-.764.003-1.492-.242-1.493-.242-.703-.235-1.331-.631-1.84-1.144l-.007-.01-.013-.013c-.389-.392-.708-.854-.93-1.365l-.003-.003c-.195-.342-.28-.638-.321-.851 0 0-.036-.186-.071-1.006 0 0 0 2.983-.037 8.747 1.216.658 2.358.945 3.17 1.071h.003c.475.073.963.11 1.458.11.415 0 .827-.027 1.229-.08 2.425-.306 4.575-1.505 6.1-3.259 1.383-1.866 2.766-3.732 4.149-5.598l3.282-4.425z" fill="url(#c)"/><path d="m83.089 92.377c-1.396-2.054-2.793-4.109-4.189-6.163-1.537-1.95-3.74-3.349-6.266-3.855-.085 1.768-.539 3.435-1.362 5.001.181.029.375.068.568.123 1.714.492 2.846 2.142 3.027 2.412l1.757 2.581 1.87 2.751c.92-.105 2.6-.171 4.525.505 2.426.852 3.878 2.405 4.485 3.14-1.472-2.165-2.943-4.33-4.415-6.495z" fill="url(#d)"/><path d="m58.084 90.564c.07.1.139.202.139.202.24.358.419.667.541.889 1.047-1.545 2.093-3.09 3.14-4.635-.141-.245-.324-.541-.556-.867 0 0-.166-.236-.342-.454-1.738-2.152-4.07-2.861-4.822-3.09 0 0-1.264-.379-2.563-.449-.183-.01-.365-.013-.548-.013-.196 0-.389.007-.581.017-.354.018-1.481.14-2.419.414-1.853.541-4.084 2.007-5.692 4.155-.274.366-.478.682-.606.89l-2.179 3.213-3.169 4.681-5.017 7.405-.163.239c-1.017 1.548-1.608 3.402-1.608 5.392 0 1.608.385 3.13 1.073 4.472 1.512 2.963 4.478 5.056 7.96 5.339.269.027.538.037.814.037 3.226 0 6.086-1.551 7.884-3.944.411-.547.737-1.14.737-1.14.078-.141.14-.262.184-.351-.378-.729-.83-1.813-1.037-3.191-.305-2.038.082-3.701.37-4.618-1.873 2.751-3.201 4.696-3.802 5.601-.36.543-1.231 1.879-2.848 2.409-.218.071-.754.219-1.438.219-2.658 0-4.814-2.156-4.814-4.814 0-.61.158-1.225.158-1.225.202-.765.553-1.32.792-1.642l.007-.01 3.827-5.651.88-1.296 1.03-1.522 1.259-1.864 3.545-5.229c.176-.326.382-.631.618-.914.993-1.183 2.488-1.937 4.159-1.937.891 0 1.558.218 1.788.3 1.616.58 2.538 1.897 3.299 2.982z" fill="url(#e)"/><g fill="#5b5c5e" stroke="#5b5c5e" stroke-miterlimit="10" stroke-width=".5"><path d="m129.697 110.834c0 .092-.023.172-.071.241-.047.069-.13.124-.249.164-.118.04-.27.074-.453.104-.184.028-.424.043-.72.043-.272 0-.507-.015-.702-.043-.195-.029-.35-.063-.462-.104-.113-.04-.192-.095-.24-.164-.047-.069-.07-.149-.07-.241v-19.449h-.035l-7.869 19.535c-.034.08-.084.149-.146.207-.063.058-.155.106-.276.146s-.265.069-.432.087c-.167.017-.365.025-.595.025-.242 0-.449-.012-.622-.034-.172-.023-.316-.055-.431-.096-.115-.04-.205-.089-.268-.146-.063-.058-.106-.12-.13-.189l-7.524-19.535h-.017v19.449c0 .092-.024.172-.071.241-.048.069-.131.124-.249.164-.119.04-.272.074-.462.104-.189.028-.433.043-.729.043-.285 0-.521-.015-.711-.043-.19-.029-.341-.063-.454-.104-.112-.04-.189-.095-.23-.164-.042-.069-.062-.149-.062-.241v-20.537c0-.482.129-.828.386-1.035s.543-.311.858-.311h1.823c.373 0 .7.034.98.104s.525.179.736.328c.21.149.386.34.525.569.141.23.263.501.368.812l6.386 16.17h.086l6.644-16.118c.129-.346.269-.639.421-.881.152-.241.319-.434.5-.578.182-.144.383-.247.604-.311.223-.062.479-.095.771-.095h1.911c.176 0 .342.026.5.078.157.052.292.132.403.241s.202.248.271.414c.07.167.105.371.105.612v20.538z"/><path d="m148.559 102.413c0 .448-.112.768-.338.958-.226.189-.482.284-.771.284h-10.229c0 .863.087 1.64.26 2.33.174.69.463 1.283.867 1.777.404.495.931.874 1.578 1.139s1.439.397 2.376.397c.74 0 1.398-.061 1.977-.182.578-.12 1.078-.256 1.5-.405s.769-.285 1.041-.405c.271-.121.477-.182.615-.182.081 0 .153.021.217.061s.112.101.147.182c.034.08.061.192.078.336.018.145.026.319.026.526 0 .149-.006.279-.018.389s-.026.207-.043.293c-.018.086-.046.164-.087.233-.04.068-.092.135-.155.198-.062.063-.25.167-.561.311s-.714.285-1.208.423c-.495.138-1.067.262-1.717.371s-1.344.164-2.08.164c-1.276 0-2.396-.179-3.356-.535s-1.769-.886-2.425-1.588c-.655-.701-1.15-1.582-1.483-2.641-.334-1.058-.501-2.289-.501-3.692 0-1.335.173-2.534.518-3.599.346-1.063.843-1.967 1.493-2.709.649-.742 1.435-1.312 2.355-1.709.92-.396 1.95-.595 3.089-.595 1.22 0 2.258.195 3.115.587.856.391 1.562.917 2.114 1.578.552.662.957 1.438 1.217 2.33.259.892.388 1.844.388 2.856v.519zm-2.864-.846c.034-1.495-.299-2.669-.999-3.521s-1.739-1.277-3.116-1.277c-.706 0-1.325.133-1.858.397-.532.265-.978.615-1.337 1.053-.358.438-.637.946-.833 1.527-.197.581-.307 1.188-.33 1.82h8.473z"/><path d="m166.265 110.851c0 .093-.023.17-.069.233s-.121.118-.225.164-.247.08-.431.104c-.185.022-.414.034-.69.034-.288 0-.523-.012-.708-.034-.184-.023-.327-.058-.431-.104s-.179-.101-.225-.164-.069-.141-.069-.233v-9.095c0-.886-.069-1.599-.207-2.14s-.34-1.007-.604-1.397c-.266-.392-.607-.69-1.027-.897s-.906-.311-1.458-.311c-.714 0-1.427.253-2.14.759-.714.507-1.462 1.249-2.244 2.227v10.854c0 .093-.022.17-.068.233-.047.063-.121.118-.225.164s-.248.08-.432.104c-.185.022-.42.034-.707.034-.276 0-.507-.012-.69-.034-.185-.023-.331-.058-.44-.104s-.185-.101-.225-.164-.061-.141-.061-.233v-15.531c0-.092.018-.17.053-.233.034-.062.104-.12.207-.172s.235-.087.396-.104c.161-.018.374-.026.639-.026.253 0 .463.009.63.026.166.017.296.052.388.104.093.052.158.109.199.172.04.063.061.142.061.233v2.054c.874-.978 1.745-1.694 2.614-2.148.868-.455 1.745-.682 2.632-.682 1.035 0 1.906.175 2.614.526.707.351 1.279.819 1.717 1.406s.751 1.274.94 2.062c.19.788.285 1.734.285 2.839v9.474z"/><path d="m183.16 110.869c0 .138-.046.241-.138.311-.093.069-.219.121-.38.155s-.396.052-.707.052c-.3 0-.538-.018-.717-.052s-.308-.086-.388-.155c-.081-.069-.121-.173-.121-.311v-1.554c-.679.726-1.436 1.289-2.27 1.691s-1.717.604-2.648.604c-.817 0-1.557-.106-2.218-.319-.662-.213-1.226-.521-1.691-.924-.466-.402-.828-.897-1.087-1.483-.259-.587-.389-1.254-.389-2.002 0-.874.179-1.634.535-2.278s.868-1.179 1.536-1.604c.667-.426 1.483-.745 2.45-.958s2.054-.319 3.262-.319h2.14v-1.208c0-.598-.063-1.127-.189-1.588-.127-.46-.331-.843-.613-1.147-.281-.305-.646-.535-1.096-.69-.448-.155-1.001-.232-1.656-.232-.702 0-1.332.083-1.89.25-.559.167-1.047.351-1.467.552-.42.202-.771.386-1.053.553s-.492.25-.63.25c-.093 0-.173-.022-.242-.069-.068-.046-.129-.114-.181-.207-.052-.092-.09-.209-.112-.354-.023-.144-.034-.302-.034-.475 0-.287.02-.515.06-.682.041-.167.139-.325.294-.475s.423-.325.803-.526c.379-.201.816-.385 1.312-.552.494-.167 1.035-.305 1.622-.414s1.179-.164 1.777-.164c1.115 0 2.064.126 2.848.379.782.254 1.415.625 1.898 1.113.482.489.834 1.096 1.052 1.821.219.725.328 1.57.328 2.536zm-2.83-7.093h-2.434c-.782 0-1.461.066-2.036.198-.575.133-1.053.328-1.433.587-.379.259-.658.569-.837.932-.178.362-.267.779-.267 1.251 0 .806.256 1.447.768 1.925s1.228.716 2.148.716c.748 0 1.441-.189 2.079-.569.639-.38 1.309-.961 2.011-1.743v-3.297z"/></g></svg>