<svg viewBox="0 0 654.59 156.56" xmlns="http://www.w3.org/2000/svg" xmlns:xlink="http://www.w3.org/1999/xlink"><linearGradient id="a" gradientTransform="matrix(1 0 0 -1 0 166.46)" gradientUnits="userSpaceOnUse" x1="171.73" x2="239.92" y1="101.22" y2="30.09"><stop offset=".48" stop-color="#f7981d"/><stop offset=".55" stop-color="#d39b26"/><stop offset=".72" stop-color="#77a23d"/><stop offset=".84" stop-color="#2da84f"/></linearGradient><linearGradient id="b" gradientTransform="matrix(1 0 0 -1 0 166.46)" gradientUnits="userSpaceOnUse" x1="239.04" x2="232.2" y1="18.3" y2="78.55"><stop offset=".3" stop-color="#32a851"/><stop offset="1" stop-color="#30a850"/></linearGradient><linearGradient id="c" gradientTransform="matrix(1 0 0 -1 0 166.46)" gradientUnits="userSpaceOnUse" x1="121.15" x2="193.89" y1="19.98" y2="94.24"><stop offset=".05" stop-color="#4272b7"/><stop offset="1" stop-color="#2ca94f"/></linearGradient><linearGradient id="d" gradientTransform="matrix(1 0 0 -1 0 166.46)" gradientUnits="userSpaceOnUse" x1="188.69" x2="227.16" y1="145.78" y2="87.18"><stop offset=".18" stop-color="#4272b7"/><stop offset="1" stop-color="#2b388f" stop-opacity=".5"/></linearGradient><linearGradient id="e" gradientTransform="matrix(1 0 0 -1 0 166.46)" gradientUnits="userSpaceOnUse" x1="30.84" x2="144.98" y1="67.82" y2="131.5"><stop offset="0" stop-color="#e62e26"/><stop offset=".14" stop-color="#e63326"/><stop offset=".33" stop-color="#e84325"/><stop offset=".44" stop-color="#e95024"/><stop offset=".59" stop-color="#f17b22"/><stop offset=".77" stop-color="#f7971f"/></linearGradient><path d="m253.75 90.62v-.02s-.04-.04-.04-.04l-.04-.07-3.16-4.66-.03-.04h-.01s-28.28-41.61-28.28-41.61c-6.03-8.87-12.06-17.74-18.09-26.61-7.83-9.95-19.67-16.59-33.09-17.47-1-.07-2.02-.1-3.04-.1-1.32 0-2.62.06-3.92.17-3.92.33-7.7 1.15-11.28 2.4-3.48 1.22-9.93 3.46-15.74 9.42-3.2 3.29-5.17 6.64-6.34 9.06-.11-.17-.29-.45-.46-.71-4.11 6.79-8.75 13.27-13.89 19.37.3.5.58.97.79 1.36-.54.8-1.08 1.6-1.62 2.4-6.65 9.89-12.89 19.13-18.61 27.59-5.17 7.63-20.71 30.5-15.53 22.87-2.51 3.69-4.83 7.1-6.96 10.22-.47 2.47-1.02 4.92-1.63 7.35.28 2.91.51 5.84.65 8.79.07 1.64.06 3.27.07 4.9 1.69 3.94 3.28 7.93 4.67 12.02.93-1.44 1.57-2.59 1.57-2.59.34-.61.6-1.13.79-1.51 2.02 3.86 7.05 12.14 17.06 17.76 5.46 3.06 10.6 4.33 14.23 4.89h.01c2.05.32 4.16.47 6.3.47 1.79 0 3.57-.11 5.31-.34 10.47-1.32 19.76-6.5 26.34-14.07 5.97-8.06 11.95-16.12 17.92-24.17l.33-.43c7.01 12.77 12.1 20.06 15.24 24.14.47.61.99 1.27 1.72 2.09 6.24 6.99 13.69 9.57 17.14 10.72 2.71.9 7.64 2.25 13.87 2.25 1.35 0 2.67-.06 3.97-.19 14.99-1.35 27.79-10.27 34.55-22.93 3.3-6.14 5.17-13.16 5.17-20.62 0-8.03-2.17-15.57-5.95-22.04zm-117.3 31.94c-.59.79-8.24 10.77-17.95 10.8-3.3.01-6.45-1.04-6.45-1.04-3.04-1.02-5.75-2.73-7.95-4.94l-.03-.04-.06-.06c-1.68-1.69-3.06-3.69-4.02-5.9h-.01c-.3-.68-.56-1.37-.78-2.08 0 0-.91-2.88-.91-5.96 0-3.25 1.3-8.03 4.62-12.73l8.78-12.97 10.29-15.18 4.56-6.71 3.49-5.16 3.71 5.62 9.54 14.43v.02s4.2 6.36 4.2 6.36l7.22 10.92-18.26 24.62zm37.59-50.66-.29.37-2.12 2.85-.04.06-.03.04c-.88 1.29-1.68 2.62-2.4 4.02l-.29-.4v-.02l-9.43-14.28-13.87-20.99-1.97-2.98s-.01 0-.02 0c1.48-2.18 2.96-4.37 4.43-6.55h.01c.71-1.14 5.5-8.59 12.99-10.88 3.17-.97 6.48-.97 6.48-.97s3.11 0 6.1.86c7.4 2.12 12.29 9.25 13.07 10.42l7.59 11.15 8.08 11.88c-11.36 1.31-21.39 7.03-28.31 15.41zm42.25 61.76c-7.65.08-14.91-4.54-18.94-11.75-5.15-7.8-10.31-15.6-15.47-23.4l9.67-13.04c1.01-1.49 3.97-5.44 9.12-7.33 3.15-1.15 6-1.13 6.53-1.12 1.31.02 2.64.19 3.97.52 0 0 1.93.47 3.72 1.35 2.86 1.41 4.45 3.25 8.05 7.92 1.94 2.51 5.88 7.69 10.18 14.54.67 1.06 1.48 2.39 2.25 4.28 0 0 1.61 3.94 1.81 7.75.38 7.24-9.3 20.16-20.9 20.29z" fill="#4272b7"/><path d="m253.75 90.62v-.02s-.04-.04-.04-.04l-.04-.07-3.16-4.66-.03-.04h-.01s-6.45-9.5-6.45-9.5c-6.02-.35-12.01-1.49-18.06-1.52-1.12 0-1.77-.71-1.98-1.55-1.95.37-3.92.7-5.89.75-2.53.07-5.16-.22-7.67.24-.74.14-1.79.42-2.04.84-.24.41.02 1.37.3 2.16.83.08 1.67.12 2.51.33 0 0 1.93.47 3.72 1.35 2.86 1.41 4.45 3.25 8.05 7.92 1.94 2.51 5.88 7.69 10.18 14.54.67 1.06 1.48 2.39 2.25 4.28 0 0 1.61 3.94 1.81 7.75.38 7.24-9.29 20.16-20.9 20.29-7.65.08-14.91-4.54-18.94-11.75-5.15-7.8-10.31-15.6-15.47-23.4l2.48-3.35c-2.66-7.47-8.68-12.94-13.17-19.34-.73 1.11-1.43 2.23-2.04 3.41l-.29-.4v-.02l-9.43-14.28-13.87-20.99-1.71-2.6c-1.39.69-2.8 1.25-4.2 1.56-.08.16-.16.34-.25.5-.52 1-1.11 1.96-1.73 2.9-1.49 4.3-4.17 8.04-7.55 11.07-.16 1.68-.43 3.31-.91 4.83.27-.41.55-.81.83-1.22l3.71 5.62 9.54 14.43v.02s4.2 6.36 4.2 6.36l7.22 10.92-.84 1.13c2.57 3.11 4.54 6.7 5.88 10.64.32.94.68 1.86 1.04 2.78 2.45 1.78 4.59 3.98 5.72 6.76.4-.54.8-1.08 1.2-1.62l.33-.43c7.01 12.77 12.1 20.06 15.24 24.14.47.61.99 1.27 1.72 2.09 6.24 6.99 13.69 9.57 17.14 10.72 2.71.9 7.64 2.25 13.87 2.25 1.35 0 2.67-.06 3.97-.19 14.99-1.35 27.79-10.27 34.55-22.93 3.3-6.14 5.17-13.16 5.17-20.62 0-8.03-2.17-15.57-5.96-22.04z" fill="url(#a)"/><path d="m187.46 107.04c-1.86-2.79-3.71-5.58-5.57-8.36-4.61 6.23-9.23 12.45-13.85 18.68 1.65 2.9 3.31 5.79 4.96 8.69 4.82-6.34 9.63-12.67 14.45-19.01z" fill="#404041" opacity=".33"/><path d="m191.56 85.47c1.01-1.49 3.97-5.44 9.12-7.33 1.3-.47 2.5-.72 3.56-.88-.35-1.69-.22-3.4.71-4.75-4.38 3.9-10.29 6.4-17.85 6.4-2.82 0-5.4-.38-7.77-1.01 3.12 3.73 6.42 7.3 9.95 10.65z" fill="#4272b7"/><path d="m253.75 90.62v-.02s-.04-.04-.04-.04l-.04-.07-3.16-4.66-.03-.04h-.01s-6.45-9.5-6.45-9.5c-6.02-.35-12.01-1.49-18.06-1.52-1.12 0-1.77-.71-1.98-1.55-1.95.37-3.92.7-5.89.75-2.53.07-5.16-.22-7.67.24-.74.14-1.79.42-2.04.84-.24.41.02 1.37.3 2.16.83.08 1.67.12 2.51.33 0 0 1.93.47 3.72 1.35 2.86 1.41 4.45 3.25 8.05 7.92 1.94 2.51 5.88 7.69 10.18 14.54.67 1.06 1.48 2.39 2.25 4.28 0 0 1.61 3.94 1.81 7.75.38 7.15-9.05 19.81-20.46 20.25 1.27 7.56.69 15.48-1.74 22.71.35 0 .67.05 1.03.05 1.35 0 2.67-.06 3.97-.19 14.99-1.35 27.79-10.27 34.55-22.93 3.3-6.14 5.17-13.16 5.17-20.62 0-8.03-2.17-15.57-5.96-22.04z" fill="url(#b)"/><path d="m98.3 113.34c.32-5.92 3.34-10.21 4.62-12.73l8.78-12.97 10.29-15.18 4.56-6.71c7.16-10.57 14.32-21.15 21.48-31.72h.01c.71-1.14 5.5-8.59 12.99-10.88 3.17-.97 6.47-.97 6.48-.97 0 0 8.68.03 39.76.12-1.06-1.58-2.12-3.16-3.18-4.74-7.83-9.94-19.66-16.58-33.08-17.46-1-.07-2.02-.1-3.04-.1-1.32 0-2.62.06-3.92.17-3.92.33-7.7 1.15-11.28 2.4-3.48 1.22-9.93 3.46-15.74 9.42-3.2 3.29-5.17 6.64-6.34 9.06-.11-.17-.29-.45-.46-.71-4.11 6.79-8.75 13.27-13.89 19.37.3.5.58.97.79 1.36-.54.8-1.08 1.6-1.62 2.4-6.65 9.89-12.89 19.13-18.61 27.59-5.17 7.63-20.71 30.5-15.53 22.87-2.51 3.69-4.83 7.1-6.96 10.22-.47 2.47-1.02 4.92-1.63 7.35.28 2.91.51 5.84.65 8.79.07 1.64.06 3.27.07 4.9 1.69 3.94 3.28 7.93 4.67 12.02.93-1.44 1.57-2.59 1.57-2.59.34-.61.6-1.13.79-1.51 2.02 3.86 7.05 12.14 17.06 17.76.19.1.7.37.7.37s0-17.98 0-37.87z" fill="#4272b7"/><path d="m191.56 85.47c1.01-1.49 3.97-5.44 9.12-7.33 2.88-1.05 5.32-1.11 6.53-1.12 8.15-.04 21.07-.09 37.27 0-1.08-1.6-2.15-3.19-3.23-4.79-2.64-3.15-8.79-9.63-18.97-13.34-9.34-3.4-17.28-2.72-19.94-2.4-15.85 1.88-25.63 12.34-28.31 15.41l-.29.37-2.12 2.85-.04.06-.03.04c-.88 1.29-1.68 2.62-2.4 4.02-4.82 6.23-9.63 12.46-14.45 18.69l-18.26 24.62c-.59.79-8.24 10.77-17.95 10.8-3.3.01-6.45-1.04-6.45-1.04-3.04-1.02-5.75-2.73-7.95-4.94l-.03-.04-.06-.06c-1.68-1.69-3.06-3.69-4.02-5.9h-.01c-.84-1.49-1.21-2.77-1.38-3.69 0 0-.15-.8-.31-4.34 0 0 0 12.88-.16 37.77 5.25 2.84 10.18 4.08 13.69 4.62h.01c2.05.32 4.16.47 6.3.47 1.79 0 3.57-.11 5.31-.34 10.47-1.32 19.76-6.5 26.34-14.07 5.97-8.06 11.95-16.12 17.92-24.17 4.73-6.37 9.45-12.74 14.17-19.11l9.67-13.04z" fill="url(#c)"/><path d="m222.19 44.18c-6.03-8.87-12.06-17.74-18.09-26.61-6.64-8.42-16.15-14.46-27.06-16.65-.37 7.63-2.33 14.83-5.88 21.6.78.12 1.62.29 2.45.53 7.4 2.12 12.29 9.25 13.07 10.42l7.59 11.15 8.08 11.88c3.97-.45 11.23-.74 19.54 2.18 10.48 3.68 16.75 10.39 19.37 13.56-6.35-9.35-12.71-18.7-19.07-28.05z" fill="url(#d)"/><path d="m114.21 36.35c.3.43.6.87.6.87 1.04 1.55 1.81 2.88 2.33 3.84 4.52-6.67 9.04-13.34 13.56-20.01-.61-1.06-1.4-2.34-2.4-3.74 0 0-.72-1.02-1.48-1.96-7.51-9.29-17.57-12.36-20.82-13.34 0 0-5.46-1.64-11.07-1.94-.79-.04-1.58-.06-2.37-.06-.85 0-1.68.03-2.51.07-1.53.08-6.39.6-10.45 1.79-8 2.34-17.64 8.67-24.58 17.94-1.18 1.58-2.06 2.95-2.62 3.85l-9.41 13.87-13.69 20.22-21.66 31.98-.7 1.03c-4.39 6.69-6.94 14.69-6.94 23.28 0 6.94 1.66 13.52 4.63 19.31 6.53 12.8 19.34 21.84 34.38 23.05 1.16.11 2.32.16 3.51.16 13.93 0 26.28-6.7 34.04-17.03 1.78-2.36 3.18-4.92 3.18-4.92.34-.61.6-1.13.79-1.52-1.63-3.15-3.59-7.83-4.48-13.78-1.32-8.8.35-15.98 1.6-19.94-8.09 11.88-13.83 20.28-16.42 24.19-1.55 2.34-5.32 8.11-12.3 10.4-.94.31-3.26.94-6.21.94-11.48 0-20.79-9.31-20.79-20.79 0-2.64.68-5.29.68-5.29.87-3.31 2.39-5.7 3.42-7.09l.03-.04 16.53-24.4 3.8-5.59 4.45-6.57 5.44-8.05 15.31-22.58c.76-1.41 1.65-2.73 2.67-3.95 4.29-5.11 10.75-8.36 17.96-8.36 3.85 0 6.73.94 7.72 1.3 6.98 2.5 10.97 8.18 14.25 12.87z" fill="url(#e)"/><g fill="#5b5c5e" stroke="#5b5c5e" stroke-miterlimit="10" stroke-width=".5">
<!--    <path d="m423.46 123.88c0 .4-.1.74-.31 1.04s-.56.53-1.07.71c-.51.17-1.16.32-1.96.45-.79.12-1.83.19-3.11.19-1.18 0-2.19-.06-3.03-.19-.84-.12-1.51-.27-2-.45-.49-.17-.83-.41-1.04-.71s-.31-.65-.31-1.04v-83.99h-.15l-33.98 84.36c-.15.35-.36.65-.63.9s-.67.46-1.19.63-1.14.3-1.86.37c-.72.08-1.58.11-2.57.11-1.04 0-1.94-.05-2.68-.15s-1.37-.24-1.86-.41c-.5-.17-.88-.39-1.16-.63-.27-.25-.46-.52-.56-.82l-32.49-84.36h-.07v83.99c0 .4-.1.74-.31 1.04s-.56.53-1.08.71c-.51.17-1.18.32-2 .45-.82.12-1.87.19-3.15.19s-2.25-.06-3.07-.19c-.82-.12-1.47-.27-1.96-.45-.49-.17-.82-.41-1-.71s-.27-.65-.27-1.04v-88.68c0-2.09.55-3.58 1.66-4.47s2.35-1.34 3.71-1.34h7.87c1.61 0 3.03.15 4.24.45s2.27.77 3.18 1.42 1.67 1.47 2.27 2.46 1.14 2.16 1.59 3.5l27.57 69.83h.37l28.69-69.6c.55-1.49 1.16-2.76 1.82-3.8s1.38-1.88 2.16-2.5 1.65-1.07 2.61-1.34 2.07-.41 3.33-.41h8.25c.76 0 1.48.11 2.16.33s1.26.57 1.74 1.04.87 1.07 1.17 1.79.45 1.6.45 2.65v88.68z"/>-->
<!--    <path d="m504.92 87.51c0 1.94-.49 3.32-1.46 4.14s-2.08 1.23-3.33 1.23h-44.17c0 3.73.37 7.08 1.12 10.06s2 5.54 3.74 7.68c1.75 2.14 4.02 3.78 6.81 4.92 2.8 1.14 6.22 1.71 10.26 1.71 3.2 0 6.04-.26 8.54-.78s4.66-1.1 6.48-1.75 3.32-1.23 4.49-1.75 2.06-.78 2.66-.78c.35 0 .66.09.93.26.28.17.49.44.64.78.15.35.26.83.34 1.45.07.62.11 1.38.11 2.27 0 .65-.03 1.21-.08 1.68s-.11.9-.19 1.27-.2.71-.37 1.01-.4.59-.67.86-1.08.72-2.42 1.34-3.08 1.23-5.22 1.83-4.61 1.13-7.41 1.6c-2.81.47-5.8.71-8.98.71-5.52 0-10.35-.77-14.49-2.31-4.15-1.54-7.64-3.83-10.47-6.85s-4.97-6.83-6.41-11.4-2.16-9.89-2.16-15.95.74-10.94 2.23-15.54c1.49-4.59 3.64-8.5 6.45-11.7s6.2-5.66 10.17-7.38c3.97-1.71 8.42-2.57 13.34-2.57 5.27 0 9.75.85 13.45 2.53 3.7 1.69 6.74 3.96 9.13 6.82s4.14 6.21 5.25 10.06c1.12 3.85 1.68 7.96 1.68 12.33v2.23zm-12.37-3.65c.15-6.46-1.29-11.53-4.31-15.2-3.02-3.68-7.51-5.52-13.46-5.52-3.05 0-5.72.57-8.02 1.71s-4.22 2.66-5.77 4.55-2.75 4.09-3.6 6.6-1.32 5.13-1.42 7.86h36.59z"/>-->
<!--    <path d="m581.38 123.96c0 .4-.1.73-.3 1.01-.2.27-.52.51-.97.71s-1.07.35-1.86.45c-.8.1-1.79.15-2.98.15s-2.26-.05-3.06-.15c-.79-.1-1.42-.25-1.86-.45-.45-.2-.77-.43-.97-.71-.2-.27-.3-.61-.3-1.01v-39.27c0-3.83-.3-6.91-.9-9.24s-1.47-4.35-2.61-6.04-2.62-2.98-4.43-3.88-3.91-1.34-6.3-1.34c-3.08 0-6.16 1.09-9.24 3.28s-6.31 5.39-9.69 9.61v46.88c0 .4-.1.73-.3 1.01-.2.27-.52.51-.97.71s-1.07.35-1.86.45-1.81.15-3.06.15-2.19-.05-2.98-.15c-.8-.1-1.43-.25-1.9-.45s-.79-.43-.97-.71c-.17-.27-.26-.61-.26-1.01v-67.07c0-.4.07-.73.22-1.01.15-.27.45-.52.89-.74.45-.22 1.02-.37 1.72-.45.69-.07 1.61-.11 2.76-.11s2 .04 2.72.11c.72.08 1.28.22 1.68.45.4.22.68.47.86.74.17.27.26.61.26 1.01v8.87c3.78-4.22 7.54-7.32 11.29-9.28s7.54-2.94 11.36-2.94c4.47 0 8.23.76 11.29 2.27 3.06 1.52 5.53 3.54 7.42 6.07s3.24 5.5 4.06 8.91c.82 3.4 1.23 7.49 1.23 12.26v40.91z"/>-->
<!--    <path d="m654.34 124.03c0 .6-.2 1.04-.6 1.34s-.94.52-1.64.67-1.71.22-3.06.22-2.32-.07-3.09-.22-1.33-.37-1.68-.67-.52-.74-.52-1.34v-6.71c-2.93 3.13-6.2 5.57-9.8 7.3-3.6 1.74-7.41 2.61-11.44 2.61-3.53 0-6.72-.46-9.58-1.38s-5.29-2.25-7.3-3.99-3.58-3.88-4.69-6.41c-1.12-2.53-1.68-5.41-1.68-8.65 0-3.77.77-7.05 2.31-9.84 1.54-2.78 3.75-5.09 6.63-6.93s6.41-3.22 10.58-4.14 8.87-1.38 14.09-1.38h9.24v-5.22c0-2.58-.27-4.87-.82-6.86s-1.43-3.64-2.65-4.96-2.79-2.31-4.73-2.98-4.32-1.01-7.15-1.01c-3.03 0-5.75.36-8.16 1.08s-4.52 1.52-6.34 2.39c-1.81.87-3.33 1.66-4.55 2.39-1.22.72-2.12 1.08-2.72 1.08-.4 0-.74-.1-1.04-.3s-.56-.5-.78-.9-.39-.91-.48-1.53c-.1-.62-.15-1.3-.15-2.05 0-1.24.09-2.22.26-2.94s.6-1.4 1.27-2.05 1.83-1.4 3.47-2.27 3.53-1.66 5.66-2.39c2.14-.72 4.47-1.32 7.01-1.79 2.53-.47 5.09-.71 7.68-.71 4.82 0 8.92.55 12.3 1.64s6.11 2.7 8.2 4.81 3.6 4.73 4.55 7.86c.94 3.13 1.42 6.78 1.42 10.96v45.24zm-12.22-30.63h-10.51c-3.38 0-6.31.29-8.79.86s-4.55 1.42-6.19 2.53c-1.64 1.12-2.84 2.46-3.61 4.02-.77 1.57-1.16 3.37-1.16 5.4 0 3.48 1.1 6.25 3.32 8.31 2.21 2.06 5.3 3.09 9.28 3.09 3.23 0 6.22-.82 8.98-2.46s5.65-4.15 8.68-7.53v-14.23z"/>-->
</g></svg>