<?xml version="1.0" encoding="utf-8"?>
<!-- Generator: Adobe Illustrator 26.5.0, SVG Export Plug-In . SVG Version: 6.00 Build 0)  -->
<svg version="1.1" id="Layer_1" xmlns="http://www.w3.org/2000/svg" xmlns:xlink="http://www.w3.org/1999/xlink" x="0px" y="0px"
	 viewBox="0 0 214.737 207.8" style="enable-background:new 0 0 214.737 207.8;" xml:space="preserve">
<style type="text/css">
	.st0{fill:#00ADEE;}
	.st1{fill:#4272B7;}
	.st2{fill:url(#SVGID_1_);}
	.st3{opacity:0.33;fill:#404041;}
	.st4{fill:url(#SVGID_00000015336602428591343790000002683235090588100237_);}
	.st5{fill:url(#SVGID_00000031909384698839361850000004184473277412865670_);}
	.st6{fill:url(#SVGID_00000103946329278752006980000005772663250998291329_);}
	.st7{fill:url(#SVGID_00000103239370712815674690000003193393089862689427_);}
	.st8{fill:#5B5C5E;stroke:#5B5C5E;stroke-width:0.5;stroke-miterlimit:10;}
</style>
<g>
	<g>
		<path class="st0" d="M77.054,112.38"/>
		<path class="st1" d="M90.398,103.131l-0.003-0.003l-0.007-0.01l-0.01-0.017l-0.731-1.08l-0.007-0.01l-0.003-0.003l-6.548-9.631
			c-1.396-2.054-2.793-4.109-4.189-6.163c-1.814-2.302-4.555-3.841-7.661-4.043c-0.233-0.017-0.468-0.023-0.704-0.023
			c-0.306,0-0.608,0.013-0.907,0.04c-0.908,0.076-1.784,0.266-2.612,0.556c-0.806,0.282-2.3,0.801-3.644,2.181
			c-0.742,0.762-1.196,1.537-1.468,2.098c-0.025-0.039-0.067-0.103-0.107-0.164c-0.952,1.573-2.027,3.074-3.216,4.485
			c0.069,0.115,0.134,0.225,0.183,0.314c-0.125,0.185-0.25,0.37-0.375,0.555c-1.539,2.29-2.984,4.43-4.31,6.388
			c-1.197,1.767-4.796,7.062-3.597,5.297c-0.581,0.854-1.119,1.644-1.611,2.365c-0.108,0.573-0.235,1.14-0.378,1.703
			c0.066,0.675,0.119,1.353,0.15,2.036c0.017,0.38,0.014,0.757,0.017,1.134c0.391,0.912,0.759,1.837,1.081,2.783
			c0.215-0.333,0.364-0.6,0.364-0.6c0.078-0.141,0.14-0.262,0.184-0.351c0.468,0.894,1.632,2.81,3.95,4.112
			c1.264,0.71,2.456,1.003,3.296,1.133h0.003c0.475,0.073,0.963,0.11,1.458,0.11c0.415,0,0.827-0.027,1.229-0.08
			c2.425-0.306,4.575-1.505,6.1-3.259c1.383-1.866,2.766-3.732,4.149-5.598l0.076-0.1c1.622,2.958,2.802,4.645,3.53,5.59
			c0.109,0.142,0.23,0.295,0.398,0.483c1.446,1.618,3.171,2.217,3.97,2.483c0.628,0.209,1.77,0.521,3.212,0.521
			c0.312,0,0.618-0.013,0.92-0.043c3.472-0.312,6.435-2.379,8-5.309c0.764-1.422,1.196-3.047,1.196-4.774
			C91.776,106.373,91.275,104.629,90.398,103.131z M63.235,110.526c-0.137,0.184-1.908,2.494-4.156,2.502
			c-0.764,0.003-1.492-0.242-1.493-0.242c-0.703-0.235-1.331-0.631-1.84-1.144l-0.007-0.01l-0.013-0.013
			c-0.389-0.392-0.708-0.854-0.93-1.365l-0.003-0.003c-0.069-0.155-0.129-0.314-0.181-0.478c0,0-0.21-0.666-0.211-1.379
			c-0.001-0.754,0.301-1.86,1.07-2.947l2.033-3.003l2.382-3.515l1.057-1.555c0.27-0.398,0.539-0.796,0.809-1.194
			c0.286,0.434,0.573,0.867,0.859,1.3l2.209,3.342l0.003,0.003l0.97,1.472l1.671,2.528L63.235,110.526z M71.939,98.795l-0.066,0.086
			l-0.492,0.661l-0.01,0.013l-0.007,0.01c-0.203,0.299-0.389,0.608-0.555,0.93l-0.066-0.093V100.4l-2.183-3.306l-3.213-4.86
			l-0.455-0.691c-0.001,0-0.003,0.002-0.004,0.002c0.342-0.506,0.685-1.011,1.027-1.517l0.003-0.003
			c0.164-0.261,1.273-1.985,3.009-2.516c0.735-0.225,1.5-0.225,1.5-0.225s0.719,0,1.412,0.199c1.714,0.492,2.846,2.142,3.027,2.412
			l1.758,2.581l1.87,2.751C75.863,95.53,73.541,96.855,71.939,98.795z M81.723,113.098c-1.773,0.019-3.453-1.052-4.385-2.721
			c-1.194-1.806-2.388-3.612-3.581-5.419l2.239-3.02c0.235-0.346,0.919-1.26,2.113-1.698c0.728-0.267,1.388-0.261,1.513-0.259
			c0.304,0.005,0.612,0.044,0.919,0.12c0,0,0.447,0.109,0.861,0.313c0.663,0.326,1.029,0.753,1.864,1.833
			c0.45,0.582,1.362,1.78,2.358,3.367c0.155,0.246,0.343,0.553,0.522,0.991c0,0,0.372,0.912,0.419,1.794
			C86.652,110.076,84.412,113.069,81.723,113.098z"/>
		<linearGradient id="SVGID_1_" gradientUnits="userSpaceOnUse" x1="71.4037" y1="97.2539" x2="87.1955" y2="113.7253">
			<stop  offset="0.4776" style="stop-color:#F7981D"/>
			<stop  offset="0.5518" style="stop-color:#D39B26"/>
			<stop  offset="0.7156" style="stop-color:#77A23D"/>
			<stop  offset="0.8404" style="stop-color:#2DA84F"/>
		</linearGradient>
		<path class="st2" d="M90.398,103.131l-0.003-0.003l-0.007-0.01l-0.01-0.017l-0.731-1.08l-0.007-0.01l-0.003-0.003l-1.493-2.196
			c-1.395-0.08-2.781-0.346-4.181-0.352c-0.259-0.001-0.409-0.165-0.459-0.358c-0.453,0.086-0.906,0.161-1.364,0.174
			c-0.586,0.016-1.195-0.05-1.775,0.056c-0.171,0.031-0.414,0.098-0.472,0.194c-0.057,0.094,0.004,0.317,0.069,0.501
			c0.193,0.019,0.386,0.028,0.58,0.076c0,0,0.447,0.109,0.861,0.313c0.663,0.326,1.029,0.753,1.864,1.833
			c0.45,0.582,1.362,1.78,2.358,3.367c0.155,0.246,0.343,0.553,0.522,0.991c0,0,0.372,0.912,0.419,1.794
			c0.088,1.676-2.152,4.669-4.841,4.698c-1.773,0.019-3.453-1.052-4.385-2.721c-1.194-1.806-2.388-3.612-3.581-5.419l0.575-0.775
			c-0.617-1.73-2.01-2.996-3.05-4.478c-0.168,0.257-0.331,0.517-0.472,0.791l-0.066-0.093V100.4l-2.183-3.306l-3.213-4.86
			l-0.396-0.601c-0.322,0.16-0.648,0.289-0.973,0.36c-0.019,0.038-0.038,0.078-0.057,0.116c-0.121,0.232-0.256,0.455-0.401,0.671
			c-0.344,0.996-0.966,1.863-1.749,2.564c-0.037,0.389-0.099,0.766-0.211,1.118c0.064-0.094,0.127-0.188,0.191-0.282
			c0.286,0.434,0.573,0.867,0.859,1.3l2.209,3.342l0.003,0.003l0.97,1.472l1.671,2.528l-0.195,0.262
			c0.594,0.721,1.05,1.552,1.361,2.464c0.074,0.217,0.158,0.43,0.24,0.644c0.567,0.412,1.063,0.922,1.325,1.564
			c0.093-0.125,0.186-0.251,0.279-0.376l0.076-0.1c1.622,2.958,2.802,4.645,3.53,5.59c0.109,0.142,0.23,0.295,0.398,0.483
			c1.446,1.618,3.171,2.217,3.97,2.483c0.628,0.209,1.77,0.521,3.212,0.521c0.312,0,0.618-0.013,0.92-0.043
			c3.472-0.312,6.435-2.379,8-5.309c0.764-1.422,1.196-3.047,1.196-4.774C91.776,106.373,91.275,104.629,90.398,103.131z"/>
		<path class="st3" d="M75.046,106.935c-0.43-0.646-0.859-1.291-1.289-1.937c-1.069,1.442-2.137,2.884-3.206,4.326
			c0.383,0.671,0.766,1.342,1.15,2.013C72.815,109.869,73.93,108.402,75.046,106.935z"/>
		<path class="st1" d="M75.996,101.938c0.235-0.346,0.919-1.26,2.113-1.698c0.301-0.11,0.579-0.167,0.824-0.203
			c-0.081-0.392-0.051-0.787,0.164-1.1c-1.014,0.902-2.384,1.482-4.133,1.482c-0.654,0-1.249-0.088-1.8-0.235
			c0.723,0.864,1.487,1.69,2.304,2.467L75.996,101.938z"/>
		
			<linearGradient id="SVGID_00000114753441032260742190000015962854255739470014_" gradientUnits="userSpaceOnUse" x1="86.9911" y1="116.4544" x2="85.4077" y2="102.5024">
			<stop  offset="0.2984" style="stop-color:#32A851"/>
			<stop  offset="1" style="stop-color:#30A850"/>
		</linearGradient>
		<path style="fill:url(#SVGID_00000114753441032260742190000015962854255739470014_);" d="M90.398,103.131l-0.003-0.003
			l-0.007-0.01l-0.01-0.017l-0.731-1.08l-0.007-0.01l-0.003-0.003l-1.493-2.196c-1.395-0.08-2.781-0.346-4.181-0.352
			c-0.259-0.001-0.409-0.165-0.459-0.358c-0.453,0.086-0.906,0.161-1.364,0.174c-0.586,0.016-1.195-0.05-1.775,0.056
			c-0.171,0.031-0.414,0.098-0.472,0.194c-0.057,0.094,0.004,0.317,0.069,0.501c0.193,0.019,0.386,0.028,0.58,0.076
			c0,0,0.447,0.109,0.861,0.313c0.663,0.326,1.029,0.753,1.864,1.833c0.45,0.582,1.362,1.78,2.358,3.367
			c0.155,0.246,0.343,0.553,0.522,0.991c0,0,0.372,0.912,0.419,1.794c0.087,1.655-2.096,4.587-4.739,4.69
			c0.295,1.75,0.161,3.586-0.403,5.258c0.082,0.002,0.154,0.012,0.239,0.012c0.312,0,0.618-0.013,0.92-0.043
			c3.472-0.312,6.435-2.379,8-5.309c0.764-1.422,1.196-3.047,1.196-4.774C91.776,106.373,91.275,104.629,90.398,103.131z"/>
		<path class="st1" d="M54.401,108.393c0.075-1.372,0.773-2.363,1.07-2.947l2.033-3.003l2.382-3.515l1.057-1.555
			c1.658-2.448,3.316-4.897,4.973-7.346l0.003-0.003c0.164-0.261,1.273-1.985,3.009-2.516c0.735-0.225,1.499-0.225,1.5-0.225
			c-0.001,0,2.01,0.006,9.207,0.028c-0.245-0.366-0.49-0.732-0.736-1.098c-1.814-2.302-4.555-3.841-7.661-4.043
			c-0.233-0.017-0.468-0.023-0.704-0.023c-0.306,0-0.608,0.013-0.907,0.04c-0.908,0.076-1.784,0.266-2.612,0.556
			c-0.806,0.282-2.3,0.801-3.644,2.181c-0.742,0.762-1.196,1.537-1.468,2.098c-0.025-0.039-0.067-0.103-0.107-0.164
			c-0.952,1.573-2.027,3.074-3.216,4.485c0.069,0.115,0.134,0.225,0.183,0.314c-0.125,0.185-0.25,0.37-0.375,0.555
			c-1.539,2.29-2.984,4.43-4.31,6.388c-1.197,1.767-4.796,7.062-3.597,5.297c-0.581,0.854-1.119,1.644-1.611,2.365
			c-0.108,0.573-0.235,1.14-0.378,1.703c0.066,0.675,0.119,1.353,0.15,2.036c0.017,0.38,0.014,0.757,0.017,1.134
			c0.391,0.912,0.759,1.837,1.081,2.783c0.215-0.333,0.364-0.6,0.364-0.6c0.078-0.141,0.14-0.262,0.184-0.351
			c0.468,0.894,1.632,2.81,3.95,4.112c0.043,0.024,0.163,0.085,0.163,0.085S54.401,112.999,54.401,108.393z"/>
		
			<linearGradient id="SVGID_00000138541743000412007170000011268954725527167908_" gradientUnits="userSpaceOnUse" x1="59.6901" y1="116.0655" x2="76.5354" y2="98.8697">
			<stop  offset="0.0541" style="stop-color:#4272B7"/>
			<stop  offset="1" style="stop-color:#2CA94F"/>
		</linearGradient>
		<path style="fill:url(#SVGID_00000138541743000412007170000011268954725527167908_);" d="M75.996,101.938
			c0.235-0.346,0.919-1.26,2.113-1.698c0.667-0.244,1.231-0.258,1.513-0.259c1.886-0.01,4.879-0.022,8.63,0
			c-0.249-0.37-0.498-0.74-0.747-1.11c-0.611-0.73-2.034-2.231-4.393-3.089c-2.162-0.787-4.001-0.629-4.617-0.556
			c-3.67,0.436-5.935,2.857-6.555,3.568l-0.066,0.086l-0.492,0.661l-0.01,0.013l-0.007,0.01c-0.203,0.299-0.389,0.608-0.555,0.93
			c-1.115,1.443-2.23,2.886-3.346,4.329l-4.229,5.701c-0.137,0.184-1.908,2.494-4.156,2.502c-0.764,0.003-1.492-0.242-1.493-0.242
			c-0.703-0.235-1.331-0.631-1.84-1.144l-0.007-0.01l-0.013-0.013c-0.389-0.392-0.708-0.854-0.93-1.365l-0.003-0.003
			c-0.195-0.342-0.28-0.638-0.321-0.851c0,0-0.036-0.186-0.071-1.006c0,0,0,2.983-0.037,8.747c1.216,0.658,2.358,0.945,3.17,1.071
			h0.003c0.475,0.073,0.963,0.11,1.458,0.11c0.415,0,0.827-0.027,1.229-0.08c2.425-0.306,4.575-1.505,6.1-3.259
			c1.383-1.866,2.766-3.732,4.149-5.598c1.094-1.475,2.188-2.95,3.282-4.425L75.996,101.938z"/>
		
			<linearGradient id="SVGID_00000001643371392528942270000005917936034560397981_" gradientUnits="userSpaceOnUse" x1="75.3308" y1="86.9356" x2="84.239" y2="100.5055">
			<stop  offset="0.1778" style="stop-color:#4272B7"/>
			<stop  offset="1" style="stop-color:#2B388F;stop-opacity:0.5"/>
		</linearGradient>
		<path style="fill:url(#SVGID_00000001643371392528942270000005917936034560397981_);" d="M83.089,92.377
			c-1.396-2.054-2.793-4.109-4.189-6.163c-1.537-1.95-3.74-3.349-6.266-3.855c-0.085,1.768-0.539,3.435-1.362,5.001
			c0.181,0.029,0.375,0.068,0.568,0.123c1.714,0.492,2.846,2.142,3.027,2.412l1.757,2.581l1.87,2.751
			c0.92-0.105,2.6-0.171,4.525,0.505c2.426,0.852,3.878,2.405,4.485,3.14C86.032,96.707,84.561,94.542,83.089,92.377z"/>
		
			<linearGradient id="SVGID_00000102509623290055787450000001242255993637524382_" gradientUnits="userSpaceOnUse" x1="38.7777" y1="104.9876" x2="65.2087" y2="90.2426">
			<stop  offset="0" style="stop-color:#E62E26"/>
			<stop  offset="0.145" style="stop-color:#E63326"/>
			<stop  offset="0.3265" style="stop-color:#E84325"/>
			<stop  offset="0.4383" style="stop-color:#E95024"/>
			<stop  offset="0.5941" style="stop-color:#F17B22"/>
			<stop  offset="0.7697" style="stop-color:#F7971F"/>
		</linearGradient>
		<path style="fill:url(#SVGID_00000102509623290055787450000001242255993637524382_);" d="M58.084,90.564
			c0.07,0.1,0.139,0.202,0.139,0.202c0.24,0.358,0.419,0.667,0.541,0.889c1.047-1.545,2.093-3.09,3.14-4.635
			c-0.141-0.245-0.324-0.541-0.556-0.867c0,0-0.166-0.236-0.342-0.454c-1.738-2.152-4.07-2.861-4.822-3.09
			c0,0-1.264-0.379-2.563-0.449c-0.183-0.01-0.365-0.013-0.548-0.013c-0.196,0-0.389,0.007-0.581,0.017
			c-0.354,0.018-1.481,0.14-2.419,0.414c-1.853,0.541-4.084,2.007-5.692,4.155c-0.274,0.366-0.478,0.682-0.606,0.89l-2.179,3.213
			l-3.169,4.681l-5.017,7.405l-0.163,0.239c-1.017,1.548-1.608,3.402-1.608,5.392c0,1.608,0.385,3.13,1.073,4.472
			c1.512,2.963,4.478,5.056,7.96,5.339c0.269,0.027,0.538,0.037,0.814,0.037c3.226,0,6.086-1.551,7.884-3.944
			c0.411-0.547,0.737-1.14,0.737-1.14c0.078-0.141,0.14-0.262,0.184-0.351c-0.378-0.729-0.83-1.813-1.037-3.191
			c-0.305-2.038,0.082-3.701,0.37-4.618c-1.873,2.751-3.201,4.696-3.802,5.601c-0.36,0.543-1.231,1.879-2.848,2.409
			c-0.218,0.071-0.754,0.219-1.438,0.219c-2.658,0-4.814-2.156-4.814-4.814c0-0.61,0.158-1.225,0.158-1.225
			c0.202-0.765,0.553-1.32,0.792-1.642l0.007-0.01l3.827-5.651l0.88-1.296l1.03-1.522l1.259-1.864l3.545-5.229
			c0.176-0.326,0.382-0.631,0.618-0.914c0.993-1.183,2.488-1.937,4.159-1.937c0.891,0,1.558,0.218,1.788,0.3
			C56.401,88.162,57.323,89.479,58.084,90.564z"/>
	</g>
	<g>
		<g>
			<path class="st8" d="M129.697,110.834c0,0.092-0.023,0.172-0.071,0.241c-0.047,0.069-0.13,0.124-0.249,0.164
				c-0.118,0.04-0.27,0.074-0.453,0.104c-0.184,0.028-0.424,0.043-0.72,0.043c-0.272,0-0.507-0.015-0.702-0.043
				c-0.195-0.029-0.35-0.063-0.462-0.104c-0.113-0.04-0.192-0.095-0.24-0.164c-0.047-0.069-0.07-0.149-0.07-0.241V91.385h-0.035
				l-7.869,19.535c-0.034,0.08-0.084,0.149-0.146,0.207c-0.063,0.058-0.155,0.106-0.276,0.146s-0.265,0.069-0.432,0.087
				c-0.167,0.017-0.365,0.025-0.595,0.025c-0.242,0-0.449-0.012-0.622-0.034c-0.172-0.023-0.316-0.055-0.431-0.096
				c-0.115-0.04-0.205-0.089-0.268-0.146c-0.063-0.058-0.106-0.12-0.13-0.189l-7.524-19.535h-0.017v19.449
				c0,0.092-0.024,0.172-0.071,0.241c-0.048,0.069-0.131,0.124-0.249,0.164c-0.119,0.04-0.272,0.074-0.462,0.104
				c-0.189,0.028-0.433,0.043-0.729,0.043c-0.285,0-0.521-0.015-0.711-0.043c-0.19-0.029-0.341-0.063-0.454-0.104
				c-0.112-0.04-0.189-0.095-0.23-0.164c-0.042-0.069-0.062-0.149-0.062-0.241V90.297c0-0.482,0.129-0.828,0.386-1.035
				s0.543-0.311,0.858-0.311h1.823c0.373,0,0.7,0.034,0.98,0.104s0.525,0.179,0.736,0.328c0.21,0.149,0.386,0.34,0.525,0.569
				c0.141,0.23,0.263,0.501,0.368,0.812l6.386,16.17h0.086l6.644-16.118c0.129-0.346,0.269-0.639,0.421-0.881
				c0.152-0.241,0.319-0.434,0.5-0.578c0.182-0.144,0.383-0.247,0.604-0.311c0.223-0.062,0.479-0.095,0.771-0.095h1.911
				c0.176,0,0.342,0.026,0.5,0.078c0.157,0.052,0.292,0.132,0.403,0.241s0.202,0.248,0.271,0.414
				c0.07,0.167,0.105,0.371,0.105,0.612V110.834z"/>
			<path class="st8" d="M148.559,102.413c0,0.448-0.112,0.768-0.338,0.958c-0.226,0.189-0.482,0.284-0.771,0.284h-10.229
				c0,0.863,0.087,1.64,0.26,2.33c0.174,0.69,0.463,1.283,0.867,1.777c0.404,0.495,0.931,0.874,1.578,1.139s1.439,0.397,2.376,0.397
				c0.74,0,1.398-0.061,1.977-0.182c0.578-0.12,1.078-0.256,1.5-0.405s0.769-0.285,1.041-0.405c0.271-0.121,0.477-0.182,0.615-0.182
				c0.081,0,0.153,0.021,0.217,0.061s0.112,0.101,0.147,0.182c0.034,0.08,0.061,0.192,0.078,0.336
				c0.018,0.145,0.026,0.319,0.026,0.526c0,0.149-0.006,0.279-0.018,0.389s-0.026,0.207-0.043,0.293
				c-0.018,0.086-0.046,0.164-0.087,0.233c-0.04,0.068-0.092,0.135-0.155,0.198c-0.062,0.063-0.25,0.167-0.561,0.311
				s-0.714,0.285-1.208,0.423c-0.495,0.138-1.067,0.262-1.717,0.371c-0.65,0.109-1.344,0.164-2.08,0.164
				c-1.276,0-2.396-0.179-3.356-0.535s-1.769-0.886-2.425-1.588c-0.655-0.701-1.15-1.582-1.483-2.641
				c-0.334-1.058-0.501-2.289-0.501-3.692c0-1.335,0.173-2.534,0.518-3.599c0.346-1.063,0.843-1.967,1.493-2.709
				c0.649-0.742,1.435-1.312,2.355-1.709c0.92-0.396,1.95-0.595,3.089-0.595c1.22,0,2.258,0.195,3.115,0.587
				c0.856,0.391,1.562,0.917,2.114,1.578c0.552,0.662,0.957,1.438,1.217,2.33c0.259,0.892,0.388,1.844,0.388,2.856V102.413z
				 M145.695,101.567c0.034-1.495-0.299-2.669-0.999-3.521s-1.739-1.277-3.116-1.277c-0.706,0-1.325,0.133-1.858,0.397
				c-0.532,0.265-0.978,0.615-1.337,1.053c-0.358,0.438-0.637,0.946-0.833,1.527c-0.197,0.581-0.307,1.188-0.33,1.82H145.695z"/>
			<path class="st8" d="M166.265,110.851c0,0.093-0.023,0.17-0.069,0.233s-0.121,0.118-0.225,0.164s-0.247,0.08-0.431,0.104
				c-0.185,0.022-0.414,0.034-0.69,0.034c-0.288,0-0.523-0.012-0.708-0.034c-0.184-0.023-0.327-0.058-0.431-0.104
				c-0.104-0.046-0.179-0.101-0.225-0.164s-0.069-0.141-0.069-0.233v-9.095c0-0.886-0.069-1.599-0.207-2.14s-0.34-1.007-0.604-1.397
				c-0.266-0.392-0.607-0.69-1.027-0.897s-0.906-0.311-1.458-0.311c-0.714,0-1.427,0.253-2.14,0.759
				c-0.714,0.507-1.462,1.249-2.244,2.227v10.854c0,0.093-0.022,0.17-0.068,0.233c-0.047,0.063-0.121,0.118-0.225,0.164
				s-0.248,0.08-0.432,0.104c-0.185,0.022-0.42,0.034-0.707,0.034c-0.276,0-0.507-0.012-0.69-0.034
				c-0.185-0.023-0.331-0.058-0.44-0.104s-0.185-0.101-0.225-0.164s-0.061-0.141-0.061-0.233V95.32c0-0.092,0.018-0.17,0.053-0.233
				c0.034-0.062,0.104-0.12,0.207-0.172s0.235-0.087,0.396-0.104c0.161-0.018,0.374-0.026,0.639-0.026
				c0.253,0,0.463,0.009,0.63,0.026c0.166,0.017,0.296,0.052,0.388,0.104c0.093,0.052,0.158,0.109,0.199,0.172
				c0.04,0.063,0.061,0.142,0.061,0.233v2.054c0.874-0.978,1.745-1.694,2.614-2.148c0.868-0.455,1.745-0.682,2.632-0.682
				c1.035,0,1.906,0.175,2.614,0.526c0.707,0.351,1.279,0.819,1.717,1.406s0.751,1.274,0.94,2.062
				c0.19,0.788,0.285,1.734,0.285,2.839V110.851z"/>
			<path class="st8" d="M183.16,110.869c0,0.138-0.046,0.241-0.138,0.311c-0.093,0.069-0.219,0.121-0.38,0.155
				s-0.396,0.052-0.707,0.052c-0.3,0-0.538-0.018-0.717-0.052s-0.308-0.086-0.388-0.155c-0.081-0.069-0.121-0.173-0.121-0.311
				v-1.554c-0.679,0.726-1.436,1.289-2.27,1.691s-1.717,0.604-2.648,0.604c-0.817,0-1.557-0.106-2.218-0.319
				c-0.662-0.213-1.226-0.521-1.691-0.924c-0.466-0.402-0.828-0.897-1.087-1.483c-0.259-0.587-0.389-1.254-0.389-2.002
				c0-0.874,0.179-1.634,0.535-2.278s0.868-1.179,1.536-1.604c0.667-0.426,1.483-0.745,2.45-0.958s2.054-0.319,3.262-0.319h2.14
				v-1.208c0-0.598-0.063-1.127-0.189-1.588c-0.127-0.46-0.331-0.843-0.613-1.147c-0.281-0.305-0.646-0.535-1.096-0.69
				c-0.448-0.155-1.001-0.232-1.656-0.232c-0.702,0-1.332,0.083-1.89,0.25c-0.559,0.167-1.047,0.351-1.467,0.552
				c-0.42,0.202-0.771,0.386-1.053,0.553c-0.282,0.167-0.492,0.25-0.63,0.25c-0.093,0-0.173-0.022-0.242-0.069
				c-0.068-0.046-0.129-0.114-0.181-0.207c-0.052-0.092-0.09-0.209-0.112-0.354c-0.023-0.144-0.034-0.302-0.034-0.475
				c0-0.287,0.02-0.515,0.06-0.682c0.041-0.167,0.139-0.325,0.294-0.475s0.423-0.325,0.803-0.526
				c0.379-0.201,0.816-0.385,1.312-0.552c0.494-0.167,1.035-0.305,1.622-0.414s1.179-0.164,1.777-0.164
				c1.115,0,2.064,0.126,2.848,0.379c0.782,0.254,1.415,0.625,1.898,1.113c0.482,0.489,0.834,1.096,1.052,1.821
				c0.219,0.725,0.328,1.57,0.328,2.536V110.869z M180.33,103.776h-2.434c-0.782,0-1.461,0.066-2.036,0.198
				c-0.575,0.133-1.053,0.328-1.433,0.587c-0.379,0.259-0.658,0.569-0.837,0.932c-0.178,0.362-0.267,0.779-0.267,1.251
				c0,0.806,0.256,1.447,0.768,1.925s1.228,0.716,2.148,0.716c0.748,0,1.441-0.189,2.079-0.569c0.639-0.38,1.309-0.961,2.011-1.743
				V103.776z"/>
		</g>
	</g>
</g>
<g>
</g>
<g>
</g>
<g>
</g>
<g>
</g>
<g>
</g>
<g>
</g>
</svg>
