<svg enable-background="new 0 0 332.366 65.461" viewBox="0 0 332.366 65.461" xmlns="http://www.w3.org/2000/svg"><path d="m47.731 22.512c-.763-.796-1.457-1.686-1.947-2.683h-32.51c-3.593 0-6.685-2.762-6.854-6.351-.18-3.833 2.87-6.997 6.66-6.997h35.619v-6.481h-35.619c-7.212 0-13.08 5.901-13.08 13.155s5.868 13.155 13.08 13.155h35.655c1.341 0 2.648-.215 3.89-.615-.76-.217-1.497-.504-2.175-.92-1.006-.617-1.903-1.412-2.719-2.263z" fill="#4480c2"/><path d="m54.293 0h-36.489c.059.088.123.17.179.261.714 1.161 1.223 2.495 1.597 3.867.21.77.374 1.557.509 2.352h34.204z" fill="#4480c2"/><path d="m54.322 59.032h-36.489c.059.088.123.169.179.259.714 1.154 1.223 2.48 1.597 3.844.21.766.374 1.548.509 2.338h34.204z" fill="#4480c2"/><path d="m48.731 64.835c-.32-1.914-.203-3.851-.132-5.787h-35.404c-3.683 0-6.668-2.957-6.668-6.604s2.985-6.604 6.668-6.604h34.791c-.041-.83-.119-1.657-.164-2.487-.052-.978-.08-1.957-.085-2.936-.001-.222-.01-.444-.036-.665-.013-.108-.025-.216-.034-.325h-34.472c-7.212 0-13.08 5.839-13.08 13.016 0 7.178 5.868 13.016 13.08 13.016h35.655.006c-.051-.211-.091-.424-.125-.624z" fill="#4480c2"/><path d="m61.532 32.731c.006-3.52-1.374-6.816-3.882-9.267-2.435-2.379-5.755-3.631-9.159-3.631h-35.411c-2.124 0-4.125.517-5.9 1.415.211.11.42.223.621.338.674.386 1.326.81 1.978 1.231.534.345 1.064.704 1.625 1.004.31.165.635.301.953.451.359.169.717.342 1.068.529.605.322 1.197.687 1.694 1.163.089.085.153.189.233.281h33.381c3.561 0 6.393 2.91 6.386 6.471 0 .066 0 .132.001.198.022 3.588-2.799 6.539-6.386 6.539h-32.195c-.157.713-.371 1.411-.67 2.078-.607 1.358-1.563 2.522-2.8 3.352-.527.354-1.099.623-1.685.86.557.072 1.12.122 1.696.122h35.414c3.419 0 6.753-1.266 9.187-3.668 2.504-2.47 3.873-5.788 3.851-9.324z" fill="#4480c2"/><path d="m49.019 16.178h-36.891c-.915 0-1.656-.742-1.656-1.656v-2.535c0-.915.742-1.656 1.656-1.656h36.891z" fill="#e52e25"/><path d="m10.903 35.8h38.669c.915 0 1.656-.742 1.656-1.656v-2.535c0-.915-.742-1.656-1.656-1.656h-38.669z" fill="#f89820"/><path d="m50.806 55.422h-38.678c-.915 0-1.656-.742-1.656-1.656v-2.536c0-.915.742-1.656 1.656-1.656h38.677v5.848z" fill="#33a852"/><g fill="#5b5c5e"><path d="m113.294 46.259c0 .124-.033.233-.096.326-.065.093-.176.168-.336.222-.161.054-.365.101-.614.14-.248.038-.573.058-.973.058-.369 0-.685-.02-.949-.058-.264-.039-.473-.086-.625-.14s-.26-.129-.324-.222c-.065-.093-.096-.202-.096-.326v-26.294h-.046l-10.639 26.41c-.048.109-.114.203-.199.28-.085.078-.21.144-.374.198-.163.054-.358.094-.583.117-.226.023-.494.035-.805.035-.326 0-.606-.016-.84-.047-.233-.031-.428-.074-.583-.128-.156-.054-.276-.12-.361-.198-.086-.078-.144-.163-.175-.257l-10.172-26.41h-.024v26.294c0 .124-.033.233-.096.326-.064.093-.176.168-.336.222s-.369.101-.625.14c-.256.038-.584.058-.984.058-.385 0-.705-.02-.961-.058-.256-.039-.461-.086-.613-.14-.153-.054-.256-.129-.313-.222-.056-.093-.084-.202-.084-.326v-27.763c0-.653.173-1.12.52-1.4.348-.28.735-.42 1.162-.42h2.464c.505 0 .946.047 1.327.14.379.093.71.241.994.443.285.203.521.459.711.77.189.311.355.676.498 1.096l8.632 21.86h.116l8.983-21.79c.173-.467.363-.863.569-1.19.205-.326.43-.587.675-.781s.518-.334.818-.42c.3-.085.648-.128 1.043-.128h2.584c.236 0 .461.035.675.105.213.07.395.179.545.327s.273.334.368.559c.095.226.143.502.143.828v27.764z" stroke="#5b5c5e" stroke-miterlimit="10" stroke-width=".5"/><path d="m138.793 34.874c0 .607-.153 1.038-.456 1.295-.305.257-.653.385-1.044.385h-13.828c0 1.167.118 2.217.351 3.15.235.933.625 1.734 1.173 2.403.546.669 1.258 1.182 2.133 1.54s1.947.536 3.212.536c1 0 1.892-.081 2.673-.245.781-.163 1.458-.346 2.028-.548s1.039-.385 1.407-.548.645-.245.833-.245c.109 0 .206.028.293.082.086.054.153.136.2.245.046.109.081.261.105.455.023.194.035.431.035.711 0 .202-.007.377-.024.525-.015.148-.035.279-.058.396-.024.117-.062.222-.118.315-.054.093-.124.183-.209.268-.086.086-.339.226-.759.42s-.964.385-1.633.571c-.669.187-1.443.354-2.322.502s-1.815.221-2.811.221c-1.727 0-3.239-.241-4.538-.723s-2.392-1.197-3.278-2.146-1.555-2.139-2.005-3.57c-.451-1.431-.678-3.095-.678-4.993 0-1.804.234-3.426.7-4.864s1.139-2.66 2.018-3.663 1.94-1.773 3.184-2.309c1.245-.537 2.637-.805 4.177-.805 1.648 0 3.052.264 4.211.793 1.158.529 2.112 1.24 2.858 2.135s1.294 1.944 1.644 3.149.525 2.492.525 3.861v.701zm-3.872-1.144c.046-2.022-.404-3.608-1.35-4.759s-2.352-1.727-4.213-1.727c-.955 0-1.792.179-2.512.537s-1.323.832-1.808 1.423-.86 1.28-1.126 2.065c-.266.786-.415 1.606-.446 2.461z" stroke="#5b5c5e" stroke-miterlimit="10" stroke-width=".5"/><path d="m162.731 46.282c0 .124-.031.229-.094.315s-.163.159-.303.221-.335.109-.584.14-.56.047-.933.047c-.389 0-.709-.016-.956-.047-.25-.031-.444-.078-.584-.14s-.241-.136-.304-.221c-.061-.086-.093-.191-.093-.315v-12.295c0-1.198-.094-2.162-.28-2.893s-.459-1.361-.816-1.89c-.359-.528-.821-.933-1.388-1.213-.569-.28-1.225-.42-1.972-.42-.965 0-1.929.342-2.893 1.026-.965.685-1.975 1.688-3.033 3.009v14.675c0 .124-.031.229-.094.315s-.163.159-.303.221-.335.109-.584.14-.568.047-.956.047c-.373 0-.684-.016-.933-.047s-.448-.078-.595-.14c-.148-.062-.249-.136-.304-.221-.054-.086-.081-.191-.081-.315v-20.996c0-.124.024-.229.07-.314s.14-.164.28-.234.319-.116.536-.14c.218-.023.505-.035.864-.035.341 0 .625.012.851.035.225.024.4.07.525.14.124.07.213.148.268.234s.081.191.081.314v2.777c1.183-1.322 2.361-2.291 3.535-2.905 1.175-.614 2.361-.921 3.558-.921 1.4 0 2.578.238 3.535.711.956.474 1.73 1.108 2.322 1.902.591.793 1.015 1.723 1.272 2.788.256 1.065.385 2.344.385 3.838v12.807z" stroke="#5b5c5e" stroke-miterlimit="10" stroke-width=".5"/><path d="m185.572 46.305c0 .187-.063.327-.188.42-.124.093-.295.163-.513.21s-.536.07-.956.07c-.405 0-.728-.023-.969-.07s-.416-.117-.524-.21c-.11-.093-.164-.233-.164-.42v-2.1c-.918.98-1.94 1.742-3.068 2.287-1.128.544-2.322.816-3.581.816-1.105 0-2.104-.144-2.998-.431-.895-.288-1.657-.704-2.287-1.248s-1.119-1.213-1.469-2.007c-.35-.793-.525-1.695-.525-2.706 0-1.182.24-2.208.723-3.079s1.174-1.594 2.077-2.17c.901-.575 2.007-1.007 3.313-1.295 1.307-.288 2.776-.432 4.41-.432h2.892v-1.633c0-.808-.085-1.524-.256-2.147-.171-.621-.448-1.139-.828-1.551-.381-.412-.875-.723-1.482-.933-.606-.21-1.353-.315-2.24-.315-.949 0-1.8.113-2.554.338-.754.226-1.415.474-1.983.746-.568.273-1.043.521-1.423.747-.381.226-.665.338-.851.338-.125 0-.234-.031-.328-.094-.093-.062-.175-.155-.245-.279s-.12-.284-.151-.478-.046-.409-.046-.642c0-.388.026-.696.081-.921s.186-.439.396-.641.573-.439 1.085-.712c.514-.272 1.104-.521 1.773-.746s1.4-.412 2.193-.559c.794-.148 1.594-.222 2.403-.222 1.509 0 2.792.171 3.85.513 1.058.343 1.913.844 2.567 1.505.653.661 1.128 1.482 1.423 2.462s.444 2.123.444 3.43v14.159zm-3.827-9.588h-3.289c-1.058 0-1.975.089-2.753.268s-1.423.443-1.935.793c-.514.349-.891.77-1.132 1.26s-.363 1.054-.363 1.692c0 1.088.346 1.956 1.039 2.601.691.646 1.66.968 2.904.968 1.01 0 1.948-.257 2.812-.77.863-.513 1.768-1.298 2.717-2.356z" stroke="#5b5c5e" stroke-miterlimit="10" stroke-width=".5"/><path d="m219.541 45.116c0 .311-.016.571-.048.781-.031.21-.081.389-.151.537s-.155.256-.256.326-.221.105-.361.105h-13.345c-.358 0-.696-.12-1.015-.361s-.478-.665-.478-1.272v-27.95c0-.124.03-.233.093-.326s.171-.167.326-.222c.156-.054.366-.101.63-.14.265-.038.584-.058.956-.058.389 0 .713.02.969.058.256.039.463.086.618.14.155.055.265.129.328.222.061.093.093.203.093.326v26.107h10.826c.14 0 .26.035.361.105s.186.171.256.303c.07.133.12.308.151.525.031.219.047.483.047.794z"/><path d="m227.824 18.192c0 .902-.173 1.517-.514 1.843-.343.327-.973.49-1.889.49-.903 0-1.522-.159-1.855-.478-.335-.319-.501-.921-.501-1.808 0-.902.171-1.517.513-1.844.343-.326.973-.49 1.89-.49.901 0 1.52.16 1.854.479.335.319.502.922.502 1.808zm-.444 28.09c0 .124-.031.229-.094.315s-.163.159-.303.221-.335.109-.584.14-.568.047-.956.047c-.373 0-.684-.016-.933-.047s-.448-.078-.595-.14c-.148-.062-.249-.136-.304-.221-.054-.086-.081-.191-.081-.315v-20.997c0-.108.027-.209.081-.303.055-.093.156-.171.304-.233s.346-.109.595-.14.56-.047.933-.047c.389 0 .708.016.956.047.249.031.444.078.584.14.14.063.24.14.303.233.063.094.094.195.094.303z"/><path d="m253.814 35.504c0 1.82-.199 3.457-.595 4.911-.396 1.455-.98 2.694-1.75 3.721-.769 1.027-1.714 1.812-2.834 2.357-1.12.544-2.403.816-3.85.816-.669 0-1.287-.066-1.854-.198-.569-.133-1.124-.346-1.668-.641-.545-.296-1.089-.669-1.634-1.12-.544-.451-1.119-.995-1.727-1.633v2.566c0 .124-.031.233-.093.326-.063.094-.164.168-.304.222s-.315.097-.525.128-.478.047-.804.047c-.311 0-.576-.016-.794-.047s-.396-.074-.536-.128-.234-.128-.28-.222c-.046-.093-.07-.202-.07-.326v-31.17c0-.124.027-.234.081-.327.055-.093.156-.171.304-.233s.346-.109.595-.14.56-.047.933-.047c.389 0 .708.016.956.047.249.031.444.078.584.14.14.063.24.14.303.233s.094.203.094.327v12.575c.621-.637 1.225-1.174 1.808-1.61.584-.435 1.155-.789 1.715-1.061s1.119-.47 1.679-.595c.56-.124 1.152-.187 1.773-.187 1.524 0 2.827.303 3.908.91s1.959 1.42 2.637 2.438c.676 1.019 1.17 2.213 1.482 3.581.309 1.369.466 2.816.466 4.34zm-3.99.443c0-1.073-.083-2.115-.246-3.126-.165-1.011-.45-1.905-.858-2.683-.406-.778-.946-1.403-1.619-1.878-.673-.474-1.51-.712-2.512-.712-.501 0-.994.07-1.479.21s-.978.374-1.479.7c-.5.326-1.021.746-1.56 1.26-.54.513-1.115 1.159-1.725 1.937v8.376c1.064 1.292 2.082 2.275 3.052 2.951s1.979 1.015 3.028 1.015c.97 0 1.799-.234 2.488-.7.688-.466 1.248-1.085 1.678-1.855s.744-1.633.939-2.59c.194-.957.293-1.926.293-2.905z"/><path d="m271.871 26.661c0 .343-.008.63-.022.863-.016.233-.048.416-.094.548-.046.133-.105.233-.175.303s-.168.105-.291.105c-.125 0-.276-.035-.455-.105s-.381-.14-.606-.21c-.226-.069-.479-.136-.759-.198s-.583-.093-.909-.093c-.39 0-.77.078-1.144.233-.373.156-.766.413-1.178.77-.413.358-.844.832-1.295 1.423s-.949 1.315-1.493 2.17v13.812c0 .124-.031.229-.094.315s-.163.159-.303.221-.335.109-.584.14-.568.047-.956.047c-.373 0-.684-.016-.933-.047s-.448-.078-.595-.14c-.148-.062-.249-.136-.304-.221-.054-.086-.081-.191-.081-.315v-20.997c0-.124.024-.229.07-.314s.14-.164.28-.234.319-.116.536-.14c.218-.023.505-.035.864-.035.341 0 .625.012.851.035.225.024.4.07.525.14.124.07.213.148.268.234s.081.191.081.314v3.056c.576-.84 1.116-1.524 1.622-2.053.505-.528.984-.945 1.435-1.248.451-.304.898-.514 1.342-.63.443-.117.89-.175 1.342-.175.201 0 .431.012.688.035.258.023.525.066.805.128.28.063.533.133.759.21.225.078.384.156.478.233.094.078.155.152.186.222s.059.159.082.268.039.268.046.478c.008.211.011.495.011.852z"/><path d="m291.096 46.305c0 .187-.062.327-.188.42-.124.093-.295.163-.513.21s-.536.07-.956.07c-.405 0-.728-.023-.969-.07s-.416-.117-.524-.21c-.11-.093-.164-.233-.164-.42v-2.1c-.918.98-1.94 1.742-3.068 2.287-1.128.544-2.322.816-3.581.816-1.105 0-2.104-.144-2.998-.431-.895-.288-1.657-.704-2.287-1.248s-1.119-1.213-1.469-2.007c-.35-.793-.525-1.695-.525-2.706 0-1.182.24-2.208.723-3.079s1.174-1.594 2.077-2.17c.901-.575 2.007-1.007 3.313-1.295 1.307-.288 2.776-.432 4.41-.432h2.892v-1.633c0-.808-.085-1.524-.256-2.147-.171-.621-.448-1.139-.828-1.551-.381-.412-.875-.723-1.482-.933-.606-.21-1.353-.315-2.24-.315-.949 0-1.8.113-2.554.338-.754.226-1.415.474-1.983.746-.568.273-1.043.521-1.423.747-.381.226-.665.338-.851.338-.125 0-.234-.031-.328-.094-.093-.062-.175-.155-.245-.279s-.12-.284-.151-.478-.046-.409-.046-.642c0-.388.026-.696.081-.921s.186-.439.396-.641.573-.439 1.085-.712c.514-.272 1.104-.521 1.773-.746s1.4-.412 2.193-.559c.794-.148 1.594-.222 2.403-.222 1.509 0 2.792.171 3.85.513 1.058.343 1.913.844 2.567 1.505.653.661 1.128 1.482 1.423 2.462s.444 2.123.444 3.43v14.159zm-3.827-9.588h-3.289c-1.058 0-1.975.089-2.753.268s-1.423.443-1.935.793c-.514.349-.891.77-1.132 1.26s-.363 1.054-.363 1.692c0 1.088.346 1.956 1.039 2.601.691.646 1.66.968 2.904.968 1.01 0 1.948-.257 2.812-.77.863-.513 1.768-1.298 2.717-2.356z"/><path d="m310.436 26.661c0 .343-.008.63-.022.863-.016.233-.048.416-.094.548-.046.133-.105.233-.175.303s-.168.105-.291.105c-.125 0-.276-.035-.455-.105s-.381-.14-.606-.21c-.226-.069-.479-.136-.759-.198s-.583-.093-.909-.093c-.39 0-.77.078-1.144.233-.373.156-.766.413-1.178.77-.413.358-.844.832-1.295 1.423s-.949 1.315-1.493 2.17v13.812c0 .124-.031.229-.094.315-.062.086-.163.159-.303.221s-.335.109-.584.14-.568.047-.956.047c-.373 0-.684-.016-.933-.047s-.448-.078-.595-.14c-.148-.062-.249-.136-.304-.221-.054-.086-.081-.191-.081-.315v-20.997c0-.124.024-.229.07-.314.046-.086.14-.164.28-.234s.319-.116.536-.14c.218-.023.505-.035.864-.035.341 0 .625.012.851.035.225.024.4.07.525.14.124.07.213.148.268.234s.081.191.081.314v3.056c.576-.84 1.116-1.524 1.622-2.053.505-.528.984-.945 1.435-1.248.451-.304.898-.514 1.342-.63.443-.117.89-.175 1.342-.175.201 0 .431.012.688.035.258.023.525.066.805.128.28.063.533.133.759.21.225.078.384.156.478.233.094.078.155.152.186.222s.059.159.083.268c.022.109.039.268.046.478.006.211.01.495.01.852z"/><path d="m324.622 46.866-2.799 7.722c-.094.249-.331.439-.713.571-.381.133-.96.199-1.738.199-.404 0-.731-.02-.98-.059s-.439-.105-.571-.199c-.133-.093-.206-.218-.221-.373-.016-.156.024-.343.116-.56l2.893-7.302c-.14-.062-.273-.163-.396-.303-.125-.14-.21-.288-.256-.443l-7.489-20.064c-.125-.327-.188-.583-.188-.77 0-.186.062-.334.188-.443.124-.108.326-.183.606-.221s.653-.059 1.12-.059c.466 0 .831.012 1.096.035.264.024.474.067.629.129.156.062.269.151.339.268.07.116.144.276.221.478l5.996 16.844h.07l5.786-16.937c.093-.296.205-.486.338-.572.133-.085.33-.148.595-.186.265-.039.645-.059 1.144-.059.435 0 .793.02 1.073.059s.486.113.618.221c.133.109.199.257.199.443 0 .187-.046.42-.14.7z"/></g></svg>