<svg enable-background="new 0 0 216.11 216.013" viewBox="0 0 216.11 216.013" xmlns="http://www.w3.org/2000/svg"><path d="m108.031 0c-59.664 0-108.031 48.367-108.031 108.031s48.367 108.031 108.031 108.031 108.031-48.367 108.031-108.031-48.368-108.031-108.031-108.031zm21.908 70.491c1.62-.897 3.421-1.437 5.401-1.437 5.852 0 10.713 4.769 10.713 10.713 0 4.053-2.34 7.473-5.672 9.363-1.53.809-3.241 1.35-5.041 1.35-5.941 0-10.713-4.862-10.713-10.713 0-3.962 2.161-7.382 5.312-9.276zm17.015 79.854h-26.198c-.18 6.932-5.761 12.422-12.693 12.422-7.022 0-12.604-5.49-12.783-12.422h-26.199c-.18 0 .72-6.211.81-6.932.54-2.611 1.711-5.042 2.881-7.561.99-2.251 1.98-4.501 2.34-6.932.27-2.339 0-4.769 0-7.112.09-4.141-.09-8.282 0-12.422.09-4.774 0-9.543 0-14.313 0-15.935 11.253-29.17 26.468-32.59-.36-.721-.45-1.442-.45-2.251 0-3.873 3.061-6.932 6.932-6.932 3.781 0 6.932 3.059 6.932 6.932 0 .809-.18 1.618-.451 2.339 3.061.633 5.942 1.802 8.643 3.152-3.961 3.42-6.482 8.462-6.482 14.045 0 10.264 8.372 18.546 18.635 18.546 1.981 0 3.872-.36 5.672-.989-.09 4.049-.18 8.101-.09 12.062.09 4.141 0 8.282.09 12.422 0 2.343-.36 4.774 0 7.112.36 2.431 1.351 4.682 2.341 6.932 1.08 2.519 2.251 4.95 2.881 7.561.09.719.99 6.931.721 6.931z" fill="#4273b8"/></svg>