<svg enable-background="new 0 0 247.857 144.201" viewBox="0 0 247.857 144.201" xmlns="http://www.w3.org/2000/svg"><g fill="#999b9d"><path d="m222.882 46.08c-14.427-13.034-28.417-22.378-30.603-23.608.027.027.027.082.027.164-.219-.109-.328-.219-.328-.328-15.028-10.82-33.937-18.171-52.626-20.876-5.082-.738-10.274-1.284-15.247-1.284-4.645.109-9.4.437-14.154 1.066-18.908 2.595-38.035 10.055-53.282 20.875-1.312.902-2.568 1.803-3.825 2.76.382-.301.765-.601 1.12-.929-8.525 5.847-17.925 12.979-27.543 21.723-10.164 9.29-18.607 18.361-25.411 26.695 6.694 7.459 16.313 17.515 28.854 28.526 9.072 7.897 18.498 15.465 22.051 18.061.219.109.437.328.765.437.437.41.847.738 1.284 1.066.547.437 1.093.874 1.721 1.312h.219v.082c15.247 11.039 34.592 18.608 53.719 21.313 4.864.629 9.837 1.066 14.591 1.066 5.082 0 10.274-.437 15.465-1.284 18.799-2.705 37.817-10.274 52.845-21.176.328-.109.546-.328.738-.437 3.252-1.94 16.121-10.711 29.838-23.034 7.459-6.694 15.985-15.329 24.756-25.931-9.071-11.231-17.951-19.893-24.974-26.259zm-98.777 69.922c-24.1 0-43.664-19.564-43.664-43.773 0-24.1 19.564-43.664 43.664-43.664 24.209 0 43.773 19.564 43.773 43.664.001 24.209-19.563 43.773-43.773 43.773z"/><path d="m55.904 121.74v.082s-.109 0-.219-.082z"/><path d="m56.669 22.089c-1.312.902-2.568 1.803-3.825 2.76.382-.301.765-.601 1.12-.929.875-.656 1.722-1.284 2.705-1.831z"/><path d="m192.306 22.636c-.219-.109-.328-.219-.328-.328.109 0 .219 0 .219.109.082 0 .082 0 .082.055.027.027.027.082.027.164z"/></g></svg>