<svg enable-background="new 0 0 440.694 439.302" viewBox="0 0 440.694 439.302" xmlns="http://www.w3.org/2000/svg"><path d="m351.332 65.987c4.045 3.459 7.98 7.085 11.784 10.889 37.435 37.435 58.334 86.992 59.063 139.817h18.22c-.834-65.368-30.156-123.866-76.145-163.627l-4.528 4.528c-2.798 2.797-5.596 5.594-8.394 8.393z" fill="#e52e25"/><path d="m220.44-.446c-121.499-.001-219.994 98.495-219.994 219.996 0 52.707 19.986 93.257 28.18 107.807 2.132-1.89 4.303-3.735 6.551-5.486 2.583-2.013 5.276-3.919 8.114-5.567-16.071-29.327-24.62-62.381-24.62-96.754 0-53.895 20.988-104.564 59.097-142.674 38.11-38.11 88.779-59.097 142.674-59.097 48.506 0 94.393 17.009 130.868 48.19l12.921-12.921c-38.562-33.331-88.821-53.494-143.791-53.494z" fill="#4372b8"/><path d="m220.441 421.321c-53.895 0-104.564-20.988-142.674-59.097-13.798-13.798-25.338-29.248-34.463-45.896-3.437 1.993-6.659 4.363-9.738 6.86-1.676 1.359-3.307 2.77-4.921 4.201.365.648.716 1.264 1.031 1.807 37.635 64.855 97.39 88.881 114.332 95.402 36.048 13.874 66.673 14.85 76.435 14.947 29.794.297 53.911-5.714 69.583-10.913-2.473-5.678-4.943-11.356-7.415-17.034-19.824 6.394-40.739 9.723-62.17 9.723z" fill="#33a852"/><path d="m440.398 216.72h-18.22c.013.943.034 1.884.034 2.828 0 53.895-20.988 104.564-59.097 142.674-22.951 22.951-50.461 39.682-80.486 49.368 2.04 5.839 4.08 11.678 6.12 17.517 4.465-1.653 9.071-3.464 13.799-5.448 4.698-1.973 9.189-3.981 13.471-5.997 0 0 14.351-6.966 27.589-15.926 33.325-22.553 56.293-54.914 56.293-54.914 6.361-8.964 40.996-59.21 40.534-127.275-.005-1.185-.022-2.166-.037-2.827z" fill="#f89820"/></svg>