<svg enable-background="new 0 0 500 497.435" viewBox="0 0 500 497.435" xmlns="http://www.w3.org/2000/svg"><g stroke-miterlimit="10"><g stroke-width=".75"><path d="m34.535 446.247-.657-395.073c0-8.03 6.51-14.54 14.54-14.54h57.596v-35.351h-83.254c-12.6 0-22.815 10.214-22.815 22.815l.657 449.241c0 12.6 10.215 22.815 22.815 22.815h371.61v-35.366h-345.952c-8.03-.002-14.54-6.511-14.54-14.541z" fill="#2A87EA" stroke="#4273b8"/><path d="m451.585 460.786h-61.303v35.366h86.961c12.598 0 22.811-10.213 22.811-22.811v-201.327h-33.93v174.233c.001 8.03-6.509 14.539-14.539 14.539z" fill="#2A87EA" stroke="#e52e25"/><path d="m466.125 109.055v162.959h33.93c0-54.697 0-109.395 0-164.092 0-58.612-47.657-106.33-106.351-106.64v35.352c39.997 0 72.421 32.424 72.421 72.421z" fill="#2A87EA" stroke="#f89820"/><path d="m92.731 1.283h303.746v35.352h-303.746z" fill="#2A87EA" stroke="#33a852"/></g><path d="m321.762 232.524c4.177 0 7.838 1.476 10.957 4.427 2.965 3.146 4.441 6.794 4.441 10.971 0 4.344-1.476 8.075-4.441 11.221-3.119 2.951-6.78 4.427-10.957 4.427h-56.106v56.106c0 4.372-1.559 8.019-4.692 10.971-2.965 3.119-6.613 4.706-10.971 4.706-4.344 0-7.991-1.587-10.957-4.706-2.951-2.951-4.427-6.599-4.427-10.971v-56.106h-56.12c-4.344 0-8.089-1.476-11.221-4.427-2.951-3.146-4.427-6.878-4.427-11.221 0-4.177 1.476-7.824 4.427-10.971 3.132-2.951 6.878-4.427 11.221-4.427h56.12v-56.106c0-4.344 1.476-7.991 4.427-10.971 2.965-3.119 6.613-4.678 10.957-4.678 4.358 0 8.005 1.559 10.971 4.678 3.132 2.979 4.692 6.627 4.692 10.971v56.106z" fill="#2A87EA" stroke="#404041" stroke-width=".25"/></g></svg>