<svg enable-background="new 0 0 500 497.435" viewBox="0 0 500 497.435" xmlns="http://www.w3.org/2000/svg"><g fill="#999b9d"><path d="m396.48 1.33c-.92-.03-1.85-.04-2.78-.05h-370.94c-12.6 0-22.82 10.22-22.82 22.82l.66 449.24c0 12.6 10.22 22.81 22.82 22.81h453.82c12.6 0 22.82-10.21 22.82-22.81v-365.42c0-57.68-46.16-104.81-103.58-106.59zm69.65 444.92c0 8.03-6.51 14.54-14.54 14.54h-402.51c-8.04 0-14.54-6.51-14.54-14.54l-.66-395.08c0-8.03 6.51-14.54 14.54-14.54h345.28c20 0 38.11 8.11 51.22 21.21 13.1 13.11 21.21 31.22 21.21 51.22z"/><path d="m396.48 1.28v.05c-.92-.03-1.85-.04-2.78-.05z"/><path d="m321.762 232.524c4.177 0 7.838 1.476 10.957 4.427 2.965 3.146 4.441 6.794 4.441 10.971 0 4.344-1.476 8.075-4.441 11.221-3.119 2.951-6.78 4.427-10.957 4.427h-56.106v56.106c0 4.372-1.559 8.019-4.692 10.971-2.965 3.119-6.613 4.706-10.971 4.706-4.344 0-7.991-1.587-10.957-4.706-2.951-2.951-4.427-6.599-4.427-10.971v-56.106h-56.12c-4.344 0-8.089-1.476-11.221-4.427-2.951-3.146-4.427-6.878-4.427-11.221 0-4.177 1.476-7.824 4.427-10.971 3.132-2.951 6.878-4.427 11.221-4.427h56.12v-56.106c0-4.344 1.476-7.991 4.427-10.971 2.965-3.119 6.613-4.678 10.957-4.678 4.358 0 8.005 1.559 10.971 4.678 3.132 2.979 4.692 6.627 4.692 10.971v56.106z"/></g></svg>