<?xml version="1.0" encoding="utf-8"?>
<!-- Generator: Adobe Illustrator 26.5.0, SVG Export Plug-In . SVG Version: 6.00 Build 0)  -->
<svg version="1.1" id="Layer_1" xmlns="http://www.w3.org/2000/svg" xmlns:xlink="http://www.w3.org/1999/xlink" x="0px" y="0px"
	 viewBox="0 0 484.769 500" style="enable-background:new 0 0 484.769 500;" xml:space="preserve">
<style type="text/css">
	.st0{fill:#999B9D;}
</style>
<g>
	<polygon class="st0" points="286.36,291.76 285.58,292.56 285.95,292.02 	"/>
	<path class="st0" d="M480.05,467.78L325.33,300.54c21.17-25.59,35.7-57.21,40.41-92.56c13.4-100.43-57.06-192.7-157.42-206.28
		l-0.34-0.07C107.43-11.78,15.04,58.85,1.63,159.4c-6.92,51.85,8.63,101.43,38.99,139.23c28.52,35.5,70.08,60.62,118.77,67.12
		c16.63,2.22,32.98,1.91,48.83-0.23c32.8-4.44,63.32-17.46,88.65-37.29c0.21-0.16,0.42-0.33,0.62-0.49l153.05,165.47
		c7.02,8.14,19.32,9.06,27.46,2.04C486.15,488.23,487.07,475.93,480.05,467.78z M204.11,331.23c-13.04,1.81-26.47,2.11-40.15,0.29
		c-39.25-5.24-72.76-25.39-95.9-53.87c-25-30.77-37.86-71.29-32.2-113.68c10.89-81.64,85.91-139,167.55-128.1l0.34,0.06
		c81.46,11.06,138.64,85.96,127.76,167.48c-4.69,35.14-21.3,65.72-45.15,88.35l-0.78,0.8C263.41,313.29,235.01,326.96,204.11,331.23
		z"/>
</g>
</svg>
