<svg width="23" height="23" viewBox="0 0 23 23" fill="none" xmlns="http://www.w3.org/2000/svg">
<path fill-rule="evenodd" clip-rule="evenodd" d="M10.925 5.175C7.74938 5.175 5.17501 7.74936 5.17501 10.925C5.17501 14.1006 7.74938 16.675 10.925 16.675C14.1006 16.675 16.675 14.1006 16.675 10.925C16.675 7.74936 14.1006 5.175 10.925 5.175ZM3.45001 10.925C3.45001 6.79667 6.79668 3.45 10.925 3.45C15.0534 3.45 18.4 6.79667 18.4 10.925C18.4 12.6784 17.7963 14.2908 16.7854 15.5656L20.4474 19.2277C20.7842 19.5645 20.7842 20.1105 20.4474 20.4473C20.1105 20.7842 19.5645 20.7842 19.2277 20.4473L15.5656 16.7854C14.2908 17.7962 12.6784 18.4 10.925 18.4C6.79668 18.4 3.45001 15.0534 3.45001 10.925Z" fill="#979797"/>
</svg>
