<svg enable-background="new 0 0 484.769 500" viewBox="0 0 484.769 500" xmlns="http://www.w3.org/2000/svg"><g fill="#999b9d"><path d="m286.36 291.76-.78.8.37-.54z"/><path d="m480.05 467.78-154.72-167.24c21.17-25.59 35.7-57.21 40.41-92.56 13.4-100.43-57.06-192.7-157.42-206.28l-.34-.07c-100.55-13.41-192.94 57.22-206.35 157.77-6.92 51.85 8.63 101.43 38.99 139.23 28.52 35.5 70.08 60.62 118.77 67.12 16.63 2.22 32.98 1.91 48.83-.23 32.8-4.44 63.32-17.46 88.65-37.29.21-.16.42-.33.62-.49l153.05 165.47c7.02 8.14 19.32 9.06 27.46 2.04 8.15-7.02 9.07-19.32 2.05-27.47zm-275.94-136.55c-13.04 1.81-26.47 2.11-40.15.29-39.25-5.24-72.76-25.39-95.9-53.87-25-30.77-37.86-71.29-32.2-113.68 10.89-81.64 85.91-139 167.55-128.1l.34.06c81.46 11.06 138.64 85.96 127.76 167.48-4.69 35.14-21.3 65.72-45.15 88.35l-.78.8c-22.17 20.73-50.57 34.4-81.47 38.67z"/></g></svg>