<svg enable-background="new 0 0 257.701 497.012" viewBox="0 0 257.701 497.012" xmlns="http://www.w3.org/2000/svg"><path d="m244.269 400.826-81.925 82.206c-8.948 8.946-20.691 13.98-32.993 13.98-12.583 0-24.326-4.755-33.273-13.7l-82.205-81.926c-12.863-12.865-16.776-31.317-11.463-47.536 1.956 2.799 3.913 5.314 6.43 7.83l82.205 81.926c10.065 10.065 23.766 15.656 38.026 15.656 14.54 0 27.961-5.871 38.026-15.936l81.925-82.206v-.28c2.517-2.236 4.475-4.751 6.432-7.547 5.032 16.217 1.677 34.672-11.185 47.533z" fill="#e52e25"/><path d="m255.281 309.673c-.28 1.399-.84 2.795-1.398 4.195-.56 1.399-1.399 2.519-1.957 3.915-2.237 3.635-4.475 7.27-7.83 10.625l-82.205 82.203c-8.668 8.669-20.411 13.7-32.993 13.7s-24.326-5.031-32.993-13.7l-82.205-82.203c-3.355-3.355-5.872-6.99-7.828-10.625-.56-1.396-1.399-2.516-1.957-3.915-.56-1.399-1.12-2.795-1.399-4.195-3.355-10.345-3.355-21.807.84-31.876 1.678 2.239 3.355 4.475 5.313 6.43l11.463 11.465 2.517 2.236 68.224 68.506c10.065 10.065 23.766 15.656 38.026 15.656s27.961-5.591 38.026-15.656l68.224-68.506 2.517-2.236 11.463-11.465c1.957-1.956 3.635-4.191 5.313-6.43 4.194 10.07 4.194 21.531.839 31.876z" fill="#f89820"/><path d="m257.797 218.245c0 6.151-1.118 12.021-3.355 17.612-.558 1.12-1.118 2.239-1.678 3.359-.838 1.116-1.398 2.512-1.957 3.632-1.957 3.079-4.193 5.871-6.71 8.39l-11.463 11.461-2.237 2.519-68.504 68.222c-8.668 8.949-20.411 13.7-32.993 13.7s-24.326-4.751-32.993-13.7l-68.504-68.222-2.516-2.519-2.237-2.512-8.948-8.949c-2.517-2.519-4.753-5.311-6.71-8.39-.56-1.12-1.398-2.516-1.957-3.632-.56-1.12-1.118-2.239-1.678-3.359-2.239-5.591-3.357-11.462-3.357-17.612 0-7.55 1.957-14.82 5.313-21.25 1.678 2.516 3.635 5.031 5.871 7.27l11.185 11.182 2.517 2.519 2.516 2.516 17.335 17.335 2.517 2.516 2.516 2.516 43.619 43.62c19.573 19.571 51.448 19.571 71.021 0l43.619-43.62 2.516-2.516 2.517-2.516 19.853-19.851 2.516-2.519 11.185-11.182c2.236-2.239 4.193-4.755 5.871-7.27 3.352 6.43 5.31 13.7 5.31 21.25z" fill="#33a852"/><path d="m248.706 156.724c-1.626 2.439-3.524 4.877-5.691 7.048l-10.843 10.84-2.439 2.442-19.246 19.244-2.44 2.439-2.439 2.439-42.285 42.287c-18.974 18.973-49.875 18.973-68.85 0l-42.285-42.287-2.439-2.439-2.44-2.439-16.805-16.805-2.439-2.439-2.44-2.442-10.843-10.84c-2.167-2.171-4.065-4.609-5.691-7.048-13.01-18.976-11.114-44.997 5.691-61.802l79.691-79.693c18.974-19.244 49.875-19.244 68.85 0l79.691 79.693c16.806 16.806 18.704 42.826 5.692 61.802z" fill="#4273b8"/></svg>