<svg fill="none" height="193" stroke="#fff" viewBox="-11.52 -11.52 47.04 47.04" width="193" xmlns="http://www.w3.org/2000/svg"><g style="fill-rule:evenodd;clip-rule:evenodd;stroke:#fff;stroke-width:1.5;stroke-linecap:round;stroke-linejoin:round"><path d="m11.0175 19c-.3574 0-.6623-.2653-.7205-.627-.0536-.2926-.259-.5317-.53529-.623-.22513-.0793-.44526-.1728-.6591-.28-.25446-.1335-.55972-.1135-.7956.052-.28545.2105-.67758.1779-.92625-.077l-.9672-.992c-.2603-.267-.29412-.6879-.07995-.995.16517-.2475.18896-.5666.0624-.837-.08339-.1878-.15695-.3801-.22035-.576-.09081-.3087-.34146-.5399-.65033-.6-.37246-.061-.64743-.3891-.65032-.776v-1.241c-.00198-.4459.31204-.8273.741-.9.32542-.0635.59715-.2921.7215-.607.03705-.08867.07605-.17667.117-.264.16538-.32656.14254-.71989-.05948-1.024-.25263-.36012-.21384-.85491.09165-1.169l.71078-.729c.35056-.35968.90344-.40623 1.3065-.11l.02242.016c.30097.20776.68395.24539 1.0179.1.35727-.13189.62062-.44676.69322-.829l.0098-.034c.0802-.50603.5063-.87779 1.0062-.878h.858c.5133-.00024.9514.38057 1.0354.9l.0156.07c.0689.36617.3186.66922.6591.8.3282.14447.7056.10674 1.0004-.1l.0487-.036c.4135-.30566.9821-.25865 1.3426.111l.6542.672c.3279.33816.3691.86993.0975 1.257-.2128.32352-.2399.73925-.0712 1.089l.042.1c.1366.3415.4323.589.7858.658.4621.0773.8019.4859.8034.966v1.113c-.0001.4234-.2987.7846-.7059.854-.3349.0659-.6077.3146-.7108.648-.0455.1333-.0962.2667-.1521.4-.1301.293-.1012.6344.0761.9.2339.3338.1976.7923-.0858 1.083l-.9077.932c-.2596.2662-.669.3005-.9672.081-.249-.1745-.5715-.1937-.8385-.05-.1903.0967-.3856.1825-.585.257-.2789.0987-.4845.3435-.5382.641-.0569.3743-.3698.6512-.7391.654z"/><path d="m13.9747 12c0 1.2885-1.0184 2.333-2.2747 2.333s-2.27467-1.0445-2.27467-2.333 1.01837-2.33301 2.27467-2.33301 2.2747 1.04451 2.2747 2.33301z"/></g></svg>