<svg enable-background="new 0 0 500 461.63" viewBox="0 0 500 461.63" xmlns="http://www.w3.org/2000/svg"><path d="m38.598 461.63c-3.14 0-6.345-.438-9.538-1.493-26.599-8.753-27.802-48.142-28.679-76.924-.72-23.299-1.596-52.261 9.394-93.065 7.105-26.414 20.175-74.993 61.205-121.668 61.649-70.179 137.271-86.758 151.806-89.384l43.254-7.723c.118-8.933.288-17.918.51-27.006.078-2.755.026-4.634-.026-6.153-.092-3.141-.183-6.359.85-10.735 1.125-4.788 4.108-17.558 16.21-24.019 12.076-6.488 27.763-3.707 40.009 7.131l160.088 129.648c10.977 8.521 16.407 18.227 15.844 28.679.026 2.961.026 14.674-25.696 33.802l-156.502 126.688c-12.756 5.87-23.982 6.488-33.297 1.879-6.162-3.064-14.156-9.86-17.231-24.972l-.327-2.961-.628-35.192c-12.272 1.056-24.27 3.192-35.809 6.359-73.345 20.209-123.259 80.785-138.906 116.544l-1.086 2.188c-2.133 4.222-9.041 18.021-12.076 24.637-3.99 8.702-5.325 13.85-6.398 17.995-1.57 6.076-3.519 13.619-12.599 19.591-5.09 3.322-12.469 6.154-20.372 6.154zm-4.749-79.395c.288 9.165 1.086 35.141 5.469 44.744 1.243-4.84 3.205-11.945 8.138-22.681.092-.206 8.727-18.356 12.926-26.259h-.026c15.661-35.785 69.381-110.082 160.664-135.235 19.533-5.381 40.087-8.187 61.112-8.393l16.603-.154 1.191 66.6c.406-.129.877-.309 1.4-.515l151.728-123.469c4.2-3.141 8.452-6.899 11.173-9.706-.445-.36-.955-.798-1.557-1.261l-160.939-130.343c-.576-.515-1.112-.927-1.583-1.261-.052.232-.105.438-.144.592.065 4.325.131 6.796.039 10.323-.34 13.49-.549 26.826-.641 40.032l-.092 13.67-70.533 12.615c-7.693 1.364-77.009 15.369-132.469 78.468-35.953 40.959-47.296 83.102-54.074 108.28-9.824 36.455-9.052 61.684-8.385 83.953z" fill="#fff"/></svg>