<!DOCTYPE svg PUBLIC "-//W3C//DTD SVG 1.1//EN" "http://www.w3.org/Graphics/SVG/1.1/DTD/svg11.dtd">
<!-- Uploaded to: SVG Repo, www.svgrepo.com, Transformed by: SVG Repo Mixer Tools -->
<svg height="800px" width="800px" version="1.1" id="Layer_1" xmlns="http://www.w3.org/2000/svg" xmlns:xlink="http://www.w3.org/1999/xlink" viewBox="0 0 511.998 511.998" xml:space="preserve" fill="#0077FF" stroke="#0077FF">
<g id="SVGRepo_bgCarrier" stroke-width="0"/>
<g id="SVGRepo_tracerCarrier" stroke-linecap="round" stroke-linejoin="round"/>
<g id="SVGRepo_iconCarrier"> <circle style="fill:#E72B1C72B1;" cx="255.999" cy="255.999" r="255.999"/> <path style="fill:#5B5C5E;" d="M175.042,73.862h184.169c2.906,0,5.263,2.356,5.263,5.263v353.748c0,2.906-2.356,5.263-5.263,5.263 H175.042c-2.906,0-5.263-2.356-5.263-5.263V79.125C169.78,76.219,172.136,73.862,175.042,73.862z"/> <path style="fill:#FF9900;" d="M183.115,123.021h168.024c2.258,0,4.088,1.83,4.088,4.088v257.779c0,2.258-1.83,4.088-4.088,4.088 H183.115c-2.258,0-4.088-1.83-4.088-4.088V127.109C179.027,124.852,180.857,123.021,183.115,123.021z"/> <g> <path style="fill:#C9CBCD;" d="M222.908,96.351h88.432c2.031,0,3.678,1.647,3.678,3.678l0,0c0,2.031-1.647,3.678-3.678,3.678 h-88.432c-2.031,0-3.678-1.647-3.678-3.678l0,0C219.23,97.998,220.877,96.351,222.908,96.351z"/> <circle style="fill:#C9CBCD;" cx="266.399" cy="414.648" r="12.215"/> <circle style="fill:#C9CBCD;" cx="194.03" cy="100.344" r="4.174"/> </g> <path style="fill:#34A853;" d="M98.632,190.392h190.327c6.045,0,10.989,4.943,10.989,10.988V310.62 c0,6.046-4.943,10.989-10.989,10.989H98.632c-6.046,0-10.988-4.943-10.988-10.989V201.382 C87.642,195.336,92.586,190.392,98.632,190.392z"/> <path style="fill:#E72B1C72B1077FF;" d="M299.945,206.362v30.355H87.64v-30.355H299.945z"/> <g> <path style="fill:#FF9900FFFFF;" d="M98.506,249.291h144.858V258H98.506V249.291z M289.088,249.291H265V258h24.088V249.291z"/> <path style="fill:#FF9900FFFFF;" d="M100.944,272.058h21.848c1.34,0,2.441,1.098,2.441,2.441v21.433c0,1.342-1.098,2.441-2.441,2.441 h-21.848c-1.342,0-2.441-1.096-2.441-2.441v-21.433C98.503,273.156,99.602,272.058,100.944,272.058z"/> <path style="fill:#FF9900FFFFF;" d="M133.936,277.628h68.21v4.13h-68.21V277.628z M133.936,287.865h68.21v4.13h-68.21V287.865z"/> </g> </g>
</svg>