<svg enable-background="new 0 0 500 252.957" viewBox="0 0 500 252.957" xmlns="http://www.w3.org/2000/svg"><g fill="#97A0A8"><path d="m396.894 133.951h-.104c-.105-.481-.21-.908-.262-1.389.104.481.209.962.366 1.389z"/><path d="m476.398 133.951h-.104c0-2.512.052-5.024.052-7.535 0 2.512 0 5.024.052 7.535z"/><path d="m338.91 23.11c-15.41-15.73-38.19-23.11-59.78-23.11-31.44.19-88.18.21-120.24.22h-79.33c-43.52 0-78.93 32.59-78.93 72.65v108.18c-.25 4.33-1.3 31.04 19.41 52.11 23.5 23.91 55 20.19 58.49 19.71h6.04v.02l187.47.07c55.52 0 87.9-40.28 87.9-89.78v-86.29c-1.08-20.35-6.82-39.45-21.03-53.78zm-9.74 55.82-.1 89.47c0 30.85-24.58 55.96-54.8 55.96l-187.15.12h-13.43c-23.19 0-41.98-19.19-41.98-42.87v-107c0-25.41 20.17-46 45.05-46h197.87c28.29 0 54.49 12.29 54.54 49.54z"/><path d="m359.99 77.9h-.05v-.97c.02.32.04.65.05.97z"/><path d="m496.13 65.546-.157-.107c-2.46-2.244-5.862-3.527-9.526-3.527-2.513 0-4.92.641-6.961 1.71l-64.901 33.882c-5.914 3.1-10.625 7.428-14.027 12.88-1.675 2.779-2.931 5.665-3.664 8.551-.157.481-.262.909-.366 1.336-.419 1.977-.68 4.062-.68 6.146s.209 4.115.68 6.146c.104.481.209.962.366 1.389.733 2.94 1.989 5.772 3.664 8.551 3.402 5.398 8.113 9.726 14.027 12.826l64.901 33.882c2.041 1.122 4.449 1.71 6.961 1.71 3.664 0 7.066-1.229 9.526-3.527l.157-.107c2.565-2.191 3.821-4.917 3.821-8.284v-105.174c0-3.367-1.256-6.039-3.821-8.283zm-19.732 68.405c0 3.581.052 7.215.052 10.849.105 3.474.262 6.413.314 8.497.21 5.398.21 7.054-.785 7.696-.942.641-2.303.053-6.124-1.924-2.512-1.283-5.6-2.939-9.159-4.917l-32.084-18.812c-1.727-1.176-3.036-2.726-3.873-4.436-.262-.588-.576-1.229-.733-1.87 0-.053 0-.053 0-.107-.105-.427-.21-.801-.21-1.229-.104-.428-.104-.855-.104-1.283s0-.855.104-1.283c0-.428.105-.802.21-1.229.68-2.512 2.303-4.81 4.606-6.36l32.084-18.811c3.559-2.031 6.647-3.688 9.159-4.97 3.821-1.977 5.182-2.565 6.124-1.924.994.642.994 2.298.785 7.696-.052 2.084-.209 5.024-.314 8.497 0 3.634-.052 7.268-.052 10.902-.052 2.512-.052 4.97-.052 7.482 0 2.513 0 5.025.052 7.536z"/><path d="m396.894 118.934c-.157.481-.262.909-.366 1.336.052-.427.157-.908.262-1.336z"/><path d="m476.398 118.934c-.052 2.512-.052 4.97-.052 7.482 0-2.512-.052-4.97-.052-7.482z"/></g></svg>