<svg id="Layer_1" data-name="Layer 1" xmlns="http://www.w3.org/2000/svg" viewBox="0 0 20 20"><title>market_circle_fill_yellow_20 [Recovered]</title><path d="M0,10A10,10,0,1,1,10,20,10,10,0,0,1,0,10Z" style="fill:#65a7f1"/><path d="M7.8,7.39A2.2,2.2,0,1,1,10,9.59,2.2,2.2,0,0,1,7.8,7.39ZM10,8.46a1.07,1.07,0,1,1,1.07-1.07A1.07,1.07,0,0,1,10,8.46Z" style="fill:#fff;fill-rule:evenodd"/><path d="M10,10.54a4.93,4.93,0,0,0-2.52.63,2.29,2.29,0,0,0-1.2,1.92,1.7,1.7,0,0,0,.54,1.29,1.93,1.93,0,0,0,1.29.44h3.78a1.93,1.93,0,0,0,1.29-.44,1.7,1.7,0,0,0,.54-1.29,2.29,2.29,0,0,0-1.2-1.92A4.93,4.93,0,0,0,10,10.54ZM7.42,13.09a1.14,1.14,0,0,1,.65-.95A3.84,3.84,0,0,1,10,11.67a3.84,3.84,0,0,1,1.93.47,1.14,1.14,0,0,1,.65.95.55.55,0,0,1-.15.44.81.81,0,0,1-.54.15H8.11a.81.81,0,0,1-.54-.15A.55.55,0,0,1,7.42,13.09Z" style="fill:#fff;fill-rule:evenodd"/><path d="M6.16,10.91a.56.56,0,0,0-.57-.56,2.29,2.29,0,0,0-2.48,2.11,1.65,1.65,0,0,0,1.64,1.73.57.57,0,0,0,0-1.14.41.41,0,0,1-.36-.16.66.66,0,0,1-.15-.43c0-.46.47-1,1.35-1A.56.56,0,0,0,6.16,10.91Z" style="fill:#fff"/><path d="M6.42,5.72a.57.57,0,0,1,.64.48.57.57,0,0,1-.48.65A.78.78,0,0,0,6.69,8.4a.57.57,0,1,1,0,1.13,1.91,1.91,0,0,1-.27-3.81Z" style="fill:#fff"/><path d="M13.84,10.91a.56.56,0,0,1,.57-.56,2.29,2.29,0,0,1,2.48,2.11,1.65,1.65,0,0,1-1.64,1.73.57.57,0,0,1,0-1.14.41.41,0,0,0,.36-.16.66.66,0,0,0,.15-.43c0-.46-.47-1-1.35-1A.56.56,0,0,1,13.84,10.91Z" style="fill:#fff"/><path d="M13.58,5.72a.57.57,0,0,0-.64.48.58.58,0,0,0,.48.65.78.78,0,0,1-.11,1.55.57.57,0,1,0,0,1.13,1.91,1.91,0,0,0,.27-3.81Z" style="fill:#fff"/></svg>