<svg fill="none" height="192" stroke="#c9cbcd" viewBox="0 0 24 24" width="192" xmlns="http://www.w3.org/2000/svg"><g fill="#c9cbcd"><path d="m1 22c0-.5523.44772-1 1-1h20c.5523 0 1 .4477 1 1s-.4477 1-1 1h-20c-.55228 0-1-.4477-1-1z"/><path clip-rule="evenodd" d="m18.3056 1.87868c-1.1715-1.171573-3.071-1.171573-4.2426 0l-10.67396 10.67392c-.40344.4035-.68347.9136-.80724 1.4706l-.53277 2.3974c-.31756 1.429.95724 2.7038 2.38623 2.3863l2.39746-.5328c.55697-.1238 1.06709-.4038 1.47053-.8072l10.67395-10.67401c1.1716-1.17157 1.1716-3.07106 0-4.24264zm-2.8284 1.41421c.3905-.39052 1.0237-.39052 1.4142 0l.6716.67158c.3905.39052.3905 1.02369 0 1.41421l-1.9216 1.92158-2.0858-2.08578zm-3.3358 3.3358-7.33815 7.33821c-.13448.1344-.22782.3045-.26908.4901l-.53277 2.3975 2.39746-.5328c.18566-.0412.3557-.1346.49018-.2691l7.33816-7.33812z" fill-rule="evenodd"/></g></svg>