<svg enable-background="new 0 0 500 385" viewBox="0 0 500 385" xmlns="http://www.w3.org/2000/svg"><g fill="#4273b8"><path d="m500.78 291-.02-6.91-.53-172.13c-.01-61.72-49.53-111.95-110.53-111.96h-280.14c-5.35 0-10.52.53-15.55 1.31-1.37.21-2.72.44-4.07.69-.95.17-1.9.36-2.84.56-46.62 9.77-82.04 49.22-86.97 97.95-.12 1.06-.21 2.13-.29 3.2-.15 2.33-.78 4.99-.8 8.24v70.46c0 61.56 49.16 111.66 110 111.95 13.18.06 23.9.27 36.01.5h.01c15.18.28 31.34.58 55.35.58 13.77 0 30.13-.09 50.4-.35h.01c9.09-.12 17.91-.21 26.45-.21 25.96-.01 47.84 1.04 66.91 4.66 19.08 3.62 35.33 9.78 50.35 20.06 16.92 11.61 31.23 27.66 42.53 47.82 6.68 12.01 18.18 17.63 29.37 17.58 8.67 0 17.25-3.24 23.74-9.22 6.49-5.96 10.81-14.77 10.79-25.4v-.11zm-36.71 49.81v-.17h-.76v-.01c0-.93-.01-1.85-.01-2.78-10.11-15.69-25.3-34.41-47.65-49.73-40.2-27.56-84.84-31.29-138.44-31.29-8.71 0-17.66.1-26.88.21-20.21.26-36.49.35-50.18.35-41.97.01-59.53-.91-91.08-1.07-40.02-.19-72.4-33.26-72.4-73.92v-70.43c-.01-1.43.18-2.93.38-4.55.14-.98.28-2.01.39-3.1 3.19-30.99 24.99-56.09 53.99-63.67 5.93-1.55 11.92-2.6 18.13-2.6h280.14c20.13 0 38.33 8.25 51.53 21.63 13.2 13.39 21.37 31.85 21.37 52.29v.01c.18 57.36.35 114.74.53 172.11l.01 3.47c0 1.15.01 2.29.01 3.44.06 15.61.09 31.23.15 46.85.54.83 1.05 1.65 1.56 2.46z"/><path d="m89.94 2c-.95.17-1.9.36-2.84.56v-.05z"/><path d="m37.44 104.32-.31 3.1h-.08c.14-.98.28-2.01.39-3.1z"/><path d="m94.01 1.25v.06c-1.37.21-2.72.44-4.07.69z"/><path d="m.08 100.51-.24 3.2c.08-1.07.17-2.14.29-3.2z"/><path d="m464.07 340.81v-.17h-.76v-.01c0-.93-.01-1.85-.01-2.78.54.83 1.05 1.65 1.56 2.46z"/></g></svg>