<svg enable-background="new 0 0 500 385" viewBox="0 0 500 385" xmlns="http://www.w3.org/2000/svg"><path d="m500.78 291h-37.63l-.01-3.44c-.18-58.53-.36-117.06-.54-175.58v-.01c0-20.44-8.17-38.9-21.37-52.29-13.2-13.38-31.4-21.63-51.53-21.63h-119.02v-38.05h119.02c61 .01 110.52 50.24 110.53 111.96z" fill="#33a852"/><path d="m277.59 0v38.05h-168.03c-6.21 0-12.2 1.05-18.13 2.6l-4.33 1.13v-39.27l2.84-.51c6.3-1.15 12.82-2 19.62-2z" fill="#f89820"/><path d="m94.01 1.25v38.72l-2.58.68c-29 7.58-50.8 32.68-53.99 63.67l-.31 3.1h-37.56l.27-3.71c3.75-51.19 41.06-92.78 90.1-101.71z" fill="#e52e25"/><g fill="#4273b8"><path d="m500.76 284.09h-37.63l.01 3.47c.06 16.76.1 33.52.16 50.29.54.83 1.05 1.65 1.56 2.46l-.79.5v-.17h-.76v-.01c0-.93-.01-1.85-.01-2.78-10.11-15.69-25.3-34.41-47.65-49.73-40.2-27.56-84.84-31.29-138.44-31.29-8.71 0-17.66.1-26.88.21-20.21.26-36.49.35-50.18.35-41.97.01-59.53-.91-91.08-1.07-40.02-.19-72.4-33.26-72.4-73.92v-70.43c-.01-2.3.47-4.77.77-7.65l.4-3.81h-37.76l-.24 3.2c-.15 2.33-.78 4.99-.8 8.24v70.46c0 61.56 49.16 111.66 110 111.95 13.18.06 23.9.27 36.01.5h.01c15.18.28 31.34.58 55.35.58 13.77 0 30.13-.09 50.4-.35h.01c9.09-.12 17.91-.21 26.45-.21 25.96-.01 47.84 1.04 66.91 4.66 19.08 3.62 35.33 9.78 50.35 20.06 16.92 11.61 31.23 27.66 42.53 47.82 6.68 12.01 18.18 17.63 29.37 17.58 8.67 0 17.25-3.24 23.74-9.22 6.49-5.96 10.81-14.77 10.79-25.4v-.11zm-34.16 3.46 3.45-.02v.02c0 1.15.01 2.3.01 3.45h-3.46zm-436.07-183.59c.02-.12.03-.23.04-.35l3.44.35v3.46h-30.72v-3.46z"/><path d="m34.01 103.96c-.12 1.16-.29 2.31-.44 3.46h-30.28v-3.46z"/><path d="m470.06 291h-3.45c0-1.15-.01-2.3-.01-3.45h3.45c0 1.15.01 2.3.01 3.45z"/><path d="m30.57 103.61 3.44.35v3.46h-30.72v-3.46h27.24c.02-.12.03-.23.04-.35z"/><path d="m463.3 337.85c.54.83 1.05 1.65 1.56 2.46l-.79.5v-.17h-.76v-.01c0-.93-.01-1.85-.01-2.78z"/><path d="m470.06 291h-3.46v-3.45l3.45-.02v.02c0 1.15.01 2.3.01 3.45z"/></g></svg>