<svg width="18" height="19" viewBox="0 0 18 19" fill="none" xmlns="http://www.w3.org/2000/svg">
<path d="M11.2008 3.7C11.2008 2.5 10.2008 1.5 9.00078 1.5C7.80078 1.5 6.80078 2.5 6.80078 3.7C6.80078 4.9 7.80078 5.9 9.00078 5.9C10.2008 5.9 11.2008 4.9 11.2008 3.7ZM11.2008 9.5C11.2008 8.3 10.2008 7.3 9.00078 7.3C7.80078 7.3 6.80078 8.3 6.80078 9.5C6.80078 10.7 7.80078 11.7 9.00078 11.7C10.2008 11.7 11.2008 10.7 11.2008 9.5ZM11.2008 15.3C11.2008 14.1 10.2008 13.1 9.00078 13.1C7.80078 13.1 6.80078 14.1 6.80078 15.3C6.80078 16.5 7.80078 17.5 9.00078 17.5C10.2008 17.4 11.2008 16.5 11.2008 15.3Z" fill="#818C99"/>
</svg>
