<svg width="16" height="16" viewBox="0 0 16 16" fill="none" xmlns="http://www.w3.org/2000/svg">
<g clip-path="url(#clip0_2612_65961)">
<path d="M14.9 9.59961V11.2996C14.9 12.7996 14.7 13.3996 14.4 13.8996C14.1 14.4996 13.5 14.9996 12.9 15.3996C12.3 15.6996 11.6 15.8996 9.9 15.8996H5.5H5.1C3.6 15.8996 3 15.6996 2.5 15.3996C1.8 14.9996 1.3 14.4996 1 13.8996C0.7 13.2996 0.5 12.6996 0.5 11.0996V6.09961C0.5 4.69961 0.7 4.09961 1 3.49961C1.3 2.89961 1.9 2.29961 2.5 1.99961C2.9 1.79961 3.2 1.69961 3.8 1.59961V0.799609C3.8 0.399609 4.1 0.0996094 4.5 0.0996094C4.9 0.0996094 5 0.399609 5 0.799609V1.49961C5.1 1.49961 5.3 1.49961 5.5 1.49961H8.4C8.8 1.49961 9.1 1.79961 9.1 2.19961C9.1 2.49961 8.8 2.79961 8.5 2.89961H8.4H5.3L5 2.69961V3.39961C5 3.79961 4.7 3.99961 4.4 3.99961C4.1 3.99961 3.7 3.79961 3.7 3.39961V2.89961C3.5 2.89961 3.3 2.99961 3.1 3.09961C2.7 3.29961 2.4 3.59961 2.1 4.09961C1.9 4.49961 1.8 4.99961 1.7 5.99961H11C11.4 5.99961 11.7 6.29961 11.7 6.69961C11.7 7.09961 11.3 7.29961 11 7.29961H1.7V10.9996V11.3996C1.7 12.3996 1.8 12.7996 2.1 13.2996C2.3 13.6996 2.6 13.9996 3.1 14.2996C3.6 14.5996 4.1 14.6996 5.3 14.6996H10H10.4C11.4 14.6996 11.8 14.5996 12.3 14.2996C12.7 14.0996 13 13.7996 13.3 13.2996C13.6 12.7996 13.7 12.2996 13.7 11.0996V7.39961C13.7 6.99961 14 6.69961 14.4 6.69961C14.7 6.69961 15 6.99961 15.1 7.29961V7.39961V9.59961H14.9Z" fill="#2688EB"/>
<path d="M12.9016 0.0996094C13.2016 0.0996094 13.5016 0.399609 13.6016 0.699609V0.799609V2.09961H14.9016C15.2016 2.09961 15.5016 2.39961 15.6016 2.69961V2.79961C15.6016 3.09961 15.3016 3.39961 15.0016 3.49961H14.9016H13.6016V4.79961C13.6016 5.19961 13.3016 5.49961 12.9016 5.49961C12.6016 5.49961 12.3016 5.19961 12.2016 4.89961V4.79961V3.39961H11.0016C10.7016 3.39961 10.4016 3.09961 10.3016 2.79961V2.69961C10.3016 2.39961 10.6016 2.09961 10.9016 1.99961H11.0016H12.3016V0.799609C12.3016 0.399609 12.6016 0.0996094 12.9016 0.0996094ZM11.7016 10.7996C11.5016 10.6996 11.3016 10.5996 11.0016 10.5996H10.9016C10.6016 10.5996 10.4016 10.6996 10.2016 10.7996C10.0016 10.8996 9.90156 11.0996 9.80156 11.1996C9.70156 11.3996 9.60156 11.5996 9.60156 11.8996V11.9996C9.60156 12.2996 9.70156 12.4996 9.80156 12.6996C9.90156 12.8996 10.0016 12.9996 10.2016 13.0996C10.4016 13.1996 10.6016 13.2996 10.9016 13.2996H11.0016C11.3016 13.2996 11.5016 13.1996 11.7016 13.0996C11.9016 12.9996 12.0016 12.7996 12.1016 12.6996C12.2016 12.4996 12.3016 12.2996 12.3016 11.9996V11.8996C12.3016 11.5996 12.2016 11.3996 12.1016 11.1996C12.0016 10.9996 11.9016 10.8996 11.7016 10.7996Z" fill="#2688EB"/>
</g>
<defs>
<clipPath id="clip0_2612_65961">
<rect width="16" height="16" fill="white"/>
</clipPath>
</defs>
</svg>
