<svg width="23" height="24" viewBox="0 0 23 24" fill="none" xmlns="http://www.w3.org/2000/svg">
<g clip-path="url(#clip0_2612_66037)">
<path opacity="0.35" d="M0.199219 12.0008C0.199219 5.80078 5.19922 0.800781 11.3992 0.800781C17.5992 0.800781 22.5992 5.80078 22.5992 12.0008C22.5992 18.2008 17.5992 23.2008 11.3992 23.2008C5.29922 23.2008 0.199219 18.2008 0.199219 12.0008Z" fill="white"/>
<path d="M11.5008 5.80078C12.1008 5.80078 12.6008 6.30078 12.6008 6.90078V10.8008H16.5008C17.1008 10.8008 17.6008 11.3008 17.6008 11.9008C17.6008 12.5008 17.1008 13.0008 16.5008 13.0008H12.6008V16.9008C12.6008 17.5008 12.1008 18.0008 11.5008 18.0008C10.9008 18.0008 10.4008 17.5008 10.4008 16.9008V13.0008H6.40078C5.80078 13.0008 5.30078 12.5008 5.30078 11.9008C5.30078 11.3008 5.80078 10.8008 6.40078 10.8008H10.3008V6.90078C10.4008 6.30078 10.9008 5.80078 11.5008 5.80078Z" fill="white"/>
</g>
<defs>
<clipPath id="clip0_2612_66037">
<rect width="23" height="24" fill="white"/>
</clipPath>
</defs>
</svg>
