<svg width="52" height="52" viewBox="0 0 52 52" fill="none" xmlns="http://www.w3.org/2000/svg">
<path d="M26 2C39.3 2 50 12.7 50 26C50 39.3 39.3 50 26 50C12.7 50 2 39.3 2 26C2 12.7 12.7 2 26 2ZM26 5C14.4 5 5 14.4 5 26C5 37.6 14.4 47 26 47C37.6 47 47 37.6 47 26C47 14.4 37.6 5 26 5ZM26 14.5C26.8 14.5 27.5 15.2 27.5 16V24.5H36C36.8 24.5 37.5 25.2 37.5 26C37.5 26.8 36.8 27.5 36 27.5H27.5V36C27.5 36.8 26.8 37.5 26 37.5C25.2 37.5 24.5 36.8 24.5 36V27.5H16C15.2 27.5 14.5 26.8 14.5 26C14.5 25.2 15.2 24.5 16 24.5H24.5V16C24.5 15.2 25.2 14.5 26 14.5Z" fill="#2688EB"/>
</svg>
