<svg width="24" height="25" viewBox="0 0 24 25" fill="none" xmlns="http://www.w3.org/2000/svg">
<path d="M12.0008 1.19922C5.80078 1.19922 0.800781 6.19922 0.800781 12.3992C0.800781 18.5992 5.80078 23.5992 12.0008 23.5992C18.2008 23.5992 23.2008 18.5992 23.2008 12.3992C23.2008 6.19922 18.2008 1.19922 12.0008 1.19922ZM17.1008 13.5992H13.2008V17.4992C13.2008 18.0992 12.7008 18.5992 12.1008 18.5992C11.5008 18.5992 11.0008 18.0992 11.0008 17.4992V13.5992H6.90078C6.30078 13.5992 5.80078 13.0992 5.80078 12.4992C5.80078 11.8992 6.30078 11.3992 6.90078 11.3992H10.8008V7.39922C10.8008 6.79922 11.3008 6.29922 11.9008 6.29922C12.5008 6.29922 13.0008 6.79922 13.0008 7.39922V11.2992H16.9008C17.5008 11.2992 18.0008 11.7992 18.0008 12.3992C18.0008 12.9992 17.7008 13.5992 17.1008 13.5992Z" fill="#2688EB"/>
</svg>
