<svg width="12" height="12" viewBox="0 0 12 12" fill="none" xmlns="http://www.w3.org/2000/svg">
<path d="M6.00156 1.59961C8.40156 1.59961 10.4016 3.49961 10.4016 5.99961C10.4016 8.49961 8.40156 10.3996 6.00156 10.3996C3.60156 10.3996 1.60156 8.49961 1.60156 5.99961C1.60156 3.49961 3.60156 1.59961 6.00156 1.59961ZM6.00156 2.39961C4.00156 2.39961 2.40156 3.99961 2.40156 5.99961C2.40156 7.99961 4.00156 9.59961 6.00156 9.59961C8.00156 9.59961 9.60156 7.99961 9.60156 5.99961C9.60156 3.99961 8.00156 2.39961 6.00156 2.39961ZM5.80156 3.79961C6.00156 3.79961 6.20156 3.99961 6.20156 4.19961V5.99961L8.00156 6.69961C8.10156 6.79961 8.20156 6.99961 8.10156 7.19961C8.10156 7.39961 7.90156 7.49961 7.70156 7.39961L5.70156 6.59961C5.50156 6.59961 5.50156 6.39961 5.50156 6.29961V4.19961C5.50156 3.99961 5.60156 3.79961 5.80156 3.79961Z" fill="#2688EB"/>
<path d="M10.1016 1.99961C10.0016 1.79961 9.70156 1.79961 9.50156 1.99961C9.30156 2.19961 9.30156 2.49961 9.50156 2.59961C10.4016 3.49961 11.0016 4.69961 11.0016 5.99961C11.0016 7.29961 10.4016 8.49961 9.50156 9.29961C9.30156 9.49961 9.30156 9.79961 9.50156 9.89961C9.70156 10.0996 10.0016 10.0996 10.1016 9.89961C11.2016 8.89961 11.8016 7.49961 11.8016 5.89961C11.8016 4.29961 11.2016 2.99961 10.1016 1.99961Z" fill="#2688EB"/>
<path d="M1.90156 1.99961C2.00156 1.79961 2.30156 1.79961 2.50156 1.99961C2.70156 2.19961 2.70156 2.49961 2.50156 2.59961C1.60156 3.49961 1.00156 4.69961 1.00156 5.99961C1.00156 7.29961 1.60156 8.49961 2.50156 9.29961C2.70156 9.49961 2.70156 9.79961 2.50156 9.89961C2.30156 10.0996 2.00156 10.0996 1.90156 9.89961C0.801562 8.99961 0.101562 7.59961 0.101562 5.99961C0.101562 4.39961 0.801562 2.99961 1.90156 1.99961Z" fill="#2688EB"/>
</svg>
