<svg width="12" height="12" viewBox="0 0 12 12" fill="none" xmlns="http://www.w3.org/2000/svg">
<path fill-rule="evenodd" clip-rule="evenodd" d="M6.4 0C6 0 5.7 0 5.5 0C5.3 0 5.1 0.1 4.9 0.2C4.6 0.3 4.3 0.6 4.2 0.9C4.1 1.1 4 1.3 4 1.5C4 1.7 4 2 4 2.4V4.9C3.8 4.9 3.6 4.9 3.5 5C3.3 5 3.1 5.1 3 5.2C2.9 5.3 2.7 5.5 2.5 5.7L1.7 6.5C1.5 6.7 1.3 6.9 1.2 7C1.2 7.2 1.1 7.3 1 7.5C1 7.7 1 7.9 1 8.2V9.7C1 10 1 10.3 1 10.5C1 10.7 1.1 10.9 1.2 11.1C1.4 11.4 1.6 11.7 1.9 11.8C2.1 11.9 2.3 12 2.5 12C2.7 12 3 12 3.3 12H8.6C8.9 12 9.2 12 9.4 12C9.6 12 9.8 11.9 10 11.8C10.3 11.6 10.6 11.4 10.7 11.1C10.8 10.9 10.8 10.7 10.9 10.5C10.9 10.3 10.9 10 10.9 9.7V2.4C10.9 2.1 10.9 1.8 10.9 1.6C10.9 1.4 10.8 1.2 10.7 1C10.5 0.7 10.3 0.4 10 0.3C9.9 0.1 9.7 0 9.5 0C9.3 0 9 0 8.6 0H6.4ZM4.8 5.2V2.4C4.8 2 4.8 1.8 4.8 1.6C4.8 1.4 4.8 1.3 4.9 1.2C5 1 5.1 0.9 5.3 0.8C5.4 0.8 5.5 0.7 5.7 0.7C5.9 0.7 6.1 0.7 6.5 0.7H8.7C9.1 0.7 9.3 0.7 9.5 0.7C9.7 0.7 9.8 0.7 9.9 0.8C10.1 0.9 10.2 1 10.3 1.2C10.3 1.3 10.4 1.4 10.4 1.6C10.4 1.8 10.4 2 10.4 2.4V9.6C10.4 10 10.4 10.2 10.4 10.4C10.4 10.6 10.4 10.7 10.3 10.8C10.2 11 10.1 11.1 9.9 11.2C9.8 11.2 9.7 11.3 9.5 11.3C9.4 11.3 9.3 11.3 9.1 11.3V11.2V10.5C9.1 10.4 9.1 10.3 9.1 10.2L9 10.1C8.9 10.1 8.9 10.1 8.7 10.1H8.4C8.3 10.1 8.2 10.1 8.1 10.1L8 10.2C8 10.3 8 10.3 8 10.5V11.2C8 11.3 8 11.3 8 11.3H7V8C7 7.8 7 7.6 7 7.4C7 7.3 6.9 7.1 6.8 7C6.7 6.9 6.5 6.8 6.4 6.6L5.3 5.6C5.1 5.4 4.9 5.3 4.8 5.2ZM6.2 8.1V11.3H4.5V9.9C4.5 9.8 4.5 9.7 4.5 9.6L4.4 9.5C4.3 9.5 4.3 9.5 4.1 9.5H3.9C3.8 9.5 3.7 9.5 3.6 9.5L3.5 9.6C3.5 9.7 3.5 9.7 3.5 9.9V11.3H3.4C3 11.3 2.8 11.3 2.6 11.3C2.4 11.3 2.3 11.3 2.2 11.2C2 11.1 1.9 11 1.8 10.8C1.8 10.7 1.7 10.6 1.7 10.4C1.7 10.2 1.7 10 1.7 9.6V8.2C1.7 7.9 1.7 7.8 1.7 7.7C1.7 7.6 1.8 7.5 1.8 7.4C1.8 7.3 1.9 7.2 2.1 7L2.9 6.2C3.3 6 3.4 5.9 3.5 5.8C3.6 5.7 3.7 5.7 3.7 5.7C3.8 5.7 4 5.7 4.1 5.7C4.1 5.7 4.2 5.7 4.3 5.8C4.4 5.9 4.5 6 4.8 6.2L5.9 7.2C6.1 7.4 6.2 7.4 6.2 7.5C6.2 7.6 6.3 7.6 6.3 7.7C6.2 7.7 6.2 7.8 6.2 8.1ZM6 2.1C6 2.2 6 2.2 6 2.4V2.6C6 2.7 6 2.8 6 2.9L6.1 3C6.2 3 6.2 3 6.4 3H6.6C6.7 3 6.8 3 6.9 3L7 2.9C7 2.8 7 2.8 7 2.6V2.4C7 2.3 7 2.2 7 2.1L6.9 2C6.8 2 6.7 2 6.6 2H6.4C6.3 2 6.2 2 6.1 2C6.1 2.1 6.1 2.1 6 2.1ZM8 2.4C8 2.3 8 2.2 8 2.1L8.1 2C8.2 2 8.2 2 8.4 2H8.6C8.7 2 8.8 2 8.9 2L9 2.1C9 2.2 9 2.2 9 2.4V2.6C9 2.7 9 2.8 9 2.9L8.9 3C8.8 3 8.7 3 8.6 3H8.4C8.3 3 8.2 3 8.1 3L8 2.9C8 2.8 8 2.8 8 2.6V2.4ZM8 4.1C8 4.2 8 4.2 8 4.4V4.6C8 4.7 8 4.8 8 4.9L8.1 5C8.2 5 8.2 5 8.4 5H8.6C8.7 5 8.8 5 8.9 5L9 4.9C9 4.8 9 4.8 9 4.6V4.4C9 4.3 9 4.2 9 4.1L8.9 4C8.8 4 8.7 4 8.6 4H8.4C8.3 4 8.2 4 8.1 4C8.1 4.1 8.1 4.1 8 4.1ZM6 4.4C6 4.3 6 4.2 6 4.1L6.1 4C6.2 4 6.2 4 6.4 4H6.6C6.7 4 6.8 4 6.9 4L7 4.1C7 4.2 7 4.2 7 4.4V4.6C7 4.7 7 4.8 7 4.9L6.9 5C6.8 5 6.7 5 6.6 5H6.4C6.3 5 6.2 5 6.1 5L6 4.9C6 4.8 6 4.8 6 4.6V4.4ZM8 6.1C8 6.2 8 6.2 8 6.4V6.6C8 6.7 8 6.8 8 6.9L8.1 7C8.2 7 8.2 7 8.4 7H8.6C8.7 7 8.8 7 8.9 7L9 6.9C9 6.8 9 6.8 9 6.6V6.4C9 6.3 9 6.2 9 6.1L8.9 6C8.8 6 8.7 6 8.6 6H8.4C8.3 6 8.2 6 8.1 6C8.1 6.1 8.1 6.1 8 6.1ZM8 8.4C8 8.3 8 8.2 8 8.1L8.1 8C8.2 8 8.2 8 8.4 8H8.6C8.7 8 8.8 8 8.9 8L9 8.1C9 8.2 9 8.2 9 8.4V8.6C9 8.7 9 8.8 9 8.9L8.9 9C8.8 9 8.7 9 8.6 9H8.4C8.3 9 8.2 9 8.1 9L8 8.9C8 8.8 8 8.8 8 8.6V8.4ZM3.5 7.9C3.5 7.8 3.5 7.7 3.5 7.6L3.6 7.5C3.7 7.5 3.7 7.5 3.9 7.5H4.1C4.2 7.5 4.3 7.5 4.4 7.5L4.5 7.6C4.5 7.7 4.5 7.7 4.5 7.9V8.1C4.5 8.2 4.5 8.3 4.5 8.4L4.4 8.5C4.3 8.5 4.3 8.5 4.1 8.5H3.9C3.8 8.5 3.7 8.5 3.6 8.5L3.5 8.4C3.5 8.3 3.5 8.3 3.5 8.1V7.9Z" fill="#2688EB"/>
</svg>
