<svg width="69" height="72" viewBox="0 0 69 72" fill="none" xmlns="http://www.w3.org/2000/svg">
<path d="M17.3016 1.59961C18.9016 1.59961 20.1016 2.89961 20.1016 4.39961V5.79961C21.3016 5.79961 22.5016 5.79961 23.9016 5.79961H28.5016V4.49961C28.5016 2.89961 29.8016 1.69961 31.3016 1.69961C32.9016 1.69961 34.1016 2.99961 34.1016 4.49961V5.89961H38.7016C40.1016 5.89961 41.4016 5.89961 42.5016 5.89961V4.49961C42.5016 2.89961 43.8016 1.69961 45.3016 1.69961C46.8016 1.69961 48.1016 2.99961 48.1016 4.49961V6.29961C49.4016 6.49961 50.6016 6.89961 51.7016 7.39961C54.4016 8.79961 56.5016 10.8996 57.9016 13.5996C58.8016 15.2996 59.1016 17.0996 59.3016 19.0996C59.5016 21.0996 59.5016 23.5996 59.5016 26.5996V31.9996C59.5016 33.5996 58.2016 34.7996 56.7016 34.7996C55.2016 34.7996 54.0016 33.4996 54.0016 31.9996V26.7996C54.0016 23.5996 54.0016 21.3996 53.9016 19.5996C53.8016 17.8996 53.5016 16.8996 53.1016 16.1996C52.3016 14.5996 51.0016 13.2996 49.4016 12.4996C49.1016 12.2996 48.7016 12.1996 48.4016 12.0996V12.9996C48.4016 14.5996 47.1016 15.7996 45.6016 15.7996C44.1016 15.7996 42.8016 14.4996 42.8016 12.9996V11.5996C41.5016 11.5996 40.2016 11.5996 38.8016 11.5996H34.3016V12.9996C34.3016 14.5996 33.0016 15.7996 31.5016 15.7996C29.9016 15.7996 28.7016 14.4996 28.7016 12.9996V11.5996H24.0016C22.5016 11.5996 21.2016 11.5996 20.0016 11.5996V12.9996C20.0016 14.5996 18.7016 15.7996 17.2016 15.7996C15.7016 15.7996 14.4016 14.4996 14.4016 12.9996V11.9996C14.0016 12.0996 13.7016 12.1996 13.4016 12.3996C11.8016 13.1996 10.5016 14.4996 9.70156 16.0996C9.30156 16.7996 9.10156 17.7996 8.90156 19.4996C8.80156 21.1996 8.80156 23.4996 8.80156 26.6996V46.9996C8.80156 50.1996 8.80156 52.3996 8.90156 54.1996C9.10156 55.9996 9.30156 56.9996 9.70156 57.6996C10.5016 59.2996 11.8016 60.5996 13.4016 61.3996C14.1016 61.7996 15.1016 61.9996 16.8016 62.1996C18.5016 62.2996 20.8016 62.2996 24.0016 62.2996H27.1016C28.7016 62.2996 29.9016 63.5996 29.9016 65.0996C29.9016 66.6996 28.6016 67.8996 27.1016 67.8996H23.9016C20.8016 67.8996 18.4016 67.8996 16.4016 67.6996C14.3016 67.4996 12.5016 67.1996 10.9016 66.2996C8.20156 64.8996 6.10156 62.7996 4.70156 60.0996C3.80156 58.3996 3.50156 56.5996 3.30156 54.5996C3.10156 52.5996 3.10156 50.0996 3.10156 47.0996V26.5996C3.10156 23.4996 3.10156 21.0996 3.30156 19.0996C3.50156 16.9996 3.80156 15.1996 4.70156 13.5996C6.10156 10.8996 8.20156 8.79961 10.9016 7.39961C12.0016 6.79961 13.2016 6.49961 14.5016 6.29961V4.49961C14.4016 2.89961 15.7016 1.59961 17.3016 1.59961Z" fill="#2688EB"/>
<path d="M45.1984 30.3992C46.2984 29.2992 46.2984 27.4992 45.0984 26.3992C43.9984 25.2992 42.2984 25.2992 41.1984 26.3992L27.3984 40.2992L22.0984 35.0992C20.9984 33.9992 19.1984 33.9992 18.0984 35.0992C16.9984 36.1992 16.9984 37.9992 18.0984 39.0992L25.3984 46.2992C26.4984 47.3992 28.2984 47.3992 29.3984 46.2992L45.1984 30.3992Z" fill="#2688EB"/>
<path fill-rule="evenodd" clip-rule="evenodd" d="M50.1008 48.4004C50.8008 48.4004 51.3008 49.0004 51.3008 49.6004V55.5004L57.5008 57.9004C58.1008 58.2004 58.5008 58.9004 58.2008 59.5004C57.9008 60.1004 57.2008 60.5004 56.6008 60.2004L49.6008 57.4004C49.1008 57.2004 48.8008 56.8004 48.8008 56.2004V49.4004C48.9008 48.9004 49.4008 48.4004 50.1008 48.4004Z" fill="#2688EB"/>
<path fill-rule="evenodd" clip-rule="evenodd" d="M50.8984 67.9004C57.7984 67.9004 63.3984 62.3004 63.3984 55.4004C63.3984 48.5004 57.7984 42.9004 50.8984 42.9004C43.9984 42.9004 38.3984 48.5004 38.3984 55.4004C38.3984 62.3004 43.9984 67.9004 50.8984 67.9004ZM50.8984 70.4004C59.1984 70.4004 65.8984 63.7004 65.8984 55.4004C65.8984 47.1004 59.1984 40.4004 50.8984 40.4004C42.5984 40.4004 35.8984 47.1004 35.8984 55.4004C35.8984 63.7004 42.5984 70.4004 50.8984 70.4004Z" fill="#2688EB"/>
</svg>
