<svg width="60" height="60" viewBox="0 0 60 60" fill="none" xmlns="http://www.w3.org/2000/svg">
<path fill-rule="evenodd" clip-rule="evenodd" d="M3 29C3 20.7 3 16.6 4.6 13.5C6 10.7 8.2 8.4 11 7C12.5 6.2 14.2 5.8 16.5 5.6V2.3C16.5 1.3 17.3 0.5 18.3 0.5C19.3 0.5 20.1 1.3 20.1 2.3V5.4C21.9 5.4 24 5.4 26.5 5.4H33.4C35.9 5.4 38 5.4 39.8 5.4V2.3C39.8 1.3 40.6 0.5 41.6 0.5C42.6 0.5 43.4 1.3 43.4 2.3V5.6C45.7 5.8 47.4 6.2 48.9 7C51.7 8.4 53.9 10.7 55.3 13.4C57 16.6 57 20.8 57 29V35.9C57 44.2 57 48.3 55.4 51.4C54 54.2 51.7 56.4 49 57.8C45.8 59.4 41.7 59.4 33.5 59.4H26.6C18.3 59.4 14.2 59.4 11.1 57.8C8.3 56.4 6.1 54.1 4.7 51.4C3 48.3 3 44.2 3 35.9V29ZM33.4 9.1H26.5C23.9 9.1 21.9 9.1 20.1 9.1V13.4C20.1 14.4 19.3 15.2 18.3 15.2C17.3 15.2 16.5 14.4 16.5 13.4V9.4C14.7 9.6 13.6 9.9 12.7 10.4C10.6 11.5 8.9 13.2 7.9 15.2C7.4 16.2 7.1 17.5 6.9 19.7C6.8 20.6 6.8 21.6 6.8 22.7H53.4C53.4 21.6 53.3 20.6 53.3 19.7C53.1 17.5 52.8 16.2 52.3 15.2C51.2 13.1 49.5 11.4 47.5 10.4C46.6 10 45.5 9.6 43.7 9.4V13.4C43.7 14.4 42.9 15.2 41.9 15.2C40.9 15.2 40.1 14.4 40.1 13.4V9.1C38.1 9.1 36 9.1 33.4 9.1ZM6.6 29V35.9C6.6 40.1 6.6 43 6.8 45.3C7 47.5 7.3 48.8 7.8 49.8C8.9 51.9 10.6 53.6 12.6 54.6C13.6 55.1 14.9 55.4 17.1 55.6C19.4 55.8 22.3 55.8 26.5 55.8H33.4C37.6 55.8 40.5 55.8 42.8 55.6C45 55.4 46.3 55.1 47.3 54.6C49.4 53.5 51.1 51.8 52.1 49.8C52.6 48.8 52.9 47.5 53.1 45.3C53.3 43 53.3 40.1 53.3 35.9V29C53.3 28 53.3 27.1 53.3 26.3H6.6C6.6 27.2 6.6 28.1 6.6 29Z" fill="#E64646"/>
<path fill-rule="evenodd" clip-rule="evenodd" d="M22.1992 33.1992C22.6992 32.6992 23.4992 32.6992 23.9992 33.1992L29.9992 39.1992L35.9992 33.1992C36.4992 32.6992 37.2992 32.6992 37.7992 33.1992C38.2992 33.6992 38.2992 34.4992 37.7992 34.9992L31.7992 40.9992L37.7992 46.9992C38.2992 47.4992 38.2992 48.2992 37.7992 48.7992C37.2992 49.2992 36.4992 49.2992 35.9992 48.7992L29.9992 42.7992L23.9992 48.7992C23.4992 49.2992 22.6992 49.2992 22.1992 48.7992C21.6992 48.2992 21.6992 47.4992 22.1992 46.9992L28.1992 40.9992L22.1992 34.9992C21.6992 34.5992 21.6992 33.6992 22.1992 33.1992Z" fill="#E64646"/>
</svg>
