<svg width="60" height="60" viewBox="0 0 60 60" fill="none" xmlns="http://www.w3.org/2000/svg">
<path fill-rule="evenodd" clip-rule="evenodd" d="M41.4 1.19922C42.8 1.19922 44 2.39922 44 3.79922V5.39922C45.4 5.59922 46.6 5.99922 47.8 6.59922C50.4 7.89922 52.6 10.0992 53.9 12.6992C54.7 14.2992 55.1 16.0992 55.3 18.1992C55.5 20.1992 55.5 22.6992 55.5 25.7992V37.9992C55.5 41.0992 55.5 43.5992 55.3 45.5992C55.1 47.6992 54.8 49.4992 53.9 51.0992C52.6 53.6992 50.4 55.8992 47.8 57.1992C46.2 57.9992 44.4 58.3992 42.3 58.5992C40.3 58.7992 37.8 58.7992 34.7 58.7992H25.3C22.2 58.7992 19.7 58.7992 17.7 58.5992C15.6 58.3992 13.8 58.0992 12.2 57.1992C9.6 55.8992 7.4 53.6992 6.1 51.0992C5.3 49.4992 4.9 47.6992 4.7 45.5992C4.5 43.5992 4.5 41.0992 4.5 37.9992V25.7992C4.5 22.6992 4.5 20.1992 4.7 18.1992C4.9 16.0992 5.2 14.2992 6.1 12.6992C7.4 10.0992 9.6 7.89922 12.2 6.59922C13.4 5.99922 14.6 5.59922 16 5.39922V3.79922C16 2.39922 17.2 1.19922 18.6 1.19922C20 1.19922 21.2 2.39922 21.2 3.79922V5.09922C22.5 5.09922 23.8 5.09922 25.4 5.09922H27.5V3.79922C27.5 2.39922 28.7 1.19922 30.1 1.19922C31.5 1.19922 32.7 2.39922 32.7 3.79922V5.09922H34.8C36.3 5.09922 37.7 5.09922 39 5.09922V3.79922C38.9 2.39922 40 1.19922 41.4 1.19922ZM14.5 11.1992C14.9 10.9992 15.4 10.7992 16 10.6992V11.4992C16 12.8992 17.2 14.0992 18.6 14.0992C20 14.0992 21.2 12.8992 21.2 11.4992V10.1992C22.4 10.1992 23.8 10.1992 25.5 10.1992H27.5V11.4992C27.5 12.8992 28.7 14.0992 30.1 14.0992C31.5 14.0992 32.7 12.8992 32.7 11.4992V10.1992H34.7C36.4 10.1992 37.8 10.1992 39 10.1992V11.4992C39 12.8992 40.2 14.0992 41.6 14.0992C43 14.0992 44.2 12.8992 44.2 11.4992V10.6992C44.8 10.7992 45.2 10.9992 45.7 11.1992C47.4 11.9992 48.7 13.3992 49.6 15.0992C50 15.8992 50.3 16.8992 50.4 18.6992C50.5 20.4992 50.5 22.7992 50.5 25.9992V37.9992C50.5 41.1992 50.5 43.4992 50.4 45.2992C50 46.9992 49.7 47.9992 49.3 48.7992C48.5 50.4992 47.1 51.7992 45.4 52.6992C44.6 53.0992 43.6 53.3992 41.8 53.4992C40 53.5992 37.7 53.5992 34.5 53.5992H25.4C22.2 53.5992 19.9 53.5992 18.1 53.4992C16.4 53.3992 15.3 53.0992 14.5 52.6992C12.8 51.8992 11.5 50.4992 10.6 48.7992C10.3 47.9992 10 46.9992 9.9 45.1992C9.8 43.3992 9.8 41.0992 9.8 37.8992V25.8992C9.8 22.6992 9.8 20.3992 9.9 18.5992C10 16.8992 10.3 15.7992 10.7 14.9992C11.5 13.3992 12.9 11.9992 14.5 11.1992ZM42.5 27.2992C43.5 26.2992 43.5 24.6992 42.5 23.6992C41.5 22.6992 39.9 22.6992 38.9 23.6992L27.1 35.3992L21.8 30.0992C20.8 29.0992 19.2 29.0992 18.2 30.0992C17.2 31.0992 17.2 32.6992 18.2 33.6992L25.3 40.7992C26.3 41.7992 27.9 41.7992 28.9 40.7992L42.5 27.2992Z" fill="#2688EB"/>
</svg>
