<svg width="20" height="20" viewBox="0 0 20 20" fill="none" xmlns="http://www.w3.org/2000/svg">
<g clip-path="url(#clip0_2612_65928)">
<path d="M10.0008 0.900391C11.9008 0.900391 13.7008 1.40039 15.3008 2.30039C15.6008 2.50039 15.7008 2.90039 15.5008 3.20039C15.3008 3.50039 14.9008 3.60039 14.6008 3.40039C13.2008 2.60039 11.6008 2.20039 9.90078 2.20039C5.30078 2.20039 1.60078 5.40039 1.60078 9.30039C1.60078 11.3004 2.50078 13.1004 4.20078 14.4004C4.40078 14.6004 4.50078 14.8004 4.40078 15.1004C4.20078 15.9004 3.80078 16.8004 3.20078 17.8004C5.00078 17.3004 6.30078 16.8004 7.20078 16.2004C7.40078 16.0004 7.60078 16.0004 7.80078 16.0004C8.50078 16.2004 9.30078 16.3004 10.0008 16.3004C14.6008 16.3004 18.3008 13.1004 18.3008 9.20039C18.3008 8.40039 18.1008 7.60039 17.8008 6.80039C17.7008 6.50039 17.8008 6.10039 18.1008 6.00039C18.4008 5.90039 18.8008 6.00039 18.9008 6.30039C19.3008 7.20039 19.5008 8.20039 19.5008 9.20039C19.5008 13.8004 15.2008 17.6004 9.90078 17.6004C9.10078 17.6004 8.40078 17.5004 7.70078 17.4004C6.60078 18.1004 5.00078 18.7004 3.00078 19.2004C2.70078 19.3004 2.50078 19.2004 2.20078 19.1004C1.70078 18.8004 1.50078 18.2004 1.80078 17.7004C2.40078 16.7004 2.80078 15.9004 3.00078 15.2004C1.30078 13.7004 0.300781 11.6004 0.300781 9.40039C0.400781 4.60039 4.70078 0.900391 10.0008 0.900391ZM18.4008 3.00039C18.6008 3.20039 18.6008 3.70039 18.4008 3.90039L10.6008 11.7004C10.4008 11.9004 9.90078 11.9004 9.70078 11.7004L6.60078 8.40039C6.40078 8.20039 6.40078 7.70039 6.60078 7.50039C6.80078 7.30039 7.30078 7.30039 7.50078 7.50039L10.2008 10.2004L17.5008 3.00039C17.8008 2.70039 18.2008 2.70039 18.4008 3.00039Z" fill="#4BB44B"/>
</g>
<defs>
<clipPath id="clip0_2612_65928">
<rect width="20" height="20" fill="white"/>
</clipPath>
</defs>
</svg>
