<svg width="480" height="480" viewBox="0 0 480 480" fill="none" xmlns="http://www.w3.org/2000/svg">
<g clip-path="url(#clip0_2612_66029)">
<path d="M240 480C372.548 480 480 372.548 480 240C480 107.452 372.548 0 240 0C107.452 0 0 107.452 0 240C0 372.548 107.452 480 240 480Z" fill="#F2F3F5"/>
<path d="M259.699 79.1004C264.999 80.3004 269.799 82.3004 274.399 85.2004C278.799 88.0004 282.299 90.9004 289.099 97.7004L359.099 167.6C366.899 175.4 369.999 179 372.999 183.8C375.899 188.4 377.899 193.2 379.099 198.5C380.399 203.9 380.699 208.8 380.699 219.7V316.4C380.699 343.7 378.199 356.7 370.999 370.2C364.499 382.4 354.899 392 342.699 398.5C329.199 405.7 316.299 408.2 288.899 408.2H197.999C170.699 408.2 157.699 405.7 144.199 398.5C131.999 392 122.399 382.4 115.899 370.2C108.699 356.7 106.199 343.8 106.199 316.4V159.3C106.199 141.8 109.299 127.7 115.899 115.4C122.399 103.2 131.999 93.6004 144.199 87.1004C156.499 80.5004 170.499 77.4004 188.099 77.4004H238.399C249.399 77.5004 254.199 77.9004 259.699 79.1004ZM240.199 98.6004H188.199C173.999 98.6004 163.299 101 154.299 105.8C145.799 110.3 139.199 116.9 134.699 125.4C129.899 134.4 127.499 145.1 127.499 159.3V316.4C127.499 340.5 129.399 350.2 134.699 360.2C139.199 368.7 145.799 375.3 154.299 379.8C164.299 385.1 173.999 387 198.099 387H288.999C313.099 387 322.799 385.1 332.799 379.8C341.299 375.3 347.899 368.7 352.399 360.2C357.699 350.2 359.599 340.5 359.599 316.4V219.7C359.599 215.8 359.599 212.9 359.399 210.6C358.299 211 357.199 211.2 355.999 211.2H278.599C261.099 211.2 246.899 197 246.899 179.5V102.1C246.899 100.9 247.099 99.8004 247.399 98.7004C245.699 98.7004 243.299 98.6004 240.199 98.6004ZM268.099 106.8V179.5C268.099 185.3 272.799 190.1 278.699 190.1H351.399C349.799 188.2 347.499 185.9 344.199 182.6L275.699 114C272.299 110.7 269.999 108.4 268.099 106.8Z" fill="#818C99"/>
</g>
<defs>
<clipPath id="clip0_2612_66029">
<rect width="480" height="480" fill="white"/>
</clipPath>
</defs>
</svg>
