<svg width="55" height="55" viewBox="0 0 55 55" fill="none" xmlns="http://www.w3.org/2000/svg">
<path d="M27.5008 52.7008C41.4184 52.7008 52.7008 41.4184 52.7008 27.5008C52.7008 13.5832 41.4184 2.30078 27.5008 2.30078C13.5832 2.30078 2.30078 13.5832 2.30078 27.5008C2.30078 41.4184 13.5832 52.7008 27.5008 52.7008Z" fill="#FFFFFE"/>
<path fill-rule="evenodd" clip-rule="evenodd" d="M26.9984 13.6004C27.5984 14.2004 27.5984 15.2004 26.9984 15.8004L17.2984 26.0004H41.3984C42.1984 26.0004 42.8984 26.7004 42.8984 27.5004C42.8984 28.3004 42.1984 29.0004 41.3984 29.0004H17.2984L27.0984 39.2004C27.6984 39.8004 27.6984 40.8004 27.0984 41.4004C26.4984 42.0004 25.4984 42.0004 24.8984 41.4004L12.5984 28.6004C11.9984 28.0004 11.9984 27.0004 12.5984 26.4004L24.8984 13.6004C25.3984 13.0004 26.3984 13.0004 26.9984 13.6004Z" fill="#2688EB"/>
</svg>
