<svg width="12" height="12" viewBox="0 0 12 12" fill="none" xmlns="http://www.w3.org/2000/svg">
<g clip-path="url(#clip0_2612_65920)">
<path fill-rule="evenodd" clip-rule="evenodd" d="M5.70156 0.800781H6.20156C6.50156 0.800781 6.80156 0.800781 7.00156 0.800781C7.20156 0.800781 7.50156 0.900781 7.70156 1.00078C8.00156 1.20078 8.30156 1.40078 8.50156 1.80078C8.60156 2.00078 8.70156 2.20078 8.70156 2.50078C8.70156 2.80078 8.70156 3.10078 8.70156 3.30078H9.50156C9.80156 3.30078 10.1016 3.30078 10.3016 3.30078C10.5016 3.30078 10.8016 3.40078 11.0016 3.50078C11.3016 3.70078 11.6016 3.90078 11.8016 4.30078C11.9016 4.50078 11.9016 4.70078 12.0016 5.00078C12.0016 5.20078 12.0016 5.50078 12.0016 5.80078V6.60078C12.0016 6.80078 12.0016 7.00078 12.0016 7.10078C12.0016 7.60078 11.6016 8.10078 11.0016 8.20078C11.0016 8.60078 11.0016 9.00078 11.0016 9.30078C11.0016 9.60078 10.9016 9.80078 10.8016 10.1008C10.6016 10.5008 10.3016 10.8008 9.90156 11.0008C9.70156 11.1008 9.40156 11.2008 9.10156 11.2008C8.80156 11.2008 8.50156 11.2008 8.10156 11.2008H3.90156C3.50156 11.2008 3.20156 11.2008 2.90156 11.2008C2.60156 11.2008 2.40156 11.1008 2.10156 11.0008C1.70156 10.8008 1.40156 10.5008 1.20156 10.1008C1.20156 9.80078 1.10156 9.60078 1.10156 9.30078C1.10156 8.90078 1.10156 8.50078 1.10156 8.20078C0.501562 8.10078 0.201563 7.60078 0.101562 7.10078C0.101562 7.00078 0.101562 6.80078 0.101562 6.60078V5.80078C0.101562 5.50078 0.101562 5.20078 0.101562 5.00078C0.101562 4.80078 0.201563 4.50078 0.301563 4.30078C0.501563 3.90078 0.701562 3.70078 1.00156 3.50078C1.20156 3.40078 1.40156 3.40078 1.70156 3.30078C1.90156 3.30078 2.20156 3.30078 2.50156 3.30078H3.30156C3.30156 3.00078 3.30156 2.70078 3.30156 2.50078C3.30156 2.30078 3.40156 2.00078 3.50156 1.80078C3.70156 1.50078 3.90156 1.20078 4.20156 1.00078C4.40156 0.900781 4.60156 0.900781 4.90156 0.800781C5.10156 0.800781 5.40156 0.800781 5.70156 0.800781ZM1.80156 7.20078H10.2016C10.4016 7.20078 10.5016 7.20078 10.6016 7.20078C10.8016 7.20078 10.8016 7.10078 10.8016 7.00078C10.8016 6.90078 10.8016 6.80078 10.8016 6.60078V5.80078C10.8016 5.40078 10.8016 5.20078 10.8016 5.00078C10.8016 4.80078 10.8016 4.70078 10.7016 4.70078C10.6016 4.60078 10.5016 4.40078 10.4016 4.40078C10.3016 4.40078 10.3016 4.30078 10.1016 4.30078C9.90156 4.30078 9.70156 4.30078 9.30156 4.30078H2.60156C2.20156 4.30078 2.00156 4.30078 1.80156 4.30078C1.60156 4.30078 1.50156 4.30078 1.50156 4.40078C1.40156 4.40078 1.20156 4.50078 1.20156 4.70078C1.20156 4.80078 1.10156 4.80078 1.10156 5.00078C1.10156 5.20078 1.10156 5.40078 1.10156 5.80078V6.60078C1.10156 6.80078 1.10156 6.90078 1.10156 7.00078C1.10156 7.20078 1.20156 7.20078 1.30156 7.20078C1.40156 7.20078 1.60156 7.20078 1.80156 7.20078ZM2.10156 8.20078C2.10156 8.50078 2.10156 8.90078 2.10156 9.20078C2.10156 9.40078 2.10156 9.50078 2.20156 9.60078C2.30156 9.80078 2.40156 9.90078 2.60156 10.0008C2.70156 10.0008 2.80156 10.1008 3.00156 10.1008C3.20156 10.1008 3.50156 10.1008 3.90156 10.1008H8.00156C8.40156 10.1008 8.70156 10.1008 8.90156 10.1008C9.10156 10.1008 9.20156 10.1008 9.30156 10.0008C9.60156 10.0008 9.70156 9.80078 9.80156 9.60078C9.80156 9.50078 9.90156 9.40078 9.90156 9.20078C9.90156 8.90078 9.90156 8.50078 9.90156 8.20078H2.10156ZM7.70156 2.50078C7.70156 2.70078 7.70156 2.90078 7.70156 3.30078H4.30156C4.30156 2.90078 4.30156 2.70078 4.30156 2.50078C4.30156 2.30078 4.30156 2.20078 4.40156 2.20078C4.40156 2.10078 4.50156 2.00078 4.70156 1.90078C4.80156 1.90078 4.80156 1.80078 5.00156 1.80078C5.20156 1.80078 5.40156 1.80078 5.80156 1.80078H6.30156C6.70156 1.80078 6.90156 1.80078 7.10156 1.80078C7.30156 1.80078 7.40156 1.80078 7.40156 1.90078C7.50156 2.00078 7.60156 2.10078 7.60156 2.20078C7.70156 2.30078 7.70156 2.40078 7.70156 2.50078Z" fill="#2688EB"/>
</g>
<defs>
<clipPath id="clip0_2612_65920">
<rect width="12" height="12" fill="white"/>
</clipPath>
</defs>
</svg>
