<svg width="24" height="24" viewBox="0 0 24 24" fill="none" xmlns="http://www.w3.org/2000/svg">
<path d="M16.6992 18.4004C16.6992 17.9004 16.6992 17.7004 16.7992 17.5004C16.8992 17.3004 17.0992 17.1004 17.2992 17.0004C17.4992 16.9004 17.6992 16.9004 18.1992 16.9004C18.6992 16.9004 18.8992 16.9004 19.0992 17.0004C19.2992 17.1004 19.4992 17.3004 19.5992 17.5004C19.6992 17.7004 19.6992 17.9004 19.6992 18.4004C19.6992 18.9004 19.6992 19.1004 19.5992 19.3004C19.4992 19.5004 19.2992 19.7004 19.0992 19.8004C18.8992 19.9004 18.6992 19.9004 18.1992 19.9004C17.6992 19.9004 17.4992 19.9004 17.2992 19.8004C17.0992 19.7004 16.8992 19.5004 16.7992 19.3004C16.6992 19.1004 16.6992 18.8004 16.6992 18.4004Z" fill="#2688EB"/>
<path fill-rule="evenodd" clip-rule="evenodd" d="M1.19922 11.5992C1.19922 8.29922 1.19922 6.59922 1.79922 5.39922C2.39922 4.29922 3.29922 3.39922 4.39922 2.79922C4.99922 2.49922 5.69922 2.29922 6.59922 2.29922V0.899219C6.59922 0.499219 6.89922 0.199219 7.29922 0.199219C7.69922 0.199219 7.99922 0.499219 7.99922 0.899219V2.09922C8.69922 2.09922 9.59922 2.09922 10.5992 2.09922H13.3992C14.3992 2.09922 15.1992 2.09922 15.9992 2.09922V0.899219C15.9992 0.499219 16.2992 0.199219 16.6992 0.199219C17.0992 0.199219 17.3992 0.499219 17.3992 0.899219V2.19922C18.2992 2.29922 18.9992 2.39922 19.5992 2.69922C20.6992 3.29922 21.5992 4.19922 22.1992 5.29922C22.7992 6.59922 22.7992 8.19922 22.7992 11.4992V14.2992C22.7992 17.5992 22.7992 19.2992 22.1992 20.4992C21.5992 21.5992 20.6992 22.4992 19.5992 23.0992C18.2992 23.6992 16.6992 23.6992 13.3992 23.6992H10.5992C7.29922 23.6992 5.59922 23.6992 4.39922 23.0992C3.29922 22.4992 2.39922 21.5992 1.79922 20.4992C1.19922 19.1992 1.19922 17.5992 1.19922 14.2992C1.19922 14.3992 1.19922 11.5992 1.19922 11.5992ZM13.3992 3.59922H10.5992C9.59922 3.59922 8.69922 3.59922 7.99922 3.59922V5.29922C7.99922 5.69922 7.69922 5.99922 7.29922 5.99922C6.89922 5.99922 6.59922 5.79922 6.59922 5.39922V3.69922C5.89922 3.79922 5.39922 3.89922 5.09922 4.09922C4.19922 4.59922 3.59922 5.19922 3.09922 6.09922C2.89922 6.39922 2.79922 6.99922 2.69922 7.89922C2.69922 8.29922 2.69922 8.59922 2.59922 9.09922H21.1992C21.1992 8.69922 21.1992 8.29922 21.0992 7.89922C20.9992 6.99922 20.8992 6.49922 20.6992 6.09922C20.2992 5.29922 19.5992 4.59922 18.7992 4.19922C18.4992 3.99922 17.9992 3.89922 17.2992 3.79922V5.39922C17.2992 5.79922 16.9992 6.09922 16.5992 6.09922C16.1992 6.09922 15.8992 5.79922 15.8992 5.39922V3.69922C15.1992 3.59922 14.3992 3.59922 13.3992 3.59922ZM2.69922 11.5992V14.3992C2.69922 16.0992 2.69922 17.1992 2.79922 18.1992C2.89922 19.0992 2.99922 19.5992 3.19922 19.9992C3.59922 20.7992 4.29922 21.4992 5.09922 21.8992C5.49922 21.9992 5.99922 22.1992 6.89922 22.1992C7.79922 22.2992 8.99922 22.2992 10.6992 22.2992H13.4992C15.1992 22.2992 16.2992 22.2992 17.2992 22.1992C18.1992 22.0992 18.6992 21.9992 19.0992 21.7992C19.8992 21.3992 20.5992 20.6992 20.9992 19.8992C21.1992 19.4992 21.2992 18.9992 21.3992 18.0992C21.4992 17.1992 21.4992 15.9992 21.4992 14.2992V11.4992C21.4992 11.0992 21.4992 10.7992 21.4992 10.3992H2.69922C2.69922 10.8992 2.69922 11.1992 2.69922 11.5992Z" fill="#2688EB"/>
</svg>
