<svg xmlns="http://www.w3.org/2000/svg" viewBox="0 0 259.3 259.1" xmlns:v="https://vecta.io/nano"><path d="M129.5 91.2c-21.2 0-38.4 17.2-38.4 38.4s17.2 38.4 38.4 38.4 38.4-17.2 38.4-38.4-17.2-38.4-38.4-38.4zm.3 62.4l-.7-.1c-1.8-.3-4.5-2-4.5-4.8.1-2.2 1.9-4.3 4.5-4.5.8.1 6.7.8 11.4-3.6 4.8-4.5 4.5-10.6 4.4-11.5v-.1c.2-2.5 2.3-4.4 4.8-4.4 2.4.1 4.4 1.9 4.6 4.4v.1c-.1 13.5-11 24.5-24.5 24.5z" fill="#4273b8"/><path d="M85.8 85.9c18.2-18.2 45.1-22.6 67.5-13.3l3.9-8.4c-25.9-10.9-56.9-5.9-78 15.1-14.9 14.9-21.7 34.9-20.6 54.4H68c-1.2-17.1 4.7-34.7 17.8-47.8z" fill="#33a852"/><path d="M157.3 64.2l-3.9 8.4c7.2 3 14 7.4 19.8 13.3a60.89 60.89 0 0 1 17.3 34.6l9.2-.9c-2.1-14.7-8.7-28.9-20-40.2-6.6-6.7-14.3-11.7-22.4-15.2z" fill="#f89820"/><path d="M173.2 173.2c-24.1 24.1-63.3 24.1-87.3 0-11-11-16.9-25.1-17.9-39.5h-9.3c1 16.8 7.8 33.3 20.6 46 27.7 27.7 72.8 27.7 100.5 0 3.1-3.1 5.8-6.4 8.2-9.9l-7.6-5.4c-2.1 3.2-4.5 6.1-7.2 8.8z" fill="#4273b8"/><path d="M180.4 164.5l7.6 5.4c10.3-15 14.3-33 11.8-50.3l-9.2.9c2.1 15.1-1.2 30.9-10.2 44z" fill="#e52e25"/><path d="M14.7 84.2V65.9c0-28.4 23.1-51.5 51.5-51.5h18.3V0H66.1C29.8 0 .3 29.6.3 65.9v18.3h14.4 0zm159.9-69.7h18.3c28.4 0 51.5 23.1 51.5 51.5v18.3h14.4V65.9c0-36.3-29.6-65.9-65.9-65.9h-18.3v14.5zM14.7 174.9v18.3c0 28.4 23.1 51.5 51.5 51.5h18.3v14.4H66.1C29.8 259.1.2 229.5.2 193.2v-18.3h14.5 0zm159.9 69.8h18.3c28.4 0 51.5-23.1 51.5-51.5v-18.3h14.4v18.3c0 36.3-29.6 65.9-65.9 65.9h-18.3v-14.4z" fill="#4273b8"/></svg>