<svg width="24" height="24" viewBox="0 0 24 24" fill="none" xmlns="http://www.w3.org/2000/svg">
<path fill-rule="evenodd" clip-rule="evenodd" d="M10.5008 1.90039H13.5008C13.8008 1.90039 14.0008 1.90039 14.3008 1.90039C15.3008 2.00039 16.3008 2.50039 17.0008 3.30039C17.1008 3.50039 17.3008 3.70039 17.4008 3.90039L17.5008 4.00039C17.6008 4.10039 17.6008 4.10039 17.6008 4.20039C17.8008 4.50039 18.2008 4.70039 18.6008 4.70039C18.6008 4.70039 18.7008 4.70039 18.8008 4.70039C19.1008 4.70039 19.3008 4.70039 19.5008 4.70039C21.7008 4.90039 23.4008 6.60039 23.6008 8.80039C23.6008 9.00039 23.6008 9.20039 23.6008 9.50039V13.0004C23.6008 14.4004 23.6008 15.5004 23.5008 16.4004C23.4008 17.3004 23.3008 18.1004 22.9008 18.8004C22.3008 19.9004 21.4008 20.9004 20.3008 21.4004C19.7008 21.8004 18.9008 22.0004 18.0008 22.0004C17.1008 22.1004 16.0008 22.1004 14.6008 22.1004H9.40078C8.00078 22.1004 6.90078 22.1004 6.00078 22.0004C5.10078 21.9004 4.30078 21.8004 3.60078 21.4004C2.50078 20.9004 1.60078 20.0004 1.00078 18.8004C0.600781 18.1004 0.500781 17.3004 0.400781 16.4004C0.300781 15.5004 0.300781 14.4004 0.300781 13.0004V9.60039C0.300781 9.30039 0.300781 9.10039 0.300781 8.90039C0.500781 6.70039 2.30078 5.00039 4.40078 4.80039C4.60078 4.80039 4.80078 4.80039 5.10078 4.80039C5.20078 4.80039 5.30078 4.80039 5.30078 4.80039C5.70078 4.80039 6.10078 4.60039 6.30078 4.30039C6.30078 4.30039 6.30078 4.20039 6.40078 4.10039L6.60078 4.00039C6.80078 3.70039 6.90078 3.60039 7.00078 3.40039C7.70078 2.50039 8.70078 2.00039 9.70078 1.90039C10.0008 1.90039 10.2008 1.90039 10.5008 1.90039ZM10.5008 3.80039C10.1008 3.80039 10.0008 3.80039 9.90078 3.80039C9.40078 3.90039 8.90078 4.10039 8.50078 4.50039C8.50078 4.70039 8.40078 4.80039 8.20078 5.10039L8.10078 5.20039C8.10078 5.30039 8.00078 5.40039 8.00078 5.40039C7.40078 6.20039 6.50078 6.70039 5.50078 6.70039C5.40078 6.70039 5.30078 6.70039 5.20078 6.70039C4.80078 6.70039 4.70078 6.70039 4.60078 6.70039C3.40078 6.90039 2.40078 7.80039 2.30078 9.10039C2.30078 9.20039 2.30078 9.30039 2.30078 9.70039V13.1004C2.30078 14.5004 2.30078 15.5004 2.40078 16.3004C2.50078 17.1004 2.60078 17.6004 2.80078 17.9004C3.20078 18.7004 3.80078 19.3004 4.60078 19.7004C5.00078 19.9004 5.50078 20.0004 6.20078 20.1004C7.00078 20.2004 8.00078 20.2004 9.40078 20.2004H14.6008C16.0008 20.2004 17.0008 20.2004 17.8008 20.1004C18.6008 20.0004 19.1008 19.9004 19.4008 19.7004C20.2008 19.3004 20.8008 18.7004 21.2008 17.9004C21.4008 17.5004 21.5008 17.0004 21.6008 16.3004C21.7008 15.5004 21.7008 14.5004 21.7008 13.1004V9.70039C21.7008 9.30039 21.7008 9.20039 21.7008 9.10039C21.6008 7.90039 20.6008 6.90039 19.4008 6.80039C19.3008 6.80039 19.2008 6.80039 18.8008 6.80039C18.7008 6.80039 18.6008 6.80039 18.5008 6.80039C17.5008 6.70039 16.6008 6.30039 16.0008 5.50039C15.9008 5.40039 15.9008 5.30039 15.8008 5.30039L15.7008 5.20039C15.5008 4.90039 15.4008 4.80039 15.4008 4.70039C15.0008 4.30039 14.5008 4.00039 14.0008 4.00039C13.9008 4.00039 13.8008 4.00039 13.4008 4.00039C13.5008 3.80039 10.5008 3.80039 10.5008 3.80039ZM12.0008 10.1004C10.5008 10.1004 9.30078 11.3004 9.30078 12.8004C9.30078 14.3004 10.5008 15.5004 12.0008 15.5004C13.5008 15.5004 14.7008 14.3004 14.7008 12.8004C14.7008 11.3004 13.5008 10.1004 12.0008 10.1004ZM7.30078 12.8004C7.30078 10.2004 9.40078 8.10039 12.0008 8.10039C14.6008 8.10039 16.7008 10.2004 16.7008 12.8004C16.7008 15.4004 14.6008 17.5004 12.0008 17.5004C9.40078 17.5004 7.30078 15.4004 7.30078 12.8004Z" fill="#2688EB"/>
</svg>
