<svg width="24" height="24" viewBox="0 0 24 24" fill="none" xmlns="http://www.w3.org/2000/svg">
<path fill-rule="evenodd" clip-rule="evenodd" d="M15.9437 2.57131H18.3437L18.3834 2.5713C18.5876 2.57122 18.8314 2.57113 19.0463 2.58868C19.2952 2.60902 19.6518 2.66121 20.0254 2.85158C20.5093 3.09811 20.9026 3.49149 21.1491 3.97533C21.3395 4.34895 21.3917 4.70552 21.412 4.95446C21.4296 5.16928 21.4295 5.41313 21.4294 5.61732V5.65702V8.05702V8.09669C21.4295 8.30088 21.4296 8.54477 21.412 8.75961C21.3917 9.00852 21.3395 9.36509 21.1491 9.73872C20.9026 10.2226 20.5093 10.6159 20.0254 10.8624C19.6518 11.0528 19.2952 11.105 19.0463 11.1254C18.8314 11.1429 18.5876 11.1428 18.3834 11.1427H18.3437H15.9437H15.904C15.6999 11.1428 15.456 11.1429 15.2411 11.1254C14.9922 11.105 14.6356 11.0528 14.262 10.8624C13.7782 10.6159 13.3848 10.2226 13.1383 9.73872C12.9479 9.36509 12.8957 9.00852 12.8754 8.75961C12.8578 8.54476 12.8579 8.3009 12.858 8.09669V8.05702V5.65702V5.61736C12.8579 5.41316 12.8578 5.16929 12.8754 4.95446C12.8957 4.70552 12.9479 4.34895 13.1383 3.97533C13.3848 3.49149 13.7782 3.09811 14.262 2.85158C14.6356 2.66121 14.9922 2.60902 15.2411 2.58868C15.456 2.57113 15.6999 2.57122 15.904 2.5713L15.9437 2.57131ZM14.6657 4.7536C14.5723 4.93696 14.5723 5.17698 14.5723 5.65702V8.05702C14.5723 8.53707 14.5723 8.77709 14.6657 8.96043C14.7479 9.12175 14.879 9.25289 15.0403 9.33501C15.2236 9.42843 15.4636 9.42843 15.9437 9.42843H18.3437C18.8237 9.42843 19.0638 9.42843 19.2471 9.33501C19.4084 9.25289 19.5395 9.12175 19.6217 8.96043C19.7152 8.77709 19.7151 8.53708 19.7151 8.05705V5.65702C19.7151 5.17699 19.7152 4.93695 19.6217 4.7536C19.5395 4.59232 19.4084 4.4612 19.2471 4.37902C19.0638 4.28559 18.8237 4.28559 18.3437 4.28559H15.9437C15.4636 4.28559 15.2236 4.28559 15.0403 4.37902C14.879 4.4612 14.7479 4.59232 14.6657 4.7536ZM8.058 12.857H5.658H5.61834C5.41413 12.8569 5.17027 12.8568 4.95543 12.8744C4.70649 12.8947 4.34993 12.9469 3.97631 13.1373C3.49247 13.3838 3.09908 13.7772 2.85255 14.2611C2.66219 14.6346 2.61 14.9912 2.58966 15.2402C2.5721 15.455 2.5722 15.6989 2.57228 15.903L2.57228 15.9427V18.3427L2.57228 18.3824C2.5722 18.5866 2.5721 18.8304 2.58966 19.0453C2.61 19.2942 2.66219 19.6508 2.85255 20.0244C3.09908 20.5083 3.49247 20.9016 3.97631 21.1481C4.34993 21.3385 4.70649 21.3907 4.95543 21.4111C5.17025 21.4286 5.41411 21.4285 5.6183 21.4284H5.658H8.058H8.09767C8.30186 21.4285 8.54575 21.4286 8.76061 21.4111C9.00952 21.3907 9.36609 21.3385 9.73972 21.1481C10.2236 20.9016 10.6169 20.5083 10.8634 20.0244C11.0538 19.6508 11.106 19.2942 11.1263 19.0453C11.1439 18.8304 11.1438 18.5866 11.1437 18.3824V18.3427V15.9427V15.903C11.1438 15.6989 11.1439 15.455 11.1263 15.2402C11.106 14.9912 11.0538 14.6346 10.8634 14.2611C10.6169 13.7772 10.2236 13.3838 9.73972 13.1373C9.36609 12.9469 9.00952 12.8947 8.76061 12.8744C8.54574 12.8568 8.30186 12.8569 8.09767 12.857H8.058ZM4.28657 15.9427C4.28657 15.4627 4.28657 15.2226 4.38 15.0393C4.46217 14.8781 4.5933 14.7469 4.75458 14.6647C4.93794 14.5713 5.17796 14.5713 5.658 14.5713H8.058C8.53805 14.5713 8.77809 14.5713 8.96144 14.6647C9.12266 14.7469 9.25381 14.8781 9.33601 15.0393C9.42944 15.2226 9.42944 15.4627 9.42944 15.9427V18.3427C9.42944 18.8228 9.42944 19.0628 9.33601 19.2461C9.25381 19.4075 9.12266 19.5386 8.96144 19.6207C8.77809 19.7141 8.53806 19.7141 8.05802 19.7141H5.658C5.17797 19.7141 4.93793 19.7141 4.75458 19.6207C4.5933 19.5386 4.46217 19.4075 4.38 19.2461C4.28657 19.0628 4.28657 18.8228 4.28657 18.3427V15.9427ZM18.3437 12.857H15.9437H15.904C15.6999 12.8569 15.456 12.8568 15.2411 12.8744C14.9922 12.8947 14.6356 12.9469 14.262 13.1373C13.7782 13.3838 13.3848 13.7772 13.1383 14.2611C12.9479 14.6346 12.8957 14.9912 12.8754 15.2402C12.8578 15.455 12.8579 15.6989 12.858 15.903V15.9427V18.3427V18.3824C12.8579 18.5866 12.8578 18.8304 12.8754 19.0453C12.8957 19.2942 12.9479 19.6508 13.1383 20.0244C13.3848 20.5083 13.7782 20.9016 14.262 21.1481C14.6356 21.3385 14.9922 21.3907 15.2411 21.4111C15.456 21.4286 15.6998 21.4285 15.904 21.4284H15.9437H18.3437H18.3834C18.5876 21.4285 18.8314 21.4286 19.0463 21.4111C19.2952 21.3907 19.6518 21.3385 20.0254 21.1481C20.5093 20.9016 20.9026 20.5083 21.1491 20.0244C21.3395 19.6508 21.3917 19.2942 21.412 19.0453C21.4296 18.8305 21.4295 18.5867 21.4294 18.3824V18.3427V15.9427V15.903C21.4295 15.6989 21.4296 15.455 21.412 15.2402C21.3917 14.9912 21.3395 14.6346 21.1491 14.2611C20.9026 13.7772 20.5093 13.3838 20.0254 13.1373C19.6518 12.9469 19.2952 12.8947 19.0463 12.8744C18.8314 12.8568 18.5876 12.8569 18.3834 12.857H18.3437ZM14.5723 15.9427C14.5723 15.4627 14.5723 15.2226 14.6657 15.0393C14.7479 14.8781 14.879 14.7469 15.0403 14.6647C15.2236 14.5713 15.4636 14.5713 15.9437 14.5713H18.3437C18.8237 14.5713 19.0638 14.5713 19.2471 14.6647C19.4084 14.7469 19.5395 14.8781 19.6217 15.0393C19.7152 15.2226 19.7151 15.4627 19.7151 15.9427V18.3427C19.7151 18.8227 19.7152 19.0628 19.6217 19.2461C19.5395 19.4075 19.4084 19.5386 19.2471 19.6207C19.0638 19.7141 18.8238 19.7141 18.3437 19.7141H15.9437C15.4636 19.7141 15.2236 19.7141 15.0403 19.6207C14.879 19.5386 14.7479 19.4075 14.6657 19.2461C14.5723 19.0628 14.5723 18.8228 14.5723 18.3427V15.9427ZM8.058 2.57131H5.658L5.61834 2.5713C5.41413 2.57122 5.17027 2.57113 4.95543 2.58868C4.70649 2.60902 4.34993 2.66121 3.97631 2.85158C3.49247 3.09811 3.09908 3.49149 2.85255 3.97533C2.66219 4.34895 2.61 4.70552 2.58966 4.95446C2.5721 5.16929 2.5722 5.41316 2.57228 5.61736L2.57228 5.65702V8.05702L2.57228 8.09669C2.5722 8.3009 2.5721 8.54476 2.58966 8.75961C2.61 9.00852 2.66219 9.36509 2.85255 9.73872C3.09908 10.2226 3.49247 10.6159 3.97631 10.8624C4.34993 11.0528 4.70649 11.105 4.95543 11.1254C5.17027 11.1429 5.41413 11.1428 5.61834 11.1427H5.658H8.058H8.09767C8.30186 11.1428 8.54574 11.1429 8.76061 11.1254C9.00952 11.105 9.36609 11.0528 9.73972 10.8624C10.2236 10.6159 10.6169 10.2226 10.8634 9.73872C11.0538 9.36509 11.106 9.00852 11.1263 8.75961C11.1439 8.54476 11.1438 8.3009 11.1437 8.09669V8.05702V5.65702V5.61736C11.1438 5.41316 11.1439 5.16929 11.1263 4.95446C11.106 4.70552 11.0538 4.34895 10.8634 3.97533C10.6169 3.49149 10.2236 3.09811 9.73972 2.85158C9.36609 2.66121 9.00952 2.60902 8.76061 2.58868C8.54574 2.57113 8.30186 2.57122 8.09767 2.5713L8.058 2.57131ZM4.28657 5.65702C4.28657 5.17698 4.28657 4.93696 4.38 4.7536C4.46217 4.59232 4.5933 4.4612 4.75458 4.37902C4.93794 4.28559 5.17796 4.28559 5.658 4.28559H8.058C8.53805 4.28559 8.77809 4.28559 8.96144 4.37902C9.12266 4.4612 9.25381 4.59232 9.33601 4.7536C9.42944 4.93696 9.42944 5.17698 9.42944 5.65702V8.05702C9.42944 8.53707 9.42944 8.77709 9.33601 8.96043C9.25381 9.12175 9.12266 9.25289 8.96144 9.33501C8.77809 9.42843 8.53805 9.42843 8.058 9.42843H5.658C5.17796 9.42843 4.93794 9.42843 4.75458 9.33501C4.5933 9.25289 4.46217 9.12175 4.38 8.96043C4.28657 8.77709 4.28657 8.53707 4.28657 8.05702V5.65702Z" fill="black"/>
</svg>
