<svg width="48" height="48" viewBox="0 0 48 48" fill="none" xmlns="http://www.w3.org/2000/svg">
<path d="M24 4C12.954 4 4.00001 12.954 4.00001 24C4.00001 27.637 4.98601 31.037 6.68201 33.975L2.11801 44.359C1.61201 45.51 2.82901 46.659 3.94901 46.089L13.703 41.122C16.714 42.937 20.229 44 24 44C35.046 44 44 35.046 44 24C44 12.954 35.046 4 24 4Z" fill="#047FDE"/>
<path d="M24 26C25.1046 26 26 25.1046 26 24C26 22.8954 25.1046 22 24 22C22.8954 22 22 22.8954 22 24C22 25.1046 22.8954 26 24 26Z" fill="white"/>
<path d="M16 26C17.1046 26 18 25.1046 18 24C18 22.8954 17.1046 22 16 22C14.8954 22 14 22.8954 14 24C14 25.1046 14.8954 26 16 26Z" fill="white"/>
<path d="M32 26C33.1046 26 34 25.1046 34 24C34 22.8954 33.1046 22 32 22C30.8954 22 30 22.8954 30 24C30 25.1046 30.8954 26 32 26Z" fill="white"/>
</svg>
