<?xml version="1.0" encoding="utf-8"?>
<!-- Generator: Adobe Illustrator 26.5.0, SVG Export Plug-In . SVG Version: 6.00 Build 0)  -->
<svg version="1.1" id="Layer_1" xmlns="http://www.w3.org/2000/svg" xmlns:xlink="http://www.w3.org/1999/xlink" x="0px" y="0px"
	 viewBox="0 0 216.11 216.11" style="enable-background:new 0 0 216.11 216.11;" xml:space="preserve">
<style type="text/css">
	.st0{fill:#4273B8;}
</style>
<g>
	<g>
		<path class="st0" d="M190.11,24.95C153.3-8.45,62.73-8.45,25.04,25.77c-33.38,36.84-33.38,127.4,0,164.25l0.85,0.84
			c18.3,16.58,49.88,24.92,81.63,24.92c32.15,0,64.49-8.55,83.44-25.76C224.34,153.19,224.33,62.63,190.11,24.95z M173.87,172.93
			c-27.54,24.94-103.24,25.06-131.31,0.4C17.85,145.25,17.98,69.58,42.13,42.86c27.72-25.15,104.04-25.13,130.89-0.83
			C198.13,69.74,198.15,146.08,173.87,172.93z"/>
		<path class="st0" d="M157.67,142c4.32,4.31,4.32,11.3,0,15.62c-2.15,2.16-4.98,3.24-7.81,3.24c-2.82,0-5.65-1.08-7.81-3.24
			l-34.1-34.11l-34.11,34.11c-2.16,2.16-4.99,3.24-7.81,3.24c-2.83,0-5.66-1.08-7.81-3.24c-4.32-4.32-4.32-11.31,0-15.62
			l34.11-34.11L58.22,73.78c-4.32-4.31-4.32-11.3,0-15.62c4.31-4.31,11.3-4.31,15.62,0l34.11,34.11l34.1-34.11
			c4.32-4.31,11.31-4.31,15.62,0c4.32,4.32,4.32,11.31,0,15.62l-34.11,34.11L157.67,142z"/>
	</g>
</g>
</svg>
