<svg width="18" height="15" viewBox="0 0 18 15" fill="none" xmlns="http://www.w3.org/2000/svg">
<g clip-path="url(#clip0_2612_65914)">
<path d="M3.10078 1.09922C3.30078 0.899219 3.70078 0.899219 3.90078 1.09922L15.6008 12.7992C15.8008 12.9992 15.8008 13.3992 15.6008 13.5992C15.4008 13.7992 15.0008 13.7992 14.8008 13.5992L13.9008 12.6992C12.4008 13.6992 10.8008 14.1992 9.00078 14.1992C6.60078 14.1992 4.50078 13.1992 2.70078 11.5992C1.30078 10.2992 0.300781 8.69922 0.300781 7.79922C0.300781 6.49922 1.90078 4.29922 4.00078 2.89922L3.10078 1.89922C2.90078 1.59922 2.90078 1.29922 3.10078 1.09922ZM4.90078 3.59922C3.00078 4.79922 1.50078 6.79922 1.50078 7.69922C1.50078 8.19922 2.30078 9.59922 3.50078 10.6992C5.00078 12.0992 6.90078 12.9992 9.00078 12.9992C10.4008 12.9992 11.8008 12.5992 13.1008 11.7992L11.4008 10.0992C10.8008 10.6992 9.90078 11.0992 9.00078 11.0992C7.10078 11.0992 5.60078 9.59922 5.60078 7.69922C5.60078 6.79922 6.00078 5.99922 6.60078 5.29922L4.90078 3.59922ZM9.00078 1.29922C11.4008 1.29922 13.5008 2.29922 15.3008 3.89922C16.7008 5.19922 17.7008 6.79922 17.7008 7.69922C17.7008 8.39922 17.1008 9.59922 16.1008 10.7992C15.9008 10.9992 15.5008 11.0992 15.3008 10.7992C15.1008 10.5992 15.0008 10.1992 15.3008 9.99922C16.1008 9.09922 16.6008 8.09922 16.6008 7.69922C16.6008 7.19922 15.8008 5.79922 14.6008 4.69922C13.0008 3.29922 11.1008 2.39922 9.00078 2.39922C8.50078 2.39922 7.90078 2.49922 7.40078 2.59922C7.10078 2.69922 6.80078 2.49922 6.70078 2.19922C6.70078 1.89922 6.80078 1.59922 7.20078 1.49922C7.80078 1.39922 8.40078 1.29922 9.00078 1.29922ZM7.40078 6.09922C7.00078 6.49922 6.70078 7.09922 6.70078 7.69922C6.70078 8.89922 7.70078 9.99922 9.00078 9.99922C9.60078 9.99922 10.2008 9.79922 10.6008 9.39922L7.40078 6.09922ZM9.60078 4.89922C9.70078 4.59922 10.1008 4.49922 10.3008 4.59922C11.1008 4.89922 11.7008 5.59922 12.1008 6.39922C12.2008 6.69922 12.1008 6.99922 11.8008 7.09922C11.5008 7.19922 11.2008 7.09922 11.1008 6.79922C10.9008 6.29922 10.5008 5.89922 9.90078 5.59922C9.60078 5.49922 9.50078 5.19922 9.60078 4.89922Z" fill="#2688EB"/>
</g>
<defs>
<clipPath id="clip0_2612_65914">
<rect width="18" height="15" fill="white"/>
</clipPath>
</defs>
</svg>
