<svg width="16" height="17" viewBox="0 0 16 17" fill="none" xmlns="http://www.w3.org/2000/svg">
<path fill-rule="evenodd" clip-rule="evenodd" d="M15.2016 7.39961L8.90156 2.49961C8.70156 2.29961 8.20156 2.09961 8.00156 2.09961C7.20156 2.09961 6.40156 2.69961 6.40156 3.69961V5.59961H6.20156C4.30156 5.99961 2.90156 6.79961 2.00156 7.99961C0.701563 9.49961 0.101562 11.4996 0.101562 13.9996C0.101562 14.2996 0.301563 14.3996 0.501563 14.4996H0.601562C0.801563 14.4996 0.901562 14.3996 1.00156 14.1996C2.50156 12.2996 4.20156 11.2996 6.20156 11.0996H6.30156V13.4996C6.30156 14.3996 7.10156 14.9996 7.80156 14.9996C8.20156 14.9996 8.50156 14.8996 8.70156 14.6996L15.1016 9.79961C15.5016 9.49961 15.8016 9.09961 15.8016 8.59961C15.8016 8.09961 15.6016 7.69961 15.2016 7.39961ZM6.90156 9.89961C5.00156 9.89961 3.20156 10.5996 1.40156 11.9996L1.20156 12.1996L1.30156 11.7996C1.50156 10.6996 2.00156 9.39961 2.80156 8.69961C3.80156 7.59961 5.20156 6.89961 7.00156 6.49961C7.30156 6.49961 7.40156 6.19961 7.40156 5.99961V3.69961C7.40156 3.39961 7.60156 3.29961 7.80156 3.29961C7.90156 3.29961 8.00156 3.29961 8.10156 3.39961L14.4016 8.29961C14.5016 8.39961 14.6016 8.49961 14.6016 8.69961C14.6016 8.89961 14.6016 8.89961 14.5016 8.99961L8.20156 13.8996C8.10156 13.9996 8.00156 13.9996 7.90156 13.9996C7.80156 13.9996 7.70156 13.9996 7.60156 13.8996C7.50156 13.7996 7.40156 13.5996 7.40156 13.4996V10.4996C7.40156 10.1996 7.20156 9.89961 6.90156 9.89961Z" fill="#2688EB"/>
</svg>
