<svg width="21" height="20" viewBox="0 0 21 20" fill="none" xmlns="http://www.w3.org/2000/svg">
<g clip-path="url(#clip0_2612_65787)">
<path fill-rule="evenodd" clip-rule="evenodd" d="M0.800781 9.19922C0.800781 4.39922 5.20078 0.699219 10.5008 0.699219C15.8008 0.699219 20.2008 4.39922 20.2008 9.19922C20.2008 13.9992 15.8008 17.6992 10.5008 17.6992C9.70078 17.6992 9.00078 17.5992 8.20078 17.4992C7.00078 18.1992 5.40078 18.7992 3.40078 19.2992C3.10078 19.3992 2.90078 19.2992 2.60078 19.1992C2.00078 18.7992 2.00078 18.0992 2.30078 17.5992C2.70078 16.7992 3.10078 15.9992 3.40078 15.1992C1.80078 13.5992 0.800781 11.4992 0.800781 9.19922ZM10.5008 1.99922C5.80078 1.99922 2.10078 5.29922 2.10078 9.19922C2.10078 11.1992 3.10078 13.0992 4.70078 14.3992C4.90078 14.5992 5.00078 14.7992 4.90078 15.0992C4.70078 15.8992 4.20078 16.7992 3.70078 17.8992C5.50078 17.3992 6.90078 16.8992 7.80078 16.1992C8.00078 16.0992 8.10078 16.0992 8.30078 16.0992C9.00078 16.2992 9.80078 16.3992 10.6008 16.3992C15.3008 16.3992 19.0008 13.0992 19.0008 9.19922C18.9008 5.29922 15.2008 1.99922 10.5008 1.99922Z" fill="#818C99"/>
</g>
<defs>
<clipPath id="clip0_2612_65787">
<rect width="21" height="20" fill="white"/>
</clipPath>
</defs>
</svg>
