<svg width="24" height="24" viewBox="0 0 24 24" fill="none" xmlns="http://www.w3.org/2000/svg">
<path fill-rule="evenodd" clip-rule="evenodd" d="M7.71196 22.663C7.03935 22.3844 6.6008 21.728 6.6008 21V18.6C6.15677 18.5995 5.73822 18.5957 5.37834 18.5663C4.92686 18.5293 4.4117 18.4435 3.89747 18.1814C3.17493 17.8133 2.58748 17.2259 2.21932 16.5034C1.95731 15.989 1.87145 15.474 1.83456 15.0224C1.80069 14.6078 1.80074 14.1155 1.80078 13.5959C1.80096 11.7319 1.80096 9.86091 1.80078 8.00411C1.80074 7.48457 1.80069 6.99214 1.83456 6.57756C1.87145 6.12608 1.95731 5.61092 2.21932 5.09669C2.58748 4.37415 3.17493 3.7867 3.89747 3.41855C4.4117 3.15653 4.92686 3.07067 5.37834 3.03378C5.79292 2.99991 6.28535 2.99996 6.80489 3C10.2688 3.00033 13.7327 3 17.1967 3C17.7163 2.99996 18.2086 2.99991 18.6232 3.03378C19.0747 3.07067 19.5898 3.15653 20.1041 3.41855C20.8267 3.7867 21.4141 4.37415 21.7822 5.09669C22.0443 5.61092 22.1301 6.12608 22.1671 6.57756C22.2009 6.99214 22.2009 7.48457 22.2008 8.00412V13.5959C22.2009 14.1155 22.2009 14.6078 22.1671 15.0224C22.1301 15.474 22.0443 15.989 21.7822 16.5034C21.4141 17.2259 20.8267 17.8133 20.1041 18.1814C19.5898 18.4435 19.0747 18.5293 18.6232 18.5663C18.2086 18.6001 17.7163 18.6001 17.1967 18.6H13.396C13.3609 18.6 13.3361 18.6102 13.3112 18.6352L9.67359 22.2728C9.15879 22.7876 8.38457 22.9416 7.71196 22.663ZM8.4008 18.144C8.4008 17.6736 8.4008 17.4384 8.30924 17.2586C8.2287 17.1006 8.1002 16.9721 7.94215 16.8916C7.76246 16.8 7.52723 16.8 7.0568 16.8H6.8648C5.72229 16.8 5.15103 16.8 4.71465 16.5776C4.33081 16.382 4.01872 16.07 3.82313 15.6862C3.6008 15.2497 3.6008 14.6785 3.6008 13.536V8.06401C3.6008 6.92151 3.6008 6.35025 3.82313 5.91387C4.01872 5.53002 4.33081 5.21794 4.71465 5.02236C5.15103 4.80002 5.72229 4.80002 6.8648 4.80002H17.1368C18.2793 4.80002 18.8505 4.80002 19.2869 5.02236C19.6708 5.21794 19.9828 5.53002 20.1784 5.91387C20.4008 6.35025 20.4008 6.92151 20.4008 8.06401V13.536C20.4008 14.6785 20.4008 15.2497 20.1784 15.6862C19.9828 16.07 19.6708 16.382 19.2869 16.5776C18.8505 16.8 18.2793 16.8 17.1368 16.8H13.396C13.1026 16.8 12.9559 16.8 12.8177 16.8331C12.6952 16.8625 12.5782 16.911 12.4708 16.9769C12.3497 17.051 12.2459 17.1548 12.0385 17.3623L8.4008 21V18.144Z" fill="white"/>
</svg>
