<svg width="25" height="23" viewBox="0 0 25 23" fill="none" xmlns="http://www.w3.org/2000/svg">
<g clip-path="url(#clip0_2612_66225)">
<path d="M8.66 0.460938C7.33437 0.460938 6.26 1.53532 6.26 2.86094C6.26 4.18657 7.33437 5.26094 8.66 5.26094C9.98563 5.26094 11.06 4.18657 11.06 2.86094C11.06 1.53532 9.98563 0.460938 8.66 0.460938ZM16.25 0.460938C14.9244 0.460938 13.85 1.53532 13.85 2.86094C13.85 4.18657 14.9244 5.26094 16.25 5.26094C17.5756 5.26094 18.65 4.18657 18.65 2.86094C18.65 1.53532 17.5756 0.460938 16.25 0.460938ZM8.66 5.74094C8.12563 5.74094 7.63062 5.86469 7.19 6.08594C8.09 6.78907 8.675 7.88782 8.675 9.11594C8.675 10.3178 8.11812 11.3959 7.25 12.1009C7.94937 12.4646 8.56063 12.969 9.035 13.6009C8.80625 13.1096 8.675 12.5715 8.675 11.9959C8.675 10.089 10.0756 8.49719 11.9 8.20094C11.5138 6.77219 10.2219 5.74094 8.66 5.74094ZM16.25 5.74094C14.6956 5.74094 13.4019 6.76469 13.01 8.18594C14.8906 8.43344 16.355 10.0478 16.355 11.9959C16.355 12.534 16.2406 13.0459 16.04 13.5109C16.5087 12.9184 17.0956 12.4309 17.765 12.0859C16.9025 11.3809 16.355 10.314 16.355 9.11594C16.355 7.91032 16.9081 6.83594 17.78 6.13094C17.3206 5.88532 16.8125 5.74094 16.25 5.74094ZM4.835 6.23594C3.245 6.23594 1.955 7.52594 1.955 9.11594C1.955 10.7059 3.245 11.9959 4.835 11.9959C6.425 11.9959 7.715 10.7059 7.715 9.11594C7.715 7.52594 6.425 6.23594 4.835 6.23594ZM20.195 6.23594C18.605 6.23594 17.315 7.52594 17.315 9.11594C17.315 10.7059 18.605 11.9959 20.195 11.9959C21.785 11.9959 23.075 10.7059 23.075 9.11594C23.075 7.52594 21.785 6.23594 20.195 6.23594ZM12.515 9.11594C10.925 9.11594 9.635 10.4059 9.635 11.9959C9.635 13.5859 10.925 14.8759 12.515 14.8759C14.105 14.8759 15.395 13.5859 15.395 11.9959C15.395 10.4059 14.105 9.11594 12.515 9.11594ZM4.82 12.4609C2.43875 12.4609 0.5 14.3978 0.5 16.7809V18.4609C0.5 18.6109 0.573125 18.7609 0.695 18.8509C0.805625 18.9353 1.865 19.6609 4.82 19.6609C5.84375 19.6609 6.64062 19.569 7.25 19.4509C7.31187 17.9753 7.97187 16.6534 9.005 15.7309C8.53625 13.8521 6.84125 12.4609 4.82 12.4609ZM20.18 12.4609C18.1663 12.4609 16.4712 13.8465 15.995 15.7159C17.0431 16.6403 17.72 17.9771 17.78 19.4659C18.3856 19.5821 19.1712 19.6609 20.18 19.6609C23.135 19.6609 24.1944 18.9353 24.305 18.8509C24.4269 18.7609 24.5 18.6128 24.5 18.4609V16.7809C24.5 14.3978 22.5631 12.4609 20.18 12.4609ZM12.515 15.3559C10.1337 15.3559 8.195 17.2928 8.195 19.6759V21.3559C8.195 21.5078 8.26813 21.6409 8.39 21.7309C8.50062 21.8153 9.56 22.5559 12.515 22.5559C15.47 22.5559 16.5294 21.8153 16.64 21.7309C16.7619 21.6409 16.835 21.5059 16.835 21.3559V19.6759C16.835 17.2928 14.8981 15.3559 12.515 15.3559Z" fill="black"/>
</g>
<defs>
<clipPath id="clip0_2612_66225">
<rect width="25" height="23" fill="white"/>
</clipPath>
</defs>
</svg>
