<svg width="12" height="12" viewBox="0 0 12 12" fill="none" xmlns="http://www.w3.org/2000/svg">
<g clip-path="url(#clip0_2612_66022)">
<path d="M8.80078 0.300781C9.00078 0.300781 9.20078 0.500781 9.20078 0.700781V1.00078C9.70078 1.00078 10.0008 1.10078 10.2008 1.30078C10.5008 1.40078 10.8008 1.70078 11.0008 2.00078C11.2008 2.30078 11.3008 2.70078 11.3008 3.60078V8.70078C11.3008 9.60078 11.2008 10.0008 11.0008 10.3008C10.8008 10.6008 10.5008 10.9008 10.2008 11.1008C9.90078 11.3008 9.50078 11.4008 8.60078 11.4008H3.40078C2.50078 11.4008 2.10078 11.3008 1.80078 11.1008C1.50078 11.0008 1.20078 10.7008 1.00078 10.4008C0.900781 10.0008 0.800781 9.70078 0.800781 8.80078V3.70078C0.800781 2.70078 0.900781 2.40078 1.00078 2.00078C1.10078 1.60078 1.50078 1.40078 1.80078 1.20078C2.10078 1.10078 2.30078 1.00078 2.90078 1.00078V0.700781C2.90078 0.500781 3.10078 0.300781 3.30078 0.300781C3.50078 0.300781 3.70078 0.500781 3.70078 0.700781V1.00078H8.40078V0.700781C8.40078 0.500781 8.50078 0.300781 8.80078 0.300781ZM10.5008 4.40078H1.50078V8.90078C1.50078 9.60078 1.60078 9.80078 1.70078 10.1008C1.80078 10.3008 2.00078 10.5008 2.20078 10.6008C2.50078 10.7008 2.70078 10.8008 3.40078 10.8008H8.50078C9.20078 10.8008 9.50078 10.8008 9.70078 10.6008C9.90078 10.5008 10.1008 10.3008 10.2008 10.1008C10.3008 9.80078 10.4008 9.60078 10.4008 8.90078V4.40078H10.5008ZM3.60078 8.30078C3.70078 8.30078 3.80078 8.30078 3.80078 8.30078L3.90078 8.40078C3.90078 8.40078 3.90078 8.50078 3.90078 8.60078V9.00078C3.90078 9.10078 3.90078 9.20078 3.90078 9.20078L3.80078 9.30078C3.80078 9.30078 3.70078 9.30078 3.60078 9.30078H3.20078C3.10078 9.30078 3.00078 9.30078 3.00078 9.30078L2.90078 9.20078C2.90078 9.20078 2.90078 9.10078 2.90078 9.00078V8.60078C2.90078 8.50078 2.90078 8.40078 2.90078 8.40078L3.00078 8.30078C3.00078 8.30078 3.10078 8.30078 3.20078 8.30078H3.60078ZM8.80078 8.30078C8.90078 8.30078 9.00078 8.30078 9.00078 8.30078L9.10078 8.40078C9.10078 8.40078 9.10078 8.50078 9.10078 8.60078V9.00078C9.10078 9.10078 9.10078 9.20078 9.10078 9.20078L9.00078 9.30078C9.00078 9.30078 8.90078 9.30078 8.80078 9.30078H5.80078C5.70078 9.30078 5.60078 9.30078 5.60078 9.30078L5.50078 9.20078C5.50078 9.20078 5.50078 9.10078 5.50078 9.00078V8.60078C5.50078 8.50078 5.50078 8.40078 5.50078 8.40078L5.60078 8.30078C5.60078 8.30078 5.70078 8.30078 5.80078 8.30078H8.80078ZM6.20078 5.70078C6.30078 5.70078 6.40078 5.70078 6.40078 5.70078L6.50078 5.80078C6.50078 5.80078 6.50078 5.90078 6.50078 6.00078V6.40078C6.50078 6.50078 6.50078 6.60078 6.50078 6.60078L6.40078 6.70078C6.40078 6.70078 6.30078 6.70078 6.20078 6.70078H3.20078C3.10078 6.70078 3.00078 6.70078 3.00078 6.70078L2.90078 6.60078C2.90078 6.60078 2.90078 6.50078 2.90078 6.40078V6.00078C2.90078 5.90078 2.90078 5.80078 2.90078 5.80078L3.00078 5.70078C3.00078 5.70078 3.10078 5.70078 3.20078 5.70078H6.20078ZM8.80078 5.70078C8.90078 5.70078 9.00078 5.70078 9.00078 5.70078L9.10078 5.80078C9.10078 5.80078 9.10078 5.90078 9.10078 6.00078V6.40078C9.10078 6.50078 9.10078 6.60078 9.10078 6.60078L9.00078 6.70078C9.00078 6.70078 8.90078 6.70078 8.80078 6.70078H8.40078C8.30078 6.70078 8.20078 6.70078 8.20078 6.70078L8.10078 6.60078C8.10078 6.60078 8.10078 6.50078 8.10078 6.40078V6.00078C8.10078 5.90078 8.10078 5.80078 8.10078 5.80078L8.20078 5.70078C8.20078 5.70078 8.30078 5.70078 8.40078 5.70078H8.80078ZM8.40078 1.80078H3.60078V1.90078C3.60078 2.10078 3.40078 2.30078 3.20078 2.30078C3.00078 2.30078 2.90078 2.10078 2.90078 1.90078V1.80078C2.60078 1.80078 2.40078 1.90078 2.20078 2.00078C2.00078 2.10078 1.80078 2.20078 1.70078 2.40078C1.60078 2.70078 1.60078 2.90078 1.50078 3.60078H10.4008C10.4008 2.90078 10.3008 2.70078 10.2008 2.40078C10.2008 2.20078 10.0008 2.10078 9.80078 1.90078C9.60078 1.80078 9.50078 1.80078 9.10078 1.80078V1.90078C9.10078 2.10078 8.90078 2.30078 8.70078 2.30078C8.50078 2.30078 8.30078 2.10078 8.30078 1.90078V1.80078H8.40078Z" fill="#2688EB"/>
</g>
<defs>
<clipPath id="clip0_2612_66022">
<rect width="12" height="12" fill="white"/>
</clipPath>
</defs>
</svg>
