<svg width="10" height="11" viewBox="0 0 10 11" fill="none" xmlns="http://www.w3.org/2000/svg">
<g clip-path="url(#clip0_2612_65908)">
<path fill-rule="evenodd" clip-rule="evenodd" d="M2.90156 6.29961L3.40156 6.69961C3.50156 6.69961 3.50156 6.79961 3.50156 6.89961L4.00156 9.39961C4.20156 10.1996 5.00156 10.5996 5.70156 10.2996C6.20156 10.0996 6.50156 9.69961 6.50156 9.09961V7.49961H6.80156C7.70156 7.49961 8.40156 7.19961 9.00156 6.69961C9.50156 6.19961 9.80156 5.39961 9.80156 4.49961V4.09961C9.80156 3.19961 9.50156 2.39961 9.00156 1.89961C8.60156 1.39961 7.80156 0.999609 6.90156 0.999609H2.90156C2.80156 0.899609 2.60156 0.699609 2.50156 0.699609C2.30156 0.599609 2.20156 0.599609 2.10156 0.599609C2.00156 0.599609 1.80156 0.599609 1.70156 0.599609C1.50156 0.599609 1.40156 0.599609 1.30156 0.599609C1.20156 0.599609 1.00156 0.599609 0.901562 0.699609C0.501562 0.799609 0.301563 0.999609 0.201563 1.29961C0.101562 1.39961 0.101562 1.49961 0.101562 1.69961C0.101562 1.79961 0.101562 1.99961 0.101562 2.09961V5.19961C0.101562 5.39961 0.101562 5.49961 0.101562 5.59961C0.101562 5.69961 0.101562 5.89961 0.201563 5.99961C0.301563 6.29961 0.501562 6.49961 0.801562 6.59961C0.901562 6.69961 1.00156 6.69961 1.20156 6.69961C1.30156 6.69961 1.50156 6.69961 1.60156 6.69961C1.80156 6.69961 1.90156 6.69961 2.00156 6.69961C2.10156 6.69961 2.30156 6.69961 2.40156 6.59961C2.60156 6.59961 2.80156 6.39961 2.90156 6.29961ZM4.70156 9.29961C4.80156 9.69961 5.10156 9.89961 5.50156 9.79961H5.60156C5.80156 9.69961 6.00156 9.39961 6.00156 9.19961V7.19961C6.00156 6.99961 6.10156 6.89961 6.30156 6.89961H6.90156C7.70156 6.89961 8.30156 6.69961 8.70156 6.29961C9.10156 5.89961 9.30156 5.29961 9.30156 4.49961V4.09961C9.30156 3.29961 9.10156 2.69961 8.70156 2.29961C8.30156 1.89961 7.70156 1.59961 7.00156 1.59961H3.10156C3.10156 1.59961 3.10156 1.59961 3.10156 1.69961C3.10156 1.79961 3.10156 1.99961 3.10156 2.09961V5.19961C3.10156 5.39961 3.10156 5.49961 3.10156 5.59961L3.80156 6.09961C4.00156 6.29961 4.10156 6.49961 4.20156 6.69961L4.70156 9.29961ZM1.60156 6.09961C1.80156 6.09961 1.90156 6.09961 2.00156 6.09961C2.10156 6.09961 2.20156 6.09961 2.20156 6.09961C2.30156 5.99961 2.40156 5.89961 2.50156 5.79961C2.50156 5.79961 2.50156 5.69961 2.50156 5.59961C2.50156 5.49961 2.50156 5.39961 2.50156 5.19961V2.09961C2.50156 1.89961 2.50156 1.79961 2.50156 1.69961C2.50156 1.59961 2.50156 1.49961 2.50156 1.49961C2.40156 1.39961 2.30156 1.29961 2.20156 1.19961C2.20156 1.19961 2.10156 1.19961 2.00156 1.19961C1.90156 1.19961 1.80156 1.19961 1.60156 1.19961C1.40156 1.19961 1.30156 1.19961 1.20156 1.19961C1.10156 1.19961 1.00156 1.19961 1.00156 1.19961C0.901562 1.29961 0.801562 1.39961 0.701562 1.49961C0.701562 1.49961 0.701562 1.59961 0.701562 1.69961C0.701562 1.79961 0.701562 1.89961 0.701562 2.09961V5.19961C0.701562 5.39961 0.701562 5.49961 0.701562 5.59961C0.701562 5.69961 0.701562 5.79961 0.701562 5.79961C0.801562 5.89961 0.901562 5.99961 1.00156 6.09961C1.00156 6.09961 1.10156 6.09961 1.20156 6.09961C1.30156 6.09961 1.40156 6.09961 1.60156 6.09961Z" fill="#2688EB"/>
</g>
<defs>
<clipPath id="clip0_2612_65908">
<rect width="10" height="11" fill="white"/>
</clipPath>
</defs>
</svg>
