<svg width="48" height="48" viewBox="0 0 48 48" fill="none" xmlns="http://www.w3.org/2000/svg">
<path d="M39 11V23C39 26.314 36.314 29 33 29H10.5C7.462 29 5 31.462 5 34.5C5 37.538 7.462 40 10.5 40H39" stroke="#1A7ECF" stroke-width="2" stroke-linecap="round" stroke-linejoin="round"/>
<path d="M43 8C43 10.209 41.209 12 39 12C36.791 12 35 10.209 35 8C35 5.791 36.791 4 39 4C41.209 4 43 5.791 43 8Z" fill="#AF2BF1"/>
<path d="M43 40C43 42.209 41.209 44 39 44C36.791 44 35 42.209 35 40C35 37.791 36.791 36 39 36C41.209 36 43 37.791 43 40Z" fill="#AF2BF1"/>
<path fill-rule="evenodd" clip-rule="evenodd" d="M29 15C29 17.98 27.81 20.68 25.885 22.66C25.874 22.672 18.863 29.687 18.863 29.687C18.386 30.164 17.612 30.164 17.135 29.687L10.115 22.66C8.19 20.68 7 17.98 7 15C7 8.925 11.925 4 18 4C24.075 4 29 8.925 29 15ZM22.3996 15.0001C22.3996 17.4302 20.4297 19.4001 17.9996 19.4001C15.5696 19.4001 13.5996 17.4302 13.5996 15.0001C13.5996 12.57 15.5696 10.6001 17.9996 10.6001C20.4297 10.6001 22.3996 12.57 22.3996 15.0001Z" fill="#D43A02"/>
</svg>
