<svg width="24" height="24" viewBox="0 0 24 24" fill="none" xmlns="http://www.w3.org/2000/svg">
<path d="M13.1016 0.799219C13.5016 0.899219 13.8016 0.999219 14.1016 1.19922C14.4016 1.39922 14.6016 1.59922 15.1016 1.99922L19.9016 6.79922C20.4016 7.29922 20.6016 7.59922 20.8016 7.89922C21.0016 8.19922 21.1016 8.49922 21.2016 8.89922C21.3016 9.29922 21.3016 9.59922 21.3016 10.2992V16.9992C21.3016 18.8992 21.1016 19.6992 20.6016 20.6992C20.2016 21.4992 19.5016 22.1992 18.7016 22.5992C17.8016 23.0992 16.9016 23.2992 15.0016 23.2992H8.90156C7.00156 23.2992 6.20156 23.0992 5.20156 22.5992C4.40156 22.1992 3.70156 21.4992 3.30156 20.6992C2.80156 19.7992 2.60156 18.8992 2.60156 16.9992V6.29922C2.60156 5.09922 2.80156 4.09922 3.30156 3.29922C3.70156 2.49922 4.40156 1.79922 5.20156 1.39922C6.00156 0.999219 7.00156 0.699219 8.20156 0.699219H11.6016C12.4016 0.699219 12.7016 0.799219 13.1016 0.799219ZM11.8016 2.19922H8.30156C7.30156 2.19922 6.60156 2.39922 6.00156 2.69922C5.30156 2.99922 4.90156 3.39922 4.60156 3.99922C4.20156 4.59922 4.10156 5.29922 4.10156 6.29922V16.9992C4.10156 18.5992 4.20156 19.2992 4.60156 19.9992C4.90156 20.5992 5.40156 20.9992 5.90156 21.2992C6.60156 21.6992 7.20156 21.7992 8.90156 21.7992H15.1016C16.7016 21.7992 17.4016 21.6992 18.1016 21.2992C18.7016 20.9992 19.1016 20.4992 19.4016 19.9992C19.8016 19.2992 19.9016 18.6992 19.9016 16.9992V10.3992C19.9016 10.0992 19.9016 9.89922 19.9016 9.79922C19.8016 9.79922 19.8016 9.79922 19.7016 9.79922H14.4016C13.2016 9.79922 12.2016 8.79922 12.2016 7.59922V2.39922C12.2016 2.29922 12.2016 2.19922 12.2016 2.19922C12.1016 2.19922 12.0016 2.19922 11.8016 2.19922ZM13.7016 2.69922V7.69922C13.7016 8.09922 14.0016 8.39922 14.4016 8.39922H19.4016C19.3016 8.29922 19.1016 8.09922 18.9016 7.89922L14.2016 3.19922C14.0016 2.99922 13.8016 2.79922 13.7016 2.69922Z" fill="#2688EB"/>
</svg>
