<svg width="24" height="24" viewBox="0 0 24 24" fill="none" xmlns="http://www.w3.org/2000/svg">
<g clip-path="url(#clip0_2612_66020)">
<path fill-rule="evenodd" clip-rule="evenodd" d="M16.1992 0.699219H8.09922C6.59922 0.699219 5.09922 0.799219 3.79922 1.49922C2.69922 1.99922 1.89922 2.89922 1.39922 3.89922C0.899219 4.89922 0.699219 5.89922 0.699219 7.79922V15.8992C0.699219 17.3992 0.799219 18.8992 1.49922 20.1992C1.99922 21.1992 2.79922 21.8992 3.79922 22.4992C5.09922 23.1992 6.59922 23.2992 8.09922 23.2992H15.9992C17.4992 23.2992 18.9992 23.1992 20.2992 22.4992C21.2992 21.9992 21.9992 21.1992 22.5992 20.1992C23.2992 18.8992 23.3992 17.3992 23.3992 15.8992V8.09922C23.3992 6.59922 23.2992 5.09922 22.5992 3.79922C22.0992 2.79922 21.2992 2.09922 20.2992 1.49922C18.9992 0.799219 17.5992 0.699219 16.1992 0.699219ZM2.19922 15.8992V8.39922C2.19922 8.19922 2.19922 8.09922 2.19922 7.89922C2.19922 6.69922 2.19922 5.49922 2.79922 4.39922C3.19922 3.69922 3.69922 3.09922 4.39922 2.79922C5.49922 2.29922 6.79922 2.19922 7.99922 2.19922H8.09922H15.9992C17.9992 2.19922 18.7992 2.39922 19.5992 2.79922C20.2992 3.19922 20.8992 3.69922 21.1992 4.39922C21.7992 5.49922 21.7992 6.69922 21.7992 7.89922C21.7992 8.09922 21.7992 8.19922 21.7992 8.39922V15.8992C21.7992 17.0992 21.7992 18.3992 21.1992 19.4992C20.7992 20.1992 20.2992 20.7992 19.5992 21.0992C18.4992 21.6992 17.2992 21.6992 16.0992 21.6992H7.99922C6.79922 21.6992 5.49922 21.6992 4.49922 21.0992C3.79922 20.6992 3.19922 20.1992 2.89922 19.4992C2.29922 18.4992 2.19922 17.1992 2.19922 15.8992ZM6.59922 6.29922C6.19922 6.29922 5.79922 6.59922 5.79922 7.09922C5.79922 7.49922 6.09922 7.89922 6.59922 7.89922H17.3992C17.7992 7.89922 18.1992 7.59922 18.1992 7.09922C18.1992 6.69922 17.8992 6.29922 17.3992 6.29922H6.59922ZM5.79922 11.9992C5.79922 11.5992 6.09922 11.1992 6.59922 11.1992H17.3992C17.7992 11.1992 18.1992 11.4992 18.1992 11.9992C18.1992 12.4992 17.8992 12.7992 17.3992 12.7992H6.59922C6.19922 12.7992 5.79922 12.3992 5.79922 11.9992ZM6.59922 16.0992C6.19922 16.0992 5.79922 16.3992 5.79922 16.8992C5.79922 17.3992 6.09922 17.6992 6.59922 17.6992H11.1992C11.5992 17.6992 11.9992 17.3992 11.9992 16.8992C11.9992 16.3992 11.6992 16.0992 11.1992 16.0992H6.59922Z" fill="#2688EB"/>
</g>
<defs>
<clipPath id="clip0_2612_66020">
<rect width="24" height="24" fill="white"/>
</clipPath>
</defs>
</svg>
