<svg width="24" height="24" viewBox="0 0 24 24" fill="none" xmlns="http://www.w3.org/2000/svg">
<path fill-rule="evenodd" clip-rule="evenodd" d="M12.473 2C12.773 2 13.059 2 13.339 2.066C13.584 2.12497 13.8182 2.22216 14.033 2.354C14.278 2.504 14.48 2.707 14.692 2.919L19.081 7.309C19.293 7.519 19.496 7.722 19.646 7.967C19.7778 8.18178 19.875 8.41598 19.934 8.661C20.001 8.941 20 9.227 20 9.527V13.097C20 13.3357 19.9052 13.5646 19.7364 13.7334C19.5676 13.9022 19.3387 13.997 19.1 13.997C18.8613 13.997 18.6324 13.9022 18.4636 13.7334C18.2948 13.5646 18.2 13.3357 18.2 13.097V10H16.065C15.535 10 15.083 10 14.713 9.97C14.324 9.938 13.945 9.868 13.583 9.684C13.0375 9.406 12.594 8.96249 12.316 8.417C12.132 8.055 12.062 7.677 12.03 7.287C12 6.917 12 6.465 12 5.935V3.8H10.5C9.505 3.8 8.813 3.8 8.274 3.845C7.747 3.888 7.446 3.968 7.22 4.083C6.73038 4.33234 6.33234 4.73038 6.083 5.22C5.968 5.446 5.888 5.747 5.845 6.275C5.8 6.813 5.8 7.505 5.8 8.5V15.5C5.8 16.495 5.8 17.187 5.845 17.726C5.888 18.253 5.968 18.554 6.083 18.78C6.33234 19.2696 6.73038 19.6677 7.22 19.917C7.446 20.032 7.747 20.112 8.274 20.155C8.813 20.199 9.505 20.2 10.5 20.2H11.1C11.3387 20.2 11.5676 20.2948 11.7364 20.4636C11.9052 20.6324 12 20.8613 12 21.1C12 21.3387 11.9052 21.5676 11.7364 21.7364C11.5676 21.9052 11.3387 22 11.1 22H10.462C9.514 22 8.748 22 8.128 21.95C7.488 21.897 6.925 21.787 6.402 21.52C5.57454 21.0982 4.90176 20.4255 4.48 19.598C4.213 19.075 4.103 18.511 4.05 17.872C4 17.252 4 16.486 4 15.538V8.462C4 7.514 4 6.748 4.05 6.128C4.103 5.488 4.213 4.925 4.48 4.402C4.90176 3.57454 5.57454 2.90176 6.402 2.48C6.925 2.213 7.489 2.103 8.128 2.05C8.748 2 9.514 2 10.462 2H12.473ZM15.613 6.386L17.428 8.2H16.1C15.525 8.2 15.148 8.2 14.86 8.176C14.582 8.153 14.467 8.114 14.4 8.08C14.1934 7.9746 14.0254 7.8066 13.92 7.6C13.886 7.534 13.847 7.418 13.824 7.14C13.8013 6.72708 13.7933 6.31349 13.8 5.9V4.573L15.614 6.386H15.613ZM17.904 15.904C17.904 15.6653 17.8092 15.4364 17.6404 15.2676C17.4716 15.0988 17.2427 15.004 17.004 15.004C16.7653 15.004 16.5364 15.0988 16.3676 15.2676C16.1988 15.4364 16.104 15.6653 16.104 15.904V18.104H13.904C13.7858 18.104 13.6688 18.1273 13.5596 18.1725C13.4504 18.2177 13.3512 18.284 13.2676 18.3676C13.184 18.4512 13.1177 18.5504 13.0725 18.6596C13.0273 18.7688 13.004 18.8858 13.004 19.004C13.004 19.1222 13.0273 19.2392 13.0725 19.3484C13.1177 19.4576 13.184 19.5568 13.2676 19.6404C13.3512 19.724 13.4504 19.7903 13.5596 19.8355C13.6688 19.8807 13.7858 19.904 13.904 19.904H16.104V22.104C16.104 22.3427 16.1988 22.5716 16.3676 22.7404C16.5364 22.9092 16.7653 23.004 17.004 23.004C17.2427 23.004 17.4716 22.9092 17.6404 22.7404C17.8092 22.5716 17.904 22.3427 17.904 22.104V19.904H20.104C20.3427 19.904 20.5716 19.8092 20.7404 19.6404C20.9092 19.4716 21.004 19.2427 21.004 19.004C21.004 18.7653 20.9092 18.5364 20.7404 18.3676C20.5716 18.1988 20.3427 18.104 20.104 18.104H17.904V15.904Z" fill="#818C99"/>
</svg>
