<svg width="32" height="32" viewBox="0 0 32 32" fill="none" xmlns="http://www.w3.org/2000/svg">
<path d="M10.7 2.30039H20.2C20.4 2.30039 20.6 2.30039 20.8 2.30039V4.40039C20.5 4.40039 20.2 4.40039 19.9 4.40039H10.7H10.2C7.9 4.40039 6.9 4.60039 5.9 5.20039C5 5.60039 4.2 6.40039 3.7 7.30039C3.2 8.40039 3 9.40039 2.9 11.8004V21.5004C3 24.0004 3.2 25.0004 3.7 26.1004C4.2 27.0004 5 27.8004 5.9 28.3004C6.9 28.9004 7.9 29.1004 10.2 29.1004H10.7H19.9H20.4C22.7 29.1004 23.7 28.9004 24.7 28.3004C25.6 27.8004 26.4 27.1004 26.9 26.1004C27.5 25.0004 27.7 24.0004 27.7 21.6004V11.9004C27.7 11.7004 27.7 11.5004 27.7 11.3004H29.8C29.8 11.5004 29.8 11.7004 29.8 11.9004V21.7004C29.8 24.5004 29.5 25.8004 28.8 27.2004C28.1 28.5004 27.1 29.5004 25.8 30.2004C24.5 30.9004 23.2 31.2004 20.6 31.2004H20H10.8H10.2C7.6 31.2004 6.3 30.9004 5 30.2004C3.7 29.5004 2.7 28.5004 2 27.2004C1.3 25.8004 1 24.5004 1 21.7004V11.9004C1 9.10039 1.3 7.80039 2 6.40039C2.7 5.10039 3.7 4.10039 5 3.40039C6.3 2.70039 7.6 2.40039 10.2 2.40039L10.7 2.30039ZM27.9 4.10039C28.4 4.60039 28.4 5.30039 27.9 5.80039L15.5 18.2004C15.2 18.5004 14.9 18.8004 14.6 19.1004C14.3 19.4004 14 19.6004 13.6 19.8004C13.3 20.0004 12.9 20.2004 12.5 20.4004L12.3 20.5004C12 20.6004 11.7 20.5004 11.6 20.3004C11.5 20.1004 11.5 20.0004 11.6 19.8004L11.7 19.6004C11.9 19.2004 12.1 18.8004 12.3 18.5004C12.5 18.2004 12.8 17.8004 13 17.5004C13.3 17.2004 13.5 16.9004 13.9 16.6004L26.2 4.10039C26.7 3.60039 27.5 3.60039 27.9 4.10039ZM28.7 9.80039C29.3 9.80039 29.7 10.3004 29.7 10.8004V11.1004H27.6V10.8004C27.7 10.3004 28.1 9.80039 28.7 9.80039ZM21.2 2.30039C21.8 2.30039 22.2 2.80039 22.2 3.30039C22.2 3.80039 21.7 4.30039 21.2 4.30039H20.9V2.30039H21.2ZM29.7 0.900391C30.5 0.900391 31.1 1.50039 31.1 2.30039C31.1 3.10039 30.5 3.70039 29.7 3.70039C28.9 3.70039 28.4 3.00039 28.4 2.30039C28.4 1.60039 29 0.900391 29.7 0.900391Z" fill="#2688EB"/>
</svg>
