<svg width="100" height="100" viewBox="0 0 100 100" fill="none" xmlns="http://www.w3.org/2000/svg">
<path fill-rule="evenodd" clip-rule="evenodd" d="M46.1008 6.90078C48.5008 5.60078 51.4008 5.60078 53.8008 6.90078L94.0008 28.9008C96.6008 30.3008 98.2008 33.0008 98.2008 35.9008V66.0008C98.2008 68.2008 96.4008 70.0008 94.2008 70.0008C92.0008 70.0008 90.2008 68.2008 90.2008 66.0008V45.1008L82.2008 49.5008V62.2008C82.2008 63.9008 82.2008 64.9008 82.1008 65.9008C81.1008 81.0008 69.0008 93.2008 53.8008 94.1008C52.5008 94.2008 51.2008 94.2008 50.0008 94.2008C48.7008 94.2008 47.4008 94.2008 46.2008 94.1008C31.0008 93.2008 18.9008 81.0008 18.0008 65.9008C17.9008 64.7008 17.9008 63.5008 17.9008 62.2008V49.5008L6.00078 43.0008C0.400781 40.0008 0.400781 32.0008 6.00078 28.9008L46.1008 6.90078ZM25.9008 53.9008V62.0008C25.9008 63.9008 25.9008 64.7008 25.9008 65.3008C26.6008 76.4008 35.5008 85.3008 46.6008 86.0008C47.2008 86.0008 48.0008 86.0008 49.9008 86.0008C51.8008 86.0008 52.6008 86.0008 53.2008 86.0008C64.3008 85.3008 73.2008 76.4008 73.9008 65.3008C73.9008 64.7008 73.9008 63.9008 73.9008 62.0008V53.9008L53.9008 65.0008C51.5008 66.3008 48.6008 66.3008 46.2008 65.0008L25.9008 53.9008ZM50.0008 13.9008L9.90078 35.9008L50.0008 58.0008L90.1008 35.9008L50.0008 13.9008Z" fill="#2688EB"/>
</svg>
