<svg width="15" height="16" viewBox="0 0 15 16" fill="none" xmlns="http://www.w3.org/2000/svg">
<path fill-rule="evenodd" clip-rule="evenodd" d="M4.8 1.80078C3.2 1.80078 2.6 1.90078 1.9 2.30078C1.3 2.60078 0.8 3.10078 0.5 3.70078C0.1 4.30078 0 5.00078 0 6.60078V9.50078C0 11.1008 0.1 11.7008 0.5 12.4008C0.8 13.0008 1.3 13.5008 1.9 13.8008C2.6 14.2008 3.2 14.3008 4.8 14.3008H10.2C11.8 14.3008 12.4 14.2008 13.1 13.8008C13.7 13.5008 14.2 13.0008 14.5 12.4008C14.9 11.7008 15 11.0008 15 9.40078V6.60078C15 5.00078 14.9 4.40078 14.5 3.70078C14.2 3.10078 13.7 2.60078 13.1 2.30078C12.4 1.90078 11.8 1.80078 10.2 1.80078H4.8ZM2.4 3.10078C2.9 2.90078 3.3 2.70078 4.8 2.70078H10.2C11.7 2.70078 12.2 2.80078 12.6 3.10078C12.7 3.10078 12.8 3.20078 12.8 3.20078L9.8 6.30078C9.2 6.90078 8.7 7.30078 8.4 7.60078C8 7.90078 7.7 8.00078 7.5 8.00078C7.3 8.00078 7 7.90078 6.6 7.60078C6.3 7.30078 5.8 6.90078 5.2 6.30078L2.1 3.20078C2.2 3.20078 2.3 3.10078 2.4 3.10078ZM1.5 3.90078C1.4 4.00078 1.4 4.00078 1.3 4.10078C1.1 4.60078 0.9 5.00078 0.9 6.60078V9.50078C0.9 11.0008 1 11.5008 1.3 11.9008C1.5 12.3008 1.9 12.7008 2.3 12.9008C2.8 13.1008 3.2 13.3008 4.7 13.3008H10.1C11.6 13.3008 12.1 13.2008 12.5 12.9008C12.9 12.7008 13.3 12.3008 13.5 11.9008C13.7 11.4008 13.9 11.0008 13.9 9.50078V6.60078C13.9 5.10078 13.8 4.60078 13.5 4.20078C13.5 4.10078 13.4 4.00078 13.4 4.00078L10.3 7.10078C9.9 7.60078 9.4 8.00078 8.9 8.40078C8.5 8.70078 8 8.90078 7.5 8.90078C7 8.90078 6.5 8.70078 6.1 8.30078C5.6 8.00078 5.1 7.60078 4.5 7.00078C4.5 6.90078 1.5 3.90078 1.5 3.90078Z" fill="#2688EB"/>
</svg>
