<svg width="16" height="16" viewBox="0 0 16 16" fill="none" xmlns="http://www.w3.org/2000/svg">
<path d="M6.2491 1.23047C4.82985 1.59657 3.58491 2.39107 2.66406 3.47502L6.2491 5.66672V1.23047Z" fill="#3F51B5"/>
<path d="M2.61328 12.468C3.53867 13.5828 4.80602 14.3983 6.25152 14.7714V10.2441L2.61328 12.468Z" fill="#3F51B5"/>
<path d="M1.23047 9.75C1.23502 9.7682 1.23957 9.78605 1.24447 9.80425L1.33267 9.75H1.23047Z" fill="white"/>
<path d="M13.4516 3.61502C12.5206 2.45967 11.2298 1.61197 9.75 1.23047V5.87742L13.4516 3.61502Z" fill="#3F51B5"/>
<path d="M9.75 14.7703C11.256 14.3818 12.5643 13.5092 13.4988 12.3224L9.75 10.0312V14.7703Z" fill="#3F51B5"/>
<path d="M1.26442 6.11719C1.25217 6.16094 1.24167 6.20574 1.23047 6.24984H1.48142L1.26442 6.11719Z" fill="white"/>
<path d="M14.9118 6.94913C14.8786 6.72863 14.8356 6.51198 14.7824 6.29883L13.7188 6.94913H14.9118Z" fill="white"/>
<path d="M1.47934 6.25H1.22839C1.16924 6.47925 1.12199 6.71235 1.08594 6.95H2.62454L1.47934 6.25Z" fill="white"/>
<path d="M14.8042 9.62093C14.8487 9.43368 14.884 9.24328 14.9131 9.05078H13.8711L14.8042 9.62093Z" fill="white"/>
<path d="M2.47579 9.05078H1.08594C1.12164 9.28843 1.16924 9.52153 1.22839 9.75078H1.33094L2.47579 9.05078Z" fill="white"/>
<path d="M6.95 6.09428V1.08789C6.71235 1.12359 6.47925 1.17119 6.25 1.23034V5.66658L6.95 6.09428Z" fill="white"/>
<path d="M9.05078 9.60352V14.9127C9.28843 14.877 9.52153 14.8294 9.75078 14.7702V10.0312L9.05078 9.60352Z" fill="white"/>
<path d="M6.25 10.2441V14.771C6.47925 14.8301 6.71235 14.8774 6.95 14.9134V9.81641L6.25 10.2441Z" fill="white"/>
<path d="M9.11553 6.14363L9.21493 6.20453L9.75078 5.87693V1.23034C9.52153 1.17119 9.28843 1.12394 9.05078 1.08789V6.24968L9.11553 6.14363Z" fill="white"/>
<path d="M2.62427 6.95046H5.91077L6.94852 6.31626V6.09436L6.24852 5.66631L2.66347 3.47461C2.36457 3.82671 2.09892 4.20751 1.87317 4.61456L4.51602 6.25046H2.60642L1.45387 5.53401C1.38177 5.72511 1.31737 5.91936 1.26172 6.11781L1.47907 6.25046L2.62427 6.95046Z" fill="white"/>
<path d="M9.21484 6.20292L10.4356 6.94912H13.7204L14.784 6.29882C14.6703 5.84382 14.5128 5.40737 14.3147 4.99262L12.298 6.24912H10.3884L13.8226 4.11412C13.7067 3.94123 13.5821 3.77498 13.4519 3.61328L9.75069 5.87532L9.21484 6.20292Z" fill="white"/>
<path d="M4.51882 6.24917L1.87633 4.61328C1.71358 4.90693 1.57673 5.21527 1.45703 5.53272L2.60923 6.24917H4.51882Z" fill="#E53935"/>
<path d="M12.2963 6.24988L14.3133 4.99338C14.1681 4.68888 14.0074 4.39348 13.8212 4.11523L10.3867 6.24988H12.2963Z" fill="#E53935"/>
<path d="M9.05078 9.05078V9.60448L9.75078 10.0322L13.4996 12.3237C13.7698 11.9803 14.0092 11.6121 14.2122 11.2212L11.8406 9.75078H13.7502L14.6109 10.2877C14.6861 10.07 14.7509 9.84808 14.8044 9.62128L13.8717 9.05078H9.05078Z" fill="white"/>
<path d="M10.4357 6.94968L9.21493 6.20348L9.11553 6.14258L9.05078 6.24863V6.94968H10.4357Z" fill="white"/>
<path d="M6.94893 9.81658V9.05078H2.47593L1.33074 9.75078L1.24219 9.80503C1.36539 10.2674 1.53339 10.7105 1.74374 11.1302L3.91408 9.75078H5.82368L2.25998 12.0024C2.37128 12.162 2.48678 12.3188 2.61068 12.4682L6.24893 10.2443L6.94893 9.81658Z" fill="white"/>
<path d="M5.91406 6.95061H6.95181V6.31641L5.91406 6.95061Z" fill="white"/>
<path d="M11.8398 9.75L14.2111 11.22C14.3665 10.9211 14.4984 10.6089 14.6101 10.2865L13.7494 9.75H11.8398Z" fill="#E53935"/>
<path d="M3.91644 9.75L1.74609 11.1293C1.89834 11.4331 2.06914 11.725 2.26234 12.0015L5.82604 9.75H3.91644Z" fill="#E53935"/>
<path d="M10.4357 6.94922H9.05078V9.04922H13.8717H14.9136C14.9654 8.70587 15.0008 8.35692 15.0008 7.99922C15.0008 7.64152 14.9654 7.29257 14.9136 6.94922H13.7205H10.4357Z" fill="#E53935"/>
<path d="M6.94999 9.04922V6.94922H5.91224H2.62575H1.08715C1.03535 7.29257 1 7.64152 1 7.99922C1 8.35692 1.03535 8.70587 1.08715 9.04922H2.477H6.94999Z" fill="#E53935"/>
<path d="M9.04922 14.9128V9.60369V9.04999V6.94999V6.24894V1.08715C8.70587 1.03535 8.35692 1 7.99922 1C7.64152 1 7.29257 1.03535 6.94922 1.08715V6.09354V6.31544V6.94999V9.04999V9.81579V14.9128C7.29257 14.9646 7.64152 15 7.99922 15C8.35692 15 8.70587 14.9646 9.04922 14.9128Z" fill="#E53935"/>
</svg>
