<svg width="16" height="17" viewBox="0 0 16 17" fill="none" xmlns="http://www.w3.org/2000/svg">
<path fill-rule="evenodd" clip-rule="evenodd" d="M7.99844 2.30078C4.29844 2.30078 1.39844 4.90078 1.39844 7.90078C1.39844 9.50078 2.19844 10.9008 3.39844 12.0008C3.59844 12.1008 3.59844 12.3008 3.59844 12.5008C3.39844 13.1008 3.09844 13.8008 2.59844 14.7008C3.99844 14.3008 5.09844 13.9008 5.79844 13.4008C5.89844 13.3008 6.09844 13.3008 6.19844 13.3008C6.79844 13.4008 7.39844 13.5008 7.99844 13.5008C11.6984 13.5008 14.5984 10.9008 14.5984 7.90078C14.5984 4.80078 11.6984 2.30078 7.99844 2.30078ZM0.398438 7.90078C0.398438 4.20078 3.89844 1.30078 7.99844 1.30078C12.0984 1.30078 15.5984 4.20078 15.5984 7.90078C15.5984 11.6008 12.0984 14.5008 7.99844 14.5008C7.39844 14.5008 6.79844 14.4008 6.19844 14.3008C5.29844 14.9008 3.99844 15.3008 2.49844 15.7008C2.29844 15.8008 2.09844 15.7008 1.89844 15.6008C1.49844 15.4008 1.39844 14.9008 1.49844 14.5008L1.59844 14.4008C1.99844 13.7008 2.29844 13.1008 2.49844 12.5008C1.19844 11.3008 0.398438 9.70078 0.398438 7.90078ZM8.19844 5.10078C7.69844 5.10078 7.29844 5.40078 7.19844 5.90078C7.09844 6.20078 6.79844 6.40078 6.49844 6.30078C6.29844 6.20078 6.09844 5.90078 6.19844 5.70078C6.39844 4.80078 7.19844 4.10078 8.19844 4.10078C9.29844 4.10078 10.1984 5.00078 10.1984 6.10078C10.1984 6.50078 10.0984 6.90078 9.89844 7.20078C9.69844 7.50078 9.49844 7.70078 9.29844 7.90078C8.99844 8.20078 8.69844 8.40078 8.69844 8.90078C8.69844 9.20078 8.39844 9.40078 8.09844 9.30078C7.79844 9.30078 7.59844 9.00078 7.69844 8.80078C7.79844 8.00078 8.29844 7.50078 8.59844 7.20078C8.79844 7.00078 8.99844 6.80078 8.99844 6.70078C9.09844 6.60078 9.09844 6.40078 9.09844 6.20078C9.19844 5.60078 8.69844 5.10078 8.19844 5.10078ZM8.19844 11.4008C8.49844 11.4008 8.79844 11.1008 8.79844 10.8008C8.79844 10.5008 8.49844 10.2008 8.19844 10.2008C7.89844 10.2008 7.59844 10.5008 7.59844 10.8008C7.59844 11.1008 7.79844 11.4008 8.19844 11.4008Z" fill="#2688EB"/>
</svg>
