<svg width="100" height="100" viewBox="0 0 100 100" fill="none" xmlns="http://www.w3.org/2000/svg">
<path fill-rule="evenodd" clip-rule="evenodd" d="M97.8 34.1C97.6 32.2 97.3 30.4 96.4 28.6C95.1 26 92.9 23.8 90.3 22.5C88.6 21.6 86.8 21.3 84.8 21.1C83.1 21 80.8 21 78.2 21H72C72 18.7 72 16.4 71.8 14.1C71.6 12.2 71.3 10.4 70.4 8.6C69.1 6 67 3.9 64.4 2.5C62.7 1.6 60.9 1.3 58.9 1.1C57.1 1 54.8 1 52.2 1H47.9C45.2 1 43 1 41.2 1.2C39.3 1.4 37.5 1.7 35.7 2.6C33 3.9 30.9 6 29.5 8.6C28.6 10.3 28.3 12.1 28.1 14.1C28 16.4 28 18.7 28 21H21.8C19.1 21 16.9 21 15.1 21.2C13.2 21.4 11.4 21.7 9.6 22.6C7 23.9 4.9 26 3.5 28.6C2.6 30.3 2.3 32.1 2.1 34.1C2 35.9 2 38.2 2 40.8V47.5C2 49.1 2 50.5 2.1 51.6C2.5 56 5.5 59.9 10 60.7C10 63.8 9.9 66.9 10.2 70C10.4 72.2 10.8 74.3 11.8 76.2C13.3 79.2 15.8 81.7 18.8 83.2C20.7 84.2 22.8 84.6 25 84.8C27.2 85 29.8 85 33 85H58V77H33.2C29.8 77 27.4 77 25.6 76.8C23.8 76.7 22.9 76.4 22.3 76.1C20.8 75.3 19.6 74.1 18.8 72.6C18.5 72 18.2 71.1 18.1 69.3C17.9 66.6 18 63.8 18 61H90C94.5 60.2 97.5 56.1 97.9 51.7C98 50.5 98 49.1 98 47.6V40.9C98 38.2 98 35.9 97.8 34.1ZM36.1 14.8C36.2 13.4 36.4 12.7 36.6 12.3C37.2 11.2 38.1 10.2 39.2 9.7C39.6 9.5 40.3 9.3 41.7 9.2C43.2 9 45.1 9 48 9H52C54.9 9 56.8 9 58.2 9.1C59.6 9.2 60.3 9.4 60.7 9.6C61.8 10.2 62.8 11.1 63.3 12.2C63.5 12.6 63.7 13.3 63.8 14.7C64 16.2 64 18.1 64 21H36C36 18.1 36 16.2 36.1 14.8ZM90 47.4C90 49.2 90 50.2 89.9 51C89.8 52.1 89.2 52.8 88 52.9C87.2 53 86.2 53 84.4 53H15.6C13.8 53 12.8 53 12 52.9C10.8 52.8 10.2 52.2 10.1 51C10 50.2 10 49.2 10 47.4V41C10 38.1 10 36.2 10.1 34.8C10.2 33.4 10.4 32.7 10.6 32.3C11.2 31.2 12.1 30.2 13.2 29.7C13.6 29.5 14.3 29.3 15.7 29.2C17.2 29 19.1 29 22 29H78C80.9 29 82.8 29 84.2 29.1C85.6 29.2 86.3 29.4 86.7 29.6C87.8 30.2 88.8 31.1 89.3 32.2C89.5 32.6 89.7 33.3 89.8 34.7C90 36.2 90 38.1 90 41V47.4Z" fill="#2688EB"/>
<path fill-rule="evenodd" clip-rule="evenodd" d="M73.9984 69.8004C76.1984 68.5004 76.5984 67.2004 76.7984 65.9004C77.0984 64.4004 77.4984 64.4004 78.2984 64.4004C78.9984 64.4004 78.9984 64.4004 79.7984 64.4004C80.4984 64.4004 80.7984 64.4004 81.2984 65.9004C81.6984 67.2004 81.9984 68.5004 84.1984 69.8004C86.5984 70.5004 87.7984 69.8004 88.9984 69.1004C90.1984 68.3004 90.4984 68.6004 91.0984 69.1004C91.5984 69.6004 91.5984 69.6004 92.0984 70.1004C92.5984 70.6004 92.7984 70.8004 92.0984 72.2004C91.3984 73.4004 90.6984 74.5004 91.3984 77.0004C92.6984 79.2004 93.9984 79.6004 95.2984 79.8004C96.7984 80.1004 96.7984 80.5004 96.7984 81.3004C96.7984 82.0004 96.7984 82.0004 96.7984 82.8004C96.7984 83.5004 96.7984 83.8004 95.2984 84.3004C93.9984 84.7004 92.6984 85.0004 91.3984 87.2004C90.6984 89.6004 91.3984 90.8004 92.0984 92.0004C92.8984 93.2004 92.5984 93.5004 92.0984 94.1004C91.5984 94.6004 91.5984 94.6004 91.0984 95.1004C90.5984 95.6004 90.3984 95.8004 88.9984 95.1004C87.7984 94.4004 86.6984 93.7004 84.1984 94.4004C81.9984 95.7004 81.5984 97.0004 81.3984 98.3004C81.0984 99.8004 80.6984 99.8004 79.8984 99.8004C79.1984 99.8004 79.1984 99.8004 78.3984 99.8004C77.6984 99.8004 77.3984 99.8004 76.8984 98.3004C76.4984 97.0004 76.1984 95.7004 73.9984 94.4004C71.5984 93.7004 70.3984 94.4004 69.1984 95.1004C67.9984 95.9004 67.6984 95.6004 67.0984 95.1004C66.5984 94.6004 66.5984 94.6004 66.0984 94.1004C65.5984 93.6004 65.3984 93.4004 66.0984 92.0004C66.7984 90.8004 67.4984 89.7004 66.7984 87.2004C65.4984 85.0004 64.1984 84.6004 62.8984 84.4004C61.3984 84.1004 61.3984 83.7004 61.3984 82.9004C61.3984 82.2004 61.3984 82.2004 61.3984 81.4004C61.3984 80.7004 61.3984 80.4004 62.8984 79.9004C64.1984 79.5004 65.4984 79.2004 66.7984 77.0004C67.4984 74.6004 66.7984 73.4004 66.0984 72.2004C65.2984 71.0004 65.5984 70.7004 66.0984 70.1004C66.5984 69.6004 66.5984 69.6004 67.0984 69.1004C67.5984 68.6004 67.7984 68.4004 69.1984 69.1004C70.3984 69.8004 71.4984 70.5004 73.9984 69.8004ZM78.9984 90.3004C83.5984 90.3004 87.1984 86.6004 87.1984 82.1004C87.1984 77.5004 83.4984 73.9004 78.9984 73.9004C74.4984 73.9004 70.7984 77.6004 70.7984 82.1004C70.7984 86.6004 74.3984 90.3004 78.9984 90.3004Z" fill="#2688EB"/>
</svg>
