<svg width="32" height="32" viewBox="0 0 32 32" fill="none" xmlns="http://www.w3.org/2000/svg">
<path d="M15.9987 3.33398C12.6393 3.33398 9.41748 4.6685 7.04201 7.04396C4.66655 9.41942 3.33203 12.6413 3.33203 16.0007C3.33203 19.3601 4.66655 22.5819 7.04201 24.9574C9.41748 27.3328 12.6393 28.6674 15.9987 28.6674C19.3581 28.6674 22.58 27.3328 24.9554 24.9574C27.3309 22.5819 28.6654 19.3601 28.6654 16.0007C28.6654 12.6413 27.3309 9.41942 24.9554 7.04396C22.58 4.6685 19.3581 3.33398 15.9987 3.33398Z" fill="#039BE5"/>
<path d="M17.716 19.3565H20.994L21.5087 16.0265H17.7154V14.2065C17.7154 12.8232 18.1674 11.5965 19.4614 11.5965H21.5407V8.69053C21.1754 8.6412 20.4027 8.5332 18.9427 8.5332C15.894 8.5332 14.1067 10.1432 14.1067 13.8112V16.0265H10.9727V19.3565H14.1067V28.5092C14.7274 28.6025 15.356 28.6659 16.0014 28.6659C16.5847 28.6659 17.154 28.6125 17.716 28.5365V19.3565Z" fill="white"/>
</svg>
