<svg width="24" height="24" viewBox="0 0 24 24" fill="none" xmlns="http://www.w3.org/2000/svg">
<path d="M6.71797 0.960938C5.39422 0.960938 4.31797 2.03719 4.31797 3.36094C4.31797 4.68469 5.39422 5.76094 6.71797 5.76094C8.04172 5.76094 9.11797 4.68469 9.11797 3.36094C9.11797 2.03719 8.04172 0.960938 6.71797 0.960938ZM16.7979 0.960938C15.4742 0.960938 14.3979 2.03719 14.3979 3.36094C14.3979 4.68469 15.4742 5.76094 16.7979 5.76094C18.1217 5.76094 19.1979 4.68469 19.1979 3.36094C19.1979 2.03719 18.1217 0.960938 16.7979 0.960938ZM4.55797 6.24094C3.09922 6.24094 1.91797 7.42219 1.91797 8.88094V15.316C1.91797 15.7941 2.24047 16.2291 2.71297 16.306C3.31485 16.4035 3.83797 15.9441 3.83797 15.361V10.561H4.31797V21.841C4.31797 22.5047 4.85422 23.041 5.51797 23.041C6.18172 23.041 6.71797 22.5047 6.71797 21.841V15.841H7.19797V21.841C7.19797 22.5047 7.73422 23.041 8.39797 23.041C9.06172 23.041 9.59797 22.5047 9.59797 21.841V18.631C9.74985 18.6853 9.90922 18.721 10.0779 18.721V21.841C10.0779 22.4972 10.6217 23.041 11.2779 23.041H12.7179C13.3742 23.041 13.9179 22.4972 13.9179 21.841V18.721C14.2854 18.721 14.6229 18.5766 14.8779 18.346V22.081C14.8779 22.6116 15.3073 23.041 15.8379 23.041C16.3685 23.041 16.7979 22.6116 16.7979 22.081V18.241H14.9829C15.1067 18.1022 15.2042 17.9391 15.2679 17.761H20.0379C20.6904 17.761 21.1554 17.1216 20.9529 16.501L19.0329 10.621L19.4979 10.471L21.0579 15.256C21.1742 15.6085 21.4967 15.856 21.8679 15.856H21.8979C22.4829 15.856 22.8917 15.286 22.7079 14.731C21.9935 12.5691 20.4879 8.01094 20.4879 8.01094C20.2104 7.15407 19.481 6.24094 18.2379 6.24094H15.3579C14.7242 6.24094 14.1579 6.48282 13.7079 6.96094L13.2129 7.54594C12.8548 7.33219 12.4442 7.20094 11.9979 7.20094C11.6192 7.20094 11.2667 7.29844 10.9479 7.45594C10.841 7.19344 10.6798 6.93282 10.4529 6.76594L10.3929 6.72094C9.95047 6.40969 9.41797 6.24094 8.87797 6.24094H4.55797ZM11.9979 8.16094C12.7985 8.16094 13.4379 8.80032 13.4379 9.60094C13.4379 10.4016 12.7985 11.041 11.9979 11.041C11.1973 11.041 10.5579 10.4016 10.5579 9.60094C10.5579 8.80032 11.1973 8.16094 11.9979 8.16094ZM10.5579 12.481H13.4379C13.9742 12.481 14.3979 12.9047 14.3979 13.441V17.281C14.3979 17.5528 14.1898 17.761 13.9179 17.761H13.4379C13.1735 17.761 12.9579 17.9766 12.9579 18.241V21.841C12.9579 21.9778 12.8548 22.081 12.7179 22.081H11.2779C11.141 22.081 11.0379 21.9778 11.0379 21.841V18.241C11.0379 17.9766 10.8223 17.761 10.5579 17.761H10.0779C9.8061 17.761 9.59797 17.5528 9.59797 17.281V13.441C9.59797 12.9047 10.0217 12.481 10.5579 12.481ZM17.2779 18.241V22.081C17.2779 22.6116 17.7073 23.041 18.2379 23.041C18.7685 23.041 19.1979 22.6116 19.1979 22.081V18.241H17.2779Z" fill="#0170CC"/>
</svg>
