<svg width="12" height="12" viewBox="0 0 12 12" fill="none" xmlns="http://www.w3.org/2000/svg">
<path fill-rule="evenodd" clip-rule="evenodd" d="M2.99922 1.80078H8.99922C9.39922 1.80078 9.69922 1.80078 9.99922 1.80078C10.2992 1.80078 10.4992 1.90078 10.7992 2.00078C11.1992 2.20078 11.4992 2.50078 11.6992 2.90078C11.7992 3.10078 11.8992 3.40078 11.8992 3.70078C11.8992 4.00078 11.8992 4.30078 11.8992 4.70078V7.40078C11.8992 7.80078 11.8992 8.10078 11.8992 8.40078C11.8992 8.70078 11.7992 8.90078 11.6992 9.20078C11.4992 9.60078 11.1992 9.90078 10.7992 10.1008C10.5992 10.2008 10.2992 10.3008 9.99922 10.3008C9.69922 10.3008 9.39922 10.3008 8.99922 10.3008H2.99922C2.59922 10.3008 2.29922 10.3008 1.99922 10.3008C1.69922 10.3008 1.49922 10.2008 1.19922 10.1008C0.799219 9.80078 0.499219 9.50078 0.399219 9.10078C0.199219 8.80078 0.199219 8.60078 0.199219 8.30078C0.199219 8.00078 0.199219 7.70078 0.199219 7.30078V4.70078C0.199219 4.30078 0.199219 4.00078 0.199219 3.70078C0.199219 3.40078 0.299219 3.20078 0.399219 2.90078C0.599219 2.50078 0.899219 2.20078 1.29922 2.00078C1.39922 1.90078 1.69922 1.90078 1.99922 1.90078C2.19922 1.80078 2.59922 1.80078 2.99922 1.80078ZM1.99922 2.80078C1.79922 2.80078 1.69922 2.80078 1.59922 2.90078C1.49922 3.00078 1.29922 3.20078 1.19922 3.40078C1.19922 3.50078 1.09922 3.60078 1.09922 3.80078C1.09922 4.00078 1.09922 4.30078 1.09922 4.70078V7.30078C1.09922 7.70078 1.09922 8.00078 1.09922 8.20078C1.09922 8.40078 1.09922 8.50078 1.19922 8.60078C1.29922 8.80078 1.49922 9.00078 1.59922 9.10078C1.69922 9.10078 1.79922 9.20078 1.99922 9.20078C2.19922 9.20078 2.49922 9.20078 2.89922 9.20078H3.49922V7.50078C2.69922 7.50078 2.09922 6.80078 2.09922 6.00078C2.09922 5.20078 2.79922 4.50078 3.59922 4.50078V2.80078H2.99922C2.59922 2.80078 2.29922 2.80078 1.99922 2.80078ZM7.49922 9.20078H4.49922V2.80078H7.39922V9.20078H7.49922ZM8.39922 9.20078H8.99922C9.39922 9.20078 9.69922 9.20078 9.89922 9.20078C10.0992 9.20078 10.1992 9.20078 10.2992 9.10078C10.4992 9.00078 10.5992 8.90078 10.6992 8.70078C10.6992 8.60078 10.7992 8.50078 10.7992 8.30078C10.7992 8.10078 10.7992 7.80078 10.7992 7.40078V4.70078C10.7992 4.30078 10.7992 4.00078 10.7992 3.80078C10.7992 3.60078 10.7992 3.50078 10.6992 3.40078C10.5992 3.20078 10.4992 3.10078 10.2992 3.00078C10.1992 3.00078 10.0992 2.90078 9.89922 2.90078C9.69922 2.90078 9.39922 2.90078 8.99922 2.90078H8.39922V4.60078C9.19922 4.60078 9.89922 5.30078 9.89922 6.10078C9.89922 6.90078 9.29922 7.50078 8.39922 7.50078V9.20078Z" fill="#2688EB"/>
</svg>
