<svg width="16" height="16" viewBox="0 0 16 16" fill="none" xmlns="http://www.w3.org/2000/svg">
<g clip-path="url(#clip0_2612_65870)">
<path fill-rule="evenodd" clip-rule="evenodd" d="M1.79844 10.2C1.69844 10.2 1.39844 10.2 1.29844 10C1.09844 10 0.698438 9.7 0.598438 9.4C0.598438 9.1 0.598437 9.1 0.498437 9.1H0.398438V5.1C0.398438 5 0.398438 4.7 0.598438 4.6C0.598438 4.4 0.798438 4.2 0.998438 4C1.09844 4 1.19844 3.8 1.19844 3.8H2.99844C3.19844 3.9 3.39844 4 3.49844 4.1L3.89844 3.8V3.7L4.39844 1.2C4.59844 0.5 5.19844 0 5.79844 0C5.99844 0 6.19844 0 6.39844 0.1C6.99844 0.4 7.29844 0.9 7.29844 1.5V2.9H7.39844C8.29844 2.9 8.99844 3.2 9.69844 3.7C10.2984 4.3 10.5984 5.1 10.5984 6.1V6.5C10.5984 7.4 10.2984 8.3 9.69844 8.8C9.19844 9.4 8.39844 9.8 7.39844 9.8H3.49844C3.39844 10 3.29844 10.1 3.09844 10.2H1.79844ZM1.49844 9.1C1.49844 9.1 1.49844 9.1 1.69844 9.2H1.79844H2.69844L2.79844 9.1V4.9C2.79844 4.9 2.79844 4.8 2.69844 4.8H2.19844H1.69844L1.49844 5V9.1ZM7.39844 8.8C8.19844 8.8 8.69844 8.5 8.99844 8.2C9.39844 7.8 9.49844 7.3 9.49844 6.5V6.1C9.49844 5.4 9.29844 4.8 8.99844 4.4C8.59844 4.1 8.09844 3.9 7.39844 3.9H6.79844C6.49844 3.9 6.29844 3.7 6.29844 3.4V1.5C6.29844 1.4 6.19844 1.2 5.99844 1.1H5.89844C5.69844 1.1 5.49844 1.2 5.39844 1.5L4.89844 4.1C4.89844 4.4 4.69844 4.6 4.49844 4.7L3.89844 5.2V8.8H7.39844Z" fill="#2688EB"/>
<path fill-rule="evenodd" clip-rule="evenodd" d="M3.50156 4.40039L4.00156 4.00039C4.10156 4.00039 4.10156 3.90039 4.10156 3.80039L4.60156 1.30039C4.80156 0.500386 5.60156 0.100386 6.30156 0.400386C6.80156 0.600386 7.10156 1.00039 7.10156 1.50039V3.10039H7.40156C8.30156 3.10039 9.00156 3.40039 9.60156 3.90039C10.1016 4.40039 10.4016 5.20039 10.4016 6.10039V6.50039C10.4016 7.40039 10.1016 8.20039 9.60156 8.70039C9.10156 9.30039 8.30156 9.60039 7.40156 9.60039H3.40156C3.30156 9.80039 3.20156 9.90039 3.00156 10.0004C2.90156 10.0004 2.70156 10.0004 2.60156 10.0004C2.50156 10.0004 2.30156 10.0004 2.20156 10.0004C2.00156 10.0004 1.90156 10.0004 1.80156 10.0004C1.70156 10.0004 1.50156 10.0004 1.40156 9.90039C1.10156 9.80039 0.801562 9.60039 0.701562 9.40039C0.701562 9.20039 0.701563 9.10039 0.601562 9.00039C0.601562 8.90039 0.601562 8.70039 0.601562 8.60039V5.50039C0.601562 5.30039 0.601562 5.20039 0.601562 5.10039C0.601562 5.00039 0.601562 4.80039 0.701562 4.70039C0.801562 4.40039 1.10156 4.20039 1.30156 4.00039C1.40156 4.00039 1.60156 4.00039 1.70156 4.00039C1.80156 4.00039 2.00156 4.00039 2.10156 4.00039C2.30156 4.00039 2.40156 4.00039 2.50156 4.00039C2.70156 4.00039 2.90156 4.00039 3.00156 4.00039C3.20156 4.10039 3.30156 4.20039 3.50156 4.40039ZM5.20156 1.40039C5.30156 1.00039 5.70156 0.800386 6.10156 0.900386C6.40156 1.00039 6.50156 1.30039 6.50156 1.50039V3.40039C6.50156 3.60039 6.60156 3.70039 6.80156 3.70039H7.40156C8.20156 3.70039 8.70156 3.90039 9.10156 4.30039C9.50156 4.70039 9.70156 5.30039 9.70156 6.10039V6.50039C9.70156 7.30039 9.50156 7.90039 9.10156 8.30039C8.70156 8.70039 8.20156 9.00039 7.40156 9.00039H3.70156C3.70156 9.00039 3.70156 9.00039 3.70156 8.90039C3.70156 8.80039 3.70156 8.60039 3.70156 8.50039V5.50039C3.70156 5.30039 3.70156 5.20039 3.70156 5.10039L4.40156 4.60039C4.60156 4.50039 4.70156 4.30039 4.70156 4.10039L5.20156 1.40039ZM2.20156 4.60039C2.40156 4.60039 2.50156 4.60039 2.60156 4.60039C2.70156 4.60039 2.80156 4.60039 2.80156 4.60039C2.90156 4.70039 3.00156 4.80039 3.00156 4.90039C3.00156 4.90039 3.00156 5.00039 3.00156 5.10039C3.00156 5.20039 3.00156 5.30039 3.00156 5.50039V8.60039C3.00156 8.80039 3.00156 8.90039 3.00156 9.00039C3.00156 9.10039 3.00156 9.20039 3.00156 9.20039C3.00156 9.20039 2.90156 9.30039 2.80156 9.40039C2.80156 9.40039 2.70156 9.40039 2.60156 9.40039C2.50156 9.40039 2.40156 9.40039 2.20156 9.40039C2.00156 9.40039 1.90156 9.40039 1.80156 9.40039C1.70156 9.40039 1.60156 9.40039 1.60156 9.40039C1.40156 9.30039 1.30156 9.20039 1.30156 9.10039C1.30156 9.10039 1.30156 9.00039 1.30156 8.90039C1.30156 8.80039 1.30156 8.70039 1.30156 8.50039V5.50039C1.30156 5.30039 1.30156 5.20039 1.30156 5.10039C1.30156 5.00039 1.30156 4.90039 1.30156 4.90039C1.40156 4.80039 1.50156 4.70039 1.60156 4.60039C1.60156 4.60039 1.70156 4.60039 1.80156 4.60039C1.80156 4.60039 2.00156 4.60039 2.20156 4.60039Z" fill="#2688EB"/>
<path fill-rule="evenodd" clip-rule="evenodd" d="M9.99844 15.9008C9.79844 15.9008 9.69844 15.9008 9.49844 15.8008C8.99844 15.6008 8.59844 15.0008 8.59844 14.4008V13.0008H8.49844C7.59844 13.0008 6.69844 12.7008 6.19844 12.1008C5.79844 11.7008 5.49844 11.2008 5.39844 10.6008V10.4008H6.39844V10.6008C6.49844 11.0008 6.69844 11.3008 6.79844 11.5008C7.29844 11.9008 7.79844 12.0008 8.49844 12.0008H8.99844C9.29844 12.0008 9.49844 12.2008 9.49844 12.5008V14.4008C9.49844 14.6008 9.59844 14.7008 9.89844 14.8008H9.99844C10.1984 14.8008 10.3984 14.7008 10.4984 14.4008L10.9984 12.0008C10.9984 11.7008 11.1984 11.5008 11.3984 11.4008L11.9984 11.0008V7.20078H11.1984V6.10078H12.3984C12.4984 6.00078 12.5984 5.90078 12.7984 5.80078H13.3984H14.5984C14.9984 5.90078 15.2984 6.20078 15.3984 6.50078C15.4984 6.60078 15.4984 6.80078 15.4984 7.00078C15.4984 7.10078 15.4984 7.30078 15.2984 7.60078V11.0008C15.2984 11.1008 15.2984 11.4008 15.0984 11.5008C14.9984 11.8008 14.7984 12.0008 14.3984 12.1008C14.2984 12.2008 14.0984 12.2008 13.8984 12.2008H13.0984C12.9984 12.2008 12.8984 12.2008 12.7984 12.1008H12.6984H12.5984L12.4984 12.0008C12.4984 12.0008 12.3984 12.0008 12.3984 11.9008C12.2984 11.9008 12.2984 11.8008 12.1984 11.7008L11.8984 11.9008C11.8984 12.0008 11.7984 12.0008 11.7984 12.0008L11.2984 14.5008C11.2984 15.4008 10.6984 15.9008 9.99844 15.9008ZM14.2984 11.2008C14.3984 11.1008 14.4984 11.1008 14.4984 11.0008V10.9008V7.00078L14.2984 6.80078H13.1984C13.0984 6.90078 12.9984 6.90078 12.9984 6.90078V11.0008L13.1984 11.2008H14.2984Z" fill="#2688EB"/>
<path fill-rule="evenodd" clip-rule="evenodd" d="M15.3016 7C15.3016 6.9 15.3016 6.7 15.2016 6.6C15.1016 6.3 14.9016 6.1 14.6016 6C14.5016 6 14.3016 6 14.2016 6C14.1016 6 13.9016 6 13.8016 6C13.6016 6 13.5016 6 13.4016 6C13.2016 6 13.0016 6 12.9016 6C12.7016 6.1 12.6016 6.2 12.5016 6.3H11.4016V7H12.2016C12.2016 7 12.2016 7 12.2016 7.1C12.2016 7.2 12.2016 7.4 12.2016 7.5V10.6C12.2016 10.8 12.2016 10.9 12.2016 11L11.5016 11.5C11.3016 11.6 11.2016 11.8 11.2016 12L10.7016 14.5C10.6016 14.9 10.2016 15.1 9.80156 15C9.50156 14.9 9.30156 14.7 9.30156 14.4V12.5C9.30156 12.3 9.20156 12.2 9.00156 12.2H8.50156C7.70156 12.2 7.20156 12 6.70156 11.6C6.50156 11.4 6.30156 11 6.20156 10.6H5.60156C5.70156 11.2 6.00156 11.7 6.30156 12C6.80156 12.5 7.60156 12.8 8.50156 12.8H8.80156V14.4C8.80156 14.9 9.20156 15.4 9.60156 15.6C10.3016 15.9 11.1016 15.4 11.3016 14.7L11.8016 12.2C11.8016 12.1 11.9016 12.1 11.9016 12L12.4016 11.6C12.5016 11.8 12.7016 11.9 12.8016 12C12.9016 12 13.1016 12.1 13.2016 12.1C13.3016 12.1 13.5016 12.1 13.6016 12.1C13.8016 12.1 13.9016 12.1 14.0016 12.1C14.1016 12.1 14.3016 12.1 14.4016 12C14.7016 11.9 14.9016 11.7 15.0016 11.4C15.1016 11.3 15.1016 11.1 15.1016 11C15.1016 10.9 15.1016 10.7 15.1016 10.6V7.5C15.3016 7.3 15.3016 7.1 15.3016 7ZM14.7016 10.9C14.7016 11 14.7016 11.1 14.7016 11.1C14.7016 11.2 14.5016 11.3 14.4016 11.4C14.4016 11.4 14.3016 11.4 14.2016 11.4H13.4016C13.3016 11.4 13.3016 11.4 13.2016 11.4C13.1016 11.3 13.0016 11.2 12.9016 11.1C12.9016 11.1 12.9016 11 12.9016 10.9C12.9016 10.8 12.9016 10.7 12.9016 10.5V7.5C12.9016 7.3 12.9016 7.2 12.9016 7.1C12.9016 7 12.9016 6.9 12.9016 6.9C12.9016 6.8 13.0016 6.7 13.2016 6.6C13.2016 6.6 13.3016 6.6 13.4016 6.6C13.5016 6.6 13.6016 6.6 13.8016 6.6C14.0016 6.6 14.1016 6.6 14.2016 6.6C14.3016 6.6 14.4016 6.6 14.4016 6.6C14.5016 6.7 14.6016 6.8 14.7016 6.9C14.7016 6.9 14.7016 7 14.7016 7.1V10.9Z" fill="#2688EB"/>
</g>
<defs>
<clipPath id="clip0_2612_65870">
<rect width="16" height="16" fill="white"/>
</clipPath>
</defs>
</svg>
