<svg width="25" height="25" viewBox="0 0 25 25" fill="none" xmlns="http://www.w3.org/2000/svg">
<path d="M10.1112 22.0991H14.8832C15.6482 22.0991 16.3794 21.7954 16.9213 21.2554L22.6813 15.4954C23.8044 14.3704 23.8044 12.5479 22.6813 11.4229L14.5344 3.27593C13.4094 2.15281 11.5869 2.15281 10.4619 3.27593L2.315 11.4229C1.19188 12.5479 1.19188 14.3704 2.315 15.4954L8.075 21.2554C8.615 21.7954 9.34813 22.0991 10.1112 22.0991ZM8.88125 16.6297L8.42563 16.1741C8.23625 15.9866 8.23625 15.6829 8.42563 15.4954L11.8194 12.1016C12.0069 11.9141 12.3107 11.9141 12.4982 12.1016L13.5163 13.1197C13.7038 13.3072 13.7038 13.611 13.5163 13.7985L10.6832 16.6297C10.5932 16.7197 10.4712 16.7704 10.3437 16.7704H9.22063C9.09313 16.7704 8.97125 16.7197 8.88125 16.6297ZM13.8557 18.8891L13.4 19.3466C13.31 19.4366 13.1882 19.4872 13.0607 19.4872H11.9357C11.8082 19.4872 11.6863 19.4366 11.5963 19.3466L11.1407 18.8891C10.9532 18.7016 10.9532 18.3979 11.1407 18.2104L12.1588 17.1922C12.3463 17.0047 12.65 17.0047 12.8375 17.1922L13.8557 18.2104C14.0432 18.3979 14.0432 18.7016 13.8557 18.8891ZM5.71063 12.7804L11.8194 6.67156C12.0069 6.48406 12.3107 6.48406 12.4982 6.67156L13.5163 7.68968C13.7038 7.87718 13.7038 8.18093 13.5163 8.36843L7.97 13.9147C7.88 14.0047 7.75625 14.0554 7.63063 14.0554H6.50563C6.37813 14.0554 6.25625 14.0047 6.16625 13.9147L5.71063 13.4591C5.52313 13.2716 5.52313 12.9679 5.71063 12.7804Z" fill="black"/>
</svg>
