<svg width="24" height="24" viewBox="0 0 24 24" fill="none" xmlns="http://www.w3.org/2000/svg">
<path fill-rule="evenodd" clip-rule="evenodd" d="M9.40156 0.299219C7.10156 0.299219 6.10156 0.499219 5.00156 0.999219C4.10156 1.49922 3.40156 2.19922 2.90156 3.19922C2.40156 4.19922 2.10156 5.19922 2.10156 7.49922V15.5992C2.10156 17.8992 2.30156 18.8992 2.90156 19.8992C3.40156 20.7992 4.10156 21.5992 5.00156 21.9992C6.00156 22.4992 7.00156 22.7992 9.30156 22.7992H10.5016C11.0016 22.7992 11.4016 22.3992 11.4016 21.8992C11.4016 21.3992 11.0016 20.9992 10.5016 20.9992H9.40156C7.20156 20.9992 6.60156 20.7992 5.90156 20.4992C5.30156 20.1992 4.80156 19.6992 4.50156 19.0992C4.20156 18.3992 4.00156 17.7992 4.00156 15.5992V7.49922C4.00156 5.29922 4.20156 4.69922 4.60156 3.99922C4.90156 3.49922 5.30156 2.99922 5.90156 2.69922C6.50156 2.39922 7.20156 2.19922 9.40156 2.19922H11.4016H11.6016V7.39922C11.6016 8.69922 12.7016 9.69922 13.9016 9.69922H19.0016V9.99922V12.4992C19.0016 12.9992 19.4016 13.3992 19.9016 13.3992C20.4016 13.3992 20.8016 12.9992 20.8016 12.4992V9.99922C20.8016 9.29922 20.8016 8.89922 20.7016 8.49922C20.6016 8.09922 20.5016 7.79922 20.3016 7.39922C20.1016 7.09922 19.9016 6.79922 19.3016 6.29922L14.7016 1.69922C14.2016 1.19922 13.9016 0.999219 13.6016 0.699219C13.3016 0.499219 12.9016 0.299219 12.5016 0.299219C12.2016 0.199219 11.9016 0.199219 11.4016 0.199219H9.40156V0.299219ZM13.5016 3.09922L13.4016 2.99922V7.29922C13.4016 7.49922 13.6016 7.69922 13.8016 7.79922H13.9016H18.2016L18.1016 7.69922L15.8016 5.39922L13.5016 3.09922ZM17.2016 14.2992C17.7016 14.2992 18.1016 14.6992 18.1016 15.1992V17.9992H20.9016C21.4016 17.9992 21.8016 18.3992 21.8016 18.8992C21.8016 19.3992 21.4016 19.9992 20.9016 19.9992H18.1016V22.7992C18.1016 23.2992 17.7016 23.6992 17.2016 23.6992C16.7016 23.6992 16.3016 23.2992 16.3016 22.7992V19.9992H13.5016C13.0016 19.9992 12.6016 19.5992 12.6016 19.0992C12.6016 18.5992 13.0016 18.1992 13.5016 18.1992H16.3016V15.3992C16.2016 14.7992 16.6016 14.2992 17.2016 14.2992Z" fill="#2688EB"/>
</svg>
