<svg xmlns="http://www.w3.org/2000/svg" viewBox="0 0 259.3 317.1" xmlns:v="https://vecta.io/nano"><g fill="#4273b8"><path d="M169.4 158.4v.3c0 3-2.5 5.5-5.5 5.5h-28.5v28.5c0 3-2.5 5.5-5.5 5.5h-.3c-3 0-5.5-2.5-5.5-5.5v-28.5H95.5c-3 0-5.5-2.5-5.5-5.5v-.3c0-3 2.5-5.5 5.5-5.5H124v-28.5c0-3 2.5-5.5 5.5-5.5h.3c3 0 5.5 2.5 5.5 5.5v28.5h28.5c3.1 0 5.6 2.4 5.6 5.5z"/><path d="M129.8 200.7c-4.7 0-8.2-3.6-8.2-8v-26.1H95.5c-4.4 0-7.9-3.6-7.9-8 0-4.7 3.6-8.2 7.9-8.2h26.1v-26.1a7.92 7.92 0 0 1 7.9-7.9c4.7 0 8.2 3.6 8.2 7.9v26.1h26.1a7.92 7.92 0 0 1 7.9 7.9v.3c0 4.4-3.6 8-7.9 8h-26.1v26.1c0 4.4-3.5 8-7.9 8zm-34.3-45.4a3.12 3.12 0 0 0-3.1 3.1c0 2 1.4 3.4 3.1 3.4h30.9v30.9a3.12 3.12 0 0 0 3.1 3.1c2 0 3.4-1.4 3.4-3.1v-30.9h30.9a3.12 3.12 0 0 0 3.1-3.1v-.3a3.12 3.12 0 0 0-3.1-3.1h-30.9v-30.9a3.12 3.12 0 0 0-3.1-3.1c-2 0-3.4 1.4-3.4 3.1v30.9H95.5h0zM193.2 0H66.1C29.6 0 0 29.6 0 66v185.1c0 36.4 29.6 66 66.1 66h127.1c36.6 0 66.1-29.6 66.1-66V66L193.2 0zm51.7 251.1c0 28.4-23.1 51.5-51.7 51.5H66.1c-28.6 0-51.7-23.1-51.7-51.5V66c0-28.4 23.1-51.5 51.7-51.5h108.7v31.4c0 21.9 17.7 39.6 39.6 39.6h30.4v165.6z"/></g><path d="M69,302.6h-2.9c-28.6,0-51.7-23.1-51.7-51.5V78H0v173.1c0,36.4,29.6,66,66.1,66H69V302.6z" fill="#33a852"/><path d="M244.9 104.3h14.5v114.4h-14.5z" fill="#e52e25"/><path d="M244.9 103.9h14.5V66L193.2 0H66.1C29.6 0 0 29.6 0 66v11.7h14.5V66c0-28.4 23.1-51.5 51.7-51.5h108.7v31.4c0 21.9 17.7 39.7 39.6 39.7h30.4v18.3h0z" fill="#4273b8"/><path d="M244.9,219.1v32c0,28.4-23.1,51.5-51.7,51.5H69.4v14.5h123.8c36.6,0,66.1-29.6,66.1-66v-32H244.9z" fill="#f89820"/></svg>