<svg width="12" height="12" viewBox="0 0 12 12" fill="none" xmlns="http://www.w3.org/2000/svg">
<g clip-path="url(#clip0_2612_66014)">
<mask id="mask0_2612_66014" style="mask-type:luminance" maskUnits="userSpaceOnUse" x="0" y="0" width="12" height="12">
<path d="M12 0H0V12H12V0Z" fill="white"/>
</mask>
<g mask="url(#mask0_2612_66014)">
<path fill-rule="evenodd" clip-rule="evenodd" d="M2.10156 0.5C4.70156 0.5 7.30156 0.5 10.0016 0.5C10.2016 0.5 10.3016 0.5 10.5016 0.5C10.7016 0.5 10.8016 0.5 11.0016 0.6C11.2016 0.7 11.4016 0.9 11.5016 1.2C11.6016 1.5 11.6016 1.8 11.6016 2.1C11.5016 3.4 11.1016 4.6 10.4016 5.6C9.70156 6.4 8.90156 7 8.10156 7.6V8.4C8.10156 9.9 7.10156 11.1 5.70156 11.4C4.80156 11.6 4.00156 10.9 4.00156 10V7.6C3.10156 7 2.30156 6.3 1.70156 5.6C1.00156 4.5 0.601562 3.3 0.501562 2.1C0.501562 1.8 0.401563 1.5 0.601563 1.2C0.701563 1 0.901562 0.8 1.10156 0.6C1.30156 0.5 1.40156 0.5 1.60156 0.5C1.70156 0.5 1.90156 0.5 2.10156 0.5ZM1.60156 1.5C1.80156 1.5 1.90156 1.5 2.10156 1.5H9.90156C10.1016 1.5 10.2016 1.5 10.3016 1.5C10.4016 1.5 10.4016 1.5 10.4016 1.5L10.5016 1.6C10.5016 1.6 10.5016 1.6 10.5016 1.7C10.5016 1.8 10.5016 1.9 10.5016 2.1C10.4016 3.4 10.0016 4.3 9.50156 5C8.90156 5.7 8.20156 6.3 7.20156 7C7.10156 7.1 7.00156 7.2 7.00156 7.4V8.5C7.00156 9.5 6.30156 10.3 5.40156 10.5C5.20156 10.5 5.00156 10.4 5.00156 10.1V7.4C5.00156 7.2 4.90156 7.1 4.80156 7C3.90156 6.3 3.10156 5.7 2.60156 5C2.00156 4.2 1.70156 3.4 1.50156 2.1C1.50156 1.9 1.50156 1.8 1.50156 1.7C1.50156 1.7 1.50156 1.7 1.60156 1.5C1.60156 1.6 1.50156 1.6 1.60156 1.5Z" fill="#2688EB"/>
</g>
</g>
<defs>
<clipPath id="clip0_2612_66014">
<rect width="12" height="12" fill="white"/>
</clipPath>
</defs>
</svg>
