<svg width="15" height="16" viewBox="0 0 15 16" fill="none" xmlns="http://www.w3.org/2000/svg">
<g clip-path="url(#clip0_2612_65889)">
<path d="M7.5 0.5C11.7 0.5 15 3.8 15 8C15 12.2 11.7 15.5 7.5 15.5C3.3 15.5 0 12.2 0 8C0 3.8 3.3 0.5 7.5 0.5ZM7.5 1.4C3.9 1.4 0.9 4.4 0.9 8C0.9 11.6 3.8 14.6 7.5 14.6C11.2 14.6 14.1 11.7 14.1 8C14.1 4.3 11.1 1.4 7.5 1.4ZM7.5 4.4C7.8 4.4 8 4.6 8 4.9V7.6H10.7C10.9 7.6 11.2 7.8 11.2 8.1C11.2 8.4 11 8.6 10.7 8.6H8V11.3C8 11.5 7.8 11.8 7.5 11.8C7.2 11.8 7 11.4 7 11.1V8.5H4.4C4.1 8.5 3.9 8.2 3.9 8C3.9 7.8 4.1 7.5 4.4 7.5H7V4.9C7 4.6 7.2 4.4 7.5 4.4Z" fill="#2688EB"/>
</g>
<defs>
<clipPath id="clip0_2612_65889">
<rect width="15" height="16" fill="white"/>
</clipPath>
</defs>
</svg>
