<svg width="15" height="16" viewBox="0 0 15 16" fill="none" xmlns="http://www.w3.org/2000/svg">
<g clip-path="url(#clip0_2612_65879)">
<path fill-rule="evenodd" clip-rule="evenodd" d="M10.4016 6.9C10.4016 8.5 9.10156 9.8 7.50156 9.8C5.90156 9.8 4.60156 8.5 4.60156 6.9C4.60156 5.3 5.90156 4 7.50156 4C9.10156 4 10.4016 5.3 10.4016 6.9ZM9.50156 6.9C9.50156 5.8 8.60156 4.9 7.50156 4.9C6.40156 4.9 5.50156 5.8 5.50156 6.9C5.50156 8 6.40156 8.9 7.50156 8.9C8.60156 8.9 9.50156 8 9.50156 6.9Z" fill="#2688EB"/>
<path d="M7.50156 10.9004C9.50156 10.9004 11.3016 11.6004 12.7016 12.7004L12.0016 13.3004C10.7016 12.3004 9.20156 11.8004 7.40156 11.8004C5.60156 11.8004 4.10156 12.3004 2.80156 13.3004L2.10156 12.7004C3.70156 11.6004 5.50156 10.9004 7.50156 10.9004Z" fill="#2688EB"/>
<path fill-rule="evenodd" clip-rule="evenodd" d="M14.9016 7.99961C14.9016 11.9996 11.6016 15.3996 7.50156 15.3996C3.40156 15.3996 0.101562 11.9996 0.101562 7.99961C0.101562 3.99961 3.40156 0.599609 7.50156 0.599609C11.6016 0.599609 14.9016 3.89961 14.9016 7.99961ZM13.9016 7.99961C13.9016 11.5996 11.0016 14.3996 7.50156 14.3996C4.00156 14.3996 1.10156 11.5996 1.10156 7.99961C1.10156 4.39961 4.00156 1.59961 7.50156 1.59961C11.0016 1.59961 13.9016 4.39961 13.9016 7.99961Z" fill="#2688EB"/>
</g>
<defs>
<clipPath id="clip0_2612_65879">
<rect width="15" height="16" fill="white"/>
</clipPath>
</defs>
</svg>
