<svg width="24" height="24" viewBox="0 0 24 24" fill="none" xmlns="http://www.w3.org/2000/svg">
<g clip-path="url(#clip0_2612_65877)">
<path d="M7.89922 0.199609H16.3992C18.3992 0.199609 19.4992 0.399609 20.4992 0.899609L20.6992 0.999609C21.6992 1.49961 22.4992 2.29961 23.0992 3.39961C23.6992 4.49961 23.8992 5.49961 23.8992 7.49961V7.89961V16.1996V16.5996C23.8992 18.5996 23.6992 19.5996 23.0992 20.6996C22.5992 21.6996 21.7992 22.4996 20.6992 23.0996C19.5992 23.6996 18.5992 23.8996 16.5992 23.8996H16.1992H7.89922H7.49922C5.49922 23.8996 4.49922 23.6996 3.39922 23.0996C2.39922 22.5996 1.59922 21.7996 0.999219 20.6996C0.399219 19.5996 0.199219 18.5996 0.199219 16.5996V16.1996V7.69961C0.199219 5.69961 0.399219 4.59961 0.899219 3.59961L0.999219 3.29961C1.49922 2.29961 2.29922 1.49961 3.39922 0.899609C4.49922 0.299609 5.49922 0.0996094 7.49922 0.0996094L7.89922 0.199609ZM14.8992 11.9996L9.99922 17.9996C9.69922 18.2996 9.29922 18.3996 8.89922 18.1996H8.79922L6.09922 15.9996L2.29922 19.7996C2.29922 19.8996 2.39922 19.9996 2.39922 20.0996C2.79922 20.7996 3.39922 21.3996 4.09922 21.7996C4.89922 22.1996 5.69922 22.3996 7.49922 22.3996H7.89922H16.1992H16.5992C18.3992 22.3996 19.1992 22.1996 19.9992 21.7996C20.6992 21.3996 21.2992 20.7996 21.6992 20.0996C21.8992 19.6996 22.0992 19.1996 22.1992 18.5996L14.8992 11.9996ZM16.0992 1.79961H7.89922H7.49922C5.69922 1.79961 4.89922 1.99961 4.09922 2.39961C3.39922 2.79961 2.79922 3.39961 2.39922 4.09961C1.89922 4.99961 1.79922 5.79961 1.79922 7.89961V16.1996V16.5996C1.79922 17.0996 1.79922 17.4996 1.89922 17.8996L5.59922 14.2996C5.89922 13.9996 6.29922 13.9996 6.59922 14.1996H6.69922L9.39922 16.3996L14.3992 10.3996C14.6992 10.0996 15.1992 9.99961 15.4992 10.2996H15.5992L22.3992 16.3996V16.1996V7.89961V7.49961C22.3992 5.69961 22.1992 4.89961 21.7992 4.09961C21.3992 3.39961 20.7992 2.79961 20.0992 2.39961C18.9992 1.89961 18.1992 1.79961 16.0992 1.79961ZM7.39922 6.09961C8.09922 6.09961 8.69922 6.69961 8.69922 7.39961C8.69922 8.09961 8.19922 8.79961 7.39922 8.79961C6.59922 8.79961 6.09922 8.19961 6.09922 7.39961C6.09922 6.59961 6.69922 6.09961 7.39922 6.09961Z" fill="#2688EB"/>
</g>
<defs>
<clipPath id="clip0_2612_65877">
<rect width="24" height="24" fill="white"/>
</clipPath>
</defs>
</svg>
