<svg width="42" height="42" viewBox="0 0 42 42" fill="none" xmlns="http://www.w3.org/2000/svg">
<path d="M24.504 1.67969H5.88281V40.3197H36.1229V12.9639L24.504 1.67969ZM19.441 28.0511C19.0735 28.202 18.2925 28.353 17.6757 28.353C16.7077 28.353 15.976 28.0773 15.4083 27.5097C14.6766 26.8042 14.2894 25.5442 14.3124 24.0841C14.3485 20.9964 16.1138 19.7102 17.9152 19.7102C18.5583 19.7102 19.0374 19.8348 19.3032 19.9628L19.0111 21.3869C18.7716 21.2622 18.4566 21.1966 18.0432 21.1966C16.921 21.1966 16.0252 21.9644 16.0252 24.1825C16.0252 26.2267 16.8193 26.9552 17.5871 26.9552C17.738 26.9552 17.8529 26.942 17.9152 26.9191V24.865H17.1605V23.5164H19.441V28.0511ZM22.3252 28.2775H20.6747V19.7889H22.3252V28.2775ZM27.4932 21.2228H25.4522V23.4048H27.3652V24.7764H25.4522V28.2808H23.7985V19.7889H27.4932V21.2228ZM24.3629 13.4397V3.35969L34.4429 13.4397H24.3629Z" fill="#0170CC"/>
</svg>
