<svg width="17" height="17" viewBox="0 0 17 17" fill="none" xmlns="http://www.w3.org/2000/svg">
<path fill-rule="evenodd" clip-rule="evenodd" d="M0.398438 6.3C0.398438 3.7 2.49844 1.5 4.99844 1.5C6.29844 1.5 7.49844 2 8.49844 3.1C9.49844 2.1 10.5984 1.5 11.9984 1.5C14.5984 1.5 16.5984 3.6 16.5984 6.3C16.5984 7.7 16.1984 8.8 15.3984 9.9C14.5984 11 13.1984 12.1 11.3984 13.7L9.49844 15.3C8.99844 15.7 8.19844 15.7 7.69844 15.3L5.79844 13.7C3.89844 12.2 2.59844 11 1.79844 9.9C0.798437 8.8 0.398438 7.7 0.398438 6.3ZM4.99844 2.9C3.19844 2.9 1.69844 4.4 1.69844 6.3C1.69844 7.4 1.99844 8.2 2.69844 9.1C3.39844 10 4.59844 11.1 6.49844 12.6L8.39844 14.2L10.2984 12.6C12.1984 11 13.3984 10 14.0984 9.1C14.7984 8.2 15.0984 7.4 15.0984 6.3C15.0984 4.4 13.5984 2.9 11.7984 2.9C10.6984 2.9 9.69844 3.4 8.89844 4.5C8.79844 4.9 8.39844 4.9 8.09844 4.7C7.99844 4.6 7.99844 4.6 7.99844 4.6C7.09844 3.4 6.09844 2.9 4.99844 2.9Z" fill="#818C99"/>
</svg>
