<svg width="16" height="16" viewBox="0 0 16 16" fill="none" xmlns="http://www.w3.org/2000/svg">
<g clip-path="url(#clip0_2612_65886)">
<path d="M7.19861 4.90078C6.99861 5.00078 6.79861 5.20078 6.69861 5.50078C6.59861 5.80078 6.39861 5.90078 6.09861 5.80078C5.89861 5.70078 5.79861 5.40078 5.89861 5.20078C6.09861 4.70078 6.39861 4.40078 6.79861 4.10078C7.09861 3.90078 7.59861 3.80078 7.99861 3.80078C9.39861 3.80078 10.1986 5.00078 10.1986 6.00078C10.1986 6.90078 9.69861 7.40078 9.29861 7.70078C9.29861 7.70078 9.19861 7.70078 9.19861 7.80078C8.79861 8.10078 8.49861 8.40078 8.49861 9.10078C8.49861 9.40078 8.29861 9.60078 7.99861 9.60078C7.69861 9.60078 7.49861 9.40078 7.49861 9.10078C7.49861 8.00078 8.09861 7.50078 8.49861 7.10078C8.99861 6.60078 9.19861 6.40078 9.19861 6.00078C9.19861 5.40078 8.69861 4.80078 7.99861 4.80078C7.69861 4.70078 7.39861 4.80078 7.19861 4.90078ZM7.99861 12.0008C8.29861 12.0008 8.59861 11.7008 8.59861 11.4008C8.59861 11.1008 8.29861 10.8008 7.99861 10.8008C7.69861 10.8008 7.39861 11.1008 7.39861 11.4008C7.39861 11.7008 7.69861 12.0008 7.99861 12.0008Z" fill="#2688EB"/>
<path fill-rule="evenodd" clip-rule="evenodd" d="M8.00156 15.3996C12.1016 15.3996 15.4016 12.0996 15.4016 7.99961C15.4016 3.89961 12.1016 0.599609 8.00156 0.599609C3.90156 0.599609 0.601562 3.89961 0.601562 7.99961C0.601562 12.0996 3.90156 15.3996 8.00156 15.3996ZM8.00156 14.4996C11.6016 14.4996 14.5016 11.5996 14.5016 7.99961C14.5016 4.39961 11.6016 1.49961 8.00156 1.49961C4.40156 1.49961 1.50156 4.39961 1.50156 7.99961C1.50156 11.5996 4.40156 14.4996 8.00156 14.4996Z" fill="#2688EB"/>
</g>
<defs>
<clipPath id="clip0_2612_65886">
<rect width="16" height="16" fill="white"/>
</clipPath>
</defs>
</svg>
