<svg width="24" height="25" viewBox="0 0 24 25" fill="none" xmlns="http://www.w3.org/2000/svg">
<path d="M12.0006 1.00391C11.8962 1.00391 11.7922 1.03703 11.7034 1.10423L0.663481 9.72079C0.457081 9.88399 0.418718 10.1855 0.581918 10.3967C0.745118 10.6031 1.04665 10.6414 1.25785 10.4782L1.92067 9.96079V22.5795C1.92067 22.8435 2.13667 23.0595 2.40067 23.0595H9.12067V14.4195H14.8806V23.0595H21.6006C21.8646 23.0595 22.0806 22.8435 22.0806 22.5795V9.96079L22.7435 10.4782C22.8347 10.5454 22.935 10.5795 23.0406 10.5795C23.1846 10.5795 23.3234 10.5167 23.4194 10.3967C23.5826 10.1855 23.5442 9.88399 23.3378 9.72079L12.2978 1.10423C12.209 1.03703 12.105 1.00391 12.0006 1.00391ZM16.8006 2.89954V3.40391L19.6806 5.65016V2.89954H16.8006Z" fill="black"/>
</svg>
