<svg width="24" height="24" viewBox="0 0 24 24" fill="none" xmlns="http://www.w3.org/2000/svg">
<g clip-path="url(#clip0_2612_65884)">
<path d="M7.9 1.69961H15C15.2 1.69961 15.3 1.69961 15.5 1.69961V3.29961C15.3 3.29961 15 3.29961 14.8 3.29961H7.9H7.5C5.8 3.29961 5 3.39961 4.3 3.89961C3.6 4.19961 3 4.79961 2.6 5.39961C2.3 6.29961 2.1 6.99961 2 8.79961V16.0996C2.1 17.9996 2.2 18.6996 2.6 19.5996C3 20.2996 3.6 20.8996 4.3 21.2996C5.1 21.7996 5.8 21.8996 7.5 21.8996H7.9H14.8H15.2C16.9 21.8996 17.7 21.6996 18.4 21.2996C19.1 20.8996 19.7 20.3996 20.1 19.5996C20.6 18.7996 20.7 17.9996 20.7 16.1996V8.89961C20.7 8.69961 20.7 8.59961 20.7 8.39961H22.3C22.3 8.59961 22.3 8.69961 22.3 8.89961V16.2996C22.3 18.3996 22.1 19.3996 21.5 20.3996C21 21.3996 20.2 22.0996 19.2 22.6996C18.2 23.1996 17.2 23.4996 15.3 23.4996H14.8H8H7.5C5.5 23.4996 4.6 23.2996 3.6 22.6996C2.6 22.0996 1.9 21.3996 1.3 20.3996C0.8 19.2996 0.5 18.3996 0.5 16.2996V8.89961C0.5 6.79961 0.7 5.79961 1.3 4.79961C1.8 3.79961 2.6 3.09961 3.6 2.49961C4.6 1.89961 5.6 1.69961 7.5 1.69961H7.9ZM20.8 2.99961C21.2 3.39961 21.2 3.89961 20.8 4.29961L11.5 13.5996C11.3 13.7996 11 14.0996 10.8 14.2996C10.6 14.4996 10.3 14.6996 10 14.7996C9.8 14.9996 9.5 15.0996 9.2 15.2996L9 15.3996C8.8 15.4996 8.5 15.3996 8.5 15.1996C8.4 14.9996 8.4 14.9996 8.5 14.7996L8.6 14.5996C8.8 14.2996 8.9 13.9996 9.1 13.7996C9.3 13.5996 9.5 13.2996 9.6 12.9996C9.8 12.7996 10 12.4996 10.3 12.2996L19.5 2.99961C19.9 2.69961 20.5 2.69961 20.8 2.99961ZM21.5 7.49961C22 7.49961 22.3 7.89961 22.3 8.29961V8.49961H20.7V8.19961C20.7 7.89961 21 7.49961 21.5 7.49961ZM15.7 1.69961C16.2 1.69961 16.5 2.09961 16.5 2.49961C16.5 2.89961 16.1 3.29961 15.7 3.29961H15.5V1.69961H15.7ZM22.2 0.599609C22.8 0.599609 23.3 1.09961 23.3 1.69961C23.3 2.29961 22.8 2.79961 22.2 2.79961C21.6 2.79961 21.2 2.29961 21.2 1.69961C21.2 1.09961 21.6 0.599609 22.2 0.599609Z" fill="#2688EB"/>
</g>
<defs>
<clipPath id="clip0_2612_65884">
<rect width="24" height="24" fill="white"/>
</clipPath>
</defs>
</svg>
