<svg width="24" height="24" viewBox="0 0 24 24" fill="none" xmlns="http://www.w3.org/2000/svg">
<g clip-path="url(#clip0_2612_66040)">
<mask id="mask0_2612_66040" style="mask-type:luminance" maskUnits="userSpaceOnUse" x="0" y="0" width="24" height="24">
<path d="M24 0H0V24H24V0Z" fill="white"/>
</mask>
<g mask="url(#mask0_2612_66040)">
<path d="M3.60004 3.83984C2.67364 3.83984 1.92004 4.59344 1.92004 5.51984C1.92004 6.44624 2.67364 7.19984 3.60004 7.19984C4.52644 7.19984 5.28004 6.44624 5.28004 5.51984C5.28004 4.59344 4.52644 3.83984 3.60004 3.83984ZM19.92 3.83984C18.9936 3.83984 18.24 4.59344 18.24 5.51984C18.24 6.44624 18.9936 7.19984 19.92 7.19984C20.8464 7.19984 21.6 6.44624 21.6 5.51984C21.6 4.59344 20.8464 3.83984 19.92 3.83984ZM3.60004 8.15984C2.6722 8.15984 1.92004 8.912 1.92004 9.83984C1.92004 10.4029 1.92661 14.7786 1.92661 14.7786C1.99813 15.6426 2.73268 16.3198 3.60004 16.3198H6.24004V19.9198C6.24004 20.5827 6.77716 21.1198 7.44004 21.1198C8.10292 21.1198 8.64004 20.5827 8.64004 19.9198V15.3598C8.64004 14.5645 7.9954 13.9198 7.20004 13.9198H5.76004C5.49508 13.9198 5.28004 13.7048 5.28004 13.4398V9.83984C5.28004 8.912 4.52788 8.15984 3.60004 8.15984ZM19.92 8.15984C18.9922 8.15984 18.24 8.912 18.24 9.83984V13.4398C18.24 13.7048 18.025 13.9198 17.76 13.9198H16.32C15.5247 13.9198 14.88 14.5645 14.88 15.3598V19.9198C14.88 20.5827 15.4172 21.1198 16.08 21.1198C16.7429 21.1198 17.28 20.5827 17.28 19.9198V16.3198H19.92C20.7874 16.3198 21.522 15.6426 21.5935 14.7786C21.5935 14.7786 21.6 9.98768 21.6 9.83984C21.6 8.912 20.8479 8.15984 19.92 8.15984ZM0.472545 10.5533C0.345405 10.5553 0.224247 10.6076 0.135663 10.6988C0.047078 10.7901 -0.00169605 10.9127 4.50633e-05 11.0398V14.8798C4.50633e-05 16.7299 1.50996 18.2398 3.36004 18.2398H4.80004C4.86365 18.2407 4.9268 18.229 4.98583 18.2053C5.04485 18.1816 5.09857 18.1463 5.14387 18.1017C5.18917 18.057 5.22514 18.0038 5.24969 17.9451C5.27424 17.8864 5.28688 17.8235 5.28688 17.7598C5.28688 17.6962 5.27424 17.6333 5.24969 17.5746C5.22514 17.5159 5.18917 17.4627 5.14387 17.418C5.09857 17.3733 5.04485 17.3381 4.98583 17.3144C4.9268 17.2907 4.86365 17.2789 4.80004 17.2798H3.36004C2.02869 17.2798 0.960045 16.2112 0.960045 14.8798V11.0398C0.960924 10.9756 0.948909 10.9119 0.924709 10.8524C0.900509 10.7929 0.864618 10.7389 0.81916 10.6935C0.773703 10.6481 0.719603 10.6123 0.660065 10.5883C0.600528 10.5642 0.536762 10.5523 0.472545 10.5533ZM23.0325 10.5533C22.9054 10.5553 22.7842 10.6076 22.6957 10.6988C22.6071 10.7901 22.5583 10.9127 22.56 11.0398V14.8798C22.56 16.2112 21.4914 17.2798 20.16 17.2798H18.72C18.6564 17.2789 18.5933 17.2907 18.5343 17.3144C18.4752 17.3381 18.4215 17.3733 18.3762 17.418C18.3309 17.4627 18.295 17.5159 18.2704 17.5746C18.2458 17.6333 18.2332 17.6962 18.2332 17.7598C18.2332 17.8235 18.2458 17.8864 18.2704 17.9451C18.295 18.0038 18.3309 18.057 18.3762 18.1017C18.4215 18.1463 18.4752 18.1816 18.5343 18.2053C18.5933 18.229 18.6564 18.2407 18.72 18.2398H20.16C22.0101 18.2398 23.52 16.7299 23.52 14.8798V11.0398C23.5209 10.9756 23.5089 10.9119 23.4847 10.8524C23.4605 10.7929 23.4246 10.7389 23.3792 10.6935C23.3337 10.6481 23.2796 10.6123 23.2201 10.5883C23.1605 10.5642 23.0968 10.5523 23.0325 10.5533ZM6.72004 11.9998C6.65644 11.9989 6.59329 12.0107 6.53426 12.0344C6.47524 12.0581 6.42152 12.0933 6.37622 12.138C6.33092 12.1827 6.29495 12.2359 6.2704 12.2946C6.24585 12.3533 6.23321 12.4162 6.23321 12.4798C6.23321 12.5435 6.24585 12.6064 6.2704 12.6651C6.29495 12.7238 6.33092 12.777 6.37622 12.8217C6.42152 12.8663 6.47524 12.9016 6.53426 12.9253C6.59329 12.949 6.65644 12.9607 6.72004 12.9598H16.8C16.8636 12.9607 16.9268 12.949 16.9858 12.9253C17.0448 12.9016 17.0986 12.8663 17.1439 12.8217C17.1892 12.777 17.2251 12.7238 17.2497 12.6651C17.2742 12.6064 17.2869 12.5435 17.2869 12.4798C17.2869 12.4162 17.2742 12.3533 17.2497 12.2946C17.2251 12.2359 17.1892 12.1827 17.1439 12.138C17.0986 12.0933 17.0448 12.0581 16.9858 12.0344C16.9268 12.0107 16.8636 11.9989 16.8 11.9998H6.72004Z" fill="black"/>
</g>
</g>
<defs>
<clipPath id="clip0_2612_66040">
<rect width="24" height="24" fill="white"/>
</clipPath>
</defs>
</svg>
