<svg width="20" height="20" viewBox="0 0 20 20" fill="none" xmlns="http://www.w3.org/2000/svg">
<g clip-path="url(#clip0_2767_67736)">
<path d="M10.0011 1.42871C14.735 1.42871 18.5725 5.26627 18.5725 10.0001C18.5725 14.734 14.735 18.5716 10.0011 18.5716C5.26725 18.5716 1.42969 14.734 1.42969 10.0001C1.42969 5.26627 5.26725 1.42871 10.0011 1.42871ZM10.0011 2.50014C5.85898 2.50014 2.50112 5.858 2.50112 10.0001C2.50112 14.1423 5.85898 17.5001 10.0011 17.5001C14.1433 17.5001 17.5011 14.1423 17.5011 10.0001C17.5011 5.858 14.1433 2.50014 10.0011 2.50014ZM10.0011 8.75014C10.2796 8.75014 10.5084 8.9626 10.5344 9.23426L10.5368 9.28585V13.2144C10.5368 13.5103 10.297 13.7501 10.0011 13.7501C9.72265 13.7501 9.49381 13.5377 9.46785 13.266L9.4654 13.2144V9.28585C9.4654 8.98999 9.70525 8.75014 10.0011 8.75014ZM10.0011 6.07157C10.3956 6.07157 10.7154 6.39136 10.7154 6.78585C10.7154 7.18034 10.3956 7.50014 10.0011 7.50014C9.60663 7.50014 9.28683 7.18034 9.28683 6.78585C9.28683 6.39136 9.60663 6.07157 10.0011 6.07157Z" fill="white"/>
</g>
<defs>
<clipPath id="clip0_2767_67736">
<rect width="20" height="20" fill="white"/>
</clipPath>
</defs>
</svg>
