<svg width="38" height="38" viewBox="0 0 38 38" fill="none" xmlns="http://www.w3.org/2000/svg">
<g opacity="0.5">
<path d="M28.65 6H8.35C5.94735 6 4 7.91062 4 10.268V27.3398V28.7624V29.9404C4 32.4243 6.8623 33.8697 8.92275 32.4257L14.15 28.7624H28.65C31.0527 28.7624 33 26.8518 33 24.4945V10.268C33 7.91062 31.0527 6 28.65 6Z" fill="#0170CC"/>
<path d="M19 20C17.8947 20 17 18.9456 17 17.6429V11.3571C17 10.0544 17.8947 9 19 9C20.1053 9 21 10.0544 21 11.3571V17.6429C21 18.9456 20.1053 20 19 20Z" fill="white"/>
<path d="M19 25C20.1046 25 21 24.1046 21 23C21 21.8954 20.1046 21 19 21C17.8954 21 17 21.8954 17 23C17 24.1046 17.8954 25 19 25Z" fill="white"/>
</g>
</svg>
