<svg width="32" height="32" viewBox="0 0 32 32" fill="none" xmlns="http://www.w3.org/2000/svg">
<path d="M27.7802 8.98667C27.5135 9.16 27.1336 9.32 26.9736 9.5C26.9135 9.56 26.8802 9.62667 26.8936 9.69333V10.38L26.6936 11.0533L26.4936 11.72L26.2735 12.4533L25.8202 13.9533L25.3802 15.4333L25.0469 16.5467C25.0469 16.72 25.0402 16.8933 25.0269 17.06C24.9802 17.7 24.8469 18.3133 24.6336 18.8867C24.5069 19.24 24.3535 19.58 24.1669 19.9C24.1002 20.0267 24.0202 20.1533 23.9402 20.2733C23.6735 20.6933 23.3536 21.08 23.0002 21.42C22.7269 21.6933 22.4269 21.9467 22.1002 22.16C22.1002 22.16 22.1002 22.16 22.0935 22.16C22.0402 22.2067 21.9802 22.2467 21.9135 22.28C21.7069 22.42 21.4869 22.54 21.2602 22.6467C21.1069 22.7267 20.9536 22.7933 20.7936 22.8533C20.7602 22.8733 20.7202 22.8867 20.6869 22.9C20.3069 23.08 19.8669 23.2 19.4269 23.26C19.4002 23.2667 19.3802 23.2667 19.3536 23.2733C19.0869 23.32 18.8269 23.36 18.5602 23.38C18.4402 23.3933 18.3136 23.4 18.1936 23.4L17.7202 23.3733L15.4402 23.2533C15.4402 23.2467 15.4335 23.2533 15.4335 23.2533L14.2869 23.1933C14.2002 23.1933 14.1069 23.1933 14.0202 23.1867C13.6602 23.1733 13.3136 23.1333 12.9669 23.06C12.9602 23.06 12.9602 23.06 12.9602 23.06C12.3269 22.94 11.7202 22.7267 11.1535 22.44C10.8402 22.28 10.5335 22.1 10.2469 21.8933C10.1269 21.8067 10.0136 21.7133 9.90026 21.6133C9.58026 21.3467 9.29359 21.06 9.02692 20.7667C8.98692 20.7267 8.95359 20.6867 8.92026 20.6467C8.88026 20.6067 8.84026 20.56 8.80692 20.52C8.55359 20.2 8.34026 19.8733 8.16692 19.5267C8.00692 19.22 7.88026 18.8933 7.78026 18.5333C7.74026 18.4067 7.70692 18.2867 7.68026 18.1533C7.67359 18.1467 7.66692 18.1333 7.66692 18.12C7.60026 17.8467 7.54026 17.56 7.50692 17.2733C7.46692 17.0533 7.44692 16.8333 7.44692 16.6067C7.43359 16.52 7.43359 16.4267 7.43359 16.34L8.70692 14.3733L9.95359 12.4533L10.5202 11.58L11.0335 10.7933L11.2069 10.52V9.83333C11.2202 9.68 11.2269 9.52 11.2202 9.37333C11.2135 8.90667 11.1202 8.45333 10.9669 8.02C10.8202 7.56 10.6136 7.12667 10.4002 6.72667C10.1469 6.26667 9.88026 5.85333 9.66026 5.48C9.33359 4.93333 9.10692 4.48667 9.16692 4.17333C9.64692 4.06 10.1535 4 10.6669 4H21.3336C24.1202 4 26.5202 5.73333 27.5136 8.17333C27.6202 8.43333 27.7135 8.70667 27.7802 8.98667Z" fill="#304FFE"/>
<path d="M27.9994 10.6667V10.8467L27.0794 11.38L26.4928 11.72L25.8461 12.0933L24.5528 12.8467L23.2861 13.58L21.9928 14.3267L21.4794 14.6267C21.4794 14.9467 21.3994 15.24 21.2528 15.5067C21.0461 15.8933 20.6994 16.2133 20.2594 16.4867C19.8128 16.76 19.2661 16.98 18.6528 17.14C18.6528 17.14 18.6528 17.1333 18.6461 17.14C16.2728 17.7533 13.0328 17.4733 11.4594 16.3C11.0194 15.9733 10.7128 15.5733 10.5794 15.1133C10.5394 14.96 10.5194 14.7933 10.5194 14.6267V9.83333C10.5261 9.73333 10.4594 9.63333 10.3394 9.53333C9.97943 9.24667 9.13276 8.97333 8.18609 8.7C7.44609 8.49333 6.65276 8.28667 5.98609 8.08667C5.45943 7.92667 5.01276 7.76667 4.74609 7.61333C4.86609 7.38 5.00609 7.14667 5.15276 6.92667C6.08609 5.56 7.51276 4.55333 9.16609 4.17333C9.64609 4.06 10.1528 4 10.6661 4H17.8661C21.4461 4.62667 24.7461 6.08667 27.5128 8.17333C27.6194 8.43333 27.7128 8.70667 27.7794 8.98667C27.8994 9.42667 27.9728 9.88 27.9928 10.3533C27.9994 10.4533 27.9994 10.56 27.9994 10.6667Z" fill="#4928F4"/>
<path d="M27.9999 10.6658V13.6058L27.8533 14.0591L27.3533 15.6124L26.8333 17.2124L26.5599 18.0658L26.3066 18.8591L26.0599 19.6124L25.8199 20.3591L25.6933 20.7524L25.5266 21.2724C25.5266 21.7791 25.5133 22.2258 25.4799 22.6058C25.4733 22.6458 25.4666 22.6858 25.4666 22.7258C25.4266 23.0791 25.3733 23.3791 25.2866 23.6324C25.2799 23.6724 25.2666 23.7124 25.2533 23.7458C25.0799 24.2258 24.8199 24.5324 24.4333 24.7324C24.3399 24.7858 24.2333 24.8258 24.1199 24.8658C23.7666 24.9858 23.3199 25.0458 22.7733 25.0791C22.3733 25.1058 21.9133 25.1124 21.3933 25.1124H20.9333L20.1399 25.0791L19.9999 25.0724L18.5533 25.0124L17.0866 24.9524L12.2533 24.7524L10.9999 24.6991H10.8266C10.3066 24.6924 9.85995 24.6591 9.47328 24.6058C8.91328 24.5191 8.47995 24.3724 8.15328 24.1524C7.68661 23.8524 7.41328 23.4124 7.25328 22.7991C7.21328 22.6524 7.17995 22.4991 7.15995 22.3324C7.09328 21.9458 7.05995 21.4991 7.03995 20.9991C7.03995 20.8991 7.03995 20.7991 7.03328 20.6924C7.02661 20.6858 7.03328 20.6858 7.03328 20.6858V20.2991C7.02661 20.1058 7.02661 19.9058 7.02661 19.6991L7.05995 18.6258L7.07995 17.8591L7.10661 16.9658V16.8391L7.15328 15.1991L7.19995 13.5591L7.24661 12.0191L7.28661 10.5058L7.29995 10.1058C7.29995 9.89906 6.59995 9.77906 5.81995 9.67906C5.19995 9.59906 4.51995 9.52573 4.11328 9.4324C4.14661 9.27906 4.17995 9.12573 4.21995 8.97906C4.33995 8.49906 4.51995 8.04573 4.74661 7.6124C4.86661 7.37906 5.00661 7.14573 5.15328 6.92573C6.59328 6.2924 8.09328 5.79906 9.65995 5.47906C11.0333 5.1924 12.4666 5.03906 13.9466 5.03906C18.8533 5.03906 23.3866 6.69906 26.9733 9.49906C27.3199 9.76573 27.6599 10.0524 27.9933 10.3524C27.9999 10.4524 27.9999 10.5591 27.9999 10.6658Z" fill="#6200EA"/>
<path d="M28 12.2463V15.2729L27.6333 15.9796L26.9333 17.3463L26.56 18.0663L26.22 18.7263L26.0733 19.0129C26.0733 19.2196 26.0733 19.4196 26.06 19.6129C26.06 19.8996 26.0467 20.1729 26.0267 20.4263C26 20.7263 25.96 20.9996 25.92 21.2529C25.82 21.7796 25.68 22.2329 25.48 22.6063C25.4533 22.6529 25.4267 22.6996 25.4 22.7396C25.3267 22.8596 25.24 22.9729 25.1467 23.0796C25.0267 23.2263 24.8933 23.3529 24.74 23.4596C24.5133 23.6329 24.2467 23.7729 23.94 23.8796C23.56 24.0196 23.12 24.1129 22.6 24.1663C22.26 24.1996 21.8867 24.2196 21.48 24.2196L21.2 24.2329L19.8133 24.3129H19.8067L18.3333 24.3996L16.8333 24.4863L14.7667 24.6063L12.2533 24.7529L11.8867 24.7729C11.5467 24.7729 11.2267 24.7529 10.92 24.7129C10.8867 24.7063 10.86 24.6996 10.8267 24.6996C10.3733 24.6263 9.96 24.5063 9.58667 24.3396C9.13333 24.1396 8.74 23.8729 8.40667 23.5529C8.11333 23.2663 7.86 22.9396 7.65333 22.5729C7.60667 22.4863 7.56 22.4063 7.52 22.3129C7.32 21.9196 7.16 21.4796 7.04 20.9996C7.02 20.9196 7 20.8329 6.98667 20.7463C6.94667 20.5929 6.91333 20.4329 6.89333 20.2663C6.82 19.8396 6.78 19.3863 6.76 18.9129V18.9063C6.75333 18.7129 6.74667 18.5263 6.74667 18.3263L6.42 17.5463L6.37333 17.4263L6.33333 17.3263L5.83333 16.1329L5.75333 15.9396L5.27333 14.7863L4.74 13.4996C4.74 13.4996 4.74 13.4996 4.73333 13.4996L4.19333 12.1996L4 11.7263V10.6663C4 10.2463 4.04 9.83292 4.11333 9.43292C4.14667 9.27959 4.18 9.12625 4.22 8.97959C4.78667 8.65292 5.38 8.35292 5.98667 8.08625C7.37333 7.46625 8.86 7.00625 10.4 6.72625C11.5467 6.51959 12.74 6.40625 13.9467 6.40625C18.82 6.40625 23.24 8.17292 26.6933 11.0529C26.8267 11.1596 26.9533 11.2663 27.08 11.3796C27.3933 11.6529 27.7 11.9396 28 12.2463Z" fill="#673AB7"/>
<path d="M28 14.2326V17.6593L27.62 18.4526L26.9 19.9526L26.8933 19.9726C26.8933 20.2593 26.88 20.5193 26.86 20.7526C26.7933 21.5193 26.6067 22.006 26.3 22.306C26.08 22.5326 25.8067 22.6593 25.4667 22.726C25.4467 22.7326 25.42 22.7326 25.4 22.7393C25.2933 22.7593 25.18 22.7726 25.06 22.7726C24.6467 22.8126 24.16 22.786 23.6 22.746C23.54 22.746 23.4733 22.7393 23.4067 22.7326C23 22.706 22.5667 22.6793 22.0867 22.6593C21.8267 22.6526 21.5533 22.646 21.2733 22.646H21.26L20.5867 22.6993H20.58L19.0667 22.806L17.34 22.9393L17.0867 22.9593L15.0667 23.106L14.02 23.186L12.9867 23.2593C12.8067 23.2593 12.6333 23.2593 12.46 23.2526C12.46 23.2526 12.4533 23.246 12.4533 23.2526C11.7 23.2393 11.0267 23.1926 10.4267 23.0793C9.87333 22.986 9.38667 22.8393 8.97333 22.6193C8.54667 22.4126 8.19333 22.1193 7.90667 21.746C7.63333 21.3793 7.43333 20.9193 7.30667 20.366C7.30667 20.3593 7.30667 20.3593 7.30667 20.3593C7.21333 19.9126 7.16 19.3926 7.16 18.806L7.06 18.626L6.46667 17.566L6.38 17.4193L6.33333 17.326L5.71333 16.226L5.40667 15.6726L5.02 14.986L4.35333 13.7926L4 13.166V10.7126C4.58667 10.326 5.19333 9.98597 5.82 9.6793C6.58 9.29263 7.36667 8.96597 8.18667 8.6993C9.08 8.40597 10.0133 8.17263 10.9667 8.0193C11.9333 7.8593 12.9267 7.7793 13.9467 7.7793C18.48 7.7793 22.64 9.3993 25.8467 12.0926C25.9933 12.206 26.1333 12.3326 26.2733 12.4526C26.8333 12.9526 27.3667 13.4926 27.8533 14.0593C27.9067 14.1193 27.96 14.1726 28 14.2326Z" fill="#8E24AA"/>
<path d="M28 16.4731V21.2931C27.84 21.1998 27.62 21.0865 27.3467 20.9665C27.2 20.8931 27.0333 20.8198 26.86 20.7531C26.6067 20.6398 26.3333 20.5331 26.0267 20.4265C25.96 20.3998 25.8933 20.3798 25.82 20.3598C25.7 20.3131 25.5733 20.2731 25.4467 20.2331C25.0533 20.1131 24.62 19.9998 24.1667 19.8998C23.9933 19.8665 23.8133 19.8331 23.6333 19.8065C23.0533 19.7065 22.4333 19.6465 21.7867 19.6398C21.7333 19.6331 21.6733 19.6331 21.62 19.6331L19.9067 19.6465L17.5733 19.6598H17.5667L12.5733 19.6998C10.9867 19.6998 10.0133 20.0798 9.42667 20.2331C9.42667 20.2331 9.42 20.2331 9.42 20.2398C8.8 20.3998 8.60667 20.2998 8.55333 19.2131C8.54 18.9131 8.53333 18.5265 8.53333 18.0531L8.16 17.7665L7.50667 17.2731L7.10667 16.9665L7.02667 16.9065L5.92 16.0665L5.75333 15.9398L5.40667 15.6731L4.76667 15.1931L4 14.6065V12.3398C4.06667 12.2865 4.12667 12.2398 4.19333 12.1998C5.16 11.5331 6.19333 10.9665 7.28667 10.5065C8.26 10.0931 9.28667 9.76648 10.34 9.53314C10.6267 9.47314 10.92 9.41314 11.22 9.37314C12.1067 9.21981 13.02 9.14648 13.9467 9.14648C17.9533 9.14648 21.6333 10.5398 24.5533 12.8465C24.9933 13.1931 25.42 13.5598 25.82 13.9531C26.3667 14.4731 26.88 15.0265 27.3533 15.6131C27.4467 15.7331 27.54 15.8531 27.6333 15.9798C27.76 16.1398 27.88 16.3065 28 16.4731Z" fill="#C2185B"/>
<path d="M28 19.1462V21.3328C28 21.7662 27.96 22.1928 27.88 22.6062C27.76 23.2195 27.5533 23.8062 27.2733 24.3528C27.1267 24.3862 26.96 24.3862 26.7733 24.3595C26.3533 24.2862 25.86 24.0662 25.3267 23.7795C25.3 23.7728 25.2733 23.7595 25.2533 23.7462C25.0867 23.6595 24.9133 23.5662 24.74 23.4595C24.3867 23.2662 24.0133 23.0528 23.64 22.8528C23.56 22.8128 23.48 22.7728 23.4067 22.7328C22.98 22.5128 22.54 22.3128 22.1 22.1595C22.1 22.1595 22.1 22.1595 22.0933 22.1595C22 22.1262 21.9 22.0928 21.8 22.0662C21.42 21.9595 21.0333 21.8928 20.66 21.8928L19.9267 21.6795L16.68 20.7395C16.68 20.7395 16.68 20.7395 16.6733 20.7395L14.68 20.1595H14.6733L13.8067 19.9062C11.3 19.9062 9.76 20.9728 9.01333 20.5662C8.72 20.4128 8.54667 20.0262 8.48667 19.2662C8.46667 19.0528 8.46 18.8128 8.46 18.5328L7.68 18.1528L7.64667 18.1395H7.64L7.08 17.8595L6.46667 17.5662L6.42 17.5462L6.30667 17.4862L5 16.8528L4 16.3662V14.0795C4.11333 13.9795 4.23333 13.8862 4.35333 13.7928C4.48 13.6928 4.60667 13.5995 4.73333 13.4995C4.74 13.4995 4.74 13.4995 4.74 13.4995C5.52667 12.9328 6.36 12.4328 7.24667 12.0195C8.28 11.5262 9.38 11.1462 10.52 10.8995C10.6867 10.8595 10.86 10.8195 11.0333 10.7928C11.98 10.6128 12.9533 10.5195 13.9467 10.5195C17.46 10.5195 20.6867 11.6595 23.2867 13.5795C24.04 14.1395 24.74 14.7595 25.38 15.4328C25.9067 15.9862 26.3933 16.5862 26.8333 17.2128C26.8667 17.2595 26.9 17.3062 26.9333 17.3462C27.18 17.7062 27.4067 18.0728 27.62 18.4528C27.76 18.6795 27.88 18.9128 28 19.1462Z" fill="#D81B60"/>
<path d="M27.88 22.6067C27.76 23.22 27.5533 23.8067 27.2733 24.3533C27.1467 24.6 27.0067 24.8333 26.8533 25.06C26.76 25.2 26.66 25.3333 26.56 25.46C26.32 25.3667 25.9667 25.2333 25.5333 25.0867C25.5333 25.0867 25.5333 25.0867 25.5333 25.08C25.2067 24.9667 24.8333 24.8467 24.4333 24.7333C24.32 24.7 24.2067 24.6667 24.0867 24.6333C23.6133 24.5067 23.12 24.3933 22.64 24.3267C22.24 24.26 21.8467 24.22 21.48 24.22L21.1733 24.1333H21.1667L19.5533 23.6667L18.56 23.38L17.4533 23.06H17.4467L17.0867 22.96L12.7333 21.7067L11.48 21.3467L10.5467 21.1267L9.02667 20.7667L8.84 20.72C8.84 20.72 8.84 20.72 8.83333 20.72L7.30667 20.3667C7.30667 20.36 7.30667 20.36 7.30667 20.36L7.03333 20.3L6.89333 20.2667L5.78 20.0067L5.65333 19.9733L4.70667 19.1933L4 18.6V15.88C4.24667 15.64 4.5 15.4133 4.76667 15.1933C4.84667 15.12 4.93333 15.0533 5.02 14.9867C5.1 14.92 5.18667 14.8533 5.27333 14.7867C5.88 14.3267 6.52 13.9133 7.2 13.56C8.06667 13.0933 8.98667 12.72 9.95333 12.4533C10.14 12.3933 10.3267 12.34 10.52 12.3C11.6133 12.0267 12.76 11.8867 13.9467 11.8867C16.9267 11.8867 19.7 12.7867 21.9933 14.3267C23.1333 15.0933 24.16 16.0133 25.0267 17.06C25.4667 17.5867 25.8667 18.14 26.22 18.7267C26.2533 18.7733 26.28 18.8133 26.3067 18.86C26.52 19.2133 26.72 19.58 26.9 19.9533C27.0667 20.2867 27.2133 20.62 27.3467 20.9667C27.56 21.5 27.7333 22.0467 27.88 22.6067Z" fill="#F50057"/>
<path d="M26.8533 25.0598C26.76 25.1998 26.66 25.3331 26.56 25.4598C26.2667 25.8265 25.9467 26.1598 25.5867 26.4531C25.2733 26.7131 24.94 26.9465 24.5867 27.1465C24.4533 27.1131 24.32 27.0731 24.18 27.0198C23.74 26.8665 23.28 26.6131 22.8533 26.3465C22.2133 25.9398 21.66 25.4998 21.4133 25.2998C21.32 25.2198 21.2733 25.1798 21.2733 25.1798L20.14 25.0798L20 25.0665L18.5333 24.9398L17.0133 24.8065L14.7667 24.6065L11.2067 24.2931L11.1933 24.2865L9.94 23.6798L8.67333 23.0665L7.65333 22.5731L7.43333 22.4665L7.16 22.3331L6.21333 21.8731L4.95333 21.2665L4.56 21.0731L4 20.8998V17.9198C4.31333 17.5465 4.64667 17.1931 5 16.8531C5.22667 16.6398 5.46667 16.4265 5.71333 16.2265C5.75333 16.1931 5.79333 16.1598 5.83333 16.1331C5.86 16.0998 5.89333 16.0798 5.92 16.0665C6.31333 15.7465 6.72667 15.4598 7.15333 15.1998C7.64667 14.8865 8.16667 14.6065 8.70667 14.3731C9.28667 14.1131 9.89333 13.8931 10.52 13.7265C11.6067 13.4198 12.76 13.2598 13.9467 13.2598C16.6667 13.2598 19.18 14.0865 21.2533 15.5065C22.58 16.4131 23.7267 17.5598 24.6333 18.8865C24.9333 19.3131 25.2 19.7665 25.4467 20.2331C25.5333 20.4065 25.62 20.5798 25.6933 20.7531C25.7733 20.9198 25.8467 21.0865 25.92 21.2531C26.06 21.5998 26.1867 21.9465 26.3 22.3065C26.5133 22.9731 26.6733 23.6531 26.7733 24.3598C26.8067 24.5931 26.8333 24.8265 26.8533 25.0598Z" fill="#FF1744"/>
<path d="M25.5933 26.2803C25.5933 26.3336 25.5933 26.3936 25.5867 26.4536C25.2733 26.7136 24.94 26.947 24.5867 27.147C24.44 27.227 24.2933 27.307 24.14 27.3736C23.9867 27.447 23.8333 27.5136 23.6733 27.5736C23.4467 27.4536 23.14 27.307 22.8133 27.167C22.3533 26.9603 21.8533 26.7736 21.4667 26.7136C21.3733 26.6936 21.2867 26.687 21.2067 26.687L20.1133 26.547H20.1L18.74 26.367L17.3667 26.187L16.7267 26.107L11.6867 25.4536C11.36 25.4536 11.0133 25.4336 10.6533 25.387C10.2133 25.347 9.75333 25.2803 9.29333 25.187C8.84 25.107 8.38 25.0003 7.94 24.887C7.48 24.7803 7.02667 24.6536 6.60667 24.5336C6.12 24.387 5.66667 24.247 5.28667 24.1203C4.97333 24.0203 4.70667 23.927 4.5 23.8536C4.38 23.567 4.28 23.267 4.20667 22.9603C4.06667 22.4403 4 21.8936 4 21.3336V20.2203C4.21333 19.867 4.44667 19.5203 4.70667 19.1936C5.18 18.567 5.72 17.9936 6.30667 17.487C6.32667 17.4603 6.35333 17.4403 6.37333 17.427L6.38 17.4203C6.58667 17.2336 6.8 17.067 7.02667 16.907C7.05333 16.8803 7.08 16.8603 7.10667 16.8403C7.21333 16.7603 7.32667 16.6803 7.44667 16.607C8.4 15.9603 9.45333 15.4536 10.58 15.1136C11.6467 14.7936 12.7733 14.627 13.9467 14.627C16.2733 14.627 18.4467 15.3136 20.26 16.487C21.6 17.347 22.7533 18.4803 23.6333 19.807C23.74 19.9603 23.84 20.1136 23.94 20.2736C24.4 21.0536 24.78 21.8936 25.06 22.7736C25.0933 22.8736 25.12 22.9736 25.1467 23.0803C25.2 23.2603 25.2467 23.447 25.2867 23.6336C25.3 23.6803 25.3133 23.727 25.3267 23.7803C25.42 24.2003 25.4867 24.6403 25.5333 25.0803C25.5333 25.087 25.5333 25.087 25.5333 25.087C25.5733 25.4803 25.5933 25.8803 25.5933 26.2803Z" fill="#FF5722"/>
<path d="M24.2204 26.28C24.2204 26.5133 24.2071 26.7667 24.1804 27.02C24.1671 27.14 24.1537 27.26 24.1404 27.3733C23.9871 27.4467 23.8337 27.5133 23.6737 27.5733C23.3737 27.6867 23.0671 27.78 22.7537 27.8467C22.5404 27.8933 22.3204 27.9333 22.1004 27.9533H22.0937C21.8871 27.8267 21.6471 27.6733 21.4004 27.5C20.9537 27.1867 20.4871 26.8333 20.1137 26.5467C20.1071 26.54 20.1071 26.54 20.1004 26.5333C19.7071 26.2333 19.4271 26.0067 19.4271 26.0067L18.7204 26.0333L17.3604 26.08L16.7271 26.1067L14.1804 26.2L12.0271 26.28C11.8871 26.2867 11.7204 26.2867 11.5137 26.28H11.5071C11.2271 26.2733 10.8937 26.2533 10.5271 26.22C10.1004 26.1867 9.63369 26.1467 9.16036 26.1C8.70036 26.0467 8.23369 25.9933 7.78702 25.94C7.29369 25.8867 6.82703 25.8267 6.42703 25.7733C6.11369 25.7333 5.84036 25.7 5.62036 25.6733C5.43369 25.46 5.26702 25.24 5.10702 25C4.86702 24.64 4.66036 24.26 4.50036 23.8533C4.38036 23.5667 4.28036 23.2667 4.20703 22.96C4.40036 22.3667 4.65369 21.8067 4.95369 21.2667C5.19369 20.8267 5.47369 20.4067 5.78036 20.0067C6.08036 19.6133 6.40703 19.2467 6.76036 18.9133V18.9067C6.86036 18.8067 6.96036 18.7133 7.06036 18.6267C7.24703 18.4533 7.44036 18.2933 7.64036 18.14H7.64703C7.65369 18.1267 7.66036 18.1267 7.66702 18.12C7.82702 17.9933 7.99369 17.88 8.16036 17.7667C9.14702 17.0933 10.2604 16.5933 11.4604 16.3C12.2537 16.1067 13.0871 16 13.9471 16C15.6404 16 17.2404 16.4067 18.6471 17.14H18.6537C19.8604 17.76 20.9271 18.6133 21.7871 19.64C22.2604 20.1867 22.6671 20.7867 23.0004 21.42C23.2337 21.8467 23.4337 22.2933 23.6004 22.7467C23.6137 22.7867 23.6271 22.82 23.6404 22.8533C23.7537 23.1867 23.8537 23.5333 23.9404 23.88C24.0004 24.1267 24.0471 24.38 24.0871 24.6333C24.1004 24.7133 24.1137 24.7867 24.1204 24.8667C24.1871 25.3267 24.2204 25.8 24.2204 26.28Z" fill="#FF6F00"/>
<path d="M22.8522 26.2797V26.3464C22.8522 26.573 22.8322 26.8597 22.8122 27.1664C22.7922 27.393 22.7722 27.6264 22.7522 27.8464C22.5388 27.893 22.3188 27.933 22.0988 27.953H22.0922C21.8388 27.9864 21.5922 27.9997 21.3322 27.9997H20.1655L19.9122 27.9264L18.5988 27.5264L17.2655 27.1264L14.1788 26.1997L12.8455 25.7997C12.8455 25.7997 12.2922 26.0197 11.5122 26.2797H11.5055C11.2055 26.3797 10.8788 26.4864 10.5322 26.593C10.0988 26.7197 9.6388 26.8464 9.18547 26.9464C8.7188 27.053 8.2588 27.133 7.84547 27.1664C7.7188 27.1797 7.59214 27.1864 7.4788 27.1864C7.10547 26.9797 6.74547 26.733 6.4188 26.4597C6.13214 26.2197 5.86547 25.9597 5.6188 25.673C5.43214 25.4597 5.26547 25.2397 5.10547 24.9997C5.15214 24.6997 5.20547 24.4064 5.28547 24.1197C5.48547 23.3264 5.7988 22.5664 6.21214 21.873C6.4388 21.4797 6.69214 21.0997 6.98547 20.7464C6.99214 20.7264 7.01214 20.7064 7.03214 20.693C7.02547 20.6864 7.03214 20.6864 7.03214 20.6864C7.1188 20.573 7.21214 20.4664 7.30547 20.3664C7.30547 20.3597 7.30547 20.3597 7.30547 20.3597C7.5788 20.0664 7.8588 19.7864 8.16547 19.5264C8.27214 19.4397 8.37214 19.353 8.48547 19.2664C8.50547 19.2464 8.52547 19.233 8.55214 19.213C10.0522 18.0664 11.9255 17.373 13.9455 17.373C16.2388 17.373 18.3255 18.233 19.9055 19.6464C20.6655 20.333 21.3122 21.153 21.7988 22.0664C21.8388 22.133 21.8788 22.2064 21.9122 22.2797C21.9722 22.3997 22.0322 22.5264 22.0855 22.6597C22.3055 23.1397 22.4788 23.6464 22.5988 24.1664C22.6122 24.2197 22.6255 24.273 22.6388 24.3264C22.6922 24.573 22.7388 24.8264 22.7722 25.0797C22.8255 25.473 22.8522 25.873 22.8522 26.2797Z" fill="#FF9800"/>
<path d="M21.4795 26.2802C21.4795 26.4135 21.4729 26.5602 21.4662 26.7135C21.4529 26.9602 21.4329 27.2269 21.3995 27.5002C21.3862 27.6669 21.3595 27.8335 21.3329 28.0002H17.6795L16.9729 27.8869L14.2129 27.4469L13.8195 27.3869L12.9195 27.2402C12.5262 27.2402 11.6729 27.4135 10.7729 27.5802C10.2995 27.6669 9.81958 27.7602 9.38625 27.8202C9.33291 27.8269 9.27958 27.8335 9.23291 27.8402H9.22625C8.75958 27.7402 8.30625 27.5869 7.87958 27.3869C7.74625 27.3269 7.61291 27.2602 7.47958 27.1869C7.10625 26.9802 6.74625 26.7335 6.41958 26.4602C6.41291 26.3802 6.40625 26.3135 6.40625 26.2802C6.40625 26.1069 6.41291 25.9402 6.42625 25.7735C6.45291 25.3469 6.51291 24.9335 6.60625 24.5335C6.75291 23.9269 6.96625 23.3402 7.25291 22.8002C7.30625 22.6869 7.36625 22.5735 7.43291 22.4669C7.45958 22.4135 7.49291 22.3669 7.51958 22.3135C7.63958 22.1202 7.77291 21.9335 7.90625 21.7469C8.18625 21.3802 8.49958 21.0335 8.83291 20.7202C8.83958 20.7202 8.83958 20.7202 8.83958 20.7202C8.86625 20.6935 8.89291 20.6669 8.91958 20.6469C8.95291 20.6202 8.97958 20.5869 9.01291 20.5669C9.14625 20.4469 9.27958 20.3402 9.41958 20.2402C9.41958 20.2335 9.42625 20.2335 9.42625 20.2335C10.6862 19.2935 12.2462 18.7402 13.9462 18.7402C15.2662 18.7402 16.4929 19.0735 17.5662 19.6602H17.5729C18.4929 20.1669 19.2929 20.8535 19.9262 21.6802C20.1729 22.0002 20.3929 22.3402 20.5796 22.7002H20.5862C20.6196 22.7669 20.6529 22.8335 20.6862 22.9002C20.8862 23.2935 21.0462 23.7069 21.1662 24.1335H21.1729C21.1796 24.1669 21.1929 24.2002 21.1995 24.2335C21.2795 24.5202 21.3462 24.8135 21.3929 25.1135C21.3996 25.1735 21.4062 25.2402 21.4129 25.3002C21.4595 25.6202 21.4795 25.9469 21.4795 26.2802Z" fill="#FFC107"/>
<path d="M20.1146 26.2067C20.1146 26.3133 20.1146 26.4267 20.1012 26.5333V26.54C20.1012 26.5467 20.1012 26.5467 20.1012 26.5467C20.0879 27.0267 20.0212 27.5 19.9146 27.9267C19.9146 27.9533 19.9079 27.9733 19.8946 28H16.7812L14.2146 27.4467L13.8746 27.3733L13.8212 27.3867L10.9746 27.9733L10.8479 28H10.6679C10.2412 28 9.82125 27.96 9.41458 27.88C9.35458 27.8667 9.29458 27.8533 9.23458 27.84H9.22792C8.76125 27.74 8.30792 27.5867 7.88125 27.3867C7.86792 27.3133 7.85458 27.24 7.84792 27.1667C7.80125 26.88 7.78125 26.58 7.78125 26.28C7.78125 26.1667 7.78125 26.0533 7.78792 25.94C7.80792 25.58 7.86125 25.2267 7.94125 24.8867C7.99458 24.6333 8.06792 24.3867 8.15458 24.1533C8.22792 23.9467 8.31458 23.7467 8.40792 23.5533C8.48792 23.3867 8.58125 23.2267 8.67458 23.0667C8.76792 22.9133 8.86792 22.7667 8.97458 22.62C9.24125 22.2533 9.55458 21.9133 9.90125 21.6133C10.1012 21.44 10.3212 21.2733 10.5479 21.1267C11.5212 20.4867 12.6879 20.1133 13.9479 20.1133C14.1946 20.1133 14.4346 20.1267 14.6679 20.16H14.6812C15.3946 20.24 16.0612 20.44 16.6746 20.74C16.6812 20.74 16.6812 20.74 16.6812 20.74C17.6479 21.2133 18.4679 21.9267 19.0679 22.8067C19.1679 22.9533 19.2679 23.1133 19.3546 23.2733C19.4279 23.4 19.4946 23.5333 19.5546 23.6667C19.6479 23.8733 19.7346 24.0933 19.8079 24.3133H19.8146C19.8879 24.56 19.9546 24.8067 20.0012 25.0667V25.0733C20.0746 25.44 20.1146 25.82 20.1146 26.2067Z" fill="#FFD54F"/>
<path d="M18.7417 26.3469V26.3669C18.7417 26.7602 18.6951 27.1469 18.6017 27.5269C18.5684 27.6869 18.5217 27.8469 18.4617 28.0002H15.4751L13.9484 27.5802L12.4217 28.0002H10.6684C10.2417 28.0002 9.82177 27.9602 9.4151 27.8802C9.40177 27.8602 9.3951 27.8402 9.38844 27.8202C9.2951 27.5335 9.22177 27.2469 9.18844 26.9469C9.16177 26.7535 9.14844 26.5535 9.14844 26.3469C9.14844 26.2669 9.14844 26.1802 9.16177 26.1002C9.16844 25.7869 9.2151 25.4802 9.2951 25.1869C9.3351 24.9869 9.3951 24.7935 9.4751 24.6069C9.50177 24.5135 9.54177 24.4269 9.58844 24.3402C9.68844 24.1135 9.80844 23.8935 9.94177 23.6802C10.0884 23.4669 10.2484 23.2669 10.4284 23.0802C10.6417 22.8402 10.8817 22.6202 11.1551 22.4402C11.6217 22.1002 12.1551 21.8469 12.7351 21.7069C13.1217 21.6002 13.5284 21.5469 13.9484 21.5469C15.2817 21.5469 16.4751 22.0802 17.3417 22.9402C17.3751 22.9735 17.4151 23.0135 17.4484 23.0602H17.4551C17.5484 23.1602 17.6351 23.2602 17.7217 23.3735C17.9684 23.6869 18.1751 24.0269 18.3351 24.4002C18.4151 24.5735 18.4817 24.7535 18.5351 24.9402C18.5417 24.9669 18.5484 24.9869 18.5551 25.0135C18.6484 25.3402 18.7084 25.6802 18.7217 26.0335C18.7351 26.1335 18.7417 26.2402 18.7417 26.3469Z" fill="#FFE082"/>
<path d="M17.3729 26.3466C17.3729 26.6199 17.3395 26.8799 17.2662 27.1266C17.1995 27.3932 17.0995 27.6466 16.9729 27.8866C16.9529 27.9266 16.9062 27.9999 16.9062 27.9999H10.9862C10.9795 27.9932 10.9729 27.9799 10.9729 27.9732C10.8929 27.8466 10.8262 27.7199 10.7729 27.5799C10.6395 27.2732 10.5595 26.9399 10.5329 26.5932C10.5195 26.5132 10.5195 26.4266 10.5195 26.3466C10.5195 26.3066 10.5195 26.2599 10.5262 26.2199C10.5329 25.9266 10.5729 25.6466 10.6529 25.3866C10.7195 25.1466 10.8062 24.9266 10.9195 24.7132C10.9195 24.7132 10.9262 24.7066 10.9262 24.6999C11.0062 24.5599 11.0929 24.4199 11.1929 24.2866C11.5195 23.8466 11.9529 23.4866 12.4529 23.2532C12.4595 23.2532 12.4595 23.2532 12.4595 23.2532C12.6195 23.1732 12.7862 23.1066 12.9595 23.0599C12.9595 23.0599 12.9595 23.0599 12.9662 23.0599C13.2729 22.9666 13.6062 22.9199 13.9462 22.9199C14.3395 22.9199 14.7195 22.9799 15.0662 23.1066C15.1929 23.1399 15.3129 23.1932 15.4329 23.2532C15.4329 23.2532 15.4329 23.2532 15.4395 23.2532C16.0129 23.5266 16.4995 23.9532 16.8329 24.4866C16.8995 24.5866 16.9595 24.6932 17.0129 24.8066C17.0395 24.8532 17.0662 24.9066 17.0862 24.9532C17.2395 25.2999 17.3329 25.6799 17.3595 26.0799C17.3662 26.1132 17.3662 26.1466 17.3662 26.1866C17.3729 26.2399 17.3729 26.2932 17.3729 26.3466Z" fill="#FFECB3"/>
<path d="M19.9987 7.33398H11.9987C9.3987 7.33398 7.33203 9.40064 7.33203 12.0007V20.0007C7.33203 22.6007 9.3987 24.6674 11.9987 24.6674H19.9987C22.5987 24.6674 24.6654 22.6007 24.6654 20.0007V12.0007C24.6654 9.40064 22.5987 7.33398 19.9987 7.33398Z" stroke="white" stroke-width="2" stroke-linecap="round" stroke-linejoin="round"/>
<path d="M20.6667 11.3333C21.0349 11.3333 21.3333 11.0349 21.3333 10.6667C21.3333 10.2985 21.0349 10 20.6667 10C20.2985 10 20 10.2985 20 10.6667C20 11.0349 20.2985 11.3333 20.6667 11.3333Z" fill="white"/>
<path d="M16 20C18.2091 20 20 18.2091 20 16C20 13.7909 18.2091 12 16 12C13.7909 12 12 13.7909 12 16C12 18.2091 13.7909 20 16 20Z" stroke="white" stroke-width="2" stroke-linecap="round" stroke-linejoin="round"/>
</svg>
