<svg width="34" height="34" viewBox="0 0 34 34" fill="none" xmlns="http://www.w3.org/2000/svg">
<g clip-path="url(#clip0_2612_65875)">
<path d="M21.3002 23.2004L20.1002 24.4004C19.4002 25.1004 18.5002 25.3004 17.6002 25.0004C16.2002 24.5004 14.6002 23.3004 12.7002 21.4004C10.8002 19.5004 9.60017 17.9004 9.10017 16.5004C8.80017 15.6004 9.00017 14.7004 9.60017 14.0004L10.8002 12.8004C12.6002 11.0004 12.8002 8.20043 11.2002 6.40043L9.80017 4.60043C8.60017 3.10043 6.40017 3.00043 5.00017 4.30043C4.40017 4.80043 4.00017 5.40043 3.70017 6.10043C3.60017 6.40043 3.50017 6.70043 3.50017 7.10043C2.80017 12.1004 5.30017 17.4004 11.0002 23.0004C16.7002 28.7004 22.0002 31.1004 27.0002 30.4004C28.1002 30.3004 29.1002 29.8004 29.8002 29.0004C31.1002 27.5004 30.9002 25.4004 29.5002 24.2004L27.8002 22.8004C25.9002 21.3004 23.1002 21.4004 21.3002 23.2004ZM19.6002 21.5004C22.3002 18.8004 26.5002 18.6004 29.3002 21.0004L31.0002 22.4004C33.4002 24.5004 33.7002 28.1004 31.6002 30.6004C30.5002 31.9004 28.9002 32.7004 27.2002 32.9004C21.4002 33.7004 15.4002 30.9004 9.30017 24.8004C3.10017 18.6004 0.400167 12.6004 1.10017 6.80043C1.10017 6.30043 1.30017 5.80043 1.40017 5.30043C1.80017 4.20043 2.50017 3.20043 3.40017 2.40043C5.90017 0.300432 9.60017 0.600431 11.6002 3.00043L13.0002 4.70043C15.4002 7.50043 15.1002 11.7004 12.5002 14.4004L11.3002 15.6004C11.7002 16.6004 12.7002 18.0004 14.4002 19.7004C16.1002 21.4004 17.5002 22.4004 18.5002 22.8004L19.6002 21.5004Z" fill="#2688EB"/>
</g>
<defs>
<clipPath id="clip0_2612_65875">
<rect width="34" height="34" fill="white"/>
</clipPath>
</defs>
</svg>
