<svg width="34" height="34" viewBox="0 0 34 34" fill="none" xmlns="http://www.w3.org/2000/svg">
<path d="M17.0016 32.8996C25.7829 32.8996 32.9016 25.7809 32.9016 16.9996C32.9016 8.21828 25.7829 1.09961 17.0016 1.09961C8.22023 1.09961 1.10156 8.21828 1.10156 16.9996C1.10156 25.7809 8.22023 32.8996 17.0016 32.8996Z" fill="#FFFFFE"/>
<path fill-rule="evenodd" clip-rule="evenodd" d="M16.7008 8.19926C17.1008 8.59926 17.1008 9.19926 16.7008 9.59926L10.6008 15.9993H25.8008C26.3008 15.9993 26.7008 16.3993 26.7008 16.8993C26.7008 17.3993 26.3008 17.7993 25.8008 17.7993H10.6008L16.8008 24.1993C17.2008 24.5993 17.2008 25.1993 16.8008 25.5993C16.4008 25.9993 15.8008 25.9993 15.4008 25.5993L7.60078 17.4993C7.20078 17.0993 7.20078 16.4993 7.60078 16.0993L15.4008 7.99926C15.7008 7.89926 16.3008 7.89926 16.7008 8.19926Z" fill="#2688EB"/>
</svg>
