<svg width="24" height="24" viewBox="0 0 24 24" fill="none" xmlns="http://www.w3.org/2000/svg">
<path fill-rule="evenodd" clip-rule="evenodd" d="M2.00391 9.88402C2.00391 6.65602 4.54724 4.00269 7.70724 4.00269C9.34457 4.00269 10.7779 4.67869 11.9986 5.92069C13.2072 4.67602 14.6452 4.00269 16.3006 4.00269C19.4606 4.00269 22.0039 6.65602 22.0039 9.88402C22.0039 11.6307 21.5639 12.976 20.4812 14.376C19.4459 15.7147 17.8146 17.1107 15.4932 19.008L15.4906 19.01L13.1092 20.9407C12.7971 21.1952 12.4067 21.3341 12.0039 21.3341C11.6012 21.3341 11.2107 21.1952 10.8986 20.9407L8.51724 19.01L8.51457 19.008C6.19324 17.1107 4.56191 15.7147 3.52657 14.376C2.44391 12.976 2.00391 11.6314 2.00391 9.88402ZM7.70724 5.66935C5.51924 5.66935 3.67057 7.52469 3.67057 9.88402C3.67057 11.2734 3.99457 12.2574 4.84457 13.356C5.74191 14.516 7.21324 15.7914 9.56791 17.716L9.56924 17.7174L11.9479 19.646C11.9633 19.6598 11.9832 19.6676 12.0039 19.668C12.0244 19.6675 12.044 19.6597 12.0592 19.646L14.4386 17.7174L14.4399 17.7167C16.7946 15.7914 18.2652 14.5167 19.1626 13.3567C20.0132 12.2567 20.3372 11.2734 20.3372 9.88402C20.3372 7.52402 18.4886 5.66935 16.3006 5.66935C14.9559 5.66935 13.7499 6.28869 12.6639 7.69735C12.5865 7.79775 12.4872 7.87916 12.3736 7.93539C12.2599 7.99161 12.135 8.02117 12.0082 8.02182C11.8814 8.02246 11.7562 7.99417 11.642 7.9391C11.5278 7.88403 11.4277 7.80363 11.3492 7.70402C10.2326 6.28669 9.02391 5.66935 7.70724 5.66935Z" fill="white"/>
</svg>
