<svg width="10" height="11" viewBox="0 0 10 11" fill="none" xmlns="http://www.w3.org/2000/svg">
<g clip-path="url(#clip0_2612_65864)">
<path fill-rule="evenodd" clip-rule="evenodd" d="M3.00156 4.69921L3.50156 4.29921C3.60156 4.29921 3.60156 4.19921 3.60156 4.09921L4.00156 1.59921C4.20156 0.799214 5.00156 0.399214 5.70156 0.699214C6.20156 0.899214 6.50156 1.29921 6.50156 1.89921V3.49921H6.80156C7.70156 3.49921 8.40156 3.79921 9.00156 4.29921C9.50156 4.79921 9.80156 5.59921 9.80156 6.49921V6.89921C9.80156 7.79921 9.50156 8.59921 9.00156 9.09921C8.70156 9.59921 7.80156 9.99921 6.90156 9.99921H3.00156C2.90156 10.0992 2.70156 10.2992 2.60156 10.2992C2.40156 10.3992 2.30156 10.3992 2.20156 10.3992C2.10156 10.3992 1.90156 10.3992 1.80156 10.3992C1.60156 10.3992 1.50156 10.3992 1.40156 10.3992C1.30156 10.3992 1.10156 10.3992 1.00156 10.2992C0.501562 10.1992 0.301563 9.99921 0.201563 9.69921C0.101562 9.59921 0.101562 9.49921 0.101562 9.29921C0.101562 9.19921 0.101562 8.99921 0.101562 8.89921V5.79921C0.101562 5.59921 0.101562 5.49921 0.101562 5.39921C0.101562 5.29921 0.101562 5.09921 0.201563 4.99921C0.301563 4.69921 0.501562 4.49921 0.801562 4.39921C0.901562 4.29921 1.00156 4.29921 1.20156 4.29921C1.30156 4.29921 1.50156 4.29921 1.60156 4.29921C1.80156 4.29921 1.90156 4.29921 2.00156 4.29921C2.10156 4.29921 2.30156 4.29921 2.40156 4.39921C2.60156 4.39921 2.80156 4.59921 3.00156 4.69921ZM4.70156 1.69921C4.80156 1.29921 5.10156 1.09921 5.50156 1.19921H5.60156C5.80156 1.29921 6.00156 1.59921 6.00156 1.79921V3.79921C6.00156 3.99921 6.10156 4.09921 6.30156 4.09921H6.90156C7.70156 4.09921 8.30156 4.29921 8.70156 4.69921C9.10156 5.09921 9.30156 5.69921 9.30156 6.49921V6.89921C9.30156 7.69921 9.10156 8.29921 8.70156 8.69921C8.40156 9.09921 7.70156 9.39921 7.00156 9.39921H3.10156C3.10156 9.39921 3.10156 9.39921 3.10156 9.29921C3.10156 9.19921 3.10156 8.99921 3.10156 8.89921V5.79921C3.10156 5.59921 3.10156 5.49921 3.10156 5.39921L3.80156 4.89921C4.00156 4.69921 4.10156 4.49921 4.20156 4.29921L4.70156 1.69921ZM1.60156 4.89921C1.80156 4.89921 1.90156 4.89921 2.00156 4.89921C2.10156 4.89921 2.20156 4.89921 2.20156 4.89921C2.30156 4.99921 2.50156 5.09921 2.50156 5.19921C2.50156 5.19921 2.50156 5.29921 2.50156 5.39921C2.50156 5.49921 2.50156 5.59921 2.50156 5.79921V8.89921C2.50156 9.09921 2.50156 9.19921 2.50156 9.29921C2.50156 9.39921 2.50156 9.49921 2.50156 9.49921C2.50156 9.59921 2.30156 9.69921 2.20156 9.79921C2.20156 9.79921 2.10156 9.79921 2.00156 9.79921C1.90156 9.79921 1.80156 9.79921 1.60156 9.79921C1.40156 9.79921 1.30156 9.79921 1.20156 9.79921C1.10156 9.79921 1.00156 9.79921 1.00156 9.79921C0.901562 9.69921 0.801562 9.59921 0.701562 9.49921C0.701562 9.49921 0.701562 9.39921 0.701562 9.29921C0.701562 9.19921 0.701562 9.09921 0.701562 8.89921V5.79921C0.701562 5.59921 0.701562 5.49921 0.701562 5.39921C0.701562 5.29921 0.701562 5.19921 0.701562 5.19921C0.801562 5.09921 0.901562 4.99921 1.00156 4.89921C1.00156 4.89921 1.10156 4.89921 1.20156 4.89921C1.30156 4.89921 1.40156 4.89921 1.60156 4.89921Z" fill="#2688EB"/>
</g>
<defs>
<clipPath id="clip0_2612_65864">
<rect width="10" height="11" fill="white"/>
</clipPath>
</defs>
</svg>
