<svg width="28" height="25" viewBox="0 0 28 25" fill="none" xmlns="http://www.w3.org/2000/svg">
<g clip-path="url(#clip0_2612_66162)">
<path d="M20.2886 11.3574H9.43473V10.1773C10.2199 9.94713 10.7945 9.21802 10.7945 8.3546C10.7945 7.30891 9.94702 6.45508 8.8985 6.45508C7.85477 6.45508 7.00255 7.30411 7.00255 8.3546C7.00255 9.21802 7.57708 9.94713 8.36227 10.1773V11.3574H6.06415C4.88636 11.3574 3.93359 12.3119 3.93359 13.4871V22.8696C3.93359 24.0448 4.88636 24.9994 6.06415 24.9994H20.2886C21.4616 24.9994 22.4143 24.0448 22.4143 22.8696V13.4871C22.4143 12.3119 21.4616 11.3574 20.2886 11.3574ZM16.128 18.3462L11.1775 21.09C11.0482 21.162 10.8902 21.066 10.8902 20.9221V15.4346C10.8902 15.2859 11.0482 15.1948 11.1775 15.2667L16.128 18.0105C16.2573 18.0824 16.2573 18.2743 16.128 18.3462Z" fill="white"/>
<path d="M26.8705 12.4849L23.0547 15.4925V20.6538L26.8705 23.6614C27.1003 23.8436 27.4355 23.6806 27.4355 23.3879V12.7583C27.4355 12.4657 27.1003 12.3026 26.8705 12.4849Z" fill="white"/>
<path d="M5.99271 8.35626C5.99271 6.74454 7.29498 5.43982 8.90366 5.43982V4.48047C6.77311 4.48047 5.03516 6.2169 5.03516 8.35626H5.99271Z" fill="white"/>
<path d="M8.90455 3.26794V2.30859C7.29108 2.30859 5.77336 2.93696 4.63387 4.07859C3.49439 5.22022 2.86719 6.7408 2.86719 8.35731H3.82474C3.82474 5.54641 6.09893 3.26794 8.90455 3.26794Z" fill="white"/>
<path d="M8.90278 0.959354V0C7.77765 0 6.68605 0.220652 5.65668 0.657158C4.66561 1.07927 3.7703 1.67887 3.00426 2.44635C2.23822 3.21384 1.63496 4.10604 1.21843 5.10376C0.782737 6.13507 0.5625 7.22873 0.5625 8.35597H1.52005C1.52005 4.26913 4.82361 0.959354 8.90278 0.959354Z" fill="white"/>
</g>
<defs>
<clipPath id="clip0_2612_66162">
<rect width="28" height="25" fill="white"/>
</clipPath>
</defs>
</svg>
