<svg width="16" height="16" viewBox="0 0 16 16" fill="none" xmlns="http://www.w3.org/2000/svg">
<path d="M3.20078 11.7002C2.40078 10.7002 1.90078 9.40021 1.90078 8.00021C1.90078 6.60021 2.40078 5.40021 3.10078 4.30021C3.10078 4.30021 3.10078 4.30021 3.20078 4.20021C3.50078 3.90021 3.40078 3.40021 3.00078 3.20021C2.70078 2.90021 2.20078 3.00021 1.90078 3.30021C0.900781 4.60021 0.300781 6.20021 0.300781 8.00021C0.300781 9.80021 0.900781 11.4002 1.90078 12.7002C1.90078 12.7002 1.90078 12.7002 2.00078 12.8002C2.00078 12.8002 2.10078 12.8002 2.10078 12.9002C2.50078 13.2002 3.00078 13.1002 3.20078 12.7002C3.40078 12.4002 3.40078 12.0002 3.20078 11.7002ZM5.30078 9.80021C5.30078 9.80021 5.20078 9.70021 5.20078 9.60021C5.00078 9.20021 4.80078 8.60021 4.80078 8.00021C4.80078 7.40021 5.00078 6.80021 5.30078 6.30021C5.30078 6.30021 5.30078 6.20021 5.40078 6.20021C5.60078 5.90021 5.50078 5.40021 5.20078 5.20021C4.80078 5.00021 4.30078 5.00021 4.00078 5.30021C4.00078 5.30021 3.90078 5.40021 3.90078 5.50021C3.50078 6.20021 3.20078 7.10021 3.20078 8.00021C3.20078 8.90021 3.40078 9.70021 3.90078 10.5002C3.90078 10.6002 4.00078 10.6002 4.00078 10.7002C4.00078 10.8002 4.10078 10.8002 4.10078 10.8002C4.50078 11.0002 5.00078 11.0002 5.30078 10.6002C5.50078 10.4002 5.50078 10.0002 5.30078 9.80021ZM12.9008 11.7002C13.7008 10.7002 14.2008 9.40021 14.2008 8.00021C14.2008 6.60021 13.7008 5.40021 13.0008 4.30021C13.0008 4.30021 13.0008 4.30021 12.9008 4.20021C12.7008 3.80021 12.7008 3.40021 13.1008 3.10021C13.4008 2.80021 13.9008 2.90021 14.2008 3.30021C15.2008 4.60021 15.8008 6.20021 15.8008 8.00021C15.8008 9.80021 15.2008 11.4002 14.2008 12.7002C14.2008 12.7002 14.2008 12.7002 14.1008 12.8002C14.1008 12.8002 14.0008 12.8002 14.0008 12.9002C13.6008 13.2002 13.1008 13.1002 12.9008 12.7002C12.7008 12.4002 12.7008 12.0002 12.9008 11.7002ZM10.8008 9.80021C10.8008 9.80021 10.9008 9.70021 10.9008 9.60021C11.2008 9.10021 11.3008 8.60021 11.3008 8.00021C11.3008 7.40021 11.1008 6.80021 10.8008 6.30021C10.8008 6.30021 10.8008 6.20021 10.7008 6.20021C10.5008 5.90021 10.6008 5.40021 10.9008 5.20021C11.4008 5.00021 11.8008 5.00021 12.1008 5.30021C12.1008 5.30021 12.2008 5.40021 12.2008 5.50021C12.6008 6.20021 12.9008 7.10021 12.9008 8.00021C12.9008 8.90021 12.7008 9.70021 12.2008 10.5002C12.2008 10.6002 12.1008 10.6002 12.1008 10.7002C12.1008 10.8002 12.0008 10.8002 12.0008 10.8002C11.7008 11.1002 11.2008 11.0002 10.9008 10.6002C10.7008 10.4002 10.7008 10.0002 10.8008 9.80021ZM8.00078 6.10021C6.90078 6.10021 6.10078 6.90021 6.10078 8.00021C6.10078 9.10021 6.90078 9.90021 8.00078 9.90021C9.10078 9.90021 9.90078 9.10021 9.90078 8.00021C9.90078 6.90021 9.10078 6.10021 8.00078 6.10021Z" fill="#818C99"/>
</svg>
