<svg width="24" height="24" viewBox="0 0 24 24" fill="none" xmlns="http://www.w3.org/2000/svg">
<path fill-rule="evenodd" clip-rule="evenodd" d="M3.00604 7.10548C2.48004 7.1804 1.96326 6.77456 2.07036 6.25416C2.11806 6.02238 2.18494 5.82205 2.2787 5.63803C2.56632 5.07354 3.02526 4.6146 3.58975 4.32698C4.23149 4 5.07156 4 6.75172 4H17.2002C18.8804 4 19.7204 4 20.3622 4.32698C20.9267 4.6146 21.3856 5.07354 21.6732 5.63803C22.0002 6.27976 22.0002 7.11984 22.0002 8.8V15.2C22.0002 16.8802 22.0002 17.7202 21.6732 18.362C21.3856 18.9265 20.9267 19.3854 20.3622 19.673C19.7204 20 18.8804 20 17.2002 20H15.7195C15.2009 20 14.8203 19.5134 14.8937 19C14.9638 18.5101 15.0001 18.0093 15.0001 17.5C15.0001 11.701 10.2991 7 4.50004 7C3.99284 7 3.49404 7.03596 3.00604 7.10548ZM4.20159 11C3.98505 11 3.22812 11.0084 3.07616 11.02C2.52547 11.0619 2.04501 10.6496 2.00301 10.0989C1.96101 9.54821 2.37339 9.06774 2.92407 9.02574C3.16913 9.00705 4.01334 9 4.20159 9C9.06169 9 13.0016 12.9399 13.0016 17.8C13.0016 17.9883 12.9946 18.831 12.9759 19.076C12.9339 19.6267 12.4534 20.0391 11.9028 19.9971C11.3521 19.9551 10.9397 19.4747 10.9817 18.924C10.9933 18.772 11.0016 18.0165 11.0016 17.8C11.0016 14.0445 7.95712 11 4.20159 11ZM3.14214 15.0326C3.26559 15.0149 3.60831 15 3.80183 15C5.56914 15 7.00183 16.4327 7.00183 18.2C7.00183 18.3933 6.98691 18.7344 6.96918 18.858C6.89076 19.4047 7.27035 19.9114 7.81704 19.9899C8.36373 20.0683 8.87049 19.6887 8.94892 19.142C8.98757 18.8725 9.00183 18.4153 9.00183 18.2C9.00183 15.3281 6.67371 13 3.80183 13C3.58671 13 3.12771 13.0142 2.85811 13.0529C2.31143 13.1314 1.93183 13.6381 2.01026 14.1848C2.0887 14.7315 2.59546 15.1111 3.14214 15.0326ZM3.50201 17C2.67358 17 2.00201 17.6716 2.00201 18.5C2.00201 19.3284 2.67358 20 3.50201 20C4.33043 20 5.00201 19.3284 5.00201 18.5C5.00201 17.6716 4.33043 17 3.50201 17Z" fill="black"/>
</svg>
