<svg width="16" height="16" viewBox="0 0 16 16" fill="none" xmlns="http://www.w3.org/2000/svg">
<path fill-rule="evenodd" clip-rule="evenodd" d="M6.60078 14.9004C3.80078 11.6004 2.30078 8.60039 2.30078 6.20039C2.30078 3.00039 4.80078 0.400391 8.00078 0.400391C11.2008 0.400391 13.7008 3.00039 13.7008 6.20039C13.7008 8.60039 12.2008 11.6004 9.40078 14.9004C8.70078 15.8004 7.30078 15.8004 6.60078 14.9004ZM7.30078 14.3004C7.60078 14.7004 8.30078 14.7004 8.60078 14.3004C11.3008 11.0004 12.7008 8.30039 12.7008 6.20039C12.7008 3.50039 10.6008 1.30039 8.00078 1.30039C5.40078 1.30039 3.30078 3.50039 3.30078 6.20039C3.30078 8.30039 4.60078 11.0004 7.30078 14.3004Z" fill="#2688EB"/>
<path fill-rule="evenodd" clip-rule="evenodd" d="M8 4.80039C7.1 4.80039 6.4 5.50039 6.4 6.40039C6.4 7.30039 7.1 8.00039 8 8.00039C8.9 8.00039 9.6 7.30039 9.6 6.40039C9.6 5.50039 8.9 4.80039 8 4.80039ZM5.5 6.40039C5.5 5.00039 6.6 3.90039 8 3.90039C9.4 3.90039 10.5 5.00039 10.5 6.40039C10.5 7.80039 9.4 9.00039 8 9.00039C6.6 9.00039 5.5 7.80039 5.5 6.40039Z" fill="#2688EB"/>
</svg>
