<svg width="21" height="20" viewBox="0 0 21 20" fill="none" xmlns="http://www.w3.org/2000/svg">
<path fill-rule="evenodd" clip-rule="evenodd" d="M1 7.40078C1 4.40078 3.5 1.80078 6.4 1.80078C7.9 1.80078 9.3 2.40078 10.5 3.70078C11.7 2.50078 13 1.80078 14.6 1.80078C17.6 1.80078 20 4.30078 20 7.40078C20 9.00078 19.5 10.3008 18.6 11.6008C17.7 12.9008 16 14.2008 13.9 16.0008L11.7 17.9008C11.1 18.4008 10.2 18.4008 9.6 17.9008L7.3 16.0008C5.1 14.2008 3.6 12.8008 2.6 11.6008C1.5 10.3008 1 9.00078 1 7.40078ZM6.4 3.40078C4.3 3.40078 2.5 5.20078 2.5 7.40078C2.5 8.70078 2.9 9.60078 3.7 10.7008C4.5 11.8008 5.9 13.0008 8.1 14.8008L10.3 16.7008L12.5 14.8008C14.7 12.9008 16.1 11.8008 16.9 10.7008C17.7 9.60078 18.1 8.70078 18.1 7.40078C18.1 5.20078 16.3 3.40078 14.2 3.40078C12.9 3.40078 11.7 4.00078 10.8 5.30078C10.7 5.80078 10.2 5.80078 9.9 5.50078C9.9 5.40078 9.9 5.40078 9.9 5.40078C8.9 4.00078 7.7 3.40078 6.4 3.40078Z" fill="#818C99"/>
</svg>
