<svg width="100" height="100" viewBox="0 0 100 100" fill="none" xmlns="http://www.w3.org/2000/svg">
<path fill-rule="evenodd" clip-rule="evenodd" d="M31.5 8.90039H63.9C68.2 8.90039 71.7 8.90039 74.6 9.10039C77.5 9.30039 80.1 9.80039 82.5 11.1004C86.3 13.0004 89.4 16.1004 91.3 19.9004C93.2 23.7004 93.4 28.2004 93.5 34.0004V34.8004V36.0004C93.5 38.3004 91.7 40.1004 89.4 40.1004C87.1 40.1004 85.3 38.3004 85.3 36.0004V35.8004H10.3V52.3004C10.3 56.8004 10.3 60.0004 10.5 62.5004C10.7 64.9004 11.1 66.3004 11.6 67.3004C12.7 69.5004 14.6 71.4004 16.8 72.5004C17.8 73.0004 19.2 73.4004 21.6 73.6004C24.1 73.8004 27.2 73.8004 31.8 73.8004H41.4C43.7 73.8004 45.5 75.6004 45.5 77.9004C45.5 80.2004 43.7 82.0004 41.4 82.0004H31.7C27.4 82.0004 23.9 82.0004 21 81.8004C18.1 81.6004 15.5 81.1004 13.1 79.8004C9.3 77.9004 6.2 74.8004 4.3 71.0004C3.1 68.6004 2.6 66.0004 2.3 63.1004C2 60.3004 2 56.8004 2 52.5004V38.4004C2 34.1004 2 30.6004 2.2 27.7004C2.4 24.8004 2.9 22.2004 4.2 19.8004C6.1 16.0004 9.2 12.9004 13 11.0004C15.4 9.80039 18 9.30039 20.9 9.00039C23.7 8.90039 27.2 8.90039 31.5 8.90039ZM10.5 27.6004H84.9C84.7 25.7004 84.4 24.5004 83.9 23.6004C82.8 21.4004 80.9 19.5004 78.7 18.4004C77.7 17.9004 76.3 17.5004 73.9 17.3004C71.4 17.1004 68.3 17.1004 63.7 17.1004H31.7C27.2 17.1004 24 17.1004 21.5 17.3004C19.1 17.5004 17.7 17.9004 16.7 18.4004C14.5 19.5004 12.6 21.4004 11.5 23.6004C11.1 24.5004 10.7 25.7004 10.5 27.6004ZM20.3 58.2004C20.3 56.9004 20.3 56.3004 20.5 55.8004C20.7 55.4004 21.1 55.0004 21.5 54.8004C22 54.5004 22.6 54.5004 23.9 54.5004H25.7C27 54.5004 27.6 54.5004 28.1 54.8004C28.5 55.0004 28.9 55.4004 29.1 55.8004C29.4 56.3004 29.4 56.9004 29.4 58.2004V60.0004C29.4 61.3004 29.4 61.9004 29.2 62.4004C29 62.8004 28.6 63.2004 28.2 63.4004C27.7 63.7004 27.1 63.7004 25.8 63.7004H24C22.7 63.7004 22.1 63.7004 21.6 63.4004C21.2 63.2004 20.8 62.8004 20.6 62.4004C20.3 61.9004 20.3 61.3004 20.3 60.0004V58.2004ZM34.4 58.2004C34.4 56.9004 34.4 56.3004 34.6 55.8004C34.8 55.4004 35.2 55.0004 35.6 54.8004C36.1 54.5004 36.7 54.5004 38 54.5004H39.8C41.1 54.5004 41.7 54.5004 42.2 54.8004C42.6 55.0004 43 55.4004 43.2 55.8004C43.5 56.3004 43.5 56.9004 43.5 58.2004V60.0004C43.5 61.3004 43.5 61.9004 43.3 62.4004C43.1 62.8004 42.7 63.2004 42.3 63.4004C41.8 63.7004 41.2 63.7004 39.9 63.7004H38.1C36.8 63.7004 36.2 63.7004 35.7 63.4004C35.3 63.2004 34.9 62.8004 34.7 62.4004C34.4 61.9004 34.4 61.3004 34.4 60.0004V58.2004ZM81.5 60.2004L91.1 61.1004C94.4 61.4004 95.5 64.8004 92.9 67.0004L85.4 73.4004L88.2 83.8004C89.1 87.2004 86.3 89.3004 83.4 87.2004L74.2 80.6004L65.1 87.2004C62.3 89.3004 59.4 87.2004 60.3 83.8004L63.1 73.4004L55.6 67.0004C53 64.8004 54 61.5004 57.4 61.1004L67 60.2004L71.2 50.2004C72.5 47.1004 75.9 47.1004 77.2 50.2004C77.3 50.2004 81.5 60.2004 81.5 60.2004Z" fill="#2688EB"/>
</svg>
