<?xml version="1.0" encoding="utf-8"?>
<!-- Generator: Adobe Illustrator 27.1.0, SVG Export Plug-In . SVG Version: 6.00 Build 0)  -->



<svg version="1.1" id="Layer_1" xmlns="http://www.w3.org/2000/svg" xmlns:xlink="http://www.w3.org/1999/xlink" x="0px" y="0px"
	 viewBox="0 0 121 16.3" style="enable-background:new 0 0 121 16.3;" xml:space="preserve">

	<g>
<g>
	<linearGradient id="SVGID_1_" gradientUnits="userSpaceOnUse" x1="0" y1="8.159" x2="67.6487" y2="8.159">
		<stop  offset="0" style="stop-color:#003F81"/>
		<stop  offset="1" style="stop-color:#51B8F5"/>
	</linearGradient>
	<polygon class="st0" points="37.6,3.8 34.1,0 34.1,2.6 43,12.3 43,12.3 46.5,16.2 46.5,13.6 37.6,3.8 		"/>

	<linearGradient id="SVGID_00000004525793624354139850000016881127478820246178_" gradientUnits="userSpaceOnUse" x1="0" y1="8.159" x2="67.6487" y2="8.159">
		<stop  offset="0" style="stop-color:#003F81"/>
		<stop  offset="1" style="stop-color:#51B8F5"/>
	</linearGradient>
	<polygon style="fill:url(#SVGID_00000004525793624354139850000016881127478820246178_);" points="58.7,0.7 57.6,2.6 50.8,14.5
			49.8,16.2 52,16.2 53,14.5 58.7,4.6 58.7,4.6 59.8,2.6 60,2.4 59,0.1 		"/>

	<linearGradient id="SVGID_00000177451014316337577880000014295245272321628858_" gradientUnits="userSpaceOnUse" x1="0" y1="8.159" x2="67.6487" y2="8.159">
		<stop  offset="0" style="stop-color:#003F81"/>
		<stop  offset="1" style="stop-color:#51B8F5"/>
	</linearGradient>
	<polygon style="fill:url(#SVGID_00000177451014316337577880000014295245272321628858_);" points="66.7,14.5 61.4,5.4 60.3,7.3
			64.4,14.5 65.4,16.2 67.6,16.2 		"/>

	<linearGradient id="SVGID_00000088126823016189226500000003721544048513676444_" gradientUnits="userSpaceOnUse" x1="0" y1="8.159" x2="67.6487" y2="8.159">
		<stop  offset="0" style="stop-color:#003F81"/>
		<stop  offset="1" style="stop-color:#51B8F5"/>
	</linearGradient>
	<polygon style="fill:url(#SVGID_00000088126823016189226500000003721544048513676444_);" points="8.9,12.5 17.8,2.7 17.8,0.1
			8.9,9.9 1.7,2 1.5,1.8 0,0.1 0,2.7 1.7,4.6 8.9,12.5 8.9,12.5 8.9,12.5 8.9,12.5 		"/>

	<linearGradient id="SVGID_00000181078240439416639630000011617477909299168413_" gradientUnits="userSpaceOnUse" x1="0" y1="8.159" x2="67.6487" y2="8.159">
		<stop  offset="0" style="stop-color:#003F81"/>
		<stop  offset="1" style="stop-color:#51B8F5"/>
	</linearGradient>
	<polygon style="fill:url(#SVGID_00000181078240439416639630000011617477909299168413_);" points="0,16.2 1.7,16.2 1.7,8.1 0,6.2
					"/>

	<linearGradient id="SVGID_00000175302230371355850520000017877602849027760512_" gradientUnits="userSpaceOnUse" x1="0" y1="8.159" x2="67.6487" y2="8.159">
		<stop  offset="0" style="stop-color:#003F81"/>
		<stop  offset="1" style="stop-color:#51B8F5"/>
	</linearGradient>
	<polygon style="fill:url(#SVGID_00000175302230371355850520000017877602849027760512_);" points="33.7,16.2 35.5,16.2 35.5,8.1
			33.7,6.2 		"/>

	<linearGradient id="SVGID_00000176027306248296174730000016809293964326538381_" gradientUnits="userSpaceOnUse" x1="0" y1="8.159" x2="67.6487" y2="8.159">
		<stop  offset="0" style="stop-color:#003F81"/>
		<stop  offset="1" style="stop-color:#51B8F5"/>
	</linearGradient>
	<polygon style="fill:url(#SVGID_00000176027306248296174730000016809293964326538381_);" points="44.8,8.2 46.5,10.1 46.5,0.1
			44.8,0.1 		"/>

	<linearGradient id="SVGID_00000016787576410216420750000009764278249166908036_" gradientUnits="userSpaceOnUse" x1="0" y1="8.159" x2="67.6487" y2="8.159">
		<stop  offset="0" style="stop-color:#003F81"/>
		<stop  offset="1" style="stop-color:#51B8F5"/>
	</linearGradient>
	<polygon style="fill:url(#SVGID_00000016787576410216420750000009764278249166908036_);" points="22.2,0.1 21.1,0.1 21.1,0.8
			21.1,1.2 21.1,1.7 21.1,1.9 21.1,6.2 21.1,7.8 21.1,8.3 21.1,9 21.1,11.7 21.1,15.5 21.1,16.2 21.1,16.2 30.4,16.2 30.4,14.5
			22.9,14.5 22.9,11.7 22.9,9 22.9,8.1 22.9,7.8 22.9,7.3 22.9,3.6 22.9,1.9 26.7,1.9 30.4,1.9 30.4,0.1 26.7,0.1 		"/>

	<linearGradient id="SVGID_00000134971380797296685170000014720674483464874166_" gradientUnits="userSpaceOnUse" x1="0" y1="8.159" x2="67.6487" y2="8.159">
		<stop  offset="0" style="stop-color:#003F81"/>
		<stop  offset="1" style="stop-color:#51B8F5"/>
	</linearGradient>

	<rect x="25.1" y="7.3" style="fill:url(#SVGID_00000134971380797296685170000014720674483464874166_);" width="3.9" height="1.7"/>

	<linearGradient id="SVGID_00000049925673888014178180000000547977105106802335_" gradientUnits="userSpaceOnUse" x1="0" y1="8.159" x2="67.6487" y2="8.159">
		<stop  offset="0" style="stop-color:#003F81"/>
		<stop  offset="1" style="stop-color:#51B8F5"/>
	</linearGradient>
	<polygon style="fill:url(#SVGID_00000049925673888014178180000000547977105106802335_);" points="16,16.2 17.8,16.2 17.8,6.2
			16,8.1 		"/>

	<linearGradient id="SVGID_00000180333919802874820610000016077900755328400826_" gradientUnits="userSpaceOnUse" x1="0" y1="8.159" x2="67.6487" y2="8.159">
		<stop  offset="0" style="stop-color:#003F81"/>
		<stop  offset="1" style="stop-color:#51B8F5"/>
	</linearGradient>
	<path style="fill:url(#SVGID_00000180333919802874820610000016077900755328400826_);" d="M54.3,2.1c0.5,0,1-0.4,1-1s-0.4-1-1-1
			c-0.5,0-1,0.4-1,1S53.7,2.1,54.3,2.1z"/>

	<linearGradient id="SVGID_00000069393012036062713530000012229449244045530516_" gradientUnits="userSpaceOnUse" x1="0" y1="8.159" x2="67.6487" y2="8.159">
		<stop  offset="0" style="stop-color:#003F81"/>
		<stop  offset="1" style="stop-color:#51B8F5"/>
	</linearGradient>
	<path style="fill:url(#SVGID_00000069393012036062713530000012229449244045530516_);" d="M38,14.1c-0.5,0-1,0.4-1,1
			c0,0.5,0.4,1,1,1c0.5,0,1-0.4,1-1C39,14.5,38.6,14.1,38,14.1z"/>

	<linearGradient id="SVGID_00000163040293088688465150000002255050783508703881_" gradientUnits="userSpaceOnUse" x1="0" y1="8.159" x2="67.6487" y2="8.159">
		<stop  offset="0" style="stop-color:#003F81"/>
		<stop  offset="1" style="stop-color:#51B8F5"/>
	</linearGradient>
	<path style="fill:url(#SVGID_00000163040293088688465150000002255050783508703881_);" d="M4.4,14.3c-0.5,0-1,0.4-1,1
			c0,0.5,0.4,1,1,1c0.5,0,1-0.4,1-1C5.4,14.8,5,14.3,4.4,14.3z"/>
</g>
</g>
<g>
<g>

	<linearGradient id="SVGID_00000105423710580748546780000007329463532555459738_" gradientUnits="userSpaceOnUse" x1="122.4815" y1="7.9077" x2="67.4073" y2="7.9077">
		<stop  offset="0" style="stop-color:#01BDFB"/>
		<stop  offset="1" style="stop-color:#0C7CDE"/>
	</linearGradient>
	<path style="fill:url(#SVGID_00000105423710580748546780000007329463532555459738_);" d="M89.4,11.7L89,11.5
			c-0.6-0.2-0.7-0.4-0.7-0.7c0-0.3,0.3-0.5,0.6-0.5c0.4,0,0.6,0.2,0.9,0.6l0.9-0.5c-0.3-0.6-0.9-1.2-1.9-1.2c-1,0-1.8,0.6-1.8,1.6
			c0,0.9,0.7,1.3,1.5,1.6l0.4,0.1c0.5,0.2,0.7,0.4,0.7,0.7c0,0.4-0.3,0.6-0.7,0.6c-0.5,0-0.8-0.4-1-0.8l-1,0.5c0.2,0.8,1,1.4,2,1.4
			c1,0,2-0.6,2-1.8C90.9,12.5,90.4,12.1,89.4,11.7z"/>

	<linearGradient id="SVGID_00000158725521228062434320000000497327399139514787_" gradientUnits="userSpaceOnUse" x1="122.4815" y1="7.9077" x2="67.4073" y2="7.9077">
		<stop  offset="0" style="stop-color:#01BDFB"/>
		<stop  offset="1" style="stop-color:#0C7CDE"/>
	</linearGradient>
	<polygon style="fill:url(#SVGID_00000158725521228062434320000000497327399139514787_);" points="78.9,13.4 77.2,9.3 75.8,9.3
			75.8,15 77.1,15 77.1,11.7 77.1,11.7 78.5,15 79.4,15 80.7,11.7 80.8,11.7 80.8,15 82,15 82,9.3 80.6,9.3 		"/>

	<linearGradient id="SVGID_00000062170606086652770150000016315482833834351536_" gradientUnits="userSpaceOnUse" x1="122.4815" y1="7.9077" x2="67.4073" y2="7.9077">
		<stop  offset="0" style="stop-color:#01BDFB"/>
		<stop  offset="1" style="stop-color:#0C7CDE"/>
	</linearGradient>
	<polygon style="fill:url(#SVGID_00000062170606086652770150000016315482833834351536_);" points="84.2,12.7 85.9,12.7 85.9,11.6
			84.2,11.6 84.2,10.5 86.2,10.5 86.2,9.3 82.9,9.3 82.9,15 86.3,15 86.3,13.8 84.2,13.8 		"/>

	<linearGradient id="SVGID_00000010992127951293140180000016435987850440211374_" gradientUnits="userSpaceOnUse" x1="122.4815" y1="7.9077" x2="67.4073" y2="7.9077">
		<stop  offset="0" style="stop-color:#01BDFB"/>
		<stop  offset="1" style="stop-color:#0C7CDE"/>
	</linearGradient>
	<path style="fill:url(#SVGID_00000010992127951293140180000016435987850440211374_);" d="M93.9,11.7l-0.4-0.2
			c-0.6-0.2-0.7-0.4-0.7-0.7c0-0.3,0.3-0.5,0.6-0.5c0.4,0,0.6,0.2,0.9,0.6l0.9-0.5c-0.3-0.6-0.9-1.2-1.9-1.2c-1,0-1.8,0.6-1.8,1.6
			c0,0.9,0.7,1.3,1.5,1.6l0.4,0.1c0.5,0.2,0.7,0.4,0.7,0.7c0,0.4-0.3,0.6-0.7,0.6c-0.5,0-0.8-0.4-1-0.8l-1,0.5c0.2,0.8,1,1.4,2,1.4
			c1,0,2-0.6,2-1.8C95.4,12.5,94.9,12.1,93.9,11.7z"/>

	<linearGradient id="SVGID_00000149381490812669728010000014841525823893869740_" gradientUnits="userSpaceOnUse" x1="122.4815" y1="7.9077" x2="67.4073" y2="7.9077">
		<stop  offset="0" style="stop-color:#01BDFB"/>
		<stop  offset="1" style="stop-color:#0C7CDE"/>
	</linearGradient>
	<polygon style="fill:url(#SVGID_00000149381490812669728010000014841525823893869740_);" points="113.5,12.7 115.2,12.7
			115.2,11.6 113.5,11.6 113.5,10.5 115.6,10.5 115.6,9.3 112.3,9.3 112.3,15 115.6,15 115.6,13.8 113.5,13.8 		"/>

	<linearGradient id="SVGID_00000021814131214157095790000008324638675555600014_" gradientUnits="userSpaceOnUse" x1="122.4815" y1="7.9077" x2="67.4073" y2="7.9077">
		<stop  offset="0" style="stop-color:#01BDFB"/>
		<stop  offset="1" style="stop-color:#0C7CDE"/>
	</linearGradient>
	<path style="fill:url(#SVGID_00000021814131214157095790000008324638675555600014_);" d="M109,11.9v1h1.3c-0.2,0.7-0.7,1-1.3,1
			c-1,0-1.7-0.7-1.7-1.8c0-1.1,0.7-1.7,1.7-1.7c0.6,0,1.1,0.2,1.4,0.7l0.9-0.6c-0.6-1-1.5-1.3-2.3-1.3c-1.6,0-3,1.1-3,2.9
			s1.4,2.9,2.9,2.9s2.9-1.2,2.6-3.2H109z"/>

	<linearGradient id="SVGID_00000119085453350135677480000014554409522145236392_" gradientUnits="userSpaceOnUse" x1="122.4815" y1="7.9077" x2="67.4073" y2="7.9077">
		<stop  offset="0" style="stop-color:#01BDFB"/>
		<stop  offset="1" style="stop-color:#0C7CDE"/>
	</linearGradient>
	<polygon style="fill:url(#SVGID_00000119085453350135677480000014554409522145236392_);" points="97.3,12.7 99,12.7 99,11.6
			97.3,11.6 97.3,10.5 99.3,10.5 99.3,9.3 96.1,9.3 96.1,15 99.4,15 99.4,13.8 97.3,13.8 		"/>

	<linearGradient id="SVGID_00000113354057437288830890000001902405286648313765_" gradientUnits="userSpaceOnUse" x1="122.4815" y1="7.9077" x2="67.4073" y2="7.9077">
		<stop  offset="0" style="stop-color:#01BDFB"/>
		<stop  offset="1" style="stop-color:#0C7CDE"/>
	</linearGradient>
	<path style="fill:url(#SVGID_00000113354057437288830890000001902405286648313765_);" d="M119.5,13c0.6-0.3,1-0.9,1-1.7
			c0-1.2-0.8-2-2-2h-2.1V15h1.3v-1.8h0.7l1.1,1.8h1.3L119.5,13z M118.3,12.1h-0.7v-1.6h0.7c0.5,0,0.9,0.2,0.9,0.8
			C119.2,11.9,118.8,12.1,118.3,12.1z"/>

	<linearGradient id="SVGID_00000146498522222116513610000010681250005842456985_" gradientUnits="userSpaceOnUse" x1="122.4815" y1="7.9077" x2="67.4073" y2="7.9077">
		<stop  offset="0" style="stop-color:#01BDFB"/>
		<stop  offset="1" style="stop-color:#0C7CDE"/>
	</linearGradient>
	<polygon style="fill:url(#SVGID_00000146498522222116513610000010681250005842456985_);" points="103.9,12.9 103.8,12.9
			101.4,9.3 100.2,9.3 100.2,15 101.4,15 101.4,11.4 101.5,11.4 103.9,15 105.1,15 105.1,9.3 103.9,9.3 		"/>

	<linearGradient id="SVGID_00000174592272556148461800000013625946181979096213_" gradientUnits="userSpaceOnUse" x1="122.4815" y1="7.9077" x2="67.4073" y2="7.9077">
		<stop  offset="0" style="stop-color:#01BDFB"/>
		<stop  offset="1" style="stop-color:#0C7CDE"/>
	</linearGradient>
	<path style="fill:url(#SVGID_00000174592272556148461800000013625946181979096213_);" d="M70.8,8c0-3.4,2.8-6.2,6.2-6.2
			c3.4,0,6.2,2.8,6.2,6.2H85c0-4.4-3.6-8-8-8c-4.4,0-8,3.6-8,8c0,1.4,0.4,2.8,1,3.9c0.1,0.3,0.2,0.6,0.1,0.8l-0.9,3.1l3.2-0.9
			c0.3-0.1,0.6,0,0.8,0.1c0.3,0.1,0.5,0.3,0.8,0.4v-2C72.1,12.3,70.8,10.3,70.8,8z"/>

	<linearGradient id="SVGID_00000006666381846783655380000003814778236027180954_" gradientUnits="userSpaceOnUse" x1="122.4815" y1="7.9077" x2="67.4073" y2="7.9077">
		<stop  offset="0" style="stop-color:#01BDFB"/>
		<stop  offset="1" style="stop-color:#0C7CDE"/>
	</linearGradient>
	<circle style="fill:url(#SVGID_00000006666381846783655380000003814778236027180954_);" cx="73.7" cy="7.7" r="0.7"/>

	<linearGradient id="SVGID_00000168823549712589554850000001839104256544756877_" gradientUnits="userSpaceOnUse" x1="122.4815" y1="7.9077" x2="67.4073" y2="7.9077">
		<stop  offset="0" style="stop-color:#01BDFB"/>
		<stop  offset="1" style="stop-color:#0C7CDE"/>
	</linearGradient>
	<circle style="fill:url(#SVGID_00000168823549712589554850000001839104256544756877_);" cx="76.9" cy="7.7" r="0.7"/>

	<linearGradient id="SVGID_00000114075101886101119000000015154635572988380073_" gradientUnits="userSpaceOnUse" x1="122.4815" y1="7.9077" x2="67.4073" y2="7.9077">
		<stop  offset="0" style="stop-color:#01BDFB"/>
		<stop  offset="1" style="stop-color:#0C7CDE"/>
	</linearGradient>
	<circle style="fill:url(#SVGID_00000114075101886101119000000015154635572988380073_);" cx="80.1" cy="7.7" r="0.7"/>
</g>
</g>

	<style type="text/css">
	.st0{fill:url(#SVGID_1_);}
	.st1{fill:url(#SVGID_00000180358392353752730230000010264757855162134705_);}
	.st2{fill:url(#SVGID_00000088816921246519123820000004224568000112942722_);}
	.st3{fill:url(#SVGID_00000178204247816636937750000000124110458609602734_);}
	.st4{fill:url(#SVGID_00000152984290219998370230000010344781692118555528_);}
	.st5{fill:url(#SVGID_00000034076503931095699570000000093518666613705405_);}
	.st6{fill:url(#SVGID_00000127748585034726942570000016741975254233052312_);}
	.st7{fill:url(#SVGID_00000019671454419594411400000018434345735514843544_);}
	.st8{fill:url(#SVGID_00000010300855066742478700000012212213599777834120_);}
	.st9{fill:url(#SVGID_00000061440702115299893590000000556641020570217092_);}
	.st10{fill:url(#SVGID_00000170997328444609853920000013933751067835224465_);}
	.st11{fill:url(#SVGID_00000023257763580949028990000016673330112402677437_);}
	.st12{fill:url(#SVGID_00000004547753589448194720000004046715005105587328_);}
	.st13{fill:url(#SVGID_00000143599571967016321010000009015706082161059469_);}
	.st14{fill:url(#SVGID_00000088090923007856594450000000570282593063311525_);}
	.st15{fill:url(#SVGID_00000157310394750058055060000005569576937955005612_);}
	.st16{fill:url(#SVGID_00000031905285493743643190000002454454740007029387_);}
	.st17{fill:url(#SVGID_00000013194064155401855270000016538263138407750025_);}
	.st18{fill:url(#SVGID_00000079476858003974541820000014971640584632922546_);}
	.st19{fill:url(#SVGID_00000001642759768109886790000004065929655454227135_);}
	.st20{fill:url(#SVGID_00000180334687048879423120000007185662124416498866_);}
	.st21{fill:url(#SVGID_00000134228943381571562530000003879116667346325908_);}
	.st22{fill:url(#SVGID_00000150069310828569745390000008346294574972944308_);}
	.st23{fill:url(#SVGID_00000026149554277258439240000008540428736719404191_);}
	.st24{fill:url(#SVGID_00000108278484886517777730000011906045485618912399_);}
	.st25{fill:url(#SVGID_00000036964136066288267570000017463782640276364197_);}
</style>
</svg>
