<?xml version="1.0" encoding="utf-8"?>
<!-- Generator: Adobe Illustrator 26.5.0, SVG Export Plug-In . SVG Version: 6.00 Build 0)  -->
<svg version="1.1" id="Layer_1" xmlns="http://www.w3.org/2000/svg" xmlns:xlink="http://www.w3.org/1999/xlink" x="0px" y="0px"
	 viewBox="0 0 124.128 500" style="enable-background:new 0 0 124.128 500;" xml:space="preserve">
<style type="text/css">
	.st0{fill:#4273B8;}
</style>
<g>
	<path class="st0" d="M124.12,62.12l0.01,0.93c0.02,18.4-5.76,33.87-16.55,44.6c-10.77,10.75-26.27,16.48-44.68,16.46h-0.88
		l-1.13,0.01c-18.31,0.02-33.73-5.74-44.45-16.5C5.72,96.87-0.02,81.41,0,63.04l0.01-0.92v-0.11L0,61.1
		c-0.02-18.4,5.76-33.88,16.56-44.62C27.35,5.72,42.86-0.02,61.29,0h1.55c18.43-0.02,33.94,5.7,44.73,16.45
		c10.8,10.73,16.58,26.2,16.56,44.62l-0.01,0.94V62.12z"/>
	<path class="st0" d="M124.12,436.67l0.01,0.93c0.02,18.4-5.74,33.87-16.51,44.61c-10.76,10.76-26.23,16.5-44.61,16.48l-0.89-0.01
		l-0.06-4.64l-0.04,4.64l-0.94,0.01c-18.37,0.02-33.83-5.73-44.58-16.49C5.74,471.45-0.02,455.98,0,437.6l0.01-0.92l4.63-0.05
		l-4.63-0.06L0,435.66c-0.02-18.38,5.73-33.85,16.49-44.6c10.73-10.76,26.19-16.52,44.55-16.5l0.97,0.01l0.05,4.63l0.07-4.63
		l0.83-0.01c18.4-0.02,33.88,5.74,44.65,16.51c10.77,10.75,16.54,26.22,16.52,44.59l-0.01,0.92l-4.63,0.05L124.12,436.67z"/>
	<polygon class="st0" points="0.01,436.57 4.64,436.63 0.01,436.68 	"/>
	<polygon class="st0" points="62.06,494.04 62.12,498.68 62.02,498.68 	"/>
	<polygon class="st0" points="62.13,374.57 62.06,379.2 62.01,374.57 	"/>
	<polygon class="st0" points="124.12,436.58 124.12,436.67 119.49,436.63 	"/>
	<path class="st0" d="M124.12,249.39l0.01,0.94c0.02,18.45-5.78,33.92-16.6,44.65c-10.81,10.74-26.35,16.44-44.79,16.42h-1.66
		c-18.37,0.02-33.83-5.75-44.58-16.51C5.74,284.13-0.02,268.67,0,250.33l0.01-0.93v-0.11L0,248.4
		c-0.02-18.39,5.75-33.87,16.54-44.62c10.77-10.77,26.26-16.52,44.67-16.5l0.8,0.01h0.11l0.93-0.01
		c18.37-0.02,33.84,5.74,44.58,16.51c10.76,10.75,16.52,26.22,16.5,44.59l-0.01,0.92V249.39z"/>
</g>
</svg>
