<svg width="24" height="24" viewBox="0 0 24 24" fill="none" xmlns="http://www.w3.org/2000/svg">
<path d="M21.2986 8.40039C22.6986 9.80039 23.4986 11.6004 23.4986 13.5004C23.4986 14.7004 23.1986 15.9004 22.5986 17.0004C22.6986 17.6004 22.9986 18.5004 23.3986 19.6004L23.5986 20.2004L23.6986 20.4004V20.5004C23.7986 21.1004 23.4986 21.8004 22.8986 22.0004C22.6986 22.1004 22.4986 22.1004 22.2986 22.1004C20.4986 22.0004 18.9986 21.6004 17.8986 20.7004C16.8986 21.0004 15.7986 21.2004 14.7986 21.2004C13.6986 21.2004 12.5986 21.0004 11.5986 20.7004C11.0986 20.5004 10.7986 20.0004 10.9986 19.5004C11.1986 19.0004 11.6986 18.7004 12.1986 18.9004C12.9986 19.2004 13.8986 19.3004 14.7986 19.3004C15.7986 19.3004 16.8986 19.1004 17.7986 18.7004C18.1986 18.5004 18.5986 18.6004 18.8986 18.9004C19.3986 19.4004 20.1986 19.8004 21.2986 20.0004H21.5986C20.9986 18.6004 20.6986 17.5004 20.6986 16.8004C20.6986 16.6004 20.6986 16.4004 20.7986 16.2004C21.2986 15.4004 21.5986 14.4004 21.5986 13.5004C21.5986 12.1004 20.9986 10.8004 19.9986 9.70039C19.5986 9.30039 19.5986 8.70039 19.9986 8.30039C20.3986 8.00039 20.9986 8.00039 21.2986 8.40039ZM9.09864 1.90039C13.8986 1.90039 17.7986 5.30039 17.7986 9.60039C17.7986 13.9004 13.8986 17.3004 9.09864 17.3004C7.99864 17.4004 6.99864 17.2004 5.99864 16.8004C4.89864 17.6004 3.49864 18.1004 1.59864 18.2004C1.39864 18.2004 1.19864 18.2004 0.998638 18.1004C0.398638 17.8004 0.0986375 17.2004 0.198638 16.6004V16.5004L0.298638 16.3004L0.398638 16.0004C0.898638 14.8004 1.19864 13.9004 1.29864 13.2004V13.0004L1.19864 12.7004C0.698638 11.7004 0.398638 10.6004 0.398638 9.50039C0.398638 5.40039 4.39864 1.90039 9.09864 1.90039ZM9.09864 3.90039C5.39864 3.90039 2.39864 6.50039 2.39864 9.70039C2.39864 10.7004 2.69864 11.6004 3.19864 12.4004C3.29864 12.6004 3.39864 12.8004 3.29864 13.0004C3.29864 13.7004 2.99864 14.7004 2.49864 15.9004L2.39864 16.2004H2.69864C3.79864 16.0004 4.59864 15.6004 5.09864 15.0004C5.39864 14.7004 5.79864 14.6004 6.19864 14.8004C7.09864 15.2004 8.09864 15.4004 9.19864 15.4004C12.8986 15.4004 15.8986 12.8004 15.8986 9.60039C15.8986 6.40039 12.8986 3.90039 9.09864 3.90039Z" fill="#2688EB"/>
</svg>
