<svg width="24" height="24" viewBox="0 0 24 24" fill="none" xmlns="http://www.w3.org/2000/svg">
<path fill-rule="evenodd" clip-rule="evenodd" d="M0.5 11.0004C0.5 5.30039 5.7 0.900391 12 0.900391C18.3 0.900391 23.5 5.30039 23.5 11.0004C23.5 16.6004 18.3 21.0004 12 21.0004C11.1 21.0004 10.2 20.9004 9.3 20.7004C7.9 21.6004 6 22.3004 3.7 22.8004C3.4 22.9004 3.1 22.8004 2.8 22.7004C2 22.3004 2 21.5004 2.4 20.8004C2.9 19.9004 3.4 19.0004 3.8 18.0004C1.7 16.2004 0.5 13.7004 0.5 11.0004ZM12 2.50039C6.4 2.50039 2 6.40039 2 11.0004C2 13.4004 3.2 15.6004 5.1 17.2004C5.3 17.4004 5.4 17.7004 5.4 18.0004C5.1 18.9004 4.6 20.0004 3.9 21.3004C6 20.7004 7.6 20.1004 8.7 19.3004C8.9 19.2004 9.1 19.1004 9.3 19.2004C10.1 19.4004 11 19.5004 12 19.5004C17.6 19.5004 22 15.6004 22 11.0004C22 6.40039 17.6 2.50039 12 2.50039Z" fill="#2688EB"/>
</svg>
