<svg width="28" height="28" viewBox="0 0 28 28" fill="none" xmlns="http://www.w3.org/2000/svg">
<rect width="28" height="28" rx="14" fill="#F2F3F5"/>
<path fill-rule="evenodd" clip-rule="evenodd" d="M4.57227 12.9877C4.57227 8.25426 8.98115 4.57129 14.2151 4.57129C19.4491 4.57129 23.858 8.25426 23.858 12.9877C23.858 17.7211 19.4491 21.4041 14.2151 21.4041C13.4372 21.4041 12.6799 21.3237 11.9539 21.1715C10.8044 21.8952 9.22081 22.4871 7.24119 22.968C6.97659 23.0323 6.69738 22.9927 6.46111 22.8572C5.82114 22.4904 5.85259 21.7843 6.17025 21.2269C6.60009 20.4659 7.00617 19.6826 7.30574 18.8599C5.62719 17.3561 4.57227 15.2884 4.57227 12.9877ZM14.2151 5.857C9.50799 5.857 5.85798 9.13468 5.85798 12.9877C5.85798 15.0014 6.83975 16.8403 8.45808 18.1534C8.66109 18.3181 8.74411 18.5893 8.66812 18.8395C8.42838 19.6284 8.01374 20.5481 7.43881 21.5921C9.23718 21.1198 10.5679 20.5672 11.4665 19.954C11.6158 19.8521 11.8011 19.8178 11.977 19.8595C12.6885 20.028 13.4389 20.1184 14.2151 20.1184C18.9223 20.1184 22.5723 16.8407 22.5723 12.9877C22.5723 9.13468 18.9223 5.857 14.2151 5.857Z" fill="#2688EB"/>
</svg>
