<svg width="30" height="30" viewBox="0 0 30 30" fill="none" xmlns="http://www.w3.org/2000/svg">
<path d="M26.7991 10.4008C28.5991 12.2008 29.5991 14.4008 29.5991 16.9008C29.5991 18.4008 29.1991 19.9008 28.3991 21.3008C28.4991 22.0008 28.8991 23.1008 29.4991 24.6008L29.7991 25.4008L29.8991 25.6008V25.7008C30.0991 26.5008 29.5991 27.3008 28.8991 27.6008C28.6991 27.7008 28.3991 27.7008 28.0991 27.7008C25.7991 27.6008 23.8991 27.0008 22.5991 26.0008C21.2991 26.4008 19.9991 26.7008 18.5991 26.7008C17.1991 26.7008 15.7991 26.5008 14.5991 26.0008C13.9991 25.8008 13.5991 25.1008 13.8991 24.5008C14.0991 23.9008 14.7991 23.5008 15.3991 23.8008C16.3991 24.2008 17.4991 24.3008 18.5991 24.3008C19.8991 24.3008 21.1991 24.0008 22.2991 23.6008C22.7991 23.4008 23.2991 23.5008 23.5991 23.9008C24.2991 24.6008 25.2991 25.0008 26.5991 25.3008L26.8991 25.4008C26.1991 23.6008 25.7991 22.3008 25.7991 21.3008C25.7991 21.0008 25.7991 20.8008 25.9991 20.6008C26.6991 19.5008 26.9991 18.4008 26.9991 17.2008C26.9991 15.4008 26.2991 13.8008 24.8991 12.5008C24.3991 12.0008 24.3991 11.3008 24.8991 10.8008C25.4991 10.0008 26.2991 9.90078 26.7991 10.4008ZM11.3991 2.30078C17.3991 2.30078 22.2991 6.60078 22.2991 12.0008C22.2991 17.4008 17.3991 21.7008 11.3991 21.7008C9.99913 21.7008 8.69913 21.5008 7.39913 21.0008C6.09913 22.0008 4.19913 22.6008 1.89913 22.7008C1.59913 22.7008 1.39913 22.7008 1.09913 22.6008C0.399127 22.3008 -0.100873 21.5008 0.0991269 20.7008V20.6008L0.199127 20.4008L0.399127 20.0008C0.999127 18.5008 1.39913 17.3008 1.59913 16.5008V16.3008L1.39913 16.0008C0.799127 14.8008 0.399127 13.4008 0.399127 12.0008C0.499127 6.60078 5.39913 2.30078 11.3991 2.30078ZM11.3991 4.80078C6.69913 4.80078 2.89913 8.10078 2.89913 12.1008C2.89913 13.3008 3.29913 14.5008 3.89913 15.5008C3.99913 15.7008 4.09913 16.0008 4.09913 16.2008C3.99913 17.1008 3.69913 18.3008 3.09913 19.9008L2.99913 20.3008L3.29913 20.2008C4.59913 20.0008 5.59913 19.5008 6.29913 18.8008C6.59913 18.4008 7.19913 18.3008 7.59913 18.5008C8.79913 19.0008 9.99913 19.2008 11.2991 19.2008C15.9991 19.2008 19.7991 15.9008 19.7991 11.9008C19.7991 7.90078 16.0991 4.80078 11.3991 4.80078Z" fill="white"/>
</svg>
