<svg width="20" height="20" viewBox="0 0 20 20" fill="none" xmlns="http://www.w3.org/2000/svg">
<path d="M1.7 1.50078C2 1.20078 2.6 1.20078 2.9 1.50078L18.7 17.3008C19 17.6008 19 18.2008 18.7 18.5008C18.4 18.8008 17.8 18.8008 17.5 18.5008L15.3 16.3008C15.3 16.3008 15.3 16.3008 15.2 16.3008H13.8C13.2 18.2008 11.9 19.3008 10 19.3008C8.1 19.3008 6.8 18.2008 6.2 16.3008H4C2.6 16.3008 1.6 15.8008 1.2 14.9008C1 14.5008 1 14.1008 1 13.7008C1 12.7008 1.4 12.1008 2.3 11.1008C2.4 11.0008 2.5 10.9008 2.5 10.8008C3 10.3008 3.1 10.0008 3.1 9.70078V8.10078C3.1 6.90078 3.3 5.80078 3.8 4.80078L1.7 2.70078C1.3 2.30078 1.3 1.80078 1.7 1.50078ZM12 16.2008H8C8.4 17.1008 9 17.5008 10 17.5008C11 17.5008 11.6 17.1008 12 16.2008ZM10 0.800781C13.9 0.800781 16.9 4.10078 16.9 8.20078V9.80078C16.9 10.1008 17.1 10.4008 17.5 10.9008C17.6 11.0008 17.6 11.0008 17.7 11.2008C18.4 12.0008 18.7 12.4008 18.9 13.1008C19 13.3008 19 13.6008 19 13.8008C19 14.3008 18.6 14.7008 18.1 14.7008C17.6 14.7008 17.2 14.3008 17.2 13.8008C17.2 13.7008 17.2 13.6008 17.2 13.5008C17.1 13.2008 16.9 12.9008 16.4 12.3008C16.3 12.2008 16.2 12.1008 16.2 12.0008C15.5 11.2008 15.2 10.6008 15.2 9.80078V8.20078C15.2 5.00078 13 2.60078 10.1 2.60078C9.2 2.60078 8.3 2.80078 7.6 3.30078C7.1 3.40078 6.6 3.30078 6.3 2.90078C6 2.50078 6.2 1.90078 6.6 1.70078C7.6 1.10078 8.8 0.800781 10 0.800781ZM13.5 14.5008L5.2 6.20078C5 6.80078 4.9 7.50078 4.9 8.10078V9.70078C4.9 10.5008 4.6 11.1008 3.9 11.9008C3.8 12.0008 3.8 12.0008 3.7 12.2008C3 13.0008 2.8 13.3008 2.8 13.7008C2.8 13.9008 2.8 14.0008 2.9 14.1008C3 14.3008 3.3 14.5008 4.1 14.5008H13.5Z" fill="#818C99"/>
</svg>
