<svg width="24" height="24" viewBox="0 0 24 24" fill="none" xmlns="http://www.w3.org/2000/svg">
<path fill-rule="evenodd" clip-rule="evenodd" d="M11.9364 3.42847H11.9089C11.8544 3.42847 11.8066 3.42847 11.7588 3.43018C11.1426 3.45291 10.5552 3.69627 10.1034 4.1159C10.067 4.15018 10.0312 4.18516 9.99604 4.22081L5.64553 8.57132H4.59819C4.26476 8.57132 3.96459 8.57132 3.7149 8.59172C3.44747 8.61358 3.16333 8.66304 2.88484 8.8049C2.48166 9.01033 2.15386 9.33814 1.94842 9.74132C1.80647 10.0198 1.75702 10.304 1.73524 10.5714C1.71484 10.8211 1.71484 11.1212 1.71484 11.4547V12.5451C1.71484 12.8786 1.71484 13.1788 1.73524 13.4285C1.75702 13.6958 1.80647 13.98 1.94842 14.2585C2.15383 14.6617 2.48164 14.9895 2.88484 15.1949C3.16342 15.3368 3.44747 15.3863 3.7149 15.4082C3.96459 15.4286 4.26467 15.4285 4.59819 15.4285H5.64553L9.99596 19.779C10.0345 19.8175 10.0684 19.8514 10.1034 19.884C10.5552 20.3036 11.1426 20.5469 11.7588 20.5696C11.8065 20.5713 11.8544 20.5713 11.9088 20.5713H11.9364C11.9931 20.5714 12.0622 20.5715 12.1268 20.5667C12.974 20.5041 13.6476 19.8305 13.7102 18.9833C13.7141 18.9199 13.7156 18.8565 13.7148 18.793V5.20687C13.7156 5.1434 13.7141 5.07993 13.7102 5.01658C13.6476 4.1693 12.974 3.49567 12.1268 3.4331C12.0622 3.42847 11.9931 3.42847 11.9364 3.42847ZM11.9202 5.14275C11.9597 5.14275 11.9813 5.14275 11.997 5.14301H12.0003V5.14627C12.0006 5.16212 12.0006 5.18364 12.0006 5.22324V18.7766C12.0006 18.8162 12.0006 18.8378 12.0003 18.8535V18.8568L11.997 18.8569C11.9813 18.857 11.9597 18.857 11.9202 18.857C11.8874 18.8574 11.8547 18.8572 11.8219 18.8564C11.6166 18.8489 11.4207 18.7678 11.2702 18.6279C11.2465 18.6053 11.2232 18.5823 11.2003 18.5589L6.64684 14.0054L6.64599 14.0047C6.63124 13.9898 6.61615 13.9752 6.60073 13.961C6.55658 13.9206 6.50868 13.8845 6.45767 13.8531C6.37329 13.8014 6.28131 13.7634 6.1851 13.7402C6.12688 13.7264 6.06747 13.718 6.00767 13.7154C5.97947 13.7141 5.95119 13.7142 5.94484 13.7142H4.62913C4.25499 13.7142 4.02587 13.7135 3.85444 13.6995C3.77464 13.693 3.7263 13.6848 3.69699 13.6779C3.68781 13.6758 3.67874 13.6732 3.66982 13.6702C3.66536 13.6686 3.66347 13.6676 3.66313 13.6675C3.58248 13.6264 3.51692 13.5608 3.47584 13.4802C3.47481 13.478 3.47389 13.4758 3.4731 13.4735C3.47003 13.4646 3.46745 13.4555 3.46539 13.4463C3.45853 13.417 3.4503 13.3687 3.44379 13.2889C3.42982 13.1174 3.42913 12.8884 3.42913 12.5142V11.4856C3.42913 11.1115 3.42982 10.8824 3.44379 10.711C3.4503 10.6311 3.45853 10.5828 3.46539 10.5535C3.46745 10.5443 3.47003 10.5352 3.4731 10.5263C3.47473 10.5218 3.47567 10.52 3.47584 10.5196C3.51694 10.439 3.5825 10.3734 3.66313 10.3323C3.66531 10.3313 3.66754 10.3304 3.66982 10.3296C3.67873 10.3266 3.6878 10.324 3.69699 10.322C3.7263 10.315 3.77464 10.3068 3.85444 10.3003C4.02587 10.2863 4.25499 10.2856 4.62913 10.2856H5.94484C5.95127 10.2856 5.97947 10.2857 6.00776 10.2844C6.2281 10.2745 6.43798 10.1876 6.60082 10.0388C6.62164 10.0197 6.64162 9.99967 6.64607 9.99521L6.64684 9.99444L11.2003 5.44095C11.2232 5.41758 11.2465 5.39458 11.2702 5.37195C11.4207 5.23205 11.6166 5.15092 11.8219 5.14335C11.8547 5.14265 11.8874 5.14245 11.9202 5.14275ZM22.0352 8.82238C22.3699 9.1571 22.3699 9.69984 22.0352 10.0346L20.0699 11.9999L22.0352 13.9652C22.3699 14.3 22.3699 14.8427 22.0352 15.1774C21.7005 15.5121 21.1578 15.5121 20.823 15.1774L18.8577 13.2121L16.8924 15.1774C16.5576 15.5121 16.0149 15.5121 15.6802 15.1774C15.3455 14.8427 15.3455 14.3 15.6802 13.9652L17.6455 11.9999L15.6802 10.0346C15.3455 9.69984 15.3455 9.1571 15.6802 8.82238C16.0149 8.48767 16.5576 8.48767 16.8924 8.82238L18.8577 10.7877L20.823 8.82238C21.1578 8.48767 21.7005 8.48767 22.0352 8.82238Z" fill="white"/>
</svg>
