<svg width="16" height="16" viewBox="0 0 16 16" fill="none" xmlns="http://www.w3.org/2000/svg">
<path d="M15.1016 13.7004H14.5016V12.4004H15.1016C15.3016 12.4004 15.4016 12.3004 15.4016 12.1004C15.4016 11.9004 15.3016 11.8004 15.1016 11.8004H14.5016V11.2004C14.5016 11.0004 14.4016 10.9004 14.2016 10.9004C14.0016 10.9004 13.9016 11.0004 13.9016 11.2004V11.8004H12.6016V11.2004C12.6016 11.0004 12.5016 10.9004 12.3016 10.9004C12.1016 10.9004 12.0016 11.0004 12.0016 11.2004V11.8004H11.4016C11.2016 11.8004 11.1016 11.9004 11.1016 12.1004C11.1016 12.3004 11.2016 12.4004 11.4016 12.4004H12.0016V13.7004H11.4016C11.2016 13.7004 11.1016 13.8004 11.1016 14.0004C11.1016 14.2004 11.2016 14.3004 11.4016 14.3004H12.0016V15.0004C12.0016 15.2004 12.1016 15.3004 12.3016 15.3004C12.5016 15.3004 12.6016 15.2004 12.6016 15.0004V14.4004H13.9016V15.0004C13.9016 15.2004 14.0016 15.3004 14.2016 15.3004C14.4016 15.3004 14.5016 15.2004 14.5016 15.0004V14.4004H15.1016C15.3016 14.4004 15.4016 14.3004 15.4016 14.1004C15.4016 13.9004 15.3016 13.7004 15.1016 13.7004ZM13.8016 13.7004H12.5016V12.4004H13.8016V13.7004Z" fill="#2688EB"/>
<path fill-rule="evenodd" clip-rule="evenodd" d="M14.9 3.4C14.6 2.8 14.1 2.3 13.5 2C12.8 1.6 12.1 1.5 10.6 1.5H5.2C3.7 1.5 3.1 1.6 2.4 2C1.8 2.3 1.3 2.8 1 3.4C0.6 4.1 0.5 4.7 0.5 6.2V9.1C0.5 10.6 0.6 11.3 1 12C1.3 12.6 1.8 13.1 2.4 13.4C3.1 13.8 3.7 13.9 5.3 13.9H10.3V12.7H8.5V10.2H15.3C15.3 9.9 15.3 9.6 15.3 9.2V6.2C15.4 4.7 15.2 4.1 14.9 3.4ZM7.3 12.6H5.3C3.8 12.6 3.4 12.5 3 12.2C2.6 12 2.3 11.7 2.1 11.3C1.9 11 1.8 10.7 1.8 10.1H7.3V12.6ZM7.3 8.9H1.7V6.4H7.3V8.9ZM7.3 5.2H1.8C1.9 4.5 2 4.2 2.1 4C2.3 3.6 2.6 3.3 3 3.1C3.4 2.9 3.8 2.7 5.3 2.7H7.3V5.2ZM8.5 2.7H10.6C12 2.7 12.5 2.8 12.9 3.1C13.3 3.3 13.6 3.6 13.8 4C13.9 4.3 14.1 4.6 14.1 5.2H8.5V2.7ZM14.1 8.9H8.5V6.4H14.1V8.9Z" fill="#2688EB"/>
</svg>
