<svg width="16" height="17" viewBox="0 0 16 17" fill="none" xmlns="http://www.w3.org/2000/svg">
<path d="M7.99922 6.29922C8.69922 6.29922 9.29922 5.69922 9.29922 4.99922C9.29922 4.29922 8.69922 3.69922 7.99922 3.69922C7.29922 3.69922 6.69922 4.29922 6.69922 4.99922C6.69922 5.79922 7.29922 6.29922 7.99922 6.29922Z" fill="#2688EB"/>
<path fill-rule="evenodd" clip-rule="evenodd" d="M3.60156 5.09922C3.60156 2.69922 5.60156 0.699219 8.00156 0.699219C10.4016 0.699219 12.4016 2.69922 12.4016 5.09922C12.4016 7.89922 10.5016 10.2992 9.30156 11.4992C8.50156 12.2992 7.30156 12.2992 6.60156 11.4992C5.50156 10.2992 3.60156 7.89922 3.60156 5.09922ZM8.00156 1.89922C6.30156 1.89922 4.80156 3.29922 4.80156 5.09922C4.80156 7.39922 6.40156 9.49922 7.50156 10.5992C7.80156 10.8992 8.20156 10.8992 8.40156 10.5992C9.50156 9.49922 11.1016 7.39922 11.1016 5.09922C11.2016 3.29922 9.70156 1.89922 8.00156 1.89922Z" fill="#2688EB"/>
<path d="M3.79922 9.89993C3.99922 10.1999 3.99922 10.5999 3.69922 10.7999C3.19922 11.1999 2.99922 11.5999 2.99922 11.9999C2.99922 12.4999 3.39922 13.1999 4.29922 13.6999C5.19922 14.1999 6.49922 14.4999 7.99922 14.4999C9.49922 14.4999 10.7992 14.1999 11.6992 13.6999C12.5992 13.1999 12.9992 12.5999 12.9992 11.9999C12.9992 11.5999 12.7992 11.1999 12.2992 10.6999C11.9992 10.4999 11.9992 10.0999 12.1992 9.79993C12.3992 9.49993 12.7992 9.49993 13.0992 9.69993C13.7992 10.2999 14.2992 10.9999 14.2992 11.8999C14.2992 13.0999 13.3992 14.0999 12.2992 14.6999C11.1992 15.2999 9.59922 15.6999 7.99922 15.6999C6.39922 15.6999 4.79922 15.2999 3.69922 14.6999C2.59922 14.0999 1.69922 13.0999 1.69922 11.8999C1.69922 10.9999 2.19922 10.1999 2.89922 9.69993C3.09922 9.59993 3.49922 9.59993 3.79922 9.89993Z" fill="#2688EB"/>
</svg>
