<svg width="16" height="16" viewBox="0 0 16 16" fill="none" xmlns="http://www.w3.org/2000/svg">
<path d="M12 12.2996C11.7 12.2996 11.4 12.4996 11.2 12.6996L11.1 12.7996C11 12.5996 11 12.2996 10.7 12.2996C10.5 12.2996 10.5 12.3996 10.4 12.5996C10.3 12.7996 10 13.1996 9.5 13.2996C9.7 12.9996 9.9 12.5996 9.9 12.1996C9.9 11.7996 9.7 11.5996 9.3 11.5996C8.9 11.5996 8.5 12.0996 8.5 12.6996C8.5 12.9996 8.6 13.2996 8.8 13.4996C8.7 13.5996 8.6 13.6996 8.6 13.6996C8.5 13.7996 8.5 13.8996 8.6 13.9996C8.6 14.0996 8.7 14.0996 8.8 14.0996H8.9C8.9 14.0996 9 13.9996 9.2 13.7996C9.3 13.7996 9.4 13.7996 9.4 13.7996C10.1 13.7996 10.5 13.3996 10.6 12.9996C10.7 13.1996 10.7 13.2996 10.9 13.2996C11.1 13.2996 11.2 13.1996 11.4 12.9996C11.6 12.8996 11.8 12.6996 11.9 12.6996C12 12.6996 12.1 12.5996 12.1 12.4996C12.2 12.3996 12.1 12.2996 12 12.2996ZM9.1 12.9996C9 12.8996 9 12.6996 9 12.4996C9 12.0996 9.2 11.7996 9.4 11.7996C9.5 11.7996 9.6 11.7996 9.6 11.9996C9.5 12.4996 9.3 12.7996 9.1 12.9996Z" fill="#2688EB"/>
<path d="M8.80156 0.400781C9.00156 0.400781 9.20156 0.500781 9.40156 0.600781C9.60156 0.700781 9.80156 0.900781 10.1016 1.20078L13.4016 4.50078C13.8016 4.90078 13.9016 5.00078 14.0016 5.20078C14.1016 5.40078 14.2016 5.60078 14.3016 5.90078C14.4016 6.20078 14.4016 6.40078 14.4016 6.90078V11.4008C14.4016 12.7008 14.3016 13.3008 13.9016 13.9008C13.6016 14.5008 13.1016 14.9008 12.6016 15.2008C12.0016 15.5008 11.4016 15.7008 10.1016 15.7008H5.90156C4.60156 15.7008 4.00156 15.6008 3.40156 15.2008C2.80156 14.9008 2.40156 14.4008 2.10156 13.9008C1.80156 13.3008 1.60156 12.7008 1.60156 11.4008V4.10078C1.60156 3.30078 1.70156 2.60078 2.10156 2.10078C2.40156 1.50078 2.90156 1.10078 3.40156 0.800781C4.00156 0.500781 4.60156 0.300781 5.40156 0.300781H7.70156C8.30156 0.300781 8.50156 0.300781 8.80156 0.400781ZM7.80156 1.30078H5.40156C4.70156 1.30078 4.20156 1.40078 3.80156 1.60078C3.40156 1.80078 3.10156 2.10078 2.90156 2.50078C2.70156 2.90078 2.60156 3.40078 2.60156 4.10078V11.4008C2.60156 12.5008 2.70156 13.0008 2.90156 13.4008C3.10156 13.8008 3.40156 14.1008 3.80156 14.3008C4.30156 14.5008 4.70156 14.6008 5.80156 14.6008H10.0016C11.1016 14.6008 11.6016 14.5008 12.0016 14.3008C12.4016 14.1008 12.7016 13.8008 12.9016 13.4008C13.1016 12.9008 13.2016 12.5008 13.2016 11.4008V6.90078C13.2016 6.70078 13.2016 6.60078 13.2016 6.50078C13.2016 6.50078 13.1016 6.50078 13.0016 6.50078H9.60156C8.80156 6.50078 8.20156 5.90078 8.20156 5.00078V1.40078C8.20156 1.30078 8.20156 1.30078 8.20156 1.20078C8.10156 1.30078 8.00156 1.30078 7.80156 1.30078ZM9.10156 1.70078V5.10078C9.10156 5.40078 9.30156 5.60078 9.60156 5.60078H13.0016C12.9016 5.50078 12.8016 5.40078 12.7016 5.20078L9.50156 2.00078C9.30156 1.80078 9.20156 1.70078 9.10156 1.70078Z" fill="#2688EB"/>
<path d="M6.69844 4.99961H3.79844C3.59844 4.99961 3.39844 4.79961 3.39844 4.59961C3.39844 4.29961 3.59844 4.09961 3.89844 4.09961H6.79844C7.09844 4.09961 7.29844 4.29961 7.29844 4.59961C7.09844 4.79961 6.89844 4.99961 6.69844 4.99961Z" fill="#2688EB"/>
<path d="M6.70078 6.80078H3.80078C3.50078 6.80078 3.30078 6.60078 3.30078 6.30078C3.30078 6.00078 3.50078 5.80078 3.80078 5.80078H6.70078C7.00078 5.80078 7.20078 6.00078 7.20078 6.30078C7.10078 6.60078 6.90078 6.80078 6.70078 6.80078Z" fill="#2688EB"/>
<path d="M12.2008 8.5H3.80078C3.50078 8.5 3.30078 8.3 3.30078 8C3.30078 7.7 3.50078 7.5 3.80078 7.5H12.2008C12.5008 7.5 12.7008 7.7 12.7008 8C12.6008 8.3 12.4008 8.5 12.2008 8.5Z" fill="#2688EB"/>
<path d="M12.2008 10.3008H3.80078C3.50078 10.3008 3.30078 10.1008 3.30078 9.80078C3.30078 9.50078 3.50078 9.30078 3.80078 9.30078H12.2008C12.5008 9.30078 12.7008 9.50078 12.7008 9.80078C12.6008 10.0008 12.4008 10.3008 12.2008 10.3008Z" fill="#2688EB"/>
</svg>
