<svg width="16" height="16" viewBox="0 0 16 16" fill="none" xmlns="http://www.w3.org/2000/svg">
<path d="M8.00156 0.900391C11.0016 0.900391 13.2016 3.40039 13.2016 6.50039V7.70039C13.2016 8.00039 13.4016 8.20039 13.7016 8.70039C13.7016 8.80039 13.7016 8.70039 13.9016 8.90039C14.6016 9.70039 14.9016 10.2004 14.9016 10.9004C14.9016 11.0004 14.9016 11.1004 14.9016 11.2004C14.9016 11.4004 14.8016 11.5004 14.7016 11.7004C14.4016 12.3004 13.7016 12.7004 12.7016 12.7004H10.8016V12.8004C10.4016 14.3004 9.40156 15.1004 8.00156 15.1004C6.50156 15.1004 5.60156 14.3004 5.10156 12.7004H3.20156C2.10156 12.7004 1.50156 12.3004 1.20156 11.7004C1.10156 11.5004 1.10156 11.4004 1.10156 11.2004C1.10156 11.1004 1.10156 11.0004 1.10156 10.9004C1.10156 10.2004 1.40156 9.70039 2.10156 8.90039C2.30156 8.70039 2.20156 8.70039 2.30156 8.70039C2.70156 8.20039 2.80156 8.00039 2.80156 7.70039V6.50039C2.80156 3.40039 5.00156 0.900391 8.00156 0.900391ZM9.80156 12.7004H6.20156C6.50156 13.6004 7.10156 14.1004 8.00156 14.1004C8.90156 14.1004 9.50156 13.7004 9.80156 12.7004ZM8.00156 1.90039C5.60156 1.90039 3.80156 3.90039 3.80156 6.50039V7.70039C3.80156 8.30039 3.60156 8.70039 3.00156 9.30039L2.90156 9.40039C2.90156 9.50039 2.90156 9.50039 2.80156 9.50039C2.30156 10.1004 2.10156 10.4004 2.10156 10.8004C2.10156 11.0004 2.10156 11.1004 2.20156 11.2004C2.30156 11.4004 2.60156 11.6004 3.30156 11.6004H12.8016C13.5016 11.6004 13.8016 11.4004 13.9016 11.2004C14.0016 11.1004 14.0016 11.0004 14.0016 10.8004C14.0016 10.4004 13.8016 10.1004 13.3016 9.50039C13.3016 9.40039 13.3016 9.40039 13.2016 9.40039L13.1016 9.30039C12.6016 8.70039 12.3016 8.20039 12.3016 7.70039V6.50039C12.2016 3.90039 10.4016 1.90039 8.00156 1.90039Z" fill="#2688EB"/>
</svg>
