<svg width="24" height="24" viewBox="0 0 24 24" fill="none" xmlns="http://www.w3.org/2000/svg">
<mask id="mask0_2612_66195" style="mask-type:luminance" maskUnits="userSpaceOnUse" x="2" y="2" width="20" height="20">
<path d="M22 2H2V22H22V2Z" fill="white"/>
</mask>
<g mask="url(#mask0_2612_66195)">
<mask id="mask1_2612_66195" style="mask-type:luminance" maskUnits="userSpaceOnUse" x="10" y="11" width="10" height="9">
<path d="M20 11H10V20H20V11Z" fill="white"/>
</mask>
<g mask="url(#mask1_2612_66195)">
<path d="M14.6364 19.0198C16.2727 18.7525 18.7273 17.4158 18.7273 15.7228V15.2772C19.4545 15.2772 20 14.7426 20 14.0297V12.2475C20 11.5347 19.4545 11 18.7273 11H17.8182C17.6364 11 17.4545 11.1782 17.4545 11.4455V14.8317C17.4545 15.099 17.6364 15.2772 17.9091 15.2772V15.7228C17.9091 16.4356 17 17.2376 16.1818 17.7723C15.5455 18.1287 15 18.3069 14.3636 18.3069H13.4545C13.2727 17.7723 12.8182 17.4158 12.2727 17.4158H11.3636C10.5455 17.4158 10 17.9505 10 18.6634C10 19.3762 10.5455 19.9109 11.2727 19.9109H12.1818C12.7273 19.9109 13.1818 19.5545 13.3636 19.0198H14.6364Z" fill="#0170CC"/>
</g>
<path fill-rule="evenodd" clip-rule="evenodd" d="M6.00078 4.16133C6.06016 3.93946 6.73672 1.98633 12.0008 1.98633C17.2648 1.98633 17.9414 3.93946 18.0008 4.16133C18.0024 4.16784 18.004 4.17359 18.0056 4.17911C18.0085 4.18951 18.0112 4.19909 18.0133 4.21133L18.8133 10.5988C18.8305 10.7301 18.7727 10.8582 18.6758 10.9488C18.6367 10.9847 18.5992 11.0176 18.5508 11.0363C18.6555 11.3519 18.7945 11.8816 18.9008 12.7988C19.0805 13.0738 19.2008 13.4441 19.2008 13.9238C19.2008 14.8269 18.5727 15.5535 17.7383 15.7613C17.6647 15.9519 17.5888 16.1442 17.5102 16.3372C17.371 16.4363 17.2511 16.5242 17.1435 16.603C16.8128 16.8455 16.5988 17.0023 16.2995 17.1336C16.5866 16.5297 16.8451 15.9056 17.0758 15.2988L17.1633 15.0613L17.4008 15.0363C17.9602 14.9785 18.4008 14.5191 18.4008 13.9238C18.4008 13.2613 18.1992 13.1176 18.0258 13.0363C17.8523 12.9551 17.6633 12.9863 17.6633 12.9863L17.2008 13.0613V10.8613C15.9117 10.641 13.7492 10.3113 12.0008 10.3113C10.2508 10.3113 8.08984 10.641 6.80078 10.8613V13.0363L6.35078 12.9863C6.35078 12.9863 6.15703 12.9722 5.97578 13.0613C5.79453 13.1504 5.60078 13.2926 5.60078 13.9238C5.60078 14.5191 6.03984 14.9785 6.60078 15.0363L6.85078 15.0613L6.93828 15.2988C7.47578 16.7129 8.15234 18.2207 9.00078 19.3488C9.84922 20.4769 10.8242 21.1988 12.0008 21.1988C13.1773 21.1988 14.1523 20.4769 15.0008 19.3488C15.202 19.0812 15.3943 18.7923 15.5777 18.4883L16.6671 18.1786C16.3601 18.7659 16.0196 19.3288 15.6383 19.8363C14.7086 21.0722 13.5055 21.9988 12.0008 21.9988C10.4961 21.9988 9.29297 21.0722 8.36328 19.8363C7.47109 18.6488 6.80234 17.1582 6.26328 15.7613C5.43359 15.5504 4.80078 14.8238 4.80078 13.9238C4.80078 13.4613 4.92266 13.0972 5.10078 12.8238V12.8113C5.20703 11.8863 5.34609 11.3535 5.45078 11.0363C5.40234 11.0176 5.36484 10.9847 5.32578 10.9488C5.22891 10.8582 5.17266 10.7301 5.18828 10.5988L5.98828 4.21133C5.99032 4.19909 5.99303 4.1895 5.99597 4.1791C5.99753 4.17358 5.99916 4.16783 6.00078 4.16133ZM12.4008 5.99883V4.39883H11.6008V5.99883H10.0008V6.79883H11.6008V8.39883H12.4008V6.79883H14.0008V5.99883H12.4008Z" fill="#0170CC"/>
</g>
</svg>
