<svg width="34" height="34" viewBox="0 0 34 34" fill="none" xmlns="http://www.w3.org/2000/svg">
<path fill-rule="evenodd" clip-rule="evenodd" d="M11.0992 4.50039C7.69922 4.50039 6.29922 4.80039 4.79922 5.60039C3.49922 6.30039 2.49922 7.30039 1.79922 8.60039C0.999219 10.0004 0.699219 11.5004 0.699219 14.9004V21.2004C0.699219 24.6004 0.999219 26.0004 1.79922 27.5004C2.49922 28.8004 3.59922 29.9004 4.89922 30.6004C6.29922 31.4004 7.79922 31.7004 11.1992 31.7004H22.8992C26.2992 31.7004 27.6992 31.4004 29.1992 30.6004C30.4992 29.9004 31.5992 28.8004 32.2992 27.5004C33.0992 26.1004 33.3992 24.6004 33.3992 21.2004V14.9004C33.3992 11.5004 33.0992 10.1004 32.2992 8.60039C31.5992 7.30039 30.4992 6.20039 29.1992 5.50039C27.7992 4.70039 26.2992 4.40039 22.8992 4.40039H11.0992V4.50039ZM5.79922 7.40039C6.79922 6.90039 7.79922 6.60039 11.0992 6.60039H22.7992C26.0992 6.60039 27.0992 6.90039 28.0992 7.40039C28.2992 7.50039 28.3992 7.60039 28.5992 7.70039L21.9992 14.3004C20.5992 15.7004 19.6992 16.6004 18.7992 17.3004C17.9992 17.9004 17.4992 18.1004 16.8992 18.1004C16.3992 18.1004 15.7992 17.9004 14.9992 17.3004C14.1992 16.7004 13.1992 15.7004 11.7992 14.3004L5.29922 7.70039C5.49922 7.60039 5.59922 7.40039 5.79922 7.40039ZM3.89922 9.10039C3.79922 9.30039 3.69922 9.40039 3.59922 9.60039C3.09922 10.6004 2.79922 11.6004 2.79922 14.9004V21.2004C2.79922 24.5004 3.09922 25.5004 3.59922 26.5004C4.09922 27.5004 4.89922 28.2004 5.79922 28.7004C6.79922 29.2004 7.79922 29.5004 11.0992 29.5004H22.7992C26.0992 29.5004 27.0992 29.2004 28.0992 28.7004C29.0992 28.2004 29.7992 27.4004 30.2992 26.5004C30.7992 25.5004 31.0992 24.5004 31.0992 21.2004V14.9004C31.0992 11.6004 30.7992 10.6004 30.2992 9.60039C30.1992 9.40039 30.0992 9.30039 29.9992 9.10039L23.3992 15.7004L23.2992 15.8004C21.9992 17.1004 20.8992 18.2004 19.9992 18.9004C18.9992 19.6004 17.9992 20.1004 16.8992 20.1004C15.7992 20.1004 14.7992 19.6004 13.7992 18.9004C12.8992 18.2004 11.7992 17.1004 10.4992 15.8004L10.3992 15.7004C10.4992 15.7004 3.89922 9.10039 3.89922 9.10039Z" fill="#2688EB"/>
</svg>
