<svg width="18" height="15" viewBox="0 0 18 15" fill="none" xmlns="http://www.w3.org/2000/svg">
<path fill-rule="evenodd" clip-rule="evenodd" d="M12.4016 7.49961C12.4016 9.39961 10.9016 10.8996 9.00156 10.8996C7.10156 10.8996 5.60156 9.39961 5.60156 7.49961C5.60156 5.59961 7.10156 4.09961 9.00156 4.09961C10.9016 4.09961 12.4016 5.59961 12.4016 7.49961ZM11.3016 7.49961C11.3016 8.69961 10.3016 9.79961 9.00156 9.79961C7.70156 9.79961 6.70156 8.79961 6.70156 7.49961C6.70156 6.19961 7.70156 5.19961 9.00156 5.19961C10.3016 5.19961 11.3016 6.29961 11.3016 7.49961Z" fill="#2688EB"/>
<path fill-rule="evenodd" clip-rule="evenodd" d="M17.5984 7.49961C17.5984 9.39961 13.7984 13.8996 8.99844 13.8996C4.19844 13.8996 0.398438 9.39961 0.398438 7.49961C0.398438 5.59961 4.09844 1.09961 8.99844 1.09961C13.8984 1.09961 17.5984 5.59961 17.5984 7.49961ZM16.4984 7.49961C16.4984 7.69961 16.3984 8.09961 15.9984 8.69961C15.5984 9.29961 15.0984 9.89961 14.3984 10.5996C12.9984 11.7996 11.0984 12.7996 8.99844 12.7996C6.89844 12.7996 4.99844 11.7996 3.59844 10.5996C2.89844 9.89961 2.29844 9.29961 1.99844 8.69961C1.59844 8.09961 1.49844 7.69961 1.49844 7.49961C1.49844 7.29961 1.59844 6.89961 1.99844 6.29961C2.39844 5.69961 2.89844 5.09961 3.59844 4.39961C4.99844 3.19961 6.89844 2.19961 8.99844 2.19961C11.0984 2.19961 12.9984 3.19961 14.3984 4.39961C15.0984 4.99961 15.5984 5.69961 15.9984 6.29961C16.3984 6.89961 16.4984 7.29961 16.4984 7.49961Z" fill="#2688EB"/>
</svg>
