<svg width="15" height="9" viewBox="0 0 15 9" fill="none" xmlns="http://www.w3.org/2000/svg">
<g clip-path="url(#clip0_2612_65845)">
<path fill-rule="evenodd" clip-rule="evenodd" d="M13.6011 2.90078L14.7011 4.00078L14.8011 4.10078C14.8011 4.20078 14.9011 4.20078 14.9011 4.30078C14.9011 4.40078 14.9011 4.60078 14.9011 4.70078C14.9011 4.80078 14.8011 4.90078 14.8011 4.90078L14.7011 5.00078L13.8011 5.90078L13.7011 6.00078C13.6011 6.00078 13.6011 6.10078 13.5011 6.10078C13.4011 6.10078 13.2011 6.10078 13.1011 6.10078C13.0011 6.10078 12.9011 6.00078 12.9011 6.00078L12.8011 5.90078L12.3011 5.40078L11.8011 5.90078L11.7011 6.00078C11.6011 6.00078 11.6011 6.10078 11.5011 6.10078C11.4011 6.10078 11.2011 6.10078 11.1011 6.10078C11.0011 6.10078 10.9011 6.00078 10.9011 6.00078L10.8011 5.90078L9.9011 5.40078L9.4011 5.90078L9.3011 6.00078C9.2011 6.00078 9.2011 6.10078 9.1011 6.10078C9.0011 6.10078 8.8011 6.10078 8.7011 6.10078C8.6011 6.10078 8.5011 6.00078 8.5011 6.00078L8.4011 5.90078L7.6011 5.20078H7.5011V5.30078C7.3011 6.00078 6.9011 6.60078 6.4011 7.10078C5.0011 8.60078 2.6011 8.60078 1.2011 7.10078C-0.198896 5.60078 -0.298896 3.30078 1.2011 1.80078C2.7011 0.300781 5.0011 0.300781 6.5011 1.80078C6.6011 2.10078 6.8011 2.40078 7.0011 2.60078H13.0011C13.0011 2.60078 13.1011 2.60078 13.2011 2.60078C13.3011 2.60078 13.3011 2.60078 13.4011 2.70078C13.5011 2.80078 13.6011 2.90078 13.6011 2.90078ZM13.0011 3.40078H7.0011C6.9011 3.40078 6.8011 3.40078 6.7011 3.40078C6.6011 3.40078 6.4011 3.30078 6.4011 3.10078C6.4011 3.10078 6.4011 3.00078 6.3011 3.00078C6.2011 2.80078 6.0011 2.60078 5.9011 2.40078C4.7011 1.20078 2.9011 1.20078 1.7011 2.40078C0.501104 3.60078 0.501104 5.40078 1.7011 6.60078C2.9011 7.80078 4.7011 7.80078 5.9011 6.60078C6.3011 6.20078 6.6011 5.70078 6.7011 5.20078C6.7011 5.10078 6.7011 5.10078 6.7011 5.00078C6.7011 4.80078 6.9011 4.70078 7.1011 4.60078C7.2011 4.60078 7.3011 4.60078 7.3011 4.60078C7.4011 4.60078 7.4011 4.60078 7.5011 4.60078H7.6011C7.7011 4.60078 7.7011 4.60078 7.8011 4.60078C7.9011 4.60078 7.9011 4.60078 8.0011 4.70078C8.1011 4.70078 8.1011 4.80078 8.2011 4.80078L8.9011 5.50078L9.4011 5.00078L9.5011 4.90078C9.6011 4.90078 9.6011 4.80078 9.7011 4.80078C9.8011 4.80078 10.0011 4.80078 10.1011 4.80078C10.2011 4.80078 10.3011 4.90078 10.3011 4.90078L10.4011 5.00078L11.0011 5.40078L11.5011 4.90078L11.6011 4.80078C11.7011 4.80078 11.7011 4.70078 11.8011 4.70078C11.9011 4.70078 12.1011 4.70078 12.2011 4.70078C12.3011 4.70078 12.4011 4.80078 12.4011 4.80078L12.5011 4.90078L13.0011 5.40078L13.9011 4.50078L13.0011 3.40078ZM3.4011 5.00078C3.1011 5.30078 2.6011 5.30078 2.3011 5.00078C2.0011 4.70078 2.0011 4.30078 2.3011 4.00078C2.6011 3.70078 3.1011 3.70078 3.4011 4.00078C3.7011 4.30078 3.7011 4.70078 3.4011 5.00078Z" fill="#2688EB"/>
</g>
<defs>
<clipPath id="clip0_2612_65845">
<rect width="15" height="9" fill="white"/>
</clipPath>
</defs>
</svg>
