<svg width="12" height="12" viewBox="0 0 12 12" fill="none" xmlns="http://www.w3.org/2000/svg">
<g clip-path="url(#clip0_2612_65843)">
<path d="M7.50142 8.09936L7.10142 8.49936C6.80142 8.69936 6.50142 8.79936 6.20142 8.69936C5.70142 8.49936 5.20142 8.09936 4.50142 7.49936C3.90142 6.79936 3.50142 6.29936 3.30142 5.79936C3.20142 5.49936 3.30142 5.19936 3.50142 4.99936L3.90142 4.59936C4.50142 3.89936 4.60142 2.99936 4.00142 2.29936L3.50142 1.79936C3.10142 1.29936 2.40142 1.19936 1.90142 1.69936C1.70142 1.79936 1.60142 1.99936 1.50142 2.29936C1.50142 2.39936 1.40142 2.49936 1.40142 2.59936C1.20142 4.29936 2.00142 6.09936 3.90142 8.09936C5.80142 9.99936 7.60142 10.8994 9.30142 10.5994C9.70142 10.5994 10.0014 10.3994 10.3014 10.0994C10.7014 9.59936 10.7014 8.89936 10.2014 8.49936L9.70142 7.99936C9.00142 7.39936 8.10142 7.49936 7.50142 8.09936ZM6.90142 7.49936C7.80142 6.59936 9.20142 6.49936 10.2014 7.29936L10.8014 7.79936C11.6014 8.49936 11.7014 9.69936 11.0014 10.5994C10.6014 10.9994 10.1014 11.2994 9.50142 11.3994C7.50142 11.6994 5.50142 10.6994 3.40142 8.59936C1.30142 6.49936 0.401417 4.49936 0.601417 2.49936C0.601417 2.29936 0.701417 2.19936 0.701417 1.99936C0.801417 1.59936 1.10142 1.29936 1.40142 0.999363C2.20142 0.299363 3.50142 0.399363 4.20142 1.19936L4.70142 1.79936C5.50142 2.79936 5.40142 4.19936 4.50142 5.09936L4.10142 5.49936C4.20142 5.79936 4.60142 6.29936 5.10142 6.89936C5.70142 7.49936 6.10142 7.79936 6.50142 7.89936L6.90142 7.49936Z" fill="#2688EB"/>
</g>
<defs>
<clipPath id="clip0_2612_65843">
<rect width="12" height="12" fill="white"/>
</clipPath>
</defs>
</svg>
