<svg width="15" height="16" viewBox="0 0 15 16" fill="none" xmlns="http://www.w3.org/2000/svg">
<path d="M6.69922 12.1C6.39922 12.1 6.19922 12.3 6.19922 12.6C6.19922 12.9 6.49922 13 6.69922 13H8.29922C8.59922 13 8.79922 12.8 8.79922 12.5C8.79922 12.2 8.59922 12 8.29922 12H6.69922V12.1Z" fill="#2688EB"/>
<path fill-rule="evenodd" clip-rule="evenodd" d="M2.19922 4.5C2.19922 3.1 2.19922 2.4 2.49922 1.9C2.69922 1.4 3.09922 1 3.59922 0.8C4.09922 0.5 4.79922 0.5 6.19922 0.5H8.79922C10.1992 0.5 10.8992 0.5 11.3992 0.8C11.8992 1 12.2992 1.4 12.4992 1.9C12.7992 2.4 12.7992 3.1 12.7992 4.5V11.5C12.7992 12.9 12.7992 13.6 12.4992 14.1C12.2992 14.6 11.8992 15 11.3992 15.2C10.8992 15.5 10.1992 15.5 8.79922 15.5H6.19922C4.79922 15.5 4.09922 15.5 3.59922 15.2C3.09922 15 2.69922 14.6 2.49922 14.1C2.19922 13.6 2.19922 12.9 2.19922 11.5V4.5ZM6.19922 1.4H8.79922C9.49922 1.4 9.99922 1.4 10.3992 1.4C10.7992 1.4 10.8992 1.5 10.9992 1.5C11.2992 1.6 11.4992 1.9 11.6992 2.2C11.7992 2.3 11.7992 2.5 11.7992 2.8C11.7992 3.2 11.7992 3.7 11.7992 4.4V11.4C11.7992 12.1 11.7992 12.6 11.7992 13C11.7992 13.4 11.6992 13.5 11.6992 13.6C11.5992 13.9 11.2992 14.1 10.9992 14.3C10.8992 14.4 10.6992 14.4 10.3992 14.4C9.99922 14.4 9.49922 14.4 8.79922 14.4H6.19922C5.49922 14.4 4.99922 14.4 4.59922 14.4C4.19922 14.4 4.09922 14.3 3.99922 14.3C3.69922 14.2 3.49922 13.9 3.29922 13.6C3.19922 13.5 3.19922 13.3 3.19922 13C3.19922 12.6 3.19922 12.1 3.19922 11.4V4.4C3.19922 3.7 3.19922 3.2 3.19922 2.8C3.19922 2.4 3.29922 2.3 3.29922 2.2C3.39922 2 3.69922 1.8 3.99922 1.6C4.09922 1.5 4.29922 1.5 4.59922 1.5C4.99922 1.4 5.49922 1.4 6.19922 1.4Z" fill="#2688EB"/>
</svg>
