<svg xmlns="http://www.w3.org/2000/svg" viewBox="0 0 248.523 259.139" xmlns:v="https://vecta.io/nano"><path d="M178.037 24.143H56.319C25.229 24.143.037 49.355.037 80.445v60.187c1.716-.057 3.393-.252 5.129-.252 48.924 0 91.535 26.826 114.103 66.52 22.588-39.694 65.179-66.52 114.103-66.52l.967.038V80.444c0-31.09-25.212-56.301-56.302-56.301" fill="#e8e8e8"/><path d="M119.275 206.938c-8.863 15.599-14.679 33.147-16.525 51.887H56.314C25.202 258.824 0 233.619 0 202.598v-61.947c1.754-.088 3.416-.271 5.17-.271 48.928 0 91.487 26.864 114.105 66.558z" fill="#f89820"/><path d="M234.303 140.474v62.124c0 31.021-25.203 56.226-56.221 56.226H102.75c1.847-18.74 7.662-36.288 16.525-51.887 22.618-39.694 65.177-66.558 114.105-66.558l.923.095z" fill="#33a852"/><path d="M150.155 87.988c0 14.4-11.676 26.076-26.079 26.076s-26.08-11.675-26.08-26.076c0-14.407 11.676-26.082 26.08-26.082s26.079 11.676 26.079 26.082zm97.518-3.368l-13.293 76.619V81.201c0-31.116-25.204-56.315-56.315-56.315H56.389c-6.462 0-12.648 1.198-18.371 3.141C49.558 8.455 72.361-2.993 96.087 1.164l105.797 18.368c30.649 5.355 51.144 34.439 45.789 65.088z" fill="#4273b8"/></svg>