<svg width="24" height="24" viewBox="0 0 24 24" fill="none" xmlns="http://www.w3.org/2000/svg">
<path fill-rule="evenodd" clip-rule="evenodd" d="M9.16541 2.57153C7.06712 2.57153 6.14227 2.75668 5.20284 3.2581C4.37489 3.69735 3.69772 4.37482 3.25884 5.20296C2.75741 6.14153 2.57227 7.06639 2.57227 9.16468V14.8355C2.57227 16.9338 2.75741 17.8587 3.25884 18.7972C3.69777 19.6259 4.37528 20.3037 5.20369 20.743C6.14312 21.2444 7.06798 21.4295 9.16627 21.4295H12.4294C12.6567 21.4295 12.8748 21.3392 13.0355 21.1785C13.1962 21.0177 13.2866 20.7997 13.2866 20.5724C13.2866 20.3451 13.1962 20.127 13.0355 19.9663C12.8748 19.8056 12.6567 19.7152 12.4294 19.7152H9.16541C7.16398 19.7152 6.57769 19.5335 6.01112 19.231C5.83965 19.1397 5.67721 19.0323 5.52598 18.9104L8.04855 16.3878C8.39569 16.0407 8.62027 15.817 8.80455 15.6601C8.98112 15.5101 9.06512 15.4715 9.10969 15.457C9.28113 15.4008 9.4659 15.4002 9.63769 15.4552C9.68227 15.4698 9.76627 15.5075 9.94455 15.6567C10.1297 15.8118 10.356 16.0338 10.7057 16.3792L11.2311 16.897C11.3922 17.0558 11.6096 17.1444 11.8359 17.1436C12.0621 17.1428 12.2788 17.0526 12.4388 16.8927L15.4388 13.8927C15.5207 13.8136 15.586 13.719 15.6309 13.6145C15.6758 13.5099 15.6995 13.3974 15.7005 13.2836C15.7015 13.1698 15.6798 13.0569 15.6367 12.9516C15.5936 12.8462 15.5299 12.7505 15.4495 12.6701C15.369 12.5896 15.2733 12.5259 15.1679 12.4828C15.0626 12.4397 14.9497 12.418 14.8359 12.419C14.7221 12.42 14.6096 12.4437 14.5051 12.4886C14.4005 12.5335 14.3059 12.5988 14.2268 12.6807L11.8286 15.079C11.5768 14.8234 11.3155 14.5775 11.0451 14.3418C10.7854 14.125 10.5043 13.933 10.1588 13.8224C9.64389 13.658 9.09024 13.6601 8.57655 13.8284C8.23284 13.9407 7.95255 14.1352 7.69455 14.3538C7.45027 14.5612 7.17684 14.8355 6.85884 15.1527L6.83569 15.1758L4.54369 17.4687C4.38084 16.9741 4.28655 16.267 4.28655 14.8372V9.16553C4.28655 7.1641 4.46827 6.57782 4.77084 6.01125C5.05024 5.48229 5.48283 5.05 6.01198 4.77096C6.57769 4.46753 7.16398 4.28582 9.16541 4.28582H14.8363C16.8377 4.28582 17.424 4.46753 17.9906 4.7701C18.5195 5.04951 18.9518 5.4821 19.2308 6.01125C19.5334 6.57696 19.7151 7.16325 19.7151 9.16468V12.4287C19.7151 12.656 19.8054 12.874 19.9662 13.0348C20.1269 13.1955 20.3449 13.2858 20.5723 13.2858C20.7996 13.2858 21.0176 13.1955 21.1784 13.0348C21.3391 12.874 21.4294 12.656 21.4294 12.4287V9.16468C21.4294 7.06639 21.2443 6.14153 20.7428 5.2021C20.3036 4.37413 19.6261 3.69694 18.798 3.2581C17.8594 2.75668 16.9346 2.57153 14.8363 2.57153H9.16541ZM9.00084 10.2858C9.34183 10.2858 9.66886 10.1504 9.90997 9.90924C10.1511 9.66812 10.2866 9.3411 10.2866 9.0001C10.2866 8.65911 10.1511 8.33209 9.90997 8.09097C9.66886 7.84985 9.34183 7.71439 9.00084 7.71439C8.65984 7.71439 8.33282 7.84985 8.0917 8.09097C7.85058 8.33209 7.71512 8.65911 7.71512 9.0001C7.71512 9.3411 7.85058 9.66812 8.0917 9.90924C8.33282 10.1504 8.65984 10.2858 9.00084 10.2858ZM18.852 14.4712C18.8262 14.2543 18.7185 14.0554 18.551 13.9152C18.3834 13.775 18.1687 13.704 17.9506 13.7168C17.7325 13.7296 17.5275 13.8252 17.3776 13.9841C17.2276 14.1429 17.1439 14.3531 17.1437 14.5715V17.143H14.5723L14.472 17.149C14.2635 17.1735 14.0712 17.2738 13.9317 17.4306C13.7922 17.5875 13.7151 17.7902 13.7151 18.0001L13.7211 18.1004C13.7457 18.3089 13.8459 18.5011 14.0028 18.6406C14.1597 18.7801 14.3623 18.8572 14.5723 18.8572H17.1437V21.4287L17.1497 21.529C17.1755 21.7459 17.2832 21.9448 17.4507 22.085C17.6182 22.2252 17.833 22.2962 18.0511 22.2834C18.2692 22.2706 18.4741 22.175 18.6241 22.0161C18.7741 21.8573 18.8577 21.6471 18.858 21.4287V18.8572H21.4294L21.5297 18.8512C21.7382 18.8267 21.9304 18.7265 22.0699 18.5696C22.2094 18.4127 22.2865 18.21 22.2866 18.0001L22.2806 17.8998C22.256 17.6913 22.1558 17.4991 21.9989 17.3596C21.842 17.2201 21.6394 17.143 21.4294 17.143H18.858V14.5715L18.852 14.4712Z" fill="#818C99"/>
</svg>
