<svg width="32" height="32" viewBox="0 0 32 32" fill="none" xmlns="http://www.w3.org/2000/svg">
<path d="M16.0013 29.3326C23.3651 29.3326 29.3346 23.3631 29.3346 15.9993C29.3346 8.63556 23.3651 2.66602 16.0013 2.66602C8.6375 2.66602 2.66797 8.63556 2.66797 15.9993C2.66797 23.3631 8.6375 29.3326 16.0013 29.3326Z" fill="#E60023"/>
<path d="M16.2947 7.61133C10.5398 7.61133 7.48438 11.4744 7.48438 15.6801C7.48438 17.636 8.52538 20.0703 10.1911 20.8457C10.4434 20.9632 10.5788 20.9124 10.6367 20.6678C10.6813 20.4821 10.9059 19.5765 11.007 19.1555C11.0393 19.0211 11.0234 18.9057 10.9147 18.7734C10.3634 18.1047 9.92232 16.876 9.92232 15.7303C9.92232 12.7893 12.149 9.94365 15.9423 9.94365C19.2177 9.94365 21.5111 12.176 21.5111 15.3683C21.5111 18.9749 19.6895 21.4739 17.3198 21.4739C16.0111 21.4739 15.0311 20.3914 15.3454 19.0637C15.7224 17.479 16.45 15.7693 16.45 14.6247C16.45 13.6011 15.9013 12.7467 14.7634 12.7467C13.4254 12.7467 12.3511 14.1303 12.3511 15.9847C12.3511 17.1647 12.75 17.9637 12.75 17.9637C12.75 17.9637 11.4285 23.5513 11.1864 24.5913C10.9185 25.7395 11.0229 27.3524 11.1389 28.4069C11.4396 28.5249 11.7405 28.6428 12.0514 28.739C12.596 27.8538 13.408 26.4019 13.709 25.2442C13.8716 24.6201 14.5403 22.0744 14.5403 22.0744C14.9747 22.9037 16.2444 23.6057 17.5957 23.6057C21.6167 23.6057 24.5147 19.9078 24.5147 15.3124C24.5147 10.9067 20.9203 7.61133 16.2947 7.61133Z" fill="white"/>
</svg>
