<svg width="16" height="16" viewBox="0 0 16 16" fill="none" xmlns="http://www.w3.org/2000/svg">
<path fill-rule="evenodd" clip-rule="evenodd" d="M6.4 0.199219C4.8 0.199219 4.1 0.299219 3.4 0.699219C2.8 0.999219 2.3 1.49922 2 2.09922C1.6 2.79922 1.5 3.49922 1.5 5.09922V10.5992C1.5 12.1992 1.6 12.8992 2 13.5992C2.3 14.1992 2.8 14.6992 3.4 14.9992C4.1 15.3992 4.8 15.4992 6.4 15.4992H7.2C7.6 15.4992 7.8 15.1992 7.8 14.8992C7.8 14.4992 7.5 14.2992 7.2 14.2992H6.4C4.9 14.2992 4.5 14.1992 4.1 13.8992C3.7 13.6992 3.4 13.3992 3.2 12.9992C3 12.5992 2.8 12.0992 2.8 10.6992V5.09922C2.8 3.59922 2.9 3.19922 3.2 2.79922C3.3 2.29922 3.6 1.99922 4 1.79922C4.4 1.59922 4.9 1.39922 6.3 1.39922H7.7H7.8V4.89922C7.8 5.79922 8.5 6.49922 9.4 6.49922H12.9V6.69922V8.39922C12.9 8.79922 13.2 8.99922 13.5 8.99922C13.8 8.99922 14.1 8.69922 14.1 8.39922V6.79922C14.1 6.29922 14.1 6.09922 14 5.79922C13.9 5.49922 13.8 5.29922 13.7 5.09922C13.6 4.89922 13.4 4.69922 13 4.29922L9.9 1.19922C9.7 0.799219 9.6 0.699219 9.3 0.499219C9.1 0.399219 8.9 0.299219 8.6 0.199219C8.4 0.199219 8.2 0.199219 7.8 0.199219H6.4ZM9.2 2.09922L9.1 4.89922C9.1 5.09922 9.2 5.19922 9.4 5.19922H9.5H12.4C12.4 5.19922 12.4 5.19922 12.3 5.09922L10.7 3.49922C10.7 3.59922 9.2 2.09922 9.2 2.09922Z" fill="#2688EB"/>
<path d="M13.1008 10.9992C13.0008 10.9992 13.0008 10.9992 13.1008 10.9992C13.0008 11.0992 13.0008 11.0992 13.0008 11.0992C12.9008 11.0992 12.9008 11.1992 12.8008 11.1992C12.7008 11.1992 12.6008 11.1992 12.5008 11.0992L9.70078 8.39922C9.50078 8.19922 9.50078 7.99922 9.70078 7.79922C9.80078 7.69922 9.90078 7.69922 10.0008 7.69922C10.1008 7.69922 10.2008 7.69922 10.3008 7.79922L13.0008 10.4992C13.1008 10.5992 13.2008 10.7992 13.1008 10.9992Z" fill="#2688EB"/>
<path d="M10.0008 14.1008C9.90078 14.2008 9.90078 14.2008 9.90078 14.2008C9.80078 14.2008 9.80078 14.3008 9.70078 14.3008C9.60078 14.3008 9.50078 14.3008 9.40078 14.2008L6.70078 11.5008C6.50078 11.3008 6.50078 11.1008 6.70078 10.9008C6.80078 10.8008 6.90078 10.8008 7.00078 10.8008C7.10078 10.8008 7.20078 10.8008 7.30078 10.9008L10.0008 13.6008C10.1008 13.7008 10.1008 13.9008 10.0008 14.1008Z" fill="#2688EB"/>
<path d="M14.6992 15.4004C14.6992 15.5004 14.5992 15.6004 14.5992 15.7004C14.3992 15.9004 14.0992 15.9004 13.8992 15.7004L10.6992 12.4004L11.1992 11.9004L14.4992 15.1004C14.6992 15.1004 14.6992 15.2004 14.6992 15.4004Z" fill="#2688EB"/>
<path d="M9.88448 8.95908L7.84375 11.0195L9.7621 12.9195L11.8028 10.8591L9.88448 8.95908Z" fill="#2688EB"/>
</svg>
