<svg width="40" height="40" viewBox="0 0 40 40" fill="none" xmlns="http://www.w3.org/2000/svg">
<path fill-rule="evenodd" clip-rule="evenodd" d="M27.3031 17.3C27.3031 21.3 24.0031 24.6 20.0031 24.6C16.0031 24.6 12.7031 21.3 12.7031 17.3C12.7031 13.3 16.0031 10 20.0031 10C24.0031 10 27.3031 13.3 27.3031 17.3ZM25.0031 17.3C25.0031 14.6 22.8031 12.3 20.0031 12.3C17.2031 12.3 15.0031 14.5 15.0031 17.3C15.0031 20.1 17.2031 22.3 20.0031 22.3C22.8031 22.3 25.0031 20 25.0031 17.3Z" fill="#2688EB"/>
<path d="M20.0023 27.2988C24.9023 27.2988 29.5023 28.9988 33.1023 31.8988L31.4023 33.4988C28.2023 31.0988 24.3023 29.6988 20.0023 29.6988C15.7023 29.6988 11.8023 30.9988 8.60234 33.3988L6.90234 31.7988C10.5023 28.9988 15.1023 27.2988 20.0023 27.2988Z" fill="#2688EB"/>
<path fill-rule="evenodd" clip-rule="evenodd" d="M38.4016 19.9996C38.4016 30.0996 30.2016 38.3996 20.0016 38.3996C9.80156 38.3996 1.60156 30.0996 1.60156 19.9996C1.60156 9.89961 9.90156 1.59961 20.0016 1.59961C30.1016 1.59961 38.4016 9.79961 38.4016 19.9996ZM36.1016 19.9996C36.1016 28.8996 28.9016 36.0996 20.0016 36.0996C11.1016 36.0996 3.90156 28.8996 3.90156 19.9996C3.90156 11.0996 11.1016 3.89961 20.0016 3.89961C28.9016 3.89961 36.1016 11.0996 36.1016 19.9996Z" fill="#2688EB"/>
</svg>
