<svg width="28" height="28" viewBox="0 0 28 28" fill="none" xmlns="http://www.w3.org/2000/svg">
<rect width="28" height="28" rx="14" fill="#F2F3F5"/>
<path fill-rule="evenodd" clip-rule="evenodd" d="M18.0725 12.4992C18.0725 14.7485 16.2504 16.5706 14.0011 16.5706C11.7518 16.5706 9.92969 14.7485 9.92969 12.4992C9.92969 10.2498 11.7518 8.42773 14.0011 8.42773C16.2504 8.42773 18.0725 10.2498 18.0725 12.4992ZM16.7868 12.4992C16.7868 10.9599 15.5404 9.71345 14.0011 9.71345C12.4619 9.71345 11.2154 10.9599 11.2154 12.4992C11.2154 14.0384 12.4619 15.2849 14.0011 15.2849C15.5404 15.2849 16.7868 14.0384 16.7868 12.4992Z" fill="#2688EB"/>
<path d="M14.0015 18.0713C16.7719 18.0713 19.3207 19.0279 21.333 20.6282L20.3687 21.5067C18.6022 20.1578 16.3961 19.357 14.0015 19.357C11.6068 19.357 9.40069 20.1578 7.63421 21.5067L6.66992 20.6282C8.68224 19.0279 11.231 18.0713 14.0015 18.0713Z" fill="#2688EB"/>
<path fill-rule="evenodd" clip-rule="evenodd" d="M24.2863 13.9996C24.2863 19.6802 19.6812 24.2853 14.0006 24.2853C8.31993 24.2853 3.71484 19.6802 3.71484 13.9996C3.71484 8.31895 8.31993 3.71387 14.0006 3.71387C19.6812 3.71387 24.2863 8.31895 24.2863 13.9996ZM23.0006 13.9996C23.0006 18.9702 18.9711 22.9996 14.0006 22.9996C9.02999 22.9996 5.00056 18.9702 5.00056 13.9996C5.00056 9.02901 9.02999 4.99958 14.0006 4.99958C18.9711 4.99958 23.0006 9.02901 23.0006 13.9996Z" fill="#2688EB"/>
</svg>
