<svg width="16" height="16" viewBox="0 0 16 16" fill="none" xmlns="http://www.w3.org/2000/svg">
<path fill-rule="evenodd" clip-rule="evenodd" d="M11.6992 6.90039C11.6992 8.60039 10.2992 9.90039 8.69922 9.90039C7.09922 9.90039 5.69922 8.50039 5.69922 6.90039C5.69922 5.30039 7.09922 3.90039 8.69922 3.90039C10.2992 3.90039 11.6992 5.20039 11.6992 6.90039ZM10.6992 6.90039C10.6992 5.80039 9.79922 4.80039 8.59922 4.80039C7.39922 4.80039 6.59922 5.70039 6.59922 6.90039C6.59922 8.10039 7.49922 9.00039 8.59922 9.00039C9.69922 9.00039 10.6992 8.00039 10.6992 6.90039Z" fill="#2688EB"/>
<path fill-rule="evenodd" clip-rule="evenodd" d="M6.49766 1C4.89766 1 4.29766 1.1 3.59766 1.5C2.99766 1.8 2.49766 2.3 2.09766 3C1.79766 3.6 1.59766 4.3 1.59766 5.9V10.1C1.59766 11.7 1.69766 12.4 2.09766 13C2.39766 13.6 2.89766 14.1 3.49766 14.4C4.29766 14.9 4.89766 15 6.49766 15H10.6977C12.2977 15 12.9977 14.9 13.5977 14.5C14.1977 14.2 14.6977 13.7 14.9977 13.1C15.3977 12.4 15.4977 11.8 15.4977 10.2V5.9C15.4977 4.3 15.3977 3.6 14.9977 3C14.6977 2.4 14.1977 1.9 13.5977 1.6C12.9977 1.1 12.2977 1 10.6977 1H6.49766ZM3.99766 2.3C4.49766 2.1 4.99766 2 6.49766 2H10.6977C12.1977 2 12.6977 2.1 13.1977 2.4C13.6977 2.6 13.9977 3 14.2977 3.5C14.5977 4 14.6977 4.5 14.6977 6V10.2C14.6977 11.7 14.5977 12.2 14.2977 12.7C14.1977 12.8 14.1977 12.9 14.0977 13C12.5977 11.8 10.6977 11.1 8.69766 11.1C6.69766 11.1 4.69766 11.8 3.29766 13C3.09766 12.8 2.99766 12.7 2.99766 12.6C2.69766 12.1 2.59766 11.6 2.59766 10.1V5.9C2.59766 4.4 2.69766 3.9 2.99766 3.4C3.19766 2.9 3.59766 2.6 3.99766 2.3ZM3.89766 13.6L3.99766 13.7C4.49766 13.9 4.99766 14 6.49766 14H10.6977C12.1977 14 12.6977 13.9 13.1977 13.6C13.1977 13.6 13.2977 13.6 13.2977 13.5C11.9977 12.5 10.2977 11.9 8.59766 11.9C6.89766 11.9 5.19766 12.6 3.89766 13.6Z" fill="#2688EB"/>
<path d="M0.398438 5C0.398438 4.7 0.598437 4.5 0.898437 4.5H2.19844C2.49844 4.5 2.69844 4.7 2.69844 5C2.69844 5.3 2.49844 5.5 2.19844 5.5H0.798438C0.598438 5.5 0.398438 5.2 0.398438 5Z" fill="#2688EB"/>
<path d="M0.398438 7.19922C0.398438 6.89922 0.598437 6.69922 0.898437 6.69922H2.19844C2.49844 6.69922 2.69844 6.89922 2.69844 7.19922C2.69844 7.49922 2.49844 7.69922 2.19844 7.69922H0.798438C0.598438 7.69922 0.398438 7.49922 0.398438 7.19922Z" fill="#2688EB"/>
<path d="M0.398438 9.4C0.398438 9.2 0.598438 9 0.798438 9H2.09844C2.39844 9 2.59844 9.2 2.59844 9.5C2.59844 9.8 2.39844 10 2.09844 10H0.798438C0.598438 9.9 0.398438 9.7 0.398438 9.4Z" fill="#2688EB"/>
<path d="M0.398438 11.6992C0.398438 11.3992 0.598437 11.1992 0.898437 11.1992H2.19844C2.49844 11.1992 2.69844 11.3992 2.69844 11.6992C2.69844 11.9992 2.49844 12.1992 2.19844 12.1992H0.798438C0.598438 12.0992 0.398438 11.8992 0.398438 11.6992Z" fill="#2688EB"/>
</svg>
