<svg width="24" height="24" viewBox="0 0 24 24" fill="none" xmlns="http://www.w3.org/2000/svg">
<path d="M15.5 6.5C15.5 4.6 13.9 3 12 3C10.1 3 8.5 4.6 8.5 6.5C8.5 8.4 10.1 10 12 10C13.9 10 15.5 8.4 15.5 6.5ZM17.5 6.5C17.5 9.5 15 12 12 12C9 12 6.5 9.5 6.5 6.5C6.5 3.5 9 1 12 1C15 1 17.5 3.5 17.5 6.5ZM5 18.6C5 19.5 4.9 19.5 5.5 19.5H19C19.5 19.5 19.5 19.6 19.5 18.6C19.5 16.3 16.2 15 12.3 15C8.4 15 5 16.4 5 18.6ZM3 18.6C3 14.7 7.3 13 12.2 13C17.1 13 21.4 14.8 21.4 18.6C21.4 20.6 20.6 21.5 18.9 21.5H5.5C3.8 21.5 3 20.7 3 18.6Z" fill="white"/>
</svg>
