<svg width="25" height="25" viewBox="0 0 25 25" fill="none" xmlns="http://www.w3.org/2000/svg">
<g clip-path="url(#clip0_2612_66209)">
<path d="M9.22426 14.7515C9.38862 14.4457 9.66569 14.1445 10.1353 13.9187C10.4405 13.7729 10.7458 13.6976 11.0463 13.6976C11.6099 13.6976 12.009 13.9516 12.3002 14.1351C12.38 14.1869 12.4411 14.2245 12.4974 14.2528C12.0748 10.4464 12.1358 6.59309 12.6806 2.80089C12.7041 2.62681 12.7182 2.4245 12.5867 2.31628C12.4411 2.19866 12.2298 2.26923 12.0607 2.34922C10.3184 3.14435 8.58558 3.93949 6.85272 4.73463C6.28449 4.9934 5.70217 5.25688 5.08228 5.35568C4.43421 5.45449 3.77206 5.36509 3.1146 5.3745C2.65438 5.37921 2.18477 5.43567 1.76212 5.62857C1.55549 5.72267 1.38174 5.85912 1.20328 5.99085C1.02014 6.12259 0.860469 6.29197 0.728978 6.48017C0.550525 6.72953 0.42373 7.01654 0.3392 7.31295C0.179532 7.85402 0.156051 8.42332 0.146659 8.98791C0.137267 9.68425 0.151355 10.39 0.348592 11.0534C0.545829 11.7215 0.944999 12.352 1.5508 12.6907C2.18947 13.0483 2.92676 13.0295 3.67344 13.0059V21.4513C3.67344 21.7995 3.95521 22.0818 4.30272 22.0818H5.40631C5.69747 22.0818 5.94636 21.8842 6.01681 21.6019L6.76819 18.5249L7.00299 17.5651L7.8436 14.1304C8.30851 14.3375 8.76404 14.5445 9.22426 14.7515Z" fill="black"/>
<path d="M24.8198 14.8125C24.5897 13.7962 23.6927 14.2291 23.0447 13.4151C22.3966 12.6012 22.9977 11.726 22.0256 11.3449C21.1474 11.0015 20.9173 11.886 19.8795 11.886C19.269 11.886 18.9403 11.5472 18.5787 11.3637C18.6256 10.6909 18.6491 9.9899 18.6491 9.27945C18.6491 7.02107 18.4049 4.88973 17.9635 3.28063C17.4563 1.43629 16.7613 0.5 15.8972 0.5C15.0331 0.5 14.3334 1.43629 13.8262 3.28063C13.3848 4.88973 13.1406 7.02107 13.1406 9.27945C13.1406 10.9826 13.2767 12.6059 13.535 13.9938C13.7745 13.8621 14.0704 13.735 14.4461 13.7162C14.3005 12.8929 14.1925 11.9754 14.1361 11.0062H15.0049C15.9582 11.0062 16.7284 10.2346 16.7284 9.27945C16.7284 8.32435 15.9582 7.55273 15.0049 7.55273H14.1361C14.2254 6.03774 14.432 4.64977 14.7372 3.52999C15.1928 1.87855 15.6905 1.4457 15.8972 1.4457C16.1038 1.4457 16.6016 1.88326 17.0571 3.52999C17.4751 5.05911 17.7099 7.10106 17.7099 9.27945C17.7099 10.004 17.6864 10.7098 17.6347 11.392C16.7707 11.8484 17.3577 12.6153 16.719 13.4151C16.3903 13.8291 16.0005 13.9185 15.6624 14.0409C16.4513 14.5161 16.5452 15.283 16.5969 15.7158C16.6204 15.9134 16.6392 16.0358 16.6767 16.1299C16.6955 16.1769 16.719 16.2146 16.7472 16.2522C16.8411 16.3698 16.935 16.4075 17.2027 16.5016C17.2872 16.5298 17.3905 16.5674 17.4939 16.6098C17.8695 16.765 18.3345 17.0473 18.5974 17.6731L20.6543 13.9938H21.4903L19.0952 18.2706H18.7618C18.8557 18.9434 18.6303 19.4186 18.3767 19.748C19.0248 20.2373 18.945 21.0183 19.8795 21.0183C20.922 21.0183 20.6966 20.0444 21.6358 19.5927C22.5751 19.141 23.1949 19.9221 23.843 19.1081C24.4911 18.2942 23.5941 17.8613 23.8242 16.845C24.0543 15.8288 25.0499 15.8288 24.8198 14.8125ZM18.5458 15.9087C18.2687 15.9087 18.0292 15.8193 17.8555 15.6547C17.6817 15.4853 17.5737 15.2359 17.5737 14.9113C17.5737 14.389 17.8555 14.0597 18.2593 13.9562C18.3486 13.9327 18.4425 13.9232 18.5411 13.9232C19.0952 13.9232 19.5085 14.2761 19.5085 14.9113C19.5179 15.5559 19.0999 15.9087 18.5458 15.9087ZM21.2226 18.3459C20.6684 18.3459 20.2552 17.9977 20.2552 17.3485C20.2552 16.7086 20.6684 16.3604 21.2226 16.3604C21.772 16.3604 22.1806 16.7086 22.1806 17.3485C22.1806 17.9977 21.772 18.3459 21.2226 18.3459Z" fill="black"/>
<path d="M18.5412 14.4355C18.3346 14.4355 18.2031 14.5767 18.2031 14.9107C18.2031 15.2448 18.3299 15.3906 18.5412 15.3906C18.7526 15.3906 18.8887 15.2448 18.8887 14.9107C18.8887 14.5767 18.7526 14.4355 18.5412 14.4355Z" fill="black"/>
<path d="M21.2186 16.873C21.0073 16.873 20.8711 17.0142 20.8711 17.3482C20.8711 17.6917 21.0026 17.8282 21.2186 17.8282C21.4252 17.8282 21.5614 17.687 21.5614 17.3482C21.5614 17.0142 21.4252 16.873 21.2186 16.873Z" fill="black"/>
<path d="M15.939 16.8969C15.2909 16.0829 15.892 15.2078 14.9246 14.8267C14.0465 14.4833 13.821 15.3678 12.7785 15.3678C11.736 15.3678 11.5199 14.3939 10.5807 14.8502C9.64617 15.3019 10.2661 16.0829 9.61799 16.8969C8.96992 17.7109 8.07297 17.278 7.84286 18.2943C7.61275 19.3105 8.60832 19.3105 8.83843 20.3268C9.06854 21.3431 8.17158 21.7759 8.81965 22.5899C9.46771 23.4039 10.0876 22.6228 11.0222 23.0792C11.9567 23.5309 11.736 24.5001 12.7785 24.5001C13.821 24.5001 13.5956 23.5309 14.5349 23.0792C15.4694 22.6275 16.0893 23.4086 16.7373 22.5899C17.3854 21.7759 16.4884 21.3431 16.7186 20.3268C16.9487 19.3105 17.9442 19.3105 17.7141 18.2943C17.484 17.2827 16.5871 17.7109 15.939 16.8969ZM10.1862 20.5903C9.73539 20.5903 9.38319 20.3645 9.36441 19.941H9.90916C9.92325 20.101 10.0266 20.181 10.1675 20.181C10.3177 20.181 10.4117 20.1057 10.4117 19.9834C10.4117 19.5928 9.35971 19.8046 9.3691 19.0565C9.3691 18.6566 9.69783 18.4354 10.1346 18.4354C10.5948 18.4354 10.9001 18.6613 10.9235 19.0659H10.3694C10.36 18.9294 10.2661 18.8495 10.1252 18.8448C10.0031 18.84 9.90916 18.9059 9.90916 19.0377C9.90916 19.4046 10.947 19.24 10.947 19.941C10.9564 20.2939 10.6793 20.5903 10.1862 20.5903ZM12.7034 20.5668L12.5766 20.1951H11.7923L11.6655 20.5668H11.1302L11.8909 18.4636H12.4827L13.2434 20.5668H12.7034ZM14.657 20.5668H13.4735V18.4636H13.9854V20.1715H14.657V20.5668ZM16.1879 18.873H15.413V19.2964H16.0987V19.6916H15.413V20.1527H16.1879V20.5621H14.9012V18.4589H16.1879V18.873Z" fill="black"/>
<path d="M11.9297 19.7989H12.4463L12.188 19.0273L11.9297 19.7989Z" fill="black"/>
</g>
<defs>
<clipPath id="clip0_2612_66209">
<rect width="25" height="25" fill="white"/>
</clipPath>
</defs>
</svg>
