<svg width="100" height="100" viewBox="0 0 100 100" fill="none" xmlns="http://www.w3.org/2000/svg">
<path fill-rule="evenodd" clip-rule="evenodd" d="M33.7008 4.5H33.9008H65.8008H66.0008C69.1008 4.5 71.6008 4.5 73.6008 4.7C75.7008 4.9 77.7008 5.2 79.5008 6.2C82.4008 7.7 84.7008 10 86.1008 12.8C87.0008 14.6 87.4008 16.6 87.6008 18.7C87.8008 20.8 87.8008 23.3 87.8008 26.3V26.5V31H80.2008V26.5C80.2008 23.3 80.2008 21 80.1008 19.3C80.0008 17.6 79.7008 16.8 79.4008 16.2C78.7008 14.8 77.5008 13.6 76.1008 12.9C75.5008 12.6 74.7008 12.4 73.0008 12.2C71.3008 12.1 69.1008 12.1 65.8008 12.1H33.9008C30.7008 12.1 28.4008 12.1 26.7008 12.2C25.0008 12.3 24.2008 12.6 23.6008 12.9C22.2008 13.6 21.0008 14.8 20.3008 16.2C20.0008 16.8 19.8008 17.6 19.6008 19.3C19.5008 21 19.5008 23.2 19.5008 26.5V31V73.4C20.7008 73 22.0008 72.8 23.3008 72.8H76.4008H80.2008V31H87.8008V76.5C87.8008 78.6 86.1008 80.3 84.0008 80.3H80.6008C80.4008 81.5 80.2008 82.8 80.2008 84.1C80.2008 85.4 80.3008 86.7 80.6008 87.9H84.5008C86.6008 87.9 88.3008 89.6 88.3008 91.7C88.3008 93.8 86.6008 95.5 84.5008 95.5H23.2008C16.9008 95.5 11.8008 90.4 11.8008 84.1V31V26.5V26.3C11.8008 23.2 11.8008 20.7 12.0008 18.7C12.2008 16.6 12.5008 14.6 13.5008 12.8C15.0008 9.9 17.3008 7.6 20.1008 6.2C21.9008 5.3 23.9008 4.9 26.0008 4.7C28.1008 4.5 30.6008 4.5 33.7008 4.5ZM72.8008 87.9C72.6008 86.7 72.5008 85.4 72.5008 84.1C72.5008 82.8 72.6008 81.5 72.8008 80.3H23.2008C21.1008 80.3 19.4008 82 19.4008 84.1C19.4008 86.2 21.1008 87.9 23.2008 87.9H72.8008Z" fill="#2688EB"/>
</svg>
