<svg width="20" height="20" viewBox="0 0 20 20" fill="none" xmlns="http://www.w3.org/2000/svg">
<path fill-rule="evenodd" clip-rule="evenodd" d="M2.14453 9.15622C2.14453 5.21172 5.8186 2.14258 10.1802 2.14258C14.5419 2.14258 18.216 5.21172 18.216 9.15622C18.216 13.1008 14.5419 16.1699 10.1802 16.1699C9.53196 16.1699 8.90085 16.1029 8.29585 15.9761C7.338 16.5792 6.01832 17.0724 4.36864 17.4732C4.14814 17.5268 3.91546 17.4937 3.71857 17.3809C3.18526 17.0751 3.21147 16.4867 3.47618 16.0223C3.83439 15.3881 4.17278 14.7354 4.42242 14.0498C3.02364 12.7966 2.14453 11.0735 2.14453 9.15622ZM10.1802 3.21401C6.25764 3.21401 3.21596 5.9454 3.21596 9.15622C3.21596 10.8344 4.0341 12.3667 5.38271 13.461C5.55189 13.5982 5.62107 13.8243 5.55775 14.0327C5.35796 14.6902 5.01242 15.4566 4.53332 16.3266C6.03196 15.933 7.14089 15.4725 7.88971 14.9615C8.01414 14.8766 8.16857 14.848 8.31517 14.8827C8.90803 15.0232 9.53339 15.0985 10.1802 15.0985C14.1029 15.0985 17.1445 12.3671 17.1445 9.15622C17.1445 5.9454 14.1029 3.21401 10.1802 3.21401Z" fill="white"/>
<path d="M9.5621 6.92394C9.59794 6.78242 9.70558 6.6137 9.88164 6.47634C10.0566 6.33983 10.2522 6.27119 10.4152 6.27119C10.8371 6.27119 11.2486 6.68962 11.2486 7.11864C11.2486 7.56314 11.0405 7.84548 10.6829 8.24379C10.6585 8.2709 10.6325 8.29936 10.6053 8.3291C10.2827 8.68206 9.79017 9.22105 9.79017 10.0141C9.79017 10.1827 9.85602 10.3444 9.97324 10.4636C10.0905 10.5828 10.2494 10.6497 10.4152 10.6497C10.581 10.6497 10.74 10.5828 10.8572 10.4636C10.9744 10.3444 11.0403 10.1827 11.0403 10.0141C11.0403 9.74414 11.1904 9.56377 11.606 9.10085C11.9776 8.68701 12.4987 8.08658 12.4987 7.11864C12.4987 5.98757 11.5275 5 10.4152 5C9.93102 5 9.47446 5.19174 9.12061 5.46787C8.76781 5.74315 8.46987 6.13941 8.35146 6.60713C8.3105 6.77026 8.33487 6.94325 8.4192 7.08813C8.50354 7.23301 8.64096 7.33794 8.8013 7.3799C8.96164 7.42186 9.13181 7.39741 9.27444 7.31193C9.41708 7.22645 9.52053 7.08691 9.5621 6.92394Z" fill="white"/>
<path d="M10.4152 13.3333C10.8755 13.3333 11.2486 12.9539 11.2486 12.4859C11.2486 12.0179 10.8755 11.6384 10.4152 11.6384C9.95498 11.6384 9.58183 12.0179 9.58183 12.4859C9.58183 12.9539 9.95498 13.3333 10.4152 13.3333Z" fill="white"/>
</svg>
