<svg width="16" height="16" viewBox="0 0 16 16" fill="none" xmlns="http://www.w3.org/2000/svg">
<g clip-path="url(#clip0_2612_65831)">
<path d="M10.5991 5.20039L14.0991 5.50039C15.2991 5.60039 15.6991 6.80039 14.6991 7.60039L11.9991 10.0004L12.9991 13.8004C13.2991 15.0004 12.2991 15.8004 11.2991 15.0004L7.99908 12.6004L4.69908 15.0004C3.69908 15.7004 2.59908 15.0004 2.99908 13.8004L3.99908 10.0004L1.19908 7.60039C0.299081 6.80039 0.599081 5.60039 1.79908 5.50039L5.29908 5.20039L6.79908 1.60039C7.29908 0.500391 8.49908 0.500391 8.99908 1.60039C9.09908 1.60039 10.5991 5.20039 10.5991 5.20039Z" fill="#2688EB"/>
</g>
<defs>
<clipPath id="clip0_2612_65831">
<rect width="16" height="16" fill="white"/>
</clipPath>
</defs>
</svg>
