<svg width="14" height="23" viewBox="0 0 14 23" fill="none" xmlns="http://www.w3.org/2000/svg">
<g clip-path="url(#clip0_2612_66218)">
<path d="M10.4936 1.04052C10.1041 0.750494 9.56552 0.780877 9.21197 1.11233C8.85842 1.44379 8.78936 1.9824 9.05729 2.38844C10.5599 4.565 11.4216 8.16683 11.4437 11.7576C11.4658 15.3484 10.6538 18.9447 9.14568 21.171C8.87499 21.4583 8.79489 21.8809 8.94957 22.2455C9.10425 22.6101 9.4578 22.8531 9.85555 22.8587C10.2533 22.8642 10.6151 22.6349 10.7808 22.2759C12.6453 19.5275 13.4767 15.6246 13.4546 11.7355C13.4325 7.84642 12.5541 3.97943 10.6924 1.28358C10.64 1.19243 10.5737 1.10957 10.4936 1.04052ZM6.25096 3.86894C5.88636 3.57616 5.36984 3.57892 5.00248 3.86894C4.64064 4.15897 4.52463 4.66168 4.72626 5.08428C6.51613 9.13357 6.5907 14.5667 4.74836 18.3647C4.5191 18.6878 4.50253 19.1132 4.7014 19.4502C4.90304 19.7899 5.28145 19.9805 5.67367 19.9363C6.0659 19.8921 6.39459 19.6242 6.51613 19.2486C8.6844 14.7822 8.59878 8.88498 6.56032 4.26669C6.49127 4.10925 6.38631 3.97114 6.25096 3.86894ZM1.98622 6.67527C1.62715 6.41011 1.13549 6.41563 0.781929 6.68632C0.428376 6.95701 0.298555 7.42934 0.461521 7.84642C1.2073 9.8683 1.3316 13.2906 0.461521 15.6246C0.281981 15.9644 0.317889 16.3815 0.547146 16.6881C0.779166 16.9974 1.16863 17.1438 1.54704 17.0692C1.92269 16.9919 2.22377 16.7074 2.31768 16.3317C3.41425 13.3901 3.28995 9.74124 2.33978 7.16141C2.27349 6.96806 2.15195 6.79681 1.98622 6.67527Z" fill="#0170CC"/>
</g>
<defs>
<clipPath id="clip0_2612_66218">
<rect width="14" height="23" fill="white"/>
</clipPath>
</defs>
</svg>
