<svg width="20" height="20" viewBox="0 0 20 20" fill="none" xmlns="http://www.w3.org/2000/svg">
<g clip-path="url(#clip0_2612_65979)">
<path fill-rule="evenodd" clip-rule="evenodd" d="M7.40078 6.40039C7.00078 6.40039 6.80078 6.70039 6.80078 7.00039L7.40078 15.8004C7.40078 16.1004 7.70078 16.4004 8.00078 16.4004C8.30078 16.4004 8.60078 16.1004 8.60078 15.8004L8.00078 7.00039C8.00078 6.60039 7.70078 6.40039 7.40078 6.40039ZM12.6008 6.40039C12.9008 6.40039 13.2008 6.70039 13.2008 7.00039L12.6008 15.8004C12.6008 16.1004 12.3008 16.4004 12.0008 16.4004C11.7008 16.4004 11.4008 16.1004 11.4008 15.8004L12.0008 7.00039C12.0008 6.60039 12.3008 6.40039 12.6008 6.40039Z" fill="#E64646"/>
<path fill-rule="evenodd" clip-rule="evenodd" d="M0.799219 2.80002C0.499219 2.80002 0.199219 3.10002 0.199219 3.40002C0.199219 3.70002 0.499219 4.00002 0.799219 4.00002H2.69922L3.79922 16.6C3.79922 17.1 3.89922 17.5 3.89922 17.8C3.99922 18.1 3.99922 18.4 4.19922 18.7C4.49922 19.1 4.89922 19.5 5.29922 19.7C5.59922 19.8 5.89922 19.9 6.29922 19.9C6.59922 19.9 6.99922 19.9 7.49922 19.9H12.3992C12.8992 19.9 13.2992 19.9 13.5992 19.9C13.8992 19.9 14.2992 19.8 14.5992 19.7C15.0992 19.5 15.4992 19.1 15.6992 18.7C15.8992 18.4 15.9992 18.1 15.9992 17.8C16.0992 17.5 16.0992 17.1 16.0992 16.6L17.2992 4.00002H19.1992C19.4992 4.00002 19.7992 3.70002 19.7992 3.40002C19.7992 3.10002 19.4992 2.80002 19.1992 2.80002H13.2992C12.9992 1.00002 11.1992 -0.299981 9.29922 0.100019C7.99922 0.300019 6.89922 1.40002 6.69922 2.80002H0.799219ZM4.99922 16.4C4.99922 16.9 5.09922 17.3 5.09922 17.6C5.09922 17.9 5.19922 18 5.29922 18.1C5.39922 18.3 5.69922 18.5 5.89922 18.7C5.99922 18.8 6.19922 18.8 6.39922 18.8C6.69922 18.8 6.99922 18.8 7.59922 18.8H12.3992C12.8992 18.8 13.2992 18.8 13.5992 18.8C13.8992 18.8 13.9992 18.7 14.0992 18.7C14.3992 18.6 14.5992 18.4 14.6992 18.1C14.7992 18 14.7992 17.8 14.8992 17.6C14.8992 17.3 14.9992 17 14.9992 16.4L16.0992 4.00002H3.89922L4.99922 16.4ZM9.99922 1.20002C8.99922 1.20002 8.19922 1.90002 7.89922 2.80002H12.0992C11.7992 1.90002 10.9992 1.20002 9.99922 1.20002Z" fill="#E64646"/>
</g>
<defs>
<clipPath id="clip0_2612_65979">
<rect width="20" height="20" fill="white"/>
</clipPath>
</defs>
</svg>
