<svg width="41" height="41" viewBox="0 0 41 41" fill="none" xmlns="http://www.w3.org/2000/svg">
<path d="M20.5 3C30.2 3 38 10.8 38 20.5C38 30.2 30.2 38 20.5 38C10.8 38 3 30.2 3 20.5C3 10.8 10.8 3 20.5 3Z" fill="#E64646"/>
<path fill-rule="evenodd" clip-rule="evenodd" d="M17.9984 16.5996C17.6984 16.5996 17.3984 16.8996 17.3984 17.2996L17.9984 26.3996C17.9984 26.6996 18.2984 26.9996 18.6984 26.9996C19.0984 26.9996 19.2984 26.6996 19.2984 26.2996L18.6984 17.1996C18.5984 16.7996 18.2984 16.5996 17.9984 16.5996ZM23.3984 16.5996C23.6984 16.5996 23.9984 16.8996 23.9984 17.2996L23.3984 26.3996C23.3984 26.6996 23.0984 26.9996 22.6984 26.9996C22.3984 26.9996 22.0984 26.6996 22.0984 26.2996L22.6984 17.1996C22.7984 16.7996 23.0984 16.5996 23.3984 16.5996Z" fill="white"/>
<path fill-rule="evenodd" clip-rule="evenodd" d="M11.2016 12.9001C10.9016 12.9001 10.6016 13.2001 10.6016 13.5001C10.6016 13.8001 10.9016 14.1001 11.2016 14.1001H13.1016L14.3016 27.1001C14.3016 27.6001 14.4016 28.0001 14.4016 28.4001C14.5016 28.8001 14.5016 29.1001 14.7016 29.4001C15.0016 29.9001 15.4016 30.2001 15.9016 30.5001C16.2016 30.6001 16.5016 30.7001 16.9016 30.7001C17.2016 30.7001 17.7016 30.7001 18.2016 30.7001H23.3016C23.8016 30.7001 24.2016 30.7001 24.6016 30.7001C25.0016 30.7001 25.3016 30.6001 25.6016 30.5001C26.1016 30.3001 26.5016 29.9001 26.8016 29.4001C27.0016 29.1001 27.1016 28.8001 27.1016 28.4001C27.2016 28.1001 27.2016 27.6001 27.2016 27.1001L28.4016 14.1001H30.3016C30.6016 14.1001 30.9016 13.8001 30.9016 13.5001C30.9016 13.2001 30.6016 12.9001 30.3016 12.9001H24.3016C23.8016 11.0001 22.0016 9.70008 20.1016 10.0001C18.7016 10.3001 17.5016 11.4001 17.3016 12.8001L11.2016 12.9001ZM15.5016 27.0001C15.5016 27.5001 15.6016 27.9001 15.6016 28.2001C15.6016 28.5001 15.7016 28.6001 15.8016 28.7001C15.9016 28.9001 16.2016 29.1001 16.4016 29.3001C16.5016 29.4001 16.7016 29.4001 17.0016 29.4001C17.3016 29.4001 17.7016 29.4001 18.2016 29.4001H23.2016C23.7016 29.4001 24.1016 29.4001 24.4016 29.4001C24.7016 29.4001 24.8016 29.3001 25.0016 29.3001C25.3016 29.2001 25.5016 29.0001 25.6016 28.7001C25.7016 28.6001 25.7016 28.4001 25.8016 28.2001C25.8016 27.9001 25.9016 27.5001 25.9016 27.0001L27.1016 14.2001H14.4016L15.5016 27.0001ZM20.7016 11.2001C19.7016 11.2001 18.8016 11.9001 18.5016 12.9001H22.9016C22.6016 11.9001 21.7016 11.2001 20.7016 11.2001Z" fill="white"/>
</svg>
