<svg width="10" height="11" viewBox="0 0 10 11" fill="none" xmlns="http://www.w3.org/2000/svg">
<path fill-rule="evenodd" clip-rule="evenodd" d="M3.49922 7.50041H7.29922C8.29922 7.50041 8.79922 7.00041 8.79922 6.00041C8.79922 5.70041 8.99922 5.50041 9.29922 5.50041C9.59922 5.50041 9.79922 5.70041 9.79922 6.00041C9.79922 7.50041 8.79922 8.50041 7.29922 8.50041H3.49922V9.40041C3.49922 9.50041 3.39922 9.60041 3.29922 9.50041L1.49922 8.20041C1.39922 8.10041 1.39922 8.00041 1.49922 7.90041L3.19922 6.60041C3.29922 6.50041 3.39922 6.60041 3.39922 6.70041V7.50041H3.49922ZM6.49922 3.50041H2.69922C1.69922 3.50041 1.19922 4.00041 1.19922 5.00041C1.19922 5.30041 0.999219 5.50041 0.699219 5.50041C0.399219 5.50041 0.199219 5.30041 0.199219 5.00041C0.199219 3.50041 1.19922 2.50041 2.69922 2.50041H6.49922V1.60041C6.49922 1.50041 6.59922 1.40041 6.69922 1.50041L8.39922 2.80041C8.49922 2.90041 8.49922 3.00041 8.39922 3.10041L6.69922 4.50041C6.59922 4.60041 6.49922 4.50041 6.49922 4.40041V3.50041Z" fill="#2688EB"/>
</svg>
