<svg width="48" height="48" viewBox="0 0 48 48" fill="none" xmlns="http://www.w3.org/2000/svg">
<path d="M42 10C30.878 10 30.722 4 24 4C17.278 4 17.122 10 6 10C5.448 10 5 10.448 5 11C5 11 5 16.856 5 20C5 21.378 5.178 22.712 5.493 24C8.428 36.007 23.573 43.907 23.573 43.907L23.577 43.899C23.706 43.96 23.847 44 24 44C24.153 44 24.294 43.96 24.423 43.898L24.427 43.906C24.427 43.906 39.571 36.006 42.507 23.999C42.822 22.712 43 21.378 43 20C43 16.856 43 11 43 11C43 10.448 42.552 10 42 10Z" fill="#FFDA1C"/>
<path d="M24 8C25.641 8 26.445 8.504 28.266 9.745C30.522 11.282 33.492 13.306 39 13.857V20C39 20.996 38.873 22.022 38.621 23.05C36.64 31.153 27.546 37.378 23.999 39.537C22.616 38.695 20.393 37.237 18.077 35.284C14.797 32.518 10.626 28.151 9.379 23.05C9.127 22.022 9 20.996 9 20V13.857C14.508 13.307 17.478 11.283 19.734 9.745C21.555 8.504 22.359 8 24 8Z" fill="#ECAE0E"/>
<path d="M23.6063 13.2562L21.2433 18.5572L15.4713 19.1662C15.1003 19.2062 14.9513 19.6662 15.2273 19.9162L19.5393 23.8012L18.3363 29.4792C18.2593 29.8452 18.6513 30.1292 18.9743 29.9422L24.0003 27.0422L29.0273 29.9422C29.3503 30.1282 29.7423 29.8442 29.6653 29.4792L28.4623 23.8012L32.7743 19.9162C33.0513 19.6672 32.9023 19.2062 32.5303 19.1662L26.7583 18.5572L24.3953 13.2562C24.2433 12.9152 23.7583 12.9152 23.6063 13.2562Z" fill="#FEE119"/>
</svg>
