<svg width="100" height="100" viewBox="0 0 100 100" fill="none" xmlns="http://www.w3.org/2000/svg">
<path fill-rule="evenodd" clip-rule="evenodd" d="M48.0992 3.59922C49.3992 3.39922 50.5992 3.39922 51.8992 3.59922C53.3992 3.79922 54.8992 4.39922 56.5992 5.09922L78.5992 13.5992C79.8992 14.0992 81.5992 14.6992 82.8992 15.7992C83.8992 16.6992 84.6992 17.8992 85.1992 19.0992C85.7992 20.6992 85.6992 22.4992 85.6992 23.8992V56.8992C85.6992 69.5992 78.5992 79.6992 70.9992 86.3992C67.1992 89.7992 63.0992 92.3992 59.5992 94.1992C56.1992 95.8992 52.6992 97.0992 49.9992 97.0992C47.2992 97.0992 43.7992 95.8992 40.3992 94.1992C36.2992 92.0992 32.3992 89.4992 28.9992 86.3992C21.3992 79.7992 14.2992 69.7992 14.2992 56.9992V23.9992C14.2992 22.5992 14.1992 20.7992 14.7992 19.1992C15.2992 17.8992 16.0992 16.7992 17.0992 15.8992C18.3992 14.7992 20.0992 14.1992 21.3992 13.6992L43.3992 5.19922C45.0992 4.39922 46.5992 3.79922 48.0992 3.59922ZM50.6992 11.4992C50.1992 11.3992 49.6992 11.3992 49.2992 11.4992C48.8992 11.5992 48.3992 11.6992 46.2992 12.4992L24.2992 20.9992C23.6992 21.1992 23.1992 21.3992 22.5992 21.6992C22.2992 21.7992 22.2992 21.7992 22.2992 22.0992C22.2992 22.6992 22.2992 23.2992 22.2992 23.8992V56.8992C22.2992 66.4992 27.6992 74.4992 34.2992 80.2992C37.1992 82.8992 40.4992 85.0992 43.9992 86.8992C47.1992 88.4992 49.2992 88.9992 49.9992 88.9992C50.6992 88.9992 52.7992 88.4992 55.9992 86.8992C59.4992 85.0992 62.7992 82.8992 65.6992 80.2992C72.2992 74.4992 77.6992 66.3992 77.6992 56.8992V23.9992C77.6992 23.0992 77.6992 22.5992 77.6992 22.1992C77.6992 21.8992 77.6992 21.8992 77.3992 21.7992C76.7992 21.5992 76.2992 21.2992 75.6992 21.0992L53.6992 12.5992C51.5992 11.6992 51.1992 11.5992 50.6992 11.4992Z" fill="#2688EB"/>
<path d="M56.3994 41.1992L64.9994 41.9992C67.9994 42.2992 68.8994 45.2992 66.5994 47.1992L59.8994 52.8992L62.3994 62.1992C63.1994 65.1992 60.6994 67.0992 58.1994 65.1992L49.9994 59.2992L41.8994 65.1992C39.3994 66.9992 36.7994 65.1992 37.6994 62.1992L40.1994 52.8992L33.4994 47.1992C31.1994 45.1992 32.0994 42.2992 35.0994 41.9992L43.5994 41.1992L47.3994 32.2992C48.5994 29.4992 51.5994 29.4992 52.7994 32.2992C52.6994 32.2992 56.3994 41.1992 56.3994 41.1992Z" fill="#2688EB"/>
</svg>
