<svg width="34" height="34" viewBox="0 0 34 34" fill="none" xmlns="http://www.w3.org/2000/svg">
<path d="M17.0016 32.8996C25.7829 32.8996 32.9016 25.7809 32.9016 16.9996C32.9016 8.21828 25.7829 1.09961 17.0016 1.09961C8.22023 1.09961 1.10156 8.21828 1.10156 16.9996C1.10156 25.7809 8.22023 32.8996 17.0016 32.8996Z" fill="#FFFFFE"/>
<path fill-rule="evenodd" clip-rule="evenodd" d="M17.3008 25.7996C16.9008 25.3996 16.9008 24.7996 17.3008 24.3996L23.4008 17.9996H8.20078C7.70078 17.9996 7.30078 17.5996 7.30078 17.0996C7.30078 16.5996 7.70078 16.1996 8.20078 16.1996H23.4008L17.2008 9.79961C16.8008 9.39961 16.8008 8.79961 17.2008 8.39961C17.6008 7.99961 18.2008 7.99961 18.6008 8.39961L26.4008 16.4996C26.8008 16.8996 26.8008 17.4996 26.4008 17.8996L18.6008 25.9996C18.3008 26.0996 17.7008 26.0996 17.3008 25.7996Z" fill="#2688EB"/>
</svg>
