<svg width="24" height="24" viewBox="0 0 24 24" fill="none" xmlns="http://www.w3.org/2000/svg">
<path d="M11.6569 4.28557H12.3426C13.811 4.28557 14.8093 4.28691 15.5809 4.34995C16.3324 4.41135 16.7167 4.52265 16.9849 4.65926C17.63 4.98798 18.1545 5.51248 18.4832 6.15761C18.6199 6.42572 18.7311 6.81007 18.7925 7.56164C18.8556 8.33323 18.8569 9.3314 18.8569 10.7999V13.1999C18.8569 14.6683 18.8556 15.6665 18.7925 16.4381C18.7311 17.1897 18.6199 17.574 18.4832 17.8421C18.1545 18.4872 17.63 19.0117 16.9849 19.3404C16.7928 19.4383 16.5411 19.5232 16.1375 19.586L16.1377 19.5869C15.7262 19.6499 15.4111 20.0052 15.4111 20.4341C15.4111 20.9075 15.7949 21.2913 16.2683 21.2913C16.3292 21.2913 16.3887 21.2849 16.4461 21.2729C16.957 21.1899 17.3806 21.0628 17.7631 20.8679C18.7309 20.3748 19.5175 19.5881 20.0107 18.6203C20.5711 17.5203 20.5711 16.0801 20.5711 13.1999V10.7999C20.5711 7.91959 20.5711 6.47946 20.0107 5.37934C19.5175 4.41164 18.7309 3.62489 17.7631 3.13183C16.663 2.57129 15.2229 2.57129 12.3426 2.57129H11.6569C8.77661 2.57129 7.3365 2.57129 6.23638 3.13183C5.26869 3.62489 4.48193 4.41164 3.98887 5.37934C3.59609 6.1502 3.47854 7.08802 3.44336 8.57129L3.44561 8.57137L3.44545 8.58843C3.44545 9.06183 3.8292 9.44557 4.30259 9.44557C4.77598 9.44557 5.15974 9.06183 5.15974 8.58843C5.15974 8.57429 5.15939 8.56018 5.15871 8.54617C5.16817 8.17691 5.18318 7.85311 5.20699 7.56164C5.2684 6.81007 5.3797 6.42572 5.51631 6.15761C5.84501 5.51248 6.36952 4.98798 7.01465 4.65926C7.28276 4.52265 7.66711 4.41135 8.41868 4.34995C9.19026 4.28691 10.1885 4.28557 11.6569 4.28557Z" fill="black"/>
<path d="M7.41305 7.10643C7.37109 7.23554 7.37109 7.39508 7.37109 7.71416C7.37109 8.03323 7.37109 8.19277 7.41305 8.32188C7.49784 8.58281 7.70242 8.78741 7.96337 8.87218C8.09248 8.91418 8.25202 8.91418 8.57106 8.91418C8.89017 8.91418 9.04969 8.91418 9.17886 8.87218C9.43977 8.78741 9.64437 8.58281 9.72915 8.32188C9.77106 8.19277 9.77106 8.03323 9.77106 7.71416C9.77106 7.39508 9.77106 7.23554 9.72915 7.10643C9.64437 6.84548 9.43977 6.6409 9.17886 6.55611C9.04969 6.51416 8.89017 6.51416 8.57106 6.51416C8.25202 6.51416 8.09248 6.51416 7.96337 6.55611C7.70242 6.6409 7.49784 6.84548 7.41305 7.10643Z" fill="black"/>
<path d="M14.2705 7.10643C14.2285 7.23554 14.2285 7.39508 14.2285 7.71416C14.2285 8.03323 14.2285 8.19277 14.2705 8.32188C14.3553 8.58281 14.5599 8.78741 14.8208 8.87218C14.95 8.91418 15.1095 8.91418 15.4285 8.91418C15.7476 8.91418 15.9071 8.91418 16.0363 8.87218C16.2972 8.78741 16.5018 8.58281 16.5866 8.32188C16.6285 8.19277 16.6285 8.03323 16.6285 7.71416C16.6285 7.39508 16.6285 7.23554 16.5866 7.10643C16.5018 6.84548 16.2972 6.6409 16.0363 6.55611C15.9071 6.51416 15.7476 6.51416 15.4285 6.51416C15.1095 6.51416 14.95 6.51416 14.8208 6.55611C14.5599 6.6409 14.3553 6.84548 14.2705 7.10643Z" fill="black"/>
<path d="M14.2705 11.3921C14.2285 11.5212 14.2285 11.6807 14.2285 11.9998C14.2285 12.3188 14.2285 12.4784 14.2705 12.6075C14.3553 12.8684 14.5599 13.073 14.8208 13.1578C14.95 13.1998 15.1095 13.1998 15.4285 13.1998C15.7476 13.1998 15.9071 13.1998 16.0363 13.1578C16.2972 13.073 16.5018 12.8684 16.5866 12.6075C16.6285 12.4784 16.6285 12.3188 16.6285 11.9998C16.6285 11.6807 16.6285 11.5212 16.5866 11.3921C16.5018 11.1311 16.2972 10.9265 16.0363 10.8417C15.9071 10.7998 15.7476 10.7998 15.4285 10.7998C15.1095 10.7998 14.95 10.7998 14.8208 10.8417C14.5599 10.9265 14.3553 11.1311 14.2705 11.3921Z" fill="black"/>
<path d="M14.2285 16.2854C14.2285 15.9663 14.2285 15.8068 14.2705 15.6777C14.3553 15.4167 14.5599 15.2121 14.8208 15.1274C14.95 15.0854 15.1095 15.0854 15.4285 15.0854C15.7476 15.0854 15.9071 15.0854 16.0363 15.1274C16.2972 15.2121 16.5018 15.4167 16.5866 15.6777C16.6285 15.8068 16.6285 15.9663 16.6285 16.2854C16.6285 16.6045 16.6285 16.7641 16.5866 16.8932C16.5018 17.1541 16.2972 17.3587 16.0363 17.4434C15.9071 17.4854 15.7476 17.4854 15.4285 17.4854C15.1095 17.4854 14.95 17.4854 14.8208 17.4434C14.5599 17.3587 14.3553 17.1541 14.2705 16.8932C14.2285 16.7641 14.2285 16.6045 14.2285 16.2854Z" fill="black"/>
<path d="M4.36187 12.8854C4.57158 12.8665 4.78416 12.8569 4.99922 12.8569C8.8652 12.8569 11.9993 15.9908 11.9993 19.8569C11.9993 20.0719 11.9896 20.2845 11.9706 20.4942C11.9282 20.9657 12.2759 21.3823 12.7474 21.4249C13.2189 21.4673 13.6355 21.1196 13.6781 20.648C13.7015 20.3873 13.7135 20.1234 13.7135 19.8569C13.7135 15.0441 9.812 11.1426 4.99922 11.1426C4.73273 11.1426 4.46881 11.1546 4.20801 11.1781C3.73653 11.2206 3.38876 11.6372 3.43125 12.1087C3.47374 12.5802 3.89039 12.9279 4.36187 12.8854Z" fill="black"/>
<path d="M5.01971 16.2856C4.81709 16.2856 4.61909 16.3025 4.42683 16.3347C3.95997 16.413 3.51801 16.098 3.43968 15.6312C3.36136 15.1643 3.67633 14.7224 4.14319 14.6441C4.42879 14.5961 4.72168 14.5713 5.01971 14.5713C7.92766 14.5713 10.285 16.9287 10.285 19.8366C10.285 20.1347 10.2602 20.4275 10.2123 20.7131C10.1339 21.1799 9.69199 21.4949 9.22511 21.4166C8.75822 21.3383 8.44326 20.8963 8.52159 20.4294C8.55384 20.2372 8.57076 20.0392 8.57076 19.8366C8.57076 17.8754 6.98088 16.2856 5.01971 16.2856Z" fill="black"/>
<path d="M5.14202 21.4286C6.08879 21.4286 6.85631 20.6611 6.85631 19.7143C6.85631 18.7675 6.08879 18 5.14202 18C4.19525 18 3.42773 18.7675 3.42773 19.7143C3.42773 20.6611 4.19525 21.4286 5.14202 21.4286Z" fill="black"/>
</svg>
