<svg width="16" height="17" viewBox="0 0 16 17" fill="none" xmlns="http://www.w3.org/2000/svg">
<path d="M6.50156 11.0004C7.50156 10.3004 8.60156 10.3004 9.50156 11.0004C10.4016 11.6004 10.7016 12.4004 10.7016 13.3004C10.7016 13.6004 10.5016 13.8004 10.2016 13.8004H5.80156C5.50156 13.8004 5.30156 13.6004 5.30156 13.3004C5.30156 12.4004 5.60156 11.6004 6.50156 11.0004ZM5.90156 0.400391C5.70156 0.400391 5.50156 0.400391 5.30156 0.400391C4.30156 0.500391 3.40156 1.40039 3.30156 2.40039C3.30156 2.60039 3.30156 2.80039 3.30156 3.00039V3.10039C3.30156 3.40039 3.30156 3.60039 3.30156 3.80039C3.40156 5.00039 3.90156 6.20039 4.90156 7.00039C5.00156 7.10039 5.20156 7.20039 5.40156 7.40039L5.60156 7.60039L4.40156 9.20039C3.30156 10.6004 2.60156 12.3004 2.60156 14.1004C2.60156 15.5004 3.70156 16.7004 5.20156 16.7004H10.9016C12.3016 16.7004 13.5016 15.6004 13.5016 14.1004C13.5016 12.3004 12.9016 10.6004 11.7016 9.20039L10.4016 7.60039L10.6016 7.40039C10.8016 7.20039 11.0016 7.10039 11.1016 7.00039C12.0016 6.20039 12.6016 5.10039 12.7016 3.90039C12.7016 3.70039 12.7016 3.50039 12.7016 3.20039V3.00039C12.7016 2.80039 12.7016 2.60039 12.7016 2.40039C12.6016 1.40039 11.7016 0.500391 10.7016 0.400391C10.5016 0.400391 10.3016 0.400391 10.1016 0.400391H5.90156ZM5.50156 1.80039C5.60156 1.80039 5.60156 1.80039 6.00156 1.80039H10.1016C10.4016 1.80039 10.5016 1.80039 10.6016 1.80039C11.0016 1.90039 11.4016 2.20039 11.5016 2.70039C11.5016 2.80039 11.5016 2.80039 11.5016 3.20039C11.5016 3.60039 11.5016 3.70039 11.5016 3.90039C11.4016 4.80039 11.0016 5.60039 10.4016 6.10039C10.1016 6.00039 10.0016 6.10039 9.70156 6.40039L8.90156 6.90039C8.60156 7.20039 8.60156 7.60039 8.80156 7.90039L10.6016 10.0004C11.5016 11.1004 12.0016 12.5004 12.0016 14.0004C12.0016 14.7004 11.5016 15.2004 10.8016 15.2004H5.20156C4.50156 15.2004 4.00156 14.7004 4.00156 14.0004C4.00156 12.5004 4.50156 11.1004 5.40156 10.0004L7.20156 7.90039C7.40156 7.60039 7.40156 7.20039 7.10156 6.90039L6.30156 6.40039C6.00156 6.10039 5.90156 6.00039 5.80156 6.00039C5.20156 5.40039 4.80156 4.60039 4.70156 3.80039C4.70156 3.70039 4.70156 3.50039 4.70156 3.10039C4.70156 2.80039 4.70156 2.70039 4.70156 2.60039C4.70156 2.20039 5.00156 1.80039 5.50156 1.80039Z" fill="#2688EB"/>
</svg>
