<svg width="21" height="20" viewBox="0 0 21 20" fill="none" xmlns="http://www.w3.org/2000/svg">
<g clip-path="url(#clip0_2612_65791)">
<path d="M8.80078 0.300781H8.40078C7.30078 0.300781 6.30078 0.300781 5.60078 0.400781C4.80078 0.500781 4.20078 0.600781 3.60078 0.900781C2.60078 1.40078 1.90078 2.20078 1.40078 3.10078C1.10078 3.70078 1.00078 4.30078 0.900781 5.10078C0.800781 5.80078 0.800781 6.70078 0.800781 7.90078V15.1008C0.800781 15.9008 0.800781 16.6008 0.800781 17.2008C0.800781 17.7008 1.00078 18.3008 1.30078 18.7008C1.80078 19.3008 2.50078 19.7008 3.30078 19.7008C3.90078 19.7008 4.30078 19.5008 4.80078 19.2008C5.30078 18.9008 5.80078 18.5008 6.50078 18.0008L8.10078 16.7008C8.80078 16.1008 8.90078 16.0008 9.00078 16.0008C9.10078 16.0008 9.30078 16.0008 9.40078 16.0008C9.50078 16.0008 9.70078 16.1008 10.3008 16.6008L11.9008 17.9008C12.6008 18.4008 13.1008 18.8008 13.6008 19.1008C14.0008 19.4008 14.5008 19.6008 15.1008 19.6008C15.9008 19.6008 16.6008 19.2008 17.1008 18.6008C17.4008 18.2008 17.5008 17.6008 17.6008 17.1008C17.6008 16.6008 17.6008 15.9008 17.6008 15.0008V12.7008C17.6008 12.2008 17.2008 11.9008 16.8008 11.9008C16.4008 11.9008 16.0008 12.4008 16.0008 12.8008V15.0008C16.0008 15.9008 16.0008 16.5008 16.0008 17.0008C16.0008 17.5008 15.9008 17.6008 15.9008 17.6008C15.7008 17.8008 15.5008 17.9008 15.2008 17.9008C15.2008 17.9008 15.0008 17.9008 14.6008 17.6008C14.2008 17.4008 13.7008 17.0008 13.0008 16.4008L11.4008 15.2008L11.3008 15.1008C10.8008 14.7008 10.4008 14.4008 9.90078 14.3008C9.50078 14.2008 9.00078 14.2008 8.60078 14.3008C8.10078 14.4008 7.70078 14.8008 7.20078 15.1008L7.10078 15.2008L5.50078 16.4008C4.80078 17.0008 4.30078 17.3008 3.90078 17.6008C3.50078 18.0008 3.40078 18.0008 3.40078 18.0008C3.10078 18.0008 2.90078 17.9008 2.70078 17.7008C2.70078 17.7008 2.60078 17.5008 2.60078 17.1008C2.60078 16.6008 2.60078 16.0008 2.60078 15.1008V7.90078C2.60078 6.70078 2.60078 5.90078 2.70078 5.20078C2.80078 4.50078 2.90078 4.20078 3.00078 3.80078C3.30078 3.20078 3.80078 2.60078 4.50078 2.30078C4.80078 2.10078 5.20078 2.00078 5.90078 2.00078C6.40078 2.00078 7.20078 2.00078 8.40078 2.00078H8.80078C9.30078 2.00078 9.60078 1.60078 9.60078 1.20078C9.60078 0.800781 9.30078 0.300781 8.80078 0.300781ZM20.2008 5.40078C20.2008 2.60078 17.9008 0.400781 15.2008 0.400781C12.5008 0.400781 10.2008 2.70078 10.2008 5.40078C10.2008 8.10078 12.5008 10.4008 15.2008 10.4008C17.9008 10.4008 20.2008 8.20078 20.2008 5.40078ZM14.3008 2.80078C14.3008 2.30078 14.8008 2.00078 15.2008 2.00078C15.6008 2.10078 16.0008 2.40078 16.0008 2.90078V4.60078H17.7008H17.8008C18.3008 4.70078 18.6008 5.10078 18.5008 5.50078C18.4008 5.90078 18.1008 6.20078 17.7008 6.20078H16.0008V7.90078V8.00078C15.9008 8.50078 15.5008 8.80078 15.1008 8.70078C14.7008 8.60078 14.4008 8.30078 14.4008 7.90078V6.20078H12.7008H12.6008C12.1008 6.10078 11.8008 5.70078 11.9008 5.30078C12.0008 4.90078 12.3008 4.60078 12.7008 4.60078H14.4008L14.3008 2.80078Z" fill="#818C99"/>
</g>
<defs>
<clipPath id="clip0_2612_65791">
<rect width="21" height="20" fill="white"/>
</clipPath>
</defs>
</svg>
