<svg width="28" height="28" viewBox="0 0 28 28" fill="none" xmlns="http://www.w3.org/2000/svg">
<rect width="28" height="28" rx="14" fill="#F2F3F5"/>
<path fill-rule="evenodd" clip-rule="evenodd" d="M12.9289 5.85742C9.02341 5.85742 5.85742 9.02341 5.85742 12.9289C5.85742 16.8343 9.02341 20.0003 12.9289 20.0003C14.6468 20.0003 16.2217 19.3876 17.4469 18.369L21.475 22.3841C21.7264 22.6348 22.1335 22.6342 22.3841 22.3827C22.6348 22.1312 22.6341 21.7242 22.3827 21.4735L18.3572 17.461C19.383 16.2337 20.0003 14.6534 20.0003 12.9289C20.0003 9.02341 16.8343 5.85742 12.9289 5.85742ZM7.14314 12.9289C7.14314 9.73351 9.73351 7.14314 12.9289 7.14314C16.1242 7.14314 18.7146 9.73351 18.7146 12.9289C18.7146 16.1242 16.1242 18.7146 12.9289 18.7146C9.73351 18.7146 7.14314 16.1242 7.14314 12.9289Z" fill="#2688EB"/>
</svg>
