<svg width="24" height="24" viewBox="0 0 24 24" fill="none" xmlns="http://www.w3.org/2000/svg">
<g clip-path="url(#clip0_2612_65820)">
<path fill-rule="evenodd" clip-rule="evenodd" d="M10.3008 0.800781C5.00078 0.800781 0.800781 5.00078 0.800781 10.3008C0.800781 15.6008 5.00078 19.8008 10.3008 19.8008C12.6008 19.8008 14.7008 19.0008 16.3008 17.6008L21.7008 23.0008C22.0008 23.3008 22.6008 23.3008 22.9008 23.0008C23.2008 22.7008 23.2008 22.1008 22.9008 21.8008L17.5008 16.4008C18.9008 14.8008 19.7008 12.6008 19.7008 10.3008C19.7008 5.00078 15.5008 0.800781 10.3008 0.800781ZM2.50078 10.3008C2.50078 6.00078 6.00078 2.50078 10.3008 2.50078C14.6008 2.50078 18.0008 6.00078 18.0008 10.3008C18.0008 14.6008 14.6008 18.0008 10.3008 18.0008C6.00078 18.0008 2.50078 14.6008 2.50078 10.3008Z" fill="#2688EB"/>
</g>
<defs>
<clipPath id="clip0_2612_65820">
<rect width="24" height="24" fill="white"/>
</clipPath>
</defs>
</svg>
