<svg xmlns="http://www.w3.org/2000/svg" viewBox="0 0 216.11 216.013" fill="#c9cbcd" xmlns:v="https://vecta.io/nano"><path d="M108.055 216.163c59.733 0 108.157-48.423 108.157-108.156S167.788-.15 108.055-.15-.102 48.273-.102 108.006s48.423 108.157 108.157 108.157zM42.871 103.459c.564-3.895 4.077-7.082 7.807-7.082s7.2-1.626 7.711-3.614l.608-1.753a52.57 52.57 0 0 1 2.361-5.655l.823-1.679c1.043-1.773 1.462-3.657.93-4.188l-4.813-4.795c-2.115-2.104-1.777-6.295.752-9.31l6.378-6.379c3.016-2.529 7.206-2.876 9.311-.769l4.795 4.793c.531.534 2.415.129 4.187-.893l1.682-.825c1.825-.893 3.721-1.682 5.654-2.36l1.753-.61c1.988-.511 3.614-3.981 3.614-7.709s3.187-7.244 7.083-7.808c0 0 .575-.083 4.547-.083s4.547.083 4.547.083c3.896.564 7.083 4.077 7.083 7.808s1.626 7.198 3.614 7.709l1.753.61a52.26 52.26 0 0 1 5.654 2.36l1.682.825c1.771 1.022 3.655 1.427 4.187.893l4.795-4.793c2.106-2.107 6.296-1.76 9.311.769l6.378 6.379c2.53 3.015 2.876 7.206.77 9.31l-4.795 4.795c-.531.531-.129 2.415.894 4.188l.823 1.679c.894 1.826 1.682 3.723 2.361 5.655l.609 1.753c.512 1.988 3.981 3.614 7.711 3.614s7.243 3.187 7.807 7.082c0 0 .083.574.083 4.548s-.083 4.545-.083 4.545c-.564 3.895-4.077 7.082-7.807 7.082s-7.199 1.626-7.711 3.617l-.609 1.753a52.37 52.37 0 0 1-2.361 5.653l-.823 1.682c-1.023 1.77-1.426 3.655-.894 4.186l4.795 4.795c2.106 2.104 1.759 6.295-.77 9.31l-6.378 6.379c-3.016 2.529-7.206 2.876-9.311.769l-4.795-4.793c-.531-.531-2.415-.129-4.187.895l-1.682.822a52.19 52.19 0 0 1-5.654 2.362l-1.753.607c-1.988.511-3.614 3.981-3.614 7.712s-3.187 7.241-7.083 7.808c0 0-.575.083-4.547.083s-4.547-.083-4.547-.083c-3.895-.567-7.083-4.077-7.083-7.808s-1.626-7.201-3.614-7.712l-1.753-.607c-1.932-.68-3.829-1.467-5.654-2.362l-1.682-.822c-1.771-1.024-3.655-1.427-4.187-.895l-4.795 4.793c-2.106 2.107-6.296 1.76-9.311-.769l-6.378-6.379c-2.529-3.015-2.876-7.206-.77-9.31l4.795-4.795c.531-.531.129-2.415-.894-4.186l-.823-1.682c-.894-1.824-1.682-3.721-2.361-5.653l-.608-1.753c-.512-1.991-3.982-3.617-7.711-3.617s-7.243-3.187-7.807-7.082c0 0-.083-.574-.083-4.545s.083-4.548.083-4.548z"/><ellipse transform="matrix(.9865 -.1637 .1637 .9865 -16.2259 19.1497)" cx="108.055" cy="108.006" rx="27.696" ry="27.695"/></svg>