<svg width="16" height="16" viewBox="0 0 16 16" fill="none" xmlns="http://www.w3.org/2000/svg">
<g clip-path="url(#clip0_2612_65817)">
<path fill-rule="evenodd" clip-rule="evenodd" d="M10.7992 8.20039C10.7992 9.70039 9.49922 11.0004 7.99922 11.0004C6.49922 11.0004 5.19922 9.70039 5.19922 8.20039C5.19922 6.70039 6.49922 5.40039 7.99922 5.40039C9.49922 5.40039 10.7992 6.70039 10.7992 8.20039ZM7.99922 10.1004C8.99922 10.1004 9.89922 9.30039 9.89922 8.20039C9.89922 7.20039 9.09922 6.30039 7.99922 6.30039C6.89922 6.30039 6.09922 7.20039 6.09922 8.20039C6.09922 9.20039 6.99922 10.1004 7.99922 10.1004Z" fill="#2688EB"/>
<path fill-rule="evenodd" clip-rule="evenodd" d="M8.40046 0.699219C8.20046 0.699219 7.90046 0.699219 7.70046 0.699219C7.60046 0.699219 7.10046 0.699219 6.70046 0.999219C6.30046 1.29922 6.20046 1.69922 6.10046 1.99922C6.00046 2.29922 5.90046 2.49922 5.80046 2.69922C5.60046 2.79922 5.30046 2.99922 5.10046 3.09922C4.80046 3.09922 4.60046 2.99922 4.40046 2.89922C4.10046 2.69922 3.60046 2.59922 3.20046 2.69922C2.70046 2.79922 2.40046 3.09922 2.30046 3.19922C2.20046 3.39922 2.10046 3.59922 1.90046 3.79922C1.80046 3.89922 1.50046 4.19922 1.50046 4.69922C1.50046 5.19922 1.80046 5.59922 2.00046 5.79922C2.10046 5.99922 2.30046 6.19922 2.40046 6.49922C2.30046 6.79922 2.20046 6.99922 2.20046 7.29922C2.00046 7.49922 1.80046 7.59922 1.60046 7.69922C1.30046 7.89922 0.900462 8.09922 0.700462 8.49922C0.400462 8.99922 0.600462 9.39922 0.600462 9.49922C0.700462 9.69922 0.700462 9.99922 0.800462 10.1992C0.800462 10.2992 0.900462 10.7992 1.30046 11.0992C1.70046 11.3992 2.10046 11.3992 2.50046 11.3992C2.70046 11.3992 3.00046 11.3992 3.20046 11.4992C3.40046 11.6992 3.50046 11.8992 3.70046 12.1992C3.70046 12.4992 3.70046 12.6992 3.60046 12.8992C3.50046 13.1992 3.50046 13.6992 3.70046 14.0992C3.90046 14.4992 4.30046 14.6992 4.40046 14.7992C4.60046 14.8992 4.80046 14.9992 5.00046 15.0992C5.10046 15.1992 5.50046 15.3992 6.00046 15.2992C6.50046 15.1992 6.80046 14.8992 7.00046 14.5992C7.20046 14.3992 7.40046 14.1992 7.60046 14.0992C7.90046 14.0992 8.10046 14.0992 8.40046 14.0992C8.60046 14.1992 8.80046 14.3992 9.00046 14.5992C9.20046 14.8992 9.50046 15.1992 10.0005 15.2992C10.5005 15.3992 10.9005 15.1992 11.0005 15.0992C11.2005 14.9992 11.4005 14.8992 11.6005 14.7992C11.7005 14.6992 12.1005 14.5992 12.3005 14.0992C12.5005 13.6992 12.4005 13.1992 12.4005 12.8992C12.4005 12.6992 12.3005 12.3992 12.3005 12.1992C12.5005 11.9992 12.7005 11.7992 12.8005 11.4992C13.0005 11.3992 13.3005 11.3992 13.5005 11.3992C13.8005 11.3992 14.3005 11.3992 14.7005 11.0992C15.1005 10.7992 15.2005 10.3992 15.2005 10.1992C15.2005 9.99922 15.3005 9.69922 15.4005 9.49922C15.4005 9.39922 15.5005 8.89922 15.3005 8.49922C15.1005 8.09922 14.7005 7.79922 14.4005 7.69922C14.2005 7.59922 14.0005 7.39922 13.8005 7.29922C13.8005 6.99922 13.7005 6.79922 13.6005 6.49922C13.7005 6.29922 13.9005 5.99922 14.0005 5.79922C14.2005 5.49922 14.5005 5.09922 14.5005 4.69922C14.5005 4.19922 14.2005 3.89922 14.1005 3.79922C13.9005 3.59922 13.8005 3.39922 13.7005 3.29922C13.6005 3.19922 13.3005 2.79922 12.9005 2.69922C12.4005 2.59922 12.0005 2.79922 11.7005 2.89922C11.5005 2.99922 11.2005 3.09922 11.0005 3.09922C10.8005 2.99922 10.5005 2.79922 10.2005 2.69922C10.1005 2.49922 10.0005 2.29922 9.90046 1.99922C9.80046 1.69922 9.70046 1.29922 9.40046 0.999219C9.00046 0.699219 8.60046 0.699219 8.40046 0.699219ZM11.2005 13.9992L10.6005 14.2992C10.3005 14.3992 10.2005 14.4992 9.70046 13.9992C9.50046 13.6992 9.10046 13.3992 8.70046 13.0992C8.30046 13.1992 7.80046 13.1992 7.40046 13.0992C7.00046 13.2992 6.60046 13.6992 6.40046 13.9992C6.00046 14.4992 5.80046 14.3992 5.50046 14.2992L4.80046 13.9992C4.50046 13.8992 4.40046 13.7992 4.50046 13.0992C4.60046 12.6992 4.60046 12.1992 4.50046 11.7992C4.20046 11.4992 3.90046 11.0992 3.70046 10.7992C3.30046 10.5992 2.80046 10.4992 2.40046 10.4992C1.70046 10.4992 1.70046 10.2992 1.60046 9.99922L1.50046 9.39922C1.40046 8.99922 1.40046 8.89922 2.00046 8.59922C2.30046 8.39922 2.80046 8.09922 3.10046 7.79922C3.10046 7.39922 3.20046 6.89922 3.40046 6.59922C3.20046 5.99922 3.00046 5.59922 2.70046 5.29922C2.30046 4.69922 2.40046 4.59922 2.60046 4.29922L3.00046 3.79922C3.30046 3.59922 3.40046 3.39922 4.00046 3.69922C4.30046 3.89922 4.80046 3.99922 5.30046 4.09922C5.60046 3.79922 6.00046 3.59922 6.50046 3.49922C6.70046 3.09922 6.90046 2.59922 7.00046 2.29922C7.20046 1.59922 7.30046 1.59922 7.70046 1.59922H8.40046C8.70046 1.59922 8.80046 1.59922 9.00046 2.29922C9.10046 2.69922 9.30046 3.09922 9.60046 3.49922C10.0005 3.59922 10.4005 3.79922 10.8005 4.09922C11.3005 4.09922 11.7005 3.89922 12.1005 3.79922C12.7005 3.49922 12.8005 3.59922 13.0005 3.89922L13.4005 4.39922C13.6005 4.69922 13.7005 4.79922 13.3005 5.29922C13.0005 5.59922 12.8005 5.99922 12.6005 6.49922C12.7005 6.89922 12.8005 7.29922 12.9005 7.69922C13.2005 8.09922 13.6005 8.29922 14.0005 8.49922C14.6005 8.79922 14.6005 8.99922 14.5005 9.29922L14.4005 9.99922C14.3005 10.2992 14.3005 10.4992 13.6005 10.4992C13.2005 10.4992 12.7005 10.5992 12.3005 10.7992C12.1005 11.1992 11.8005 11.4992 11.5005 11.7992C11.4005 12.2992 11.5005 12.7992 11.5005 13.0992C11.6005 13.7992 11.5005 13.7992 11.2005 13.9992Z" fill="#2688EB"/>
</g>
<defs>
<clipPath id="clip0_2612_65817">
<rect width="16" height="16" fill="white"/>
</clipPath>
</defs>
</svg>
