<svg width="24" height="24" viewBox="0 0 24 24" fill="none" xmlns="http://www.w3.org/2000/svg">
<path d="M10.4983 13.2L3.7983 12.5C2.8983 12.4 2.0983 11.8 1.7983 11C1.3983 9.7 1.9983 8.4 3.2983 7.9L17.1983 2.9C17.7983 2.7 18.4983 2.7 19.0983 2.9C20.5983 3.4 21.2983 5 20.7983 6.5L15.7983 20.4C15.4983 21.2 14.6983 21.8 13.7983 21.9C12.4983 22 11.2983 21.1 11.1983 19.8L10.4983 13.2ZM3.7983 9.7C3.5983 9.8 3.4983 10 3.5983 10.3C3.6983 10.5 3.7983 10.6 3.9983 10.6L11.3983 11.4C11.7983 11.4 12.1983 11.8 12.1983 12.2L12.9983 19.6C12.9983 19.9 13.2983 20 13.4983 20C13.6983 20 13.7983 19.9 13.8983 19.7L18.8983 5.8C19.0983 5.3 18.7983 4.8 18.2983 4.6C18.0983 4.5 17.8983 4.5 17.6983 4.6L3.7983 9.7Z" fill="#2688EB"/>
</svg>
