<svg width="16" height="17" viewBox="0 0 16 17" fill="none" xmlns="http://www.w3.org/2000/svg">
<path fill-rule="evenodd" clip-rule="evenodd" d="M15.4008 7.3L9.00078 2.4C8.80078 2.2 8.40078 2 8.10078 2C7.30078 2 6.50078 2.6 6.50078 3.6V5.5H6.40078C4.50078 5.9 3.10078 6.7 2.20078 7.9C0.900781 9.4 0.300781 11.4 0.300781 13.9C0.300781 14.2 0.500781 14.3 0.700781 14.4H0.800781C1.00078 14.4 1.10078 14.3 1.20078 14.1C2.70078 12.2 4.40078 11.2 6.40078 11H6.50078V13.4C6.50078 14.3 7.30078 14.9 8.00078 14.9C8.40078 14.9 8.70078 14.8 8.90078 14.6L15.3008 9.7C15.7008 9.4 16.0008 9 16.0008 8.5C16.0008 8 15.7008 7.6 15.4008 7.3ZM7.10078 9.9C5.20078 9.9 3.40078 10.6 1.60078 12L1.40078 12.2L1.50078 11.8C1.70078 10.6 2.20078 9.4 3.00078 8.6C4.00078 7.5 5.40078 6.8 7.20078 6.4C7.50078 6.4 7.60078 6.1 7.60078 5.9V3.6C7.60078 3.3 7.80078 3.2 8.00078 3.2C8.10078 3.2 8.20078 3.2 8.30078 3.3L14.6008 8.2C14.7008 8.3 14.8008 8.4 14.8008 8.6C14.8008 8.8 14.7008 8.9 14.6008 9L8.30078 13.9C8.20078 14 8.10078 14 8.00078 14C7.90078 14 7.80078 14 7.70078 13.9C7.60078 13.8 7.50078 13.6 7.50078 13.5V10.5C7.60078 10.2 7.30078 9.9 7.10078 9.9Z" fill="#2688EB"/>
</svg>
