<svg width="20" height="20" viewBox="0 0 20 20" fill="none" xmlns="http://www.w3.org/2000/svg">
<path fill-rule="evenodd" clip-rule="evenodd" d="M18.3 8.69961L11.1 3.09961C10.9 2.89961 10.3 2.59961 10.1 2.59961C9.2 2.59961 8.3 3.29961 8.3 4.39961V6.59961H8C5.8 7.09961 4.2 7.99961 3.2 9.39961C1.7 11.0996 1 13.3996 1 16.2996C1 16.5996 1.2 16.7996 1.5 16.8996H1.6C1.8 16.8996 1.9 16.7996 2.1 16.5996C3.8 14.3996 5.8 13.2996 8.1 12.9996H8.2V15.7996C8.2 16.7996 9.1 17.4996 9.9 17.4996C10.4 17.4996 10.7 17.3996 10.9 17.1996L18.2 11.5996C18.7 11.2996 19 10.7996 19 10.1996C19 9.49961 18.8 8.99961 18.3 8.69961ZM8.8 11.4996C6.6 11.4996 4.6 12.2996 2.5 13.8996L2.3 14.0996L2.4 13.5996C2.6 12.2996 3.2 10.7996 4.1 9.99961C5.2 8.69961 6.9 7.89961 8.9 7.49961C9.2 7.49961 9.4 7.19961 9.4 6.89961V4.39961C9.4 4.09961 9.6 3.99961 9.8 3.99961C9.9 3.99961 10 3.99961 10.1 4.09961L17.3 9.69961C17.4 9.79961 17.5 9.89961 17.5 10.1996C17.5 10.3996 17.5 10.3996 17.4 10.4996L10.2 16.0996C10.1 16.1996 10 16.1996 9.9 16.1996C9.8 16.1996 9.7 16.1996 9.6 16.0996C9.5 15.9996 9.4 15.7996 9.4 15.5996V12.1996C9.4 11.8996 9.1 11.4996 8.8 11.4996Z" fill="#2688EB"/>
</svg>
