<svg width="24" height="24" viewBox="0 0 24 24" fill="none" xmlns="http://www.w3.org/2000/svg">
<path d="M13.425 3.5918C13.6624 3.5918 13.892 3.67623 14.0729 3.82995L22.7879 11.2378C23.2089 11.5956 23.2601 12.227 22.9023 12.6479C22.8673 12.6891 22.8291 12.7273 22.7879 12.7623L14.0729 20.1701C13.6519 20.5279 13.0205 20.4767 12.6627 20.0558L12.614 19.9937C12.4909 19.8232 12.4246 19.6182 12.4246 19.4078V15.777L12.2845 15.7799C7.74864 15.8849 4.53405 16.9169 2.62104 18.8367L2.51149 18.949C2.18908 19.2866 1.64651 19.299 1.30421 18.972C1.19698 18.8696 1.11815 18.7411 1.07542 18.5991C1.03269 18.4571 1.02753 18.3065 1.06044 18.1619L1.10706 17.9616C2.57719 11.7832 6.34464 8.50571 12.2884 8.24591L12.4246 8.2406V4.59225C12.4246 4.0397 12.8725 3.5918 13.425 3.5918ZM21.6997 12L13.7103 5.20888V8.87201C13.7103 9.22704 13.4225 9.51487 13.0674 9.51487L12.8775 9.5159C7.64505 9.57341 4.29379 12.0185 2.71978 16.9514L2.67499 17.0953L2.76499 17.0286C5.10726 15.3222 8.54526 14.4852 13.0674 14.4852L13.1293 14.4881C13.4553 14.5193 13.7103 14.7939 13.7103 15.128V18.7907L21.6997 12Z" fill="white"/>
</svg>
