<svg width="16" height="16" viewBox="0 0 16 16" fill="none" xmlns="http://www.w3.org/2000/svg">
<path d="M5.60078 8.99961C8.40078 8.99961 10.9008 9.99961 10.9008 12.1996C10.9008 13.3996 10.5008 13.7996 9.50078 13.7996H1.70078C0.700781 13.7996 0.300781 13.2996 0.300781 12.1996C0.300781 9.99961 2.70078 8.99961 5.60078 8.99961ZM5.60078 10.0996C3.30078 10.0996 1.50078 10.8996 1.50078 12.1996C1.50078 12.6996 1.50078 12.6996 1.70078 12.6996H9.50078C9.80078 12.6996 9.80078 12.6996 9.80078 12.1996C9.70078 10.8996 7.80078 10.0996 5.60078 10.0996ZM12.5008 4.59961C12.7008 4.39961 13.1008 4.39961 13.3008 4.59961L15.6008 6.89961C15.8008 7.09961 15.8008 7.49961 15.6008 7.69961L13.3008 9.99961C13.1008 10.1996 12.7008 10.1996 12.5008 9.99961C12.3008 9.79961 12.3008 9.39961 12.5008 9.19961L13.8008 7.89961H10.3008C10.0008 7.89961 9.80078 7.69961 9.70078 7.39961V7.29961C9.70078 6.99961 10.0008 6.69961 10.3008 6.69961H13.8008L12.5008 5.39961C12.2008 5.19961 12.2008 4.89961 12.5008 4.59961ZM5.40078 2.09961C7.10078 2.09961 8.50078 3.49961 8.50078 5.19961C8.50078 6.89961 7.20078 8.39961 5.40078 8.39961C3.60078 8.39961 2.30078 6.99961 2.30078 5.29961C2.30078 3.59961 3.70078 2.09961 5.40078 2.09961ZM5.40078 3.29961C4.30078 3.29961 3.40078 4.19961 3.40078 5.29961C3.40078 6.39961 4.30078 7.29961 5.40078 7.29961C6.50078 7.29961 7.40078 6.39961 7.40078 5.29961C7.40078 4.19961 6.50078 3.29961 5.40078 3.29961Z" fill="#2688EB"/>
</svg>
