<svg width="16" height="16" viewBox="0 0 16 16" fill="none" xmlns="http://www.w3.org/2000/svg">
<path d="M8.69922 5C8.69922 5.3 8.49922 5.5 8.19922 5.5C7.99922 5.5 7.69922 5.3 7.69922 5C7.69922 4.7 7.89922 4.5 8.19922 4.5C8.49922 4.5 8.69922 4.7 8.69922 5Z" fill="#2688EB"/>
<path d="M8.69922 6.49922V9.19922H7.69922V6.69922H7.49922C7.39922 6.69922 7.29922 6.59922 7.19922 6.49922C7.19922 6.39922 7.29922 6.29922 7.39922 6.19922H8.39922C8.59922 6.19922 8.69922 6.29922 8.69922 6.49922Z" fill="#2688EB"/>
<path fill-rule="evenodd" clip-rule="evenodd" d="M5.29922 0.5H10.5992C11.0992 0.5 11.4992 0.5 11.8992 0.5C12.2992 0.5 12.5992 0.6 12.8992 0.7C13.3992 0.9 13.7992 1.3 13.9992 1.8C14.1992 2.1 14.1992 2.4 14.1992 2.8C14.1992 3.1 14.1992 3.6 14.1992 4.1V4.8H12.9992V4.1C12.9992 3.6 12.9992 3.2 12.9992 2.9C12.9992 2.6 12.8992 2.5 12.8992 2.4C12.7992 2.2 12.5992 2 12.3992 1.9C12.2992 1.9 12.1992 1.8 11.8992 1.8C11.5992 1.8 11.2992 1.8 10.6992 1.8H5.29922C4.79922 1.8 4.39922 1.8 4.09922 1.8C3.79922 1.8 3.69922 1.9 3.59922 1.9C3.39922 2 3.19922 2.2 3.09922 2.4C3.09922 2.5 2.99922 2.7 2.99922 3C2.99922 3.3 2.99922 3.6 2.99922 4.2V4.9V11.9C3.19922 11.8 3.39922 11.8 3.59922 11.8H12.2992H12.9992V4.9H14.1992V12.4C14.1992 12.7 13.8992 13 13.5992 13H12.9992C12.9992 13.2 12.8992 13.4 12.8992 13.6C12.8992 13.8 12.8992 14 12.9992 14.2H13.5992C13.8992 14.2 14.1992 14.5 14.1992 14.8C14.1992 15.1 13.8992 15.4 13.5992 15.4H3.59922C2.59922 15.4 1.69922 14.6 1.69922 13.5V4.9V4.1C1.69922 3.6 1.69922 3.2 1.69922 2.8C1.69922 2.4 1.79922 2.1 1.89922 1.8C2.19922 1.4 2.59922 1 3.09922 0.8C3.39922 0.6 3.69922 0.6 4.09922 0.6C4.39922 0.5 4.79922 0.5 5.29922 0.5ZM11.7992 14.2C11.7992 14 11.7992 13.8 11.7992 13.6C11.7992 13.4 11.7992 13.2 11.7992 13H3.59922C3.19922 13 2.99922 13.3 2.99922 13.6C2.99922 13.9 3.29922 14.2 3.59922 14.2H11.7992Z" fill="#2688EB"/>
</svg>
