<svg width="32" height="32" viewBox="0 0 32 32" fill="none" xmlns="http://www.w3.org/2000/svg">
<path d="M15.9987 3.33398C12.6393 3.33398 9.41748 4.6685 7.04201 7.04396C4.66655 9.41942 3.33203 12.6413 3.33203 16.0007C3.33203 19.3601 4.66655 22.5819 7.04201 24.9574C9.41748 27.3328 12.6393 28.6674 15.9987 28.6674C19.3581 28.6674 22.58 27.3328 24.9554 24.9574C27.3309 22.5819 28.6654 19.3601 28.6654 16.0007C28.6654 12.6413 27.3309 9.41942 24.9554 7.04396C22.58 4.6685 19.3581 3.33398 15.9987 3.33398Z" fill="#212121"/>
<path fill-rule="evenodd" clip-rule="evenodd" d="M19.4722 13.739C20.5229 14.4897 21.8102 14.931 23.2002 14.931V12.257C22.9369 12.257 22.6749 12.2297 22.4176 12.175V14.2797C21.0276 14.2797 19.7409 13.8377 18.6896 13.0877V18.5437C18.6896 21.273 16.4756 23.4857 13.7449 23.4857C12.7262 23.4857 11.7789 23.1777 10.9922 22.6497C11.8902 23.567 13.1422 24.1363 14.5276 24.1363C17.2582 24.1363 19.4722 21.9237 19.4722 19.1943V13.739ZM20.4382 11.0417C19.9016 10.4557 19.5489 9.69762 19.4722 8.85962V8.51562H18.7302C18.9169 9.58029 19.5542 10.4903 20.4382 11.0417ZM12.7196 20.5557C12.4196 20.1623 12.2576 19.6817 12.2582 19.187C12.2582 17.9383 13.2709 16.9263 14.5202 16.9263C14.7529 16.9263 14.9842 16.9617 15.2062 17.0323V14.299C14.9469 14.2637 14.6856 14.2483 14.4236 14.2537V16.381C14.2016 16.3103 13.9702 16.275 13.7369 16.275C12.4876 16.275 11.4749 17.287 11.4749 18.5357C11.4756 19.419 11.9816 20.1837 12.7196 20.5557Z" fill="#EC407A"/>
<path fill-rule="evenodd" clip-rule="evenodd" d="M18.6874 13.0877C19.7381 13.8383 21.0254 14.2797 22.4154 14.2797V12.175C21.6394 12.0097 20.9527 11.6043 20.4361 11.041C19.5521 10.4897 18.9154 9.58029 18.7288 8.51562H16.7801V19.1943C16.7754 20.439 15.7648 21.447 14.5181 21.447C13.7834 21.447 13.1308 21.097 12.7174 20.555C11.9794 20.183 11.4734 19.4183 11.4734 18.5357C11.4734 17.287 12.4861 16.275 13.7354 16.275C13.9748 16.275 14.2054 16.3123 14.4221 16.381V14.2543C11.7394 14.3097 9.58203 16.5003 9.58203 19.195C9.58203 20.5403 10.1194 21.7597 10.9914 22.6503C11.7781 23.1783 12.7254 23.4863 13.7441 23.4863C16.4748 23.4863 18.6887 21.2737 18.6887 18.5443L18.6874 13.0877Z" fill="white"/>
<path fill-rule="evenodd" clip-rule="evenodd" d="M22.4181 12.1747V11.6053C21.7181 11.6067 21.0328 11.4107 20.4387 11.04C20.9641 11.6153 21.6561 12.012 22.4181 12.1747ZM18.7307 8.51461C18.7127 8.41261 18.6994 8.31061 18.6901 8.20728V7.86328H15.9994V18.5427C15.9954 19.7873 14.9841 20.7953 13.7374 20.7953C13.3714 20.7953 13.0261 20.7087 12.7201 20.554C13.1334 21.096 13.7861 21.446 14.5207 21.446C15.7674 21.446 16.7781 20.438 16.7827 19.1933V8.51461H18.7307ZM14.4241 14.2533V13.6473C14.1994 13.6167 13.9727 13.6013 13.7454 13.6013C11.0141 13.6013 8.80078 15.814 8.80078 18.5433C8.80078 20.2547 9.67078 21.7627 10.9927 22.6493C10.1207 21.7587 9.58345 20.5393 9.58345 19.194C9.58345 16.4993 11.7414 14.3087 14.4241 14.2533Z" fill="#81D4FA"/>
</svg>
