<svg width="16" height="16" viewBox="0 0 16 16" fill="none" xmlns="http://www.w3.org/2000/svg">
<g clip-path="url(#clip0_2612_65804)">
<path d="M10.6016 12.2992C10.6016 11.9992 10.6016 11.7992 10.7016 11.6992C10.8016 11.4992 10.9016 11.3992 11.1016 11.2992C11.2016 11.1992 11.4016 11.1992 11.7016 11.1992C12.0016 11.1992 12.2016 11.1992 12.3016 11.2992C12.5016 11.3992 12.6016 11.4992 12.7016 11.6992C12.8016 11.7992 12.8016 11.9992 12.8016 12.2992C12.8016 12.5992 12.8016 12.7992 12.7016 12.8992C12.6016 13.0992 12.5016 13.1992 12.3016 13.2992C12.2016 13.3992 12.0016 13.3992 11.7016 13.3992C11.4016 13.3992 11.2016 13.3992 11.1016 13.2992C10.9016 13.1992 10.8016 13.0992 10.7016 12.8992C10.6016 12.6992 10.6016 12.5992 10.6016 12.2992Z" fill="#818C99"/>
<path fill-rule="evenodd" clip-rule="evenodd" d="M0.800781 7.69961C0.800781 5.49961 0.800781 4.39961 1.20078 3.49961C1.60078 2.79961 2.20078 2.19961 2.90078 1.79961C3.30078 1.59961 3.80078 1.49961 4.40078 1.39961V0.599609C4.40078 0.299609 4.60078 0.0996094 4.90078 0.0996094C5.20078 0.0996094 5.40078 0.299609 5.40078 0.599609V1.39961C5.90078 1.39961 6.40078 1.39961 7.10078 1.39961H8.90078C9.60078 1.39961 10.1008 1.39961 10.6008 1.39961V0.599609C10.6008 0.299609 10.8008 0.0996094 11.1008 0.0996094C11.4008 0.0996094 11.6008 0.299609 11.6008 0.599609V1.49961C12.2008 1.59961 12.7008 1.69961 13.1008 1.89961C13.8008 2.29961 14.4008 2.89961 14.8008 3.59961C15.2008 4.39961 15.2008 5.49961 15.2008 7.79961V9.59961C15.2008 11.7996 15.2008 12.8996 14.8008 13.7996C14.4008 14.4996 13.8008 15.0996 13.1008 15.4996C12.3008 15.8996 11.2008 15.8996 8.90078 15.8996H7.10078C4.90078 15.8996 3.80078 15.8996 2.90078 15.4996C2.20078 15.0996 1.60078 14.4996 1.20078 13.7996C0.800781 12.9996 0.800781 11.8996 0.800781 9.59961V7.69961ZM8.90078 2.39961H7.10078C6.40078 2.39961 5.90078 2.39961 5.40078 2.39961V3.49961C5.40078 3.79961 5.20078 3.99961 4.90078 3.99961C4.60078 3.99961 4.40078 3.79961 4.40078 3.49961V2.49961C3.90078 2.59961 3.60078 2.59961 3.40078 2.79961C2.80078 2.99961 2.40078 3.49961 2.10078 3.99961C1.90078 4.29961 1.90078 4.59961 1.80078 5.19961C1.80078 5.39961 1.80078 5.69961 1.80078 5.99961H14.3008C14.3008 5.69961 14.3008 5.39961 14.3008 5.19961C14.3008 4.59961 14.2008 4.29961 14.0008 3.99961C13.7008 3.39961 13.3008 2.99961 12.7008 2.69961C12.5008 2.59961 12.2008 2.49961 11.7008 2.39961V3.49961C11.7008 3.79961 11.5008 3.99961 11.2008 3.99961C10.9008 3.99961 10.7008 3.79961 10.7008 3.49961V2.39961C10.2008 2.39961 9.60078 2.39961 8.90078 2.39961ZM1.80078 7.69961V9.49961C1.80078 10.5996 1.80078 11.3996 1.90078 11.9996C1.90078 12.5996 2.00078 12.8996 2.20078 13.1996C2.50078 13.7996 2.90078 14.1996 3.50078 14.4996C3.80078 14.5996 4.10078 14.6996 4.70078 14.7996C5.30078 14.7996 6.10078 14.8996 7.20078 14.8996H9.00078C10.1008 14.8996 10.9008 14.8996 11.5008 14.7996C12.1008 14.7996 12.4008 14.6996 12.7008 14.4996C13.3008 14.1996 13.7008 13.7996 14.0008 13.1996C14.1008 12.8996 14.2008 12.5996 14.3008 11.9996C14.3008 11.3996 14.4008 10.5996 14.4008 9.49961V7.69961C14.4008 7.39961 14.4008 7.19961 14.4008 6.99961H1.80078C1.80078 7.19961 1.80078 7.49961 1.80078 7.69961Z" fill="#818C99"/>
</g>
<defs>
<clipPath id="clip0_2612_65804">
<rect width="16" height="16" fill="white"/>
</clipPath>
</defs>
</svg>
