<svg width="20" height="20" viewBox="0 0 20 20" fill="none" xmlns="http://www.w3.org/2000/svg">
<g clip-path="url(#clip0_2612_65966)">
<path d="M0 10C0 4.5 4.5 0 10 0C15.5 0 20 4.5 20 10C20 15.5 15.5 20 10 20C4.5 20 0 15.5 0 10Z" fill="#4BB44B"/>
<path d="M11.6984 15.2004C11.4984 16.0004 10.8984 16.6004 9.99844 16.6004C9.09844 16.6004 8.49844 16.0004 8.29844 15.2004H11.6984ZM5.79844 13.8004C4.89844 13.8004 4.39844 13.5004 4.39844 12.9004C4.39844 12.0004 5.79844 12.0004 5.79844 10.6004V7.80039C5.79844 5.80039 7.29844 4.00039 9.19844 3.70039V3.60039C9.19844 3.20039 9.49844 2.90039 9.89844 2.90039C10.2984 2.90039 10.5984 3.20039 10.5984 3.60039V3.70039C12.4984 4.00039 13.9984 5.80039 13.9984 7.80039V10.6004C13.9984 12.0004 15.3984 12.0004 15.3984 12.9004C15.3984 13.5004 14.8984 13.8004 13.9984 13.8004H5.79844Z" fill="white"/>
</g>
<defs>
<clipPath id="clip0_2612_65966">
<rect width="20" height="20" fill="white"/>
</clipPath>
</defs>
</svg>
