<svg width="100" height="100" viewBox="0 0 100 100" fill="none" xmlns="http://www.w3.org/2000/svg">
<path d="M30.1 2.30078C20.2 2.30078 12 10.4008 12 20.4008V24.0008C12 26.0008 13.6 27.6008 15.6 27.6008H55.3C57.3 27.6008 58.9 26.0008 58.9 24.0008V20.6008C58.9 14.6008 63.7 9.60078 69.7 9.60078C75.8 9.60078 80.6 14.4008 80.6 20.4008V71.0008H80.3C78.5 71.0008 77 72.3008 76.8 74.1008C76.8 74.1008 76.8 74.1008 76.8 74.2008C76.5 76.3008 78.2 78.3008 80.3 78.3008H83.6C85.6 78.6008 87.4 77.3008 87.8 75.3008C87.8 75.1008 87.9 74.9008 87.9 74.6008V20.4008C87.9 10.5008 79.8 2.30078 69.8 2.30078H30.1ZM22.9 34.8008V74.5008C22.9 76.5008 24.5 78.1008 26.5 78.1008H30.4C32.6 78.1008 34.3 76.2008 33.9 74.0008C33.9 74.0008 33.9 74.0008 33.9 73.9008C33.6 72.1008 32.1 70.8008 30.4 70.8008H30.1V34.8008H22.9ZM44.6 42.0008C42.6 42.0008 41 43.6008 40.9 45.6008C40.9 47.6008 42.5 49.2008 44.5 49.3008H44.6H66.3C68.3 49.3008 69.9 47.7008 70 45.7008C70 43.7008 68.4 42.1008 66.4 42.0008H66.3H44.6ZM55.4 56.5008C47.5 56.5008 41 63.0008 41 71.0008C41 73.9008 41.9 76.6008 43.4 78.8008C44.2 80.0008 44.6 81.4008 44.6 82.8008V95.2008C44.6 97.2008 46.8 98.4008 48.5 97.3008L55.5 92.7008L62.5 97.3008C64.2 98.4008 66.4 97.2008 66.4 95.2008V82.8008C66.4 81.4008 66.8 80.0008 67.6 78.8008C69.1 76.5008 70 73.9008 70 71.0008C69.9 63.0008 63.4 56.5008 55.4 56.5008ZM55.4 63.7008C59.4 63.7008 62.6 66.9008 62.6 70.9008C62.6 74.9008 59.4 78.1008 55.4 78.1008C51.4 78.1008 48.2 74.9008 48.2 70.9008C48.2 67.0008 51.4 63.7008 55.4 63.7008Z" fill="#2688EB"/>
</svg>
