<svg width="24" height="16" viewBox="0 0 24 16" fill="none" xmlns="http://www.w3.org/2000/svg">
<g clip-path="url(#clip0_2612_65964)">
<path fill-rule="evenodd" clip-rule="evenodd" d="M7.40078 0H11.2008C12.2008 0 12.9008 0 13.6008 0.1C14.2008 0.2 14.8008 0.3 15.3008 0.5C16.1008 0.9 16.8008 1.6 17.2008 2.4C17.4008 2.8 17.5008 3.2 17.6008 3.7L18.0008 3.4L18.9008 3C19.1008 2.9 19.4008 2.7 19.6008 2.6C19.8008 2.5 20.3008 2.2 20.9008 2.3C21.6008 2.3 22.2008 2.7 22.7008 3.3C23.1008 3.8 23.1008 4.3 23.2008 4.6C23.2008 4.9 23.2008 5.2 23.2008 5.4V10.9C23.2008 11.2 23.2008 11.5 23.2008 11.7C23.2008 12 23.1008 12.5 22.7008 13C22.3008 13.6 21.6008 13.9 20.9008 14C20.3008 14 19.8008 13.8 19.6008 13.7C19.4008 13.6 19.1008 13.4 18.9008 13.3L18.1008 12.8L17.7008 12.5C17.6008 13 17.5008 13.4 17.3008 13.8C16.9008 14.6 16.2008 15.3 15.4008 15.7C14.9008 16 14.3008 16.1 13.7008 16.1C13.0008 16 12.2008 16 11.2008 16H7.40078C6.40078 16 5.70078 16 5.00078 15.9C4.40078 15.8 3.80078 15.7 3.30078 15.5C2.50078 15.1 1.80078 14.4 1.40078 13.6C1.10078 13 1.00078 12.5 0.900781 11.8C0.800781 11.2 0.800781 10.4 0.800781 9.4V6.5C0.800781 5.5 0.800781 4.8 0.900781 4.1C1.00078 3.5 1.10078 3 1.40078 2.4C1.80078 1.6 2.50078 0.9 3.30078 0.5C3.80078 0.2 4.40078 0.1 5.00078 0.1C5.70078 0 6.50078 0 7.40078 0ZM17.8008 9.5V5.8L19.8008 4.5C20.3008 4.2 20.6008 4 20.8008 4C21.0008 4 21.1008 4.1 21.3008 4.2C21.4008 4.4 21.4008 4.7 21.4008 5.3V10.7C21.4008 11.3 21.4008 11.6 21.3008 11.8C21.2008 11.9 21.0008 12 20.8008 12C20.6008 12 20.3008 11.9 19.8008 11.5L17.8008 10.2V9.5ZM5.20078 1.8C4.70078 1.8 4.40078 1.9 4.10078 2C3.60078 2.3 3.20078 2.7 3.00078 3.2C2.80078 3.5 2.80078 3.8 2.70078 4.3C2.70078 4.8 2.70078 5.6 2.70078 6.6V9.4C2.70078 10.4 2.70078 11.1 2.70078 11.7C2.70078 12.2 2.80078 12.5 2.90078 12.8C3.20078 13.3 3.60078 13.7 4.10078 14C4.30078 14.1 4.60078 14.2 5.20078 14.2C5.70078 14.2 6.50078 14.2 7.50078 14.2H11.2008C12.2008 14.2 12.9008 14.2 13.5008 14.2C14.0008 14.2 14.3008 14.1 14.6008 14C15.1008 13.7 15.5008 13.3 15.8008 12.8C15.9008 12.6 16.0008 12.3 16.0008 11.7C16.0008 11.2 16.0008 10.4 16.0008 9.4V6.6C16.0008 5.6 16.0008 4.9 16.0008 4.3C16.0008 3.8 15.9008 3.5 15.8008 3.2C15.5008 2.7 15.1008 2.3 14.6008 2C14.4008 1.9 14.1008 1.8 13.5008 1.8C13.0008 1.8 12.2008 1.8 11.2008 1.8H7.50078C6.50078 1.8 5.80078 1.8 5.20078 1.8Z" fill="#2688EB"/>
</g>
<defs>
<clipPath id="clip0_2612_65964">
<rect width="24" height="16" fill="white"/>
</clipPath>
</defs>
</svg>
