<svg width="24" height="24" viewBox="0 0 24 24" fill="none" xmlns="http://www.w3.org/2000/svg">
<path fill-rule="evenodd" clip-rule="evenodd" d="M7.3 3.69961H11.2C12.2 3.69961 12.9 3.69961 13.7 3.79961C14.3 3.89961 14.9 3.99961 15.4 4.19961C16.2 4.59961 16.9 5.29961 17.4 6.19961C17.6 6.59961 17.7 6.99961 17.8 7.49961L18.2 7.19961L19.1 6.79961C19.3 6.69961 19.6 6.49961 19.8 6.39961C20 6.29961 20.5 5.99961 21.1 6.09961C21.8 6.09961 22.4 6.49961 22.9 7.09961C23.3 7.59961 23.3 8.09961 23.4 8.39961C23.4 8.69961 23.4 8.99961 23.4 9.19961V14.7996C23.4 15.0996 23.4 15.3996 23.4 15.5996C23.4 15.8996 23.3 16.3996 22.9 16.8996C22.5 17.4996 21.8 17.7996 21.1 17.8996C20.5 17.8996 20 17.6996 19.8 17.5996C19.6 17.4996 19.3 17.2996 19.1 17.1996L18.3 16.6996L17.9 16.3996C17.8 16.8996 17.7 17.2996 17.5 17.6996C17.1 18.4996 16.4 19.1996 15.5 19.6996C15 19.9996 14.4 20.0996 13.8 20.0996C13.1 19.9996 12.3 19.9996 11.2 19.9996H7.3C6.3 19.9996 5.6 19.9996 4.8 19.8996C4.2 19.7996 3.6 19.6996 3.1 19.4996C2.3 19.0996 1.6 18.3996 1.1 17.4996C0.8 16.8996 0.7 16.3996 0.6 15.6996C0.5 15.0996 0.5 14.2996 0.5 13.1996V10.1996C0.5 9.19961 0.5 8.49961 0.6 7.69961C0.7 7.09961 0.8 6.59961 1.1 5.99961C1.5 5.19961 2.2 4.49961 3.1 3.99961C3.6 3.69961 4.2 3.59961 4.8 3.59961C5.5 3.69961 6.4 3.69961 7.3 3.69961ZM18 13.4996V9.69961L20 8.39961C20.5 8.09961 20.8 7.89961 21 7.89961C21.2 7.89961 21.3 7.99961 21.5 8.09961C21.6 8.29961 21.6 8.59961 21.6 9.19961V14.6996C21.6 15.2996 21.6 15.5996 21.5 15.7996C21.4 15.8996 21.2 15.9996 21 15.9996C20.8 15.9996 20.5 15.8996 20 15.4996L18 14.1996V13.4996ZM5 5.59961C4.5 5.59961 4.2 5.69961 3.9 5.79961C3.4 6.09961 3 6.49961 2.8 6.99961C2.6 7.29961 2.6 7.59961 2.5 8.09961C2.5 8.59961 2.5 9.39961 2.5 10.4996V13.3996C2.5 14.3996 2.5 15.0996 2.5 15.7996C2.5 16.2996 2.6 16.5996 2.7 16.8996C3 17.3996 3.4 17.7996 3.9 18.0996C4.1 18.1996 4.4 18.2996 5 18.2996C5.5 18.2996 6.3 18.2996 7.4 18.2996H11.2C12.2 18.2996 12.9 18.2996 13.6 18.2996C14.1 18.2996 14.4 18.1996 14.7 18.0996C15.2 17.7996 15.6 17.3996 15.9 16.8996C16 16.6996 16.1 16.3996 16.1 15.7996C16.1 15.2996 16.1 14.4996 16.1 13.3996V10.4996C16.1 9.49961 16.1 8.79961 16.1 8.09961C16.1 7.59961 16 7.29961 15.9 6.99961C15.6 6.49961 15.2 6.09961 14.7 5.79961C14.5 5.69961 14.2 5.59961 13.6 5.59961C13.1 5.59961 12.3 5.59961 11.2 5.59961H7.4C6.4 5.59961 5.6 5.59961 5 5.59961Z" fill="#2688EB"/>
</svg>
