<svg width="24" height="24" viewBox="0 0 24 24" fill="none" xmlns="http://www.w3.org/2000/svg">
<path fill-rule="evenodd" clip-rule="evenodd" d="M11.9364 3.42847C11.9931 3.42847 12.0622 3.42838 12.1268 3.4331C12.974 3.49567 13.6476 4.16938 13.7102 5.01658C13.7149 5.08112 13.7149 5.15021 13.7148 5.20687V18.7929C13.7156 18.8564 13.7141 18.9199 13.7102 18.9833C13.6476 19.8305 12.974 20.5041 12.1268 20.5667C12.0622 20.5715 11.9931 20.5714 11.9364 20.5713H11.9089C11.8545 20.5713 11.8065 20.5713 11.7588 20.5696C11.1426 20.5469 10.5552 20.3036 10.1034 19.884C10.0684 19.8514 10.0345 19.8175 9.99596 19.779L5.64553 15.4285H4.59819C4.26476 15.4285 3.96459 15.4286 3.7149 15.4082C3.44747 15.3863 3.16333 15.3368 2.88484 15.1949C2.48164 14.9895 2.15383 14.6617 1.94842 14.2585C1.80647 13.98 1.75702 13.6958 1.73524 13.4285C1.71484 13.1788 1.71484 12.8786 1.71484 12.5452V11.4547C1.71484 11.1212 1.71484 10.8211 1.73524 10.5714C1.75702 10.304 1.80647 10.0198 1.94842 9.74132C2.15386 9.33814 2.48166 9.01033 2.88484 8.8049C3.16342 8.66304 3.44747 8.61358 3.7149 8.59172C3.96459 8.57132 4.26467 8.57132 4.59819 8.57132H5.64553L9.99604 4.2209C10.0312 4.18524 10.067 4.15024 10.1034 4.1159C10.5552 3.69627 11.1426 3.45291 11.7588 3.43018C11.8066 3.42847 11.8544 3.42847 11.9089 3.42847H11.9364ZM11.997 5.14301C11.9714 5.14278 11.9458 5.14269 11.9202 5.14275C11.8483 5.14275 11.834 5.14292 11.8219 5.14335C11.6166 5.15092 11.4207 5.23205 11.2702 5.37195C11.2465 5.39458 11.2232 5.41758 11.2003 5.44095L6.64684 9.99444L6.64607 9.99512C6.63131 10.0101 6.61619 10.0246 6.60073 10.0388C6.43789 10.1876 6.22801 10.2745 6.00767 10.2844C5.97947 10.2857 5.95136 10.2856 5.94493 10.2856H4.62913C4.25499 10.2856 4.02587 10.2863 3.85444 10.3003C3.77464 10.3068 3.7263 10.315 3.69699 10.322C3.6878 10.324 3.67873 10.3266 3.66982 10.3296C3.66536 10.3312 3.66313 10.3323 3.66313 10.3323C3.5825 10.3734 3.51694 10.439 3.47584 10.5196C3.47584 10.5196 3.47473 10.5218 3.4731 10.5263C3.47003 10.5352 3.46745 10.5443 3.46539 10.5535C3.45853 10.5828 3.4503 10.6311 3.44379 10.711C3.42982 10.8824 3.42913 11.1115 3.42913 11.4856V12.5142C3.42913 12.8884 3.42982 13.1174 3.44379 13.2889C3.4503 13.3687 3.45853 13.417 3.46539 13.4463C3.46745 13.4555 3.47003 13.4646 3.4731 13.4735C3.47389 13.4758 3.47481 13.478 3.47584 13.4802C3.51692 13.5608 3.58248 13.6264 3.66313 13.6675C3.66313 13.6675 3.66536 13.6686 3.66982 13.6702C3.67874 13.6732 3.68781 13.6758 3.69699 13.6779C3.7263 13.6848 3.77464 13.693 3.85444 13.6995C4.02587 13.7135 4.25499 13.7142 4.62913 13.7142H5.94484C5.95119 13.7142 5.97939 13.7141 6.00776 13.7154C6.06755 13.718 6.12696 13.7264 6.18519 13.7402C6.28136 13.7634 6.37333 13.8014 6.45776 13.8531C6.5241 13.8938 6.57236 13.9352 6.60073 13.961C6.62164 13.9802 6.64162 14.0001 6.64607 14.0047L6.64684 14.0054L11.2003 18.5589C11.2511 18.6097 11.2613 18.6197 11.2702 18.6279C11.4207 18.7678 11.6166 18.8489 11.8219 18.8564C11.834 18.857 11.8483 18.857 11.9202 18.857C11.9597 18.857 11.9813 18.857 11.997 18.8569L12.0003 18.8568V18.8535C12.0006 18.8378 12.0006 18.8162 12.0006 18.7766V5.22324C12.0006 5.18372 12.0006 5.16212 12.0003 5.14627V5.14301H11.997ZM16.0461 8.78724C16.3422 8.41781 16.8816 8.3585 17.251 8.65455C18.229 9.43858 18.8577 10.6461 18.8577 11.9999C18.8577 13.3538 18.229 14.5613 17.251 15.3453C16.8816 15.6414 16.3422 15.582 16.0461 15.2126C15.75 14.8433 15.8094 14.3038 16.1788 14.0078C16.7684 13.535 17.1434 12.8116 17.1434 11.9999C17.1434 11.1883 16.7684 10.4648 16.1788 9.99212C15.8094 9.69607 15.75 9.15658 16.0461 8.78724ZM19.6748 6.21444C19.3199 5.90115 18.7782 5.93501 18.465 6.28987C18.1517 6.64472 18.1854 7.18644 18.5404 7.49972C19.7874 8.60038 20.5719 10.208 20.5719 11.9999C20.5719 13.7918 19.7874 15.3995 18.5404 16.5002C18.1854 16.8134 18.1517 17.3551 18.465 17.7099C18.7782 18.0649 19.3199 18.0986 19.6748 17.7854C21.2748 16.3731 22.2862 14.3041 22.2862 11.9999C22.2862 9.69572 21.2748 7.62675 19.6748 6.21444Z" fill="white"/>
</svg>
