<svg width="34" height="34" viewBox="0 0 34 34" fill="none" xmlns="http://www.w3.org/2000/svg">
<path fill-rule="evenodd" clip-rule="evenodd" d="M11.0008 0.400391H15.8008C16.9008 0.400391 17.8008 0.400391 18.6008 0.500391C19.4008 0.600391 20.0008 0.700391 20.6008 1.00039C21.6008 1.50039 22.4008 2.30039 22.9008 3.30039C23.2008 3.90039 23.3008 4.60039 23.4008 5.30039C23.4008 6.00039 23.4008 6.90039 23.4008 8.00039V11.1004C23.4008 11.7004 22.9008 12.1004 22.4008 12.1004C21.9008 12.1004 21.4008 11.6004 21.4008 11.1004V8.10039C21.4008 6.90039 21.4008 6.10039 21.3008 5.50039C21.2008 4.90039 21.2008 4.50039 21.0008 4.20039C20.7008 3.60039 20.2008 3.10039 19.6008 2.80039C19.3008 2.70039 19.0008 2.60039 18.3008 2.50039C17.7008 2.40039 16.8008 2.40039 15.7008 2.40039H11.0008C9.80078 2.40039 9.00078 2.40039 8.40078 2.50039C7.80078 2.60039 7.40078 2.60039 7.10078 2.80039C6.50078 3.10039 6.10078 3.60039 5.80078 4.20039C5.60078 4.50039 5.50078 4.80039 5.50078 5.40039C5.40078 6.10039 5.40078 6.90039 5.40078 8.10039V25.9004C5.40078 27.1004 5.40078 27.9004 5.50078 28.5004C5.60078 29.1004 5.60078 29.5004 5.80078 29.8004C6.10078 30.4004 6.60078 30.9004 7.20078 31.2004C7.50078 31.3004 7.80078 31.4004 8.50078 31.5004C9.10078 31.6004 10.0008 31.6004 11.1008 31.6004H16.9008C17.5008 31.6004 17.9008 32.1004 17.9008 32.6004C17.9008 33.2004 17.4008 33.6004 16.9008 33.6004H11.0008C9.90078 33.6004 9.00078 33.6004 8.20078 33.5004C7.40078 33.4004 6.80078 33.3004 6.20078 33.0004C5.20078 32.5004 4.40078 31.7004 3.90078 30.7004C3.60078 30.1004 3.50078 29.4004 3.40078 28.7004C3.30078 28.0004 3.30078 27.1004 3.30078 26.0004V8.00039C3.30078 6.90039 3.30078 6.00039 3.40078 5.20039C3.50078 4.40039 3.60078 3.80039 3.90078 3.20039C4.40078 2.20039 5.20078 1.40039 6.20078 0.900391C6.80078 0.600391 7.50078 0.500391 8.20078 0.400391C8.90078 0.400391 9.90078 0.400391 11.0008 0.400391ZM14.8008 19.1004C16.0008 16.5004 18.4008 14.7004 21.3008 14.3004C20.1008 15.7004 19.2008 17.3004 18.7008 19.1004H14.8008ZM14.3008 20.5004C14.1008 21.2004 14.0008 21.9004 14.0008 22.6004C14.0008 23.3004 14.1008 24.0004 14.3008 24.7004H18.4008C18.2008 23.3004 18.2008 21.9004 18.4008 20.6004C18.4008 20.5004 14.3008 20.5004 14.3008 20.5004ZM19.8008 20.5004C19.7008 21.2004 19.6008 21.9004 19.6008 22.6004C19.6008 23.3004 19.7008 24.0004 19.8008 24.7004H24.9008C25.0008 24.0004 25.1008 23.3004 25.1008 22.6004C25.1008 21.9004 25.0008 21.2004 24.9008 20.5004H19.8008ZM26.3008 20.5004C26.5008 21.9004 26.5008 23.3004 26.3008 24.6004H30.4008C30.6008 23.9004 30.7008 23.2004 30.7008 22.5004C30.7008 21.8004 30.6008 21.1004 30.4008 20.4004H26.3008V20.5004ZM29.9008 19.1004H26.0008C25.5008 17.3004 24.6008 15.7004 23.4008 14.3004C26.3008 14.7004 28.7008 16.5004 29.9008 19.1004ZM29.9008 26.0004H26.0008C25.5008 27.8004 24.6008 29.4004 23.4008 30.8004C26.3008 30.4004 28.7008 28.5004 29.9008 26.0004ZM24.6008 26.0004H20.2008C20.7008 27.4004 21.4008 28.7004 22.4008 29.9004C23.3008 28.7004 24.1008 27.4004 24.6008 26.0004ZM18.7008 26.0004H14.8008C16.0008 28.6004 18.4008 30.4004 21.3008 30.8004C20.1008 29.4004 19.2008 27.8004 18.7008 26.0004ZM24.6008 19.1004H20.2008C20.7008 17.7004 21.4008 16.4004 22.4008 15.2004C23.3008 16.3004 24.1008 17.7004 24.6008 19.1004Z" fill="#2688EB"/>
</svg>
