<svg width="34" height="34" viewBox="0 0 34 34" fill="none" xmlns="http://www.w3.org/2000/svg">
<path d="M16.9995 1.35938C8.37572 1.35938 1.35948 8.37562 1.35948 16.9994C1.35948 19.6922 2.05512 22.3401 3.37432 24.6766L1.38464 31.7758C1.31936 32.009 1.3826 32.2592 1.55124 32.4326C1.68112 32.5666 1.85792 32.6394 2.03948 32.6394C2.09388 32.6394 2.14896 32.6326 2.20268 32.6196L9.61196 30.7843C11.8743 31.9988 14.4223 32.6394 16.9995 32.6394C25.6232 32.6394 32.6395 25.6231 32.6395 16.9994C32.6395 8.37562 25.6232 1.35938 16.9995 1.35938ZM24.8671 22.5182C24.5325 23.4444 22.9277 24.2896 22.1566 24.4032C21.4643 24.5045 20.5885 24.548 19.627 24.2461C19.0442 24.0625 18.2962 23.8191 17.3381 23.4104C13.3105 21.6927 10.6802 17.6882 10.4789 17.4237C10.2783 17.1592 8.83948 15.2742 8.83948 13.3233C8.83948 11.3724 9.87648 10.4129 10.245 10.0158C10.6136 9.61866 11.0481 9.51938 11.316 9.51938C11.5839 9.51938 11.8512 9.52278 12.0858 9.53366C12.3326 9.5459 12.6638 9.44049 12.9895 10.2143C13.3241 11.0086 14.1271 12.9595 14.2264 13.1587C14.3271 13.3573 14.3937 13.5892 14.2604 13.8537C14.1271 14.1182 14.0605 14.2834 13.8592 14.5153C13.6579 14.7472 13.4376 15.0321 13.2567 15.2103C13.0555 15.4082 12.8467 15.6224 13.0806 16.0195C13.3145 16.4166 14.1203 17.7147 15.3144 18.766C16.8478 20.1165 18.1419 20.5354 18.5431 20.7339C18.9443 20.9325 19.1789 20.8992 19.4128 20.6346C19.6467 20.3694 20.4165 19.4766 20.6837 19.0802C20.9509 18.6837 21.2189 18.749 21.5874 18.8816C21.956 19.0135 23.93 19.9723 24.3312 20.1709C24.7324 20.3694 25.0003 20.4687 25.101 20.634C25.2016 20.7985 25.2016 21.5928 24.8671 22.5182Z" fill="#0170CC"/>
</svg>
