<svg width="360" height="359" viewBox="0 0 360 359" fill="none" xmlns="http://www.w3.org/2000/svg">
<path fill-rule="evenodd" clip-rule="evenodd" d="M6.6 6.09961C14.1 -1.40039 26.2 -1.40039 33.7 6.09961L179.6 152L325.5 6.09961C333 -1.40039 345.1 -1.40039 352.6 6.09961C360.1 13.5996 360.1 25.6996 352.6 33.1996L206.6 179.1L352.6 325C360.1 332.5 360.1 344.6 352.6 352.1C345.1 359.6 333 359.6 325.5 352.1L179.6 206.2L33.6 352.1C26.1 359.6 14 359.6 6.5 352.1C-1 344.6 -1 332.5 6.5 325L152.4 179.1L6.6 33.1996C-0.9 25.6996 -0.9 13.5996 6.6 6.09961Z" fill="#818C99"/>
</svg>
