<svg width="15" height="16" viewBox="0 0 15 16" fill="none" xmlns="http://www.w3.org/2000/svg">
<g clip-path="url(#clip0_2612_65795)">
<path fill-rule="evenodd" clip-rule="evenodd" d="M14.7984 5.90039C14.7984 5.60039 14.6984 5.30039 14.5984 5.10039C14.3984 4.70039 14.0984 4.40039 13.6984 4.20039C13.3984 4.00039 13.0984 4.00039 12.7984 3.90039C12.4984 3.90039 12.1984 3.90039 11.7984 3.90039H10.8984C10.8984 3.60039 10.8984 3.20039 10.8984 2.90039C10.8984 2.60039 10.7984 2.30039 10.6984 2.10039C10.4984 1.70039 10.1984 1.40039 9.79844 1.20039C9.49844 1.00039 9.19844 0.900391 8.89844 0.900391C8.59844 0.900391 8.29844 0.900391 7.89844 0.900391H7.19844C6.79844 0.900391 6.49844 0.900391 6.19844 0.900391C5.99844 0.900391 5.69844 1.00039 5.39844 1.10039C4.99844 1.30039 4.69844 1.70039 4.49844 2.10039C4.39844 2.30039 4.29844 2.60039 4.29844 2.90039C4.29844 3.20039 4.29844 3.60039 4.29844 3.90039H3.29844C2.89844 3.90039 2.59844 3.90039 2.29844 3.90039C1.99844 4.00039 1.79844 4.00039 1.49844 4.10039C1.09844 4.30039 0.798438 4.70039 0.598438 5.10039C0.498438 5.30039 0.398438 5.60039 0.398438 5.90039C0.398438 6.20039 0.398438 6.50039 0.398438 6.90039V7.90039C0.398438 8.10039 0.398438 8.40039 0.398438 8.50039C0.498438 9.20039 0.898438 9.70039 1.59844 9.90039C1.59844 10.4004 1.59844 10.8004 1.59844 11.3004C1.59844 11.6004 1.69844 12.0004 1.79844 12.2004C1.99844 12.7004 2.39844 13.0004 2.79844 13.2004C3.09844 13.4004 3.39844 13.4004 3.69844 13.4004C3.99844 13.4004 4.39844 13.4004 4.89844 13.4004H9.49844V12.2004H4.99844C4.49844 12.2004 4.09844 12.2004 3.89844 12.2004C3.59844 12.2004 3.49844 12.1004 3.39844 12.1004C3.19844 12.0004 2.99844 11.8004 2.89844 11.6004C2.79844 11.5004 2.79844 11.4004 2.79844 11.1004C2.79844 10.7004 2.79844 10.3004 2.79844 9.80039H13.5984C14.2984 9.80039 14.6984 9.10039 14.7984 8.40039C14.7984 8.20039 14.7984 8.00039 14.7984 7.80039V6.80039C14.7984 6.50039 14.7984 6.10039 14.7984 5.90039ZM5.49844 3.00039C5.49844 2.80039 5.49844 2.70039 5.59844 2.60039C5.69844 2.40039 5.79844 2.30039 5.99844 2.20039C6.09844 2.20039 6.19844 2.10039 6.39844 2.10039C6.59844 2.10039 6.89844 2.10039 7.29844 2.10039H7.89844C8.29844 2.10039 8.59844 2.10039 8.79844 2.10039C8.99844 2.10039 9.09844 2.10039 9.19844 2.20039C9.39844 2.30039 9.49844 2.40039 9.59844 2.60039C9.59844 2.70039 9.69844 2.80039 9.69844 3.00039C9.69844 3.20039 9.69844 3.50039 9.69844 3.90039H5.49844C5.49844 3.50039 5.49844 3.20039 5.49844 3.00039ZM13.5984 7.90039C13.5984 8.20039 13.5984 8.30039 13.5984 8.40039C13.5984 8.60039 13.4984 8.70039 13.2984 8.70039C13.1984 8.70039 12.9984 8.70039 12.7984 8.70039H2.39844C2.09844 8.70039 1.99844 8.70039 1.89844 8.70039C1.69844 8.70039 1.59844 8.60039 1.59844 8.40039C1.59844 8.30039 1.59844 8.10039 1.59844 7.90039V6.90039C1.59844 6.50039 1.59844 6.20039 1.59844 6.00039C1.59844 5.80039 1.59844 5.70039 1.69844 5.60039C1.79844 5.40039 1.89844 5.30039 2.09844 5.20039C2.19844 5.20039 2.29844 5.10039 2.49844 5.10039C2.69844 5.10039 2.99844 5.10039 3.39844 5.10039H11.7984C12.1984 5.10039 12.4984 5.10039 12.6984 5.10039C12.8984 5.10039 12.9984 5.10039 13.0984 5.20039C13.2984 5.30039 13.3984 5.40039 13.4984 5.60039C13.4984 5.70039 13.5984 5.80039 13.5984 6.00039C13.5984 6.20039 13.5984 6.50039 13.5984 6.90039V7.90039Z" fill="#2688EB"/>
<path d="M13.1987 11.9996L14.2987 12.0996C14.6987 12.0996 14.7987 12.4996 14.4987 12.7996L13.6987 13.4996L13.9987 14.6996C14.0987 15.0996 13.7987 15.2996 13.4987 15.0996L12.4987 14.3996L11.4987 15.0996C11.1987 15.2996 10.8987 15.0996 10.9987 14.6996L11.2987 13.4996L10.4987 12.7996C10.1987 12.5996 10.2987 12.1996 10.6987 12.0996L11.7987 11.9996L12.2987 10.8996C12.3987 10.4996 12.7987 10.4996 12.9987 10.8996C12.6987 10.7996 13.1987 11.9996 13.1987 11.9996Z" fill="#2688EB"/>
</g>
<defs>
<clipPath id="clip0_2612_65795">
<rect width="15" height="16" fill="white"/>
</clipPath>
</defs>
</svg>
