<svg width="32" height="32" viewBox="0 0 32 32" fill="none" xmlns="http://www.w3.org/2000/svg">
<path d="M28.8013 22.6C28.5346 24 27.4013 25.0667 26.0013 25.2667C23.8013 25.6 20.1346 26 16.0013 26C11.9346 26 8.26797 25.6 6.0013 25.2667C4.6013 25.0667 3.46797 24 3.2013 22.6C2.93463 21.0667 2.66797 18.8 2.66797 16C2.66797 13.2 2.93463 10.9333 3.2013 9.4C3.46797 8 4.6013 6.93333 6.0013 6.73333C8.2013 6.4 11.8679 6 16.0013 6C20.1346 6 23.7346 6.4 26.0013 6.73333C27.4013 6.93333 28.5346 8 28.8013 9.4C29.0679 10.9333 29.4013 13.2 29.4013 16C29.3346 18.8 29.0679 21.0667 28.8013 22.6Z" fill="#FF0000"/>
<path d="M13.332 20.6674V11.334L21.332 16.0007L13.332 20.6674Z" fill="white"/>
</svg>
