<svg width="11" height="8" xmlns="http://www.w3.org/2000/svg" xmlns:xlink="http://www.w3.org/1999/xlink" xml:space="preserve" overflow="hidden"><g transform="translate(-24 -34)"><path d="M10.971 3.71392C10.971 4.19635 10.5761 4.59138 10.0935 4.59138L3.38969 4.59138 4.73222 5.93372C5.07437 6.27607 5.07437 6.82874 4.73222 7.1711 4.55672 7.33774 4.32859 7.4256 4.10921 7.4256 3.88107 7.4256 3.6617 7.33774 3.48619 7.1711L1.27505 4.9513 0.029013 3.71392 1.27505 2.47654 3.48619 0.25674C3.82839-0.0856138 4.38122-0.0856138 4.73222 0.25674 5.07437 0.599093 5.07437 1.15177 4.73222 1.49366L3.38969 2.8364 10.0935 2.8364C10.5762 2.83645 10.971 3.23149 10.971 3.71392Z" fill="#4273B8" transform="matrix(1 0 0 1.07597 24 34.0052)"/></g></svg>