<svg width="23" height="22" xmlns="http://www.w3.org/2000/svg" xmlns:xlink="http://www.w3.org/1999/xlink" xml:space="preserve" overflow="hidden"><g transform="translate(247 -28)"><path d="M20.5615 9.73077 6.51538 9.73077C6.13462 9.73077 5.96538 9.26538 6.21923 9.01154L10.2808 4.95C10.5346 4.69615 10.5346 4.31538 10.2808 4.06154L9.35 3.13077C9.09615 2.87692 8.71538 2.87692 8.46154 3.13077L1.05769 10.5769C0.803846 10.8308 0.803846 11.2115 1.05769 11.4654L8.46154 18.8692C8.71538 19.1231 9.09615 19.1231 9.35 18.8692L10.2385 17.9808C10.4923 17.7269 10.4923 17.3462 10.2385 17.0923L6.17692 13.0308C5.92308 12.7346 6.09231 12.2692 6.47308 12.2692L20.5192 12.2692C20.8577 12.2692 21.1538 12.0154 21.1538 11.6769L21.1538 10.4077C21.1538 10.0692 20.9 9.73077 20.5615 9.73077Z" fill="#4273B8" transform="matrix(1.04545 0 0 1 -247 28)"/></g></svg>