<?xml version="1.0" encoding="utf-8"?>
<!-- Generator: Adobe Illustrator 26.5.0, SVG Export Plug-In . SVG Version: 6.00 Build 0)  -->
<svg version="1.1" id="Layer_1" xmlns="http://www.w3.org/2000/svg" xmlns:xlink="http://www.w3.org/1999/xlink" x="0px" y="0px"
	 viewBox="0 0 216.11 145.886" style="enable-background:new 0 0 216.11 145.886;" xml:space="preserve">
<style type="text/css">
	.st0{fill:#4273B8;}
</style>
<g>
	<g>
		<g>
			<path class="st0" d="M215.54,72.965c0,9.478-7.758,17.239-17.239,17.239H66.595l26.376,26.372c6.722,6.726,6.722,17.584,0,24.31
				c-3.448,3.274-7.93,5-12.24,5c-4.482,0-8.792-1.726-12.24-5L25.05,97.275l-24.48-24.31l24.48-24.31L68.491,5.044
				c6.723-6.726,17.584-6.726,24.48,0c6.722,6.726,6.722,17.584,0,24.301l-26.376,26.38h131.706
				C207.783,55.726,215.54,63.487,215.54,72.965z"/>
		</g>
	</g>
</g>
</svg>
