<svg width="52" height="53" xmlns="http://www.w3.org/2000/svg" xmlns:xlink="http://www.w3.org/1999/xlink" xml:space="preserve" overflow="hidden"><defs><clipPath id="clip0"><rect x="66" y="559" width="52" height="53"/></clipPath></defs><g clip-path="url(#clip0)" transform="translate(-66 -559)"><path d="M26 0C11.6409 0 0 11.6409 0 26 0 40.3598 11.6409 52 26 52 40.3598 52 52 40.3598 52 26 52 11.6409 40.3598 0 26 0ZM42.6244 20.2949 38.5164 24.4029 38.5164 34.9732C38.5164 35.3314 38.2258 35.6232 37.8664 35.6232L14.0374 35.6232C13.6786 35.6232 13.3874 35.3314 13.3874 34.9732L13.3874 16.1967C13.3874 15.8379 13.6786 15.5467 14.0374 15.5467L37.8677 15.5467C38.2258 15.5467 38.5177 15.8379 38.5177 16.1967L38.5177 18.0745 39.4615 17.1301C39.5837 17.0079 39.7488 16.9396 39.921 16.9396 40.0933 16.9396 40.2597 17.0079 40.3806 17.1301L42.625 19.3752C42.8786 19.6293 42.8786 20.0408 42.6244 20.2949Z" fill="#4273B8" transform="matrix(1 0 0 1.01923 66 559)"/><path d="M33.592 25.5443 33.4906 23.4019C33.4815 23.2193 33.551 23.0412 33.6797 22.9118L35.8332 20.7584 35.8332 20.1753 16.0699 20.1753 16.0699 32.8907 35.8332 32.8907 35.8332 26.2405 34.2101 26.1625C33.876 26.1476 33.6076 25.8791 33.592 25.5443ZM32.6365 31.4867 17.0774 31.4867C16.7186 31.4867 16.4275 31.1954 16.4275 30.8367 16.4275 30.4772 16.7186 30.1866 17.0774 30.1866L32.6365 30.1866C32.9953 30.1866 33.2865 30.4772 33.2865 30.8367 33.2865 31.1954 32.9953 31.4867 32.6365 31.4867ZM32.6365 29.1791 17.0774 29.1791C16.7186 29.1791 16.4275 28.8873 16.4275 28.5291 16.4275 28.1697 16.7186 27.8791 17.0774 27.8791L32.6365 27.8791C32.9953 27.8791 33.2865 28.1697 33.2865 28.5291 33.2865 28.8867 32.9953 29.1791 32.6365 29.1791ZM32.6365 26.8703 17.0774 26.8703C16.7186 26.8703 16.4275 26.5791 16.4275 26.2204 16.4275 25.8615 16.7186 25.5703 17.0774 25.5703L32.6365 25.5703C32.9953 25.5703 33.2865 25.8615 33.2865 26.2204 33.2865 26.5791 32.9953 26.8703 32.6365 26.8703ZM32.6365 24.5622 17.0774 24.5622C16.7186 24.5622 16.4275 24.271 16.4275 23.9122 16.4275 23.5534 16.7186 23.2622 17.0774 23.2622L32.6365 23.2622C32.9953 23.2622 33.2865 23.5534 33.2865 23.9122 33.2865 24.271 32.9953 24.5622 32.6365 24.5622ZM32.6365 22.2534 17.0774 22.2534C16.7186 22.2534 16.4275 21.9622 16.4275 21.6034 16.4275 21.2446 16.7186 20.9534 17.0774 20.9534L32.6365 20.9534C32.9953 20.9534 33.2865 21.2446 33.2865 21.6034 33.2865 21.9622 32.9953 22.2534 32.6365 22.2534Z" fill="#4273B8" transform="matrix(1 0 0 1.01923 66 559)"/><path d="M34.8023 23.6268 34.8627 24.8924 36.1263 24.9528 41.2458 19.8354 39.9204 18.5094Z" fill="#4273B8" transform="matrix(1 0 0 1.01923 66 559)"/></g></svg>