<?xml version="1.0" encoding="utf-8"?>
<!-- Generator: Adobe Illustrator 26.5.0, SVG Export Plug-In . SVG Version: 6.00 Build 0)  -->
<svg version="1.1" id="Layer_1" xmlns="http://www.w3.org/2000/svg" xmlns:xlink="http://www.w3.org/1999/xlink" x="0px" y="0px"
	 viewBox="0 0 247.857 144.201" style="enable-background:new 0 0 247.857 144.201;" xml:space="preserve">
<style type="text/css">
	.st0{fill:#999B9D;}
</style>
<g>
	<g>
		<path class="st0" d="M222.882,46.08c-14.427-13.034-28.417-22.378-30.603-23.608c0.027,0.027,0.027,0.082,0.027,0.164
			c-0.219-0.109-0.328-0.219-0.328-0.328c-15.028-10.82-33.937-18.171-52.626-20.876c-5.082-0.738-10.274-1.284-15.247-1.284
			c-4.645,0.109-9.4,0.437-14.154,1.066C91.043,3.809,71.916,11.269,56.669,22.089c-1.312,0.902-2.568,1.803-3.825,2.76
			c0.382-0.301,0.765-0.601,1.12-0.929c-8.525,5.847-17.925,12.979-27.543,21.723C16.257,54.933,7.814,64.004,1.01,72.338
			c6.694,7.459,16.313,17.515,28.854,28.526c9.072,7.897,18.498,15.465,22.051,18.061c0.219,0.109,0.437,0.328,0.765,0.437
			c0.437,0.41,0.847,0.738,1.284,1.066c0.547,0.437,1.093,0.874,1.721,1.312c0,0,0.109,0,0.219,0v0.082
			c15.247,11.039,34.592,18.608,53.719,21.313c4.864,0.629,9.837,1.066,14.591,1.066c5.082,0,10.274-0.437,15.465-1.284
			c18.799-2.705,37.817-10.274,52.845-21.176c0.328-0.109,0.546-0.328,0.738-0.437c3.252-1.94,16.121-10.711,29.838-23.034
			c7.459-6.694,15.985-15.329,24.756-25.931C238.785,61.108,229.905,52.446,222.882,46.08z M124.105,116.002
			c-24.1,0-43.664-19.564-43.664-43.773c0-24.1,19.564-43.664,43.664-43.664c24.209,0,43.773,19.564,43.773,43.664
			C167.879,96.438,148.315,116.002,124.105,116.002z"/>
	</g>
	<g>
		<path class="st0" d="M55.904,121.74v0.082c0,0-0.109,0-0.219-0.082C55.686,121.74,55.795,121.74,55.904,121.74z"/>
	</g>
	<g>
		<path class="st0" d="M56.669,22.089c-1.312,0.902-2.568,1.803-3.825,2.76c0.382-0.301,0.765-0.601,1.12-0.929
			C54.839,23.264,55.686,22.636,56.669,22.089z"/>
	</g>
	<g>
		<path class="st0" d="M192.306,22.636c-0.219-0.109-0.328-0.219-0.328-0.328c0.109,0,0.219,0,0.219,0.109
			c0.082,0,0.082,0,0.082,0.055C192.306,22.499,192.306,22.554,192.306,22.636z"/>
	</g>
</g>
</svg>
