<svg width="20" height="20" xmlns="http://www.w3.org/2000/svg" xmlns:xlink="http://www.w3.org/1999/xlink" xml:space="preserve" overflow="hidden"><defs><clipPath id="clip0"><rect x="313" y="537" width="20" height="20"/></clipPath></defs><g clip-path="url(#clip0)" transform="translate(-313 -537)"><path d="M323.333 557.009C323.219 557.009 323.104 557.008 322.989 557.005 319.8 557.063 317.281 556.218 315.536 554.474 313.794 552.731 312.942 550.219 313.003 547.005 312.941 543.793 313.793 541.281 315.535 539.538 317.28 537.794 319.799 536.922 323.018 537.005 326.205 536.93 328.725 537.792 330.47 539.537 332.216 541.282 333.068 543.8 333.004 547.02 333.069 550.211 332.216 552.73 330.47 554.475 328.788 556.157 326.388 557.009 323.333 557.009ZM322.989 555.55C325.856 555.609 327.987 554.899 329.441 553.445 330.896 551.991 331.605 549.829 331.548 547.02 331.604 544.182 330.895 542.02 329.44 540.566 327.987 539.113 325.846 538.409 323.018 538.461 320.196 538.412 318.019 539.113 316.565 540.568 315.111 542.021 314.403 544.182 314.459 546.99L314.459 547.02C314.403 549.829 315.111 551.99 316.565 553.444 318.02 554.898 320.185 555.607 322.989 555.55Z" fill="#C9CBCD"/><path d="M328.025 544.556 322.434 550.146 321.724 550.868C321.351 551.229 320.769 551.229 320.385 550.891L320.291 550.786 317.974 548.48C317.601 548.096 317.601 547.491 317.974 547.106L317.997 547.083C318.381 546.71 318.987 546.71 319.371 547.083L321.025 548.748 326.615 543.146C327 542.774 327.617 542.774 327.99 543.146L328.025 543.182C328.409 543.566 328.409 544.171 328.025 544.556Z" fill="#C9CBCD"/></g></svg>