<?xml version="1.0" encoding="utf-8"?>
<!-- Generator: Adobe Illustrator 26.5.0, SVG Export Plug-In . SVG Version: 6.00 Build 0)  -->
<svg version="1.1" id="Layer_1" xmlns="http://www.w3.org/2000/svg" xmlns:xlink="http://www.w3.org/1999/xlink" x="0px" y="0px"
	 viewBox="0 0 248.523 259.139" style="enable-background:new 0 0 248.523 259.139;" xml:space="preserve">
<style type="text/css">
	.st0{fill:#E8E8E8;}
	.st1{fill:#F89820;}
	.st2{fill:#33A852;}
	.st3{fill:#4273B8;}
</style>
<g>
	<path class="st0" d="M178.037,24.143H56.319c-31.09,0-56.282,25.212-56.282,56.302v60.187c1.716-0.057,3.393-0.252,5.129-0.252
		c48.924,0,91.535,26.826,114.103,66.52c22.588-39.694,65.179-66.52,114.103-66.52l0.967,0.038V80.444
		C234.339,49.354,209.127,24.143,178.037,24.143"/>
	<path class="st1" d="M119.275,206.938c-8.863,15.599-14.679,33.147-16.525,51.887H56.314C25.202,258.824,0,233.619,0,202.598
		v-61.947c1.754-0.088,3.416-0.271,5.17-0.271C54.098,140.38,96.657,167.244,119.275,206.938z"/>
	<path class="st2" d="M234.303,140.474v62.124c0,31.021-25.203,56.226-56.221,56.226H102.75c1.847-18.74,7.662-36.288,16.525-51.887
		c22.618-39.694,65.177-66.558,114.105-66.558L234.303,140.474z"/>
	<path class="st3" d="M150.155,87.988c0,14.4-11.676,26.076-26.079,26.076c-14.403,0-26.08-11.675-26.08-26.076
		c0-14.407,11.676-26.082,26.08-26.082C138.479,61.906,150.155,73.582,150.155,87.988z"/>
	<path class="st3" d="M247.673,84.62l-13.293,76.619V81.201c0-31.116-25.204-56.315-56.315-56.315H56.389
		c-6.462,0-12.648,1.198-18.371,3.141C49.558,8.455,72.361-2.993,96.087,1.164l105.797,18.368
		C232.533,24.887,253.028,53.971,247.673,84.62z"/>
</g>
</svg>
