<?xml version="1.0" encoding="utf-8"?>
<!-- Generator: Adobe Illustrator 26.5.0, SVG Export Plug-In . SVG Version: 6.00 Build 0)  -->
<svg version="1.1" id="Layer_1" xmlns="http://www.w3.org/2000/svg" xmlns:xlink="http://www.w3.org/1999/xlink" x="0px" y="0px"
	 viewBox="0 0 216.11 216.11" style="enable-background:new 0 0 216.11 216.11;" xml:space="preserve">
<style type="text/css">
	.st0{fill:#4273B8;}
	.st1{fill:#E52E25;}
	.st2{fill:#F89820;}
	.st3{fill:#33A852;}
</style>
<g>
	<path class="st0" d="M183.695,32.429c-41.732-41.702-109.563-41.702-151.266,0c-41.702,41.702-41.702,109.563,0,151.266
		c20.851,20.851,48.235,31.262,75.618,31.262c27.383,0,54.796-10.411,75.647-31.262c20.151-20.18,31.262-47.039,31.262-75.618
		C214.957,79.469,203.846,52.61,183.695,32.429z M108.048,17.527c23.184,0,46.397,8.836,64.041,26.479
		c35.316,35.316,35.316,92.795,0,128.111c-17.06,17.06-39.807,26.48-64.041,26.48c-24.205,0-46.952-9.419-64.041-26.48
		c-35.316-35.316-35.316-92.795,0-128.111C61.65,26.364,84.864,17.527,108.048,17.527z"/>
</g>
<g>
	<path class="st0" d="M161.996,151.123c0,3.943-3.364,7.083-7.386,6.713c0,0-0.001,0-0.001,0l-3.566-1.453l-38.764-15.839
		c-2.63-1.075-5.577-1.074-8.207,0.001l-39.289,16.063l-2.892,1.169c-1.184,0.206-2.369,0.059-3.547-0.445
		c-2.168-0.926-3.833-2.899-4.161-5.233c-0.297-2.113,0.389-4.083,1.685-5.484l2.083-1.573l23.015-17.291l17.875-13.425l2.352-1.768
		c2.008-1.199,4.36-1.888,6.863-1.888c2.727,0,5.274,0.809,7.402,2.218l1.169,0.869l0.135,0.12l18.535,13.92l23.135,17.381
		l0.03,0.015l1.558,1.169l0.03,0.03C161.262,147.602,161.996,149.28,161.996,151.123z"/>
	<path class="st0" d="M161.996,98.7c0,3.943-3.364,7.083-7.386,6.713c0,0-0.001,0-0.001,0l-3.566-1.453L112.279,88.12
		c-2.63-1.075-5.577-1.074-8.207,0.001l-39.289,16.063l-2.892,1.169c-1.184,0.206-2.369,0.059-3.547-0.445
		c-2.168-0.926-3.833-2.899-4.161-5.233c-0.297-2.113,0.389-4.083,1.685-5.484l2.083-1.573l23.015-17.291L98.84,61.9l2.352-1.768
		c2.008-1.199,4.36-1.888,6.863-1.888c2.727,0,5.274,0.809,7.402,2.218l1.169,0.869l0.135,0.12l18.535,13.92l23.135,17.381
		l0.03,0.015l1.558,1.169l0.03,0.03C161.262,95.179,161.996,96.857,161.996,98.7z"/>
</g>
<g>
	<g>
		<path class="st1" d="M54.42,36.49l-0.98,0.76c-3.11,2.4-6.02,4.95-8.64,7.57c-16.92,16.92-26.23,39.37-26.24,63.22v1.09H0v-1.09
			c0.01-32.82,14.74-63.5,40.43-84.17l0.76-0.62L54.42,36.49z"/>
	</g>
	<g>
		<path class="st2" d="M185,32.29l-13.13,13.13l-0.78-0.77c-16.9-16.81-39.29-26.07-63.06-26.07c-19.88,0-38.74,6.44-54.53,18.62
			l-0.76,0.59l-13.2-13.2l0.95-0.77C59.59,8.47,83.59,0.01,108.06,0c28.71,0.02,55.76,11.21,76.16,31.51L185,32.29z"/>
	</g>
	<g>
		<g>
			<path class="st3" d="M216.11,108.05c0,28.3-10.94,55.09-30.81,75.44l-0.77,0.79l-13.12-13.12l0.75-0.77
				c16.36-16.81,25.37-38.94,25.37-62.31c0-23.94-9.37-46.44-26.38-63.38l-0.78-0.78l13.13-13.13l0.78,0.77
				C204.83,52.12,216.09,79.23,216.11,108.05z"/>
		</g>
	</g>
	<g>
		<path class="st0" d="M186.01,182.76l-1.61,1.66c-20.43,20.44-47.54,31.69-76.34,31.69c-59.56,0-108.03-48.45-108.06-108v-1.1
			h18.56v1.1c0.03,49.32,40.18,89.44,89.5,89.44c23.87-0.02,46.33-9.34,63.23-26.24l1.6-1.66L186.01,182.76z"/>
	</g>
</g>
</svg>
