<svg width="23" height="23" xmlns="http://www.w3.org/2000/svg" xmlns:xlink="http://www.w3.org/1999/xlink" xml:space="preserve" overflow="hidden"><g transform="translate(402 -127)"><path d="M-393.375 138.5C-393.375 139.823-394.448 140.896-395.771 140.896-397.094 140.896-398.167 139.823-398.167 138.5-398.167 137.177-397.094 136.104-395.771 136.104-394.448 136.104-393.375 137.177-393.375 138.5Z" stroke="#4273B8" stroke-width="1.4375" fill="none"/><path d="M-388.583 133.229-393.375 136.583" stroke="#4273B8" stroke-width="1.4375" stroke-linecap="round" fill="none"/><path d="M-388.583 143.771-393.375 140.417" stroke="#4273B8" stroke-width="1.4375" stroke-linecap="round" fill="none"/><path d="M-383.792 144.729C-383.792 146.052-384.864 147.125-386.188 147.125-387.511 147.125-388.583 146.052-388.583 144.729-388.583 143.406-387.511 142.333-386.188 142.333-384.864 142.333-383.792 143.406-383.792 144.729Z" stroke="#4273B8" stroke-width="1.4375" fill="none"/><path d="M-383.792 132.271C-383.792 133.594-384.864 134.667-386.188 134.667-387.511 134.667-388.583 133.594-388.583 132.271-388.583 130.948-387.511 129.875-386.188 129.875-384.864 129.875-383.792 130.948-383.792 132.271Z" stroke="#4273B8" stroke-width="1.4375" fill="none"/></g></svg>