<svg width="28" height="28" viewBox="0 0 28 28" fill="none" xmlns="http://www.w3.org/2000/svg">
<g id="newsfeed_outline_24 1">
<path id="Vector" fill-rule="evenodd" clip-rule="evenodd" d="M9.59907 3.61665C7.76781 3.61665 6.89321 3.76442 6.00403 4.23995C5.24623 4.64521 4.64525 5.24621 4.23997 6.004C3.76444 6.89317 3.61667 7.76777 3.61667 9.59904V18.4009C3.61667 20.2322 3.76444 21.1068 4.23997 21.996C4.64525 22.7537 5.24623 23.3547 6.00403 23.76C6.89321 24.2355 7.76781 24.3833 9.59907 24.3833H18.4009C20.2322 24.3833 21.1068 24.2355 21.996 23.76C22.7537 23.3547 23.3548 22.7537 23.76 21.996C24.2355 21.1068 24.3833 20.2322 24.3833 18.4009V9.59904C24.3833 7.76779 24.2355 6.89317 23.76 6.004C23.3548 5.24621 22.7537 4.64521 21.996 4.23995C21.1068 3.76442 20.2322 3.61665 18.4009 3.61665H9.59907ZM6.99438 6.09175C7.4167 5.8659 7.86462 5.71665 9.59907 5.71665H18.4009C20.1354 5.71665 20.5833 5.8659 21.0056 6.09175C21.3975 6.30131 21.6987 6.60253 21.9083 6.99436C22.1275 7.40431 22.2746 7.83839 22.283 9.45H5.71705C5.72547 7.83839 5.87254 7.40431 6.09179 6.99436C6.30133 6.60253 6.60257 6.30131 6.99438 6.09175ZM5.71667 11.55V18.4009C5.71667 20.1354 5.86593 20.5833 6.09179 21.0056C6.30133 21.3974 6.60257 21.6986 6.99438 21.9081C7.4167 22.134 7.86462 22.2833 9.59907 22.2833H18.4009C20.1354 22.2833 20.5833 22.134 21.0056 21.9081C21.3975 21.6986 21.6987 21.3974 21.9083 21.0056C22.1341 20.5833 22.2833 20.1354 22.2833 18.4009V11.55H5.71667Z" fill="#2788E8"/>
</g>
</svg>
