<svg width="20" height="19" xmlns="http://www.w3.org/2000/svg" xmlns:xlink="http://www.w3.org/1999/xlink" xml:space="preserve" overflow="hidden"><defs><clipPath id="clip0"><rect x="237" y="538" width="20" height="19"/></clipPath></defs><g clip-path="url(#clip0)" transform="translate(-237 -538)"><path d="M9.99911 18.9748C9.83506 18.9748 9.66678 18.9725 9.49903 18.9678 9.3297 18.9725 9.16152 18.9748 8.99772 18.9748 5.99708 18.9748 3.71604 18.1941 2.218 16.6543 0.67864 15.0723-0.0578502 12.6648 0.0289251 9.49877-0.0577623 6.33169 0.678728 3.92432 2.21791 2.3424 3.71604 0.802693 5.99769 0.0219795 8.99957 0.0219795 9.16266 0.0219795 9.33032 0.0242654 9.4978 0.0289251 9.66608 0.0243533 9.8333 0.0220675 9.99603 0.0220675 12.9981 0.0220675 15.2799 0.802869 16.7784 2.34284 18.3178 3.92484 19.0544 6.33204 18.9679 9.49763 19.0545 12.6653 18.3178 15.0731 16.7785 16.6551 15.2809 18.1942 12.9999 18.9748 10.0002 18.9748 9.99973 18.9748 9.99973 18.9748 9.99911 18.9748ZM8.82074 13.4482C8.82074 13.8129 9.11756 14.1096 9.48242 14.1096L9.51433 14.1096C9.8791 14.1096 10.1759 13.8129 10.1759 13.4482L10.1759 10.1758 13.4482 10.1758C13.8131 10.1758 14.1099 9.8791 14.1099 9.51442L14.1099 9.48242C14.1099 9.11764 13.8131 8.82092 13.4482 8.82092L10.1759 8.82092 10.1759 5.54852C10.1759 5.18374 9.8791 4.88702 9.51433 4.88702L9.48242 4.88702C9.11756 4.88702 8.82074 5.18374 8.82074 5.54852L8.82074 8.82092 5.54852 8.82092C5.18366 8.82092 4.88684 9.11764 4.88684 9.48242L4.88684 9.51442C4.88684 9.8791 5.18366 10.1758 5.54852 10.1758L8.82074 10.1758 8.82074 13.4482Z" fill="#4273B8" transform="matrix(1.05263 0 0 1 237 538.004)"/><path d="M8.99948 0.0439591C9.16257 0.0439591 9.33005 0.046245 9.49956 0.0508167 9.66643 0.046245 9.83321 0.0439591 9.99603 0.0439591 12.9919 0.044047 15.2686 0.822738 16.7627 2.35832 18.2977 3.93583 19.0323 6.33767 18.9459 9.49938 19.0324 12.6596 18.2979 15.0618 16.7628 16.6394 15.2692 18.1744 12.9935 18.9528 9.99894 18.9528 9.8355 18.9528 9.66748 18.9504 9.4971 18.9458 9.32926 18.9504 9.16125 18.9528 8.99772 18.9528 6.00323 18.9528 3.72747 18.1744 2.23365 16.639 0.698686 15.0613-0.0356948 12.6592 0.0509046 9.49701-0.0356069 6.33714 0.698862 3.93504 2.23374 2.35753 3.72764 0.822299 6.00393 0.0438712 8.99948 0.0439591M8.79885 8.79885 5.54852 8.79885C5.17152 8.79885 4.86487 9.10542 4.86487 9.48233L4.86487 9.51433C4.86487 9.89115 5.17152 10.1978 5.54852 10.1978L8.79885 10.1978 8.79885 13.4482C8.79885 13.8251 9.10551 14.1317 9.4825 14.1317L9.51442 14.1317C9.89141 14.1317 10.1981 13.8251 10.1981 13.4482L10.1981 10.1978 13.4484 10.1978C13.8254 10.1978 14.1321 9.89124 14.1321 9.51433L14.1321 9.48233C14.1321 9.10542 13.8254 8.79885 13.4484 8.79885L10.1981 8.79885 10.1981 5.54852C10.1981 5.1717 9.89141 4.86504 9.51442 4.86504L9.4825 4.86504C9.10551 4.86504 8.79885 5.17161 8.79885 5.54852L8.79885 8.79885M8.99948 0C2.87387-0.000175836-0.165286 3.20787 0.00694554 9.49824-0.165462 15.7878 2.87378 18.9967 8.99781 18.9967 9.16248 18.9967 9.32926 18.9945 9.49842 18.9898 9.66713 18.9945 9.8347 18.9967 9.99902 18.9967 16.1237 18.9967 19.1619 15.7882 18.99 9.49824 19.1618 3.20831 16.1219 0.000263755 9.99612 0 9.83224 0 9.66678 0.00228587 9.49842 0.00685762 9.33005 0.00228587 9.16345 0 8.99948 0L8.99948 0ZM5.54852 10.1538C5.19676 10.1538 4.90882 9.86574 4.90882 9.51433L4.90882 9.48233C4.90882 9.13013 5.19676 8.84281 5.54852 8.84281L8.84281 8.84281 8.84281 5.54852C8.84281 5.1964 9.13066 4.909 9.4825 4.909L9.51442 4.909C9.86627 4.909 10.1541 5.19632 10.1541 5.54852L10.1541 8.8429 13.4484 8.8429C13.8002 8.8429 14.0881 9.13022 14.0881 9.48242L14.0881 9.51442C14.0881 9.86583 13.8002 10.1539 13.4484 10.1539L10.1541 10.1539 10.1541 13.4483C10.1541 13.8005 9.86627 14.0878 9.51442 14.0878L9.4825 14.0878C9.13066 14.0878 8.84281 13.8005 8.84281 13.4483L8.84281 10.1539 5.54852 10.1539 5.54852 10.1538Z" fill="#4273B8" transform="matrix(1.05263 0 0 1 237 538.004)"/></g></svg>