<svg width="32" height="32" viewBox="0 0 32 32" fill="none" xmlns="http://www.w3.org/2000/svg">
<g id="search_20 3">
<path id="Vector" fill-rule="evenodd" clip-rule="evenodd" d="M15.2 7.19999C10.7817 7.19999 7.19999 10.7817 7.19999 15.2C7.19999 19.6182 10.7817 23.2 15.2 23.2C19.6182 23.2 23.2 19.6182 23.2 15.2C23.2 10.7817 19.6182 7.19999 15.2 7.19999ZM4.79999 15.2C4.79999 9.45623 9.45623 4.79999 15.2 4.79999C20.9438 4.79999 25.6 9.45623 25.6 15.2C25.6 17.6395 24.76 19.8829 23.3536 21.6565L28.4485 26.7515C28.9171 27.2201 28.9171 27.9798 28.4485 28.4485C27.9798 28.9171 27.2201 28.9171 26.7515 28.4485L21.6565 23.3536C19.8829 24.76 17.6395 25.6 15.2 25.6C9.45623 25.6 4.79999 20.9438 4.79999 15.2Z" fill="#2788E8"/>
</g>
</svg>
