<svg width="29" height="29" xmlns="http://www.w3.org/2000/svg" xmlns:xlink="http://www.w3.org/1999/xlink" xml:space="preserve" overflow="hidden"><g transform="translate(-357 -23)"><path d="M375.125 35.6875C375.125 38.6906 372.691 41.125 369.688 41.125 366.684 41.125 364.25 38.6906 364.25 35.6875 364.25 32.6845 366.684 30.25 369.688 30.25 372.691 30.25 375.125 32.6845 375.125 35.6875ZM374.133 41.4149C372.906 42.3692 371.363 42.9375 369.688 42.9375 365.683 42.9375 362.438 39.6916 362.438 35.6875 362.438 31.6834 365.683 28.4375 369.688 28.4375 373.692 28.4375 376.938 31.6834 376.938 35.6875 376.938 37.3629 376.369 38.9055 375.415 40.1332L381.203 45.9217 379.922 47.2033 374.133 41.4149Z" stroke="#4273B8" stroke-width="1.20833" fill="#4273B8" fill-rule="evenodd"/></g></svg>