<svg width="25" height="24" xmlns="http://www.w3.org/2000/svg" xmlns:xlink="http://www.w3.org/1999/xlink" xml:space="preserve" overflow="hidden"><g transform="translate(-507 -23)"><path d="M151.286 380.143C151.286 379.591 151.733 379.143 152.286 379.143 155.6 379.143 158.286 381.829 158.286 385.143L158.286 393.143C158.286 396.457 155.6 399.143 152.286 399.143L144.285 399.143C140.972 399.143 138.285 396.457 138.285 393.143 138.285 392.59 138.734 392.143 139.286 392.143 139.838 392.143 140.286 392.59 140.286 393.143 140.286 395.352 142.077 397.143 144.285 397.143L152.286 397.143C154.495 397.143 156.285 395.352 156.285 393.143L156.285 385.143C156.285 382.934 154.495 381.143 152.286 381.143 151.733 381.143 151.286 380.695 151.286 380.143Z" stroke="#4273B8" fill="#4273B8" transform="matrix(1.04167 0 0 1 365.036 -354.143)"/><path d="M139.992 389.927 139.447 389.417 139.992 389.927C140.384 389.509 140.908 388.97 141.456 388.47 142.014 387.962 142.555 387.533 142.982 387.303 143.349 387.105 144.036 386.983 144.687 386.991 144.91 386.994 145.1 387.012 145.242 387.038 145.246 387.693 145.24 388.89 145.237 389.405 145.233 390.153 146.125 390.541 146.668 390.031L151.225 385.759C151.57 385.436 151.585 384.892 151.257 384.55L146.699 379.803C146.169 379.251 145.236 379.626 145.236 380.391L145.236 382.311C144.829 382.281 144.312 382.257 143.765 382.273 142.817 382.3 141.595 382.445 140.758 383.027 140.654 383.099 140.554 383.178 140.459 383.26 138.778 384.723 138.401 387.051 138.178 388.911L138.158 389.078C138.033 390.115 139.311 390.657 139.992 389.927ZM145.643 388.936 145.988 389.304 145.643 388.936C145.643 388.936 145.643 388.936 145.643 388.936L145.643 388.936Z" stroke="#4273B8" stroke-width="1.5" stroke-linecap="round" fill="#4273B8" transform="matrix(1.04167 0 0 1 365.036 -354.143)"/></g></svg>