<svg width="31" height="31" viewBox="0 0 31 31" fill="none" xmlns="http://www.w3.org/2000/svg">
<g id="story_add_outline_28 1">
<g id="Group">
<path id="Vector" d="M14.5036 4.42859C15.115 4.42859 15.6107 4.92428 15.6107 5.53573C15.6107 6.10352 15.1833 6.57147 14.6327 6.63542L14.5036 6.64287H12.47C10.4464 6.64287 9.6602 6.80268 8.84604 7.26101C8.15647 7.64921 7.6184 8.21559 7.24524 8.95008C6.8228 9.78156 6.66012 10.5909 6.64416 12.5054L6.64284 18.1651C6.64284 20.3193 6.79933 21.1722 7.24524 22.05C7.6184 22.7845 8.15647 23.3509 8.84604 23.739C9.52897 24.1234 10.1922 24.2979 11.5826 24.3441L11.8706 24.3517L12.47 24.3572H18.53L19.1294 24.3517C20.7194 24.3202 21.4255 24.1491 22.1539 23.739C22.8436 23.3509 23.3815 22.7845 23.7547 22.05C24.1287 21.3137 24.2991 20.595 24.3444 19.1109L24.3518 18.8036L24.3571 18.1651V15.5C24.3571 14.8885 24.8528 14.3929 25.4643 14.3929C26.032 14.3929 26.5 14.8202 26.564 15.3709L26.5714 15.5V18.1651C26.5714 20.6389 26.3544 21.8216 25.7289 23.0529C25.1591 24.1743 24.3136 25.0643 23.2401 25.6686C22.1134 26.303 21.024 26.5456 18.8947 26.5695L18.53 26.5714H12.47C10.0969 26.5714 8.94922 26.3382 7.7598 25.6686C6.68637 25.0643 5.84082 24.1743 5.27113 23.0529C4.6768 21.8831 4.45128 20.7573 4.43021 18.5266L4.42856 12.8349C4.42856 10.3611 4.64551 9.17846 5.27113 7.9471C5.84082 6.82581 6.68637 5.93576 7.7598 5.33147C8.88661 4.69713 9.97597 4.45435 12.1053 4.43056L14.5036 4.42859Z" fill="#2788E8"/>
<path id="Vector_2" fill-rule="evenodd" clip-rule="evenodd" d="M15.5 10.7393C18.2516 10.7393 20.4821 12.9698 20.4821 15.7214C20.4821 18.473 18.2516 20.7036 15.5 20.7036C12.7484 20.7036 10.5179 18.473 10.5179 15.7214C10.5179 12.9698 12.7484 10.7393 15.5 10.7393ZM15.5 12.9536C13.9714 12.9536 12.7321 14.1928 12.7321 15.7214C12.7321 17.2501 13.9714 18.4893 15.5 18.4893C17.0286 18.4893 18.2679 17.2501 18.2679 15.7214C18.2679 14.1928 17.0286 12.9536 15.5 12.9536Z" fill="#2788E8"/>
<path id="Vector_3" d="M23.25 1.10715C23.8177 1.10715 24.2857 1.53455 24.3497 2.08518L24.3571 2.21429V5.53572H27.6785C28.2463 5.53572 28.7143 5.96312 28.7783 6.51375L28.7857 6.64286C28.7857 7.21065 28.3583 7.6786 27.8076 7.74255L27.6785 7.75H24.3571V11.0714C24.3571 11.6829 23.8615 12.1786 23.25 12.1786C22.6822 12.1786 22.2142 11.7512 22.1503 11.2005L22.1428 11.0714V7.75H18.8214C18.2537 7.75 17.7857 7.3226 17.7217 6.77198L17.7143 6.64286C17.7143 6.07507 18.1416 5.60712 18.6923 5.54317L18.8214 5.53572H22.1428V2.21429C22.1428 1.60284 22.6385 1.10715 23.25 1.10715Z" fill="#2788E8"/>
</g>
</g>
</svg>
