<svg width="28" height="28" viewBox="0 0 28 28" fill="none" xmlns="http://www.w3.org/2000/svg">
<g id="video_add_square_outline_28 1">
<path id="Vector" fill-rule="evenodd" clip-rule="evenodd" d="M23 3C23 2.73478 22.8946 2.48043 22.7071 2.29289C22.5196 2.10536 22.2652 2 22 2C21.7348 2 21.4804 2.10536 21.2929 2.29289C21.1054 2.48043 21 2.73478 21 3V5H19C18.7348 5 18.4804 5.10536 18.2929 5.29289C18.1054 5.48043 18 5.73478 18 6C18 6.26522 18.1054 6.51957 18.2929 6.70711C18.4804 6.89464 18.7348 7 19 7H21V9C21 9.26522 21.1054 9.51957 21.2929 9.70711C21.4804 9.89464 21.7348 10 22 10C22.2652 10 22.5196 9.89464 22.7071 9.70711C22.8946 9.51957 23 9.26522 23 9V7H25C25.2652 7 25.5196 6.89464 25.7071 6.70711C25.8946 6.51957 26 6.26522 26 6C26 5.73478 25.8946 5.48043 25.7071 5.29289C25.5196 5.10536 25.2652 5 25 5H23V3ZM6.07 3.801C7.164 3.216 8.243 3 10.691 3H15.5C15.7652 3 16.0196 3.10536 16.2071 3.29289C16.3946 3.48043 16.5 3.73478 16.5 4C16.5 4.26522 16.3946 4.51957 16.2071 4.70711C16.0196 4.89464 15.7652 5 15.5 5H10.692C8.357 5 7.673 5.212 7.012 5.565C6.39488 5.89097 5.89055 6.39566 5.565 7.013C5.212 7.673 5 8.357 5 10.692V17.308C5 19.643 5.212 20.327 5.565 20.988C5.89097 21.6051 6.39566 22.1095 7.013 22.435C7.673 22.788 8.357 23 10.692 23H17.308C19.643 23 20.327 22.788 20.988 22.435C21.6051 22.109 22.1094 21.6043 22.435 20.987C22.788 20.327 23 19.643 23 17.308V12.5C23 12.2348 23.1054 11.9804 23.2929 11.7929C23.4804 11.6054 23.7348 11.5 24 11.5C24.2652 11.5 24.5196 11.6054 24.7071 11.7929C24.8946 11.9804 25 12.2348 25 12.5V17.308C25 19.756 24.784 20.835 24.199 21.93C23.6869 22.8967 22.8965 23.6875 21.93 24.2C20.835 24.785 19.756 25.001 17.308 25.001H10.692C8.244 25.001 7.165 24.785 6.069 24.2C5.10303 23.6876 4.31298 22.8972 3.801 21.931C3.216 20.835 3 19.756 3 17.308V10.692C3 8.244 3.216 7.165 3.801 6.069C4.31346 5.10307 5.10384 4.31303 6.07 3.801ZM12.246 11.024C12.1984 11.0046 12.1471 10.9958 12.0957 10.9982C12.0444 11.0006 11.9941 11.0142 11.9486 11.038C11.903 11.0618 11.8631 11.0952 11.8318 11.136C11.8004 11.1767 11.7783 11.2238 11.767 11.274C11.5888 12.1629 11.4994 13.0674 11.5 13.974C11.5 14.918 11.596 15.838 11.778 16.726C11.817 16.916 12.022 17.059 12.258 16.976C13.9613 16.3738 15.5319 15.4474 16.883 14.248C16.9196 14.2183 16.9491 14.1808 16.9693 14.1382C16.9896 14.0957 17.0001 14.0491 17.0001 14.002C17.0001 13.9549 16.9896 13.9083 16.9693 13.8658C16.9491 13.8232 16.9196 13.7857 16.883 13.756C15.5287 12.5538 13.9539 11.626 12.246 11.024ZM12.911 9.138C11.549 8.658 10.088 9.478 9.806 10.881C9.39359 12.9434 9.39801 15.0674 9.819 17.128C10.106 18.528 11.565 19.342 12.924 18.861C14.8711 18.1728 16.6665 17.1139 18.211 15.743C18.4589 15.5256 18.6576 15.2578 18.7937 14.9575C18.9298 14.6572 19.0002 14.3312 19.0002 14.0015C19.0002 13.6718 18.9298 13.3458 18.7937 13.0455C18.6576 12.7452 18.4589 12.4774 18.211 12.26C16.663 10.8862 14.863 9.82592 12.911 9.138Z" fill="#2788E8"/>
</g>
</svg>
