<svg width="27" height="27" viewBox="0 0 27 27" fill="none" xmlns="http://www.w3.org/2000/svg">
<g id="videocam_add_outline_24 1">
<path id="Vector" d="M11.1375 10.575C11.1375 10.3065 11.0308 10.0489 10.8409 9.85905C10.6511 9.66917 10.3935 9.5625 10.125 9.5625C9.85647 9.5625 9.59893 9.66917 9.40905 9.85905C9.21917 10.0489 9.1125 10.3065 9.1125 10.575V12.4875H7.2C6.93147 12.4875 6.67393 12.5942 6.48405 12.7841C6.29417 12.9739 6.1875 13.2315 6.1875 13.5C6.1875 13.7685 6.29417 14.0261 6.48405 14.2159C6.67393 14.4058 6.93147 14.5125 7.2 14.5125H9.1125V16.425C9.1125 16.6935 9.21917 16.9511 9.40905 17.1409C9.59893 17.3308 9.85647 17.4375 10.125 17.4375C10.3935 17.4375 10.6511 17.3308 10.8409 17.1409C11.0308 16.9511 11.1375 16.6935 11.1375 16.425V14.5125H13.05C13.3185 14.5125 13.5761 14.4058 13.7659 14.2159C13.9558 14.0261 14.0625 13.7685 14.0625 13.5C14.0625 13.2315 13.9558 12.9739 13.7659 12.7841C13.5761 12.5942 13.3185 12.4875 13.05 12.4875H11.1375V10.575Z" fill="#2788E8"/>
<path id="Vector_2" fill-rule="evenodd" clip-rule="evenodd" d="M1.125 12.2625C1.125 9.74227 1.125 8.48216 1.6155 7.5195C2.04692 6.67281 2.73531 5.98442 3.582 5.553C4.54466 5.0625 5.80478 5.0625 8.325 5.0625H11.925C14.4452 5.0625 15.7053 5.0625 16.668 5.553C17.5147 5.98444 18.2031 6.67282 18.6345 7.5195C18.8091 7.86217 18.9216 8.24265 18.9941 8.70412L19.6435 8.23849C20.7097 7.47416 21.2429 7.09189 21.6513 6.94384C23.3728 6.31946 25.2619 7.28966 25.7575 9.05243C25.8751 9.4707 25.8751 10.1267 25.8751 11.4387V15.9613C25.8751 17.1306 25.8751 17.7153 25.7698 18.0971C25.3266 19.7035 23.6329 20.6155 22.0477 20.1015C21.671 19.9792 21.1828 19.6575 20.2065 19.0138L19.0052 18.2219C18.9333 18.7171 18.8183 19.1196 18.6345 19.4805C18.2031 20.3272 17.5147 21.0156 16.668 21.447C15.7053 21.9375 14.4452 21.9375 11.925 21.9375H8.325C5.80478 21.9375 4.54466 21.9375 3.582 21.447C2.73532 21.0156 2.04694 20.3272 1.6155 19.4805C1.125 18.5178 1.125 17.2577 1.125 14.7375V12.2625ZM8.325 7.0875H11.925C13.2185 7.0875 14.0669 7.08907 14.7157 7.14206C15.3408 7.19314 15.6004 7.28168 15.7487 7.35728C16.2143 7.59456 16.5929 7.97317 16.8302 8.43885C16.9058 8.58713 16.9944 8.84666 17.0454 9.47183C17.0984 10.1206 17.1 10.969 17.1 12.2625V14.7375C17.1 16.031 17.0984 16.8794 17.0454 17.5282C16.9944 18.1533 16.9058 18.4129 16.8302 18.5612C16.5929 19.0268 16.2143 19.4054 15.7487 19.6427C15.6004 19.7183 15.3408 19.8069 14.7157 19.8579C14.0669 19.9109 13.2185 19.9125 11.925 19.9125H8.325C7.03148 19.9125 6.183 19.9109 5.53433 19.8579C4.90916 19.8069 4.64963 19.7183 4.50135 19.6427C4.03567 19.4054 3.65706 19.0268 3.41978 18.5612C3.34417 18.4129 3.25564 18.1533 3.20456 17.5282C3.15158 16.8794 3.15 16.031 3.15 14.7375V12.2625C3.15 10.969 3.15158 10.1205 3.20456 9.47183C3.25564 8.84666 3.34417 8.58713 3.41978 8.43885C3.65706 7.97317 4.03567 7.59456 4.50135 7.35728C4.64963 7.28168 4.90916 7.19314 5.53433 7.14206C6.183 7.08907 7.03148 7.0875 8.325 7.0875ZM19.7471 10.6558L20.8233 9.88425C21.3699 9.49241 21.7323 9.2331 22.0095 9.05017C22.0353 9.03319 22.3416 8.84745 22.3416 8.84745C22.9544 8.62526 23.6267 8.96873 23.8063 9.59445C23.8063 9.59445 23.8254 9.6885 23.837 9.98865C23.8498 10.3205 23.8501 10.766 23.8501 11.4387V15.9613C23.8501 16.5625 23.8498 16.9545 23.8385 17.2461C23.8342 17.3541 23.8295 17.4629 23.8144 17.5701C23.6743 18.0533 23.1645 18.3278 22.6841 18.1789C22.5862 18.1324 22.4927 18.0766 22.4002 18.0206C22.1506 17.8696 21.823 17.6541 21.321 17.3232L19.7952 16.3173C19.6638 16.2285 19.5326 16.1396 19.4014 16.0505C19.2517 15.9228 19.1552 15.7437 19.131 15.5484C19.131 15.5484 19.125 15.1 19.125 15.0728V11.8673C19.125 11.8424 19.1305 11.413 19.1305 11.413C19.1529 11.2256 19.2418 11.0524 19.3812 10.925C19.3812 10.925 19.7269 10.6703 19.7471 10.6558Z" fill="#2788E8"/>
</g>
</svg>
