<?xml version="1.0" encoding="utf-8"?>
<!-- Generator: Adobe Illustrator 26.5.0, SVG Export Plug-In . SVG Version: 6.00 Build 0)  -->
<svg version="1.1" id="Layer_1" xmlns="http://www.w3.org/2000/svg" xmlns:xlink="http://www.w3.org/1999/xlink" x="0px" y="0px"
	 viewBox="0 0 500 395.75" style="enable-background:new 0 0 500 395.75;" xml:space="preserve">
<style type="text/css">
	.st0{fill:#999B9D;}
</style>
<g>
	<path class="st0" d="M249.918,121.956c-54.988,0-99.564,44.577-99.564,99.57c0,54.98,44.576,99.571,99.564,99.571
		s99.566-44.591,99.566-99.571C349.484,166.533,304.907,121.956,249.918,121.956z M316.796,239.313H267.71v49.112
		c0,9.645-7.867,17.512-17.512,17.512h-0.549c-9.645,0-17.512-7.867-17.512-17.512v-49.112h-49.112
		c-9.645,0-17.512-7.867-17.512-17.512c0-10.193,7.867-18.061,17.512-18.061h49.112v-49.112c0-9.644,7.867-17.512,17.512-17.512
		c10.194,0,18.061,7.867,18.061,17.512v49.112h49.086c9.671,0,17.538,7.867,17.538,17.512
		C334.334,231.445,326.467,239.313,316.796,239.313z"/>
	<path class="st0" d="M438.03,66.51h-83.55C343.15,27.17,307.3,0,266.17,0h-32.5c-41.13,0-76.98,27.17-88.3,66.51H61.82
		C27.73,66.51,0,94.24,0,128.32v205.62c0,34.09,27.73,61.81,61.82,61.81h376.21c34.09,0,61.81-27.72,61.81-61.81V128.32
		C499.84,94.24,472.12,66.51,438.03,66.51z M472.15,333.94c0,18.81-15.31,34.12-34.12,34.12H61.82c-18.82,0-34.14-15.31-34.14-34.12
		V128.32c0-18.82,15.32-34.13,34.14-34.13H169.3l0.14-4.19c0.19-6.18,1.22-12.18,3.06-17.84c8.66-26.6,33.25-44.48,61.17-44.48h32.5
		c27.92,0,52.51,17.88,61.17,44.48c1.84,5.68,2.87,11.69,3.05,17.84l0.14,4.19h107.5c18.81,0,34.12,15.31,34.12,34.13V333.94z"/>
	<path class="st0" d="M441.51,145.95c0,12.77-10.39,23.16-23.17,23.16c-12.78,0-23.16-10.39-23.16-23.16
		c0-12.78,10.38-23.17,23.16-23.17C431.12,122.78,441.51,133.17,441.51,145.95z"/>
</g>
</svg>
