<svg width="36" height="35" xmlns="http://www.w3.org/2000/svg" xmlns:xlink="http://www.w3.org/1999/xlink" xml:space="preserve" overflow="hidden"><g transform="translate(259 -595)"><path d="M27.0521 27.0521C25.776 28.3281 23.6979 28.3281 22.4219 27.0521L19.3229 23.9531C18.3385 22.9688 18.0833 21.474 18.7031 20.2344L21.401 22.9323C21.8385 23.3333 22.4948 23.3333 22.9323 22.8958 23.3333 22.4948 23.3698 21.8021 22.9688 21.3646L20.2708 18.6667C21.5104 18.0833 23.0052 18.3385 23.9896 19.3229L27.0885 22.4219C28.3281 23.6979 28.3281 25.7396 27.0521 27.0521ZM11.0469 15.6771 7.94792 12.5781C6.67188 11.3021 6.67188 9.22396 7.94792 7.94792 9.22396 6.67188 11.3021 6.67188 12.5781 7.94792L15.6771 11.0469C16.6615 12.0312 16.9167 13.526 16.3333 14.7656L14.1458 12.5781C13.7083 12.1771 13.0521 12.1771 12.6146 12.6146 12.2135 13.0156 12.1771 13.7083 12.5781 14.1458L14.7656 16.3333C13.526 16.9167 12.0312 16.6615 11.0469 15.6771ZM28.5833 20.8542 25.4844 17.7552C23.6615 15.8958 20.7448 15.6042 18.5938 17.0625L17.9375 16.4062C19.3594 14.2552 19.0677 11.375 17.2448 9.51562L14.1458 6.41667C11.9948 4.44792 8.64063 4.52083 6.5625 6.5625 4.48438 8.64063 4.41146 11.9583 6.41667 14.1458L9.51562 17.2448C11.3385 19.1042 14.2552 19.3958 16.4062 17.9375L17.0625 18.5938C15.6406 20.7448 15.9323 23.625 17.7552 25.4844L20.8542 28.5833C23.0052 30.5885 26.3594 30.5156 28.4375 28.4375 30.5156 26.3594 30.5885 23.0052 28.5833 20.8542L28.5833 20.8542Z" stroke="#999B9D" stroke-width="0.36454" fill="#999B9D" transform="matrix(1.02857 0 0 1 -259 595)"/></g></svg>